<svg height="308" viewBox="0 0 720 308" width="720" xmlns="http://www.w3.org/2000/svg"><g fill="none" fill-rule="evenodd"><path d="m0 0h720v308h-720z" fill="#fff"/><g transform="translate(18 36)"><path d="m10.2555408 2.5h93.4889182c2.858082 0 3.929628.20921861 4.983927.77306381.861588.46078252 1.537768 1.13696213 1.99855 1.99855052.563845 1.05429887.773064 2.12584457.773064 4.98392647v184.4889182c0 2.858082-.209219 3.929628-.773064 4.983927-.460782.861588-1.136962 1.537768-1.99855 1.99855-1.054299.563845-2.125845.773064-4.983927.773064h-93.4889182c-2.8580819 0-3.9296276-.209219-4.98392647-.773064-.86158839-.460782-1.537768-1.136962-1.99855052-1.99855-.5638452-1.054299-.77306381-2.125845-.77306381-4.983927v-184.4889182c0-2.8580819.20921861-3.9296276.77306381-4.98392647.46078252-.86158839 1.13696213-1.537768 1.99855052-1.99855052 1.05429887-.5638452 2.12584457-.77306381 4.98392647-.77306381z" fill="#bbd8ff" stroke="#092f63" stroke-width="5"/><path d="m20.2529297 110c1.6992187 0 2.9384765-.503906 3.7177734-1.511719.5214844-.673828.7822266-1.426758.7822266-2.258789 0-.990234-.2900391-1.766601-.8701172-2.329101-.328125-.316407-.8232422-.600586-1.4853516-.852539.4511719-.228516.796875-.480469 1.0371094-.75586.4628906-.521484.6943359-1.189453.6943359-2.003906 0-.6972657-.1875-1.3125001-.5625-1.8457032-.6386718-.9023437-1.7138671-1.3535156-3.2255859-1.3535156h-5.5458984v12.9111328zm-.5625-7.453125h-3.1816406v-3.9990234h3.1201171c.7617188 0 1.3359376.0820312 1.7226563.2460937.6855469.2929688 1.0283203.8613281 1.0283203 1.7050777 0 .837891-.3222656 1.417969-.9667969 1.740235-.4101562.205078-.984375.307617-1.7226562.307617zm.5888672 5.958984h-3.7705078v-4.543945h3.4716797c.7324218 0 1.321289.09082 1.7666015.272461.8378906.339844 1.2568359.978516 1.2568359 1.916016 0 .55664-.1435546 1.03125-.430664 1.423828-.4570313.621093-1.2216797.93164-2.2939453.93164zm9.9404297 1.836914c1.5527343 0 2.6982422-.495117 3.4365234-1.485351s1.1074219-2.244141 1.1074219-3.761719c0-1.570312-.4189453-2.759765-1.256836-3.568359-.8378906-.808594-1.8632812-1.212891-3.0761718-1.212891-1.3535157 0-2.4316407.46875-3.234375 1.40625-.8027344.9375-1.2041016 2.197266-1.2041016 3.779297 0 1.476562.3808594 2.652832 1.1425781 3.528809.7617188.875976 1.7900391 1.313964 3.084961 1.313964zm.149414-1.362304c-.9550781 0-1.6523437-.333985-2.0917968-1.001953-.4394532-.667969-.6591797-1.50293-.6591797-2.504883 0-1.042969.2197265-1.933594.6591797-2.671875.4394531-.738281 1.1425781-1.107422 2.109375-1.107422 1.0898437 0 1.8574218.433594 2.3027343 1.300781.28125.550781.421875 1.265625.421875 2.144531 0 .972657-.1948242 1.855957-.5844726 2.649903-.3896485.793945-1.1088867 1.190918-2.1577149 1.190918zm9.8613282 1.362304c1.5527343 0 2.6982421-.495117 3.4365234-1.485351.7382812-.990234 1.1074219-2.244141 1.1074219-3.761719 0-1.570312-.4189453-2.759765-1.256836-3.568359-.8378906-.808594-1.8632812-1.212891-3.0761719-1.212891-1.3535156 0-2.4316406.46875-3.234375 1.40625-.8027343.9375-1.2041015 2.197266-1.2041015 3.779297 0 1.476562.3808594 2.652832 1.1425781 3.528809.7617188.875976 1.7900391 1.313964 3.084961 1.313964zm.149414-1.362304c-.9550781 0-1.6523437-.333985-2.0917969-1.001953-.4394531-.667969-.6591797-1.50293-.6591797-2.504883 0-1.042969.2197266-1.933594.6591797-2.671875.4394532-.738281 1.1425782-1.107422 2.109375-1.107422 1.0898438 0 1.8574219.433594 2.3027344 1.300781.28125.550781.421875 1.265625.421875 2.144531 0 .972657-.1948242 1.855957-.5844726 2.649903-.3896485.793945-1.1088868 1.190918-2.1577149 1.190918zm8.4902344 1.168945c.2285156 0 .440918-.011719.637207-.035156.1962891-.023438.3852539-.061524.5668946-.114258v-1.248047c-.1171876.011719-.2197266.019043-.3076172.021973-.0878907.002929-.1699219.004394-.2460938.004394-.2871094 0-.4921875-.032226-.6152344-.096679-.2226562-.111329-.3339843-.331055-.3339843-.65918v-6.143555h1.5029297v-1.291992h-1.5029297v-2.6279296h-1.5996094v2.6279296h-1.2744141v1.291992h1.2744141v6.231446c0 .603515.1318359 1.094238.3955078 1.472168.2636719.377929.7646484.566894 1.5029297.566894zm4.4121094-.149414v-12.9111328h-1.5820313v12.9111328zm5.9589843.342773c1.5527344 0 2.6982422-.495117 3.4365235-1.485351.7382812-.990234 1.1074218-2.244141 1.1074218-3.761719 0-1.570312-.4189453-2.759765-1.2568359-3.568359s-1.8632812-1.212891-3.0761719-1.212891c-1.3535156 0-2.4316406.46875-3.234375 1.40625-.8027343.9375-1.2041015 2.197266-1.2041015 3.779297 0 1.476562.3808593 2.652832 1.1425781 3.528809.7617188.875976 1.7900391 1.313964 3.0849609 1.313964zm.1494141-1.362304c-.9550781 0-1.6523438-.333985-2.0917969-1.001953-.4394531-.667969-.6591797-1.50293-.6591797-2.504883 0-1.042969.2197266-1.933594.6591797-2.671875s1.1425781-1.107422 2.109375-1.107422c1.0898438 0 1.8574219.433594 2.3027344 1.300781.28125.550781.421875 1.265625.421875 2.144531 0 .972657-.1948242 1.855957-.5844727 2.649903-.3896484.793945-1.1088867 1.190918-2.1577148 1.190918zm8.8066406 1.335937c.7265625 0 1.3916016-.155273 1.9951172-.46582s1.0664063-.676758 1.3886719-1.098633c.0527344.375.1435547.665039.2724609.870117.2460938.386719.6416016.580078 1.1865235.580078.2226562 0 .3984375-.008789.5273437-.026367.1289063-.017578.3164063-.061523.5625-.131836v-1.168945c-.0996094.017578-.1933594.030762-.28125.039551s-.1669922.013183-.2373047.013183c-.2167969 0-.3588867-.049804-.4262695-.149414-.0673828-.099609-.1010742-.231445-.1010742-.395508v-5.422851c0-.890625-.3427735-1.546875-1.0283203-1.96875-.6914063-.421875-1.5908203-.632813-2.6982422-.632813-.9550781 0-1.7944336.227051-2.5180664.681153-.7236328.454101-1.1000977 1.26123-1.1293946 2.421387h1.4765625c.0585938-.486329.1845704-.85254.3779297-1.098633.3457031-.445313.9316407-.667969 1.7578125-.667969.7148438 0 1.2641602.121582 1.6479492.364746.3837891.243164.5756836.634277.5756836 1.17334 0 .263672-.0351562.46582-.1054687.606445-.1230469.257813-.3662109.410156-.7294922.457031l-2.5224609.316407c-.8847657.111328-1.5996094.407226-2.1445313.887695s-.8173828 1.157227-.8173828 2.030273c0 .796875.2768555 1.46045.8305664 1.990723.5537109.530274 1.2670899.79541 2.1401367.79541zm.3691406-1.344726c-.4570312 0-.852539-.131836-1.1865234-.395508s-.5009766-.624024-.5009766-1.081055c0-.603515.2431641-1.042969.7294922-1.318359.2871094-.164063.7177735-.28418 1.2919922-.360352l.9580078-.123047c.2929688-.035156.5917969-.09375.8964844-.175781s.553711-.18457.7470703-.307617v1.274414c0 .972656-.4394531 1.672852-1.3183593 2.100586-.5214844.257812-1.0605469.386719-1.6171876.386719zm10.3183594 1.362304c.6503906 0 1.2275391-.128906 1.7314453-.386718.5039063-.257813.9404297-.676758 1.3095703-1.256836v1.30957h1.4238282v-12.9550781h-1.5205078v4.7548831c-.3574219-.439453-.6767578-.747071-.9580078-.922852-.4863282-.304687-1.0898438-.457031-1.8105469-.457031-1.3007813 0-2.3012696.502441-3.0014649 1.507324s-1.0502929 2.192871-1.0502929 3.563965c0 1.464844.383789 2.638184 1.1513671 3.520019.7675782.881836 1.6757813 1.322754 2.7246094 1.322754zm.4921875-1.379882c-.9433593 0-1.6289062-.339844-2.0566406-1.019532-.4277344-.679687-.6416016-1.523437-.6416016-2.53125 0-1.183593.2475586-2.080078.7426758-2.689453s1.1411133-.914062 1.9379883-.914062c.7148438 0 1.3154297.285644 1.8017578.856933s.7294922 1.45166.7294922 2.641114c0 1.177734-.2358398 2.081543-.7075195 2.711425-.4716797.629883-1.0737305.944825-1.8061524.944825zm9.984375 1.379882c.4804688 0 .9111328-.046875 1.2919922-.140625.7089844-.164062 1.3037109-.480468 1.7841797-.949218.2871094-.269532.5463867-.6167.777832-1.041504.2314453-.424805.3676758-.810059.4086914-1.155762h-1.555664c-.1171875.416016-.3164063.782227-.5976563 1.098633-.4921875.544922-1.1513672.817383-1.977539.817383-.8847657 0-1.538086-.288575-1.959961-.865723s-.6474609-1.343262-.6767578-2.29834h6.8994141c0-.949219-.046875-1.640625-.140625-2.074219-.1054688-.632812-.3164063-1.186523-.6328125-1.661132-.328125-.498047-.8056641-.903809-1.4326172-1.217286-.6269531-.313476-1.2744141-.470214-1.9423828-.470214-1.3242188 0-2.3964844.471679-3.2167969 1.415039-.8203125.943359-1.2304688 2.170898-1.2304688 3.682617 0 1.535156.4072266 2.729004 1.2216797 3.581543.8144532.852539 1.8076172 1.278808 2.9794922 1.278808zm2.7685547-5.791992h-5.2294922c.0292969-.808594.2900391-1.475097.7822266-1.999512.4921875-.524414 1.1015625-.786621 1.828125-.786621 1.0136719 0 1.7373047.38086 2.1708984 1.142579.234375.410156.3837891.958007.4482422 1.643554zm5.194336 5.458008v-5.414062c0-.667969.2138671-1.258301.6416015-1.770997.4277344-.512695 1.0400391-.769043 1.8369141-.769043.09375 0 .1801758.00293.2592776.00879.079101.005859.165527.017578.259277.035156v-1.669922c-.169922-.017578-.290039-.029297-.3603515-.035156-.0703125-.00586-.1201172-.008789-.1494141-.008789-.6269531 0-1.180664.22705-1.6611328.681152-.4804687.454101-.7822265.839355-.9052734 1.155762v-1.625977h-1.5029297v9.413086z" fill="#000" fill-rule="nonzero"/></g><g transform="translate(272 36)"><path d="m10.2555408 2.5h93.4889182c2.858082 0 3.929628.20921861 4.983927.77306381.861588.46078252 1.537768 1.13696213 1.99855 1.99855052.563845 1.05429887.773064 2.12584457.773064 4.98392647v184.4889182c0 2.858082-.209219 3.929628-.773064 4.983927-.460782.861588-1.136962 1.537768-1.99855 1.99855-1.054299.563845-2.125845.773064-4.983927.773064h-93.4889182c-2.8580819 0-3.9296276-.209219-4.98392647-.773064-.86158839-.460782-1.537768-1.136962-1.99855052-1.99855-.5638452-1.054299-.77306381-2.125845-.77306381-4.983927v-184.4889182c0-2.8580819.20921861-3.9296276.77306381-4.98392647.46078252-.86158839 1.13696213-1.537768 1.99855052-1.99855052 1.05429887-.5638452 2.12584457-.77306381 4.98392647-.77306381z" fill="#bbd8ff" stroke="#092f63" stroke-width="5"/><path d="m41.7817383 98v-5.4580078h4.0605469c1.3007812 0 2.2646484-.3735352 2.8916015-1.1206055s.9404297-1.6245117.9404297-2.6323242c0-1.171875-.3515625-2.081543-1.0546875-2.7290039s-1.6289062-.9711914-2.7773437-.9711914h-5.8095704v12.9111328zm3.4804687-6.9345703h-3.4804687v-4.4736328h3.4804687c.6738282 0 1.2041016.0908203 1.5908203.2724609.703125.3398438 1.0546875.984375 1.0546875 1.9335938 0 .84375-.2446289 1.4326172-.7338867 1.7666015-.4892578.3339844-1.1264648.5009766-1.9116211.5009766zm8.4199219 6.9345703v-6.0380859h6.7148438v6.0380859h1.7666015v-12.9111328h-1.7666015v5.3349609h-6.7148438v-5.3349609h-1.7666016v12.9111328zm16.8134766 0v-5.203125l4.8779297-7.7080078h-2.0478516l-3.7089844 6.2050781-3.7089844-6.2050781h-2.0390625l4.8779297 7.7080078v5.203125zm-42.2490235 10.881836v-1.792969h-1.6083984v1.792969zm0 11.118164v-9.369141h-1.6083984v9.369141zm3.9726563 0v-4.930664c0-.615234.0395508-1.088379.1186523-1.419434.0791016-.331054.2504883-.651855.5141602-.962402.328125-.386719.7089844-.644531 1.1425781-.773438.2402344-.076171.5478516-.114257.9228516-.114257.7382812 0 1.2480468.292968 1.5292968.878906.1699219.351562.2548829.814453.2548829 1.388672v5.932617h1.6083984v-6.038086c0-.949219-.1289063-1.678711-.3867188-2.188476-.46875-.931641-1.3710937-1.397461-2.7070312-1.397461-.609375 0-1.1630859.120117-1.6611328.360351s-.9697266.635742-1.4150391 1.186524v-1.335938h-1.5029297v9.413086zm10.0371094-11.118164v-1.792969h-1.6083985v1.792969zm0 11.118164v-9.369141h-1.6083985v9.369141zm4.6054687.149414c.2285156 0 .440918-.011719.637207-.035156.1962891-.023438.3852539-.061524.5668946-.114258v-1.248047c-.1171875.011719-.2197266.019043-.3076172.021973-.0878906.002929-.1699219.004394-.2460938.004394-.2871093 0-.4921875-.032226-.6152343-.096679-.2226563-.111329-.3339844-.331055-.3339844-.65918v-6.143555h1.5029297v-1.291992h-1.5029297v-2.62793h-1.5996094v2.62793h-1.2744141v1.291992h1.2744141v6.231446c0 .603515.1318359 1.094238.3955078 1.472168.2636719.377929.7646485.566894 1.5029297.566894zm10.9951172.18457c.6503906 0 1.2275391-.128906 1.7314453-.386718.5039063-.257813.9404297-.676758 1.3095703-1.256836v1.30957h1.4238281v-12.955078h-1.5205078v4.754883c-.3574218-.439453-.6767578-.747071-.9580078-.922852-.4863281-.304687-1.0898437-.457031-1.8105469-.457031-1.3007812 0-2.3012695.502441-3.0014648 1.507324s-1.050293 2.192871-1.050293 3.563965c0 1.464844.3837891 2.638184 1.1513672 3.520019.7675781.881836 1.6757813 1.322754 2.7246094 1.322754zm.4921875-1.379882c-.9433594 0-1.6289063-.339844-2.0566406-1.019532-.4277344-.679687-.6416016-1.523437-.6416016-2.53125 0-1.183593.2475586-2.080078.7426758-2.689453s1.1411133-.914062 1.9379883-.914062c.7148437 0 1.3154297.285644 1.8017578.856933s.7294922 1.45166.7294922 2.641114c0 1.177734-.2358399 2.081543-.7075196 2.711425-.4716796.629883-1.0737304.944825-1.8061523.944825zm8.8417969 1.362304c.7265625 0 1.3916015-.155273 1.9951172-.46582.6035156-.310547 1.0664062-.676758 1.3886718-1.098633.0527344.375.1435547.665039.272461.870117.2460937.386719.6416015.580078 1.1865234.580078.2226563 0 .3984375-.008789.5273438-.026367.1289062-.017578.3164062-.061523.5625-.131836v-1.168945c-.0996094.017578-.1933594.030762-.28125.039551-.0878907.008789-.1669922.013183-.2373047.013183-.2167969 0-.3588867-.049804-.4262696-.149414-.0673828-.099609-.1010742-.231445-.1010742-.395508v-5.422851c0-.890625-.3427734-1.546875-1.0283203-1.96875-.6914062-.421875-1.5908203-.632813-2.6982422-.632813-.9550781 0-1.7944336.227051-2.5180664.681153-.7236328.454101-1.1000976 1.26123-1.1293945 2.421387h1.4765625c.0585937-.486329.1845703-.85254.3779297-1.098633.3457031-.445313.9316406-.667969 1.7578125-.667969.7148437 0 1.2641601.121582 1.6479492.364746.383789.243164.5756836.634277.5756836 1.17334 0 .263672-.0351563.46582-.1054688.606445-.1230468.257813-.3662109.410156-.7294922.457031l-2.5224609.316407c-.8847656.111328-1.5996094.407226-2.1445312.887695-.5449219.480469-.8173829 1.157227-.8173829 2.030273 0 .796875.2768555 1.46045.8305664 1.990723.553711.530274 1.2670899.79541 2.1401368.79541zm.3691406-1.344726c-.4570313 0-.8525391-.131836-1.1865234-.395508-.3339844-.263672-.5009766-.624024-.5009766-1.081055 0-.603515.2431641-1.042969.7294922-1.318359.2871094-.164063.7177734-.28418 1.2919922-.360352l.9580078-.123047c.2929687-.035156.5917969-.09375.8964844-.175781s.5537109-.18457.7470703-.307617v1.274414c0 .972656-.4394532 1.672852-1.3183594 2.100586-.5214844.257812-1.0605469.386719-1.6171875.386719zm9.3251953 1.177734c.2285156 0 .440918-.011719.637207-.035156.1962891-.023438.3852539-.061524.5668946-.114258v-1.248047c-.1171875.011719-.2197266.019043-.3076172.021973-.0878906.002929-.1699219.004394-.2460938.004394-.2871093 0-.4921875-.032226-.6152343-.096679-.2226563-.111329-.3339844-.331055-.3339844-.65918v-6.143555h1.5029297v-1.291992h-1.5029297v-2.62793h-1.5996094v2.62793h-1.2744141v1.291992h1.2744141v6.231446c0 .603515.1318359 1.094238.3955078 1.472168.2636719.377929.7646485.566894 1.5029297.566894zm5.3173828.166992c.7265625 0 1.3916016-.155273 1.9951172-.46582s1.0664063-.676758 1.3886719-1.098633c.0527344.375.1435547.665039.2724609.870117.2460938.386719.6416016.580078 1.1865235.580078.2226562 0 .3984375-.008789.5273437-.026367.1289063-.017578.3164063-.061523.5625-.131836v-1.168945c-.0996094.017578-.1933594.030762-.28125.039551s-.1669922.013183-.2373047.013183c-.2167969 0-.3588867-.049804-.4262695-.149414-.0673828-.099609-.1010742-.231445-.1010742-.395508v-5.422851c0-.890625-.3427735-1.546875-1.0283203-1.96875-.6914063-.421875-1.5908204-.632813-2.6982422-.632813-.9550782 0-1.7944336.227051-2.5180664.681153-.7236328.454101-1.1000977 1.26123-1.1293946 2.421387h1.4765625c.0585938-.486329.1845703-.85254.3779297-1.098633.3457031-.445313.9316406-.667969 1.7578125-.667969.7148438 0 1.2641602.121582 1.6479492.364746.3837891.243164.5756836.634277.5756836 1.17334 0 .263672-.0351562.46582-.1054687.606445-.1230469.257813-.366211.410156-.7294922.457031l-2.5224609.316407c-.8847657.111328-1.5996094.407226-2.1445313.887695s-.8173828 1.157227-.8173828 2.030273c0 .796875.2768555 1.46045.8305664 1.990723.5537109.530274 1.2670898.79541 2.1401367.79541zm.3691406-1.344726c-.4570312 0-.852539-.131836-1.1865234-.395508s-.5009766-.624024-.5009766-1.081055c0-.603515.2431641-1.042969.7294922-1.318359.2871094-.164063.7177735-.28418 1.2919922-.360352l.9580078-.123047c.2929688-.035156.5917969-.09375.8964844-.175781s.5537109-.18457.7470703-.307617v1.274414c0 .972656-.4394531 1.672852-1.3183594 2.100586-.5214843.257812-1.0605468.386719-1.6171875.386719z" fill="#000" fill-rule="nonzero"/></g><g transform="translate(145 36)"><path d="m10.2555408 2.5h93.4889182c2.858082 0 3.929628.20921861 4.983927.77306381.861588.46078252 1.537768 1.13696213 1.99855 1.99855052.563845 1.05429887.773064 2.12584457.773064 4.98392647v184.4889182c0 2.858082-.209219 3.929628-.773064 4.983927-.460782.861588-1.136962 1.537768-1.99855 1.99855-1.054299.563845-2.125845.773064-4.983927.773064h-93.4889182c-2.8580819 0-3.9296276-.209219-4.98392647-.773064-.86158839-.460782-1.537768-1.136962-1.99855052-1.99855-.5638452-1.054299-.77306381-2.125845-.77306381-4.983927v-184.4889182c0-2.8580819.20921861-3.9296276.77306381-4.98392647.46078252-.86158839 1.13696213-1.537768 1.99855052-1.99855052 1.05429887-.5638452 2.12584457-.77306381 4.98392647-.77306381z" fill="#bbd8ff" stroke="#092f63" stroke-width="5"/><path d="m41.5356445 110v-10.4501953l6.6181641 10.4501953h1.9599609v-12.9111328h-1.6611328v10.4589848l-6.5214844-10.4589848h-2.0654296v12.9111328zm16.9716797 0 4.7109375-12.9111328h-1.9599609l-3.6650391 10.9951168-3.7089844-10.9951168h-1.9335937l4.7021484 12.9111328zm10.96875.37793c1.3769531 0 2.5854492-.307618 3.6254883-.922852s1.5600586-1.637695 1.5600586-3.067383c0-1.148437-.4101563-2.024414-1.2304688-2.627929-.4746093-.345704-1.1484375-.618164-2.0214843-.817383l-1.8105469-.413086c-1.21875-.28125-2.0009766-.515625-2.3466797-.703125-.5273437-.292969-.7910156-.75586-.7910156-1.388672 0-.5742188.2255859-1.078125.6767578-1.5117188.4511719-.4335937 1.1923828-.6503906 2.2236328-.6503906 1.2773438 0 2.1826172.3369141 2.7158203 1.0107422.2871094.3691406.4746094.8994142.5625 1.5908202h1.6435547c0-1.4355468-.4731445-2.4799803-1.4194336-3.1333007-.946289-.6533203-2.0961914-.9799804-3.449707-.9799804-1.4707031 0-2.6074219.3720703-3.4101563 1.1162109-.8027343.7441406-1.2041015 1.6962891-1.2041015 2.8564452 0 1.072266.4101562 1.87793 1.2304687 2.416992.4746094.310547 1.2832031.594727 2.4257813.852539l1.7490234.395508c.9492188.216797 1.6464844.47168 2.0917969.764649.4394531.298828.6591797.799804.6591797 1.502929 0 .9375-.5214844 1.587891-1.5644532 1.951172-.5390625.1875-1.1367187.28125-1.7929687.28125-1.4648438 0-2.4873047-.427734-3.0673828-1.283203-.3046875-.457031-.4775391-1.051758-.5185547-1.78418h-1.6435547c-.0175781 1.394532.4277344 2.499024 1.3359375 3.313477.9082031.820312 2.1650391 1.230469 3.7705078 1.230469z" fill="#000" fill-rule="nonzero"/></g><g transform="translate(399 36)"><path d="m17.9471964 2.5h267.1056076c5.532638 0 7.574042.48769544 9.606119 1.57446192 1.839366.98370379 3.282911 2.42724913 4.266615 4.2666153 1.086767 2.03207668 1.574462 4.07348108 1.574462 9.60611918v169.1056076c0 5.532638-.487695 7.574042-1.574462 9.606119-.983704 1.839366-2.427249 3.282911-4.266615 4.266615-2.032077 1.086767-4.073481 1.574462-9.606119 1.574462h-267.1056076c-5.5326381 0-7.5740425-.487695-9.60611918-1.574462-1.83936617-.983704-3.28291151-2.427249-4.2666153-4.266615-1.08676648-2.032077-1.57446192-4.073481-1.57446192-9.606119v-169.1056076c0-5.5326381.48769544-7.5740425 1.57446192-9.60611918.98370379-1.83936617 2.42724913-3.28291151 4.2666153-4.2666153 2.03207668-1.08676648 4.07348108-1.57446192 9.60611918-1.57446192z" fill="#bbd8ff" stroke="#092f63" stroke-width="5"/><g fill="#6283b1" fill-rule="nonzero"><path d="m47.6054688 99 1.2421874-3.4375h4.5390626l1.1640624 3.4375h1.703125l-4.1640624-11.4765625h-1.7578126l-4.3203124 11.4765625zm5.28125-4.703125h-3.59375l1.8515624-5.0703125zm8.484375 4.703125 2.6640624-9.515625 2.6484376 9.515625h1.6328124l3.015625-11.4765625h-1.703125l-2.1640624 9.3359375-2.59375-9.3359375h-1.6875l-2.59375 9.3359375-2.1640626-9.3359375h-1.6875l3 11.4765625zm15.4921874.3359375c1.2239584 0 2.2981771-.2734375 3.2226563-.8203125s1.3867187-1.4557292 1.3867187-2.7265625c0-1.0208333-.3645833-1.7994792-1.09375-2.3359375-.421875-.3072917-1.0208333-.5494792-1.796875-.7265625l-1.609375-.3671875c-1.0833333-.25-1.7786458-.4583333-2.0859374-.625-.46875-.2604167-.703125-.671875-.703125-1.234375 0-.5104167.2005208-.9583333.6015624-1.34375.4010417-.3854167 1.0598959-.578125 1.9765626-.578125 1.1354166 0 1.9401041.2994792 2.4140624.8984375.2552084.328125.421875.7994792.5 1.4140625h1.4609376c0-1.2760417-.420573-2.2044271-1.2617188-2.7851562-.8411458-.5807292-1.8632812-.8710938-3.0664062-.8710938-1.3072917 0-2.3177084.3307292-3.03125.9921875-.7135417.6614583-1.0703126 1.5078125-1.0703126 2.5390625 0 .953125.3645834 1.6692708 1.09375 2.1484375.421875.2760417 1.140625.5286458 2.15625.7578125l1.5546876.3515625c.84375.1927083 1.4635416.4192708 1.859375.6796875.390625.265625.5859374.7109375.5859374 1.3359375 0 .8333333-.4635416 1.4114583-1.390625 1.734375-.4791666.1666667-1.0104166.25-1.59375.25-1.3020833 0-2.2109374-.3802083-2.7265624-1.140625-.2708334-.40625-.4244792-.9348958-.4609376-1.5859375h-1.4609374c-.015625 1.2395833.3802083 2.2213542 1.1875 2.9453125.8072916.7291667 1.9244791 1.09375 3.3515624 1.09375zm-47.0234374 18.9609375c1.546875 0 2.7760416-.492187 3.6875-1.476563.7604166-.817708 1.2083333-1.830729 1.34375-3.039062h-1.515625c-.15625.755208-.3932292 1.364583-.7109376 1.828125-.5989583.880208-1.4713541 1.320313-2.6171874 1.320313-1.2447917 0-2.1809896-.417969-2.8085938-1.253907-.6276042-.835937-.9414062-1.925781-.9414062-3.269531 0-1.640625.3476562-2.858073 1.0429687-3.652344s1.6080729-1.191406 2.7382813-1.191406c.9270833 0 1.6471354.216146 2.1601562.648438.5130208.432291.8554688 1.018229 1.0273438 1.757812h1.515625c-.0885417-.973958-.5338542-1.84375-1.3359376-2.609375-.8020833-.765625-1.9296874-1.148437-3.3828124-1.148437-1.703125 0-3.0390626.588541-4.0078126 1.765624-.8958333 1.083334-1.34375 2.471355-1.34375 4.164063 0 2.229167.5963542 3.877604 1.7890626 4.945313.90625.807291 2.0260416 1.210937 3.359375 1.210937zm10 0c.4270833 0 .8098958-.041667 1.1484374-.125.6302084-.145833 1.1588542-.427083 1.5859376-.84375.2552083-.239583.485677-.548177.6914062-.925781s.3268229-.720052.3632812-1.027344h-1.3828124c-.1041667.369792-.28125.695312-.53125.976562-.4375.484376-1.0234376.726563-1.7578126.726563-.7864583 0-1.3671874-.25651-1.7421874-.769531s-.5755209-1.194011-.6015626-2.042969h6.1328126c0-.84375-.0416667-1.458333-.125-1.84375-.09375-.5625-.28125-1.054687-.5625-1.476563-.2916667-.442708-.7161459-.803385-1.2734376-1.082031-.5572916-.278646-1.1328124-.417969-1.7265624-.417969-1.1770834 0-2.1302084.419271-2.859375 1.257813-.7291667.838542-1.09375 1.929687-1.09375 3.273437 0 1.364584.3619791 2.425782 1.0859374 3.183594.7239584.757813 1.6067709 1.136719 2.6484376 1.136719zm2.4609374-5.148437h-4.6484374c.0260416-.71875.2578124-1.311198.6953124-1.777344s.9791667-.699219 1.625-.699219c.9010417 0 1.5442709.338542 1.9296876 1.015625.2083333.364583.3411458.851562.3984374 1.460938zm4.6171876 4.851562v-4.8125c0-.59375.1901041-1.11849.5703124-1.574219.3802084-.455729.9244792-.683593 1.6328126-.683593.0833333 0 .1601562.002604.2304687.007812s.1471354.015625.2304687.03125v-1.484375c-.1510416-.015625-.2578124-.026042-.3203124-.03125s-.1067709-.007813-.1328126-.007813c-.5572916 0-1.0494791.201823-1.4765624.605469-.4270834.403646-.6953126.746094-.8046876 1.027344v-1.445313h-1.3359374v8.367188zm5.8515624.132812c.203125 0 .3919271-.010416.5664063-.03125.1744792-.020833.3424479-.054687.5039063-.101562v-1.109375c-.1041667.010417-.1953126.016927-.2734376.019531s-.1510416.003906-.21875.003906c-.2552083 0-.4375-.028645-.546875-.085937-.1979166-.098958-.296875-.294271-.296875-.585937v-5.460938h1.3359376v-1.148438h-1.3359376v-2.335937h-1.421875v2.335937h-1.1328124v1.148438h1.1328124v5.539062c0 .536459.1171876.972657.3515626 1.308594.234375.335938.6796874.503906 1.3359374.503906zm3.90625-10.015624v-1.59375h-1.4296874v1.59375zm0 9.882812v-8.328125h-1.4296874v8.328125zm3.8671876 0v-7.21875h1.40625v-1.109375h-1.390625c0-.90625.0416666-1.470052.125-1.691406.0833333-.221354.3385416-.332031.765625-.332031.0572916 0 .1184895.001302.1835937.003906s.1705729.009114.3164063.019531v-1.28125c-.1197917-.010417-.2265626-.018229-.3203126-.023437-.09375-.005209-.1848958-.007813-.2734374-.007813-.9375 0-1.5703126.239583-1.8984376.71875-.1822916.270833-.2838541.697917-.3046874 1.28125v1.3125h-1.1640626v1.109375h1.1640626v7.21875zm4.1640624-9.882812v-1.59375h-1.40625v1.59375zm0 9.882812v-8.328125h-1.40625v8.328125zm5.1171876.242188c.9739583 0 1.7734374-.256511 2.3984374-.769532s1.015625-1.324218 1.171875-2.433594h-1.3671874c-.1302084.619792-.3658855 1.108073-.7070313 1.464844s-.8033854.535156-1.3867187.535156c-.7604167 0-1.3177084-.286458-1.671875-.859374-.3541667-.572917-.53125-1.278646-.53125-2.117188 0-.833333.125-1.533854.375-2.101562.3854166-.875 1.0260416-1.3125 1.921875-1.3125.65625 0 1.1328124.170572 1.4296874.511718s.4869792.769532.5703126 1.285156h1.3671874c-.1197916-1.119791-.4752604-1.908854-1.0664062-2.367187s-1.3580729-.6875-2.3007812-.6875c-1.1041667 0-2.0130209.408854-2.7265626 1.226563-.7135416.817708-1.0703124 1.960937-1.0703124 3.429687 0 1.197917.3255208 2.196615.9765624 2.996094.6510417.799479 1.5234376 1.199219 2.6171876 1.199219zm7.2265624.039062c.6458334 0 1.2369792-.138021 1.7734376-.414062.5364583-.276042.9479166-.601563 1.234375-.976563.046875.333333.1276041.591146.2421874.773437.21875.34375.5703126.515626 1.0546876.515626.1979166 0 .3541666-.007813.46875-.023438.1145833-.015625.28125-.054688.5-.117188v-1.039062c-.0885417.015625-.171875.027344-.25.035156-.078125.007813-.1484376.011719-.2109376.011719-.1927083 0-.3190104-.044271-.3789062-.132813-.0598958-.088541-.0898438-.205729-.0898438-.351562v-4.820312c0-.791667-.3046874-1.375-.9140624-1.75-.6145834-.375-1.4140626-.5625-2.3984376-.5625-.8489583 0-1.595052.201822-2.2382812.605468s-.9778646 1.121094-1.0039062 2.152344h1.3125c.0520833-.432292.1640624-.757812.3359374-.976562.3072917-.395834.828125-.59375 1.5625-.59375.6354167 0 1.123698.108072 1.4648438.324218s.5117188.563802.5117188 1.042969c0 .234375-.03125.414063-.09375.539063-.109375.229166-.3255209.364583-.6484376.40625l-2.2421874.28125c-.7864584.098958-1.421875.361979-1.90625.789062s-.7265626 1.028646-.7265626 1.804688c0 .708333.2460938 1.298177.7382813 1.769531s1.1263021.707031 1.9023437.707031zm.328125-1.195312c-.40625 0-.7578124-.117188-1.0546874-.351563s-.4453126-.554687-.4453126-.960937c0-.536459.2161459-.927084.6484376-1.171876.2552083-.145833.6380208-.252604 1.1484374-.320312l.8515626-.109375c.2604166-.03125.5260416-.083333.796875-.15625.2708333-.072917.4921874-.164063.6640624-.273437v1.132812c0 .864583-.390625 1.486979-1.171875 1.867188-.4635416.229166-.9427083.34375-1.4375.34375zm8.2890626 1.046874c.203125 0 .391927-.010416.5664062-.03125.1744792-.020833.3424479-.054687.5039062-.101562v-1.109375c-.1041666.010417-.1953124.016927-.2734374.019531s-.1510417.003906-.21875.003906c-.2552084 0-.4375-.028645-.546875-.085937-.1979167-.098958-.296875-.294271-.296875-.585937v-5.460938h1.3359374v-1.148438h-1.3359374v-2.335937h-1.421875v2.335937h-1.1328126v1.148438h1.1328126v5.539062c0 .536459.1171874.972657.3515624 1.308594.234375.335938.6796876.503906 1.3359376.503906zm5.7421874.164063c.4270834 0 .8098959-.041667 1.1484376-.125.6302083-.145833 1.1588541-.427083 1.5859374-.84375.2552084-.239583.4856771-.548177.6914063-.925781s.3268229-.720052.3632813-1.027344h-1.3828126c-.1041666.369792-.28125.695312-.53125.976562-.4375.484376-1.0234374.726563-1.7578124.726563-.7864584 0-1.3671876-.25651-1.7421876-.769531s-.5755208-1.194011-.6015624-2.042969h6.1328124c0-.84375-.0416666-1.458333-.125-1.84375-.09375-.5625-.28125-1.054687-.5625-1.476563-.2916666-.442708-.7161458-.803385-1.2734374-1.082031-.5572917-.278646-1.1328126-.417969-1.7265626-.417969-1.1770833 0-2.1302083.419271-2.859375 1.257813-.7291666.838542-1.09375 1.929687-1.09375 3.273437 0 1.364584.3619792 2.425782 1.0859376 3.183594.7239583.757813 1.6067708 1.136719 2.6484374 1.136719zm2.4609376-5.148437h-4.6484376c.0260417-.71875.2578126-1.311198.6953126-1.777344s.9791666-.699219 1.625-.699219c.9010416 0 1.5442708.338542 1.9296874 1.015625.2083334.364583.3411459.851562.3984376 1.460938zm6.1328122 5.171874c1.15625 0 2.016927-.270833 2.582032-.8125.565104-.541666.847656-1.184895.847656-1.929687 0-.770833-.273438-1.335937-.820313-1.695313-.34375-.229166-1.020833-.466145-2.03125-.710937l-.9296872-.226563c-.40625-.098958-.7135417-.213541-.921875-.34375-.359375-.21875-.5390626-.510416-.5390626-.875 0-.333333.1367188-.601562.4101563-.804687s.6757813-.304687 1.2070313-.304687c.7968752 0 1.3567712.184895 1.6796872.554687.197917.260417.309896.549479.335938.867187h1.328125c.010416-.541666-.158854-1.046874-.507813-1.515624-.557291-.739584-1.466146-1.109376-2.7265622-1.109376-.9635417 0-1.7304688.244792-2.3007813.734376-.5703125.489583-.8554687 1.130208-.8554687 1.921874 0 .671876.3020833 1.197917.90625 1.578126.3385416.21875.8645833.416666 1.578125.59375l1.1171872.28125c.598959.151041 1 .283854 1.203125.398437.317709.1875.476563.460937.476563.820313 0 .473958-.197917.824218-.59375 1.050781-.395834.226562-.854167.339843-1.375.339843-.8750002 0-1.4895836-.226562-1.8437502-.679687-.1927084-.25-.3098959-.609375-.3515626-1.078125h-1.3515624c.0364583.833333.313802 1.532552.8320312 2.097656s1.3997396.847656 2.644531.847656z"/><path d="m165.288574 109v-5.871094h6.336914v-1.538086h-6.336914v-3.9199216h7.207031v-1.5820312h-8.956054v12.9111328zm10.476563-11.1181641v-1.7929687h-1.608399v1.7929687zm0 11.1181641v-9.3691406h-1.608399v9.3691406zm4.016601 0v-5.414062c0-.667969.213867-1.258301.641602-1.770997.427734-.512695 1.040039-.769043 1.836914-.769043.09375 0 .180176.00293.259277.00879.079102.005859.165528.017578.259278.035156v-1.6699221c-.169922-.0175781-.290039-.0292969-.360352-.0351563-.070312-.0058594-.120117-.008789-.149414-.008789-.626953 0-1.180664.2270507-1.661133.6811524-.480469.454101-.782226.839355-.905273 1.155762v-1.6259769h-1.50293v9.4130859zm5.950196 0v-4.992188c0-1.21289.244628-2.050781.733886-2.513671.489258-.462891 1.032715-.694336 1.630371-.694336.65625 0 1.104493.219726 1.344727.659179.152344.292969.228516.758789.228516 1.397461v6.143555h1.608398v-5.475586c0-.972656.224121-1.666992.672363-2.083008.448243-.416015.98291-.624023 1.604004-.624023.451172 0 .833496.117187 1.146973.351562.313476.234375.470215.665039.470215 1.291993v6.539062h1.643554v-6.266602c0-.832031-.123046-1.49414-.36914-1.986328-.457031-.9140622-1.31836-1.3710934-2.583985-1.3710934-.591796 0-1.125.121582-1.599609.3647461-.474609.243164-.887695.6166993-1.239258 1.1206053-.210937-.410156-.445312-.720703-.703125-.9316405-.457031-.3691406-1.060547-.5537109-1.810547-.5537109-.662109 0-1.253906.1787109-1.77539.5361328-.304688.2109376-.644532.5478516-1.019532 1.0107426v-1.3359379h-1.564453v9.4130859zm16.769531 0 1.854492-7.286133 1.916016 7.286133h1.643554l2.733399-9.4130859h-1.582031l-1.924805 7.3740239-1.845703-7.3740239h-1.775391l-1.836914 7.4179689-1.810547-7.4179689h-1.731445l2.71582 9.4130859zm12.172851.316406c.726563 0 1.391602-.155273 1.995118-.46582.603515-.310547 1.066406-.676758 1.388671-1.098633.052735.375.143555.665039.272461.870117.246094.386719.641602.580078 1.186524.580078.222656 0 .398437-.008789.527344-.026367.128906-.017578.316406-.061523.5625-.131836v-1.168945c-.09961.017578-.19336.030762-.28125.039551-.087891.008789-.166993.013183-.237305.013183-.216797 0-.358887-.049804-.42627-.149414-.067382-.099609-.101074-.231445-.101074-.395508v-5.422851c0-.890625-.342773-1.546875-1.02832-1.9687501-.691406-.421875-1.59082-.6328125-2.698242-.6328125-.955078 0-1.794434.2270508-2.518067.6811526-.723633.454101-1.100097 1.26123-1.129394 2.421387h1.476562c.058594-.486329.184571-.85254.37793-1.098633.345703-.445313.931641-.667969 1.757812-.667969.714844 0 1.264161.121582 1.64795.364746s.575683.634277.575683 1.17334c0 .263672-.035156.46582-.105469.606445-.123046.257813-.36621.410156-.729492.457031l-2.522461.316407c-.884765.111328-1.599609.407226-2.144531.887695s-.817383 1.157227-.817383 2.030273c0 .796875.276856 1.46045.830567 1.990723.553711.530274 1.26709.79541 2.140136.79541zm.369141-1.344726c-.457031 0-.852539-.131836-1.186523-.395508-.333985-.263672-.500977-.624024-.500977-1.081055 0-.603515.243164-1.042969.729492-1.318359.28711-.164063.717774-.28418 1.291992-.360352l.958008-.123047c.292969-.035156.591797-.09375.896485-.175781.304687-.082031.553711-.18457.74707-.307617v1.274414c0 .972656-.439453 1.672852-1.318359 2.100586-.521485.257812-1.060547.386719-1.617188.386719zm8.736328 1.02832v-5.414062c0-.667969.213867-1.258301.641602-1.770997.427734-.512695 1.040039-.769043 1.836914-.769043.09375 0 .180176.00293.259277.00879.079102.005859.165527.017578.259277.035156v-1.6699221c-.169921-.0175781-.290039-.0292969-.360351-.0351563-.070313-.0058594-.120117-.008789-.149414-.008789-.626953 0-1.180664.2270507-1.661133.6811524-.480469.454101-.782227.839355-.905273 1.155762v-1.6259769h-1.50293v9.4130859zm8.041992.333984c.480469 0 .911133-.046875 1.291993-.140625.708984-.164062 1.30371-.480468 1.784179-.949218.28711-.269532.546387-.6167.777832-1.041504.231446-.424805.367676-.810059.408692-1.155762h-1.555664c-.117188.416016-.316407.782227-.597657 1.098633-.492187.544922-1.151367.817383-1.977539.817383-.884765 0-1.538086-.288575-1.959961-.865723s-.647461-1.343262-.676757-2.29834h6.899414c0-.949219-.046875-1.640625-.140625-2.074219-.105469-.632812-.316407-1.186523-.632813-1.661132-.328125-.498047-.805664-.903809-1.432617-1.2172856s-1.274414-.4702148-1.942383-.4702148c-1.324219 0-2.396484.4716796-3.216797 1.4150394-.820312.943359-1.230469 2.170898-1.230469 3.682617 0 1.535156.407227 2.729004 1.22168 3.581543s1.807617 1.278808 2.979492 1.278808zm2.768555-5.791992h-5.229492c.029297-.808594.290039-1.475097.782226-1.999512.492188-.524414 1.101563-.786621 1.828125-.786621 1.013672 0 1.737305.38086 2.170899 1.142579.234375.410156.383789.958007.448242 1.643554z"/></g></g><g fill-rule="nonzero"><path d="m539.714844 278v-11.140625h-1.109375c-.197917.864583-.497396 1.41276-.898438 1.644531-.401041.231771-1.109375.397136-2.125.496094v1.078125h2.632813v7.921875zm5.898437 0v-6.773438c0-.270833-.00651-.69401-.019531-1.269531s-.019531-1.003906-.019531-1.285156v-.351563l3.296875 9.679688h1.539062l3.273438-9.679688c0 .619792-.005209 1.200521-.015625 1.742188-.010417.541667-.015625.929688-.015625 1.164062v6.773438h1.476562v-11.476562h-2.203125l-3.273437 9.703124-3.296875-9.703124h-2.226563v11.476562zm16.695313 0c1.510416 0 2.611979-.447917 3.304687-1.34375.463542-.598958.695313-1.268229.695313-2.007812 0-.880209-.257813-1.570313-.773438-2.070313-.291666-.28125-.731771-.533854-1.320312-.757813.401041-.203124.708333-.427083.921875-.671874.411458-.463542.617187-1.057292.617187-1.78125 0-.619792-.166666-1.166667-.5-1.640626-.567708-.802083-1.523437-1.203124-2.867187-1.203124h-4.929688v11.476562zm-.5-6.625h-2.828125v-3.554688h2.773437c.677084 0 1.1875.072917 1.53125.21875.609375.260417.914063.765626.914063 1.515626 0 .744791-.286459 1.260416-.859375 1.546874-.364584.182292-.875.273438-1.53125.273438zm.523437 5.296875h-3.351562v-4.039063h3.085937c.651042 0 1.174479.08073 1.570313.242188.744791.302083 1.117187.869792 1.117187 1.703125 0 .494792-.127604.916667-.382812 1.265625-.40625.552083-1.085938.828125-2.039063.828125z" fill="#000"/><path d="m188.433594 268v-1.328125h-6.109375c.135416-.552083.463541-1.054687.984375-1.507813.291666-.255208.692708-.523437 1.203125-.804687l1.070312-.59375c.942709-.526042 1.596354-.973958 1.960938-1.34375.630208-.635417.945312-1.401042.945312-2.296875 0-.848958-.295573-1.619792-.886719-2.3125-.591145-.692708-1.527343-1.039062-2.808593-1.039062-1.541667 0-2.617188.541666-3.226563 1.625-.34375.614583-.523437 1.408854-.539062 2.382812h1.429687c.020834-.692708.130209-1.234375.328125-1.625.369792-.729167 1.036459-1.09375 2-1.09375.651042 0 1.171875.191406 1.5625.574219.390625.382812.585938.899739.585938 1.550781 0 .557292-.213542 1.052083-.640625 1.484375-.270834.276042-.742188.609375-1.414063 1l-1.5.867187c-1.005208.583334-1.680989 1.231771-2.027344 1.945313-.346354.713542-.545572 1.552083-.597656 2.515625zm7.4375 0v-2.734375h1.648437v-1.226563h-1.648437v-7.257812h-1.1875l-5.125 7.109375v1.375h4.90625v2.734375zm-1.429688-3.960938h-3.585937l3.585937-5.070312zm7.71875 4.242188c1.432292 0 2.475261-.403646 3.128906-1.210938.653646-.807291.980469-1.739583.980469-2.796874 0-1.015626-.356771-1.854167-1.070312-2.515626-.713542-.661458-1.583334-.992187-2.609375-.992187-.546875 0-1.028646.085937-1.445313.257813-.234375.098958-.481771.247395-.742187.445312l.476562-3.109375h4.757813v-1.359375h-5.8125l-.851563 6.023438 1.21875.070312c.244792-.333333.540365-.59375.886719-.78125s.761719-.28125 1.246094-.28125c.666666 0 1.238281.213542 1.714843.640625.476563.427083.714844 1.03125.714844 1.8125 0 .645833-.200521 1.234375-.601562 1.765625-.401042.53125-1.018229.796875-1.851563.796875-.4375 0-.822916-.078125-1.15625-.234375-.651041-.307292-1.023437-.861979-1.117187-1.664062h-1.460938c.083334 1.0625.475261 1.85026 1.175782 2.363281.70052.513021 1.50651.769531 2.417968.769531zm8.523438-.28125c.239583-1.145833.434896-1.976562.585937-2.492188.234375-.802083.578125-1.690104 1.03125-2.664062.458334-1 .985677-1.932292 1.582031-2.796875.596355-.864583 1.074219-1.471354 1.433594-1.820313v-1.226562h-7.78125v1.414062h6.1875c-.786458.901042-1.536458 1.971355-2.25 3.210938-1.208333 2.114583-1.989583 4.239583-2.34375 6.375zm9.617187.289062c1.223959 0 2.166667-.391927 2.828125-1.175781.661459-.783854.992188-1.683593.992188-2.699219 0-1.1875-.348959-2.080729-1.046875-2.679687-.697917-.598958-1.515625-.898437-2.453125-.898437-.552084 0-1.052084.104166-1.5.3125-.489584.234374-.895834.588541-1.21875 1.0625.052083-1.354167.309896-2.394532.773437-3.121094.463542-.726563 1.088542-1.089844 1.875-1.089844.6875 0 1.200521.234375 1.539063.703125.182291.25.315104.596354.398437 1.039063h1.390625c0-.6875-.246094-1.355469-.738281-2.003907-.492187-.648437-1.363281-.972656-2.613281-.972656-1.729167 0-2.919271.927083-3.570313 2.78125-.338541.96875-.507812 2.148437-.507812 3.539063 0 1.880208.380208 3.217447 1.140625 4.011718.760416.794271 1.664062 1.191406 2.710937 1.191406zm.125-1.25c-.734375 0-1.308593-.240885-1.722656-.722656s-.621094-1.076823-.621094-1.785156c0-.807292.227865-1.411458.683594-1.8125s.985677-.601562 1.589844-.601562c.864583 0 1.460937.259114 1.789062.777343s.492188 1.063802.492188 1.636719c0 .677083-.183594 1.264323-.550781 1.761719-.367188.497396-.920573.746093-1.660157.746093zm-32.382812 20.226563c1.135416 0 2.023437-.4375 2.664062-1.3125s.960938-1.973958.960938-3.296875c0-1.395833-.324219-2.451823-.972657-3.167969-.648437-.716146-1.493489-1.074219-2.535156-1.074219-.5 0-.963541.105469-1.390625.316407-.427083.210937-.794271.516927-1.101562.917969v-4.164063h-1.367188v11.515625h1.296875v-1.070312c.296875.401041.575521.692708.835938.875.4375.307291.973958.460937 1.609375.460937zm-.085938-1.242187c-1.010416 0-1.700521-.460938-2.070312-1.382813-.197917-.489583-.296875-1.127604-.296875-1.914063 0-1.088541.240885-1.869791.722656-2.34375.481771-.473958 1.042969-.710937 1.683594-.710937.734375 0 1.290364.289063 1.667968.867187.377605.578126.566407 1.307292.566407 2.1875 0 .989584-.188802 1.786459-.566407 2.390626-.377604.604166-.946614.90625-1.707031.90625zm6.09375 4.40625c.8125 0 1.385417-.234376 1.71875-.703126.333334-.46875.90625-1.770833 1.71875-3.90625l.21625-.575625c.301667-.81.656667-1.789999 1.065-2.939999.682292-1.911459 1.122396-3.135417 1.320313-3.671876h-1.554688l-2.257812 6.8125-2.242188-6.8125h-1.59375l3.09375 8.609376c-.072916.1875-.190104.473958-.351562.859374-.161459.385417-.255209.598959-.28125.640626-.083334.125-.186198.230468-.308594.316406-.122396.085937-.313802.128906-.574219.128906-.083333 0-.179687-.007812-.289062-.023438-.109375-.015624-.286459-.057291-.53125-.125v1.28125c.15625.041667.28776.070313.394531.085938s.259115.023438.457031.023438zm9.226563-3.296876c.203125 0 .391927-.010416.566406-.03125.174479-.020833.342448-.054687.503906-.101562v-1.109375c-.104166.010417-.195312.016927-.273437.019531s-.151042.003906-.21875.003906c-.255209 0-.4375-.028645-.546875-.085937-.197917-.098958-.296875-.294271-.296875-.585937v-5.460938h1.335937v-1.148438h-1.335937v-2.335937h-1.421875v2.335937h-1.132813v1.148438h1.132813v5.539062c0 .536459.117187.972657.351562 1.308594.234375.335938.679688.503906 1.335938.503906zm5.742187.164063c.427084 0 .809896-.041667 1.148438-.125.630208-.145833 1.158854-.427083 1.585937-.84375.255209-.239583.485677-.548177.691406-.925781.20573-.377604.326823-.720052.363282-1.027344h-1.382813c-.104166.369792-.28125.695312-.53125.976562-.4375.484376-1.023437.726563-1.757812.726563-.786459 0-1.367188-.25651-1.742188-.769531s-.575521-1.194011-.601562-2.042969h6.132812c0-.84375-.041666-1.458333-.125-1.84375-.09375-.5625-.28125-1.054687-.5625-1.476563-.291666-.442708-.716146-.803385-1.273437-1.082031-.557292-.278646-1.132813-.417969-1.726563-.417969-1.177083 0-2.130208.419271-2.859375 1.257813-.729166.838542-1.09375 1.929687-1.09375 3.273437 0 1.364584.361979 2.425782 1.085938 3.183594.723958.757813 1.606771 1.136719 2.648437 1.136719zm2.460938-5.148437h-4.648438c.026042-.71875.257813-1.311198.695313-1.777344s.979166-.699219 1.625-.699219c.901041 0 1.544271.338542 1.929687 1.015625.208334.364583.341146.851562.398438 1.460938zm6.132812 5.171874c1.15625 0 2.016927-.270833 2.582031-.8125.565105-.541666.847657-1.184895.847657-1.929687 0-.770833-.273438-1.335937-.820313-1.695313-.34375-.229166-1.020833-.466145-2.03125-.710937l-.929687-.226563c-.40625-.098958-.713542-.213541-.921875-.34375-.359375-.21875-.539063-.510416-.539063-.875 0-.333333.136719-.601562.410157-.804687.273437-.203125.675781-.304687 1.207031-.304687.796875 0 1.356771.184895 1.679687.554687.197917.260417.309896.549479.335938.867187h1.328125c.010416-.541666-.158854-1.046874-.507813-1.515624-.557291-.739584-1.466146-1.109376-2.726562-1.109376-.963542 0-1.730469.244792-2.300782.734376-.570312.489583-.855468 1.130208-.855468 1.921874 0 .671876.302083 1.197917.90625 1.578126.338541.21875.864583.416666 1.578125.59375l1.117187.28125c.598959.151041 1 .283854 1.203125.398437.317709.1875.476563.460937.476563.820313 0 .473958-.197917.824218-.59375 1.050781-.395834.226562-.854167.339843-1.375.339843-.875 0-1.489584-.226562-1.84375-.679687-.192709-.25-.309896-.609375-.351563-1.078125h-1.351562c.036458.833333.313802 1.532552.832031 2.097656s1.39974.847656 2.644531.847656z" fill="#000"/><path d="m60.4335938 268v-1.328125h-6.109375c.1354166-.552083.4635416-1.054687.984375-1.507813.2916666-.255208.6927083-.523437 1.203125-.804687l1.0703124-.59375c.9427084-.526042 1.5963542-.973958 1.9609376-1.34375.6302083-.635417.9453124-1.401042.9453124-2.296875 0-.848958-.2955729-1.619792-.8867187-2.3125s-1.5273437-1.039062-2.8085937-1.039062c-1.5416667 0-2.6171876.541666-3.2265626 1.625-.34375.614583-.5234374 1.408854-.5390624 2.382812h1.4296874c.0208334-.692708.1302084-1.234375.328125-1.625.3697917-.729167 1.0364584-1.09375 2-1.09375.6510417 0 1.171875.191406 1.5625.574219.390625.382812.5859376.899739.5859376 1.550781 0 .557292-.2135417 1.052083-.640625 1.484375-.2708334.276042-.7421876.609375-1.4140626 1l-1.5.867187c-1.0052083.583334-1.6809895 1.231771-2.0273437 1.945313s-.5455729 1.552083-.5976563 2.515625zm5.125.320312c1.2083333 0 2.1432291-.342447 2.8046874-1.027343.6614584-.684896.9921876-1.519531.9921876-2.503907 0-.833333-.2473959-1.510416-.7421876-2.03125-.265625-.276041-.6302083-.520833-1.09375-.734374.4166667-.234376.7239584-.473959.921875-.71875.3541667-.432292.53125-.997396.53125-1.695313 0-.755208-.3046874-1.415365-.9140624-1.980469s-1.4505209-.847656-2.5234376-.847656c-1.109375 0-1.9661458.299479-2.5703124.898438-.6041667.598958-.90625 1.315104-.90625 2.148437 0 .666667.2057291 1.208333.6171874 1.625.21875.223958.5234376.419271.9140626.585937-.6354167.255209-1.1145834.623698-1.4375 1.105469-.3229167.481771-.484375 1.053386-.484375 1.714844 0 1.125.376302 1.983073 1.1289062 2.574219s1.6731771.886718 2.7617188.886718zm-.0546876-6.820312c-.53125 0-.9921874-.148438-1.3828124-.445312-.390625-.296876-.5859376-.708334-.5859376-1.234376 0-.46875.1510417-.877604.453125-1.226562.3020834-.348958.7916667-.523438 1.46875-.523438.6822917 0 1.1901042.17448 1.5234376.523438.3333333.348958.5.731771.5 1.148438 0 .479166-.1744792.891927-.5234376 1.238281-.3489583.346354-.8333333.519531-1.453125.519531zm.0859376 5.539062c-.8125 0-1.4127605-.212239-1.8007813-.636718s-.5820313-.928386-.5820313-1.511719c0-.677083.2122396-1.207031.6367188-1.589844.4244792-.382812.9726562-.574219 1.6445312-.574219.6927084 0 1.2604167.1875 1.703125.5625.4427084.375.6640626.92448.6640626 1.648438 0 .697917-.2148438 1.222656-.6445313 1.574219-.4296875.351562-.9700521.527343-1.6210937.527343zm8.9140624 1.25c1.2239584 0 2.1666667-.391927 2.828125-1.175781.6614584-.783854.9921876-1.683593.9921876-2.699219 0-1.1875-.3489584-2.080729-1.046875-2.679687-.6979167-.598958-1.515625-.898437-2.453125-.898437-.5520834 0-1.0520834.104166-1.5.3125-.4895834.234374-.8958334.588541-1.21875 1.0625.0520833-1.354167.3098958-2.394532.7734374-3.121094.4635417-.726563 1.0885417-1.089844 1.875-1.089844.6875 0 1.2005209.234375 1.5390626.703125.1822916.25.3151041.596354.3984374 1.039063h1.390625c0-.6875-.2460937-1.355469-.7382812-2.003907-.4921875-.648437-1.3632812-.972656-2.6132812-.972656-1.7291667 0-2.9192709.927083-3.5703126 2.78125-.3385416.96875-.5078124 2.148437-.5078124 3.539063 0 1.880208.3802083 3.217447 1.140625 4.011718.7604166.794271 1.6640624 1.191406 2.7109374 1.191406zm.125-1.25c-.734375 0-1.3085937-.240885-1.7226562-.722656s-.6210938-1.076823-.6210938-1.785156c0-.807292.2278646-1.411458.6835938-1.8125s.9856771-.601562 1.5898438-.601562c.8645833 0 1.4609374.259114 1.7890624.777343s.4921876 1.063802.4921876 1.636719c0 .677083-.1835938 1.264323-.5507813 1.761719s-.9205729.746093-1.6601563.746093zm8.0546876.960938c.2395833-1.145833.4348958-1.976562.5859374-2.492188.234375-.802083.578125-1.690104 1.03125-2.664062.4583334-1 .9856771-1.932292 1.5820313-2.796875s1.0742187-1.471354 1.4335937-1.820313v-1.226562h-7.78125v1.414062h6.1875c-.7864583.901042-1.5364583 1.971355-2.25 3.210938-1.2083333 2.114583-1.9895833 4.239583-2.34375 6.375zm13.34375 0v-1.328125h-6.109375c.1354166-.552083.4635416-1.054687.984375-1.507813.2916666-.255208.6927083-.523437 1.203125-.804687l1.0703124-.59375c.9427084-.526042 1.5963542-.973958 1.9609376-1.34375.6302083-.635417.9453124-1.401042.9453124-2.296875 0-.848958-.2955729-1.619792-.8867187-2.3125s-1.5273437-1.039062-2.8085937-1.039062c-1.5416667 0-2.6171876.541666-3.2265626 1.625-.34375.614583-.5234374 1.408854-.5390624 2.382812h1.4296874c.0208334-.692708.1302084-1.234375.328125-1.625.3697917-.729167 1.0364584-1.09375 2-1.09375.6510417 0 1.171875.191406 1.5625.574219.390625.382812.5859376.899739.5859376 1.550781 0 .557292-.2135417 1.052083-.640625 1.484375-.2708334.276042-.7421876.609375-1.4140626 1l-1.5.867187c-1.0052083.583334-1.6809895 1.231771-2.0273437 1.945313s-.5455729 1.552083-.5976563 2.515625zm-35.984375 19.265625c1.1354166 0 2.0234374-.4375 2.6640624-1.3125s.9609376-1.973958.9609376-3.296875c0-1.395833-.3242188-2.451823-.9726563-3.167969s-1.4934896-1.074219-2.5351563-1.074219c-.5 0-.9635416.105469-1.390625.316407-.4270833.210937-.7942708.516927-1.1015624.917969v-4.164063h-1.3671876v11.515625h1.296875v-1.070312c.296875.401041.5755209.692708.8359376.875.4375.307291.9739583.460937 1.609375.460937zm-.0859376-1.242187c-1.0104166 0-1.7005208-.460938-2.0703124-1.382813-.1979167-.489583-.296875-1.127604-.296875-1.914063 0-1.088541.2408854-1.869791.7226562-2.34375.4817708-.473958 1.0429688-.710937 1.6835938-.710937.734375 0 1.2903645.289063 1.6679687.867187.3776042.578126.5664063 1.307292.5664063 2.1875 0 .989584-.1888021 1.786459-.5664063 2.390626-.3776042.604166-.9466146.90625-1.7070313.90625zm6.09375 4.40625c.8125 0 1.3854167-.234376 1.71875-.703126.3333334-.46875.90625-1.770833 1.71875-3.90625l.2162501-.575625c.3016666-.81.6566666-1.789999 1.0649999-2.939999.6822917-1.911459 1.1223959-3.135417 1.3203126-3.671876h-1.5546876l-2.2578124 6.8125-2.2421876-6.8125h-1.59375l3.09375 8.609376c-.0729166.1875-.1901041.473958-.3515624.859374-.1614584.385417-.2552084.598959-.28125.640626-.0833334.125-.186198.230468-.3085938.316406-.1223958.085937-.3138021.128906-.5742188.128906-.0833333 0-.1796874-.007812-.2890624-.023438-.109375-.015624-.2864584-.057291-.53125-.125v1.28125c.15625.041667.2877604.070313.3945312.085938s.2591146.023438.4570312.023438zm9.2265626-3.296876c.203125 0 .391927-.010416.5664062-.03125.1744792-.020833.3424479-.054687.5039062-.101562v-1.109375c-.1041666.010417-.1953124.016927-.2734374.019531s-.1510417.003906-.21875.003906c-.2552084 0-.4375-.028645-.546875-.085937-.1979167-.098958-.296875-.294271-.296875-.585937v-5.460938h1.3359374v-1.148438h-1.3359374v-2.335937h-1.421875v2.335937h-1.1328126v1.148438h1.1328126v5.539062c0 .536459.1171874.972657.3515624 1.308594.234375.335938.6796876.503906 1.3359376.503906zm5.7421874.164063c.4270834 0 .8098959-.041667 1.1484376-.125.6302083-.145833 1.1588541-.427083 1.5859374-.84375.2552084-.239583.4856771-.548177.6914063-.925781s.3268229-.720052.3632813-1.027344h-1.3828126c-.1041666.369792-.28125.695312-.53125.976562-.4375.484376-1.0234374.726563-1.7578124.726563-.7864584 0-1.3671876-.25651-1.7421876-.769531s-.5755208-1.194011-.6015624-2.042969h6.1328124c0-.84375-.0416666-1.458333-.125-1.84375-.09375-.5625-.28125-1.054687-.5625-1.476563-.2916666-.442708-.7161458-.803385-1.2734374-1.082031-.5572917-.278646-1.1328126-.417969-1.7265626-.417969-1.1770833 0-2.1302083.419271-2.859375 1.257813-.7291666.838542-1.09375 1.929687-1.09375 3.273437 0 1.364584.3619792 2.425782 1.0859376 3.183594.7239583.757813 1.6067708 1.136719 2.6484374 1.136719zm2.4609376-5.148437h-4.6484376c.0260417-.71875.2578126-1.311198.6953126-1.777344s.9791666-.699219 1.625-.699219c.9010416 0 1.5442708.338542 1.9296874 1.015625.2083334.364583.3411459.851562.3984376 1.460938zm6.1328124 5.171874c1.15625 0 2.0169271-.270833 2.5820313-.8125.5651042-.541666.8476563-1.184895.8476563-1.929687 0-.770833-.2734376-1.335937-.8203126-1.695313-.34375-.229166-1.0208333-.466145-2.03125-.710937l-.9296874-.226563c-.40625-.098958-.7135417-.213541-.921875-.34375-.359375-.21875-.5390626-.510416-.5390626-.875 0-.333333.1367188-.601562.4101563-.804687s.6757813-.304687 1.2070313-.304687c.796875 0 1.3567708.184895 1.6796874.554687.1979167.260417.3098959.549479.3359376.867187h1.328125c.0104166-.541666-.1588542-1.046874-.5078126-1.515624-.5572916-.739584-1.4661458-1.109376-2.7265624-1.109376-.9635417 0-1.7304688.244792-2.3007813.734376-.5703125.489583-.8554687 1.130208-.8554687 1.921874 0 .671876.3020833 1.197917.90625 1.578126.3385416.21875.8645833.416666 1.578125.59375l1.1171874.28125c.5989584.151041 1 .283854 1.203125.398437.3177084.1875.4765626.460937.4765626.820313 0 .473958-.1979167.824218-.59375 1.050781-.3958334.226562-.8541667.339843-1.375.339843-.875 0-1.4895834-.226562-1.84375-.679687-.1927084-.25-.3098959-.609375-.3515626-1.078125h-1.3515624c.0364583.833333.313802 1.532552.8320312 2.097656s1.3997396.847656 2.6445312.847656z" fill="#000"/><path d="m317.421875 268v-2.734375h1.648437v-1.226563h-1.648437v-7.257812h-1.1875l-5.125 7.109375v1.375h4.90625v2.734375zm-1.429687-3.960938h-3.585938l3.585938-5.070312zm7.929687 4.265626c1.489583 0 2.5625-.713542 3.21875-2.140626.453125-.994791.679687-2.252604.679687-3.773437 0-1.604167-.25-2.867187-.75-3.789063-.645833-1.192708-1.692708-1.789062-3.140624-1.789062-1.609376 0-2.721355.848958-3.335938 2.546875-.328125.911458-.492188 2.002604-.492188 3.273437 0 1.640626.273438 2.947917.820313 3.921876.65625 1.166666 1.65625 1.75 3 1.75zm-.007813-1.28125c-.90625 0-1.546874-.528646-1.921874-1.585938-.244792-.692708-.367188-1.609375-.367188-2.75 0-1.515625.191406-2.66276.574219-3.441406.382812-.778646.988281-1.167969 1.816406-1.167969.901042 0 1.507813.410156 1.820313 1.230469.3125.820312.46875 1.865885.46875 3.136718 0 1.760417-.216146 2.963542-.648438 3.609376-.432292.645833-1.013021.96875-1.742188.96875zm8.632813 1.289062c1.630208 0 2.786458-.880208 3.46875-2.640625.411458-1.057292.617187-2.270833.617187-3.640625 0-1.213542-.171874-2.223958-.515624-3.03125-.619792-1.46875-1.744792-2.203125-3.375-2.203125-1.208334 0-2.122396.385417-2.742188 1.15625s-.929688 1.664063-.929688 2.679687c0 1.057292.313803 1.921876.941407 2.59375.627604.671876 1.480469 1.007813 2.558593 1.007813.53125 0 1.027344-.10026 1.488282-.300781.460937-.200521.847656-.548177 1.160156-1.042969-.197917 1.713542-.533854 2.85026-1.007812 3.410156-.473959.559896-1.046876.839844-1.71875.839844-.359376 0-.682292-.078125-.96875-.234375-.557292-.296875-.856771-.833333-.898438-1.609375h-1.421875c0 .864583.283854 1.583333.851563 2.15625.567708.572917 1.398437.859375 2.492187.859375zm.210937-5.3125c-.776041 0-1.341145-.214844-1.695312-.644531-.354167-.429688-.53125-1.009115-.53125-1.738281 0-.770834.201823-1.386719.605469-1.847657.403646-.460937.949219-.691406 1.636719-.691406.640624 0 1.167968.201823 1.582031.605469.414062.403646.621093 1.016927.621093 1.839844 0 .916666-.230468 1.558593-.691406 1.925781-.460937.367187-.970052.550781-1.527344.550781zm9.09375 5.289062c1.223959 0 2.166667-.391927 2.828126-1.175781.661458-.783854.992187-1.683593.992187-2.699219 0-1.1875-.348958-2.080729-1.046875-2.679687s-1.515625-.898437-2.453125-.898437c-.552083 0-1.052083.104166-1.5.3125-.489583.234374-.895833.588541-1.21875 1.0625.052083-1.354167.309896-2.394532.773437-3.121094.463542-.726563 1.088542-1.089844 1.875-1.089844.6875 0 1.200521.234375 1.539063.703125.182292.25.315104.596354.398437 1.039063h1.390626c0-.6875-.246094-1.355469-.738282-2.003907-.492187-.648437-1.363281-.972656-2.613281-.972656-1.729167 0-2.919271.927083-3.570313 2.78125-.338541.96875-.507812 2.148437-.507812 3.539063 0 1.880208.380208 3.217447 1.140625 4.011718s1.664063 1.191406 2.710937 1.191406zm.125-1.25c-.734374 0-1.308593-.240885-1.722656-.722656-.414062-.481771-.621094-1.076823-.621094-1.785156 0-.807292.227865-1.411458.683594-1.8125s.985677-.601562 1.589844-.601562c.864583 0 1.460938.259114 1.789062.777343.328126.518229.492188 1.063802.492188 1.636719 0 .677083-.183594 1.264323-.550781 1.761719-.367188.497396-.920573.746093-1.660157.746093zm-27.933593 20.226563c1.135416 0 2.023437-.4375 2.664062-1.3125s.960938-1.973958.960938-3.296875c0-1.395833-.324219-2.451823-.972657-3.167969-.648437-.716146-1.493489-1.074219-2.535156-1.074219-.5 0-.963541.105469-1.390625.316407-.427083.210937-.794271.516927-1.101562.917969v-4.164063h-1.367188v11.515625h1.296875v-1.070312c.296875.401041.575521.692708.835938.875.4375.307291.973958.460937 1.609375.460937zm-.085938-1.242187c-1.010416 0-1.700521-.460938-2.070312-1.382813-.197917-.489583-.296875-1.127604-.296875-1.914063 0-1.088541.240885-1.869791.722656-2.34375.481771-.473958 1.042969-.710937 1.683594-.710937.734375 0 1.290364.289063 1.667968.867187.377605.578126.566407 1.307292.566407 2.1875 0 .989584-.188802 1.786459-.566407 2.390626-.377604.604166-.946614.90625-1.707031.90625zm6.09375 4.40625c.8125 0 1.385417-.234376 1.71875-.703126.333334-.46875.90625-1.770833 1.71875-3.90625l.21625-.575625c.301667-.81.656667-1.789999 1.065-2.939999.682292-1.911459 1.122396-3.135417 1.320313-3.671876h-1.554688l-2.257812 6.8125-2.242188-6.8125h-1.59375l3.09375 8.609376c-.072916.1875-.190104.473958-.351562.859374-.161459.385417-.255209.598959-.28125.640626-.083334.125-.186198.230468-.308594.316406-.122396.085937-.313802.128906-.574219.128906-.083333 0-.179687-.007812-.289062-.023438-.109375-.015624-.286459-.057291-.53125-.125v1.28125c.15625.041667.28776.070313.394531.085938s.259115.023438.457031.023438zm9.226563-3.296876c.203125 0 .391927-.010416.566406-.03125.174479-.020833.342448-.054687.503906-.101562v-1.109375c-.104166.010417-.195312.016927-.273437.019531s-.151042.003906-.21875.003906c-.255209 0-.4375-.028645-.546875-.085937-.197917-.098958-.296875-.294271-.296875-.585937v-5.460938h1.335937v-1.148438h-1.335937v-2.335937h-1.421875v2.335937h-1.132813v1.148438h1.132813v5.539062c0 .536459.117187.972657.351562 1.308594.234375.335938.679688.503906 1.335938.503906zm5.742187.164063c.427084 0 .809896-.041667 1.148438-.125.630208-.145833 1.158854-.427083 1.585937-.84375.255209-.239583.485677-.548177.691406-.925781.20573-.377604.326823-.720052.363282-1.027344h-1.382813c-.104166.369792-.28125.695312-.53125.976562-.4375.484376-1.023437.726563-1.757812.726563-.786459 0-1.367188-.25651-1.742188-.769531s-.575521-1.194011-.601562-2.042969h6.132812c0-.84375-.041666-1.458333-.125-1.84375-.09375-.5625-.28125-1.054687-.5625-1.476563-.291666-.442708-.716146-.803385-1.273437-1.082031-.557292-.278646-1.132813-.417969-1.726563-.417969-1.177083 0-2.130208.419271-2.859375 1.257813-.729166.838542-1.09375 1.929687-1.09375 3.273437 0 1.364584.361979 2.425782 1.085938 3.183594.723958.757813 1.606771 1.136719 2.648437 1.136719zm2.460938-5.148437h-4.648438c.026042-.71875.257813-1.311198.695313-1.777344s.979166-.699219 1.625-.699219c.901041 0 1.544271.338542 1.929687 1.015625.208334.364583.341146.851562.398438 1.460938zm6.132812 5.171874c1.15625 0 2.016927-.270833 2.582031-.8125.565105-.541666.847657-1.184895.847657-1.929687 0-.770833-.273438-1.335937-.820313-1.695313-.34375-.229166-1.020833-.466145-2.03125-.710937l-.929687-.226563c-.40625-.098958-.713542-.213541-.921875-.34375-.359375-.21875-.539063-.510416-.539063-.875 0-.333333.136719-.601562.410157-.804687.273437-.203125.675781-.304687 1.207031-.304687.796875 0 1.356771.184895 1.679687.554687.197917.260417.309896.549479.335938.867187h1.328125c.010416-.541666-.158854-1.046874-.507813-1.515624-.557291-.739584-1.466146-1.109376-2.726562-1.109376-.963542 0-1.730469.244792-2.300782.734376-.570312.489583-.855468 1.130208-.855468 1.921874 0 .671876.302083 1.197917.90625 1.578126.338541.21875.864583.416666 1.578125.59375l1.117187.28125c.598959.151041 1 .283854 1.203125.398437.317709.1875.476563.460937.476563.820313 0 .473958-.197917.824218-.59375 1.050781-.395834.226562-.854167.339843-1.375.339843-.875 0-1.489584-.226562-1.84375-.679687-.192709-.25-.309896-.609375-.351563-1.078125h-1.351562c.036458.833333.313802 1.532552.832031 2.097656s1.39974.847656 2.644531.847656z" fill="#000"/><path d="m22.9248047 30.1982422c1.0891927 0 1.9129232-.444336 2.4711914-1.3330078.5582682-.8886719.8374023-2.2034505.8374023-3.944336 0-1.7408854-.2791341-3.055664-.8374023-3.9443359s-1.3819987-1.3330078-2.4711914-1.3330078-1.9117839.4443359-2.4677735 1.3330078c-.5559895.8886719-.8339843 2.2034505-.8339843 3.9443359 0 1.7408855.2779948 3.0556641.8339843 3.944336.5559896.8886718 1.3785808 1.3330078 2.4677735 1.3330078zm-1.7841797-3.4726563c-.0865885-.5605468-.1298828-1.1621093-.1298828-1.8046875 0-1.4127604.1583659-2.4632161.4750976-3.1513672.3167318-.688151.7963868-1.0322265 1.4389649-1.0322265.5878906 0 1.055013.3030599 1.4013672.9091797zm1.7841797 2.3789063c-.6380208 0-1.1279297-.3759766-1.4697266-1.1279297l3.2539063-5.0927734c.0911458.6061198.1367187 1.2851562.1367187 2.0371093 0 1.4127605-.1583659 2.4632162-.4750976 3.1513672-.3167318.6881511-.7986654 1.0322266-1.4458008 1.0322266zm6.1933594.8955078 2.2353515-3.0693359 2.2421875 3.0693359h1.4560547l-3.0078125-3.9921875 2.7412109-3.6640625h-1.415039l-2.0166016 2.7685547-2.0302734-2.7685547h-1.3945313l2.741211 3.6640625-3.0078125 3.9921875zm13.9316406 0v-1.1552734h-2.1191406v-9.0166016h-1.3808594l-2.5566406 1.2167969v1.3261719l2.5703125-1.2373047v7.7109375h-2.1464844v1.1552734zm5.1611328.1982422c1.0891927 0 1.9129232-.444336 2.4711914-1.3330078.5582682-.8886719.8374023-2.2034505.8374023-3.944336 0-1.7408854-.2791341-3.055664-.8374023-3.9443359s-1.3819987-1.3330078-2.4711914-1.3330078-1.9117839.4443359-2.4677734 1.3330078c-.5559896.8886719-.8339844 2.2034505-.8339844 3.9443359 0 1.7408855.2779948 3.0556641.8339844 3.944336.5559895.8886718 1.3785807 1.3330078 2.4677734 1.3330078zm-1.7841797-3.4726563c-.0865885-.5605468-.1298828-1.1621093-.1298828-1.8046875 0-1.4127604.1583659-2.4632161.4750977-3.1513672.3167317-.688151.7963867-1.0322265 1.4389648-1.0322265.5878906 0 1.055013.3030599 1.4013672.9091797zm1.7841797 2.3789063c-.6380208 0-1.1279297-.3759766-1.4697266-1.1279297l3.2539063-5.0927734c.0911458.6061198.1367187 1.2851562.1367187 2.0371093 0 1.4127605-.1583658 2.4632162-.4750976 3.1513672-.3167318.6881511-.7986654 1.0322266-1.4458008 1.0322266zm8.4287109 1.09375c1.0891927 0 1.9129232-.444336 2.4711914-1.3330078.5582683-.8886719.8374024-2.2034505.8374024-3.944336 0-1.7408854-.2791341-3.055664-.8374024-3.9443359-.5582682-.8886719-1.3819987-1.3330078-2.4711914-1.3330078s-1.9117838.4443359-2.4677734 1.3330078-.8339844 2.2034505-.8339844 3.9443359c0 1.7408855.2779948 3.0556641.8339844 3.944336.5559896.8886718 1.3785807 1.3330078 2.4677734 1.3330078zm-1.7841796-3.4726563c-.0865886-.5605468-.1298829-1.1621093-.1298829-1.8046875 0-1.4127604.1583659-2.4632161.4750977-3.1513672.3167318-.688151.7963867-1.0322265 1.4389648-1.0322265.5878907 0 1.0550131.3030599 1.4013672.9091797zm1.7841796 2.3789063c-.6380208 0-1.1279296-.3759766-1.4697265-1.1279297l3.2539062-5.0927734c.0911459.6061198.1367188 1.2851562.1367188 2.0371093 0 1.4127605-.1583659 2.4632162-.4750977 3.1513672-.3167318.6881511-.7986653 1.0322266-1.4458008 1.0322266zm8.428711 1.09375c1.0891927 0 1.9129232-.444336 2.4711914-1.3330078.5582682-.8886719.8374023-2.2034505.8374023-3.944336 0-1.7408854-.2791341-3.055664-.8374023-3.9443359s-1.3819987-1.3330078-2.4711914-1.3330078-1.9117839.4443359-2.4677735 1.3330078c-.5559895.8886719-.8339843 2.2034505-.8339843 3.9443359 0 1.7408855.2779948 3.0556641.8339843 3.944336.5559896.8886718 1.3785808 1.3330078 2.4677735 1.3330078zm-1.7841797-3.4726563c-.0865886-.5605468-.1298828-1.1621093-.1298828-1.8046875 0-1.4127604.1583659-2.4632161.4750976-3.1513672.3167318-.688151.7963867-1.0322265 1.4389649-1.0322265.5878906 0 1.055013.3030599 1.4013672.9091797zm1.7841797 2.3789063c-.6380209 0-1.1279297-.3759766-1.4697266-1.1279297l3.2539063-5.0927734c.0911458.6061198.1367187 1.2851562.1367187 2.0371093 0 1.4127605-.1583659 2.4632162-.4750976 3.1513672-.3167318.6881511-.7986654 1.0322266-1.4458008 1.0322266z" fill="#464646"/><path d="m149.924805 30.1982422c1.089192 0 1.912923-.444336 2.471191-1.3330078.558268-.8886719.837402-2.2034505.837402-3.944336 0-1.7408854-.279134-3.055664-.837402-3.9443359s-1.381999-1.3330078-2.471191-1.3330078c-1.089193 0-1.911784.4443359-2.467774 1.3330078-.555989.8886719-.833984 2.2034505-.833984 3.9443359 0 1.7408855.277995 3.0556641.833984 3.944336.55599.8886718 1.378581 1.3330078 2.467774 1.3330078zm-1.78418-3.4726563c-.086589-.5605468-.129883-1.1621093-.129883-1.8046875 0-1.4127604.158366-2.4632161.475098-3.1513672.316732-.688151.796387-1.0322265 1.438965-1.0322265.58789 0 1.055013.3030599 1.401367.9091797zm1.78418 2.3789063c-.638021 0-1.12793-.3759766-1.469727-1.1279297l3.253906-5.0927734c.091146.6061198.136719 1.2851562.136719 2.0371093 0 1.4127605-.158366 2.4632162-.475098 3.1513672-.316731.6881511-.798665 1.0322266-1.4458 1.0322266zm6.193359.8955078 2.235352-3.0693359 2.242187 3.0693359h1.456055l-3.007813-3.9921875 2.741211-3.6640625h-1.415039l-2.016601 2.7685547-2.030274-2.7685547h-1.394531l2.741211 3.6640625-3.007813 3.9921875zm10.048828.1982422c1.26237 0 2.225098-.4523112 2.888184-1.3569336s.994629-2.2159831.994629-3.934082c0-1.827474-.275716-3.1673177-.827149-4.0195313-.551432-.8522135-1.419596-1.2783203-2.604492-1.2783203-1.011719 0-1.794434.3019206-2.348144.9057617-.553711.6038412-.830567 1.4549154-.830567 2.5532227 0 1.1119791.27002 1.9710286.810059 2.5771484s1.302246.9091797 2.286621.9091797c.501302 0 .945638-.1219076 1.333008-.3657227.387369-.2438151.688151-.5935872.902343-1.0493164 0 1.280599-.224446 2.2501628-.673339 2.9086914-.448894.6585287-1.11084.987793-1.98584.987793-.350912 0-.688151-.0444336-1.011719-.1333008s-.628906-.2176106-.916016-.3862304v1.2714843c.314453.1321615.6403.2335612.977539.3041993.33724.070638.672201.105957 1.004883.105957zm.478516-4.7236328c-.615235 0-1.07666-.2005209-1.384278-.6015625-.307617-.4010417-.461425-.9980469-.461425-1.7910157 0-.7884114.154948-1.3842773.464843-1.7875976.309896-.4033203.770183-.6049805 1.38086-.6049805.58789 0 1.049316.2119141 1.384277.6357422s.502442 1.0094401.502442 1.7568359c0 .7473959-.167481 1.3330079-.502442 1.756836s-.796387.6357422-1.384277.6357422zm8.56543 4.7236328c1.089192 0 1.912923-.444336 2.471191-1.3330078.558268-.8886719.837402-2.2034505.837402-3.944336 0-1.7408854-.279134-3.055664-.837402-3.9443359s-1.381999-1.3330078-2.471191-1.3330078c-1.089193 0-1.911784.4443359-2.467774 1.3330078s-.833984 2.2034505-.833984 3.9443359c0 1.7408855.277994 3.0556641.833984 3.944336.55599.8886718 1.378581 1.3330078 2.467774 1.3330078zm-1.78418-3.4726563c-.086589-.5605468-.129883-1.1621093-.129883-1.8046875 0-1.4127604.158366-2.4632161.475098-3.1513672.316731-.688151.796386-1.0322265 1.438965-1.0322265.58789 0 1.055013.3030599 1.401367.9091797zm1.78418 2.3789063c-.638021 0-1.12793-.3759766-1.469727-1.1279297l3.253906-5.0927734c.091146.6061198.136719 1.2851562.136719 2.0371093 0 1.4127605-.158366 2.4632162-.475098 3.1513672-.316731.6881511-.798665 1.0322266-1.4458 1.0322266zm8.42871 1.09375c1.089193 0 1.912924-.444336 2.471192-1.3330078.558268-.8886719.837402-2.2034505.837402-3.944336 0-1.7408854-.279134-3.055664-.837402-3.9443359s-1.381999-1.3330078-2.471192-1.3330078c-1.089192 0-1.911783.4443359-2.467773 1.3330078s-.833984 2.2034505-.833984 3.9443359c0 1.7408855.277994 3.0556641.833984 3.944336.55599.8886718 1.378581 1.3330078 2.467773 1.3330078zm-1.784179-3.4726563c-.086589-.5605468-.129883-1.1621093-.129883-1.8046875 0-1.4127604.158366-2.4632161.475098-3.1513672.316731-.688151.796386-1.0322265 1.438964-1.0322265.587891 0 1.055013.3030599 1.401368.9091797zm1.784179 2.3789063c-.63802 0-1.127929-.3759766-1.469726-1.1279297l3.253906-5.0927734c.091146.6061198.136719 1.2851562.136719 2.0371093 0 1.4127605-.158366 2.4632162-.475098 3.1513672-.316732.6881511-.798665 1.0322266-1.445801 1.0322266zm8.428711 1.09375c1.089193 0 1.912924-.444336 2.471192-1.3330078.558268-.8886719.837402-2.2034505.837402-3.944336 0-1.7408854-.279134-3.055664-.837402-3.9443359s-1.381999-1.3330078-2.471192-1.3330078c-1.089192 0-1.911783.4443359-2.467773 1.3330078s-.833984 2.2034505-.833984 3.9443359c0 1.7408855.277994 3.0556641.833984 3.944336.55599.8886718 1.378581 1.3330078 2.467773 1.3330078zm-1.784179-3.4726563c-.086589-.5605468-.129883-1.1621093-.129883-1.8046875 0-1.4127604.158366-2.4632161.475098-3.1513672.316731-.688151.796386-1.0322265 1.438964-1.0322265.587891 0 1.055013.3030599 1.401368.9091797zm1.784179 2.3789063c-.63802 0-1.127929-.3759766-1.469726-1.1279297l3.253906-5.0927734c.091146.6061198.136719 1.2851562.136719 2.0371093 0 1.4127605-.158366 2.4632162-.475098 3.1513672-.316732.6881511-.798665 1.0322266-1.445801 1.0322266z" fill="#464646"/><path d="m276.924805 30.1982422c1.089192 0 1.912923-.444336 2.471191-1.3330078.558268-.8886719.837402-2.2034505.837402-3.944336 0-1.7408854-.279134-3.055664-.837402-3.9443359s-1.381999-1.3330078-2.471191-1.3330078c-1.089193 0-1.911784.4443359-2.467774 1.3330078-.555989.8886719-.833984 2.2034505-.833984 3.9443359 0 1.7408855.277995 3.0556641.833984 3.944336.55599.8886718 1.378581 1.3330078 2.467774 1.3330078zm-1.78418-3.4726563c-.086589-.5605468-.129883-1.1621093-.129883-1.8046875 0-1.4127604.158366-2.4632161.475098-3.1513672.316732-.688151.796387-1.0322265 1.438965-1.0322265.58789 0 1.055013.3030599 1.401367.9091797zm1.78418 2.3789063c-.638021 0-1.12793-.3759766-1.469727-1.1279297l3.253906-5.0927734c.091146.6061198.136719 1.2851562.136719 2.0371093 0 1.4127605-.158366 2.4632162-.475098 3.1513672-.316731.6881511-.798665 1.0322266-1.4458 1.0322266zm6.193359.8955078 2.235352-3.0693359 2.242187 3.0693359h1.456055l-3.007813-3.9921875 2.741211-3.6640625h-1.415039l-2.016601 2.7685547-2.030274-2.7685547h-1.394531l2.741211 3.6640625-3.007813 3.9921875zm11.087891 0v-6.6787109h2.631836v-.9775391h-2.631836v-.6767578c0-.4694011.087728-.7963867.263183-.980957.175456-.1845704.48877-.2768555.939942-.2768555h1.428711v-1.0458985h-1.510743c-.815755 0-1.416178.1982422-1.801269.5947266s-.577637 1.0139974-.577637 1.8525391v.5332031h-2.043945v.9775391h2.043945v6.6787109zm8.004883.1982422c1.089192 0 1.912923-.444336 2.471191-1.3330078.558268-.8886719.837402-2.2034505.837402-3.944336 0-1.7408854-.279134-3.055664-.837402-3.9443359s-1.381999-1.3330078-2.471191-1.3330078c-1.089193 0-1.911784.4443359-2.467774 1.3330078s-.833984 2.2034505-.833984 3.9443359c0 1.7408855.277994 3.0556641.833984 3.944336.55599.8886718 1.378581 1.3330078 2.467774 1.3330078zm-1.78418-3.4726563c-.086589-.5605468-.129883-1.1621093-.129883-1.8046875 0-1.4127604.158366-2.4632161.475098-3.1513672.316731-.688151.796386-1.0322265 1.438965-1.0322265.58789 0 1.055013.3030599 1.401367.9091797zm1.78418 2.3789063c-.638021 0-1.12793-.3759766-1.469727-1.1279297l3.253906-5.0927734c.091146.6061198.136719 1.2851562.136719 2.0371093 0 1.4127605-.158366 2.4632162-.475098 3.1513672-.316731.6881511-.798665 1.0322266-1.4458 1.0322266zm8.42871 1.09375c1.089193 0 1.912924-.444336 2.471192-1.3330078.558268-.8886719.837402-2.2034505.837402-3.944336 0-1.7408854-.279134-3.055664-.837402-3.9443359s-1.381999-1.3330078-2.471192-1.3330078c-1.089192 0-1.911783.4443359-2.467773 1.3330078s-.833984 2.2034505-.833984 3.9443359c0 1.7408855.277994 3.0556641.833984 3.944336.55599.8886718 1.378581 1.3330078 2.467773 1.3330078zm-1.784179-3.4726563c-.086589-.5605468-.129883-1.1621093-.129883-1.8046875 0-1.4127604.158366-2.4632161.475098-3.1513672.316731-.688151.796386-1.0322265 1.438964-1.0322265.587891 0 1.055013.3030599 1.401368.9091797zm1.784179 2.3789063c-.63802 0-1.127929-.3759766-1.469726-1.1279297l3.253906-5.0927734c.091146.6061198.136719 1.2851562.136719 2.0371093 0 1.4127605-.158366 2.4632162-.475098 3.1513672-.316732.6881511-.798665 1.0322266-1.445801 1.0322266zm8.428711 1.09375c1.089193 0 1.912924-.444336 2.471192-1.3330078.558268-.8886719.837402-2.2034505.837402-3.944336 0-1.7408854-.279134-3.055664-.837402-3.9443359s-1.381999-1.3330078-2.471192-1.3330078c-1.089192 0-1.911783.4443359-2.467773 1.3330078s-.833984 2.2034505-.833984 3.9443359c0 1.7408855.277994 3.0556641.833984 3.944336.55599.8886718 1.378581 1.3330078 2.467773 1.3330078zm-1.784179-3.4726563c-.086589-.5605468-.129883-1.1621093-.129883-1.8046875 0-1.4127604.158366-2.4632161.475098-3.1513672.316731-.688151.796386-1.0322265 1.438964-1.0322265.587891 0 1.055013.3030599 1.401368.9091797zm1.784179 2.3789063c-.63802 0-1.127929-.3759766-1.469726-1.1279297l3.253906-5.0927734c.091146.6061198.136719 1.2851562.136719 2.0371093 0 1.4127605-.158366 2.4632162-.475098 3.1513672-.316732.6881511-.798665 1.0322266-1.445801 1.0322266z" fill="#464646"/><path d="m404.710449 30.1982422c1.089193 0 1.912923-.444336 2.471192-1.3330078.558268-.8886719.837402-2.2034505.837402-3.944336 0-1.7408854-.279134-3.055664-.837402-3.9443359-.558269-.8886719-1.381999-1.3330078-2.471192-1.3330078-1.089192 0-1.911784.4443359-2.467773 1.3330078-.55599.8886719-.833985 2.2034505-.833985 3.9443359 0 1.7408855.277995 3.0556641.833985 3.944336.555989.8886718 1.378581 1.3330078 2.467773 1.3330078zm-1.784179-3.4726563c-.086589-.5605468-.129883-1.1621093-.129883-1.8046875 0-1.4127604.158366-2.4632161.475097-3.1513672.316732-.688151.796387-1.0322265 1.438965-1.0322265.587891 0 1.055013.3030599 1.401367.9091797zm1.784179 2.3789063c-.638021 0-1.127929-.3759766-1.469726-1.1279297l3.253906-5.0927734c.091146.6061198.136719 1.2851562.136719 2.0371093 0 1.4127605-.158366 2.4632162-.475098 3.1513672-.316732.6881511-.798665 1.0322266-1.445801 1.0322266zm6.19336.8955078 2.235351-3.0693359 2.242188 3.0693359h1.456054l-3.007812-3.9921875 2.741211-3.6640625h-1.415039l-2.016602 2.7685547-2.030273-2.7685547h-1.394532l2.741211 3.6640625-3.007812 3.9921875zm13.93164 0v-1.1552734h-2.11914v-9.0166016h-1.38086l-2.55664 1.2167969v1.3261719l2.570312-1.2373047v7.7109375h-2.146484v1.1552734zm5.161133.1982422c1.089193 0 1.912923-.444336 2.471191-1.3330078.558269-.8886719.837403-2.2034505.837403-3.944336 0-1.7408854-.279134-3.055664-.837403-3.9443359-.558268-.8886719-1.381998-1.3330078-2.471191-1.3330078s-1.911784.4443359-2.467773 1.3330078c-.55599.8886719-.833985 2.2034505-.833985 3.9443359 0 1.7408855.277995 3.0556641.833985 3.944336.555989.8886718 1.37858 1.3330078 2.467773 1.3330078zm-1.78418-3.4726563c-.086588-.5605468-.129882-1.1621093-.129882-1.8046875 0-1.4127604.158365-2.4632161.475097-3.1513672.316732-.688151.796387-1.0322265 1.438965-1.0322265.587891 0 1.055013.3030599 1.401367.9091797zm1.78418 2.3789063c-.638021 0-1.12793-.3759766-1.469727-1.1279297l3.253907-5.0927734c.091146.6061198.136718 1.2851562.136718 2.0371093 0 1.4127605-.158365 2.4632162-.475097 3.1513672-.316732.6881511-.798666 1.0322266-1.445801 1.0322266zm8.428711 1.09375c1.089193 0 1.912923-.444336 2.471191-1.3330078.558269-.8886719.837403-2.2034505.837403-3.944336 0-1.7408854-.279134-3.055664-.837403-3.9443359-.558268-.8886719-1.381998-1.3330078-2.471191-1.3330078s-1.911784.4443359-2.467773 1.3330078c-.55599.8886719-.833985 2.2034505-.833985 3.9443359 0 1.7408855.277995 3.0556641.833985 3.944336.555989.8886718 1.37858 1.3330078 2.467773 1.3330078zm-1.78418-3.4726563c-.086588-.5605468-.129883-1.1621093-.129883-1.8046875 0-1.4127604.158366-2.4632161.475098-3.1513672.316732-.688151.796387-1.0322265 1.438965-1.0322265.587891 0 1.055013.3030599 1.401367.9091797zm1.78418 2.3789063c-.638021 0-1.12793-.3759766-1.469727-1.1279297l3.253907-5.0927734c.091145.6061198.136718 1.2851562.136718 2.0371093 0 1.4127605-.158365 2.4632162-.475097 3.1513672-.316732.6881511-.798666 1.0322266-1.445801 1.0322266zm8.428711 1.09375c1.089193 0 1.912923-.444336 2.471191-1.3330078.558269-.8886719.837403-2.2034505.837403-3.944336 0-1.7408854-.279134-3.055664-.837403-3.9443359-.558268-.8886719-1.381998-1.3330078-2.471191-1.3330078s-1.911784.4443359-2.467774 1.3330078c-.555989.8886719-.833984 2.2034505-.833984 3.9443359 0 1.7408855.277995 3.0556641.833984 3.944336.55599.8886718 1.378581 1.3330078 2.467774 1.3330078zm-1.78418-3.4726563c-.086588-.5605468-.129883-1.1621093-.129883-1.8046875 0-1.4127604.158366-2.4632161.475098-3.1513672.316732-.688151.796387-1.0322265 1.438965-1.0322265.587891 0 1.055013.3030599 1.401367.9091797zm1.78418 2.3789063c-.638021 0-1.12793-.3759766-1.469727-1.1279297l3.253907-5.0927734c.091145.6061198.136718 1.2851562.136718 2.0371093 0 1.4127605-.158366 2.4632162-.475097 3.1513672-.316732.6881511-.798666 1.0322266-1.445801 1.0322266zm8.428711 1.09375c1.089193 0 1.912923-.444336 2.471191-1.3330078.558268-.8886719.837403-2.2034505.837403-3.944336 0-1.7408854-.279135-3.055664-.837403-3.9443359s-1.381998-1.3330078-2.471191-1.3330078-1.911784.4443359-2.467774 1.3330078c-.555989.8886719-.833984 2.2034505-.833984 3.9443359 0 1.7408855.277995 3.0556641.833984 3.944336.55599.8886718 1.378581 1.3330078 2.467774 1.3330078zm-1.78418-3.4726563c-.086588-.5605468-.129883-1.1621093-.129883-1.8046875 0-1.4127604.158366-2.4632161.475098-3.1513672.316732-.688151.796387-1.0322265 1.438965-1.0322265.58789 0 1.055013.3030599 1.401367.9091797zm1.78418 2.3789063c-.638021 0-1.12793-.3759766-1.469727-1.1279297l3.253907-5.0927734c.091145.6061198.136718 1.2851562.136718 2.0371093 0 1.4127605-.158366 2.4632162-.475097 3.1513672-.316732.6881511-.798666 1.0322266-1.445801 1.0322266z" fill="#464646"/></g><path d="m523 41v193" stroke="#092f63" stroke-dasharray="20 15" stroke-linecap="square" stroke-opacity=".5" stroke-width="4"/><path d="m497.264648 61v-5.8710938h6.336914v-1.5380859h-6.336914v-3.9199219h7.207032v-1.5820312h-8.956055v12.9111328zm11.399414.3164062c.726563 0 1.391602-.1552734 1.995118-.4658203.603515-.3105468 1.066406-.6767578 1.388672-1.0986328.052734.375.143554.6650391.27246.8701172.246094.3867188.641602.5800781 1.186524.5800781.222656 0 .398437-.008789.527344-.0263672.128906-.0175781.316406-.0615234.5625-.1318359v-1.1689453c-.09961.0175781-.19336.0307617-.28125.0395508-.087891.008789-.166992.0131836-.237305.0131836-.216797 0-.358887-.0498047-.42627-.1494141-.067382-.0996094-.101074-.2314453-.101074-.3955078v-5.4228516c0-.890625-.342773-1.546875-1.02832-1.96875-.691406-.421875-1.59082-.6328125-2.698242-.6328125-.955078 0-1.794434.2270508-2.518067.6811524-.723632.4541015-1.100097 1.2612304-1.129394 2.4213867h1.476562c.058594-.4863281.184571-.8525391.37793-1.0986328.345703-.4453125.931641-.6679688 1.757812-.6679688.714844 0 1.264161.1215821 1.64795.3647461.383789.2431641.575683.6342774.575683 1.1733399 0 .2636719-.035156.4658203-.105468.6064453-.123047.2578125-.366211.4101562-.729493.4570312l-2.522461.3164063c-.884765.1113281-1.599609.4072265-2.144531.8876953s-.817383 1.1572266-.817383 2.0302734c0 .796875.276856 1.4604493.830567 1.9907227s1.26709.7954101 2.140136.7954101zm.369141-1.3447265c-.457031 0-.852539-.1318359-1.186523-.3955078-.333985-.2636719-.500977-.6240235-.500977-1.0810547 0-.6035156.243164-1.0429688.729492-1.3183594.28711-.1640625.717774-.2841797 1.291993-.3603516l.958007-.1230468c.292969-.0351563.591797-.09375.896485-.1757813.304687-.0820312.553711-.1845703.74707-.3076172v1.2744141c0 .9726562-.439453 1.6728516-1.318359 2.1005859-.521485.2578125-1.060547.3867188-1.617188.3867188zm10.511719 1.3007812c1.095703 0 1.995117-.2885742 2.698242-.8657226.703125-.5771485 1.142578-1.4897461 1.318359-2.737793h-1.538085c-.146485.6972656-.411622 1.246582-.795411 1.6479492s-.903808.6020508-1.560058.6020508c-.855469 0-1.482422-.3222656-1.88086-.9667969-.398437-.6445312-.597656-1.4384765-.597656-2.3818359 0-.9375.140625-1.7255859.421875-2.3642578.433594-.984375 1.154297-1.4765625 2.16211-1.4765625.738281 0 1.274414.1918945 1.608398.5756836.333984.383789.547852.8657226.641602 1.4458008h1.538085c-.134765-1.2597657-.534668-2.147461-1.199707-2.663086s-1.527832-.7734375-2.588378-.7734375c-1.242188 0-2.264649.459961-3.067383 1.3798828-.802735.9199219-1.204102 2.2060547-1.204102 3.8583985 0 1.3476562.366211 2.4711914 1.098633 3.3706054.732422.8994141 1.713867 1.3491211 2.944336 1.3491211zm7.813476-.1230468c.228516 0 .440918-.0117188.637207-.0351563.19629-.0234375.385254-.0615234.566895-.1142578v-1.2480469c-.117188.0117188-.219727.019043-.307617.0219727-.087891.0029297-.169922.0043945-.246094.0043945-.287109 0-.492187-.0322265-.615234-.0966797-.222657-.1113281-.333985-.3310547-.333985-.6591797v-6.1435547h1.50293v-1.2919921h-1.50293v-2.6279297h-1.599609v2.6279297h-1.274414v1.2919921h1.274414v6.2314454c0 .6035156.131836 1.0942382.395508 1.4721679s.764648.5668946 1.502929.5668946zm6.372071.1933593c1.552734 0 2.698242-.4951172 3.436523-1.4853515.738281-.9902344 1.107422-2.2441407 1.107422-3.7617188 0-1.5703125-.418945-2.7597656-1.256836-3.5683593-.83789-.8085938-1.863281-1.2128907-3.076172-1.2128907-1.353515 0-2.43164.46875-3.234375 1.40625-.802734.9375-1.204101 2.1972657-1.204101 3.7792969 0 1.4765625.380859 2.652832 1.142578 3.5288086s1.790039 1.3139648 3.084961 1.3139648zm.149414-1.3623046c-.955078 0-1.652344-.3339844-2.091797-1.0019532-.439453-.6679687-.65918-1.5029297-.65918-2.5048828 0-1.0429687.219727-1.9335937.65918-2.671875.439453-.7382812 1.142578-1.1074219 2.109375-1.1074219 1.089844 0 1.857422.4335938 2.302734 1.3007813.28125.5507812.421875 1.265625.421875 2.1445312 0 .9726563-.194824 1.8559571-.584472 2.6499024-.389649.7939453-1.108887 1.190918-2.157715 1.190918zm7.901367 1.0195312v-5.4140625c0-.6679687.213867-1.2583008.641602-1.7709961.427734-.5126953 1.040039-.769043 1.836914-.769043.09375 0 .180175.0029297.259277.0087891s.165527.0175781.259277.0351563v-1.6699219c-.169922-.0175781-.290039-.0292969-.360351-.0351563-.070313-.0058594-.120117-.008789-.149414-.008789-.626953 0-1.180664.2270507-1.661133.6811523s-.782227.8393555-.905274 1.1557617v-1.6259765h-1.502929v9.4130859zm5.203125 3.8583984c.914063 0 1.558594-.2636718 1.933594-.7910156.277174-.3897758.701596-1.2917208 1.273267-2.705835l.207881-.5203657c.142663-.3610881.293478-.7505316.452445-1.1683305.386719-1.0195313.867188-2.3378907 1.441407-3.9550782.537304-1.5052734.941103-2.6315625 1.211396-3.3788671l.107666-.2970704c.066328-.1825781.121758-.3342187.166289-.4549218h-1.749023l-2.540039 7.6640625-2.522461-7.6640625h-1.792969l3.480469 9.6855468c-.082031.2109375-.213867.5332032-.395508.9667969-.181641.4335938-.287109.6738281-.316406.7207031-.09375.140625-.209473.2592774-.347168.3559571s-.353027.1450195-.645996.1450195c-.09375 0-.202149-.0087891-.325196-.0263672-.123046-.0175781-.322265-.0644531-.597656-.140625v1.4414063c.175781.046875.323731.0791015.443848.0966796.120117.0175782.291504.0263672.51416.0263672zm15.697266-3.5419922c.726562 0 1.391601-.1552734 1.995117-.4658203.603515-.3105468 1.066406-.6767578 1.388672-1.0986328.052734.375.143554.6650391.272461.8701172.246093.3867188.641601.5800781 1.186523.5800781.222656 0 .398438-.008789.527344-.0263672.128906-.0175781.316406-.0615234.5625-.1318359v-1.1689453c-.09961.0175781-.19336.0307617-.28125.0395508-.087891.008789-.166992.0131836-.237305.0131836-.216797 0-.358887-.0498047-.426269-.1494141-.067383-.0996094-.101075-.2314453-.101075-.3955078v-5.4228516c0-.890625-.342773-1.546875-1.02832-1.96875-.691406-.421875-1.59082-.6328125-2.698242-.6328125-.955078 0-1.794434.2270508-2.518067.6811524-.723632.4541015-1.100097 1.2612304-1.129394 2.4213867h1.476562c.058594-.4863281.184571-.8525391.37793-1.0986328.345703-.4453125.931641-.6679688 1.757813-.6679688.714843 0 1.26416.1215821 1.647949.3647461.383789.2431641.575683.6342774.575683 1.1733399 0 .2636719-.035156.4658203-.105468.6064453-.123047.2578125-.366211.4101562-.729493.4570312l-2.52246.3164063c-.884766.1113281-1.59961.4072265-2.144532.8876953s-.817382 1.1572266-.817382 2.0302734c0 .796875.276855 1.4604493.830566 1.9907227s1.26709.7954101 2.140137.7954101zm.36914-1.3447265c-.457031 0-.852539-.1318359-1.186523-.3955078-.333985-.2636719-.500977-.6240235-.500977-1.0810547 0-.6035156.243164-1.0429688.729492-1.3183594.28711-.1640625.717774-.2841797 1.291993-.3603516l.958007-.1230468c.292969-.0351563.591797-.09375.896485-.1757813.304687-.0820312.553711-.1845703.74707-.3076172v1.2744141c0 .9726562-.439453 1.6728516-1.318359 2.1005859-.521485.2578125-1.060547.3867188-1.617188.3867188zm8.569336 4.78125v-4.8076172c.345703.4277344.65918.7294922.94043.9052734.480469.3105469 1.075195.4658203 1.78418.4658203.902343 0 1.693359-.2783203 2.373046-.8349609 1.072266-.8789062 1.608399-2.34375 1.608399-4.3945312 0-1.5175782-.37207-2.6850586-1.116211-3.5024414-.744141-.8173829-1.649414-1.2260743-2.71582-1.2260743-.720703 0-1.347657.1757813-1.88086.5273438-.375.234375-.720703.5654297-1.037109.993164v-1.2480468h-1.538086v13.1220703zm2.513672-4.8164063c-1.089844 0-1.839844-.4863281-2.25-1.4589843-.216797-.5097657-.325195-1.1279297-.325195-1.8544922 0-.9023438.108398-1.6464844.325195-2.2324219.404297-1.0957031 1.154297-1.6435547 2.25-1.6435547 1.089844 0 1.839844.5185547 2.25 1.5556641.216797.5390625.325195 1.1835937.325195 1.9335937 0 1.2304688-.244629 2.1547852-.733886 2.7729492-.489258.6181641-1.103028.9272461-1.841309.9272461zm7.49707 4.8164063v-4.8076172c.345703.4277344.65918.7294922.94043.9052734.480469.3105469 1.075195.4658203 1.78418.4658203.902343 0 1.693359-.2783203 2.373047-.8349609 1.072265-.8789062 1.608398-2.34375 1.608398-4.3945312 0-1.5175782-.37207-2.6850586-1.116211-3.5024414-.744141-.8173829-1.649414-1.2260743-2.71582-1.2260743-.720703 0-1.347656.1757813-1.88086.5273438-.375.234375-.720703.5654297-1.037109.993164v-1.2480468h-1.538086v13.1220703zm2.513672-4.8164063c-1.089843 0-1.839843-.4863281-2.25-1.4589843-.216797-.5097657-.325195-1.1279297-.325195-1.8544922 0-.9023438.108398-1.6464844.325195-2.2324219.404297-1.0957031 1.154297-1.6435547 2.25-1.6435547 1.089844 0 1.839844.5185547 2.25 1.5556641.216797.5390625.325196 1.1835937.325196 1.9335937 0 1.2304688-.244629 2.1547852-.733887 2.7729492-.489258.6181641-1.103028.9272461-1.841309.9272461z" fill="#464646" fill-rule="nonzero"/><path d="m616 38v13c0 3.3137085-1.343146 6.3137085-3.514719 8.4852814-2.171573 2.1715728-5.171573 3.5147186-8.485281 3.5147186h-107c-3.313708 0-6.313708-1.3431458-8.485281-3.5147186-2.171573-2.1715729-3.514719-5.1715729-3.514719-8.4852814v-13z" fill="#bbd8ff" stroke="#092f63" stroke-width="4"/><path d="m511.179688 55v-5.21875h5.632812v-1.3671875h-5.632812v-3.484375h6.40625v-1.40625h-7.960938v11.4765625zm10.132812.28125c.645833 0 1.236979-.1380208 1.773438-.4140625.536458-.2760417.947916-.6015625 1.234374-.9765625.046876.3333333.127605.5911458.242188.7734375.21875.34375.570312.515625 1.054688.515625.197916 0 .354166-.0078125.46875-.0234375.114583-.015625.28125-.0546875.5-.1171875v-1.0390625c-.088542.015625-.171876.0273438-.25.0351562-.078126.0078126-.148438.0117188-.210938.0117188-.192708 0-.31901-.0442708-.378906-.1328125s-.089844-.2057292-.089844-.3515625v-4.8203125c0-.7916667-.304688-1.375-.914062-1.75-.614584-.375-1.414063-.5625-2.398438-.5625-.848958 0-1.595052.2018229-2.238281.6054687-.643229.4036459-.977865 1.1210938-1.003907 2.1523438h1.3125c.052084-.4322917.164063-.7578125.335938-.9765625.307292-.3958333.828125-.59375 1.5625-.59375.635417 0 1.123698.1080729 1.464844.3242187.341146.2161459.511718.5638021.511718 1.0429688 0 .234375-.03125.4140625-.09375.5390625-.109374.2291667-.32552.3645833-.648437.40625l-2.242187.28125c-.786459.0989583-1.421876.3619792-1.90625.7890625-.484376.4270833-.726563 1.0286458-.726563 1.8046875 0 .7083333.246094 1.2981771.738281 1.7695313.492188.4713541 1.126302.7070312 1.902344.7070312zm.328125-1.1953125c-.40625 0-.757813-.1171875-1.054687-.3515625-.296876-.234375-.445313-.5546875-.445313-.9609375 0-.5364583.216146-.9270833.648437-1.171875.255209-.1458333.638021-.2526042 1.148438-.3203125l.851562-.109375c.260417-.03125.526042-.0833333.796876-.15625.270833-.0729167.492187-.1640625.664062-.2734375v1.1328125c0 .8645833-.390625 1.4869792-1.171875 1.8671875-.463542.2291667-.942708.34375-1.4375.34375zm9.34375 1.15625c.973958 0 1.773437-.2565104 2.398437-.7695313.625-.5130208 1.015626-1.3242187 1.171876-2.4335937h-1.367188c-.130208.6197917-.365885 1.1080729-.707031 1.4648437-.341146.3567709-.803386.5351563-1.386719.5351563-.760417 0-1.317708-.2864583-1.671875-.859375s-.53125-1.2786458-.53125-2.1171875c0-.8333333.125-1.5338542.375-2.1015625.385417-.875 1.026042-1.3125 1.921875-1.3125.65625 0 1.132812.1705729 1.429688.5117187.296874.3411459.486979.7695313.570312 1.2851563h1.367188c-.119792-1.1197917-.475261-1.9088542-1.066407-2.3671875s-1.358073-.6875-2.300781-.6875c-1.104167 0-2.013021.4088542-2.726562 1.2265625-.713542.8177083-1.070313 1.9609375-1.070313 3.4296875 0 1.1979167.325521 2.1966146.976563 2.9960938.651041.7994791 1.523437 1.1992187 2.617187 1.1992187zm6.945313-.109375c.203124 0 .391927-.0104167.566406-.03125s.342448-.0546875.503906-.1015625v-1.109375c-.104167.0104167-.195312.0169271-.273438.0195312-.078124.0026042-.151041.0039063-.21875.0039063-.255208 0-.4375-.0286458-.546874-.0859375-.197917-.0989583-.296876-.2942708-.296876-.5859375v-5.4609375h1.335938v-1.1484375h-1.335938v-2.3359375h-1.421874v2.3359375h-1.132813v1.1484375h1.132813v5.5390625c0 .5364583.117187.9726563.351562 1.3085937.234375.3359376.679688.5039063 1.335938.5039063zm5.664062.171875c1.380208 0 2.398438-.4401042 3.054688-1.3203125s.984374-1.9947917.984374-3.34375c0-1.3958333-.372395-2.453125-1.117187-3.171875s-1.65625-1.078125-2.734375-1.078125c-1.203125 0-2.161458.4166667-2.875 1.25s-1.070312 1.953125-1.070312 3.359375c0 1.3125.338541 2.3580729 1.015624 3.1367188.677084.7786458 1.591146 1.1679687 2.742188 1.1679687zm.132812-1.2109375c-.848958 0-1.46875-.296875-1.859374-.890625-.390626-.59375-.585938-1.3359375-.585938-2.2265625 0-.9270833.195312-1.71875.585938-2.375.390624-.65625 1.015624-.984375 1.875-.984375.96875 0 1.651041.3854167 2.046874 1.15625.25.4895833.375 1.125.375 1.90625 0 .8645833-.173177 1.6497396-.519531 2.3554687-.346354.7057292-.985677 1.0585938-1.917969 1.0585938zm7.023438.90625v-4.8125c0-.59375.190104-1.1184896.570312-1.5742188.380209-.4557291.92448-.6835937 1.632813-.6835937.083333 0 .160156.0026042.230469.0078125.070312.0052083.147135.015625.230468.03125v-1.484375c-.151041-.015625-.257812-.0260417-.320312-.03125s-.106771-.0078125-.132812-.0078125c-.557292 0-1.04948.2018229-1.476563.6054687-.427083.4036459-.695313.7460938-.804687 1.0273438v-1.4453125h-1.335938v8.3671875zm4.625 3.4296875c.8125 0 1.385417-.234375 1.71875-.703125s.90625-1.7708333 1.71875-3.90625c.34375-.90625.770833-2.078125 1.28125-3.515625.682292-1.9114583 1.122396-3.1354167 1.320312-3.671875h-1.554687l-2.257813 6.8125-2.242187-6.8125h-1.59375l3.09375 8.609375c-.072917.1875-.190104.4739583-.351563.859375-.161458.3854167-.255208.5989583-.28125.640625-.083333.125-.186197.2304687-.308593.3164063-.122396.0859374-.313802.1289062-.574219.1289062-.083333 0-.179688-.0078125-.289062-.0234375-.109376-.015625-.286459-.0572917-.53125-.125v1.28125c.15625.0416667.28776.0703125.394531.0859375s.259114.0234375.457031.0234375zm13.953125-3.1484375c.645833 0 1.236979-.1380208 1.773437-.4140625.536459-.2760417.947917-.6015625 1.234376-.9765625.046874.3333333.127604.5911458.242187.7734375.21875.34375.570313.515625 1.054687.515625.197917 0 .354167-.0078125.46875-.0234375.114584-.015625.28125-.0546875.5-.1171875v-1.0390625c-.088541.015625-.171874.0273438-.25.0351562-.078124.0078126-.148437.0117188-.210937.0117188-.192708 0-.31901-.0442708-.378906-.1328125s-.089844-.2057292-.089844-.3515625v-4.8203125c0-.7916667-.304687-1.375-.914063-1.75-.614583-.375-1.414062-.5625-2.398437-.5625-.848958 0-1.595052.2018229-2.238281.6054687-.643229.4036459-.977865 1.1210938-1.003906 2.1523438h1.3125c.052083-.4322917.164062-.7578125.335937-.9765625.307292-.3958333.828125-.59375 1.5625-.59375.635417 0 1.123698.1080729 1.464844.3242187.341146.2161459.511719.5638021.511719 1.0429688 0 .234375-.03125.4140625-.09375.5390625-.109376.2291667-.325521.3645833-.648438.40625l-2.242188.28125c-.786458.0989583-1.421874.3619792-1.90625.7890625-.484374.4270833-.726562 1.0286458-.726562 1.8046875 0 .7083333.246094 1.2981771.738281 1.7695313.492188.4713541 1.126302.7070312 1.902344.7070312zm.328125-1.1953125c-.40625 0-.757812-.1171875-1.054688-.3515625-.296874-.234375-.445312-.5546875-.445312-.9609375 0-.5364583.216146-.9270833.648438-1.171875.255208-.1458333.63802-.2526042 1.148437-.3203125l.851563-.109375c.260416-.03125.526041-.0833333.796874-.15625.270834-.0729167.492188-.1640625.664063-.2734375v1.1328125c0 .8645833-.390625 1.4869792-1.171875 1.8671875-.463542.2291667-.942708.34375-1.4375.34375zm7.617188 4.25v-4.2734375c.307291.3802083.585937.6484375.835937.8046875.427083.2760417.955729.4140625 1.585937.4140625.802084 0 1.505209-.2473958 2.109376-.7421875.953124-.78125 1.429687-2.0833333 1.429687-3.90625 0-1.3489583-.330729-2.3867187-.992187-3.1132813-.661459-.7265624-1.466146-1.0898437-2.414063-1.0898437-.640625 0-1.197917.15625-1.671875.46875-.333333.2083333-.640625.5026042-.921875.8828125v-1.109375h-1.367187v11.6640625zm2.234374-4.28125c-.96875 0-1.635416-.4322917-2-1.296875-.192708-.453125-.289062-1.0026042-.289062-1.6484375 0-.8020833.096354-1.4635417.289062-1.984375.359376-.9739583 1.026042-1.4609375 2-1.4609375.96875 0 1.635417.4609375 2 1.3828125.192709.4791667.289063 1.0520833.289063 1.71875 0 1.09375-.217448 1.9153646-.652344 2.4648438-.434896.5494791-.980469.8242187-1.636719.8242187zm6.664063 4.28125v-4.2734375c.307292.3802083.585937.6484375.835937.8046875.427084.2760417.95573.4140625 1.585938.4140625.802083 0 1.505208-.2473958 2.109375-.7421875.953125-.78125 1.429687-2.0833333 1.429687-3.90625 0-1.3489583-.330729-2.3867187-.992187-3.1132813-.661458-.7265624-1.466146-1.0898437-2.414063-1.0898437-.640624 0-1.197916.15625-1.671874.46875-.333334.2083333-.640626.5026042-.921876.8828125v-1.109375h-1.367187v11.6640625zm2.234375-4.28125c-.96875 0-1.635417-.4322917-2-1.296875-.192708-.453125-.289062-1.0026042-.289062-1.6484375 0-.8020833.096354-1.4635417.289062-1.984375.359375-.9739583 1.026042-1.4609375 2-1.4609375.96875 0 1.635417.4609375 2 1.3828125.192708.4791667.289062 1.0520833.289062 1.71875 0 1.09375-.217447 1.9153646-.652343 2.4648438-.434896.5494791-.980469.8242187-1.636719.8242187z" fill="#092f63" fill-rule="nonzero"/></g></svg>