<svg xmlns="http://www.w3.org/2000/svg" width="29" height="25"><path fill="#FFF" fill-rule="evenodd" d="M0 8.3c0-3.6 0-6 .3-6.8L.6 1H1l.3-.2.4-.3L2 0h23.2s.5.2 1.2.2c.8 0 1 .2.8.3.3 0 .5.3.7.6l.2 1c.2.3.3.6.3 1v3.5c0 3.5-.2 6.2-.5 8.2-.3 2-1 3.8-2.3 5.4-1.2 1.4-2.6 2.6-4 3.4-1.7 1-3.3 1.4-5 1.6-1.6 0-3.3 0-5-.5-1.6-.3-3.2-1-4.6-1.8-1.2-1-2.5-2-3.6-3.3C2 18 1 16.4.6 15c-.2-1-.4-3.3-.6-7zm5.8 0c-.4.4-.3 1 .4 2 .7 1.2 1.6 2.2 2.6 3.2l1 1 1.3 1.3 1.5 1 1.4.6h1.5l.4-.3h.3l.4-.2.3-.3 1.4-1.5 2.2-2 1.7-2c.6-.8 1-1.5 1-2-.3-.6-.6-1-1-1.4-.4-.2-.8-.3-1.3-.2l-1.4.7-1.4 1.4-1.5 1.4-1.3 1.3-1 .8-1.7-1.5-2-2-2-1.7C8 7 7.7 7 7.3 7.2L6 8.2z"/></svg>