<svg xmlns="http://www.w3.org/2000/svg" xmlns:xlink="http://www.w3.org/1999/xlink" fill="none" stroke="none" stroke-linecap="square" stroke-miterlimit="10" width="600" height="371" xmlns:v="https://vecta.io/nano"><style><![CDATA[.B{clip-path:url(#A)}.C{fill:#423e45}.D{fill:#fff}.E{stroke:#000}.F{stroke-width:2}.G{stroke-opacity:0}.H{stroke-width:3}.I{stroke-linejoin:round}.J{stroke:#423e45}]]></style><path d="M0 0h600v371H0V0z" class="D"/><g stroke-linecap="butt"><path stroke="#333" d="M69.5 306.5h512"/><path d="M69.5 257.5h512m-512-49h512m-512-49h512m-512-49h512m-512-49h512" stroke="#ccc"/></g><clipPath id="A"><path d="M69.55 61.917h511.9v244.167H69.55V61.917z"/></clipPath><path d="M150 306H98v-.5a.5.5 0 0 1 .5-.5h51a.5.5 0 0 1 .5.5z" class="B E F G"/><path d="M150 306H98v-.5a.5.5 0 0 1 .5-.5h51a.5.5 0 0 1 .5.5z" class="B C"/><path d="M231 306h-52v-17a2 2 0 0 1 2-2h48a2 2 0 0 1 2 2z" class="B E F G"/><path d="M231 306h-52v-17a2 2 0 0 1 2-2h48a2 2 0 0 1 2 2z" class="B C"/><path d="M311 306h-52v-91a2 2 0 0 1 2-2h48a2 2 0 0 1 2 2z" class="B E F G"/><path d="M311 306h-52v-91a2 2 0 0 1 2-2h48a2 2 0 0 1 2 2z" class="B C"/><path d="M392 306h-52v-35a2 2 0 0 1 2-2h48a2 2 0 0 1 2 2z" class="B E F G"/><path d="M392 306h-52v-35a2 2 0 0 1 2-2h48a2 2 0 0 1 2 2z" class="B C"/><path d="M472 306h-52V92a2 2 0 0 1 2-2h48a2 2 0 0 1 2 2z" class="B E F G"/><path d="M472 306h-52V92a2 2 0 0 1 2-2h48a2 2 0 0 1 2 2z" class="B C"/><path d="M553 306h-52V143a2 2 0 0 1 2-2h48a2 2 0 0 1 2 2z" class="B E F G"/><path d="M553 306h-52V143a2 2 0 0 1 2-2h48a2 2 0 0 1 2 2z" class="B C"/><use xlink:href="#C" stroke="#fff" class="H I"/><use xlink:href="#C" class="C"/><use xlink:href="#D" class="H I J"/><use xlink:href="#D" class="D"/><use xlink:href="#E" class="H I J"/><use xlink:href="#E" class="D"/><use xlink:href="#F" class="H I J"/><use xlink:href="#F" class="D"/><use xlink:href="#G" class="H I J"/><use xlink:href="#G" class="D"/><use xlink:href="#H" class="H I J"/><use xlink:href="#H" class="D"/><g fill="#000"><path d="M57.05 305.849q0-1.531.313-2.453.313-.937.922-1.437.625-.5 1.563-.5.688 0 1.203.281.531.281.875.813.344.516.531 1.266.188.75.188 2.031 0 1.516-.312 2.438-.297.922-.922 1.438-.609.5-1.562.5-1.234 0-1.953-.891-.844-1.062-.844-3.484zm1.078 0q0 2.109.5 2.813.5.703 1.219.703.734 0 1.219-.703.5-.703.5-2.812 0-2.125-.5-2.812-.484-.703-1.234-.703-.719 0-1.156.609-.547.781-.547 2.906zM26.05 259l1.109-.094q.125.813.563 1.219.453.406 1.094.406.75 0 1.281-.578.531-.578.531-1.516 0-.906-.516-1.422-.5-.531-1.328-.531-.5 0-.922.234-.406.234-.641.594l-.984-.125.828-4.406h4.281v1h-3.437l-.453 2.313q.766-.547 1.609-.547 1.125 0 1.891.781.781.781.781 2.016 0 1.156-.672 2.016-.828 1.031-2.25 1.031-1.172 0-1.922-.656-.734-.656-.844-1.734zm7-1.984q0-1.531.313-2.453.313-.937.922-1.437.625-.5 1.563-.5.688 0 1.203.281.531.281.875.813.344.516.531 1.266.188.75.188 2.031 0 1.516-.312 2.438-.297.922-.922 1.438-.609.5-1.562.5-1.234 0-1.953-.891-.844-1.062-.844-3.484zm1.078 0q0 2.109.5 2.813.5.703 1.219.703.734 0 1.219-.703.5-.703.5-2.812 0-2.125-.5-2.812-.484-.703-1.234-.703-.719 0-1.156.609-.547.781-.547 2.906zm6.484 4.234v-1.203h1.203v1.203q0 .656-.234 1.063-.234.422-.734.641l-.297-.453q.328-.141.484-.437.156-.281.188-.812h-.609zm2.438-4.234q0-1.531.313-2.453.313-.937.922-1.437.625-.5 1.563-.5.688 0 1.203.281.531.281.875.813.344.516.531 1.266.188.75.188 2.031 0 1.516-.312 2.438-.297.922-.922 1.438-.609.5-1.562.5-1.234 0-1.953-.891-.844-1.062-.844-3.484zm1.078 0q0 2.109.5 2.813.5.703 1.219.703.734 0 1.219-.703.5-.703.5-2.812 0-2.125-.5-2.812-.484-.703-1.234-.703-.719 0-1.156.609-.547.781-.547 2.906zm5.922 0q0-1.531.313-2.453.313-.937.922-1.437.625-.5 1.563-.5.688 0 1.203.281.531.281.875.813.344.516.531 1.266.188.75.188 2.031 0 1.516-.312 2.438-.297.922-.922 1.438-.609.5-1.562.5-1.234 0-1.953-.891-.844-1.062-.844-3.484zm1.078 0q0 2.109.5 2.813.5.703 1.219.703.734 0 1.219-.703.5-.703.5-2.812 0-2.125-.5-2.812-.484-.703-1.234-.703-.719 0-1.156.609-.547.781-.547 2.906zm5.922 0q0-1.531.313-2.453.313-.937.922-1.437.625-.5 1.563-.5.688 0 1.203.281.531.281.875.813.344.516.531 1.266.188.75.188 2.031 0 1.516-.312 2.438-.297.922-.922 1.438-.609.5-1.562.5-1.234 0-1.953-.891-.844-1.062-.844-3.484zm1.078 0q0 2.109.5 2.813.5.703 1.219.703.734 0 1.219-.703.5-.703.5-2.812 0-2.125-.5-2.812-.484-.703-1.234-.703-.719 0-1.156.609-.547.781-.547 2.906zm-35.109-44.599h-1.047v-6.719q-.391.359-1.016.734-.609.359-1.094.531v-1.016q.875-.422 1.531-1 .672-.594.953-1.156h.672v8.625zm3.031-4.234q0-1.531.313-2.453.313-.937.922-1.437.625-.5 1.563-.5.688 0 1.203.281.531.281.875.813.344.516.531 1.266.188.75.188 2.031 0 1.516-.312 2.438-.297.922-.922 1.438-.609.5-1.562.5-1.234 0-1.953-.891-.844-1.062-.844-3.484zm1.078 0q0 2.109.5 2.813.5.703 1.219.703.734 0 1.219-.703.5-.703.5-2.812 0-2.125-.5-2.812-.484-.703-1.234-.703-.719 0-1.156.609-.547.781-.547 2.906zm5.922 0q0-1.531.313-2.453.313-.937.922-1.437.625-.5 1.563-.5.688 0 1.203.281.531.281.875.813.344.516.531 1.266.188.75.188 2.031 0 1.516-.312 2.438-.297.922-.922 1.438-.609.5-1.562.5-1.234 0-1.953-.891-.844-1.062-.844-3.484zm1.078 0q0 2.109.5 2.813.5.703 1.219.703.734 0 1.219-.703.5-.703.5-2.812 0-2.125-.5-2.812-.484-.703-1.234-.703-.719 0-1.156.609-.547.781-.547 2.906zm6.484 4.234v-1.203h1.203v1.203q0 .656-.234 1.063-.234.422-.734.641l-.297-.453q.328-.141.484-.437.156-.281.188-.812h-.609zm2.438-4.234q0-1.531.313-2.453.313-.937.922-1.437.625-.5 1.563-.5.688 0 1.203.281.531.281.875.813.344.516.531 1.266.188.75.188 2.031 0 1.516-.312 2.438-.297.922-.922 1.438-.609.5-1.562.5-1.234 0-1.953-.891-.844-1.062-.844-3.484zm1.078 0q0 2.109.5 2.813.5.703 1.219.703.734 0 1.219-.703.5-.703.5-2.812 0-2.125-.5-2.812-.484-.703-1.234-.703-.719 0-1.156.609-.547.781-.547 2.906zm5.922 0q0-1.531.313-2.453.313-.937.922-1.437.625-.5 1.563-.5.688 0 1.203.281.531.281.875.813.344.516.531 1.266.188.75.188 2.031 0 1.516-.312 2.438-.297.922-.922 1.438-.609.5-1.562.5-1.234 0-1.953-.891-.844-1.062-.844-3.484zm1.078 0q0 2.109.5 2.813.5.703 1.219.703.734 0 1.219-.703.5-.703.5-2.812 0-2.125-.5-2.812-.484-.703-1.234-.703-.719 0-1.156.609-.547.781-.547 2.906zm5.922 0q0-1.531.313-2.453.313-.937.922-1.437.625-.5 1.563-.5.688 0 1.203.281.531.281.875.813.344.516.531 1.266.188.75.188 2.031 0 1.516-.312 2.438-.297.922-.922 1.438-.609.5-1.562.5-1.234 0-1.953-.891-.844-1.062-.844-3.484zm1.078 0q0 2.109.5 2.813.5.703 1.219.703.734 0 1.219-.703.5-.703.5-2.812 0-2.125-.5-2.812-.484-.703-1.234-.703-.719 0-1.156.609-.547.781-.547 2.906zm-35.109-44.6h-1.047v-6.719q-.391.359-1.016.734-.609.359-1.094.531v-1.016q.875-.422 1.531-1 .672-.594.953-1.156h.672v8.625zm3.031-2.25l1.109-.094q.125.813.563 1.219.453.406 1.094.406.75 0 1.281-.578.531-.578.531-1.516 0-.906-.516-1.422-.5-.531-1.328-.531-.5 0-.922.234-.406.234-.641.594l-.984-.125.828-4.406h4.281v1h-3.437l-.453 2.313q.766-.547 1.609-.547 1.125 0 1.891.781.781.781.781 2.016 0 1.156-.672 2.016-.828 1.031-2.25 1.031-1.172 0-1.922-.656-.734-.656-.844-1.734zm7-1.984q0-1.531.313-2.453.313-.937.922-1.437.625-.5 1.563-.5.688 0 1.203.281.531.281.875.813.344.516.531 1.266.188.75.188 2.031 0 1.516-.312 2.438-.297.922-.922 1.438-.609.5-1.562.5-1.234 0-1.953-.891-.844-1.062-.844-3.484zm1.078 0q0 2.109.5 2.813.5.703 1.219.703.734 0 1.219-.703.5-.703.5-2.812 0-2.125-.5-2.812-.484-.703-1.234-.703-.719 0-1.156.609-.547.781-.547 2.906zm6.484 4.234v-1.203h1.203v1.203q0 .656-.234 1.063-.234.422-.734.641l-.297-.453q.328-.141.484-.437.156-.281.188-.812h-.609zm2.438-4.234q0-1.531.313-2.453.313-.937.922-1.437.625-.5 1.563-.5.688 0 1.203.281.531.281.875.813.344.516.531 1.266.188.75.188 2.031 0 1.516-.312 2.438-.297.922-.922 1.438-.609.5-1.562.5-1.234 0-1.953-.891-.844-1.062-.844-3.484zm1.078 0q0 2.109.5 2.813.5.703 1.219.703.734 0 1.219-.703.5-.703.5-2.812 0-2.125-.5-2.812-.484-.703-1.234-.703-.719 0-1.156.609-.547.781-.547 2.906zm5.922 0q0-1.531.313-2.453.313-.937.922-1.437.625-.5 1.563-.5.688 0 1.203.281.531.281.875.813.344.516.531 1.266.188.75.188 2.031 0 1.516-.312 2.438-.297.922-.922 1.438-.609.5-1.562.5-1.234 0-1.953-.891-.844-1.062-.844-3.484zm1.078 0q0 2.109.5 2.813.5.703 1.219.703.734 0 1.219-.703.5-.703.5-2.812 0-2.125-.5-2.812-.484-.703-1.234-.703-.719 0-1.156.609-.547.781-.547 2.906zm5.922 0q0-1.531.313-2.453.313-.937.922-1.437.625-.5 1.563-.5.688 0 1.203.281.531.281.875.813.344.516.531 1.266.188.75.188 2.031 0 1.516-.312 2.438-.297.922-.922 1.438-.609.5-1.562.5-1.234 0-1.953-.891-.844-1.062-.844-3.484zm1.078 0q0 2.109.5 2.813.5.703 1.219.703.734 0 1.219-.703.5-.703.5-2.812 0-2.125-.5-2.812-.484-.703-1.234-.703-.719 0-1.156.609-.547.781-.547 2.906z"/><path d="M24.597 113.734v1.016H18.91q0-.375.125-.734.219-.578.688-1.141.484-.562 1.391-1.297 1.406-1.156 1.891-1.828.5-.672.5-1.266 0-.625-.453-1.047-.453-.437-1.172-.437-.766 0-1.219.453-.453.453-.469 1.266l-1.078-.109q.109-1.219.828-1.844.734-.641 1.969-.641 1.234 0 1.953.688.719.688.719 1.703 0 .516-.219 1.016-.203.484-.703 1.047-.484.547-1.609 1.5-.953.797-1.234 1.094-.266.281-.437.563H24.6zm1.453-3.219q0-1.531.313-2.453.313-.937.922-1.437.625-.5 1.563-.5.688 0 1.203.281.531.281.875.813.344.516.531 1.266.188.75.188 2.031 0 1.516-.312 2.438-.297.922-.922 1.438-.609.5-1.562.5-1.234 0-1.953-.891-.844-1.062-.844-3.484zm1.078 0q0 2.109.5 2.813.5.703 1.219.703.734 0 1.219-.703.5-.703.5-2.812 0-2.125-.5-2.812-.484-.703-1.234-.703-.719 0-1.156.609-.547.781-.547 2.906zm5.922 0q0-1.531.313-2.453.313-.937.922-1.437.625-.5 1.563-.5.688 0 1.203.281.531.281.875.813.344.516.531 1.266.188.75.188 2.031 0 1.516-.312 2.438-.297.922-.922 1.438-.609.5-1.562.5-1.234 0-1.953-.891-.844-1.062-.844-3.484zm1.078 0q0 2.109.5 2.813.5.703 1.219.703.734 0 1.219-.703.5-.703.5-2.812 0-2.125-.5-2.812-.484-.703-1.234-.703-.719 0-1.156.609-.547.781-.547 2.906zm6.484 4.234v-1.203h1.203v1.203q0 .656-.234 1.063-.234.422-.734.641L40.55 116q.328-.141.484-.437.156-.281.188-.812h-.609zm2.438-4.234q0-1.531.313-2.453.313-.937.922-1.437.625-.5 1.563-.5.688 0 1.203.281.531.281.875.813.344.516.531 1.266.188.75.188 2.031 0 1.516-.312 2.438-.297.922-.922 1.438-.609.5-1.562.5-1.234 0-1.953-.891-.844-1.062-.844-3.484zm1.078 0q0 2.109.5 2.813.5.703 1.219.703.734 0 1.219-.703.5-.703.5-2.812 0-2.125-.5-2.812-.484-.703-1.234-.703-.719 0-1.156.609-.547.781-.547 2.906zm5.922 0q0-1.531.313-2.453.313-.937.922-1.437.625-.5 1.563-.5.688 0 1.203.281.531.281.875.813.344.516.531 1.266.188.75.188 2.031 0 1.516-.312 2.438-.297.922-.922 1.438-.609.5-1.562.5-1.234 0-1.953-.891-.844-1.062-.844-3.484zm1.078 0q0 2.109.5 2.813.5.703 1.219.703.734 0 1.219-.703.5-.703.5-2.812 0-2.125-.5-2.812-.484-.703-1.234-.703-.719 0-1.156.609-.547.781-.547 2.906zm5.922 0q0-1.531.313-2.453.313-.937.922-1.437.625-.5 1.563-.5.688 0 1.203.281.531.281.875.813.344.516.531 1.266.188.75.188 2.031 0 1.516-.312 2.438-.297.922-.922 1.438-.609.5-1.562.5-1.234 0-1.953-.891-.844-1.062-.844-3.484zm1.078 0q0 2.109.5 2.813.5.703 1.219.703.734 0 1.219-.703.5-.703.5-2.812 0-2.125-.5-2.812-.484-.703-1.234-.703-.719 0-1.156.609-.547.781-.547 2.906zM24.597 64.901v1.016H18.91q0-.375.125-.734.219-.578.688-1.141.484-.562 1.391-1.297 1.406-1.156 1.891-1.828.5-.672.5-1.266 0-.625-.453-1.047-.453-.437-1.172-.437-.766 0-1.219.453-.453.453-.469 1.266l-1.078-.109q.109-1.219.828-1.844.734-.641 1.969-.641 1.234 0 1.953.688.719.688.719 1.703 0 .516-.219 1.016-.203.484-.703 1.047-.484.547-1.609 1.5-.953.797-1.234 1.094-.266.281-.437.563H24.6zm1.453-1.234l1.109-.094q.125.813.563 1.219.453.406 1.094.406.75 0 1.281-.578.531-.578.531-1.516 0-.906-.516-1.422-.5-.531-1.328-.531-.5 0-.922.234-.406.234-.641.594l-.984-.125.828-4.406h4.281v1h-3.437l-.453 2.313q.766-.547 1.609-.547 1.125 0 1.891.781.781.781.781 2.016 0 1.156-.672 2.016-.828 1.031-2.25 1.031-1.172 0-1.922-.656-.734-.656-.844-1.734zm7-1.984q0-1.531.313-2.453.313-.937.922-1.437.625-.5 1.563-.5.688 0 1.203.281.531.281.875.813.344.516.531 1.266.188.75.188 2.031 0 1.516-.312 2.437-.297.922-.922 1.438-.609.5-1.562.5-1.234 0-1.953-.891-.844-1.062-.844-3.484zm1.078 0q0 2.109.5 2.812.5.703 1.219.703.734 0 1.219-.703.5-.703.5-2.812 0-2.125-.5-2.812-.484-.703-1.234-.703-.719 0-1.156.609-.547.781-.547 2.906zm6.484 4.234v-1.203h1.203v1.203q0 .656-.234 1.063-.234.422-.734.641l-.297-.453q.328-.141.484-.437.156-.281.188-.812h-.609zm2.438-4.234q0-1.531.313-2.453.313-.937.922-1.437.625-.5 1.563-.5.688 0 1.203.281.531.281.875.813.344.516.531 1.266.188.75.188 2.031 0 1.516-.312 2.437-.297.922-.922 1.438-.609.5-1.562.5-1.234 0-1.953-.891-.844-1.062-.844-3.484zm1.078 0q0 2.109.5 2.812.5.703 1.219.703.734 0 1.219-.703.5-.703.5-2.812 0-2.125-.5-2.812-.484-.703-1.234-.703-.719 0-1.156.609-.547.781-.547 2.906zm5.922 0q0-1.531.313-2.453.313-.937.922-1.437.625-.5 1.563-.5.688 0 1.203.281.531.281.875.813.344.516.531 1.266.188.75.188 2.031 0 1.516-.312 2.437-.297.922-.922 1.438-.609.5-1.562.5-1.234 0-1.953-.891-.844-1.062-.844-3.484zm1.078 0q0 2.109.5 2.812.5.703 1.219.703.734 0 1.219-.703.5-.703.5-2.812 0-2.125-.5-2.812-.484-.703-1.234-.703-.719 0-1.156.609-.547.781-.547 2.906zm5.922 0q0-1.531.313-2.453.313-.937.922-1.437.625-.5 1.563-.5.688 0 1.203.281.531.281.875.813.344.516.531 1.266.188.75.188 2.031 0 1.516-.312 2.437-.297.922-.922 1.438-.609.5-1.562.5-1.234 0-1.953-.891-.844-1.062-.844-3.484zm1.078 0q0 2.109.5 2.812.5.703 1.219.703.734 0 1.219-.703.5-.703.5-2.812 0-2.125-.5-2.812-.484-.703-1.234-.703-.719 0-1.156.609-.547.781-.547 2.906zm57.883 260.385v1.016h-5.687q0-.375.125-.734.219-.578.688-1.141.484-.562 1.391-1.297 1.406-1.156 1.891-1.828.5-.672.5-1.266 0-.625-.453-1.047-.453-.437-1.172-.437-.766 0-1.219.453-.453.453-.469 1.266l-1.078-.109q.109-1.219.828-1.844.734-.641 1.969-.641 1.234 0 1.953.688.719.688.719 1.703 0 .516-.219 1.016-.203.484-.703 1.047-.484.547-1.609 1.5-.953.797-1.234 1.094-.266.281-.437.563h4.219zm1.453-3.219q0-1.531.313-2.453.313-.937.922-1.437.625-.5 1.563-.5.688 0 1.203.281.531.281.875.813.344.516.531 1.266.188.75.188 2.031 0 1.516-.312 2.438-.297.922-.922 1.438-.609.5-1.562.5-1.234 0-1.953-.891-.844-1.062-.844-3.484zm1.078 0q0 2.109.5 2.813.5.703 1.219.703.734 0 1.219-.703.5-.703.5-2.812 0-2.125-.5-2.812-.484-.703-1.234-.703-.719 0-1.156.609-.547.781-.547 2.906zm9.891 4.234h-1.047v-6.719q-.391.359-1.016.734-.609.359-1.094.531v-1.016q.875-.422 1.531-1 .672-.594.953-1.156h.672v8.625zm8.5-6.484l-1.047.078q-.141-.625-.391-.906-.437-.453-1.062-.453-.5 0-.891.281-.484.375-.781 1.078-.281.688-.297 1.969.375-.578.922-.859.563-.281 1.172-.281 1.047 0 1.781.781.75.781.75 2 0 .813-.359 1.516-.344.688-.953 1.063-.609.359-1.375.359-1.328 0-2.156-.969-.828-.969-.828-3.187 0-2.5.922-3.625.797-.984 2.156-.984 1.016 0 1.656.578.656.563.781 1.563zm-4.297 3.703q0 .547.219 1.047.234.484.641.75.422.266.891.266.656 0 1.141-.531.484-.547.484-1.469 0-.891-.484-1.406-.469-.516-1.187-.516-.719 0-1.219.516-.484.516-.484 1.344zm63.99 1.766v1.016h-5.687q0-.375.125-.734.219-.578.688-1.141.484-.562 1.391-1.297 1.406-1.156 1.891-1.828.5-.672.5-1.266 0-.625-.453-1.047-.453-.437-1.172-.437-.766 0-1.219.453-.453.453-.469 1.266l-1.078-.109q.109-1.219.828-1.844.734-.641 1.969-.641 1.234 0 1.953.688.719.688.719 1.703 0 .516-.219 1.016-.203.484-.703 1.047-.484.547-1.609 1.5-.953.797-1.234 1.094-.266.281-.437.563h4.219zm1.453-3.219q0-1.531.313-2.453.313-.937.922-1.437.625-.5 1.563-.5.688 0 1.203.281.531.281.875.813.344.516.531 1.266.188.75.188 2.031 0 1.516-.312 2.438-.297.922-.922 1.438-.609.5-1.562.5-1.234 0-1.953-.891-.844-1.062-.844-3.484zm1.078 0q0 2.109.5 2.813.5.703 1.219.703.734 0 1.219-.703.5-.703.5-2.812 0-2.125-.5-2.812-.484-.703-1.234-.703-.719 0-1.156.609-.547.781-.547 2.906zm9.891 4.234h-1.047v-6.719q-.391.359-1.016.734-.609.359-1.094.531v-1.016q.875-.422 1.531-1 .672-.594.953-1.156h.672v8.625zm3.094-7.469v-1.016h5.563v.828q-.812.875-1.625 2.328-.797 1.438-1.234 2.969-.328 1.078-.406 2.359h-1.094q.016-1.016.391-2.453.391-1.437 1.094-2.766.719-1.328 1.531-2.25h-4.219z"/><path d="M277.24 322.068v1.016h-5.687q0-.375.125-.734.219-.578.688-1.141.484-.562 1.391-1.297 1.406-1.156 1.891-1.828.5-.672.5-1.266 0-.625-.453-1.047-.453-.437-1.172-.437-.766 0-1.219.453-.453.453-.469 1.266l-1.078-.109q.109-1.219.828-1.844.734-.641 1.969-.641 1.234 0 1.953.688.719.688.719 1.703 0 .516-.219 1.016-.203.484-.703 1.047-.484.547-1.609 1.5-.953.797-1.234 1.094-.266.281-.437.563h4.219zm1.453-3.219q0-1.531.313-2.453.313-.937.922-1.437.625-.5 1.563-.5.688 0 1.203.281.531.281.875.813.344.516.531 1.266.188.75.188 2.031 0 1.516-.312 2.438-.297.922-.922 1.438-.609.5-1.562.5-1.234 0-1.953-.891-.844-1.062-.844-3.484zm1.078 0q0 2.109.5 2.813.5.703 1.219.703.734 0 1.219-.703.5-.703.5-2.812 0-2.125-.5-2.812-.484-.703-1.234-.703-.719 0-1.156.609-.547.781-.547 2.906zm9.891 4.234h-1.047v-6.719q-.391.359-1.016.734-.609.359-1.094.531v-1.016q.875-.422 1.531-1 .672-.594.953-1.156h.672v8.625zm4.656-4.656q-.656-.25-.984-.687-.312-.453-.312-1.062 0-.937.672-1.578.688-.641 1.797-.641 1.125 0 1.813.656.688.656.688 1.594 0 .594-.312 1.031-.312.438-.953.688.797.25 1.203.828.406.578.406 1.375 0 1.094-.781 1.844-.766.75-2.047.75-1.266 0-2.047-.75-.781-.75-.781-1.875 0-.844.422-1.406.438-.562 1.219-.766zm-.219-1.797q0 .609.391 1 .406.391 1.031.391.609 0 1-.375.391-.391.391-.953 0-.578-.406-.969-.406-.406-1-.406-.609 0-1.016.391-.391.391-.391.922zm-.328 3.969q0 .453.203.875.219.422.641.656.422.234.906.234.75 0 1.234-.484.5-.484.5-1.234 0-.766-.5-1.266-.5-.5-1.266-.5-.75 0-1.234.5-.484.484-.484 1.219zm64.083 1.469v1.016h-5.687q0-.375.125-.734.219-.578.688-1.141.484-.562 1.391-1.297 1.406-1.156 1.891-1.828.5-.672.5-1.266 0-.625-.453-1.047-.453-.437-1.172-.437-.766 0-1.219.453-.453.453-.469 1.266l-1.078-.109q.109-1.219.828-1.844.734-.641 1.969-.641 1.234 0 1.953.688.719.688.719 1.703 0 .516-.219 1.016-.203.484-.703 1.047-.484.547-1.609 1.5-.953.797-1.234 1.094-.266.281-.437.563h4.219zm1.453-3.219q0-1.531.313-2.453.313-.937.922-1.437.625-.5 1.563-.5.688 0 1.203.281.531.281.875.813.344.516.531 1.266.188.75.188 2.031 0 1.516-.312 2.438-.297.922-.922 1.438-.609.5-1.562.5-1.234 0-1.953-.891-.844-1.062-.844-3.484zm1.078 0q0 2.109.5 2.813.5.703 1.219.703.734 0 1.219-.703.5-.703.5-2.812 0-2.125-.5-2.812-.484-.703-1.234-.703-.719 0-1.156.609-.547.781-.547 2.906zm9.891 4.234h-1.047v-6.719q-.391.359-1.016.734-.609.359-1.094.531v-1.016q.875-.422 1.531-1 .672-.594.953-1.156h.672v8.625zm3.188-1.984l1.016-.094q.125.719.484 1.047.375.313.938.313.484 0 .844-.219.375-.234.609-.594.234-.375.391-1 .156-.641.156-1.297 0-.078 0-.219-.312.5-.859.828-.547.313-1.187.313-1.078 0-1.812-.766-.734-.781-.734-2.047 0-1.312.766-2.109.781-.797 1.938-.797.828 0 1.516.453.703.453 1.063 1.297.359.828.359 2.406 0 1.641-.359 2.625-.344.969-1.062 1.484-.703.5-1.641.5-1.016 0-1.656-.547-.641-.562-.766-1.578zm4.313-3.797q0-.906-.484-1.437-.469-.531-1.156-.531-.703 0-1.234.578-.516.563-.516 1.484 0 .813.5 1.328.5.516 1.219.516.734 0 1.203-.516.469-.516.469-1.422zm60.691 4.766v1.016h-5.687q0-.375.125-.734.219-.578.688-1.141.484-.562 1.391-1.297 1.406-1.156 1.891-1.828.5-.672.5-1.266 0-.625-.453-1.047-.453-.437-1.172-.437-.766 0-1.219.453-.453.453-.469 1.266l-1.078-.109q.109-1.219.828-1.844.734-.641 1.969-.641 1.234 0 1.953.688.719.688.719 1.703 0 .516-.219 1.016-.203.484-.703 1.047-.484.547-1.609 1.5-.953.797-1.234 1.094-.266.281-.437.563h4.219zm1.453-3.219q0-1.531.313-2.453.313-.937.922-1.437.625-.5 1.563-.5.688 0 1.203.281.531.281.875.813.344.516.531 1.266.188.75.188 2.031 0 1.516-.312 2.438-.297.922-.922 1.438-.609.5-1.562.5-1.234 0-1.953-.891-.844-1.062-.844-3.484zm1.078 0q0 2.109.5 2.813.5.703 1.219.703.734 0 1.219-.703.5-.703.5-2.812 0-2.125-.5-2.812-.484-.703-1.234-.703-.719 0-1.156.609-.547.781-.547 2.906zm11.469 3.219v1.016h-5.687q0-.375.125-.734.219-.578.688-1.141.484-.562 1.391-1.297 1.406-1.156 1.891-1.828.5-.672.5-1.266 0-.625-.453-1.047-.453-.437-1.172-.437-.766 0-1.219.453-.453.453-.469 1.266l-1.078-.109q.109-1.219.828-1.844.734-.641 1.969-.641 1.234 0 1.953.688.719.688.719 1.703 0 .516-.219 1.016-.203.484-.703 1.047-.484.547-1.609 1.5-.953.797-1.234 1.094-.266.281-.437.563h4.219zm1.453-3.219q0-1.531.313-2.453.313-.937.922-1.437.625-.5 1.563-.5.688 0 1.203.281.531.281.875.813.344.516.531 1.266.188.75.188 2.031 0 1.516-.312 2.438-.297.922-.922 1.438-.609.5-1.562.5-1.234 0-1.953-.891-.844-1.062-.844-3.484zm1.078 0q0 2.109.5 2.813.5.703 1.219.703.734 0 1.219-.703.5-.703.5-2.812 0-2.125-.5-2.812-.484-.703-1.234-.703-.719 0-1.156.609-.547.781-.547 2.906zm64.083 3.219v1.016h-5.687q0-.375.125-.734.219-.578.688-1.141.484-.562 1.391-1.297 1.406-1.156 1.891-1.828.5-.672.5-1.266 0-.625-.453-1.047-.453-.437-1.172-.437-.766 0-1.219.453-.453.453-.469 1.266l-1.078-.109q.109-1.219.828-1.844.734-.641 1.969-.641 1.234 0 1.953.688.719.688.719 1.703 0 .516-.219 1.016-.203.484-.703 1.047-.484.547-1.609 1.5-.953.797-1.234 1.094-.266.281-.437.563h4.219zm1.453-3.219q0-1.531.313-2.453.313-.937.922-1.437.625-.5 1.563-.5.688 0 1.203.281.531.281.875.813.344.516.531 1.266.188.75.188 2.031 0 1.516-.312 2.438-.297.922-.922 1.438-.609.5-1.562.5-1.234 0-1.953-.891-.844-1.062-.844-3.484zm1.078 0q0 2.109.5 2.813.5.703 1.219.703.734 0 1.219-.703.5-.703.5-2.812 0-2.125-.5-2.812-.484-.703-1.234-.703-.719 0-1.156.609-.547.781-.547 2.906zm11.469 3.219v1.016h-5.687q0-.375.125-.734.219-.578.688-1.141.484-.562 1.391-1.297 1.406-1.156 1.891-1.828.5-.672.5-1.266 0-.625-.453-1.047-.453-.437-1.172-.437-.766 0-1.219.453-.453.453-.469 1.266l-1.078-.109q.109-1.219.828-1.844.734-.641 1.969-.641 1.234 0 1.953.688.719.688.719 1.703 0 .516-.219 1.016-.203.484-.703 1.047-.484.547-1.609 1.5-.953.797-1.234 1.094-.266.281-.437.563h4.219zm5.422 1.016h-1.047v-6.719q-.391.359-1.016.734-.609.359-1.094.531v-1.016q.875-.422 1.531-1 .672-.594.953-1.156h.672v8.625z"/></g><path d="M255 340.45a1 1 0 0 1 1-1h10a1 1 0 0 1 1 1v10a1 1 0 0 1-1 1h-10a1 1 0 0 1-1-1z" class="C"/><path fill="#1a1a1a" d="M275.547 346.684l1.063-.094q.078.656.359 1.063.281.406.859.672.594.25 1.328.25.641 0 1.141-.187.5-.203.734-.531.25-.344.25-.734 0-.406-.234-.703-.234-.312-.766-.516-.359-.141-1.547-.422-1.172-.281-1.641-.531-.625-.328-.922-.797-.297-.484-.297-1.078 0-.641.359-1.203.375-.578 1.078-.859.719-.297 1.578-.297.953 0 1.688.313.734.297 1.125.906.391.594.422 1.344l-1.094.078q-.094-.812-.609-1.219-.5-.422-1.484-.422-1.031 0-1.5.375-.469.375-.469.906 0 .469.328.766.328.297 1.703.609 1.391.313 1.906.547.75.359 1.109.891.359.516.359 1.219 0 .688-.391 1.297-.391.594-1.125.938-.734.328-1.656.328-1.172 0-1.969-.328-.781-.344-1.234-1.031-.437-.687-.453-1.547zm12.328 2.766v-.922q-.734 1.063-1.984 1.063-.547 0-1.031-.203-.469-.219-.703-.531-.234-.328-.328-.797-.062-.297-.062-.984v-3.844h1.063v3.453q0 .813.063 1.109.094.406.406.656.328.234.813.234.469 0 .875-.234.422-.25.594-.672.188-.422.188-1.219v-3.328h1.047v6.219h-.937zm3.891 0h-.984v-8.594h1.063v3.063q.672-.828 1.703-.828.578 0 1.078.234.516.219.844.641.344.422.531 1.016.188.594.188 1.266 0 1.594-.797 2.469-.797.875-1.891.875-1.109 0-1.734-.922v.781zm-.016-3.156q0 1.109.313 1.609.5.813 1.344.813.688 0 1.188-.594.516-.594.516-1.797 0-1.219-.484-1.797-.484-.578-1.172-.578-.687 0-1.203.609-.5.594-.5 1.734zm5.625 1.297l1.031-.156q.094.625.484.953.406.328 1.141.328.719 0 1.063-.281.359-.297.359-.703 0-.359-.312-.562-.219-.141-1.078-.359-1.156-.297-1.609-.5-.437-.219-.672-.594-.234-.375-.234-.844 0-.406.188-.766.188-.359.516-.594.25-.172.672-.297.422-.125.922-.125.719 0 1.266.219.563.203.828.563.266.359.359.953l-1.031.141q-.062-.469-.406-.734-.328-.281-.953-.281-.719 0-1.031.25-.312.234-.312.563 0 .203.125.359.141.172.406.281.156.063.938.266 1.125.313 1.563.5.438.188.688.547.25.359.25.906 0 .531-.312 1-.297.453-.875.719-.578.25-1.312.25-1.219 0-1.859-.5-.625-.516-.797-1.5zm10.219 2.375l1.031.156q.063.469.359.688.391.297 1.063.297.734 0 1.125-.297.406-.297.547-.812.094-.328.078-1.359-.687.813-1.719.813-1.281 0-1.984-.922-.703-.937-.703-2.219 0-.891.313-1.641.328-.766.938-1.172.609-.406 1.438-.406 1.109 0 1.828.891v-.75h.969v5.375q0 1.453-.297 2.063-.297.609-.937.953-.641.359-1.578.359-1.109 0-1.797-.5-.687-.5-.672-1.516zm.875-3.734q0 1.219.484 1.781.484.563 1.219.563.734 0 1.219-.562.5-.562.5-1.75 0-1.141-.516-1.719-.5-.578-1.219-.578-.703 0-1.203.578-.484.563-.484 1.688zm10.391 2.453q-.594.5-1.141.703-.531.203-1.156.203-1.031 0-1.578-.5-.547-.5-.547-1.281 0-.453.203-.828.203-.391.547-.609.344-.234.766-.344.297-.094.938-.172 1.266-.141 1.875-.359 0-.219 0-.266 0-.656-.297-.922-.406-.344-1.203-.344-.734 0-1.094.266-.359.25-.531.906l-1.031-.141q.141-.656.469-1.062.328-.406.938-.625.609-.219 1.406-.219.797 0 1.297.188.5.188.734.469.234.281.328.719.047.266.047.969v1.406q0 1.469.063 1.859.078.391.281.75h-1.109q-.156-.328-.203-.766zm-.094-2.359q-.578.234-1.719.406-.656.094-.922.219-.266.109-.422.328-.141.219-.141.5 0 .422.313.703.328.281.938.281.609 0 1.078-.266.484-.266.703-.734.172-.359.172-1.047v-.391zm3.031-4.25v-1.219h1.063v1.219h-1.062zm0 7.375v-6.219h1.063v6.219h-1.062zm3 0v-6.219h.938v.875q.688-1.016 1.984-1.016.563 0 1.031.203.484.203.719.531.234.328.328.766.047.297.047 1.031v3.828h-1.047v-3.781q0-.656-.125-.969-.125-.312-.437-.5-.312-.203-.734-.203-.672 0-1.172.438-.484.422-.484 1.609v3.406h-1.047zm11.25-2l1.094.125q-.25.953-.953 1.484-.703.531-1.781.531-1.359 0-2.172-.844-.797-.844-.797-2.359 0-1.562.813-2.422.813-.875 2.094-.875 1.25 0 2.031.844.797.844.797 2.391 0 .094 0 .281h-4.641q.063 1.031.578 1.578.516.531 1.297.531.578 0 .984-.297.422-.312.656-.969zm-3.453-1.703h3.469q-.062-.797-.391-1.187-.516-.609-1.312-.609-.734 0-1.234.484-.484.484-.531 1.313zm10.234 3.703v-.781q-.594.922-1.734.922-.75 0-1.375-.406-.625-.422-.969-1.156-.344-.734-.344-1.687 0-.922.313-1.687.313-.766.938-1.156.625-.406 1.391-.406.563 0 1 .234.438.234.719.609v-3.078h1.047v8.594h-.984zm-3.328-3.109q0 1.203.5 1.797.5.578 1.188.578.688 0 1.172-.562.484-.562.484-1.719 0-1.281-.5-1.875-.484-.594-1.203-.594-.703 0-1.172.578-.469.563-.469 1.797z"/><path fill="#757575" d="M19.456 32.956l1.781-.156q.125 1.063.578 1.75.469.688 1.438 1.125.984.422 2.219.422 1.078 0 1.906-.312.828-.328 1.234-.891.406-.562.406-1.234 0-.672-.391-1.172-.391-.5-1.281-.844-.578-.234-2.562-.703-1.969-.469-2.75-.891-1.031-.531-1.531-1.328-.5-.797-.5-1.781 0-1.094.609-2.031.609-.937 1.797-1.422 1.188-.5 2.625-.5 1.594 0 2.813.516 1.219.516 1.859 1.516.656.984.703 2.25l-1.812.141q-.141-1.359-.984-2.047-.844-.703-2.5-.703-1.719 0-2.516.641-.781.625-.781 1.5 0 .781.563 1.281.547.5 2.859 1.016 2.313.516 3.172.906 1.25.578 1.844 1.469.594.875.594 2.031 0 1.141-.656 2.156-.656 1.016-1.891 1.578-1.219.563-2.75.563-1.937 0-3.25-.562-1.312-.578-2.062-1.719-.75-1.141-.781-2.562zm20.203 4.594v-1.531q-1.203 1.766-3.281 1.766-.922 0-1.719-.344-.797-.359-1.187-.891-.375-.531-.531-1.312-.109-.516-.109-1.641v-6.422h1.75v5.75q0 1.375.109 1.859.172.688.703 1.094.547.391 1.328.391.797 0 1.484-.406.703-.406.984-1.094.297-.703.297-2.031v-5.562h1.75V37.55h-1.578zm4.828 0h-1.625V23.238h1.75v5.109q1.125-1.406 2.844-1.406.953 0 1.813.391.859.391 1.406 1.094.547.688.859 1.672.313.984.313 2.109 0 2.672-1.312 4.125-1.312 1.453-3.156 1.453-1.844 0-2.891-1.531v1.297zm-.016-5.266q0 1.859.5 2.703.844 1.344 2.25 1.344 1.156 0 1.984-1 .844-1 .844-2.984 0-2.031-.812-2.984-.797-.969-1.937-.969-1.156 0-2 1-.828 1-.828 2.891zm8.688 2.172l1.75-.281q.141 1.047.813 1.609.672.547 1.875.547 1.203 0 1.781-.484.594-.5.594-1.156 0-.594-.516-.937-.359-.234-1.797-.594-1.937-.5-2.687-.844-.734-.359-1.125-.984-.391-.641-.391-1.406 0-.687.313-1.281.328-.594.875-.984.406-.297 1.109-.5.719-.219 1.531-.219 1.219 0 2.141.359.922.344 1.359.953.438.594.609 1.594l-1.719.234q-.125-.797-.687-1.234-.562-.453-1.578-.453-1.219 0-1.734.406-.516.391-.516.922 0 .344.219.625.203.281.672.469.266.094 1.547.438 1.875.5 2.609.828.734.313 1.156.922.422.594.422 1.5 0 .875-.516 1.656-.516.781-1.484 1.203-.969.422-2.187.422-2.016 0-3.078-.844-1.062-.844-1.359-2.484zm17.484-.703l1.719.219q-.281 1.797-1.453 2.813-1.156 1-2.859 1-2.125 0-3.422-1.391-1.297-1.391-1.297-3.984 0-1.687.547-2.937.563-1.266 1.703-1.891 1.141-.641 2.484-.641 1.688 0 2.75.859 1.078.859 1.391 2.422l-1.719.266q-.234-1.047-.859-1.562-.625-.531-1.5-.531-1.328 0-2.156.953-.828.953-.828 3 0 2.094.797 3.047.797.938 2.094.938 1.031 0 1.719-.625.703-.641.891-1.953zm3.203 3.797V27.175h1.578v1.578q.609-1.109 1.125-1.453.516-.359 1.125-.359.891 0 1.813.563l-.609 1.641q-.641-.391-1.281-.391-.578 0-1.047.359-.453.344-.656.953-.281.938-.281 2.047v5.438h-1.766zm7.031-12.297v-2.016h1.766v2.016h-1.766zm0 12.297V27.175h1.766V37.55h-1.766zm5.609 0h-1.625V23.238h1.75v5.109q1.125-1.406 2.844-1.406.953 0 1.813.391.859.391 1.406 1.094.547.688.859 1.672.313.984.313 2.109 0 2.672-1.312 4.125-1.312 1.453-3.156 1.453-1.844 0-2.891-1.531v1.297zm-.016-5.266q0 1.859.5 2.703.844 1.344 2.25 1.344 1.156 0 1.984-1 .844-1 .844-2.984 0-2.031-.812-2.984-.797-.969-1.937-.969-1.156 0-2 1-.828 1-.828 2.891zm16.5 1.922l1.813.234q-.422 1.578-1.594 2.469-1.156.875-2.969.875-2.266 0-3.609-1.391-1.328-1.406-1.328-3.937 0-2.625 1.344-4.062 1.344-1.453 3.5-1.453 2.078 0 3.391 1.422 1.328 1.406 1.328 3.984 0 .156-.016.469h-7.734q.094 1.703.969 2.609.875.906 2.172.906.969 0 1.641-.5.688-.516 1.094-1.625zm-5.781-2.844h5.797q-.109-1.297-.656-1.953-.844-1.016-2.187-1.016-1.203 0-2.031.813-.828.797-.922 2.156zm9.656 6.187V27.175h1.578v1.578q.609-1.109 1.125-1.453.516-.359 1.125-.359.891 0 1.813.563l-.609 1.641q-.641-.391-1.281-.391-.578 0-1.047.359-.453.344-.656.953-.281.938-.281 2.047v5.438h-1.766zm6.313-3.094l1.75-.281q.141 1.047.813 1.609.672.547 1.875.547 1.203 0 1.781-.484.594-.5.594-1.156 0-.594-.516-.937-.359-.234-1.797-.594-1.937-.5-2.687-.844-.734-.359-1.125-.984-.391-.641-.391-1.406 0-.687.313-1.281.328-.594.875-.984.406-.297 1.109-.5.719-.219 1.531-.219 1.219 0 2.141.359.922.344 1.359.953.438.594.609 1.594l-1.719.234q-.125-.797-.687-1.234-.562-.453-1.578-.453-1.219 0-1.734.406-.516.391-.516.922 0 .344.219.625.203.281.672.469.266.094 1.547.438 1.875.5 2.609.828.734.313 1.156.922.422.594.422 1.5 0 .875-.516 1.656-.516.781-1.484 1.203-.969.422-2.187.422-2.016 0-3.078-.844-1.062-.844-1.359-2.484zm16.391 3.953l1.703.25q.109.797.594 1.156.656.484 1.797.484 1.219 0 1.875-.484.672-.484.906-1.359.141-.547.125-2.266-1.156 1.359-2.875 1.359-2.141 0-3.312-1.547-1.172-1.547-1.172-3.703 0-1.484.531-2.734.547-1.25 1.563-1.937 1.031-.687 2.406-.687 1.828 0 3.031 1.484v-1.25h1.609v8.969q0 2.422-.5 3.422-.484 1.016-1.562 1.594-1.062.594-2.625.594-1.844 0-3-.828-1.141-.828-1.094-2.516zm1.453-6.234q0 2.047.813 2.984.813.938 2.031.938 1.203 0 2.016-.937.828-.937.828-2.922 0-1.906-.844-2.875-.844-.969-2.031-.969-1.172 0-2 .953-.812.953-.812 2.828zm16.641 4.094q-.984.828-1.891 1.172-.906.344-1.937.344-1.703 0-2.625-.828-.922-.844-.922-2.141 0-.766.344-1.391.359-.625.922-1 .563-.391 1.266-.594.516-.125 1.563-.266 2.125-.25 3.125-.594.016-.359.016-.469 0-1.062-.5-1.516-.672-.594-2-.594-1.25 0-1.844.438-.578.438-.859 1.547l-1.719-.234q.234-1.109.766-1.781.531-.687 1.547-1.047 1.016-.375 2.359-.375 1.328 0 2.156.313.828.313 1.219.797.391.469.547 1.188.094.453.094 1.625v2.344q0 2.453.109 3.109.109.641.453 1.234h-1.844q-.266-.547-.344-1.281zm-.156-3.922q-.953.391-2.875.656-1.078.156-1.531.359-.437.188-.687.563-.25.375-.25.844 0 .703.531 1.172.531.469 1.563.469 1.016 0 1.797-.437.797-.453 1.172-1.219.281-.609.281-1.766v-.641zm4.391-7.094v-2.016h1.766v2.016h-1.766zm0 12.297V27.175h1.766V37.55h-1.766zm3.984 0V27.175h1.594v1.484q1.141-1.719 3.297-1.719.938 0 1.719.344.797.328 1.188.875.391.547.547 1.297.094.5.094 1.719v6.375h-1.766v-6.312q0-1.078-.203-1.609-.203-.531-.734-.844-.516-.312-1.219-.312-1.125 0-1.937.719-.812.703-.812 2.688v5.672h-1.766zm17.109-3.344l1.813.234q-.422 1.578-1.594 2.469-1.156.875-2.969.875-2.266 0-3.609-1.391-1.328-1.406-1.328-3.937 0-2.625 1.344-4.062 1.344-1.453 3.5-1.453 2.078 0 3.391 1.422 1.328 1.406 1.328 3.984 0 .156-.016.469h-7.734q.094 1.703.969 2.609.875.906 2.172.906.969 0 1.641-.5.688-.516 1.094-1.625zm-5.781-2.844h5.797q-.109-1.297-.656-1.953-.844-1.016-2.187-1.016-1.203 0-2.031.813-.828.797-.922 2.156zm16.406 6.187v-1.312q-.984 1.547-2.906 1.547-1.234 0-2.281-.687-1.031-.687-1.609-1.906-.562-1.219-.562-2.812 0-1.562.516-2.828.516-1.266 1.547-1.937 1.047-.672 2.313-.672.938 0 1.672.406.734.391 1.203 1.016v-5.125h1.734V37.55h-1.625zm-5.562-5.172q0 1.984.844 2.969.844.984 1.984.984 1.156 0 1.953-.937.813-.937.813-2.875 0-2.125-.828-3.125-.812-1-2.016-1-1.172 0-1.969.969-.781.953-.781 3.016z"/><defs ><path id="C" d="M113.266 289.68h-1.078v-7.219l-2.187.797v-.984l3.109-1.172h.156v8.578zm3.516 1.703l-.609-.422q.547-.766.578-1.594v-.969h1.063v.844q0 .594-.297 1.188-.297.594-.734.953zm6.5-4.562h1.188v.875h-1.187v1.984h-1.078v-1.984h-3.891v-.641l3.813-5.906h1.156v5.672zm-3.734 0h2.656v-4.187l-.141.234-2.516 3.953zm7.734-1.937h.813q.781-.016 1.219-.406.438-.391.438-1.062 0-1.5-1.5-1.5-.703 0-1.125.406-.406.406-.406 1.063h-1.094q0-1.016.734-1.687.75-.672 1.891-.672 1.203 0 1.891.641.688.641.688 1.781 0 .563-.359 1.078-.359.516-.984.781.703.219 1.078.734.391.516.391 1.266 0 1.141-.75 1.828-.75.672-1.953.672-1.187 0-1.953-.656-.75-.656-.75-1.719h1.094q0 .672.438 1.078.438.406 1.187.406.781 0 1.188-.406.422-.422.422-1.187 0-.734-.453-1.125-.453-.406-1.328-.422h-.812v-.891zm10.938-3.125l-3.531 7.922h-1.141l3.516-7.641h-4.609v-.891h5.766v.609z"/><path id="D" d="M190.766 301.098h-1.078v-7.219l-2.187.797v-.984l3.109-1.172h.156v8.578zm7.594-3.75q-.328.406-.812.656-.469.234-1.031.234-.734 0-1.281-.359-.547-.359-.844-1.016-.297-.672-.297-1.469 0-.844.313-1.531.328-.687.922-1.047.609-.375 1.406-.375 1.266 0 1.984.953.734.953.734 2.578v.313q0 2.5-.984 3.641-.984 1.141-2.969 1.172h-.219v-.906h.234q1.344-.031 2.063-.703.719-.672.781-2.141zm-1.672 0q.547 0 1-.328.469-.344.688-.828v-.437q0-1.062-.469-1.734-.469-.672-1.172-.672-.719 0-1.156.547-.422.547-.422 1.453 0 .875.406 1.438.422.563 1.125.563zm4.594 5.453l-.609-.422q.547-.766.578-1.594v-.969h1.063v.844q0 .594-.297 1.188-.297.594-.734.953zm6.5-4.562h1.188v.875h-1.187v1.984h-1.078v-1.984h-3.891v-.641l3.813-5.906h1.156v5.672zm-3.734 0h2.656v-4.187l-.141.234-2.516 3.953zm11.75 2.859h-5.594v-.781l2.953-3.281q.656-.75.906-1.203.25-.469.25-.969 0-.672-.406-1.094-.391-.437-1.078-.437-.797 0-1.25.469-.453.453-.453 1.281h-1.078q0-1.187.75-1.906.766-.734 2.031-.734 1.203 0 1.891.625.688.625.688 1.672 0 1.25-1.609 3l-2.281 2.469h4.281v.891zm2.984-4.797h.813q.781-.016 1.219-.406.438-.391.438-1.062 0-1.5-1.5-1.5-.703 0-1.125.406-.406.406-.406 1.063h-1.094q0-1.016.734-1.687.75-.672 1.891-.672 1.203 0 1.891.641.688.641.688 1.781 0 .563-.359 1.078-.359.516-.984.781.703.219 1.078.734.391.516.391 1.266 0 1.141-.75 1.828-.75.672-1.953.672-1.187 0-1.953-.656-.75-.656-.75-1.719h1.094q0 .672.438 1.078.438.406 1.188.406.781 0 1.188-.406.422-.422.422-1.187 0-.734-.453-1.125-.453-.406-1.328-.422h-.812v-.891z"/><path id="E" d="M271.359 225.954q-.328.406-.812.656-.469.234-1.031.234-.734 0-1.281-.359-.547-.359-.844-1.016-.297-.672-.297-1.469 0-.844.313-1.531.328-.687.922-1.047.609-.375 1.406-.375 1.266 0 1.984.953.734.953.734 2.578v.313q0 2.5-.984 3.641-.984 1.141-2.969 1.172h-.219v-.906h.234q1.344-.031 2.063-.703.719-.672.781-2.141zm-1.672 0q.547 0 1-.328.469-.344.688-.828v-.437q0-1.062-.469-1.734-.469-.672-1.172-.672-.719 0-1.156.547-.422.547-.422 1.453 0 .875.406 1.438.422.563 1.125.563zm5.016-.531l.438-4.25h4.375v1h-3.453l-.266 2.328q.641-.375 1.438-.375 1.156 0 1.844.781.688.766.688 2.078 0 1.313-.719 2.078-.703.766-1.984.766-1.125 0-1.844-.625-.719-.641-.812-1.75h1.016q.109.734.531 1.109.422.375 1.109.375.75 0 1.188-.516.438-.516.438-1.422 0-.859-.469-1.375-.469-.516-1.25-.516-.703 0-1.109.297l-.281.234-.875-.219zm6.578 5.984l-.609-.422q.547-.766.578-1.594v-.969h1.063v.844q0 .594-.297 1.188-.297.594-.734.953zm6.5-4.562h1.188v.875h-1.187v1.984h-1.078v-1.984h-3.891v-.641l3.813-5.906h1.156v5.672zm-3.734 0h2.656v-4.187l-.141.234-2.516 3.953zm11.516-.781q0 1.906-.656 2.844-.641.922-2.031.922-1.359 0-2.016-.906-.656-.906-.687-2.719v-1.437q0-1.891.641-2.797.656-.922 2.047-.922 1.375 0 2.031.891.656.875.672 2.719v1.406zm-1.094-1.484q0-1.375-.391-2-.375-.641-1.219-.641-.828 0-1.219.641-.375.625-.375 1.922v1.734q0 1.375.391 2.047.406.656 1.219.656.797 0 1.188-.625.391-.625.406-1.953v-1.781zm3.234.844l.438-4.25h4.375v1h-3.453l-.266 2.328q.641-.375 1.438-.375 1.156 0 1.844.781.688.766.688 2.078 0 1.313-.719 2.078-.703.766-1.984.766-1.125 0-1.844-.625-.719-.641-.812-1.75h1.016q.109.734.531 1.109.422.375 1.109.375.75 0 1.188-.516.438-.516.438-1.422 0-.859-.469-1.375-.469-.516-1.25-.516-.703 0-1.109.297l-.281.234-.875-.219z"/><path id="F" d="M349.781 280.65h.813q.781-.016 1.219-.406.438-.391.438-1.062 0-1.5-1.5-1.5-.703 0-1.125.406-.406.406-.406 1.063h-1.094q0-1.016.734-1.687.75-.672 1.891-.672 1.203 0 1.891.641.688.641.688 1.781 0 .563-.359 1.078-.359.516-.984.781.703.219 1.078.734.391.516.391 1.266 0 1.141-.75 1.828-.75.672-1.953.672-1.187 0-1.953-.656-.75-.656-.75-1.719h1.094q0 .672.438 1.078.438.406 1.188.406.781 0 1.188-.406.422-.422.422-1.187 0-.734-.453-1.125-.453-.406-1.328-.422h-.812v-.891zm10.609-1.516q0 .641-.344 1.141-.344.5-.906.781.656.281 1.047.844.391.547.391 1.25 0 1.094-.75 1.766-.734.656-1.953.656-1.234 0-1.984-.656-.734-.672-.734-1.766 0-.703.375-1.25.375-.562 1.047-.844-.562-.281-.891-.781-.328-.5-.328-1.141 0-1.078.688-1.703.688-.641 1.828-.641 1.125 0 1.813.641.703.625.703 1.703zm-.891 3.984q0-.719-.453-1.156-.453-.453-1.187-.453-.734 0-1.187.453-.437.438-.437 1.172 0 .719.438 1.141.438.406 1.203.406.75 0 1.188-.422.438-.422.438-1.141zm-1.625-5.437q-.641 0-1.047.406-.391.391-.391 1.078 0 .641.391 1.047.391.406 1.031.406.656 0 1.047-.406.391-.406.391-1.047 0-.656-.406-1.062-.406-.422-1.016-.422zm4.406 9.469l-.609-.422q.547-.766.578-1.594v-.969h1.063v.844q0 .594-.297 1.188-.297.594-.734.953zm3.5-6.5h.813q.781-.016 1.219-.406.438-.391.438-1.062 0-1.5-1.5-1.5-.703 0-1.125.406-.406.406-.406 1.063h-1.094q0-1.016.734-1.687.75-.672 1.891-.672 1.203 0 1.891.641.688.641.688 1.781 0 .563-.359 1.078-.359.516-.984.781.703.219 1.078.734.391.516.391 1.266 0 1.141-.75 1.828-.75.672-1.953.672-1.187 0-1.953-.656-.75-.656-.75-1.719h1.094q0 .672.438 1.078.438.406 1.188.406.781 0 1.188-.406.422-.422.422-1.187 0-.734-.453-1.125-.453-.406-1.328-.422h-.812v-.891zm7 0h.813q.781-.016 1.219-.406.438-.391.438-1.062 0-1.5-1.5-1.5-.703 0-1.125.406-.406.406-.406 1.063h-1.094q0-1.016.734-1.687.75-.672 1.891-.672 1.203 0 1.891.641.688.641.688 1.781 0 .563-.359 1.078-.359.516-.984.781.703.219 1.078.734.391.516.391 1.266 0 1.141-.75 1.828-.75.672-1.953.672-1.187 0-1.953-.656-.75-.656-.75-1.719h1.094q0 .672.438 1.078.438.406 1.188.406.781 0 1.188-.406.422-.422.422-1.187 0-.734-.453-1.125-.453-.406-1.328-.422h-.812v-.891zm8.984 4.797h-1.078v-7.219l-2.187.797v-.984l3.109-1.172h.156v8.578z"/><path id="G" d="M430.297 107.212h-5.594v-.781l2.953-3.281q.656-.75.906-1.203.25-.469.25-.969 0-.672-.406-1.094-.391-.437-1.078-.437-.797 0-1.25.469-.453.453-.453 1.281h-1.078q0-1.187.75-1.906.766-.734 2.031-.734 1.203 0 1.891.625.688.625.688 1.672 0 1.25-1.609 3l-2.281 2.469h4.281v.891zm7 0h-5.594v-.781l2.953-3.281q.656-.75.906-1.203.25-.469.25-.969 0-.672-.406-1.094-.391-.437-1.078-.437-.797 0-1.25.469-.453.453-.453 1.281h-1.078q0-1.187.75-1.906.766-.734 2.031-.734 1.203 0 1.891.625.688.625.688 1.672 0 1.25-1.609 3l-2.281 2.469h4.281v.891zm6.766-3.641q0 1.906-.656 2.844-.641.922-2.031.922-1.359 0-2.016-.906-.656-.906-.687-2.719v-1.437q0-1.891.641-2.797.656-.922 2.047-.922 1.375 0 2.031.891.656.875.672 2.719v1.406zm-1.094-1.484q0-1.375-.391-2-.375-.641-1.219-.641-.828 0-1.219.641-.375.625-.375 1.922v1.734q0 1.375.391 2.047.406.656 1.219.656.797 0 1.188-.625.391-.625.406-1.953v-1.781zm2.813 6.828l-.609-.422q.547-.766.578-1.594v-.969h1.063v.844q0 .594-.297 1.188-.297.594-.734.953zm7.109-8.016q0 .641-.344 1.141-.344.5-.906.781.656.281 1.047.844.391.547.391 1.25 0 1.094-.75 1.766-.734.656-1.953.656-1.234 0-1.984-.656-.734-.672-.734-1.766 0-.703.375-1.25.375-.562 1.047-.844-.562-.281-.891-.781-.328-.5-.328-1.141 0-1.078.688-1.703.688-.641 1.828-.641 1.125 0 1.813.641.703.625.703 1.703zm-.891 3.984q0-.719-.453-1.156-.453-.453-1.187-.453-.734 0-1.187.453-.437.438-.437 1.172 0 .719.438 1.141.438.406 1.203.406.75 0 1.188-.422.438-.422.438-1.141zm-1.625-5.437q-.641 0-1.047.406-.391.391-.391 1.078 0 .641.391 1.047.391.406 1.031.406.656 0 1.047-.406.391-.406.391-1.047 0-.656-.406-1.062-.406-.422-1.016-.422zm9.922 7.766h-5.594v-.781l2.953-3.281q.656-.75.906-1.203.25-.469.25-.969 0-.672-.406-1.094-.391-.437-1.078-.437-.797 0-1.25.469-.453.453-.453 1.281h-1.078q0-1.187.75-1.906.766-.734 2.031-.734 1.203 0 1.891.625.688.625.688 1.672 0 1.25-1.609 3l-2.281 2.469h4.281v.891zm5.984-2.859h1.188v.875h-1.187v1.984h-1.078v-1.984h-3.891v-.641l3.813-5.906h1.156v5.672zm-3.734 0h2.656v-4.187l-.141.234-2.516 3.953z"/><path id="H" d="M509.266 158.171h-1.078v-7.219l-2.187.797v-.984l3.109-1.172h.156v8.578zm7.703-8.531v.906h-.203q-1.266.031-2.016.766-.75.719-.875 2.031.688-.766 1.844-.766 1.109 0 1.781.781.672.781.672 2.031 0 1.313-.719 2.109-.719.797-1.937.797-1.219 0-1.984-.937-.75-.953-.75-2.437v-.406q0-2.359 1-3.609 1-1.25 2.984-1.266h.203zm-1.422 3.844q-.562 0-1.031.328-.469.328-.656.844v.391q0 1.063.469 1.703.484.641 1.188.641.734 0 1.156-.531.422-.547.422-1.422 0-.875-.422-1.406-.422-.547-1.125-.547zm9.344-1.625q0 .641-.344 1.141-.344.5-.906.781.656.281 1.047.844.391.547.391 1.25 0 1.094-.75 1.766-.734.656-1.953.656-1.234 0-1.984-.656-.734-.672-.734-1.766 0-.703.375-1.25.375-.562 1.047-.844-.562-.281-.891-.781-.328-.5-.328-1.141 0-1.078.688-1.703.688-.641 1.828-.641 1.125 0 1.813.641.703.625.703 1.703zm-.891 3.984q0-.719-.453-1.156-.453-.453-1.187-.453-.734 0-1.187.453-.437.438-.437 1.172 0 .719.438 1.141.438.406 1.203.406.75 0 1.188-.422.438-.422.438-1.141zm-1.625-5.437q-.641 0-1.047.406-.391.391-.391 1.078 0 .641.391 1.047.391.406 1.031.406.656 0 1.047-.406.391-.406.391-1.047 0-.656-.406-1.062-.406-.422-1.016-.422zm4.406 9.469l-.609-.422q.547-.766.578-1.594v-.969h1.063v.844q0 .594-.297 1.188-.297.594-.734.953zm6.188-10.234v.906h-.203q-1.266.031-2.016.766-.75.719-.875 2.031.688-.766 1.844-.766 1.109 0 1.781.781.672.781.672 2.031 0 1.313-.719 2.109-.719.797-1.937.797-1.219 0-1.984-.937-.75-.953-.75-2.437v-.406q0-2.359 1-3.609 1-1.25 2.984-1.266h.203zm-1.422 3.844q-.562 0-1.031.328-.469.328-.656.844v.391q0 1.063.469 1.703.484.641 1.188.641.734 0 1.156-.531.422-.547.422-1.422 0-.875-.422-1.406-.422-.547-1.125-.547zm8.734 1.828h1.188v.875h-1.187v1.984h-1.078v-1.984h-3.891v-.641l3.813-5.906h1.156v5.672zm-3.734 0h2.656v-4.187l-.141.234-2.516 3.953zm11.672-5.062l-3.531 7.922h-1.141l3.516-7.641h-4.609v-.891h5.766v.609z"/></defs></svg>