<svg xmlns="http://www.w3.org/2000/svg" xmlns:xlink="http://www.w3.org/1999/xlink" fill="none" stroke="none" stroke-linecap="square" stroke-miterlimit="10" width="600" height="371" xmlns:v="https://vecta.io/nano"><style><![CDATA[.B{clip-path:url(#A)}.C{fill:#423e45}.D{stroke:#000}.E{stroke-width:2}.F{stroke-opacity:0}.G{stroke:#fff}.H{stroke-width:3}.I{stroke-linejoin:round}]]></style><path fill="#fff" d="M0 0h600v371H0V0z"/><g stroke-linecap="butt"><path stroke="#333" d="M84.5 334.5h497"/><path d="M84.5 269.5h497m-497-66h497m-497-65h497m-497-65h497" stroke="#ccc"/></g><clipPath id="A"><path d="M84.609 73.5H581.45v260.95H84.609V73.5z"/></clipPath><path d="M163 334h-51v-1.5a1.5 1.5 0 0 1 1.5-1.5h48a1.5 1.5 0 0 1 1.5 1.5z" class="B D E F"/><path d="M163 334h-51v-1.5a1.5 1.5 0 0 1 1.5-1.5h48a1.5 1.5 0 0 1 1.5 1.5z" class="B C"/><path d="M242 334h-51v-28a2 2 0 0 1 2-2h47a2 2 0 0 1 2 2z" class="B D E F"/><path d="M242 334h-51v-28a2 2 0 0 1 2-2h47a2 2 0 0 1 2 2z" class="B C"/><path d="M320 334h-51V201a2 2 0 0 1 2-2h47a2 2 0 0 1 2 2z" class="B D E F"/><path d="M320 334h-51V201a2 2 0 0 1 2-2h47a2 2 0 0 1 2 2z" class="B C"/><path d="M398 334h-51v-82a2 2 0 0 1 2-2h47a2 2 0 0 1 2 2z" class="B D E F"/><path d="M398 334h-51v-82a2 2 0 0 1 2-2h47a2 2 0 0 1 2 2z" class="B C"/><path d="M476 334h-51v-97a2 2 0 0 1 2-2h47a2 2 0 0 1 2 2z" class="B D E F"/><path d="M476 334h-51v-97a2 2 0 0 1 2-2h47a2 2 0 0 1 2 2z" class="B C"/><path d="M555 334h-51V77a2 2 0 0 1 2-2h47a2 2 0 0 1 2 2z" class="B D E F"/><path d="M555 334h-51V77a2 2 0 0 1 2-2h47a2 2 0 0 1 2 2z" class="B C"/><use xlink:href="#C" class="G H I"/><use xlink:href="#C" class="C"/><use xlink:href="#D" class="G H I"/><use xlink:href="#D" class="C"/><use xlink:href="#E" class="G H I"/><use xlink:href="#E" class="C"/><use xlink:href="#F" class="G H I"/><use xlink:href="#F" class="C"/><use xlink:href="#G" class="G H I"/><use xlink:href="#G" class="C"/><use xlink:href="#H" class="G H I"/><use xlink:href="#H" class="C"/><g fill="#000"><path d="M72.109 334.216q0-1.531.313-2.453.313-.937.922-1.437.625-.5 1.563-.5.688 0 1.203.281.531.281.875.813.344.516.531 1.266.188.75.188 2.031 0 1.516-.312 2.438-.297.922-.922 1.438-.609.5-1.562.5-1.234 0-1.953-.891-.844-1.062-.844-3.484zm1.078 0q0 2.109.5 2.813.5.703 1.219.703.734 0 1.219-.703.5-.703.5-2.812 0-2.125-.5-2.812-.484-.703-1.234-.703-.719 0-1.156.609-.547.781-.547 2.906zm-43.532-62.019v1.016h-5.687q0-.375.125-.734.219-.578.688-1.141.484-.562 1.391-1.297 1.406-1.156 1.891-1.828.5-.672.5-1.266 0-.625-.453-1.047-.453-.437-1.172-.437-.766 0-1.219.453-.453.453-.469 1.266l-1.078-.109q.109-1.219.828-1.844.734-.641 1.969-.641 1.234 0 1.953.688.719.688.719 1.703 0 .516-.219 1.016-.203.484-.703 1.047-.484.547-1.609 1.5-.953.797-1.234 1.094-.266.281-.437.563h4.219zm2.016 1.016v-1.203h1.203v1.203q0 .656-.234 1.063-.234.422-.734.641l-.297-.453q.328-.141.484-.437.156-.281.188-.812h-.609zm2.438-2.25l1.109-.094q.125.813.563 1.219.453.406 1.094.406.75 0 1.281-.578.531-.578.531-1.516 0-.906-.516-1.422-.5-.531-1.328-.531-.5 0-.922.234-.406.234-.641.594l-.984-.125.828-4.406h4.281v1h-3.437l-.453 2.313q.766-.547 1.609-.547 1.125 0 1.891.781.781.781.781 2.016 0 1.156-.672 2.016-.828 1.031-2.25 1.031-1.172 0-1.922-.656-.734-.656-.844-1.734zm7-1.984q0-1.531.313-2.453.313-.937.922-1.437.625-.5 1.563-.5.688 0 1.203.281.531.281.875.813.344.516.531 1.266.188.75.188 2.031 0 1.516-.312 2.438-.297.922-.922 1.438-.609.5-1.562.5-1.234 0-1.953-.891-.844-1.062-.844-3.484zm1.078 0q0 2.109.5 2.813.5.703 1.219.703.734 0 1.219-.703.5-.703.5-2.812 0-2.125-.5-2.812-.484-.703-1.234-.703-.719 0-1.156.609-.547.781-.547 2.906zm5.922 0q0-1.531.313-2.453.313-.937.922-1.437.625-.5 1.563-.5.688 0 1.203.281.531.281.875.813.344.516.531 1.266.188.75.188 2.031 0 1.516-.312 2.438-.297.922-.922 1.438-.609.5-1.562.5-1.234 0-1.953-.891-.844-1.062-.844-3.484zm1.078 0q0 2.109.5 2.813.5.703 1.219.703.734 0 1.219-.703.5-.703.5-2.812 0-2.125-.5-2.812-.484-.703-1.234-.703-.719 0-1.156.609-.547.781-.547 2.906zm6.484 4.234v-1.203h1.203v1.203q0 .656-.234 1.063-.234.422-.734.641l-.297-.453q.328-.141.484-.437.156-.281.188-.812h-.609zm2.438-4.234q0-1.531.313-2.453.313-.937.922-1.437.625-.5 1.563-.5.688 0 1.203.281.531.281.875.813.344.516.531 1.266.188.75.188 2.031 0 1.516-.312 2.438-.297.922-.922 1.438-.609.5-1.562.5-1.234 0-1.953-.891-.844-1.062-.844-3.484zm1.078 0q0 2.109.5 2.813.5.703 1.219.703.734 0 1.219-.703.5-.703.5-2.812 0-2.125-.5-2.812-.484-.703-1.234-.703-.719 0-1.156.609-.547.781-.547 2.906zm5.922 0q0-1.531.313-2.453.313-.937.922-1.437.625-.5 1.563-.5.688 0 1.203.281.531.281.875.813.344.516.531 1.266.188.75.188 2.031 0 1.516-.312 2.438-.297.922-.922 1.438-.609.5-1.562.5-1.234 0-1.953-.891-.844-1.062-.844-3.484zm1.078 0q0 2.109.5 2.813.5.703 1.219.703.734 0 1.219-.703.5-.703.5-2.812 0-2.125-.5-2.812-.484-.703-1.234-.703-.719 0-1.156.609-.547.781-.547 2.906zm5.922 0q0-1.531.313-2.453.313-.937.922-1.437.625-.5 1.563-.5.688 0 1.203.281.531.281.875.813.344.516.531 1.266.188.75.188 2.031 0 1.516-.312 2.438-.297.922-.922 1.438-.609.5-1.562.5-1.234 0-1.953-.891-.844-1.062-.844-3.484zm1.078 0q0 2.109.5 2.813.5.703 1.219.703.734 0 1.219-.703.5-.703.5-2.812 0-2.125-.5-2.812-.484-.703-1.234-.703-.719 0-1.156.609-.547.781-.547 2.906zm-49.078-63.254l1.109-.094q.125.813.563 1.219.453.406 1.094.406.75 0 1.281-.578.531-.578.531-1.516 0-.906-.516-1.422-.5-.531-1.328-.531-.5 0-.922.234-.406.234-.641.594l-.984-.125.828-4.406h4.281v1h-3.437l-.453 2.313q.766-.547 1.609-.547 1.125 0 1.891.781.781.781.781 2.016 0 1.156-.672 2.016-.828 1.031-2.25 1.031-1.172 0-1.922-.656-.734-.656-.844-1.734zm7.563 2.25v-1.203h1.203v1.203q0 .656-.234 1.063-.234.422-.734.641l-.297-.453q.328-.141.484-.437.156-.281.188-.812h-.609zm2.438-4.234q0-1.531.313-2.453.313-.937.922-1.437.625-.5 1.563-.5.688 0 1.203.281.531.281.875.813.344.516.531 1.266.188.75.188 2.031 0 1.516-.312 2.438-.297.922-.922 1.438-.609.5-1.562.5-1.234 0-1.953-.891-.844-1.062-.844-3.484zm1.078 0q0 2.109.5 2.813.5.703 1.219.703.734 0 1.219-.703.5-.703.5-2.812 0-2.125-.5-2.812-.484-.703-1.234-.703-.719 0-1.156.609-.547.781-.547 2.906zm5.922 0q0-1.531.313-2.453.313-.937.922-1.437.625-.5 1.563-.5.688 0 1.203.281.531.281.875.813.344.516.531 1.266.188.75.188 2.031 0 1.516-.312 2.438-.297.922-.922 1.438-.609.5-1.562.5-1.234 0-1.953-.891-.844-1.062-.844-3.484zm1.078 0q0 2.109.5 2.813.5.703 1.219.703.734 0 1.219-.703.5-.703.5-2.812 0-2.125-.5-2.812-.484-.703-1.234-.703-.719 0-1.156.609-.547.781-.547 2.906zm5.922 0q0-1.531.313-2.453.313-.937.922-1.437.625-.5 1.563-.5.688 0 1.203.281.531.281.875.813.344.516.531 1.266.188.75.188 2.031 0 1.516-.312 2.438-.297.922-.922 1.438-.609.5-1.562.5-1.234 0-1.953-.891-.844-1.062-.844-3.484zm1.078 0q0 2.109.5 2.813.5.703 1.219.703.734 0 1.219-.703.5-.703.5-2.812 0-2.125-.5-2.812-.484-.703-1.234-.703-.719 0-1.156.609-.547.781-.547 2.906zm6.484 4.234v-1.203h1.203v1.203q0 .656-.234 1.063-.234.422-.734.641l-.297-.453q.328-.141.484-.437.156-.281.188-.812h-.609zm2.438-4.234q0-1.531.313-2.453.313-.937.922-1.437.625-.5 1.563-.5.688 0 1.203.281.531.281.875.813.344.516.531 1.266.188.75.188 2.031 0 1.516-.312 2.438-.297.922-.922 1.438-.609.5-1.562.5-1.234 0-1.953-.891-.844-1.062-.844-3.484zm1.078 0q0 2.109.5 2.813.5.703 1.219.703.734 0 1.219-.703.5-.703.5-2.812 0-2.125-.5-2.812-.484-.703-1.234-.703-.719 0-1.156.609-.547.781-.547 2.906zm5.922 0q0-1.531.313-2.453.313-.937.922-1.437.625-.5 1.563-.5.688 0 1.203.281.531.281.875.813.344.516.531 1.266.188.75.188 2.031 0 1.516-.312 2.438-.297.922-.922 1.438-.609.5-1.562.5-1.234 0-1.953-.891-.844-1.062-.844-3.484zm1.078 0q0 2.109.5 2.813.5.703 1.219.703.734 0 1.219-.703.5-.703.5-2.812 0-2.125-.5-2.812-.484-.703-1.234-.703-.719 0-1.156.609-.547.781-.547 2.906zm5.922 0q0-1.531.313-2.453.313-.937.922-1.437.625-.5 1.563-.5.688 0 1.203.281.531.281.875.813.344.516.531 1.266.188.75.188 2.031 0 1.516-.312 2.438-.297.922-.922 1.438-.609.5-1.562.5-1.234 0-1.953-.891-.844-1.062-.844-3.484zm1.078 0q0 2.109.5 2.813.5.703 1.219.703.734 0 1.219-.703.5-.703.5-2.812 0-2.125-.5-2.812-.484-.703-1.234-.703-.719 0-1.156.609-.547.781-.547 2.906zm-49.017-68.472v-1.016h5.563v.828q-.812.875-1.625 2.328-.797 1.438-1.234 2.969-.328 1.078-.406 2.359h-1.094q.016-1.016.391-2.453.391-1.437 1.094-2.766.719-1.328 1.531-2.25h-4.219zm7.5 7.469v-1.203h1.203v1.203q0 .656-.234 1.063-.234.422-.734.641l-.297-.453q.328-.141.484-.437.156-.281.188-.812h-.609zm2.438-2.25l1.109-.094q.125.813.563 1.219.453.406 1.094.406.75 0 1.281-.578.531-.578.531-1.516 0-.906-.516-1.422-.5-.531-1.328-.531-.5 0-.922.234-.406.234-.641.594l-.984-.125.828-4.406h4.281v1h-3.437l-.453 2.313q.766-.547 1.609-.547 1.125 0 1.891.781.781.781.781 2.016 0 1.156-.672 2.016-.828 1.031-2.25 1.031-1.172 0-1.922-.656-.734-.656-.844-1.734zm7-1.984q0-1.531.313-2.453.313-.937.922-1.437.625-.5 1.563-.5.688 0 1.203.281.531.281.875.813.344.516.531 1.266.188.75.188 2.031 0 1.516-.312 2.438-.297.922-.922 1.438-.609.5-1.562.5-1.234 0-1.953-.891-.844-1.062-.844-3.484zm1.078 0q0 2.109.5 2.813.5.703 1.219.703.734 0 1.219-.703.5-.703.5-2.812 0-2.125-.5-2.812-.484-.703-1.234-.703-.719 0-1.156.609-.547.781-.547 2.906zm5.922 0q0-1.531.313-2.453.313-.937.922-1.437.625-.5 1.563-.5.688 0 1.203.281.531.281.875.813.344.516.531 1.266.188.75.188 2.031 0 1.516-.312 2.438-.297.922-.922 1.438-.609.5-1.562.5-1.234 0-1.953-.891-.844-1.062-.844-3.484zm1.078 0q0 2.109.5 2.813.5.703 1.219.703.734 0 1.219-.703.5-.703.5-2.812 0-2.125-.5-2.812-.484-.703-1.234-.703-.719 0-1.156.609-.547.781-.547 2.906zm6.484 4.234v-1.203h1.203v1.203q0 .656-.234 1.063-.234.422-.734.641l-.297-.453q.328-.141.484-.437.156-.281.188-.812h-.609zm2.438-4.234q0-1.531.313-2.453.313-.937.922-1.437.625-.5 1.563-.5.688 0 1.203.281.531.281.875.813.344.516.531 1.266.188.75.188 2.031 0 1.516-.312 2.438-.297.922-.922 1.438-.609.5-1.562.5-1.234 0-1.953-.891-.844-1.062-.844-3.484zm1.078 0q0 2.109.5 2.813.5.703 1.219.703.734 0 1.219-.703.5-.703.5-2.812 0-2.125-.5-2.812-.484-.703-1.234-.703-.719 0-1.156.609-.547.781-.547 2.906zm5.922 0q0-1.531.313-2.453.313-.937.922-1.437.625-.5 1.563-.5.688 0 1.203.281.531.281.875.813.344.516.531 1.266.188.75.188 2.031 0 1.516-.312 2.438-.297.922-.922 1.438-.609.5-1.562.5-1.234 0-1.953-.891-.844-1.062-.844-3.484zm1.078 0q0 2.109.5 2.813.5.703 1.219.703.734 0 1.219-.703.5-.703.5-2.812 0-2.125-.5-2.812-.484-.703-1.234-.703-.719 0-1.156.609-.547.781-.547 2.906zm5.922 0q0-1.531.313-2.453.313-.937.922-1.437.625-.5 1.563-.5.688 0 1.203.281.531.281.875.813.344.516.531 1.266.188.75.188 2.031 0 1.516-.312 2.438-.297.922-.922 1.438-.609.5-1.562.5-1.234 0-1.953-.891-.844-1.062-.844-3.484zm1.078 0q0 2.109.5 2.813.5.703 1.219.703.734 0 1.219-.703.5-.703.5-2.812 0-2.125-.5-2.812-.484-.703-1.234-.703-.719 0-1.156.609-.547.781-.547 2.906z"/><path d="M21.077 77.5H20.03v-6.719q-.391.359-1.016.734-.609.359-1.094.531V71.03q.875-.422 1.531-1 .672-.594.953-1.156h.672V77.5zm3.031-4.234q0-1.531.313-2.453.313-.937.922-1.437.625-.5 1.563-.5.688 0 1.203.281.531.281.875.813.344.516.531 1.266.188.75.188 2.031 0 1.516-.312 2.438-.297.922-.922 1.438-.609.5-1.562.5-1.234 0-1.953-.891-.844-1.062-.844-3.484zm1.078 0q0 2.109.5 2.813.5.703 1.219.703.734 0 1.219-.703.5-.703.5-2.812 0-2.125-.5-2.812-.484-.703-1.234-.703-.719 0-1.156.609-.547.781-.547 2.906zM31.67 77.5v-1.203h1.203V77.5q0 .656-.234 1.063-.234.422-.734.641l-.297-.453q.328-.141.484-.437.156-.281.188-.812h-.609zm2.438-4.234q0-1.531.313-2.453.313-.937.922-1.437.625-.5 1.563-.5.688 0 1.203.281.531.281.875.813.344.516.531 1.266.188.75.188 2.031 0 1.516-.312 2.438-.297.922-.922 1.438-.609.5-1.562.5-1.234 0-1.953-.891-.844-1.062-.844-3.484zm1.078 0q0 2.109.5 2.813.5.703 1.219.703.734 0 1.219-.703.5-.703.5-2.812 0-2.125-.5-2.812-.484-.703-1.234-.703-.719 0-1.156.609-.547.781-.547 2.906zm5.922 0q0-1.531.313-2.453.313-.937.922-1.437.625-.5 1.563-.5.688 0 1.203.281.531.281.875.813.344.516.531 1.266.188.75.188 2.031 0 1.516-.312 2.438-.297.922-.922 1.438-.609.5-1.562.5-1.234 0-1.953-.891-.844-1.062-.844-3.484zm1.078 0q0 2.109.5 2.813.5.703 1.219.703.734 0 1.219-.703.5-.703.5-2.812 0-2.125-.5-2.812-.484-.703-1.234-.703-.719 0-1.156.609-.547.781-.547 2.906zm5.922 0q0-1.531.313-2.453.313-.937.922-1.437.625-.5 1.563-.5.688 0 1.203.281.531.281.875.813.344.516.531 1.266.188.75.188 2.031 0 1.516-.312 2.438-.297.922-.922 1.438-.609.5-1.562.5-1.234 0-1.953-.891-.844-1.062-.844-3.484zm1.078 0q0 2.109.5 2.813.5.703 1.219.703.734 0 1.219-.703.5-.703.5-2.812 0-2.125-.5-2.812-.484-.703-1.234-.703-.719 0-1.156.609-.547.781-.547 2.906zM55.67 77.5v-1.203h1.203V77.5q0 .656-.234 1.063-.234.422-.734.641l-.297-.453q.328-.141.484-.437.156-.281.188-.812h-.609zm2.438-4.234q0-1.531.313-2.453.313-.937.922-1.437.625-.5 1.563-.5.688 0 1.203.281.531.281.875.813.344.516.531 1.266.188.75.188 2.031 0 1.516-.312 2.438-.297.922-.922 1.438-.609.5-1.562.5-1.234 0-1.953-.891-.844-1.062-.844-3.484zm1.078 0q0 2.109.5 2.813.5.703 1.219.703.734 0 1.219-.703.5-.703.5-2.812 0-2.125-.5-2.812-.484-.703-1.234-.703-.719 0-1.156.609-.547.781-.547 2.906zm5.922 0q0-1.531.313-2.453.313-.937.922-1.437.625-.5 1.563-.5.688 0 1.203.281.531.281.875.813.344.516.531 1.266.188.75.188 2.031 0 1.516-.312 2.438-.297.922-.922 1.438-.609.5-1.562.5-1.234 0-1.953-.891-.844-1.062-.844-3.484zm1.078 0q0 2.109.5 2.813.5.703 1.219.703.734 0 1.219-.703.5-.703.5-2.812 0-2.125-.5-2.812-.484-.703-1.234-.703-.719 0-1.156.609-.547.781-.547 2.906zm5.922 0q0-1.531.313-2.453.313-.937.922-1.437.625-.5 1.563-.5.688 0 1.203.281.531.281.875.813.344.516.531 1.266.188.75.188 2.031 0 1.516-.312 2.438-.297.922-.922 1.438-.609.5-1.562.5-1.234 0-1.953-.891-.844-1.062-.844-3.484zm1.078 0q0 2.109.5 2.813.5.703 1.219.703.734 0 1.219-.703.5-.703.5-2.812 0-2.125-.5-2.812-.484-.703-1.234-.703-.719 0-1.156.609-.547.781-.547 2.906zm56.283 277.168v1.016h-5.688q0-.375.125-.734.219-.578.688-1.141.484-.562 1.391-1.297 1.406-1.156 1.891-1.828.5-.672.5-1.266 0-.625-.453-1.047-.453-.437-1.172-.437-.766 0-1.219.453-.453.453-.469 1.266l-1.078-.109q.109-1.219.828-1.844.734-.641 1.969-.641 1.234 0 1.953.688.719.688.719 1.703 0 .516-.219 1.016-.203.484-.703 1.047-.484.547-1.609 1.5-.953.797-1.234 1.094-.266.281-.437.563h4.219zm1.453-3.219q0-1.531.313-2.453.313-.937.922-1.437.625-.5 1.563-.5.688 0 1.203.281.531.281.875.813.344.516.531 1.266.188.75.188 2.031 0 1.516-.312 2.438-.297.922-.922 1.438-.609.5-1.562.5-1.234 0-1.953-.891-.844-1.062-.844-3.484zm1.078 0q0 2.109.5 2.813.5.703 1.219.703.734 0 1.219-.703.5-.703.5-2.812 0-2.125-.5-2.812-.484-.703-1.234-.703-.719 0-1.156.609-.547.781-.547 2.906zm9.891 4.234h-1.047v-6.719q-.391.359-1.016.734-.609.359-1.094.531v-1.016q.875-.422 1.531-1 .672-.594.953-1.156h.672v8.625zm8.5-6.484l-1.047.078q-.141-.625-.391-.906-.437-.453-1.062-.453-.5 0-.891.281-.484.375-.781 1.078-.281.688-.297 1.969.375-.578.922-.859.563-.281 1.172-.281 1.047 0 1.781.781.75.781.75 2 0 .813-.359 1.516-.344.688-.953 1.063-.609.359-1.375.359-1.328 0-2.156-.969-.828-.969-.828-3.187 0-2.5.922-3.625.797-.984 2.156-.984 1.016 0 1.656.578.656.563.781 1.563zm-4.297 3.703q0 .547.219 1.047.234.484.641.75.422.266.891.266.656 0 1.141-.531.484-.547.484-1.469 0-.891-.484-1.406-.469-.516-1.187-.516-.719 0-1.219.516-.484.516-.484 1.344zm61.618 1.766v1.016h-5.687q0-.375.125-.734.219-.578.688-1.141.484-.562 1.391-1.297 1.406-1.156 1.891-1.828.5-.672.5-1.266 0-.625-.453-1.047-.453-.437-1.172-.437-.766 0-1.219.453-.453.453-.469 1.266l-1.078-.109q.109-1.219.828-1.844.734-.641 1.969-.641 1.234 0 1.953.688.719.688.719 1.703 0 .516-.219 1.016-.203.484-.703 1.047-.484.547-1.609 1.5-.953.797-1.234 1.094-.266.281-.437.563h4.219zm1.453-3.219q0-1.531.313-2.453.313-.937.922-1.437.625-.5 1.563-.5.688 0 1.203.281.531.281.875.813.344.516.531 1.266.188.75.188 2.031 0 1.516-.312 2.438-.297.922-.922 1.438-.609.5-1.562.5-1.234 0-1.953-.891-.844-1.062-.844-3.484zm1.078 0q0 2.109.5 2.813.5.703 1.219.703.734 0 1.219-.703.5-.703.5-2.812 0-2.125-.5-2.812-.484-.703-1.234-.703-.719 0-1.156.609-.547.781-.547 2.906zm9.891 4.234h-1.047v-6.719q-.391.359-1.016.734-.609.359-1.094.531v-1.016q.875-.422 1.531-1 .672-.594.953-1.156h.672v8.625zm3.094-7.469v-1.016h5.563v.828q-.812.875-1.625 2.328-.797 1.438-1.234 2.969-.328 1.078-.406 2.359h-1.094q.016-1.016.391-2.453.391-1.437 1.094-2.766.719-1.328 1.531-2.25h-4.219zm62.727 6.454v1.016h-5.687q0-.375.125-.734.219-.578.688-1.141.484-.562 1.391-1.297 1.406-1.156 1.891-1.828.5-.672.5-1.266 0-.625-.453-1.047-.453-.437-1.172-.437-.766 0-1.219.453-.453.453-.469 1.266l-1.078-.109q.109-1.219.828-1.844.734-.641 1.969-.641 1.234 0 1.953.688.719.688.719 1.703 0 .516-.219 1.016-.203.484-.703 1.047-.484.547-1.609 1.5-.953.797-1.234 1.094-.266.281-.437.563h4.219zm1.453-3.219q0-1.531.313-2.453.313-.937.922-1.437.625-.5 1.563-.5.688 0 1.203.281.531.281.875.813.344.516.531 1.266.188.75.188 2.031 0 1.516-.312 2.438-.297.922-.922 1.438-.609.5-1.562.5-1.234 0-1.953-.891-.844-1.062-.844-3.484zm1.078 0q0 2.109.5 2.813.5.703 1.219.703.734 0 1.219-.703.5-.703.5-2.812 0-2.125-.5-2.812-.484-.703-1.234-.703-.719 0-1.156.609-.547.781-.547 2.906zm9.891 4.234h-1.047v-6.719q-.391.359-1.016.734-.609.359-1.094.531v-1.016q.875-.422 1.531-1 .672-.594.953-1.156h.672v8.625zm4.656-4.656q-.656-.25-.984-.687-.312-.453-.312-1.062 0-.937.672-1.578.688-.641 1.797-.641 1.125 0 1.813.656.688.656.688 1.594 0 .594-.312 1.031-.312.438-.953.688.797.25 1.203.828.406.578.406 1.375 0 1.094-.781 1.844-.766.75-2.047.75-1.266 0-2.047-.75-.781-.75-.781-1.875 0-.844.422-1.406.438-.562 1.219-.766zm-.219-1.797q0 .609.391 1 .406.391 1.031.391.609 0 1-.375.391-.391.391-.953 0-.578-.406-.969-.406-.406-1-.406-.609 0-1.016.391-.391.391-.391.922zm-.328 3.969q0 .453.203.875.219.422.641.656.422.234.906.234.75 0 1.234-.484.5-.484.5-1.234 0-.766-.5-1.266-.5-.5-1.266-.5-.75 0-1.234.5-.484.484-.484 1.219z"/><path d="M364.198 350.434v1.016h-5.687q0-.375.125-.734.219-.578.688-1.141.484-.562 1.391-1.297 1.406-1.156 1.891-1.828.5-.672.5-1.266 0-.625-.453-1.047-.453-.437-1.172-.437-.766 0-1.219.453-.453.453-.469 1.266l-1.078-.109q.109-1.219.828-1.844.734-.641 1.969-.641 1.234 0 1.953.688.719.688.719 1.703 0 .516-.219 1.016-.203.484-.703 1.047-.484.547-1.609 1.5-.953.797-1.234 1.094-.266.281-.437.563h4.219zm1.453-3.219q0-1.531.313-2.453.313-.937.922-1.437.625-.5 1.563-.5.688 0 1.203.281.531.281.875.813.344.516.531 1.266.188.75.188 2.031 0 1.516-.312 2.438-.297.922-.922 1.438-.609.5-1.562.5-1.234 0-1.953-.891-.844-1.062-.844-3.484zm1.078 0q0 2.109.5 2.813.5.703 1.219.703.734 0 1.219-.703.5-.703.5-2.812 0-2.125-.5-2.812-.484-.703-1.234-.703-.719 0-1.156.609-.547.781-.547 2.906zm9.891 4.234h-1.047v-6.719q-.391.359-1.016.734-.609.359-1.094.531v-1.016q.875-.422 1.531-1 .672-.594.953-1.156h.672v8.625zm3.188-1.984l1.016-.094q.125.719.484 1.047.375.313.938.313.484 0 .844-.219.375-.234.609-.594.234-.375.391-1 .156-.641.156-1.297 0-.078 0-.219-.312.5-.859.828-.547.313-1.187.313-1.078 0-1.812-.766-.734-.781-.734-2.047 0-1.312.766-2.109.781-.797 1.938-.797.828 0 1.516.453.703.453 1.063 1.297.359.828.359 2.406 0 1.641-.359 2.625-.344.969-1.062 1.484-.703.5-1.641.5-1.016 0-1.656-.547-.641-.562-.766-1.578zm4.313-3.797q0-.906-.484-1.437-.469-.531-1.156-.531-.703 0-1.234.578-.516.563-.516 1.484 0 .813.5 1.328.5.516 1.219.516.734 0 1.203-.516.469-.516.469-1.422zm58.319 4.766v1.016h-5.687q0-.375.125-.734.219-.578.688-1.141.484-.562 1.391-1.297 1.406-1.156 1.891-1.828.5-.672.5-1.266 0-.625-.453-1.047-.453-.437-1.172-.437-.766 0-1.219.453-.453.453-.469 1.266l-1.078-.109q.109-1.219.828-1.844.734-.641 1.969-.641 1.234 0 1.953.688.719.688.719 1.703 0 .516-.219 1.016-.203.484-.703 1.047-.484.547-1.609 1.5-.953.797-1.234 1.094-.266.281-.437.563h4.219zm1.453-3.219q0-1.531.313-2.453.313-.937.922-1.437.625-.5 1.563-.5.688 0 1.203.281.531.281.875.813.344.516.531 1.266.188.75.188 2.031 0 1.516-.312 2.438-.297.922-.922 1.438-.609.5-1.562.5-1.234 0-1.953-.891-.844-1.062-.844-3.484zm1.078 0q0 2.109.5 2.813.5.703 1.219.703.734 0 1.219-.703.5-.703.5-2.812 0-2.125-.5-2.812-.484-.703-1.234-.703-.719 0-1.156.609-.547.781-.547 2.906zm11.469 3.219v1.016h-5.687q0-.375.125-.734.219-.578.688-1.141.484-.562 1.391-1.297 1.406-1.156 1.891-1.828.5-.672.5-1.266 0-.625-.453-1.047-.453-.437-1.172-.437-.766 0-1.219.453-.453.453-.469 1.266l-1.078-.109q.109-1.219.828-1.844.734-.641 1.969-.641 1.234 0 1.953.688.719.688.719 1.703 0 .516-.219 1.016-.203.484-.703 1.047-.484.547-1.609 1.5-.953.797-1.234 1.094-.266.281-.437.563h4.219zm1.453-3.219q0-1.531.313-2.453.313-.937.922-1.437.625-.5 1.563-.5.688 0 1.203.281.531.281.875.813.344.516.531 1.266.188.75.188 2.031 0 1.516-.312 2.438-.297.922-.922 1.438-.609.5-1.562.5-1.234 0-1.953-.891-.844-1.062-.844-3.484zm1.078 0q0 2.109.5 2.813.5.703 1.219.703.734 0 1.219-.703.5-.703.5-2.812 0-2.125-.5-2.812-.484-.703-1.234-.703-.719 0-1.156.609-.547.781-.547 2.906zm61.712 3.219v1.016h-5.687q0-.375.125-.734.219-.578.688-1.141.484-.562 1.391-1.297 1.406-1.156 1.891-1.828.5-.672.5-1.266 0-.625-.453-1.047-.453-.437-1.172-.437-.766 0-1.219.453-.453.453-.469 1.266l-1.078-.109q.109-1.219.828-1.844.734-.641 1.969-.641 1.234 0 1.953.688.719.688.719 1.703 0 .516-.219 1.016-.203.484-.703 1.047-.484.547-1.609 1.5-.953.797-1.234 1.094-.266.281-.437.563h4.219zm1.453-3.219q0-1.531.313-2.453.313-.937.922-1.437.625-.5 1.563-.5.688 0 1.203.281.531.281.875.813.344.516.531 1.266.188.75.188 2.031 0 1.516-.312 2.438-.297.922-.922 1.438-.609.5-1.562.5-1.234 0-1.953-.891-.844-1.062-.844-3.484zm1.078 0q0 2.109.5 2.813.5.703 1.219.703.734 0 1.219-.703.5-.703.5-2.812 0-2.125-.5-2.812-.484-.703-1.234-.703-.719 0-1.156.609-.547.781-.547 2.906zm11.469 3.219v1.016h-5.687q0-.375.125-.734.219-.578.688-1.141.484-.562 1.391-1.297 1.406-1.156 1.891-1.828.5-.672.5-1.266 0-.625-.453-1.047-.453-.437-1.172-.437-.766 0-1.219.453-.453.453-.469 1.266l-1.078-.109q.109-1.219.828-1.844.734-.641 1.969-.641 1.234 0 1.953.688.719.688.719 1.703 0 .516-.219 1.016-.203.484-.703 1.047-.484.547-1.609 1.5-.953.797-1.234 1.094-.266.281-.437.563h4.219zm5.422 1.016h-1.047v-6.719q-.391.359-1.016.734-.609.359-1.094.531v-1.016q.875-.422 1.531-1 .672-.594.953-1.156h.672v8.625z"/></g><path fill="#757575" d="M25.191 37.55l-5.547-14.312h2.047l3.719 10.391q.453 1.25.75 2.344.328-1.172.781-2.344L30.8 23.238h1.937L27.128 37.55h-1.937zm8.688-12.297v-2.016h1.766v2.016h-1.766zm0 12.297V27.175h1.766V37.55h-1.766zm11.094-3.344l1.813.234q-.422 1.578-1.594 2.469-1.156.875-2.969.875-2.266 0-3.609-1.391-1.328-1.406-1.328-3.937 0-2.625 1.344-4.062 1.344-1.453 3.5-1.453 2.078 0 3.391 1.422 1.328 1.406 1.328 3.984 0 .156-.016.469h-7.734q.094 1.703.969 2.609.875.906 2.172.906.969 0 1.641-.5.688-.516 1.094-1.625zm-5.781-2.844h5.797q-.109-1.297-.656-1.953-.844-1.016-2.187-1.016-1.203 0-2.031.813-.828.797-.922 2.156zm11.594 6.187l-3.172-10.375h1.813l1.656 5.984.609 2.234q.047-.172.531-2.141l1.656-6.078h1.813l1.547 6.016.516 1.984.594-2 1.781-6h1.703L58.597 37.55h-1.828l-1.656-6.219-.391-1.766-2.109 7.984h-1.828zm12.375-3.094l1.75-.281q.141 1.047.813 1.609.672.547 1.875.547 1.203 0 1.781-.484.594-.5.594-1.156 0-.594-.516-.937-.359-.234-1.797-.594-1.937-.5-2.687-.844-.734-.359-1.125-.984-.391-.641-.391-1.406 0-.687.313-1.281.328-.594.875-.984.406-.297 1.109-.5.719-.219 1.531-.219 1.219 0 2.141.359.922.344 1.359.953.438.594.609 1.594l-1.719.234q-.125-.797-.687-1.234-.562-.453-1.578-.453-1.219 0-1.734.406-.516.391-.516.922 0 .344.219.625.203.281.672.469.266.094 1.547.438 1.875.5 2.609.828.734.313 1.156.922.422.594.422 1.5 0 .875-.516 1.656-.516.781-1.484 1.203-.969.422-2.187.422-2.016 0-3.078-.844-1.062-.844-1.359-2.484zm16.703 7.063V27.175h1.609v1.344q.563-.781 1.266-1.172.719-.406 1.734-.406 1.328 0 2.344.688 1.016.688 1.531 1.938.531 1.234.531 2.719 0 1.594-.578 2.875-.562 1.266-1.656 1.953-1.094.672-2.297.672-.875 0-1.578-.375-.687-.375-1.141-.937v5.047h-1.766zm1.594-9.094q0 2 .813 2.953.813.953 1.969.953 1.172 0 2-.984.844-.984.844-3.078 0-1.969-.828-2.953-.812-1-1.937-1-1.125 0-2 1.063-.859 1.047-.859 3.047zm16.516 1.781l1.813.234q-.422 1.578-1.594 2.469-1.156.875-2.969.875-2.266 0-3.609-1.391-1.328-1.406-1.328-3.937 0-2.625 1.344-4.062 1.344-1.453 3.5-1.453 2.078 0 3.391 1.422 1.328 1.406 1.328 3.984 0 .156-.016.469h-7.734q.094 1.703.969 2.609.875.906 2.172.906.969 0 1.641-.5.688-.516 1.094-1.625zm-5.781-2.844h5.797q-.109-1.297-.656-1.953-.844-1.016-2.187-1.016-1.203 0-2.031.813-.828.797-.922 2.156zm9.656 6.187V27.175h1.578v1.578q.609-1.109 1.125-1.453.516-.359 1.125-.359.891 0 1.813.563l-.609 1.641q-.641-.391-1.281-.391-.578 0-1.047.359-.453.344-.656.953-.281.938-.281 2.047v5.438h-1.766zm12.938 4l-.187-1.656q.578.156 1 .156.594 0 .938-.203.359-.187.578-.531.172-.266.547-1.312.047-.156.156-.437l-3.937-10.391h1.891l2.156 6.016q.422 1.141.75 2.391.313-1.203.719-2.359l2.219-6.047h1.766l-3.953 10.547q-.625 1.719-.984 2.359-.469.875-1.078 1.266-.594.406-1.437.406-.516 0-1.141-.203zm17.188-7.344l1.813.234q-.422 1.578-1.594 2.469-1.156.875-2.969.875-2.266 0-3.609-1.391-1.328-1.406-1.328-3.937 0-2.625 1.344-4.062 1.344-1.453 3.5-1.453 2.078 0 3.391 1.422 1.328 1.406 1.328 3.984 0 .156-.016.469h-7.734q.094 1.703.969 2.609.875.906 2.172.906.969 0 1.641-.5.688-.516 1.094-1.625zm-5.781-2.844h5.797q-.109-1.297-.656-1.953-.844-1.016-2.187-1.016-1.203 0-2.031.813-.828.797-.922 2.156zm16.453 4.906q-.984.828-1.891 1.172-.906.344-1.937.344-1.703 0-2.625-.828-.922-.844-.922-2.141 0-.766.344-1.391.359-.625.922-1 .563-.391 1.266-.594.516-.125 1.563-.266 2.125-.25 3.125-.594.016-.359.016-.469 0-1.062-.5-1.516-.672-.594-2-.594-1.25 0-1.844.438-.578.438-.859 1.547l-1.719-.234q.234-1.109.766-1.781.531-.687 1.547-1.047 1.016-.375 2.359-.375 1.328 0 2.156.313.828.313 1.219.797.391.469.547 1.188.094.453.094 1.625v2.344q0 2.453.109 3.109.109.641.453 1.234h-1.844q-.266-.547-.344-1.281zm-.156-3.922q-.953.391-2.875.656-1.078.156-1.531.359-.437.188-.687.563-.25.375-.25.844 0 .703.531 1.172.531.469 1.563.469 1.016 0 1.797-.437.797-.453 1.172-1.219.281-.609.281-1.766v-.641zm4.359 5.203V27.175h1.578v1.578q.609-1.109 1.125-1.453.516-.359 1.125-.359.891 0 1.813.563l-.609 1.641q-.641-.391-1.281-.391-.578 0-1.047.359-.453.344-.656.953-.281.938-.281 2.047v5.438h-1.766z"/><defs ><path id="C" d="M119.266 316.467h-1.078v-7.219l-2.187.797v-.984l3.109-1.172h.156v8.578zm7 0h-1.078v-7.219l-2.187.797v-.984l3.109-1.172h.156v8.578zm8.016-2.859h1.188v.875h-1.187v1.984h-1.078v-1.984h-3.891v-.641l3.813-5.906h1.156v5.672zm-3.734 0h2.656v-4.187l-.141.234-2.516 3.953zm6.234 4.563l-.609-.422q.547-.766.578-1.594v-.969h1.063v.844q0 .594-.297 1.188-.297.594-.734.953zm7.516-1.703h-5.594v-.781l2.953-3.281q.656-.75.906-1.203.25-.469.25-.969 0-.672-.406-1.094-.391-.437-1.078-.437-.797 0-1.25.469-.453.453-.453 1.281h-1.078q0-1.187.75-1.906.766-.734 2.031-.734 1.203 0 1.891.625.688.625.688 1.672 0 1.25-1.609 3l-2.281 2.469h4.281v.891zm5.563-3.75q-.328.406-.812.656-.469.234-1.031.234-.734 0-1.281-.359-.547-.359-.844-1.016-.297-.672-.297-1.469 0-.844.313-1.531.328-.687.922-1.047.609-.375 1.406-.375 1.266 0 1.984.953.734.953.734 2.578v.313q0 2.5-.984 3.641-.984 1.141-2.969 1.172h-.219v-.906h.234q1.344-.031 2.063-.703.719-.672.781-2.141zm-1.672 0q.547 0 1-.328.469-.344.688-.828v-.437q0-1.062-.469-1.734-.469-.672-1.172-.672-.719 0-1.156.547-.422.547-.422 1.453 0 .875.406 1.438.422.563 1.125.563zm5.016-.531l.438-4.25h4.375v1h-3.453l-.266 2.328q.641-.375 1.438-.375 1.156 0 1.844.781.688.766.688 2.078 0 1.313-.719 2.078-.703.766-1.984.766-1.125 0-1.844-.625-.719-.641-.812-1.75h1.016q.109.734.531 1.109.422.375 1.109.375.75 0 1.188-.516.438-.516.438-1.422 0-.859-.469-1.375-.469-.516-1.25-.516-.703 0-1.109.297l-.281.234-.875-.219z"/><path id="D" d="M193.766 288.535h-1.078v-7.219l-2.187.797v-.984l3.109-1.172h.156v8.578zm3.516 1.703l-.609-.422q.547-.766.578-1.594v-.969h1.063v.844q0 .594-.297 1.188-.297.594-.734.953zm5.484-1.703h-1.078v-7.219l-2.187.797v-.984l3.109-1.172h.156v8.578zm8.625-6.312q0 .641-.344 1.141-.344.5-.906.781.656.281 1.047.844.391.547.391 1.25 0 1.094-.75 1.766-.734.656-1.953.656-1.234 0-1.984-.656-.734-.672-.734-1.766 0-.703.375-1.25.375-.562 1.047-.844-.562-.281-.891-.781-.328-.5-.328-1.141 0-1.078.688-1.703.688-.641 1.828-.641 1.125 0 1.813.641.703.625.703 1.703zm-.891 3.984q0-.719-.453-1.156-.453-.453-1.187-.453-.734 0-1.187.453-.437.438-.437 1.172 0 .719.438 1.141.438.406 1.203.406.75 0 1.188-.422.438-.422.438-1.141zm-1.625-5.437q-.641 0-1.047.406-.391.391-.391 1.078 0 .641.391 1.047.391.406 1.031.406.656 0 1.047-.406.391-.406.391-1.047 0-.656-.406-1.062-.406-.422-1.016-.422zm8.906 4.906h1.188v.875h-1.187v1.984h-1.078v-1.984h-3.891v-.641l3.813-5.906h1.156v5.672zm-3.734 0h2.656v-4.187l-.141.234-2.516 3.953zm6.234 4.563l-.609-.422q.547-.766.578-1.594v-.969h1.063v.844q0 .594-.297 1.188-.297.594-.734.953zm7.438-9.625l-3.531 7.922h-1.141l3.516-7.641h-4.609v-.891h5.766v.609zm7.078 7.922h-5.594v-.781l2.953-3.281q.656-.75.906-1.203.25-.469.25-.969 0-.672-.406-1.094-.391-.437-1.078-.437-.797 0-1.25.469-.453.453-.453 1.281h-1.078q0-1.187.75-1.906.766-.734 2.031-.734 1.203 0 1.891.625.688.625.688 1.672 0 1.25-1.609 3l-2.281 2.469h4.281v.891zm6.766-3.641q0 1.906-.656 2.844-.641.922-2.031.922-1.359 0-2.016-.906-.656-.906-.687-2.719v-1.437q0-1.891.641-2.797.656-.922 2.047-.922 1.375 0 2.031.891.656.875.672 2.719v1.406zm-1.094-1.484q0-1.375-.391-2-.375-.641-1.219-.641-.828 0-1.219.641-.375.625-.375 1.922v1.734q0 1.375.391 2.047.406.656 1.219.656.797 0 1.188-.625.391-.625.406-1.953v-1.781z"/><path id="E" d="M268.703 179.738l.438-4.25h4.375v1h-3.453l-.266 2.328q.641-.375 1.438-.375 1.156 0 1.844.781.688.766.688 2.078 0 1.313-.719 2.078-.703.766-1.984.766-1.125 0-1.844-.625-.719-.641-.812-1.75h1.016q.109.734.531 1.109.422.375 1.109.375.75 0 1.188-.516.438-.516.438-1.422 0-.859-.469-1.375-.469-.516-1.25-.516-.703 0-1.109.297l-.281.234-.875-.219zm6.578 5.984l-.609-.422q.547-.766.578-1.594v-.969h1.063v.844q0 .594-.297 1.188-.297.594-.734.953zm5.484-1.703h-1.078v-7.219l-2.187.797v-.984l3.109-1.172h.156v8.578zm8.625-6.312q0 .641-.344 1.141-.344.5-.906.781.656.281 1.047.844.391.547.391 1.25 0 1.094-.75 1.766-.734.656-1.953.656-1.234 0-1.984-.656-.734-.672-.734-1.766 0-.703.375-1.25.375-.562 1.047-.844-.562-.281-.891-.781-.328-.5-.328-1.141 0-1.078.688-1.703.688-.641 1.828-.641 1.125 0 1.813.641.703.625.703 1.703zm-.891 3.984q0-.719-.453-1.156-.453-.453-1.187-.453-.734 0-1.187.453-.437.438-.437 1.172 0 .719.438 1.141.438.406 1.203.406.75 0 1.188-.422.438-.422.438-1.141zm-1.625-5.437q-.641 0-1.047.406-.391.391-.391 1.078 0 .641.391 1.047.391.406 1.031.406.656 0 1.047-.406.391-.406.391-1.047 0-.656-.406-1.062-.406-.422-1.016-.422zm8.484 4.016q-.328.406-.812.656-.469.234-1.031.234-.734 0-1.281-.359-.547-.359-.844-1.016-.297-.672-.297-1.469 0-.844.313-1.531.328-.687.922-1.047.609-.375 1.406-.375 1.266 0 1.984.953.734.953.734 2.578v.313q0 2.5-.984 3.641-.984 1.141-2.969 1.172h-.219v-.906h.234q1.344-.031 2.063-.703.719-.672.781-2.141zm-1.672 0q.547 0 1-.328.469-.344.688-.828v-.437q0-1.062-.469-1.734-.469-.672-1.172-.672-.719 0-1.156.547-.422.547-.422 1.453 0 .875.406 1.438.422.563 1.125.563zm4.594 5.453l-.609-.422q.547-.766.578-1.594v-.969h1.063v.844q0 .594-.297 1.188-.297.594-.734.953zm6.078-5.453q-.328.406-.812.656-.469.234-1.031.234-.734 0-1.281-.359-.547-.359-.844-1.016-.297-.672-.297-1.469 0-.844.313-1.531.328-.687.922-1.047.609-.375 1.406-.375 1.266 0 1.984.953.734.953.734 2.578v.313q0 2.5-.984 3.641-.984 1.141-2.969 1.172h-.219v-.906h.234q1.344-.031 2.063-.703.719-.672.781-2.141zm-1.672 0q.547 0 1-.328.469-.344.688-.828v-.437q0-1.062-.469-1.734-.469-.672-1.172-.672-.719 0-1.156.547-.422.547-.422 1.453 0 .875.406 1.438.422.563 1.125.563zm9.875.109q0 1.906-.656 2.844-.641.922-2.031.922-1.359 0-2.016-.906-.656-.906-.687-2.719v-1.437q0-1.891.641-2.797.656-.922 2.047-.922 1.375 0 2.031.891.656.875.672 2.719v1.406zm-1.094-1.484q0-1.375-.391-2-.375-.641-1.219-.641-.828 0-1.219.641-.375.625-.375 1.922v1.734q0 1.375.391 2.047.406.656 1.219.656.797 0 1.188-.625.391-.625.406-1.953v-1.781zm4.313.328h.813q.781-.016 1.219-.406.438-.391.438-1.062 0-1.5-1.5-1.5-.703 0-1.125.406-.406.406-.406 1.063h-1.094q0-1.016.734-1.687.75-.672 1.891-.672 1.203 0 1.891.641.688.641.688 1.781 0 .563-.359 1.078-.359.516-.984.781.703.219 1.078.734.391.516.391 1.266 0 1.141-.75 1.828-.75.672-1.953.672-1.187 0-1.953-.656-.75-.656-.75-1.719h1.094q0 .672.438 1.078.438.406 1.188.406.781 0 1.188-.406.422-.422.422-1.187 0-.734-.453-1.125-.453-.406-1.328-.422h-.812v-.891z"/><path id="F" d="M347.781 229.789h.813q.781-.016 1.219-.406.438-.391.438-1.062 0-1.5-1.5-1.5-.703 0-1.125.406-.406.406-.406 1.063h-1.094q0-1.016.734-1.687.75-.672 1.891-.672 1.203 0 1.891.641.688.641.688 1.781 0 .563-.359 1.078-.359.516-.984.781.703.219 1.078.734.391.516.391 1.266 0 1.141-.75 1.828-.75.672-1.953.672-1.187 0-1.953-.656-.75-.656-.75-1.719h1.094q0 .672.438 1.078.438.406 1.188.406.781 0 1.188-.406.422-.422.422-1.187 0-.734-.453-1.125-.453-.406-1.328-.422h-.812v-.891zm5.5 6.5l-.609-.422q.547-.766.578-1.594v-.969h1.063v.844q0 .594-.297 1.188-.297.594-.734.953zm7.516-1.703h-5.594v-.781l2.953-3.281q.656-.75.906-1.203.25-.469.25-.969 0-.672-.406-1.094-.391-.437-1.078-.437-.797 0-1.25.469-.453.453-.453 1.281h-1.078q0-1.187.75-1.906.766-.734 2.031-.734 1.203 0 1.891.625.688.625.688 1.672 0 1.25-1.609 3l-2.281 2.469h4.281v.891zm1.906-4.281l.438-4.25h4.375v1h-3.453l-.266 2.328q.641-.375 1.438-.375 1.156 0 1.844.781.688.766.688 2.078 0 1.313-.719 2.078-.703.766-1.984.766-1.125 0-1.844-.625-.719-.641-.812-1.75h1.016q.109.734.531 1.109.422.375 1.109.375.75 0 1.188-.516.438-.516.438-1.422 0-.859-.469-1.375-.469-.516-1.25-.516-.703 0-1.109.297l-.281.234-.875-.219zm12.094 4.281h-5.594v-.781l2.953-3.281q.656-.75.906-1.203.25-.469.25-.969 0-.672-.406-1.094-.391-.437-1.078-.437-.797 0-1.25.469-.453.453-.453 1.281h-1.078q0-1.187.75-1.906.766-.734 2.031-.734 1.203 0 1.891.625.688.625.688 1.672 0 1.25-1.609 3l-2.281 2.469h4.281v.891zm1.484 1.703l-.609-.422q.547-.766.578-1.594v-.969h1.063v.844q0 .594-.297 1.188-.297.594-.734.953zm5.484-1.703h-1.078v-7.219l-2.187.797v-.984l3.109-1.172h.156v8.578zm9.031 0h-5.594v-.781l2.953-3.281q.656-.75.906-1.203.25-.469.25-.969 0-.672-.406-1.094-.391-.437-1.078-.437-.797 0-1.25.469-.453.453-.453 1.281h-1.078q0-1.187.75-1.906.766-.734 2.031-.734 1.203 0 1.891.625.688.625.688 1.672 0 1.25-1.609 3l-2.281 2.469h4.281v.891zm5.984-2.859h1.188v.875h-1.187v1.984h-1.078v-1.984h-3.891v-.641l3.813-5.906h1.156v5.672zm-3.734 0h2.656v-4.187l-.141.234-2.516 3.953z"/><path id="G" d="M425.781 215.261h.813q.781-.016 1.219-.406.438-.391.438-1.062 0-1.5-1.5-1.5-.703 0-1.125.406-.406.406-.406 1.063h-1.094q0-1.016.734-1.687.75-.672 1.891-.672 1.203 0 1.891.641.688.641.688 1.781 0 .563-.359 1.078-.359.516-.984.781.703.219 1.078.734.391.516.391 1.266 0 1.141-.75 1.828-.75.672-1.953.672-1.187 0-1.953-.656-.75-.656-.75-1.719h1.094q0 .672.438 1.078.438.406 1.188.406.781 0 1.188-.406.422-.422.422-1.187 0-.734-.453-1.125-.453-.406-1.328-.422h-.812v-.891zm5.5 6.5l-.609-.422q.547-.766.578-1.594v-.969h1.063v.844q0 .594-.297 1.188-.297.594-.734.953zm7.109-8.016q0 .641-.344 1.141-.344.5-.906.781.656.281 1.047.844.391.547.391 1.25 0 1.094-.75 1.766-.734.656-1.953.656-1.234 0-1.984-.656-.734-.672-.734-1.766 0-.703.375-1.25.375-.562 1.047-.844-.562-.281-.891-.781-.328-.5-.328-1.141 0-1.078.688-1.703.688-.641 1.828-.641 1.125 0 1.813.641.703.625.703 1.703zm-.891 3.984q0-.719-.453-1.156-.453-.453-1.187-.453-.734 0-1.187.453-.437.438-.437 1.172 0 .719.438 1.141.438.406 1.203.406.75 0 1.188-.422.438-.422.438-1.141zm-1.625-5.437q-.641 0-1.047.406-.391.391-.391 1.078 0 .641.391 1.047.391.406 1.031.406.656 0 1.047-.406.391-.406.391-1.047 0-.656-.406-1.062-.406-.422-1.016-.422zm9.688 4.125q0 1.906-.656 2.844-.641.922-2.031.922-1.359 0-2.016-.906-.656-.906-.687-2.719v-1.437q0-1.891.641-2.797.656-.922 2.047-.922 1.375 0 2.031.891.656.875.672 2.719v1.406zm-1.094-1.484q0-1.375-.391-2-.375-.641-1.219-.641-.828 0-1.219.641-.375.625-.375 1.922v1.734q0 1.375.391 2.047.406.656 1.219.656.797 0 1.188-.625.391-.625.406-1.953v-1.781zm7.922-1.187q0 .641-.344 1.141-.344.5-.906.781.656.281 1.047.844.391.547.391 1.25 0 1.094-.75 1.766-.734.656-1.953.656-1.234 0-1.984-.656-.734-.672-.734-1.766 0-.703.375-1.25.375-.562 1.047-.844-.562-.281-.891-.781-.328-.5-.328-1.141 0-1.078.688-1.703.688-.641 1.828-.641 1.125 0 1.813.641.703.625.703 1.703zm-.891 3.984q0-.719-.453-1.156-.453-.453-1.187-.453-.734 0-1.187.453-.437.438-.437 1.172 0 .719.438 1.141.438.406 1.203.406.75 0 1.188-.422.438-.422.438-1.141zm-1.625-5.437q-.641 0-1.047.406-.391.391-.391 1.078 0 .641.391 1.047.391.406 1.031.406.656 0 1.047-.406.391-.406.391-1.047 0-.656-.406-1.062-.406-.422-1.016-.422zm4.406 9.469l-.609-.422q.547-.766.578-1.594v-.969h1.063v.844q0 .594-.297 1.188-.297.594-.734.953zm7.109-8.016q0 .641-.344 1.141-.344.5-.906.781.656.281 1.047.844.391.547.391 1.25 0 1.094-.75 1.766-.734.656-1.953.656-1.234 0-1.984-.656-.734-.672-.734-1.766 0-.703.375-1.25.375-.562 1.047-.844-.562-.281-.891-.781-.328-.5-.328-1.141 0-1.078.688-1.703.688-.641 1.828-.641 1.125 0 1.813.641.703.625.703 1.703zm-.891 3.984q0-.719-.453-1.156-.453-.453-1.187-.453-.734 0-1.187.453-.437.438-.437 1.172 0 .719.438 1.141.438.406 1.203.406.75 0 1.188-.422.438-.422.438-1.141zm-1.625-5.437q-.641 0-1.047.406-.391.391-.391 1.078 0 .641.391 1.047.391.406 1.031.406.656 0 1.047-.406.391-.406.391-1.047 0-.656-.406-1.062-.406-.422-1.016-.422zm4.828 3.484l.438-4.25h4.375v1h-3.453l-.266 2.328q.641-.375 1.438-.375 1.156 0 1.844.781.688.766.688 2.078 0 1.313-.719 2.078-.703.766-1.984.766-1.125 0-1.844-.625-.719-.641-.812-1.75h1.016q.109.734.531 1.109.422.375 1.109.375.75 0 1.188-.516.438-.516.438-1.422 0-.859-.469-1.375-.469-.516-1.25-.516-.703 0-1.109.297l-.281.234-.875-.219zm7 0l.438-4.25h4.375v1h-3.453l-.266 2.328q.641-.375 1.438-.375 1.156 0 1.844.781.688.766.688 2.078 0 1.313-.719 2.078-.703.766-1.984.766-1.125 0-1.844-.625-.719-.641-.812-1.75h1.016q.109.734.531 1.109.422.375 1.109.375.75 0 1.188-.516.438-.516.438-1.422 0-.859-.469-1.375-.469-.516-1.25-.516-.703 0-1.109.297l-.281.234-.875-.219z"/><path id="H" d="M507.359 56.062q-.328.406-.812.656-.469.234-1.031.234-.734 0-1.281-.359-.547-.359-.844-1.016-.297-.672-.297-1.469 0-.844.313-1.531.328-.687.922-1.047.609-.375 1.406-.375 1.266 0 1.984.953.734.953.734 2.578V55q0 2.5-.984 3.641-.984 1.141-2.969 1.172h-.219v-.906h.234q1.344-.031 2.063-.703.719-.672.781-2.141zm-1.672 0q.547 0 1-.328.469-.344.688-.828v-.437q0-1.062-.469-1.734-.469-.672-1.172-.672-.719 0-1.156.547-.422.547-.422 1.453 0 .875.406 1.438.422.563 1.125.563zm4.594 5.453l-.609-.422q.547-.766.578-1.594v-.969h1.063v.844q0 .594-.297 1.188-.297.594-.734.953zm6.078-5.453q-.328.406-.812.656-.469.234-1.031.234-.734 0-1.281-.359-.547-.359-.844-1.016-.297-.672-.297-1.469 0-.844.313-1.531.328-.687.922-1.047.609-.375 1.406-.375 1.266 0 1.984.953.734.953.734 2.578V55q0 2.5-.984 3.641-.984 1.141-2.969 1.172h-.219v-.906h.234q1.344-.031 2.063-.703.719-.672.781-2.141zm-1.672 0q.547 0 1-.328.469-.344.688-.828v-.437q0-1.062-.469-1.734-.469-.672-1.172-.672-.719 0-1.156.547-.422.547-.422 1.453 0 .875.406 1.438.422.563 1.125.563zm9.094.891h1.188v.875h-1.187v1.984h-1.078v-1.984h-3.891v-.641l3.813-5.906h1.156v5.672zm-3.734 0h2.656v-4.187l-.141.234-2.516 3.953zm10.313-.891q-.328.406-.812.656-.469.234-1.031.234-.734 0-1.281-.359-.547-.359-.844-1.016-.297-.672-.297-1.469 0-.844.313-1.531.328-.687.922-1.047.609-.375 1.406-.375 1.266 0 1.984.953.734.953.734 2.578V55q0 2.5-.984 3.641-.984 1.141-2.969 1.172h-.219v-.906h.234q1.344-.031 2.063-.703.719-.672.781-2.141zm-1.672 0q.547 0 1-.328.469-.344.688-.828v-.437q0-1.062-.469-1.734-.469-.672-1.172-.672-.719 0-1.156.547-.422.547-.422 1.453 0 .875.406 1.438.422.563 1.125.563zm4.594 5.453l-.609-.422q.547-.766.578-1.594v-.969h1.063v.844q0 .594-.297 1.188-.297.594-.734.953zm7.438-9.625l-3.531 7.922h-1.141l3.516-7.641h-4.609v-.891h5.766v.609zm6.844 4.281q0 1.906-.656 2.844-.641.922-2.031.922-1.359 0-2.016-.906-.656-.906-.687-2.719v-1.437q0-1.891.641-2.797.656-.922 2.047-.922 1.375 0 2.031.891.656.875.672 2.719v1.406zm-1.094-1.484q0-1.375-.391-2-.375-.641-1.219-.641-.828 0-1.219.641-.375.625-.375 1.922v1.734q0 1.375.391 2.047.406.656 1.219.656.797 0 1.188-.625.391-.625.406-1.953v-1.781zm7-3.406v.906h-.203q-1.266.031-2.016.766-.75.719-.875 2.031.688-.766 1.844-.766 1.109 0 1.781.781.672.781.672 2.031 0 1.313-.719 2.109-.719.797-1.937.797-1.219 0-1.984-.937-.75-.953-.75-2.437v-.406q0-2.359 1-3.609 1-1.25 2.984-1.266h.203zm-1.422 3.844q-.562 0-1.031.328-.469.328-.656.844v.391q0 1.063.469 1.703.484.641 1.188.641.734 0 1.156-.531.422-.547.422-1.422 0-.875-.422-1.406-.422-.547-1.125-.547z"/></defs></svg>