<svg version="1.1" viewBox="0.0 0.0 600.0 371.0" fill="none" stroke="none" stroke-linecap="square" stroke-miterlimit="10" width="600" height="371" xmlns:xlink="http://www.w3.org/1999/xlink" xmlns="http://www.w3.org/2000/svg"><path fill="#ffffff" d="M0 0L600.0 0L600.0 371.0L0 371.0L0 0Z" fill-rule="nonzero"/><path stroke="#333333" stroke-width="1.0" stroke-linecap="butt" d="M45.5 306.5L581.5 306.5" fill-rule="nonzero"/><path stroke="#cccccc" stroke-width="1.0" stroke-linecap="butt" d="M45.5 245.5L581.5 245.5" fill-rule="nonzero"/><path stroke="#cccccc" stroke-width="1.0" stroke-linecap="butt" d="M45.5 184.5L581.5 184.5" fill-rule="nonzero"/><path stroke="#cccccc" stroke-width="1.0" stroke-linecap="butt" d="M45.5 122.5L581.5 122.5" fill-rule="nonzero"/><path stroke="#cccccc" stroke-width="1.0" stroke-linecap="butt" d="M45.5 61.5L581.5 61.5" fill-rule="nonzero"/><clipPath id="id_0"><path d="M45.55 61.916668L581.45 61.916668L581.45 306.08334L45.55 306.08334L45.55 61.916668Z" clip-rule="nonzero"/></clipPath><path stroke="#000000" stroke-width="2.0" stroke-linecap="butt" stroke-opacity="0.0" clip-path="url(#id_0)" d="M119.0 306.0L72.0 306.0L72.0 64.0C72.0 62.89543 72.89543 62.0 74.0 62.0L117.0 62.0C118.10457 62.0 119.0 62.89543 119.0 64.0Z" fill-rule="nonzero"/><path fill="#423e45" clip-path="url(#id_0)" d="M119.0 306.0L72.0 306.0L72.0 64.0C72.0 62.89543 72.89543 62.0 74.0 62.0L117.0 62.0C118.10457 62.0 119.0 62.89543 119.0 64.0Z" fill-rule="nonzero"/><path stroke="#000000" stroke-width="2.0" stroke-linecap="butt" stroke-opacity="0.0" clip-path="url(#id_0)" d="M192.0 306.0L145.0 306.0L145.0 125.0C145.0 123.89543 145.89543 123.0 147.0 123.0L190.0 123.0C191.10457 123.0 192.0 123.89543 192.0 125.0Z" fill-rule="nonzero"/><path fill="#423e45" clip-path="url(#id_0)" d="M192.0 306.0L145.0 306.0L145.0 125.0C145.0 123.89543 145.89543 123.0 147.0 123.0L190.0 123.0C191.10457 123.0 192.0 123.89543 192.0 125.0Z" fill-rule="nonzero"/><path stroke="#000000" stroke-width="2.0" stroke-linecap="butt" stroke-opacity="0.0" clip-path="url(#id_0)" d="M265.0 306.0L218.0 306.0L218.0 204.0C218.0 202.89543 218.89543 202.0 220.0 202.0L263.0 202.0C264.10458 202.0 265.0 202.89543 265.0 204.0Z" fill-rule="nonzero"/><path fill="#423e45" clip-path="url(#id_0)" d="M265.0 306.0L218.0 306.0L218.0 204.0C218.0 202.89543 218.89543 202.0 220.0 202.0L263.0 202.0C264.10458 202.0 265.0 202.89543 265.0 204.0Z" fill-rule="nonzero"/><path stroke="#000000" stroke-width="2.0" stroke-linecap="butt" stroke-opacity="0.0" clip-path="url(#id_0)" d="M338.0 306.0L291.0 306.0L291.0 241.0C291.0 239.89543 291.89542 239.0 293.0 239.0L336.0 239.0C337.10458 239.0 338.0 239.89543 338.0 241.0Z" fill-rule="nonzero"/><path fill="#423e45" clip-path="url(#id_0)" d="M338.0 306.0L291.0 306.0L291.0 241.0C291.0 239.89543 291.89542 239.0 293.0 239.0L336.0 239.0C337.10458 239.0 338.0 239.89543 338.0 241.0Z" fill-rule="nonzero"/><path stroke="#000000" stroke-width="2.0" stroke-linecap="butt" stroke-opacity="0.0" clip-path="url(#id_0)" d="M410.0 306.0L363.0 306.0L363.0 125.0C363.0 123.89543 363.89542 123.0 365.0 123.0L408.0 123.0C409.10458 123.0 410.0 123.89543 410.0 125.0Z" fill-rule="nonzero"/><path fill="#423e45" clip-path="url(#id_0)" d="M410.0 306.0L363.0 306.0L363.0 125.0C363.0 123.89543 363.89542 123.0 365.0 123.0L408.0 123.0C409.10458 123.0 410.0 123.89543 410.0 125.0Z" fill-rule="nonzero"/><path stroke="#000000" stroke-width="2.0" stroke-linecap="butt" stroke-opacity="0.0" clip-path="url(#id_0)" d="M483.0 306.0L436.0 306.0L436.0 241.0C436.0 239.89543 436.89542 239.0 438.0 239.0L481.0 239.0C482.10458 239.0 483.0 239.89543 483.0 241.0Z" fill-rule="nonzero"/><path fill="#423e45" clip-path="url(#id_0)" d="M483.0 306.0L436.0 306.0L436.0 241.0C436.0 239.89543 436.89542 239.0 438.0 239.0L481.0 239.0C482.10458 239.0 483.0 239.89543 483.0 241.0Z" fill-rule="nonzero"/><path stroke="#000000" stroke-width="2.0" stroke-linecap="butt" stroke-opacity="0.0" clip-path="url(#id_0)" d="M556.0 306.0L509.0 306.0L509.0 306.0L556.0 306.0Z" fill-rule="nonzero"/><path fill="#423e45" clip-path="url(#id_0)" d="M556.0 306.0L509.0 306.0L509.0 306.0L556.0 306.0Z" fill-rule="nonzero"/><path stroke="#423e45" stroke-width="3.0" stroke-linejoin="round" stroke-linecap="round" d="M93.28125 75.85729L94.46875 75.85729L94.46875 76.73229L93.28125 76.73229L93.28125 78.71667L92.203125 78.71667L92.203125 76.73229L88.3125 76.73229L88.3125 76.09167L92.125 70.18542L93.28125 70.18542L93.28125 75.85729ZM89.546875 75.85729L92.203125 75.85729L92.203125 71.66979L92.0625 71.90417L89.546875 75.85729ZM101.0625 75.07604Q101.0625 76.98229 100.40625 77.91979Q99.765625 78.84167 98.375 78.84167Q97.015625 78.84167 96.359375 77.93542Q95.703125 77.02917 95.671875 75.21667L95.671875 73.77917Q95.671875 71.88854 96.3125 70.98229Q96.96875 70.06042 98.359375 70.06042Q99.734375 70.06042 100.390625 70.95104Q101.046875 71.82604 101.0625 73.66979L101.0625 75.07604ZM99.96875 73.59167Q99.96875 72.21667 99.578125 71.59167Q99.203125 70.95104 98.359375 70.95104Q97.53125 70.95104 97.140625 71.59167Q96.765625 72.21667 96.765625 73.51354L96.765625 75.24792Q96.765625 76.62292 97.15625 77.29479Q97.5625 77.95104 98.375 77.95104Q99.171875 77.95104 99.5625 77.32604Q99.953125 76.70104 99.96875 75.37292L99.96875 73.59167Z" fill-rule="nonzero"/><path fill="#ffffff" d="M93.28125 75.85729L94.46875 75.85729L94.46875 76.73229L93.28125 76.73229L93.28125 78.71667L92.203125 78.71667L92.203125 76.73229L88.3125 76.73229L88.3125 76.09167L92.125 70.18542L93.28125 70.18542L93.28125 75.85729ZM89.546875 75.85729L92.203125 75.85729L92.203125 71.66979L92.0625 71.90417L89.546875 75.85729ZM101.0625 75.07604Q101.0625 76.98229 100.40625 77.91979Q99.765625 78.84167 98.375 78.84167Q97.015625 78.84167 96.359375 77.93542Q95.703125 77.02917 95.671875 75.21667L95.671875 73.77917Q95.671875 71.88854 96.3125 70.98229Q96.96875 70.06042 98.359375 70.06042Q99.734375 70.06042 100.390625 70.95104Q101.046875 71.82604 101.0625 73.66979L101.0625 75.07604ZM99.96875 73.59167Q99.96875 72.21667 99.578125 71.59167Q99.203125 70.95104 98.359375 70.95104Q97.53125 70.95104 97.140625 71.59167Q96.765625 72.21667 96.765625 73.51354L96.765625 75.24792Q96.765625 76.62292 97.15625 77.29479Q97.5625 77.95104 98.375 77.95104Q99.171875 77.95104 99.5625 77.32604Q99.953125 76.70104 99.96875 75.37292L99.96875 73.59167Z" fill-rule="nonzero"/><path stroke="#423e45" stroke-width="3.0" stroke-linejoin="round" stroke-linecap="round" d="M163.28125 134.96146L164.09375 134.96146Q164.875 134.94583 165.3125 134.5552Q165.75 134.16458 165.75 133.4927Q165.75 131.9927 164.25 131.9927Q163.54688 131.9927 163.125 132.39896Q162.71875 132.8052 162.71875 133.46146L161.625 133.46146Q161.625 132.44583 162.35938 131.77396Q163.10938 131.10208 164.25 131.10208Q165.45312 131.10208 166.14062 131.7427Q166.82812 132.38333 166.82812 133.52396Q166.82812 134.08646 166.46875 134.60208Q166.10938 135.1177 165.48438 135.38333Q166.1875 135.60208 166.5625 136.1177Q166.95312 136.63333 166.95312 137.38333Q166.95312 138.52396 166.20312 139.21146Q165.45312 139.88333 164.25 139.88333Q163.0625 139.88333 162.29688 139.22708Q161.54688 138.57083 161.54688 137.50833L162.64062 137.50833Q162.64062 138.1802 163.07812 138.58646Q163.51562 138.9927 164.26562 138.9927Q165.04688 138.9927 165.45312 138.58646Q165.875 138.16458 165.875 137.39896Q165.875 136.66458 165.42188 136.27396Q164.96875 135.8677 164.09375 135.85208L163.28125 135.85208L163.28125 134.96146ZM174.0625 136.1177Q174.0625 138.02396 173.40625 138.96146Q172.76562 139.88333 171.375 139.88333Q170.01562 139.88333 169.35938 138.97708Q168.70312 138.07083 168.67188 136.25833L168.67188 134.82083Q168.67188 132.9302 169.3125 132.02396Q169.96875 131.10208 171.35938 131.10208Q172.73438 131.10208 173.39062 131.9927Q174.04688 132.8677 174.0625 134.71146L174.0625 136.1177ZM172.96875 134.63333Q172.96875 133.25833 172.57812 132.63333Q172.20312 131.9927 171.35938 131.9927Q170.53125 131.9927 170.14062 132.63333Q169.76562 133.25833 169.76562 134.5552L169.76562 136.28958Q169.76562 137.66458 170.15625 138.33646Q170.5625 138.9927 171.375 138.9927Q172.17188 138.9927 172.5625 138.3677Q172.95312 137.7427 172.96875 136.41458L172.96875 134.63333Z" fill-rule="nonzero"/><path fill="#ffffff" d="M163.28125 134.96146L164.09375 134.96146Q164.875 134.94583 165.3125 134.5552Q165.75 134.16458 165.75 133.4927Q165.75 131.9927 164.25 131.9927Q163.54688 131.9927 163.125 132.39896Q162.71875 132.8052 162.71875 133.46146L161.625 133.46146Q161.625 132.44583 162.35938 131.77396Q163.10938 131.10208 164.25 131.10208Q165.45312 131.10208 166.14062 131.7427Q166.82812 132.38333 166.82812 133.52396Q166.82812 134.08646 166.46875 134.60208Q166.10938 135.1177 165.48438 135.38333Q166.1875 135.60208 166.5625 136.1177Q166.95312 136.63333 166.95312 137.38333Q166.95312 138.52396 166.20312 139.21146Q165.45312 139.88333 164.25 139.88333Q163.0625 139.88333 162.29688 139.22708Q161.54688 138.57083 161.54688 137.50833L162.64062 137.50833Q162.64062 138.1802 163.07812 138.58646Q163.51562 138.9927 164.26562 138.9927Q165.04688 138.9927 165.45312 138.58646Q165.875 138.16458 165.875 137.39896Q165.875 136.66458 165.42188 136.27396Q164.96875 135.8677 164.09375 135.85208L163.28125 135.85208L163.28125 134.96146ZM174.0625 136.1177Q174.0625 138.02396 173.40625 138.96146Q172.76562 139.88333 171.375 139.88333Q170.01562 139.88333 169.35938 138.97708Q168.70312 138.07083 168.67188 136.25833L168.67188 134.82083Q168.67188 132.9302 169.3125 132.02396Q169.96875 131.10208 171.35938 131.10208Q172.73438 131.10208 173.39062 131.9927Q174.04688 132.8677 174.0625 134.71146L174.0625 136.1177ZM172.96875 134.63333Q172.96875 133.25833 172.57812 132.63333Q172.20312 131.9927 171.35938 131.9927Q170.53125 131.9927 170.14062 132.63333Q169.76562 133.25833 169.76562 134.5552L169.76562 136.28958Q169.76562 137.66458 170.15625 138.33646Q170.5625 138.9927 171.375 138.9927Q172.17188 138.9927 172.5625 138.3677Q172.95312 137.7427 172.96875 136.41458L172.96875 134.63333Z" fill-rule="nonzero"/><path stroke="#423e45" stroke-width="3.0" stroke-linejoin="round" stroke-linecap="round" d="M238.26562 219.1125L237.1875 219.1125L237.1875 211.89375L235.0 212.69063L235.0 211.70625L238.10938 210.53438L238.26562 210.53438L238.26562 219.1125ZM247.21875 211.19063L243.6875 219.1125L242.54688 219.1125L246.0625 211.47188L241.45312 211.47188L241.45312 210.58125L247.21875 210.58125L247.21875 211.19063Z" fill-rule="nonzero"/><path fill="#ffffff" d="M238.26562 219.1125L237.1875 219.1125L237.1875 211.89375L235.0 212.69063L235.0 211.70625L238.10938 210.53438L238.26562 210.53438L238.26562 219.1125ZM247.21875 211.19063L243.6875 219.1125L242.54688 219.1125L246.0625 211.47188L241.45312 211.47188L241.45312 210.58125L247.21875 210.58125L247.21875 211.19063Z" fill-rule="nonzero"/><path stroke="#423e45" stroke-width="3.0" stroke-linejoin="round" stroke-linecap="round" d="M311.26562 255.7375L310.1875 255.7375L310.1875 248.51875L308.0 249.31563L308.0 248.33125L311.10938 247.15938L311.26562 247.15938L311.26562 255.7375ZM318.26562 255.7375L317.1875 255.7375L317.1875 248.51875L315.0 249.31563L315.0 248.33125L318.10938 247.15938L318.26562 247.15938L318.26562 255.7375Z" fill-rule="nonzero"/><path fill="#ffffff" d="M311.26562 255.7375L310.1875 255.7375L310.1875 248.51875L308.0 249.31563L308.0 248.33125L311.10938 247.15938L311.26562 247.15938L311.26562 255.7375ZM318.26562 255.7375L317.1875 255.7375L317.1875 248.51875L315.0 249.31563L315.0 248.33125L318.10938 247.15938L318.26562 247.15938L318.26562 255.7375Z" fill-rule="nonzero"/><path stroke="#423e45" stroke-width="3.0" stroke-linejoin="round" stroke-linecap="round" d="M381.28125 134.96146L382.09375 134.96146Q382.875 134.94583 383.3125 134.5552Q383.75 134.16458 383.75 133.4927Q383.75 131.9927 382.25 131.9927Q381.54688 131.9927 381.125 132.39896Q380.71875 132.8052 380.71875 133.46146L379.625 133.46146Q379.625 132.44583 380.35938 131.77396Q381.10938 131.10208 382.25 131.10208Q383.45312 131.10208 384.14062 131.7427Q384.82812 132.38333 384.82812 133.52396Q384.82812 134.08646 384.46875 134.60208Q384.10938 135.1177 383.48438 135.38333Q384.1875 135.60208 384.5625 136.1177Q384.95312 136.63333 384.95312 137.38333Q384.95312 138.52396 384.20312 139.21146Q383.45312 139.88333 382.25 139.88333Q381.0625 139.88333 380.29688 139.22708Q379.54688 138.57083 379.54688 137.50833L380.64062 137.50833Q380.64062 138.1802 381.07812 138.58646Q381.51562 138.9927 382.26562 138.9927Q383.04688 138.9927 383.45312 138.58646Q383.875 138.16458 383.875 137.39896Q383.875 136.66458 383.42188 136.27396Q382.96875 135.8677 382.09375 135.85208L381.28125 135.85208L381.28125 134.96146ZM392.0625 136.1177Q392.0625 138.02396 391.40625 138.96146Q390.76562 139.88333 389.375 139.88333Q388.01562 139.88333 387.35938 138.97708Q386.70312 138.07083 386.67188 136.25833L386.67188 134.82083Q386.67188 132.9302 387.3125 132.02396Q387.96875 131.10208 389.35938 131.10208Q390.73438 131.10208 391.39062 131.9927Q392.04688 132.8677 392.0625 134.71146L392.0625 136.1177ZM390.96875 134.63333Q390.96875 133.25833 390.57812 132.63333Q390.20312 131.9927 389.35938 131.9927Q388.53125 131.9927 388.14062 132.63333Q387.76562 133.25833 387.76562 134.5552L387.76562 136.28958Q387.76562 137.66458 388.15625 138.33646Q388.5625 138.9927 389.375 138.9927Q390.17188 138.9927 390.5625 138.3677Q390.95312 137.7427 390.96875 136.41458L390.96875 134.63333Z" fill-rule="nonzero"/><path fill="#ffffff" d="M381.28125 134.96146L382.09375 134.96146Q382.875 134.94583 383.3125 134.5552Q383.75 134.16458 383.75 133.4927Q383.75 131.9927 382.25 131.9927Q381.54688 131.9927 381.125 132.39896Q380.71875 132.8052 380.71875 133.46146L379.625 133.46146Q379.625 132.44583 380.35938 131.77396Q381.10938 131.10208 382.25 131.10208Q383.45312 131.10208 384.14062 131.7427Q384.82812 132.38333 384.82812 133.52396Q384.82812 134.08646 384.46875 134.60208Q384.10938 135.1177 383.48438 135.38333Q384.1875 135.60208 384.5625 136.1177Q384.95312 136.63333 384.95312 137.38333Q384.95312 138.52396 384.20312 139.21146Q383.45312 139.88333 382.25 139.88333Q381.0625 139.88333 380.29688 139.22708Q379.54688 138.57083 379.54688 137.50833L380.64062 137.50833Q380.64062 138.1802 381.07812 138.58646Q381.51562 138.9927 382.26562 138.9927Q383.04688 138.9927 383.45312 138.58646Q383.875 138.16458 383.875 137.39896Q383.875 136.66458 383.42188 136.27396Q382.96875 135.8677 382.09375 135.85208L381.28125 135.85208L381.28125 134.96146ZM392.0625 136.1177Q392.0625 138.02396 391.40625 138.96146Q390.76562 139.88333 389.375 139.88333Q388.01562 139.88333 387.35938 138.97708Q386.70312 138.07083 386.67188 136.25833L386.67188 134.82083Q386.67188 132.9302 387.3125 132.02396Q387.96875 131.10208 389.35938 131.10208Q390.73438 131.10208 391.39062 131.9927Q392.04688 132.8677 392.0625 134.71146L392.0625 136.1177ZM390.96875 134.63333Q390.96875 133.25833 390.57812 132.63333Q390.20312 131.9927 389.35938 131.9927Q388.53125 131.9927 388.14062 132.63333Q387.76562 133.25833 387.76562 134.5552L387.76562 136.28958Q387.76562 137.66458 388.15625 138.33646Q388.5625 138.9927 389.375 138.9927Q390.17188 138.9927 390.5625 138.3677Q390.95312 137.7427 390.96875 136.41458L390.96875 134.63333Z" fill-rule="nonzero"/><path stroke="#423e45" stroke-width="3.0" stroke-linejoin="round" stroke-linecap="round" d="M456.26562 255.7375L455.1875 255.7375L455.1875 248.51875L453.0 249.31563L453.0 248.33125L456.10938 247.15938L456.26562 247.15938L456.26562 255.7375ZM463.26562 255.7375L462.1875 255.7375L462.1875 248.51875L460.0 249.31563L460.0 248.33125L463.10938 247.15938L463.26562 247.15938L463.26562 255.7375Z" fill-rule="nonzero"/><path fill="#ffffff" d="M456.26562 255.7375L455.1875 255.7375L455.1875 248.51875L453.0 249.31563L453.0 248.33125L456.10938 247.15938L456.26562 247.15938L456.26562 255.7375ZM463.26562 255.7375L462.1875 255.7375L462.1875 248.51875L460.0 249.31563L460.0 248.33125L463.10938 247.15938L463.26562 247.15938L463.26562 255.7375Z" fill-rule="nonzero"/><path stroke="#ffffff" stroke-width="3.0" stroke-linejoin="round" stroke-linecap="round" d="M534.5625 287.44272Q534.5625 289.34897 533.90625 290.28647Q533.2656 291.20834 531.875 291.20834Q530.5156 291.20834 529.8594 290.3021Q529.2031 289.39584 529.1719 287.58334L529.1719 286.14584Q529.1719 284.25522 529.8125 283.34897Q530.46875 282.4271 531.8594 282.4271Q533.2344 282.4271 533.8906 283.31772Q534.5469 284.19272 534.5625 286.03647L534.5625 287.44272ZM533.46875 285.95834Q533.46875 284.58334 533.0781 283.95834Q532.7031 283.31772 531.8594 283.31772Q531.03125 283.31772 530.6406 283.95834Q530.2656 284.58334 530.2656 285.88022L530.2656 287.6146Q530.2656 288.9896 530.65625 289.66147Q531.0625 290.31772 531.875 290.31772Q532.6719 290.31772 533.0625 289.69272Q533.4531 289.06772 533.46875 287.7396L533.46875 285.95834Z" fill-rule="nonzero"/><path fill="#423e45" d="M534.5625 287.44272Q534.5625 289.34897 533.90625 290.28647Q533.2656 291.20834 531.875 291.20834Q530.5156 291.20834 529.8594 290.3021Q529.2031 289.39584 529.1719 287.58334L529.1719 286.14584Q529.1719 284.25522 529.8125 283.34897Q530.46875 282.4271 531.8594 282.4271Q533.2344 282.4271 533.8906 283.31772Q534.5469 284.19272 534.5625 286.03647L534.5625 287.44272ZM533.46875 285.95834Q533.46875 284.58334 533.0781 283.95834Q532.7031 283.31772 531.8594 283.31772Q531.03125 283.31772 530.6406 283.95834Q530.2656 284.58334 530.2656 285.88022L530.2656 287.6146Q530.2656 288.9896 530.65625 289.66147Q531.0625 290.31772 531.875 290.31772Q532.6719 290.31772 533.0625 289.69272Q533.4531 289.06772 533.46875 287.7396L533.46875 285.95834Z" fill-rule="nonzero"/><path fill="#000000" d="M33.05 305.84897Q33.05 304.31772 33.3625 303.39584Q33.675 302.45834 34.284374 301.95834Q34.909374 301.45834 35.846874 301.45834Q36.534374 301.45834 37.05 301.7396Q37.58125 302.02084 37.925 302.5521Q38.26875 303.06772 38.45625 303.81772Q38.64375 304.56772 38.64375 305.84897Q38.64375 307.3646 38.33125 308.28647Q38.034374 309.20834 37.409374 309.72397Q36.8 310.22397 35.846874 310.22397Q34.6125 310.22397 33.89375 309.33334Q33.05 308.27084 33.05 305.84897ZM34.128124 305.84897Q34.128124 307.95834 34.628124 308.66147Q35.128124 309.3646 35.846874 309.3646Q36.58125 309.3646 37.065624 308.66147Q37.565624 307.95834 37.565624 305.84897Q37.565624 303.72397 37.065624 303.03647Q36.58125 302.33334 35.83125 302.33334Q35.1125 302.33334 34.675 302.94272Q34.128124 303.72397 34.128124 305.84897Z" fill-rule="nonzero"/><path fill="#000000" d="M30.01875 249.04167L28.971874 249.04167L28.971874 242.32292Q28.58125 242.6823 27.95625 243.0573Q27.346874 243.41667 26.8625 243.58855L26.8625 242.57292Q27.7375 242.15105 28.39375 241.57292Q29.065624 240.97917 29.346874 240.41667L30.01875 240.41667L30.01875 249.04167ZM33.05 244.8073Q33.05 243.27605 33.3625 242.35417Q33.675 241.41667 34.284374 240.91667Q34.909374 240.41667 35.846874 240.41667Q36.534374 240.41667 37.05 240.69792Q37.58125 240.97917 37.925 241.51042Q38.26875 242.02605 38.45625 242.77605Q38.64375 243.52605 38.64375 244.8073Q38.64375 246.32292 38.33125 247.2448Q38.034374 248.16667 37.409374 248.6823Q36.8 249.1823 35.846874 249.1823Q34.6125 249.1823 33.89375 248.29167Q33.05 247.22917 33.05 244.8073ZM34.128124 244.8073Q34.128124 246.91667 34.628124 247.6198Q35.128124 248.32292 35.846874 248.32292Q36.58125 248.32292 37.065624 247.6198Q37.565624 246.91667 37.565624 244.8073Q37.565624 242.6823 37.065624 241.9948Q36.58125 241.29167 35.83125 241.29167Q35.1125 241.29167 34.675 241.90105Q34.128124 242.6823 34.128124 244.8073Z" fill-rule="nonzero"/><path fill="#000000" d="M31.596874 186.98438L31.596874 188.0L25.909374 188.0Q25.909374 187.625 26.034374 187.26562Q26.253124 186.6875 26.721874 186.125Q27.20625 185.5625 28.1125 184.82812Q29.51875 183.67188 30.003124 183.0Q30.503124 182.32812 30.503124 181.73438Q30.503124 181.10938 30.05 180.6875Q29.596874 180.25 28.878124 180.25Q28.1125 180.25 27.659374 180.70312Q27.20625 181.15625 27.190624 181.96875L26.1125 181.85938Q26.221874 180.64062 26.940624 180.01562Q27.675 179.375 28.909374 179.375Q30.14375 179.375 30.8625 180.0625Q31.58125 180.75 31.58125 181.76562Q31.58125 182.28125 31.3625 182.78125Q31.159374 183.26562 30.659374 183.82812Q30.175 184.375 29.05 185.32812Q28.096874 186.125 27.815624 186.42188Q27.55 186.70312 27.378124 186.98438L31.596874 186.98438ZM33.05 183.76562Q33.05 182.23438 33.3625 181.3125Q33.675 180.375 34.284374 179.875Q34.909374 179.375 35.846874 179.375Q36.534374 179.375 37.05 179.65625Q37.58125 179.9375 37.925 180.46875Q38.26875 180.98438 38.45625 181.73438Q38.64375 182.48438 38.64375 183.76562Q38.64375 185.28125 38.33125 186.20312Q38.034374 187.125 37.409374 187.64062Q36.8 188.14062 35.846874 188.14062Q34.6125 188.14062 33.89375 187.25Q33.05 186.1875 33.05 183.76562ZM34.128124 183.76562Q34.128124 185.875 34.628124 186.57812Q35.128124 187.28125 35.846874 187.28125Q36.58125 187.28125 37.065624 186.57812Q37.565624 185.875 37.565624 183.76562Q37.565624 181.64062 37.065624 180.95312Q36.58125 180.25 35.83125 180.25Q35.1125 180.25 34.675 180.85938Q34.128124 181.64062 34.128124 183.76562Z" fill-rule="nonzero"/><path fill="#000000" d="M26.05 124.69271L27.1125 124.552086Q27.284374 125.44271 27.721874 125.84896Q28.159374 126.239586 28.784374 126.239586Q29.534374 126.239586 30.05 125.72396Q30.565624 125.208336 30.565624 124.44271Q30.565624 123.72396 30.08125 123.25521Q29.6125 122.770836 28.878124 122.770836Q28.58125 122.770836 28.128124 122.895836L28.253124 121.958336Q28.3625 121.97396 28.425 121.97396Q29.096874 121.97396 29.628124 121.63021Q30.175 121.270836 30.175 120.53646Q30.175 119.958336 29.784374 119.583336Q29.39375 119.19271 28.76875 119.19271Q28.159374 119.19271 27.7375 119.583336Q27.33125 119.97396 27.221874 120.739586L26.159374 120.552086Q26.346874 119.50521 27.034374 118.927086Q27.721874 118.333336 28.7375 118.333336Q29.440624 118.333336 30.034374 118.645836Q30.628124 118.94271 30.940624 119.458336Q31.253124 119.97396 31.253124 120.56771Q31.253124 121.114586 30.95625 121.583336Q30.659374 122.03646 30.08125 122.302086Q30.83125 122.47396 31.253124 123.03646Q31.675 123.583336 31.675 124.427086Q31.675 125.552086 30.846874 126.333336Q30.034374 127.114586 28.784374 127.114586Q27.659374 127.114586 26.909374 126.44271Q26.159374 125.75521 26.05 124.69271ZM33.05 122.72396Q33.05 121.19271 33.3625 120.270836Q33.675 119.333336 34.284374 118.833336Q34.909374 118.333336 35.846874 118.333336Q36.534374 118.333336 37.05 118.614586Q37.58125 118.895836 37.925 119.427086Q38.26875 119.94271 38.45625 120.69271Q38.64375 121.44271 38.64375 122.72396Q38.64375 124.239586 38.33125 125.16146Q38.034374 126.083336 37.409374 126.59896Q36.8 127.09896 35.846874 127.09896Q34.6125 127.09896 33.89375 126.208336Q33.05 125.145836 33.05 122.72396ZM34.128124 122.72396Q34.128124 124.833336 34.628124 125.53646Q35.128124 126.239586 35.846874 126.239586Q36.58125 126.239586 37.065624 125.53646Q37.565624 124.833336 37.565624 122.72396Q37.565624 120.59896 37.065624 119.91146Q36.58125 119.208336 35.83125 119.208336Q35.1125 119.208336 34.675 119.81771Q34.128124 120.59896 34.128124 122.72396Z" fill-rule="nonzero"/><path fill="#000000" d="M29.425 65.916664L29.425 63.854164L25.70625 63.854164L25.70625 62.885414L29.628124 57.322914L30.4875 57.322914L30.4875 62.885414L31.64375 62.885414L31.64375 63.854164L30.4875 63.854164L30.4875 65.916664L29.425 65.916664ZM29.425 62.885414L29.425 59.02604L26.7375 62.885414L29.425 62.885414ZM33.05 61.68229Q33.05 60.15104 33.3625 59.229164Q33.675 58.291664 34.284374 57.791664Q34.909374 57.291664 35.846874 57.291664Q36.534374 57.291664 37.05 57.572914Q37.58125 57.854164 37.925 58.385414Q38.26875 58.90104 38.45625 59.65104Q38.64375 60.40104 38.64375 61.68229Q38.64375 63.197914 38.33125 64.11979Q38.034374 65.041664 37.409374 65.55729Q36.8 66.05729 35.846874 66.05729Q34.6125 66.05729 33.89375 65.166664Q33.05 64.104164 33.05 61.68229ZM34.128124 61.68229Q34.128124 63.791664 34.628124 64.49479Q35.128124 65.197914 35.846874 65.197914Q36.58125 65.197914 37.065624 64.49479Q37.565624 63.791664 37.565624 61.68229Q37.565624 59.55729 37.065624 58.86979Q36.58125 58.166664 35.83125 58.166664Q35.1125 58.166664 34.675 58.77604Q34.128124 59.55729 34.128124 61.68229Z" fill-rule="nonzero"/><path fill="#000000" d="M86.81218 322.06772L86.81218 323.08334L81.12468 323.08334Q81.12468 322.70834 81.24968 322.34897Q81.46843 321.77084 81.93718 321.20834Q82.421555 320.64584 83.327805 319.91147Q84.734055 318.75522 85.21843 318.08334Q85.71843 317.41147 85.71843 316.81772Q85.71843 316.19272 85.265305 315.77084Q84.81218 315.33334 84.09343 315.33334Q83.327805 315.33334 82.87468 315.78647Q82.421555 316.2396 82.40593 317.0521L81.327805 316.94272Q81.43718 315.72397 82.15593 315.09897Q82.890305 314.45834 84.12468 314.45834Q85.359055 314.45834 86.077805 315.14584Q86.796555 315.83334 86.796555 316.84897Q86.796555 317.3646 86.577805 317.8646Q86.37468 318.34897 85.87468 318.91147Q85.390305 319.45834 84.265305 320.41147Q83.31218 321.20834 83.03093 321.50522Q82.765305 321.78647 82.59343 322.06772L86.81218 322.06772ZM88.265305 318.84897Q88.265305 317.31772 88.577805 316.39584Q88.890305 315.45834 89.49968 314.95834Q90.12468 314.45834 91.06218 314.45834Q91.74968 314.45834 92.265305 314.7396Q92.796555 315.02084 93.140305 315.5521Q93.484055 316.06772 93.671555 316.81772Q93.859055 317.56772 93.859055 318.84897Q93.859055 320.3646 93.546555 321.28647Q93.24968 322.20834 92.62468 322.72397Q92.015305 323.22397 91.06218 323.22397Q89.827805 323.22397 89.109055 322.33334Q88.265305 321.27084 88.265305 318.84897ZM89.34343 318.84897Q89.34343 320.95834 89.84343 321.66147Q90.34343 322.3646 91.06218 322.3646Q91.796555 322.3646 92.28093 321.66147Q92.78093 320.95834 92.78093 318.84897Q92.78093 316.72397 92.28093 316.03647Q91.796555 315.33334 91.046555 315.33334Q90.327805 315.33334 89.890305 315.94272Q89.34343 316.72397 89.34343 318.84897ZM99.234055 323.08334L98.18718 323.08334L98.18718 316.3646Q97.796555 316.72397 97.171555 317.09897Q96.56218 317.45834 96.077805 317.63022L96.077805 316.6146Q96.952805 316.19272 97.609055 315.6146Q98.28093 315.02084 98.56218 314.45834L99.234055 314.45834L99.234055 323.08334ZM107.734055 316.59897L106.68718 316.6771Q106.546555 316.0521 106.296555 315.77084Q105.859055 315.31772 105.234055 315.31772Q104.734055 315.31772 104.34343 315.59897Q103.859055 315.97397 103.56218 316.6771Q103.28093 317.3646 103.265305 318.64584Q103.640305 318.06772 104.18718 317.78647Q104.74968 317.50522 105.359055 317.50522Q106.40593 317.50522 107.140305 318.28647Q107.890305 319.06772 107.890305 320.28647Q107.890305 321.09897 107.53093 321.8021Q107.18718 322.4896 106.577805 322.8646Q105.96843 323.22397 105.202805 323.22397Q103.87468 323.22397 103.046555 322.25522Q102.21843 321.28647 102.21843 319.06772Q102.21843 316.56772 103.140305 315.44272Q103.93718 314.45834 105.296555 314.45834Q106.31218 314.45834 106.952805 315.03647Q107.609055 315.59897 107.734055 316.59897ZM103.43718 320.3021Q103.43718 320.84897 103.65593 321.34897Q103.890305 321.83334 104.296555 322.09897Q104.71843 322.3646 105.18718 322.3646Q105.84343 322.3646 106.327805 321.83334Q106.81218 321.28647 106.81218 320.3646Q106.81218 319.47397 106.327805 318.95834Q105.859055 318.44272 105.140305 318.44272Q104.421555 318.44272 103.921555 318.95834Q103.43718 319.47397 103.43718 320.3021Z" fill-rule="nonzero"/><path fill="#000000" d="M159.72374 322.06772L159.72374 323.08334L154.03624 323.08334Q154.03624 322.70834 154.16124 322.34897Q154.37999 321.77084 154.84874 321.20834Q155.33311 320.64584 156.23936 319.91147Q157.64561 318.75522 158.12999 318.08334Q158.62999 317.41147 158.62999 316.81772Q158.62999 316.19272 158.17686 315.77084Q157.72374 315.33334 157.00499 315.33334Q156.23936 315.33334 155.78624 315.78647Q155.33311 316.2396 155.31749 317.0521L154.23936 316.94272Q154.34874 315.72397 155.06749 315.09897Q155.80186 314.45834 157.03624 314.45834Q158.27061 314.45834 158.98936 315.14584Q159.70811 315.83334 159.70811 316.84897Q159.70811 317.3646 159.48936 317.8646Q159.28624 318.34897 158.78624 318.91147Q158.30186 319.45834 157.17686 320.41147Q156.22374 321.20834 155.94249 321.50522Q155.67686 321.78647 155.50499 322.06772L159.72374 322.06772ZM161.17686 318.84897Q161.17686 317.31772 161.48936 316.39584Q161.80186 315.45834 162.41124 314.95834Q163.03624 314.45834 163.97374 314.45834Q164.66124 314.45834 165.17686 314.7396Q165.70811 315.02084 166.05186 315.5521Q166.39561 316.06772 166.58311 316.81772Q166.77061 317.56772 166.77061 318.84897Q166.77061 320.3646 166.45811 321.28647Q166.16124 322.20834 165.53624 322.72397Q164.92686 323.22397 163.97374 323.22397Q162.73936 323.22397 162.02061 322.33334Q161.17686 321.27084 161.17686 318.84897ZM162.25499 318.84897Q162.25499 320.95834 162.75499 321.66147Q163.25499 322.3646 163.97374 322.3646Q164.70811 322.3646 165.19249 321.66147Q165.69249 320.95834 165.69249 318.84897Q165.69249 316.72397 165.19249 316.03647Q164.70811 315.33334 163.95811 315.33334Q163.23936 315.33334 162.80186 315.94272Q162.25499 316.72397 162.25499 318.84897ZM172.14561 323.08334L171.09874 323.08334L171.09874 316.3646Q170.70811 316.72397 170.08311 317.09897Q169.47374 317.45834 168.98936 317.63022L168.98936 316.6146Q169.86436 316.19272 170.52061 315.6146Q171.19249 315.02084 171.47374 314.45834L172.14561 314.45834L172.14561 323.08334ZM175.23936 315.6146L175.23936 314.59897L180.80186 314.59897L180.80186 315.4271Q179.98936 316.3021 179.17686 317.75522Q178.37999 319.19272 177.94249 320.72397Q177.61436 321.8021 177.53624 323.08334L176.44249 323.08334Q176.45811 322.06772 176.83311 320.63022Q177.22374 319.19272 177.92686 317.8646Q178.64561 316.53647 179.45811 315.6146L175.23936 315.6146Z" fill-rule="nonzero"/><path fill="#000000" d="M232.63531 322.06772L232.63531 323.08334L226.94781 323.08334Q226.94781 322.70834 227.07281 322.34897Q227.29156 321.77084 227.76031 321.20834Q228.24469 320.64584 229.15094 319.91147Q230.55719 318.75522 231.04156 318.08334Q231.54156 317.41147 231.54156 316.81772Q231.54156 316.19272 231.08844 315.77084Q230.63531 315.33334 229.91656 315.33334Q229.15094 315.33334 228.69781 315.78647Q228.24469 316.2396 228.22906 317.0521L227.15094 316.94272Q227.26031 315.72397 227.97906 315.09897Q228.71344 314.45834 229.94781 314.45834Q231.18219 314.45834 231.90094 315.14584Q232.61969 315.83334 232.61969 316.84897Q232.61969 317.3646 232.40094 317.8646Q232.19781 318.34897 231.69781 318.91147Q231.21344 319.45834 230.08844 320.41147Q229.13531 321.20834 228.85406 321.50522Q228.58844 321.78647 228.41656 322.06772L232.63531 322.06772ZM234.08844 318.84897Q234.08844 317.31772 234.40094 316.39584Q234.71344 315.45834 235.32281 314.95834Q235.94781 314.45834 236.88531 314.45834Q237.57281 314.45834 238.08844 314.7396Q238.61969 315.02084 238.96344 315.5521Q239.30719 316.06772 239.49469 316.81772Q239.68219 317.56772 239.68219 318.84897Q239.68219 320.3646 239.36969 321.28647Q239.07281 322.20834 238.44781 322.72397Q237.83844 323.22397 236.88531 323.22397Q235.65094 323.22397 234.93219 322.33334Q234.08844 321.27084 234.08844 318.84897ZM235.16656 318.84897Q235.16656 320.95834 235.66656 321.66147Q236.16656 322.3646 236.88531 322.3646Q237.61969 322.3646 238.10406 321.66147Q238.60406 320.95834 238.60406 318.84897Q238.60406 316.72397 238.10406 316.03647Q237.61969 315.33334 236.86969 315.33334Q236.15094 315.33334 235.71344 315.94272Q235.16656 316.72397 235.16656 318.84897ZM245.05719 323.08334L244.01031 323.08334L244.01031 316.3646Q243.61969 316.72397 242.99469 317.09897Q242.38531 317.45834 241.90094 317.63022L241.90094 316.6146Q242.77594 316.19272 243.43219 315.6146Q244.10406 315.02084 244.38531 314.45834L245.05719 314.45834L245.05719 323.08334ZM249.71344 318.4271Q249.05719 318.1771 248.72906 317.7396Q248.41656 317.28647 248.41656 316.6771Q248.41656 315.7396 249.08844 315.09897Q249.77594 314.45834 250.88531 314.45834Q252.01031 314.45834 252.69781 315.1146Q253.38531 315.77084 253.38531 316.70834Q253.38531 317.3021 253.07281 317.7396Q252.76031 318.1771 252.11969 318.4271Q252.91656 318.6771 253.32281 319.25522Q253.72906 319.83334 253.72906 320.63022Q253.72906 321.72397 252.94781 322.47397Q252.18219 323.22397 250.90094 323.22397Q249.63531 323.22397 248.85406 322.47397Q248.07281 321.72397 248.07281 320.59897Q248.07281 319.75522 248.49469 319.19272Q248.93219 318.63022 249.71344 318.4271ZM249.49469 316.63022Q249.49469 317.2396 249.88531 317.63022Q250.29156 318.02084 250.91656 318.02084Q251.52594 318.02084 251.91656 317.64584Q252.30719 317.25522 252.30719 316.69272Q252.30719 316.1146 251.90094 315.72397Q251.49469 315.31772 250.90094 315.31772Q250.29156 315.31772 249.88531 315.70834Q249.49469 316.09897 249.49469 316.63022ZM249.16656 320.59897Q249.16656 321.0521 249.36969 321.47397Q249.58844 321.89584 250.01031 322.13022Q250.43219 322.3646 250.91656 322.3646Q251.66656 322.3646 252.15094 321.88022Q252.65094 321.39584 252.65094 320.64584Q252.65094 319.88022 252.15094 319.38022Q251.65094 318.88022 250.88531 318.88022Q250.13531 318.88022 249.65094 319.38022Q249.16656 319.8646 249.16656 320.59897Z" fill-rule="nonzero"/><path fill="#000000" d="M305.54688 322.06772L305.54688 323.08334L299.85938 323.08334Q299.85938 322.70834 299.98438 322.34897Q300.20312 321.77084 300.67188 321.20834Q301.15625 320.64584 302.0625 319.91147Q303.46875 318.75522 303.95312 318.08334Q304.45312 317.41147 304.45312 316.81772Q304.45312 316.19272 304.0 315.77084Q303.54688 315.33334 302.82812 315.33334Q302.0625 315.33334 301.60938 315.78647Q301.15625 316.2396 301.14062 317.0521L300.0625 316.94272Q300.17188 315.72397 300.89062 315.09897Q301.625 314.45834 302.85938 314.45834Q304.09375 314.45834 304.8125 315.14584Q305.53125 315.83334 305.53125 316.84897Q305.53125 317.3646 305.3125 317.8646Q305.10938 318.34897 304.60938 318.91147Q304.125 319.45834 303.0 320.41147Q302.04688 321.20834 301.76562 321.50522Q301.5 321.78647 301.32812 322.06772L305.54688 322.06772ZM307.0 318.84897Q307.0 317.31772 307.3125 316.39584Q307.625 315.45834 308.23438 314.95834Q308.85938 314.45834 309.79688 314.45834Q310.48438 314.45834 311.0 314.7396Q311.53125 315.02084 311.875 315.5521Q312.21875 316.06772 312.40625 316.81772Q312.59375 317.56772 312.59375 318.84897Q312.59375 320.3646 312.28125 321.28647Q311.98438 322.20834 311.35938 322.72397Q310.75 323.22397 309.79688 323.22397Q308.5625 323.22397 307.84375 322.33334Q307.0 321.27084 307.0 318.84897ZM308.07812 318.84897Q308.07812 320.95834 308.57812 321.66147Q309.07812 322.3646 309.79688 322.3646Q310.53125 322.3646 311.01562 321.66147Q311.51562 320.95834 311.51562 318.84897Q311.51562 316.72397 311.01562 316.03647Q310.53125 315.33334 309.78125 315.33334Q309.0625 315.33334 308.625 315.94272Q308.07812 316.72397 308.07812 318.84897ZM317.96875 323.08334L316.92188 323.08334L316.92188 316.3646Q316.53125 316.72397 315.90625 317.09897Q315.29688 317.45834 314.8125 317.63022L314.8125 316.6146Q315.6875 316.19272 316.34375 315.6146Q317.01562 315.02084 317.29688 314.45834L317.96875 314.45834L317.96875 323.08334ZM321.15625 321.09897L322.17188 321.00522Q322.29688 321.72397 322.65625 322.0521Q323.03125 322.3646 323.59375 322.3646Q324.07812 322.3646 324.4375 322.14584Q324.8125 321.91147 325.04688 321.5521Q325.28125 321.1771 325.4375 320.5521Q325.59375 319.91147 325.59375 319.25522Q325.59375 319.1771 325.59375 319.03647Q325.28125 319.53647 324.73438 319.8646Q324.1875 320.1771 323.54688 320.1771Q322.46875 320.1771 321.73438 319.41147Q321.0 318.63022 321.0 317.3646Q321.0 316.0521 321.76562 315.25522Q322.54688 314.45834 323.70312 314.45834Q324.53125 314.45834 325.21875 314.91147Q325.92188 315.3646 326.28125 316.20834Q326.64062 317.03647 326.64062 318.6146Q326.64062 320.25522 326.28125 321.2396Q325.9375 322.20834 325.21875 322.72397Q324.51562 323.22397 323.57812 323.22397Q322.5625 323.22397 321.92188 322.6771Q321.28125 322.1146 321.15625 321.09897ZM325.46875 317.3021Q325.46875 316.39584 324.98438 315.8646Q324.51562 315.33334 323.82812 315.33334Q323.125 315.33334 322.59375 315.91147Q322.07812 316.47397 322.07812 317.39584Q322.07812 318.20834 322.57812 318.72397Q323.07812 319.2396 323.79688 319.2396Q324.53125 319.2396 325.0 318.72397Q325.46875 318.20834 325.46875 317.3021Z" fill-rule="nonzero"/><path fill="#000000" d="M378.45844 322.06772L378.45844 323.08334L372.77094 323.08334Q372.77094 322.70834 372.89594 322.34897Q373.1147 321.77084 373.58344 321.20834Q374.0678 320.64584 374.97406 319.91147Q376.3803 318.75522 376.8647 318.08334Q377.3647 317.41147 377.3647 316.81772Q377.3647 316.19272 376.91156 315.77084Q376.45844 315.33334 375.7397 315.33334Q374.97406 315.33334 374.52094 315.78647Q374.0678 316.2396 374.0522 317.0521L372.97406 316.94272Q373.08344 315.72397 373.8022 315.09897Q374.53656 314.45834 375.77094 314.45834Q377.0053 314.45834 377.72406 315.14584Q378.4428 315.83334 378.4428 316.84897Q378.4428 317.3646 378.22406 317.8646Q378.02094 318.34897 377.52094 318.91147Q377.03656 319.45834 375.91156 320.41147Q374.95844 321.20834 374.6772 321.50522Q374.41156 321.78647 374.2397 322.06772L378.45844 322.06772ZM379.91156 318.84897Q379.91156 317.31772 380.22406 316.39584Q380.53656 315.45834 381.14594 314.95834Q381.77094 314.45834 382.70844 314.45834Q383.39594 314.45834 383.91156 314.7396Q384.4428 315.02084 384.78656 315.5521Q385.1303 316.06772 385.3178 316.81772Q385.5053 317.56772 385.5053 318.84897Q385.5053 320.3646 385.1928 321.28647Q384.89594 322.20834 384.27094 322.72397Q383.66156 323.22397 382.70844 323.22397Q381.47406 323.22397 380.7553 322.33334Q379.91156 321.27084 379.91156 318.84897ZM380.9897 318.84897Q380.9897 320.95834 381.4897 321.66147Q381.9897 322.3646 382.70844 322.3646Q383.4428 322.3646 383.9272 321.66147Q384.4272 320.95834 384.4272 318.84897Q384.4272 316.72397 383.9272 316.03647Q383.4428 315.33334 382.6928 315.33334Q381.97406 315.33334 381.53656 315.94272Q380.9897 316.72397 380.9897 318.84897ZM392.45844 322.06772L392.45844 323.08334L386.77094 323.08334Q386.77094 322.70834 386.89594 322.34897Q387.1147 321.77084 387.58344 321.20834Q388.0678 320.64584 388.97406 319.91147Q390.3803 318.75522 390.8647 318.08334Q391.3647 317.41147 391.3647 316.81772Q391.3647 316.19272 390.91156 315.77084Q390.45844 315.33334 389.7397 315.33334Q388.97406 315.33334 388.52094 315.78647Q388.0678 316.2396 388.0522 317.0521L386.97406 316.94272Q387.08344 315.72397 387.8022 315.09897Q388.53656 314.45834 389.77094 314.45834Q391.0053 314.45834 391.72406 315.14584Q392.4428 315.83334 392.4428 316.84897Q392.4428 317.3646 392.22406 317.8646Q392.02094 318.34897 391.52094 318.91147Q391.03656 319.45834 389.91156 320.41147Q388.95844 321.20834 388.6772 321.50522Q388.41156 321.78647 388.2397 322.06772L392.45844 322.06772ZM393.91156 318.84897Q393.91156 317.31772 394.22406 316.39584Q394.53656 315.45834 395.14594 314.95834Q395.77094 314.45834 396.70844 314.45834Q397.39594 314.45834 397.91156 314.7396Q398.4428 315.02084 398.78656 315.5521Q399.1303 316.06772 399.3178 316.81772Q399.5053 317.56772 399.5053 318.84897Q399.5053 320.3646 399.1928 321.28647Q398.89594 322.20834 398.27094 322.72397Q397.66156 323.22397 396.70844 323.22397Q395.47406 323.22397 394.7553 322.33334Q393.91156 321.27084 393.91156 318.84897ZM394.9897 318.84897Q394.9897 320.95834 395.4897 321.66147Q395.9897 322.3646 396.70844 322.3646Q397.4428 322.3646 397.9272 321.66147Q398.4272 320.95834 398.4272 318.84897Q398.4272 316.72397 397.9272 316.03647Q397.4428 315.33334 396.6928 315.33334Q395.97406 315.33334 395.53656 315.94272Q394.9897 316.72397 394.9897 318.84897Z" fill-rule="nonzero"/><path fill="#000000" d="M451.37 322.06772L451.37 323.08334L445.6825 323.08334Q445.6825 322.70834 445.8075 322.34897Q446.02625 321.77084 446.495 321.20834Q446.97937 320.64584 447.88562 319.91147Q449.29187 318.75522 449.77625 318.08334Q450.27625 317.41147 450.27625 316.81772Q450.27625 316.19272 449.82312 315.77084Q449.37 315.33334 448.65125 315.33334Q447.88562 315.33334 447.4325 315.78647Q446.97937 316.2396 446.96375 317.0521L445.88562 316.94272Q445.995 315.72397 446.71375 315.09897Q447.44812 314.45834 448.6825 314.45834Q449.91687 314.45834 450.63562 315.14584Q451.35437 315.83334 451.35437 316.84897Q451.35437 317.3646 451.13562 317.8646Q450.9325 318.34897 450.4325 318.91147Q449.94812 319.45834 448.82312 320.41147Q447.87 321.20834 447.58875 321.50522Q447.32312 321.78647 447.15125 322.06772L451.37 322.06772ZM452.82312 318.84897Q452.82312 317.31772 453.13562 316.39584Q453.44812 315.45834 454.0575 314.95834Q454.6825 314.45834 455.62 314.45834Q456.3075 314.45834 456.82312 314.7396Q457.35437 315.02084 457.69812 315.5521Q458.04187 316.06772 458.22937 316.81772Q458.41687 317.56772 458.41687 318.84897Q458.41687 320.3646 458.10437 321.28647Q457.8075 322.20834 457.1825 322.72397Q456.57312 323.22397 455.62 323.22397Q454.38562 323.22397 453.66687 322.33334Q452.82312 321.27084 452.82312 318.84897ZM453.90125 318.84897Q453.90125 320.95834 454.40125 321.66147Q454.90125 322.3646 455.62 322.3646Q456.35437 322.3646 456.83875 321.66147Q457.33875 320.95834 457.33875 318.84897Q457.33875 316.72397 456.83875 316.03647Q456.35437 315.33334 455.60437 315.33334Q454.88562 315.33334 454.44812 315.94272Q453.90125 316.72397 453.90125 318.84897ZM465.37 322.06772L465.37 323.08334L459.6825 323.08334Q459.6825 322.70834 459.8075 322.34897Q460.02625 321.77084 460.495 321.20834Q460.97937 320.64584 461.88562 319.91147Q463.29187 318.75522 463.77625 318.08334Q464.27625 317.41147 464.27625 316.81772Q464.27625 316.19272 463.82312 315.77084Q463.37 315.33334 462.65125 315.33334Q461.88562 315.33334 461.4325 315.78647Q460.97937 316.2396 460.96375 317.0521L459.88562 316.94272Q459.995 315.72397 460.71375 315.09897Q461.44812 314.45834 462.6825 314.45834Q463.91687 314.45834 464.63562 315.14584Q465.35437 315.83334 465.35437 316.84897Q465.35437 317.3646 465.13562 317.8646Q464.9325 318.34897 464.4325 318.91147Q463.94812 319.45834 462.82312 320.41147Q461.87 321.20834 461.58875 321.50522Q461.32312 321.78647 461.15125 322.06772L465.37 322.06772ZM470.79187 323.08334L469.745 323.08334L469.745 316.3646Q469.35437 316.72397 468.72937 317.09897Q468.12 317.45834 467.63562 317.63022L467.63562 316.6146Q468.51062 316.19272 469.16687 315.6146Q469.83875 315.02084 470.12 314.45834L470.79187 314.45834L470.79187 323.08334Z" fill-rule="nonzero"/><path fill="#000000" d="M524.28156 322.06772L524.28156 323.08334L518.59406 323.08334Q518.59406 322.70834 518.71906 322.34897Q518.9378 321.77084 519.40656 321.20834Q519.8909 320.64584 520.7972 319.91147Q522.2034 318.75522 522.6878 318.08334Q523.1878 317.41147 523.1878 316.81772Q523.1878 316.19272 522.7347 315.77084Q522.28156 315.33334 521.5628 315.33334Q520.7972 315.33334 520.34406 315.78647Q519.8909 316.2396 519.8753 317.0521L518.7972 316.94272Q518.90656 315.72397 519.6253 315.09897Q520.3597 314.45834 521.59406 314.45834Q522.8284 314.45834 523.5472 315.14584Q524.2659 315.83334 524.2659 316.84897Q524.2659 317.3646 524.0472 317.8646Q523.84406 318.34897 523.34406 318.91147Q522.8597 319.45834 521.7347 320.41147Q520.78156 321.20834 520.5003 321.50522Q520.2347 321.78647 520.0628 322.06772L524.28156 322.06772ZM525.7347 318.84897Q525.7347 317.31772 526.0472 316.39584Q526.3597 315.45834 526.96906 314.95834Q527.59406 314.45834 528.53156 314.45834Q529.21906 314.45834 529.7347 314.7396Q530.2659 315.02084 530.6097 315.5521Q530.9534 316.06772 531.1409 316.81772Q531.3284 317.56772 531.3284 318.84897Q531.3284 320.3646 531.0159 321.28647Q530.71906 322.20834 530.09406 322.72397Q529.4847 323.22397 528.53156 323.22397Q527.2972 323.22397 526.5784 322.33334Q525.7347 321.27084 525.7347 318.84897ZM526.8128 318.84897Q526.8128 320.95834 527.3128 321.66147Q527.8128 322.3646 528.53156 322.3646Q529.2659 322.3646 529.7503 321.66147Q530.2503 320.95834 530.2503 318.84897Q530.2503 316.72397 529.7503 316.03647Q529.2659 315.33334 528.5159 315.33334Q527.7972 315.33334 527.3597 315.94272Q526.8128 316.72397 526.8128 318.84897ZM538.28156 322.06772L538.28156 323.08334L532.59406 323.08334Q532.59406 322.70834 532.71906 322.34897Q532.9378 321.77084 533.40656 321.20834Q533.8909 320.64584 534.7972 319.91147Q536.2034 318.75522 536.6878 318.08334Q537.1878 317.41147 537.1878 316.81772Q537.1878 316.19272 536.7347 315.77084Q536.28156 315.33334 535.5628 315.33334Q534.7972 315.33334 534.34406 315.78647Q533.8909 316.2396 533.8753 317.0521L532.7972 316.94272Q532.90656 315.72397 533.6253 315.09897Q534.3597 314.45834 535.59406 314.45834Q536.8284 314.45834 537.5472 315.14584Q538.2659 315.83334 538.2659 316.84897Q538.2659 317.3646 538.0472 317.8646Q537.84406 318.34897 537.34406 318.91147Q536.8597 319.45834 535.7347 320.41147Q534.78156 321.20834 534.5003 321.50522Q534.2347 321.78647 534.0628 322.06772L538.28156 322.06772ZM545.28156 322.06772L545.28156 323.08334L539.59406 323.08334Q539.59406 322.70834 539.71906 322.34897Q539.9378 321.77084 540.40656 321.20834Q540.8909 320.64584 541.7972 319.91147Q543.2034 318.75522 543.6878 318.08334Q544.1878 317.41147 544.1878 316.81772Q544.1878 316.19272 543.7347 315.77084Q543.28156 315.33334 542.5628 315.33334Q541.7972 315.33334 541.34406 315.78647Q540.8909 316.2396 540.8753 317.0521L539.7972 316.94272Q539.90656 315.72397 540.6253 315.09897Q541.3597 314.45834 542.59406 314.45834Q543.8284 314.45834 544.5472 315.14584Q545.2659 315.83334 545.2659 316.84897Q545.2659 317.3646 545.0472 317.8646Q544.84406 318.34897 544.34406 318.91147Q543.8597 319.45834 542.7347 320.41147Q541.78156 321.20834 541.5003 321.50522Q541.2347 321.78647 541.0628 322.06772L545.28156 322.06772Z" fill-rule="nonzero"/><path fill="#423e45" d="M243.5 340.45C243.5 339.8977 243.94771 339.45 244.5 339.45L254.5 339.45C255.05229 339.45 255.5 339.8977 255.5 340.45L255.5 350.45C255.5 351.0023 255.05229 351.45 254.5 351.45L244.5 351.45C243.94771 351.45 243.5 351.0023 243.5 350.45Z" fill-rule="nonzero"/><path fill="#1a1a1a" d="M266.875 349.45L263.54688 340.85626L264.78125 340.85626L267.01562 347.10626Q267.28125 347.85626 267.46875 348.5125Q267.67188 347.8094 267.9375 347.10626L270.25 340.85626L271.40625 340.85626L268.04688 349.45L266.875 349.45ZM271.29688 342.075L271.29688 340.85626L272.35938 340.85626L272.35938 342.075L271.29688 342.075ZM271.29688 349.45L271.29688 343.23126L272.35938 343.23126L272.35938 349.45L271.29688 349.45ZM278.32812 349.45L278.32812 348.66876Q277.73438 349.59064 276.59375 349.59064Q275.84375 349.59064 275.21875 349.1844Q274.59375 348.7625 274.25 348.02814Q273.90625 347.29376 273.90625 346.34064Q273.90625 345.41876 274.21875 344.65314Q274.53125 343.8875 275.15625 343.4969Q275.78125 343.09064 276.54688 343.09064Q277.10938 343.09064 277.54688 343.325Q277.98438 343.5594 278.26562 343.9344L278.26562 340.85626L279.3125 340.85626L279.3125 349.45L278.32812 349.45ZM275.0 346.34064Q275.0 347.54376 275.5 348.1375Q276.0 348.71564 276.6875 348.71564Q277.375 348.71564 277.85938 348.15314Q278.34375 347.59064 278.34375 346.4344Q278.34375 345.15314 277.84375 344.5594Q277.35938 343.96564 276.64062 343.96564Q275.9375 343.96564 275.46875 344.54376Q275.0 345.10626 275.0 346.34064ZM285.54688 347.45L286.64062 347.575Q286.39062 348.52814 285.6875 349.0594Q284.98438 349.59064 283.90625 349.59064Q282.54688 349.59064 281.73438 348.7469Q280.9375 347.90314 280.9375 346.3875Q280.9375 344.825 281.75 343.96564Q282.5625 343.09064 283.84375 343.09064Q285.09375 343.09064 285.875 343.9344Q286.67188 344.77814 286.67188 346.325Q286.67188 346.41876 286.67188 346.60626L282.03125 346.60626Q282.09375 347.6375 282.60938 348.1844Q283.125 348.71564 283.90625 348.71564Q284.48438 348.71564 284.89062 348.41876Q285.3125 348.10626 285.54688 347.45ZM282.09375 345.7469L285.5625 345.7469Q285.5 344.95 285.17188 344.5594Q284.65625 343.95 283.85938 343.95Q283.125 343.95 282.625 344.4344Q282.14062 344.91876 282.09375 345.7469ZM287.90625 346.34064Q287.90625 344.60626 288.85938 343.77814Q289.65625 343.09064 290.8125 343.09064Q292.09375 343.09064 292.90625 343.9344Q293.73438 344.7625 293.73438 346.2469Q293.73438 347.45 293.375 348.1375Q293.01562 348.825 292.3125 349.21564Q291.625 349.59064 290.8125 349.59064Q289.51562 349.59064 288.70312 348.7625Q287.90625 347.91876 287.90625 346.34064ZM288.98438 346.34064Q288.98438 347.52814 289.5 348.1219Q290.03125 348.71564 290.8125 348.71564Q291.60938 348.71564 292.125 348.1219Q292.64062 347.52814 292.64062 346.3094Q292.64062 345.15314 292.10938 344.5594Q291.59375 343.96564 290.8125 343.96564Q290.03125 343.96564 289.5 344.5594Q288.98438 345.1375 288.98438 346.34064ZM294.875 347.59064L295.90625 347.4344Q296.0 348.0594 296.39062 348.3875Q296.79688 348.71564 297.53125 348.71564Q298.25 348.71564 298.59375 348.4344Q298.95312 348.1375 298.95312 347.73126Q298.95312 347.3719 298.64062 347.16876Q298.42188 347.02814 297.5625 346.8094Q296.40625 346.5125 295.95312 346.3094Q295.51562 346.09064 295.28125 345.71564Q295.04688 345.34064 295.04688 344.8719Q295.04688 344.46564 295.23438 344.10626Q295.42188 343.7469 295.75 343.5125Q296.0 343.34064 296.42188 343.21564Q296.84375 343.09064 297.34375 343.09064Q298.0625 343.09064 298.60938 343.3094Q299.17188 343.5125 299.4375 343.8719Q299.70312 344.23126 299.79688 344.825L298.76562 344.96564Q298.70312 344.4969 298.35938 344.23126Q298.03125 343.95 297.40625 343.95Q296.6875 343.95 296.375 344.2Q296.0625 344.4344 296.0625 344.7625Q296.0625 344.96564 296.1875 345.1219Q296.32812 345.29376 296.59375 345.40314Q296.75 345.46564 297.53125 345.66876Q298.65625 345.98126 299.09375 346.16876Q299.53125 346.35626 299.78125 346.71564Q300.03125 347.075 300.03125 347.6219Q300.03125 348.15314 299.71875 348.6219Q299.42188 349.075 298.84375 349.34064Q298.26562 349.59064 297.53125 349.59064Q296.3125 349.59064 295.67188 349.09064Q295.04688 348.575 294.875 347.59064ZM309.375 349.45L309.375 348.52814Q308.64062 349.59064 307.39062 349.59064Q306.84375 349.59064 306.35938 349.3875Q305.89062 349.16876 305.65625 348.85626Q305.42188 348.52814 305.32812 348.0594Q305.26562 347.7625 305.26562 347.075L305.26562 343.23126L306.32812 343.23126L306.32812 346.6844Q306.32812 347.4969 306.39062 347.79376Q306.48438 348.2 306.79688 348.45Q307.125 348.6844 307.60938 348.6844Q308.07812 348.6844 308.48438 348.45Q308.90625 348.2 309.07812 347.77814Q309.26562 347.35626 309.26562 346.5594L309.26562 343.23126L310.3125 343.23126L310.3125 349.45L309.375 349.45ZM312.29688 351.84064L312.29688 343.23126L313.25 343.23126L313.25 344.02814Q313.59375 343.5594 314.01562 343.325Q314.45312 343.09064 315.0625 343.09064Q315.85938 343.09064 316.46875 343.4969Q317.07812 343.90314 317.375 344.65314Q317.6875 345.40314 317.6875 346.29376Q317.6875 347.2469 317.34375 348.0125Q317.01562 348.77814 316.35938 349.1844Q315.70312 349.59064 314.98438 349.59064Q314.45312 349.59064 314.03125 349.3719Q313.60938 349.1375 313.34375 348.8094L313.34375 351.84064L312.29688 351.84064ZM313.25 346.3719Q313.25 347.575 313.73438 348.15314Q314.21875 348.71564 314.90625 348.71564Q315.60938 348.71564 316.10938 348.1219Q316.60938 347.52814 316.60938 346.27814Q316.60938 345.09064 316.125 344.5125Q315.64062 343.91876 314.95312 343.91876Q314.28125 343.91876 313.76562 344.54376Q313.25 345.16876 313.25 346.3719ZM319.26562 349.45L319.26562 340.85626L320.32812 340.85626L320.32812 349.45L319.26562 349.45ZM321.90625 346.34064Q321.90625 344.60626 322.85938 343.77814Q323.65625 343.09064 324.8125 343.09064Q326.09375 343.09064 326.90625 343.9344Q327.73438 344.7625 327.73438 346.2469Q327.73438 347.45 327.375 348.1375Q327.01562 348.825 326.3125 349.21564Q325.625 349.59064 324.8125 349.59064Q323.51562 349.59064 322.70312 348.7625Q321.90625 347.91876 321.90625 346.34064ZM322.98438 346.34064Q322.98438 347.52814 323.5 348.1219Q324.03125 348.71564 324.8125 348.71564Q325.60938 348.71564 326.125 348.1219Q326.64062 347.52814 326.64062 346.3094Q326.64062 345.15314 326.10938 344.5594Q325.59375 343.96564 324.8125 343.96564Q324.03125 343.96564 323.5 344.5594Q322.98438 345.1375 322.98438 346.34064ZM333.35938 348.6844Q332.76562 349.1844 332.21875 349.3875Q331.6875 349.59064 331.0625 349.59064Q330.03125 349.59064 329.48438 349.09064Q328.9375 348.59064 328.9375 347.8094Q328.9375 347.35626 329.14062 346.98126Q329.34375 346.59064 329.6875 346.3719Q330.03125 346.1375 330.45312 346.02814Q330.75 345.9344 331.39062 345.85626Q332.65625 345.71564 333.26562 345.4969Q333.26562 345.27814 333.26562 345.23126Q333.26562 344.575 332.96875 344.3094Q332.5625 343.96564 331.76562 343.96564Q331.03125 343.96564 330.67188 344.23126Q330.3125 344.48126 330.14062 345.1375L329.10938 344.9969Q329.25 344.34064 329.57812 343.9344Q329.90625 343.52814 330.51562 343.3094Q331.125 343.09064 331.92188 343.09064Q332.71875 343.09064 333.21875 343.27814Q333.71875 343.46564 333.95312 343.7469Q334.1875 344.02814 334.28125 344.46564Q334.32812 344.73126 334.32812 345.4344L334.32812 346.84064Q334.32812 348.3094 334.39062 348.7Q334.46875 349.09064 334.67188 349.45L333.5625 349.45Q333.40625 349.1219 333.35938 348.6844ZM333.26562 346.325Q332.6875 346.5594 331.54688 346.73126Q330.89062 346.825 330.625 346.95Q330.35938 347.0594 330.20312 347.27814Q330.0625 347.4969 330.0625 347.77814Q330.0625 348.2 330.375 348.48126Q330.70312 348.7625 331.3125 348.7625Q331.92188 348.7625 332.39062 348.4969Q332.875 348.23126 333.09375 347.7625Q333.26562 347.40314 333.26562 346.71564L333.26562 346.325ZM340.32812 349.45L340.32812 348.66876Q339.73438 349.59064 338.59375 349.59064Q337.84375 349.59064 337.21875 349.1844Q336.59375 348.7625 336.25 348.02814Q335.90625 347.29376 335.90625 346.34064Q335.90625 345.41876 336.21875 344.65314Q336.53125 343.8875 337.15625 343.4969Q337.78125 343.09064 338.54688 343.09064Q339.10938 343.09064 339.54688 343.325Q339.98438 343.5594 340.26562 343.9344L340.26562 340.85626L341.3125 340.85626L341.3125 349.45L340.32812 349.45ZM337.0 346.34064Q337.0 347.54376 337.5 348.1375Q338.0 348.71564 338.6875 348.71564Q339.375 348.71564 339.85938 348.15314Q340.34375 347.59064 340.34375 346.4344Q340.34375 345.15314 339.84375 344.5594Q339.35938 343.96564 338.64062 343.96564Q337.9375 343.96564 337.46875 344.54376Q337.0 345.10626 337.0 346.34064ZM347.54688 347.45L348.64062 347.575Q348.39062 348.52814 347.6875 349.0594Q346.98438 349.59064 345.90625 349.59064Q344.54688 349.59064 343.73438 348.7469Q342.9375 347.90314 342.9375 346.3875Q342.9375 344.825 343.75 343.96564Q344.5625 343.09064 345.84375 343.09064Q347.09375 343.09064 347.875 343.9344Q348.67188 344.77814 348.67188 346.325Q348.67188 346.41876 348.67188 346.60626L344.03125 346.60626Q344.09375 347.6375 344.60938 348.1844Q345.125 348.71564 345.90625 348.71564Q346.48438 348.71564 346.89062 348.41876Q347.3125 348.10626 347.54688 347.45ZM344.09375 345.7469L347.5625 345.7469Q347.5 344.95 347.17188 344.5594Q346.65625 343.95 345.85938 343.95Q345.125 343.95 344.625 344.4344Q344.14062 344.91876 344.09375 345.7469ZM354.32812 349.45L354.32812 348.66876Q353.73438 349.59064 352.59375 349.59064Q351.84375 349.59064 351.21875 349.1844Q350.59375 348.7625 350.25 348.02814Q349.90625 347.29376 349.90625 346.34064Q349.90625 345.41876 350.21875 344.65314Q350.53125 343.8875 351.15625 343.4969Q351.78125 343.09064 352.54688 343.09064Q353.10938 343.09064 353.54688 343.325Q353.98438 343.5594 354.26562 343.9344L354.26562 340.85626L355.3125 340.85626L355.3125 349.45L354.32812 349.45ZM351.0 346.34064Q351.0 347.54376 351.5 348.1375Q352.0 348.71564 352.6875 348.71564Q353.375 348.71564 353.85938 348.15314Q354.34375 347.59064 354.34375 346.4344Q354.34375 345.15314 353.84375 344.5594Q353.35938 343.96564 352.64062 343.96564Q351.9375 343.96564 351.46875 344.54376Q351.0 345.10626 351.0 346.34064Z" fill-rule="nonzero"/><path fill="#757575" d="M24.190624 37.55L18.64375 23.2375L20.690624 23.2375L24.409374 33.628124Q24.8625 34.878124 25.159374 35.971874Q25.4875 34.8 25.940624 33.628124L29.8 23.2375L31.7375 23.2375L26.128124 37.55L24.190624 37.55ZM32.878124 25.253124L32.878124 23.2375L34.64375 23.2375L34.64375 25.253124L32.878124 25.253124ZM32.878124 37.55L32.878124 27.175L34.64375 27.175L34.64375 37.55L32.878124 37.55ZM43.596874 37.55L43.596874 36.2375Q42.6125 37.784374 40.690624 37.784374Q39.45625 37.784374 38.409374 37.096874Q37.378124 36.409374 36.8 35.190624Q36.2375 33.971874 36.2375 32.378124Q36.2375 30.815624 36.753124 29.55Q37.26875 28.284374 38.3 27.6125Q39.346874 26.940624 40.6125 26.940624Q41.55 26.940624 42.284374 27.346874Q43.01875 27.7375 43.4875 28.3625L43.4875 23.2375L45.221874 23.2375L45.221874 37.55L43.596874 37.55ZM38.034374 32.378124Q38.034374 34.3625 38.878124 35.346874Q39.721874 36.33125 40.8625 36.33125Q42.01875 36.33125 42.815624 35.39375Q43.628124 34.45625 43.628124 32.51875Q43.628124 30.39375 42.8 29.39375Q41.9875 28.39375 40.784374 28.39375Q39.6125 28.39375 38.815624 29.3625Q38.034374 30.315624 38.034374 32.378124ZM54.971874 34.20625L56.784374 34.440624Q56.3625 36.01875 55.190624 36.909374Q54.034374 37.784374 52.221874 37.784374Q49.95625 37.784374 48.6125 36.39375Q47.284374 34.9875 47.284374 32.45625Q47.284374 29.83125 48.628124 28.39375Q49.971874 26.940624 52.128124 26.940624Q54.20625 26.940624 55.51875 28.3625Q56.846874 29.76875 56.846874 32.346874Q56.846874 32.503124 56.83125 32.815624L49.096874 32.815624Q49.190624 34.51875 50.065624 35.425Q50.940624 36.33125 52.2375 36.33125Q53.20625 36.33125 53.878124 35.83125Q54.565624 35.315624 54.971874 34.20625ZM49.190624 31.3625L54.9875 31.3625Q54.878124 30.065624 54.33125 29.409374Q53.4875 28.39375 52.14375 28.39375Q50.940624 28.39375 50.1125 29.20625Q49.284374 30.003124 49.190624 31.3625ZM58.221874 32.3625Q58.221874 29.4875 59.815624 28.096874Q61.159374 26.940624 63.08125 26.940624Q65.22188 26.940624 66.56563 28.346874Q67.925 29.753124 67.925 32.221874Q67.925 34.221874 67.33125 35.378124Q66.7375 36.51875 65.58125 37.159374Q64.44063 37.784374 63.08125 37.784374Q60.89375 37.784374 59.55 36.39375Q58.221874 34.9875 58.221874 32.3625ZM60.01875 32.3625Q60.01875 34.3625 60.878124 35.346874Q61.753124 36.33125 63.08125 36.33125Q64.39375 36.33125 65.25313 35.346874Q66.12813 34.346874 66.12813 32.3Q66.12813 30.378124 65.25313 29.39375Q64.37813 28.39375 63.08125 28.39375Q61.753124 28.39375 60.878124 29.39375Q60.01875 30.378124 60.01875 32.3625ZM69.15938 34.45625L70.90938 34.175Q71.05 35.221874 71.72188 35.784374Q72.39375 36.33125 73.59688 36.33125Q74.8 36.33125 75.37813 35.846874Q75.97188 35.346874 75.97188 34.690624Q75.97188 34.096874 75.45625 33.753124Q75.09688 33.51875 73.65938 33.159374Q71.72188 32.659374 70.97188 32.315624Q70.2375 31.95625 69.84688 31.33125Q69.45625 30.690624 69.45625 29.925Q69.45625 29.2375 69.76875 28.64375Q70.09688 28.05 70.64375 27.659374Q71.05 27.3625 71.75313 27.159374Q72.47188 26.940624 73.28438 26.940624Q74.50313 26.940624 75.425 27.3Q76.34688 27.64375 76.78438 28.253124Q77.22188 28.846874 77.39375 29.846874L75.675 30.08125Q75.55 29.284374 74.9875 28.846874Q74.425 28.39375 73.40938 28.39375Q72.19063 28.39375 71.675 28.8Q71.15938 29.190624 71.15938 29.721874Q71.15938 30.065624 71.37813 30.346874Q71.58125 30.628124 72.05 30.815624Q72.31563 30.909374 73.59688 31.253124Q75.47188 31.753124 76.20625 32.08125Q76.94063 32.39375 77.3625 33.003124Q77.78438 33.596874 77.78438 34.503124Q77.78438 35.378124 77.26875 36.159374Q76.75313 36.940624 75.78438 37.3625Q74.81563 37.784374 73.59688 37.784374Q71.58125 37.784374 70.51875 36.940624Q69.45625 36.096874 69.15938 34.45625ZM92.65938 37.55L92.65938 36.01875Q91.45625 37.784374 89.37813 37.784374Q88.45625 37.784374 87.65938 37.440624Q86.8625 37.08125 86.47188 36.55Q86.09688 36.01875 85.94063 35.2375Q85.83125 34.721874 85.83125 33.596874L85.83125 27.175L87.58125 27.175L87.58125 32.925Q87.58125 34.3 87.69063 34.784374Q87.8625 35.471874 88.39375 35.878124Q88.94063 36.26875 89.72188 36.26875Q90.51875 36.26875 91.20625 35.8625Q91.90938 35.45625 92.19063 34.76875Q92.4875 34.065624 92.4875 32.7375L92.4875 27.175L94.2375 27.175L94.2375 37.55L92.65938 37.55ZM95.8625 41.51875L95.8625 27.175L97.47188 27.175L97.47188 28.51875Q98.03438 27.7375 98.7375 27.346874Q99.45625 26.940624 100.47188 26.940624Q101.8 26.940624 102.81563 27.628124Q103.83125 28.315624 104.34688 29.565624Q104.87813 30.8 104.87813 32.284374Q104.87813 33.878124 104.3 35.159374Q103.7375 36.425 102.64375 37.1125Q101.55 37.784374 100.34688 37.784374Q99.47188 37.784374 98.76875 37.409374Q98.08125 37.034374 97.62813 36.471874L97.62813 41.51875L95.8625 41.51875ZM97.45625 32.425Q97.45625 34.425 98.26875 35.378124Q99.08125 36.33125 100.2375 36.33125Q101.40938 36.33125 102.2375 35.346874Q103.08125 34.3625 103.08125 32.26875Q103.08125 30.3 102.25313 29.315624Q101.44063 28.315624 100.31563 28.315624Q99.19063 28.315624 98.31563 29.378124Q97.45625 30.425 97.45625 32.425ZM106.83125 37.55L106.83125 23.2375L108.58125 23.2375L108.58125 37.55L106.83125 37.55ZM110.22188 32.3625Q110.22188 29.4875 111.81563 28.096874Q113.15938 26.940624 115.08125 26.940624Q117.22188 26.940624 118.56563 28.346874Q119.925 29.753124 119.925 32.221874Q119.925 34.221874 119.33125 35.378124Q118.7375 36.51875 117.58125 37.159374Q116.44063 37.784374 115.08125 37.784374Q112.89375 37.784374 111.55 36.39375Q110.22188 34.9875 110.22188 32.3625ZM112.01875 32.3625Q112.01875 34.3625 112.87813 35.346874Q113.75313 36.33125 115.08125 36.33125Q116.39375 36.33125 117.25313 35.346874Q118.12813 34.346874 118.12813 32.3Q118.12813 30.378124 117.25313 29.39375Q116.37813 28.39375 115.08125 28.39375Q113.75313 28.39375 112.87813 29.39375Q112.01875 30.378124 112.01875 32.3625ZM128.64375 36.26875Q127.65938 37.096874 126.75313 37.440624Q125.84688 37.784374 124.81563 37.784374Q123.1125 37.784374 122.19063 36.95625Q121.26875 36.1125 121.26875 34.815624Q121.26875 34.05 121.6125 33.425Q121.97188 32.8 122.53438 32.425Q123.09688 32.034374 123.8 31.83125Q124.31563 31.70625 125.3625 31.565624Q127.4875 31.315624 128.4875 30.971874Q128.50313 30.6125 128.50313 30.503124Q128.50313 29.440624 128.00313 28.9875Q127.33125 28.39375 126.00313 28.39375Q124.75313 28.39375 124.15938 28.83125Q123.58125 29.26875 123.3 30.378124L121.58125 30.14375Q121.81563 29.034374 122.34688 28.3625Q122.87813 27.675 123.89375 27.315624Q124.90938 26.940624 126.25313 26.940624Q127.58125 26.940624 128.40938 27.253124Q129.2375 27.565624 129.62813 28.05Q130.01875 28.51875 130.175 29.2375Q130.26875 29.690624 130.26875 30.8625L130.26875 33.20625Q130.26875 35.659374 130.37813 36.315624Q130.4875 36.95625 130.83125 37.55L128.9875 37.55Q128.72188 37.003124 128.64375 36.26875ZM128.4875 32.346874Q127.53438 32.7375 125.6125 33.003124Q124.53438 33.159374 124.08125 33.3625Q123.64375 33.55 123.39375 33.925Q123.14375 34.3 123.14375 34.76875Q123.14375 35.471874 123.675 35.940624Q124.20625 36.409374 125.2375 36.409374Q126.25313 36.409374 127.03438 35.971874Q127.83125 35.51875 128.20625 34.753124Q128.4875 34.14375 128.4875 32.9875L128.4875 32.346874ZM139.59688 37.55L139.59688 36.2375Q138.6125 37.784374 136.69063 37.784374Q135.45625 37.784374 134.40938 37.096874Q133.37813 36.409374 132.8 35.190624Q132.2375 33.971874 132.2375 32.378124Q132.2375 30.815624 132.75313 29.55Q133.26875 28.284374 134.3 27.6125Q135.34688 26.940624 136.6125 26.940624Q137.55 26.940624 138.28438 27.346874Q139.01875 27.7375 139.4875 28.3625L139.4875 23.2375L141.22188 23.2375L141.22188 37.55L139.59688 37.55ZM134.03438 32.378124Q134.03438 34.3625 134.87813 35.346874Q135.72188 36.33125 136.8625 36.33125Q138.01875 36.33125 138.81563 35.39375Q139.62813 34.45625 139.62813 32.51875Q139.62813 30.39375 138.8 29.39375Q137.9875 28.39375 136.78438 28.39375Q135.6125 28.39375 134.81563 29.3625Q134.03438 30.315624 134.03438 32.378124ZM150.97188 34.20625L152.78438 34.440624Q152.3625 36.01875 151.19063 36.909374Q150.03438 37.784374 148.22188 37.784374Q145.95625 37.784374 144.6125 36.39375Q143.28438 34.9875 143.28438 32.45625Q143.28438 29.83125 144.62813 28.39375Q145.97188 26.940624 148.12813 26.940624Q150.20625 26.940624 151.51875 28.3625Q152.84688 29.76875 152.84688 32.346874Q152.84688 32.503124 152.83125 32.815624L145.09688 32.815624Q145.19063 34.51875 146.06563 35.425Q146.94063 36.33125 148.2375 36.33125Q149.20625 36.33125 149.87813 35.83125Q150.56563 35.315624 150.97188 34.20625ZM145.19063 31.3625L150.9875 31.3625Q150.87813 30.065624 150.33125 29.409374Q149.4875 28.39375 148.14375 28.39375Q146.94063 28.39375 146.1125 29.20625Q145.28438 30.003124 145.19063 31.3625ZM161.59688 37.55L161.59688 36.2375Q160.6125 37.784374 158.69063 37.784374Q157.45625 37.784374 156.40938 37.096874Q155.37813 36.409374 154.8 35.190624Q154.2375 33.971874 154.2375 32.378124Q154.2375 30.815624 154.75313 29.55Q155.26875 28.284374 156.3 27.6125Q157.34688 26.940624 158.6125 26.940624Q159.55 26.940624 160.28438 27.346874Q161.01875 27.7375 161.4875 28.3625L161.4875 23.2375L163.22188 23.2375L163.22188 37.55L161.59688 37.55ZM156.03438 32.378124Q156.03438 34.3625 156.87813 35.346874Q157.72188 36.33125 158.8625 36.33125Q160.01875 36.33125 160.81563 35.39375Q161.62813 34.45625 161.62813 32.51875Q161.62813 30.39375 160.8 29.39375Q159.9875 28.39375 158.78438 28.39375Q157.6125 28.39375 156.81563 29.3625Q156.03438 30.315624 156.03438 32.378124Z" fill-rule="nonzero"/></svg>