<svg height="471" viewBox="0 0 1000 471" width="1000" xmlns="http://www.w3.org/2000/svg"><g fill="none" fill-rule="evenodd"><path d="m0 0h1000v471h-1000z" fill="#fff"/><g transform="translate(414.076971 186.046512)"><path d="m169.232352 49.6192632-23.214653-13.315497-4.013171-1.7287508-94.9578106.6585718v48.1992179h122.1650546z" fill="#fff"/><path d="m126.96028 78.987446c1.13192-3.8896893.699732-7.470673-1.193661-10.1255403-1.728751-2.4284832-4.651163-3.8485285-8.170406-4.0131714l-66.5980652-.8643754c-.4321877 0-.8026343-.226384-1.0290183-.5350895-.2263841-.3292859-.2675448-.7614736-.164643-1.1936613.226384-.6585717.8643754-1.1319201 1.5641079-1.1936612l67.1948956-.8643754c7.944022-.3704466 16.608356-6.8121012 19.63367-14.7149619l3.848528-10.002058c.164643-.4321877.226384-.8643754.102902-1.2965631-4.301296-19.5719284-21.774027-34.1839885-42.6630992-34.1839885-19.2632228 0-35.6040337 12.4511216-41.4488577 29.6974686-3.7867875-2.8195102-8.6025932-4.3218769-13.7888455-3.8485285-9.2611648.9261165-16.6700967 8.3350484-17.5756328 17.5756329-.2263841 2.3873225-.0617411 4.7129038.4939288 6.8738423-15.0854086.4321877-27.1660836 12.7598271-27.1660836 27.9687179 0 1.3583041.10290183 2.6960279.26754476 4.0543321.10290183.6585717.65857173 1.1319202 1.29656308 1.1319202h122.92652816c.699732 0 1.358304-.4939288 1.564108-1.1936613z" fill="#f38020"/><path d="m148.178638 36.2008644c-.596831 0-1.234822 0-1.831653.0617411-.432188 0-.802634.3292858-.967277.7614735l-2.593126 9.0347808c-1.131921 3.8896893-.699733 7.470673 1.193661 10.1255403 1.728751 2.4284832 4.651163 3.8485285 8.170405 4.0131714l14.179873.8643754c.432187 0 .802634.226384 1.029018.5350895.226384.3292859.267545.8026343.164643 1.1936613-.226384.6585717-.864375 1.1319201-1.564108 1.1936612l-14.776703.8643754c-8.005762.3704466-16.608356 6.8121013-19.633669 14.7149619l-1.09076 2.7577691c-.226384.5350895.164643 1.0907594.761474 1.0907594h50.710022c.596831 0 1.131921-.3704466 1.296563-.9672772.864376-3.1282157 1.358305-6.4416546 1.358305-9.8374151 0-20.0658572-16.340811-36.406668-36.406668-36.406668" fill="#faae40"/></g><g transform="translate(39.514303 36.633052)"><path d="m0 0h79.0286067v113.603622h-79.0286067z" fill="#fff"/><path d="m0 88.9071825h79.0286067v-88.9071825z" fill="#bbd8ff"/><path d="m0 88.9071825h79.0286067zm0-88.9071825h79.0286067v113.603622h-79.0286067zm34.5750154 103.725046h9.8785759z" stroke="#092f63" stroke-linecap="round" stroke-linejoin="round" stroke-width="4.939288"/></g><g transform="translate(24.69644 339.987652)"><path d="m98.7857584 64.210743v-64.210743h-88.90718256v64.210743h-9.87857584l12.3482198 14.8178637h86.4375386l9.8785756-14.8178637z" fill="#fff"/><path d="m44.3004733 64.210743 10.0316938 4.9392879 10.1848117-4.9392879h34.2687796v-64.210743l-88.90718256 64.210743z" fill="#bbd8ff"/><path d="m98.7857584 64.210743v-64.210743h-88.90718256v64.210743zm-98.7857584 0h44.3004733l10.0316938 4.9392879 10.1848117-4.9392879h44.1473552l-9.8785756 14.8178637h-86.4375386z" stroke="#092f63" stroke-linecap="round" stroke-linejoin="round" stroke-width="4.939288"/></g><g transform="translate(869.314674 348.837209)"><path d="m64.6597691 0h-50.2909315l-14.3688376 14.3688376v64.6597691h79.0286067v-64.6597691z" fill="#fff"/><path d="m0 26.9415705h79.0286067v8.9805235h-79.0286067zm0 21.5532563h79.0286067v8.9805235h-79.0286067zm0 21.5532564h79.0286067v8.9805235h-79.0286067z" fill="#bbd8ff"/><g stroke="#092f63" stroke-linecap="round" stroke-linejoin="round" stroke-width="4.939288"><path d="m0 14.3688376h79.0286067v21.5532564h-79.0286067zm64.6597691-14.3688376h-50.2909315l-14.3688376 14.3688376h79.0286067zm3.5922094 21.5532564v7.1844188zm-7.1844188 0v7.1844188zm-7.1844188 0v7.1844188zm-53.8831409 14.3688376h79.0286067v21.5532563h-79.0286067zm68.2519785 7.1844188v7.1844187zm-7.1844188 0v7.1844187zm-7.1844188 0v7.1844187zm-53.8831409 14.3688375h79.0286067v21.5532564h-79.0286067zm68.2519785 7.1844188v7.1844188zm-7.1844188 0v7.1844188zm-7.1844188 0v7.1844188z"/><path d="m10.7766282 25.1454658 4.4902617-4.4902618 4.4902618 4.4902618-4.4902618 4.4902617zm0 21.5532563 4.4902617-4.4902617 4.4902618 4.4902617-4.4902618 4.4902618zm0 21.5532564 4.4902617-4.4902617 4.4902618 4.4902617-4.4902618 4.4902618z"/></g></g><g stroke="#000" stroke-width="1.673643" transform="translate(183.371064 205.392056)"><path d="m70.6935583-52.2426646c0-10.1848934 9.9956093-18.4508937 22.3358676-18.4508937 5.923324 0 11.5998431 1.9434941 15.7831901 5.3999615 4.195688 3.468768 6.540337 8.155295 6.540337 13.0509322v149.1447242c0 10.1848934-9.995609 18.4508934-22.3235271 18.4508934-12.3402583 0-22.3358676-8.266-22.3358676-18.4508934z" fill="#fff" fill-rule="nonzero" transform="matrix(0 -1 1 0 70.693559 115.352953)"/><path d="m49.8955582 13.0181525c0 10.2799456-9.9956092 18.6230899-22.3235273 18.6230899-12.3402584 0-22.33586763-8.3431443-22.33586763-18.6230899" transform="matrix(0 -1 1 0 5.236164 49.895558)"/></g><g transform="translate(852.027166 31.076353)"><path d="m56.8018111 113.603622 41.0257254-15.7760855 15.7760855-41.0257254-15.7760855-41.0207862-41.0257254-15.7810249-41.0257255 15.7810249-15.7760856 41.0207862 15.7760856 41.0257254z" fill="#fff"/><path d="m86.4375386 39.5143034h-14.8178638l-9.8785758 16.0526857 9.8785758 18.5223297h22.2267957v25.269397l3.981066-1.5311793 15.7760855-41.0257254-4.751595-12.3482198h-17.4752005zm11.9678946-22.2267957-.5778967-1.5064828-19.2780407-7.41387116-4.460177 8.92035396h-4.9392879v12.3482198h9.8785758l4.9392879-7.4089319v-4.9392879zm-98.4054332 39.5192427 15.7760856 40.9960897 28.5145092 10.9652189.1629965-.098785 9.8785758-17.2875082-12.3482198-17.2875077h-19.7571517l-7.4089318-9.8785759v-12.3482198l9.8785758-7.4089318v9.8785758l4.9392879 2.469644 9.8785759-4.939288v-14.8178637l-12.3482198-4.9392879 7.9028606-23.75797493-19.3027372 7.40893193z" fill="#bbd8ff"/><g stroke="#092f63" stroke-linecap="round" stroke-linejoin="round" stroke-width="4.939288"><path d="m93.8464705 99.3587158v-25.269397h-22.2267957l-9.8785758-18.5223297 9.8785758-16.0526857h14.8178638l4.9392879 4.9392879h17.4752005"/><path d="m56.8018111 113.603622 41.0257254-15.7760855 15.7760855-41.0257254-15.7760855-41.0207862-41.0257254-15.7810249-41.0257255 15.7810249-15.7760856 41.0207862 15.7760856 41.0257254z"/><path d="m98.4054332 17.2875077h-14.4375386v4.9392879l-4.9392879 7.4089319h-9.8785758v-12.3482198h4.9392879l4.460177-8.92035396m-43.4657337-.01481787-7.9176785 23.75303563 12.3482198 4.9392879v14.8178638l-9.8785759 4.9392879-4.9392879-2.469644v-9.8785758l-9.8785758 7.4089319v12.3482198l7.4089318 9.8785758h19.7571517l12.3482198 17.2875077-9.8785758 17.2875075"/></g></g><path d="m416.016665 214.764158 14.74007 8.148606-15.243711 7.162314zm-104.847247 9.249956.015887 2.263784-1.131892.007944c-1.292491.00907-2.578086.014804-3.856796.017219l-1.912905.001134-1.13192-.000801.001602-2.263839 1.13192.000801c1.267935.000897 2.542754-.001506 3.824468-.007227l1.927744-.011072zm-19.516517-.094533 1.131754.019414c1.267444.021742 2.542354.040014 3.824742.054796l1.929193.019552 1.131877.009903-.019807 2.263754-1.131877-.009903c-1.294088-.011323-2.580697-.026159-3.85984-.044487l-1.913116-.030107-1.131754-.019414zm31.032672-.087865.048901 2.263312-1.131656.024451c-1.291997.027914-2.577587.052646-3.856781.074209l-1.913994.029971-1.131802.016361-.032722-2.263604 1.131802-.016361c1.269197-.018347 2.54479-.039846 3.82679-.064512l1.927806-.039376zm-42.524985-.231267 1.131223.039734c1.265436.044448 2.539012.085246 3.820744.122369l1.928715.052924 1.13154.029336-.058671 2.26308-1.13154-.029336c-1.294502-.03356-2.580848-.070823-3.859053-.111763l-1.911204-.064165-1.131222-.039734zm54.031131-.111468.079513 2.262443-1.131221.039757c-1.290318.045349-2.574663.087658-3.853043.126942l-1.913098.056659-1.131461.032245-.06449-2.262922 1.131461-.032245c1.269073-.036167 2.54411-.075345 3.825121-.117547l1.925996-.065575zm-65.522684-.426494 1.130216.062095c1.263327.069409 2.535614.134963 3.816878.196633l1.928628.089588 1.130787.050637-.101275 2.261574-1.130786-.050637c-1.295325-.058006-2.581673-.119929-3.85906-.185738l-1.909362-.101625-1.130216-.062096zm77.0204-.065282.108029 2.261261-1.130631.054015c-1.289346.061596-2.573092.120282-3.851245.17607l-1.913036.081509-1.130943.047005-.094012-2.261887 1.130944-.047006c1.269442-.052762 2.544476-.108411 3.82511-.166957l1.925154-.089996zm-88.502932-.714741 1.128579.086901c1.259111.096952 2.528167.189832 3.807186.278603l1.926001.130071 1.129487.074178-.148357 2.258974-1.129487-.074178c-1.294626-.085024-2.579291-.174197-3.85401-.267482l-1.904622-.143008-1.128579-.086901zm100.00412.083102.134718 2.259828-1.129914.067359c-1.287717.076766-2.570168.150742-3.847359.221939l-1.911844.104711-1.130286.060801-.1216-2.260573 1.130286-.0608c1.269014-.068262 2.543286-.139294 3.822826-.213104l1.923259-.112802zm11.477751-.761227.159727 2.258199-1.129099.079863c-1.286503.090996-2.568033.179312-3.844595.264955l-1.911119.126461-1.129518.073703-.147405-2.259036 1.129518-.073703c1.268854-.082794 2.542675-.168251 3.82147-.25638l1.921922-.134199zm-122.926471-.37 1.1261.114644c1.25473.127738 2.520658.251158 3.7978.370213l1.924128.175303 1.127462.100357-.200713 2.254925-1.127462-.100356c-1.294697-.115243-2.57818-.234901-3.850466-.358929l-1.900036-.189314-1.126099-.114643zm134.473738-.367932.0851 2.26224-1.13112.04255c-1.557397.058586-2.926862.133746-4.110171.225473l-.801101.061806-.79986.061129-1.12866.085846-.171692-2.25732 1.12866-.085846c.531737-.040444 1.064303-.081339 1.597694-.122685 1.063523-.082441 2.267485-.151527 3.614146-.207471l.585884-.023172zm26.618863.160866 1.131485.031393c1.517579.042105 3.145779.089259 4.884611.141463l.878635.026522 1.131399.034334-.068668 2.262799-1.131399-.034334c-1.774089-.053838-3.437501-.102626-4.990226-.146365l-.767138-.021449-1.131485-.031393zm-11.538733-.237886 1.131824.014768c.362089.004725.727779.009775 1.097072.01515 1.16498.016958 2.52567.042868 4.082249.077728l.592899.013492 1.131618.026147-.052294 2.263236-1.131618-.026147c-1.800217-.041595-3.352236-.07188-4.655804-.090855l-.549535-.007795-.544123-.007308-1.131824-.014768zm-160.96375-.906314 1.122453.146093c1.248258.162468 2.509321.320353 3.783207.473592l1.92045.226369 1.124448.129842-.259684 2.248897-1.124449-.129843c-1.29392-.149411-2.575018-.303535-3.843314-.462309l-1.892845-.241642-1.122453-.146094zm155.441246.870138.880662.002099 1.131914.003727-.007454 2.263829-1.131914-.003728c-1.807382-.005951-3.499713-.001566-5.076928.013149l-.6689.006939-1.131846.012948-.025896-2.263692 1.131846-.012948c1.522733-.017419 3.15555-.024858 4.898516-.022323zm-166.810494-2.569667 1.117134.182357c1.393491.227469 2.805902.448791 4.23726.663846l1.437674.212962 1.120041.163557-.327115 2.240083-1.120041-.163558c-1.453369-.212233-2.8878-.430836-4.303318-.655689l-1.409216-.226932-1.117134-.182358zm-11.285828-2.102183 1.109329.225014c1.378784.279669 2.780349.552863 4.204704.819403l1.431954.264316 1.113614.202746-.40549 2.227229-1.113615-.202745c-1.450658-.264108-2.878542-.535017-4.283662-.812552l-1.397533-.279738-1.109329-.225014zm-11.17737-2.590867 1.096661.280315c.255187.065228.512029.129949.770483.194153 1.17669.29225 2.371783.57889 3.587558.860292l1.222755.27967 1.104072.249532-.499064 2.208146-1.104073-.249532c-1.655269-.374109-3.272444-.757486-4.856981-1.151031l-.393927-.098559-.391453-.099348-1.096661-.280315zm-10.767353-3.580521 1.052349.4169c1.400908.554985 2.87337 1.085785 4.419721 1.592657l.936696.301254 1.079452.340625-.681249 2.158905-1.079453-.340625c-1.618089-.510593-3.162047-1.046481-4.634242-1.608075l-.874725-.340044-1.052349-.4169zm-9.911442-5.377745.938271.633158c1.269703.856813 2.637789 1.674358 4.109143 2.453696l.744305.38649 1.008729.513526-1.02705 2.017458-1.00873-.513525c-1.608194-.818702-3.107051-1.681282-4.50148-2.589209l-.591234-.391892-.938271-.633159zm-7.82323-7.904468.669867.912426c.940834 1.281511 1.997763 2.497606 3.180144 3.653228l.514443.491579.82707.772786-1.545572 1.65414-.82707-.772786c-1.307879-1.222036-2.482327-2.511227-3.531747-3.871752l-.442121-.587462-.669866-.912426zm-4.429467-10.184311.309818 1.088694c.461999 1.62346 1.012485 3.155199 1.66117 4.608185l.284049.617925.484101 1.023175-2.046351.968204-.484102-1.023176c-.724809-1.531924-1.341203-3.141366-1.859906-4.840802l-.216351-.733876-.309817-1.088694zm-1.586872-11.18445.083111 1.128865c.13018 1.768203.303624 3.415388.528046 4.974452l.099325.662871.174294 1.118421-2.236841.348588-.174295-1.118421c-.247869-1.590541-.441102-3.261597-.588078-5.04728l-.060181-.77241-.08311-1.128865zm-.271668-11.436015.005846 1.131905c.010752 2.081485.03099 3.751923.068393 5.315462l.010632.423998.029695 1.131531-2.263061.059389-.029695-1.13153c-.041031-1.563514-.063952-3.203147-.076579-5.225798l-.003195-.561358-.005846-1.131906zm-.104245-11.546492.023641 1.131673c.033422 1.59985.052632 3.23456.063712 5.186485l.003086.595376.005337 1.131907-2.263815.010674-.005337-1.131908c-.009467-2.008007-.026396-3.670355-.056799-5.267713l-.00953-.477538-.023642-1.131673zm-.692075-11.5805.104208 1.127114c.139069 1.504164.25309 3.033808.345022 4.606139l.064854 1.18752.057469 1.130461-2.26092.114939-.05747-1.130461c-.079845-1.570597-.180628-3.093679-.305224-4.586229l-.097957-1.113953-.104208-1.127113zm-1.798485-11.508595.226601 1.109006c.308643 1.510525.582019 3.036031.822546 4.581809l.174273 1.163217.161442 1.120348-2.240697.322882-.161441-1.120348c-.219307-1.521916-.470009-3.021917-.754446-4.505249l-.21969-1.109456-.226601-1.109007zm-3.216182-11.237302.369695 1.069845c.509098 1.473255.976847 2.956715 1.405166 4.452579l.313877 1.124258.297173 1.092214-2.184428.594346-.297173-1.092214c-.398184-1.463465-.834222-2.91401-1.309995-4.353868l-.36431-1.077925-.369695-1.069845zm-5.106463-10.616617.592427.964507c.898943 1.463535 1.703077 2.953261 2.41223 4.469058l.34666.760071.459682 1.034377-2.068754.919364-.459682-1.034377c-.642369-1.44546-1.375494-2.867493-2.199546-4.266219l-.419604-.697421-.592427-.964507zm-7.485825-9.1038329.790153.8104942c1.169765 1.1998777 2.264745 2.4206307 3.284845 3.6622837l.603074.7475.702826.887288-1.774575 1.405651-.702826-.887287c-.949476-1.198673-1.972113-2.378816-3.068005-3.540403l-.666327-.694726-.790154-.8104939zm-8.9694-7.5108007.910483.6725052c1.342248.991417 2.624675 1.9994153 3.847252 3.0240357l.726364.6167673.858048.738239-1.476478 1.716096-.858048-.738239c-1.116203-.960348-2.287091-1.9067649-3.51269-2.8392145l-.929458-.6967177-.910483-.6725052zm-9.857884-6.2256069.982754.5616376c1.382984.7903659 2.721622 1.5929049 4.015912 2.4076404l.962401.6133389.951109.6137056-1.227411 1.9022184-.951109-.6137056c-1.244443-.80298-2.533155-1.5945594-3.866138-2.3747146l-1.008039-.582974-.982754-.5616376zm-10.385983-5.2175934 1.027552.4747414c1.438844.6647631 2.841273 1.3394449 4.207288 2.0240586l1.017683.5153226 1.007689.5155647-1.03113 2.0153772-1.007688-.5155647c-1.325995-.67842-2.688437-1.3473689-4.087325-2.0068336l-1.055999-.4928201-1.027553-.4747414z" fill="#4c688d" fill-rule="nonzero"/><path d="m405.139473 367.647119 15.121618 7.416613-14.874478 7.900595-.106298-6.543024c-1.055479.000755-2.08954-.002461-3.102186-.009648l-1.024541-.0087-1.131865-.01121.022422-2.263729 1.131864.01121c1.317925.013054 2.673756.019141 4.067486.018261zm-89.217117 9.639831.023843 2.263715-1.131857.011922c-1.293006.013619-2.579231.023935-3.858686.030965l-1.914107.008084-1.131915.003335-.006669-2.263831 1.131915-.003334c1.268864-.003738 2.544497-.010744 3.826911-.021034l1.928708-.0179zm-19.523738-.021647 1.131822.01492c1.26783.016713 2.542983.029997 3.825473.03983l1.929238.012161 1.131907.005597-.011196 2.263813-1.131906-.005598c-1.293964-.006399-2.580591-.016269-3.859894-.029591l-1.913462-.022568-1.131822-.01492zm31.034612-.199287.056257 2.263142-1.13157.028128c-1.291478.032104-2.576657.06106-3.855548.086883l-1.91362.036387-1.13174.020182-.040364-2.263481 1.13174-.020182c1.269065-.022631 2.544419-.048379 3.826071-.077259l1.927203-.045671zm-42.526871-.07163 1.131384.034812c1.26636.038965 2.540698.074322 3.823026.106045l1.929487.044859 1.131652.024631-.049263 2.263304-1.131652-.024631c-1.294837-.028183-2.581684-.060025-3.860552-.095502l-1.912322-.055937-1.131385-.034812zm54.032627-.306953.086359 2.262193-1.131096.04318c-1.290248.049255-2.574614.095502-3.853105.138753l-1.913332.062632-1.131354.03579-.071581-2.262708 1.131355-.03579c1.269328-.040155 2.544531-.083292 3.825616-.129424l1.926042-.071446zm-65.525784-.177941 1.130501.056665c1.264095.063362 2.536946.122917 3.81857.178638l1.929016.080701 1.131007.045471-.090941 2.262013-1.131007-.045471c-1.295364-.052078-2.581956-.108022-3.85979-.167803l-1.910185-.092547-1.130501-.056665zm77.019973-.347129.114417 2.260947-1.130473.057208c-1.288837.065223-2.572156.127565-3.849966.187037l-1.912582.087058-1.130801.050311-.100621-2.261603 1.130801-.050311c1.26923-.056469 2.543969-.115796 3.824227-.177992l1.924525-.095447zm-88.501833-.373727 1.129029.080849c1.260194.090241 2.530083.176464 3.809684.258633l1.926688.120207 1.129849.068445-.13689 2.259698-1.129849-.068445c-1.294818-.078439-2.579923-.16097-3.855334-.247558l-1.905846-.132922-1.129029-.080849zm100.005753-.28946.140715 2.259463-1.129731.070357c-1.287434.080179-2.569673.157594-3.846724.232255l-1.911686.109928-1.130115.063896-.127792-2.260231 1.130116-.063896c1.268988-.071747 2.543163-.146238 3.822533-.223482l1.922953-.117932zm-111.465328-.693668 1.12677.10786c1.256363.120264 2.523611.236268 3.801762.347965l1.925406.16431 1.128014.093964-.187929 2.256027-1.128013-.093965c-1.29522-.107893-2.579538-.22014-3.852971-.336698l-1.901988-.178064-1.12677-.10786zm122.949538-.097547.165382 2.257791-1.128896.082691c-1.28611.094206-2.567311.185756-3.84361.274658l-1.910772.131369-1.129324.076618-.153236-2.258648 1.129324-.076618c1.268695-.086074 2.542291-.174786 3.820796-.266145l1.92144-.139026zm-134.37296-1.179915 1.12343.138374c1.249937.153957 2.512263.303394 3.786995.448253l1.921407.213849 1.125258.122626-.245252 2.250517-1.125258-.122626c-1.294128-.141029-2.575849-.286698-3.845184-.43695l-1.894714-.228808-1.123431-.138374zm145.935777.57406.052362 2.263235-1.131617.02618c-1.996337.046187-3.751861.113827-5.265786.202783l-.446929.027326-1.129638.07185-.143699-2.259275 1.129638-.07185c1.495604-.095126 3.230193-.168206 5.204551-.219375l.599501-.014693zm7.031187-.048112c.81715.00151 1.65831.005193 2.523485.011049l.873179.00658 1.131881.009382-.018764 2.263763-1.131881-.009382c-1.169912-.009698-2.297049-.015549-3.3814-.017555l-1.594434-.000125-.773148.002101-1.131912.004173-.008347-2.263825 1.131912-.004173c.256379-.000946.515425-.001649.777139-.002112zm-164.342653-2.138884 1.118563.173378c1.397101.216551 2.812427.427031 4.246005.631326l1.439663.202231 1.121226.155231-.310462 2.242451-1.121226-.155231c-1.4548-.201414-2.891357-.409107-4.309695-.622969l-1.412267-.215913-1.118563-.173378zm-11.306431-2.001718 1.111441.214343c1.382311.266582 2.786348.526763 4.212129.780382l1.433028.251427 1.115345.193001-.386002 2.230689-1.115345-.193001c-1.450922-.251069-2.880116-.508836-4.287598-.773139l-1.400245-.266478-1.11144-.214343zm-11.207674-2.464122 1.100778.263685c1.363096.326521 2.753245.646391 4.170428.959354l1.426193.310652 1.10667.237751-.475502 2.21334-1.10667-.237751c-1.448138-.311111-2.869273-.629335-4.263385-.954423l-1.385104-.327366-1.100778-.263685zm-10.885421-3.264081 1.066644.378833c1.424654.505985 2.91656.98986 4.477754 1.451821l.945047.274549 1.088512.31046-.620921 2.177024-1.088511-.310461c-1.626646-.463944-3.183853-.950887-4.673703-1.461148l-.885844-.308957-1.066644-.378833zm-10.19363-4.883769.975636.573915c1.322862.778171 2.738601 1.521044 4.25137 2.229376l.764489.351291 1.031851.465325-.93065 2.063701-1.031851-.465325c-1.607745-.725031-3.117419-1.487728-4.533045-2.289152l-.699995-.403945-.975635-.573915zm-8.463134-7.275062.749174.848517c1.042912 1.181205 2.201692 2.303675 3.484788 3.370988l.557534.454054.884994.705712-1.411424 1.769987-.884994-.705712c-1.407988-1.122758-2.685659-2.307361-3.840499-3.557087l-.487433-.539594-.749174-.848517zm-5.263127-9.766713.387669 1.063464c.569678 1.562755 1.237644 3.039036 2.013954 4.439628l.339367.595651.571898.976819-1.953638 1.143796-.571898-.97682c-.868862-1.484042-1.618214-3.044907-2.258734-4.692356l-.267877-.711379-.387669-1.063464zm-2.113602-11.044777.120625 1.125475c.186967 1.744476.427157 3.378206.728748 4.926516l.133037.658405.232053 1.107878-2.215756.464107-.232054-1.107878c-.333484-1.592131-.60064-3.263306-.810512-5.039867l-.086465-.767912-.120625-1.125474zm-.45775-11.402921.013758 1.131837c.023218 1.909959.062795 3.581003.125637 5.143494l.02467.581101.050579 1.130789-2.261579.101159-.050579-1.13079c-.069848-1.561583-.115081-3.212602-.142809-5.085318l-.009592-.712918-.013758-1.131837zm-.064784-11.526971.012962 1.131846c.017804 1.554791.024708 2.845821.031682 5.363752l.001103.407981.002994 1.131916-2.263833.005987-.002993-1.131916c-.006996-2.645038-.013338-3.986329-.029937-5.509559l-.002708-.242239-.012961-1.131846zm-.500239-11.574871.080843 1.129029c.107115 1.49592.192099 3.021426.25807 4.601627l.045963 1.195799.039834 1.131219-2.262439.079666-.039833-1.131219c-.05592-1.588077-.129764-3.114643-.224571-4.604503l-.075082-1.110901-.080844-1.12903zm-1.507805-11.564965.19551 1.114908c.265346 1.51315.497446 3.042994.698838 4.59622l.145326 1.169408.133698 1.123997-2.247992.267397-.133699-1.123996c-.182337-1.532891-.393993-3.04034-.63742-4.528964l-.188566-1.113042-.19551-1.114908zm-2.866625-11.308029.335631 1.081016c.461299 1.485777.882272 2.982606 1.264954 4.493152l.279863 1.135522.263779 1.100756-2.201512.527559-.263779-1.100756c-.354493-1.479305-.745703-2.944175-1.175615-4.397294l-.329722-1.087679-.335631-1.081015zm-4.518243-10.832495.523778 1.003443c.700577 1.34215 1.33293 2.708269 1.897169 4.09871.11913.293933.233756.581065.346063.866862l.166994.428381.408265 1.055728-2.111457.81653-.408265-1.055728c-.161412-.417393-.325507-.831719-.499486-1.26098-.429491-1.058385-.90069-2.102455-1.413634-3.132263l-.392536-.769682-.523779-1.003444zm-6.853943-9.598294.736714.859358c1.084171 1.264657 2.095349 2.555407 3.033428 3.872225l.554076.79322.639522.933945-1.86789 1.279046-.639523-.933946c-.87-1.270529-1.810868-2.517243-2.822708-3.740165l-.615621-.730897-.736714-.859358zm-8.567775-7.994734.878545.713724c1.293017 1.050438 2.525 2.122729 3.695902 3.216902l.695211.659129.815728.784749-1.569498 1.631457-.815728-.784749c-1.108029-1.065949-2.27626-2.111766-3.504743-3.137423l-.74432-.612975-.878545-.713724zm-9.649822-6.577636.966745.588767c1.360757.828727 2.675393 1.673879 3.943894 2.535481l.942726.649286.927996.648126-1.296251 1.855992-.927996-.648126c-1.214046-.847906-2.474002-1.680382-3.779882-2.497402l-.98802-.609866-.966745-.588767zm-10.304017-5.418307 1.021401.487836c1.43132.683621 2.824538 1.380728 4.179655 2.091336l1.009192.535488.997264.535451-1.070902 1.994528-.997264-.535451c-1.310685-.703733-2.659461-1.394578-4.046327-2.072517l-1.047292-.506034-1.0214-.487837z" fill="#4c688d" fill-rule="nonzero" transform="matrix(1 0 0 -1 0 613.397818)"/><path d="m589.917803 210.738106.322792 2.24071-1.120355.161396c-1.259984.18151-2.528445.358059-3.805383.529646l-1.921765.253658-1.122528.145511-.291021-2.245057 1.122528-.145511c1.27838-.165712 2.548266-.336351 3.809659-.511916l1.885718-.267041zm11.34024-1.844183.39162 2.22971-1.114855.19581c-1.25269.220019-2.514497.434698-3.785421.644037l-1.913224.310003-1.117814.178145-.35629-2.235627 1.117814-.178145c1.272217-.202752 2.535299-.410799 3.789245-.624141l1.87407-.323982zm11.268701-2.216458.468448 2.214843-1.107421.234224c-1.243828.263075-2.497507.520375-3.761037.771901l-1.902685.372958-1.111412.214493-.428985-2.222824 1.111411-.214493c1.264641-.244064 2.519411-.493846 3.764312-.749344l1.859947-.387533zm11.172145-2.632274.554516 2.194877-1.097439.277258c-1.23276.311446-2.476217.616617-3.730371.915513l-1.889253.443639-1.102793.25513-.51026-2.205585 1.102793-.25513c1.255043-.290354 2.499371-.586908 3.732984-.889662l1.842384-.458782zm11.053912-3.101366.651308 2.168126-1.084063.325654c-1.218582.366064-2.448834.725275-3.690756 1.077634l-1.871637.523399-1.091232.300759-.601517-2.182465 1.091233-.300758c1.242552-.342464 2.473417-.691685 3.692597-1.047662l1.820004-.539033zm10.892451-3.628925.760328 2.13234-1.066169.380164c-1.348394.480797-2.712935.952101-4.093626 1.413914l-1.386073.45865-1.07575.352142-.704284-2.151501 1.075751-.352142c1.377461-.450905 2.738761-.911146 4.0839-1.380719l1.339753-.472684zm10.645416-4.209753.882665 2.084676-1.042338.441333c-1.319419.558651-2.656561 1.106872-4.011425 1.644668l-1.360772.53432-1.055122.409829-.81966-2.110244 1.055122-.40983c1.350923-.524724 2.684127-1.059673 3.999612-1.604843l1.309579-.548576zm10.370482-4.878994 1.019895 2.021086-1.010542.509948c-1.28053.64619-2.580537 1.280908-3.900021 1.904156l-1.325976.619424-1.027557.474732-.949464-2.055113 1.027557-.474732c1.314816-.607447 2.610188-1.226101 3.886117-1.855959l1.269448-.633594zm9.976794-5.61257 1.171916 1.936901-.968451.585958c-1.228258.743154-2.477881 1.473715-3.748866 2.191687l-1.278105.713775-.990924.547094-1.094188-1.981849.990924-.547094c1.265683-.698789 2.510085-1.409834 3.73321-2.133132l1.216033-.727382zm9.470165-6.420176 1.33728 1.826652-.913326.66864c-1.160767.84979-2.344903 1.685806-3.552403 2.50805l-1.215288.817654-.942639.626638-1.253276-1.885278.942639-.626638c1.201856-.798958 2.380509-1.611275 3.535964-2.43695l1.147723-.830128zm8.777243-7.247098 1.510848 1.685915-.842957.755425c-1.07444.962869-2.17421 1.910824-3.299301 2.843867l-1.133531.928072-.880288.711573-1.423145-1.760577.880288-.711572c1.119673-.905077 2.2143-1.824586 3.283887-2.758527l1.061242-.938752zm7.98281-8.145594 1.686013 1.510739-.75537.843007c-1.030502 1.150059-2.091762 2.282055-3.183769 3.395982l-.82477.832058-.801287.799488-1.598977-1.602575.801287-.799488c1.083568-1.081135 2.136864-2.179751 3.1599-3.295851l.761603-.840353zm7.343917-8.940721 1.651194 1.548719-.774359.825597c-.463711.494394-.857952.963408-1.185478 1.409269-.503352.68515-1.016321 1.364671-1.538906 2.038561l-.791089 1.006612-.705158.885434-1.770869-1.410318.705159-.885434c.78002-.979435 1.538833-1.971159 2.276416-2.975141.306976-.417886.657646-.845603 1.05342-1.285479l.30531-.332223zm9.346481-7.158223 1.264085 1.878047-.939023.632043c-1.546197 1.040722-2.933949 2.030237-4.162912 2.968059l-.453418.349259-.893516.694889-1.38978-1.787033.893517-.694889c1.227633-.954733 2.612836-1.9583 4.155952-3.011187l.586071-.397145zm9.899489-6.04024 1.135006 1.958758-.979379.567503c-1.457491.844546-2.839687 1.665024-4.146548 2.461394l-.775076.474928-.963656.59381-1.18762-1.927312.963656-.59381c1.291661-.795928 2.658365-1.61555 4.100154-2.458906l.874084-.508862zm10.143807-5.577091 1.065615 1.997358-.998678.532807c-1.405947.750091-2.764499 1.485073-4.075645 2.20494l-.974471.537065-.990434.547981-1.095962-1.980868.990435-.547981c1.295667-.716859 2.638628-1.448705 4.028893-2.195549l1.051568-.562945zm10.274665-5.297564 1.020813 2.020623-1.010311.510406c-1.410602.712632-2.785279 1.413826-4.124028 2.103577l-.997325.515168-1.005122.520551-1.041101-2.010245 1.005123-.52055c1.326264-.686869 2.688398-1.385121 4.086407-2.094759l1.055233-.534364zm10.339076-5.096592.988913 2.036424-1.018212.494457c-1.325483.643671-2.625564 1.279259-3.900241 1.906761l-1.266209.624807-1.014592.501844-1.003688-2.029183 1.014592-.501844c1.261474-.623958 2.548321-1.255974 3.860543-1.896049l1.320682-.64276zm10.41313-4.962403.964656 2.048027-1.024013.482328c-1.328747.625863-2.636232 1.244961-3.922454 1.857295l-1.279135.610079-1.021315.488016-.976032-2.042629 1.021315-.488016c1.274917-.609195 2.571077-1.225138 3.88848-1.84783l1.324485-.624942zm10.472262-4.858871.945409 2.056982-1.028491.472705c-1.330908.611698-2.643554 1.217588-3.937938 1.817668l-1.288297.598145-1.026388.477254-.954509-2.052775 1.026388-.477254c1.284502-.597274 2.587253-1.200346 3.908253-1.809217l1.327082-.610803zm10.497849-4.765464.929688 2.064135-1.032068.464844c-1.184804.533636-2.35696 1.06325-3.516468 1.588841l-1.729777.785369-1.030371.468591-.937183-2.060742 1.030371-.468592c1.148538-.522331 2.309716-1.048679 3.483534-1.579043l1.770207-.798559zm11.658678-12.3287619 16.81086 1.0317387-10.692867 13.0127662-2.605509-5.981289-.514698.226474-.910672-2.072595.52037-.229879zm-1.11528 7.6294509.916502 2.070024-1.035012.458251c-1.186386.525271-2.361517 1.046964-3.525391 1.565076l-1.737368.774484-1.033609.461407-.922813-2.067218 1.033609-.461407c1.154028-.515162 2.319308-1.0339 3.495838-1.556214l1.773232-.786152z" fill="#4c688d" fill-rule="nonzero"/><g stroke="#000" stroke-width="1.673643" transform="matrix(.8660254 .5 -.5 .8660254 696.091072 237.299083)"><path d="m70.6935583-52.2426646c0-10.1848934 9.9956093-18.4508937 22.3358676-18.4508937 5.923324 0 11.5998431 1.9434941 15.7831901 5.3999615 4.195688 3.468768 6.540337 8.155295 6.540337 13.0509322v149.1447242c0 10.1848934-9.995609 18.4508934-22.3235271 18.4508934-12.3402583 0-22.3358676-8.266-22.3358676-18.4508934z" fill="#fff" fill-rule="nonzero" transform="matrix(0 -1 1 0 70.693559 115.352953)"/><path d="m50.113192 13.0685326c0 10.224326-9.9956092 18.5223297-22.3235273 18.5223297-12.3402584 0-22.33586762-8.2980037-22.33586762-18.5223297" transform="matrix(0 -1 1 0 5.453798 50.113192)"/></g><g fill-rule="nonzero"><path d="m852.494482 364.731672 10.372723 13.269367-16.831004.621945 2.902799-6.243984-.30844-.320588c-.71445-.764606-1.343724-1.583579-1.889683-2.459822-.291872-.468526-.575233-.93323-.850395-1.394424l-.406632-.689196-.570363-.977716 1.955432-1.140726.570364.977716c.389492.667667.796835 1.343096 1.223041 2.02726.386009.619531.820855 1.206009 1.306454 1.761762zm-10.354286-9.653211.400276 1.058783c.557598 1.47492 1.147399 2.893687 1.81468 4.339134l.410027.871132.489565 1.020573-2.041147.979129-.489565-1.020574c-.724506-1.510348-1.359551-2.976155-1.95107-4.480757l-.350056-.908084-.400277-1.058783zm-4.530078-10.789137.600137.959729c.862793 1.379763 1.494084 2.813962 2.290145 5.065974l.151289.432022.371172 1.069334-2.138668.742344-.371172-1.069334c-.76992-2.218116-1.345353-3.584175-2.082104-4.811412l-.140119-.228654-.600137-.959729zm-9.188279-7.637234.911599.670993 2.321332 1.717958 2.31129 1.729276.904543.680474-1.360949 1.809086-.904543-.680474-2.301811-1.722184-2.311848-1.710939-.911598-.670993zm-9.386316-6.733025.92511.652238 2.355418 1.669564 2.346347 1.681053.918455.661576-1.323151 1.836911-.918456-.661576-2.33701-1.674363-2.34608-1.662945-.92511-.652239zm-9.516591-6.54147.937849.633783 2.388133 1.622384 2.380089 1.634077.931573.642974-1.285948 1.863146-.931573-.642974-2.370896-1.627766-2.378944-1.616142-.93785-.633783zm-9.641503-6.354645.949863.615634 2.418814 1.57587 2.411869 1.587792.943943.624671-1.249342 1.887887-.943943-.624671-2.402828-1.58184-2.40978-1.569985-.949863-.615633zm-9.760792-6.172016.961186.5978 2.446695 1.529519 2.440929 1.541676.95561.606673-1.213346 1.911221-.95561-.606673-2.43205-1.536068-2.437827-1.523976-.961186-.5978zm-9.869543-5.990489.971845.58031 2.474409 1.485025 2.469875 1.497427.966596.589013-1.178026 1.933192-.966595-.589013-2.461163-1.492145-2.465716-1.479808-.971846-.58031zm-9.976516-5.815625.981862.563198 2.498132 1.440098 2.494831 1.452655.976937.571697-1.143394 1.953873-.976937-.571697-2.486318-1.447698-2.489646-1.435206-.981862-.563197zm-10.067422-5.639744.991219.54656 2.523254 1.398146 2.520947 1.410661.98662.554818-1.109636 1.973241-.986621-.554819-2.512668-1.406028-2.515014-1.39358-.99122-.54656zm-10.164446-5.476858.999882.530547 2.543859 1.356186 2.541574 1.367926.995647.538451-1.076902 1.991295-.995648-.538452-2.533641-1.363656-2.535983-1.351987-.999881-.530546zm-10.243311-5.317019 1.007686.515571 2.567765 1.319551 2.561582 1.328188 1.003906.522891-1.045783 2.007813-1.003906-.522892-2.554216-1.324368-2.560489-1.315812-1.007686-.51557zm-10.31269-5.174081 1.014186.502662c1.163048.576442 2.31132 1.148241 3.452504 1.71942l1.70742.856805 1.011152.508739-1.017479 2.022303-1.011152-.508739c-1.133237-.570164-2.269777-1.138975-3.417296-1.710448l-1.730472-.859707-1.014187-.502661zm-10.3618-5.070085 1.017789.495327c1.735958.844839 3.007039 1.464348 4.248462 2.07132l.620255.303427.312051.152777 1.016567.497829-.995659 2.033135-1.016567-.49783c-1.46086-.715407-2.814518-1.375728-4.751513-2.31859l-.424251-.20649-1.017789-.495327zm-10.306621-5.104912 1.00741.516109c1.256234.643585 2.748408 1.387194 4.713386 2.351311l.42839.210015 1.016511.497943-.995886 2.033023-1.016511-.497943c-2.044118-1.00132-3.598224-1.773458-4.902384-2.438593l-.275724-.140936-1.00741-.516109zm-9.445155-6.307909.927255.649185c1.579047 1.105514 3.127669 2.236053 4.645883 3.391634l.021636.016411.019057.014333.905982.678558-1.357116 1.811963-.905981-.678557c-.026076-.019584-.026076-.019584-.054723-.041337-1.120673-.852996-2.258298-1.692212-3.412877-2.51765l-1.160231-.820845-.927255-.649185zm-9.777732-6.196359.973928.576806c1.256921.744409 2.497212 1.502509 3.720869 2.274301l1.218113.776356.951642.612879-1.225758 1.903284-.951642-.612878c-1.194684-.769403-2.405886-1.525395-3.633608-2.267975l-1.233229-.738109-.973929-.576807zm-10.242751-5.490349 1.012169.506713c1.306564.654095 2.597419 1.32113 3.872561 2.001107l1.269905.684291.994108.541287-1.082574 1.988217-.994109-.541287c-1.247473-.679243-2.510588-1.345794-3.789346-1.999652l-1.283972-.649626-1.012169-.506714zm-10.577323-4.788949 1.042696.440488c1.345954.5686 2.677152 1.149355 3.993592 1.742269l1.311521.596966 1.028344.473024-.946048 2.056688-1.028344-.473024c-1.290382-.593558-2.595484-1.175173-3.915309-1.744843l-1.324732-.565689-1.042695-.440488zm-10.839279-4.13317 1.06665.378813c1.376976.489023 2.740132.989428 4.089469 1.501215l1.344731.515583 1.055428.40904-.818081 2.110857-1.055429-.409041c-1.325027-.513526-2.66386-1.015849-4.016501-1.506968l-1.357243-.487385-1.066651-.378813zm-11.020749-3.521357 1.085141.322045c1.243915.369164 2.477642.746717 3.701182 1.132659l1.827667.585205 1.076497.349854-.699709 2.152994-1.076497-.349855c-1.200988-.390313-2.412166-.772355-3.633534-1.146125l-1.839694-.554451-1.085141-.322044zm-11.202711-2.974875 1.099273.269892c1.259928.309336 2.510338.626504 3.75123.951507l1.854199.493379 1.092707.295355-.59071 2.185414-1.092707-.295355c-1.220043-.329774-2.449613-.65181-3.68871-.966109l-1.865793-.465645-1.099273-.269892zm-11.311345-2.465924 1.109875.222308c1.271888.25476 2.534879.516838 3.788973.786235l1.874468.409585 1.104965.245554-.491107 2.209929-1.104965-.245553c-1.234844-.274417-2.4786-.541593-3.731267-.801528l-1.885683-.384472-1.109875-.222308zm-11.393558-2.003772 1.117686.178945c1.279436.204842 2.550562.416517 3.813376.635025l1.887988.332887 1.11409.20012-.40024 2.228179-1.114089-.20012c-1.245068-.223647-2.498464-.440525-3.760186-.650633l-1.898829-.310086-1.117686-.178945zm-11.4633-1.584715 1.123304.139396c1.286095.159597 2.564396.325601 3.834901.49801l1.899912.263419 1.120738.15871-.317421 2.241477-1.120738-.158711c-1.254101-.177596-2.516014-.348839-3.785739-.513729l-1.910445-.242568-1.123304-.139396zm-11.496103-1.200631 1.127192.103352c1.288865.118177 2.570426.242353 3.844685.372527l1.90591.199761 1.125438.120964-.241926 2.250876-1.125438-.120963c-1.259104-.13533-2.525528-.264704-3.799271-.388122l-1.916104-.180659-1.127192-.103353z" fill="#4c688d"/><path d="m247.852628 291.417987 2.049997-15.07351 2.125365 15.07351h4.793376l3.029776-24.99188h-4.627568l-1.507351 14.440423-2.004777-14.440423h-3.647789l-1.914336 14.51579-1.477204-14.51579h-4.687862l3.014702 24.99188zm18.736373 0 .844117-5.305875h3.647789l.85919 5.305875h5.094847l-4.702935-24.99188h-6.240434l-4.733082 24.99188zm3.994481-8.606974h-2.668012l1.326469-9.677194zm14.47057 8.606974v-11.184545h1.552571l2.743379 11.184545h5.712861l-3.436761-12.104029c1.155636-.552695 1.954532-1.326469 2.396688-2.32132.442157-.994852.663235-2.311272.663235-3.94926 0-1.035048-.130637-1.939458-.391911-2.713232-.261275-.773773-.623039-1.406861-1.085293-1.899262-.462255-.492402-1.050121-.889337-1.763601-1.190808-.713479-.30147-1.477204-.512499-2.291174-.633087-.813969-.120588-1.748527-.180882-2.803672-.180882h-6.813227v24.99188zm1.41691-14.365055h-1.41691v-6.918742h1.703306c1.024999 0 1.746015.27886 2.163049.83658s.625551 1.414398.625551 2.570034c0 1.175734-.231127 2.055022-.693382 2.637864-.462254.582843-1.256126.874264-2.381614.874264zm17.033066 14.365055v-10.641898h2.170586c.713479 0 1.364153-.042708 1.95202-.128125.587866-.085417 1.163172-.228615 1.725917-.429595.562744-.20098 1.055145-.47984 1.477204-.83658.422058-.35674.793871-.791359 1.115439-1.303859.321569-.512499.565257-1.140562.731066-1.884188.165808-.743627.248713-1.582719.248713-2.517277 0-2.361516-.547671-4.160289-1.643013-5.396316-1.095342-1.236028-2.748404-1.854042-4.959185-1.854042h-8.335651v24.99188zm1.763601-14.485643h-1.763601v-6.632345h1.748528c.442156 0 .818994.05527 1.130513.165809s.555208.253737.731065.429595c.175858.175857.311519.414521.406985.715991.095466.301471.15576.597916.180882.889338.025123.291421.037684.653185.037684 1.085292 0 1.21593-.163296 2.077633-.489889 2.585107-.326593.507475-.987315.761213-1.982167.761213z" fill="#000"/><path d="m695.697377 348.400357c.643136 0 1.21258-.082067 1.708331-.246201s.904411-.391911 1.225979-.683333c.321568-.291421.584517-.65486.788847-1.090317s.348366-.90441.432107-1.406861c.083742-.50245.125613-1.065194.125613-1.688233v-6.933815c0-.777123-.072018-1.460455-.216054-2.049997-.144035-.589542-.378512-1.11209-.70343-1.567645s-.768749-.800571-1.331494-1.035048c-.562744-.234477-1.239377-.351715-2.029899-.351715s-1.467155.117238-2.029899.351715c-.562745.234477-1.006576.577818-1.331494 1.030023-.324918.452206-.559395.973079-.70343 1.562621-.144036.589542-.216054 1.276224-.216054 2.060046v6.913717c0 .790522.070343 1.485578.211029 2.085169s.370139 1.135538.688357 1.607841c.318219.472303.760375.830718 1.326469 1.075244s1.251101.366789 2.055022.366789zm0-1.266175c-.535947 0-.984803-.080392-1.346567-.241176-.361764-.167484-.638112-.415359-.829043-.743627-.190931-.328267-.324918-.693381-.40196-1.095342-.077043-.40196-.115564-.884312-.115564-1.447057v-7.536755c0-.562744.038521-1.043422.115564-1.442032.077042-.398611.211029-.7587.40196-1.080269.190931-.321568.467279-.561069.829043-.718504.361764-.157434.81062-.236151 1.346567-.236151s.984803.078717 1.346567.236151c.361764.157435.638112.396936.829043.718504.190931.321569.324918.681658.40196 1.080269.077043.39861.115564.879288.115564 1.442032v7.536755c0 .562745-.038521 1.045097-.115564 1.447057-.077042.401961-.211029.767075-.40196 1.095342-.190931.328268-.467279.574468-.829043.738602s-.81062.246201-1.346567.246201zm8.049255 1.055145v-9.797781c.716829-.730228 1.400161-1.095342 2.049997-1.095342.388562 0 .674958.127287.85919.381862s.276348.683333.276348 1.286273v9.224988h1.507351v-9.546556c0-.81062-.157435-1.435333-.472303-1.87414-.314869-.438807-.767075-.65821-1.356616-.65821-1.031698 0-1.986354.472303-2.863967 1.41691v-1.236028h-1.507351v11.898024zm8.642146 0v-16.661253h-1.5174v16.661253zm2.502202 2.964458c1.0183 0 1.793748-.162459 2.326345-.487377.532598-.324918.885988-.86589 1.060171-1.622915l2.884065-12.75219h-1.5174l-1.989704 10.11935-2.070095-10.11935h-1.507351c.040196.160784.418708 1.782024 1.135538 4.86372.716829 3.081695 1.155635 4.95416 1.316419 5.617395.200981.850815.318219 1.400161.351716 1.648037.020098.140686.030147.267973.030147.381862-.0067.214379-.040196.388562-.10049.522548-.093791.20768-.321569.368464-.683333.482353-.361764.113888-.90441.170833-1.627939.170833v1.175734zm14.792139-2.813722c.395261 0 .817319-.043546 1.266175-.130637v-1.135538c-.288072.053594-.569444.080392-.844117.080392-.428758 0-.71348-.112214-.854166-.336642s-.211029-.638112-.211029-1.241052v-8.280382h1.979655v-1.004901h-1.979655v-3.677936h-1.507351v3.677936h-1.437008v1.004901h1.437008v8.421068c.006699.857515.164134 1.509026.472303 1.954532.30817.445506.867565.668259 1.678185.668259zm4.562249-.150736v-9.134547c.556045-.924509 1.31642-1.386763 2.281124-1.386763.267974 0 .50915.043546.723529.130637v-1.627939c-.053595-.006699-.140686-.010049-.261274-.010049-.495751 0-.986478.144036-1.47218.432107-.485702.288072-.909435.733578-1.271199 1.336518v-1.637988h-1.507351v11.898024zm6.562001.190932c.596241 0 1.110416-.175858 1.542523-.527573s.738602-.788847.919484-1.311396l.221078 1.648037h1.336518c-.073693-.616339-.110539-1.403511-.110539-2.361516v-5.788228c0-1.373364-.221078-2.371566-.663234-2.994604-.442157-.623039-1.189133-.934558-2.240929-.934558-1.018299 0-1.795423.2529-2.33137.7587s-.827368 1.318095-.874263 2.436884c-.006699.046896-.010049.167484-.010049.361765l1.487253.050245v-.432108c0-1.359965.549346-2.039948 1.648037-2.039948.569444 0 .958005.206005 1.165685.618014.207679.412009.311519 1.16401.311519 2.256002v.854165c-.649836.288072-1.175734.532598-1.577694.733578s-.803921.420383-1.205881.65821c-.40196.237826-.711805.462254-.929533.673283-.217729.21103-.418709.453881-.60294.728553-.184232.274673-.309845.567769-.376838.879289-.066994.311519-.10049.664909-.10049 1.06017 0 .757025.224428 1.391787.673283 1.904287.448856.512499 1.021649.768749 1.71838.768749zm.492402-1.296322c-.395261 0-.723529-.142361-.984803-.427083s-.391911-.718504-.391911-1.301346c0-.20768.013398-.396936.040196-.567769.026797-.170833.077042-.333292.150735-.487377s.14571-.289747.216054-.406985c.070343-.117238.184231-.242851.341666-.376838.157434-.133987.296445-.247875.417034-.341666.120588-.093791.303145-.211029.54767-.351715.244526-.140686.453881-.257925.628063-.351715.174183-.093791.425408-.227778.753676-.401961.087091-.046895.150735-.080392.190931-.10049v3.708084c-.194281.381862-.460579.711804-.798896.989827-.338317.278022-.708455.417034-1.110415.417034zm7.878421 1.10539v-10.802682h1.92941v-1.095342h-1.92941v-1.396812c0-.623038.066994-1.06352.20098-1.321444.133987-.257925.415359-.386887.844117-.386887.087091 0 .368464.036846.844117.110539v-1.135538c-.448856-.087091-.854166-.130637-1.21593-.130637-.321569 0-.602941.031822-.844117.095466s-.440481.164134-.597916.30147c-.157434.137336-.284722.286397-.381862.447181s-.170833.365114-.221078.612989c-.050245.247876-.083742.489052-.10049.723529-.016749.234477-.025123.515849-.025123.844116v1.236028h-1.547547v1.095342h1.547547v10.802682zm5.516905 0v-10.802682h1.929409v-1.095342h-1.929409v-1.396812c0-.623038.066993-1.06352.20098-1.321444.133987-.257925.415359-.386887.844117-.386887.087091 0 .368463.036846.844116.110539v-1.135538c-.448855-.087091-.854165-.130637-1.215929-.130637-.321569 0-.602941.031822-.844117.095466s-.440482.164134-.597916.30147-.284722.286397-.381862.447181c-.097141.160784-.170833.365114-.221078.612989-.050245.247876-.083742.489052-.10049.723529-.016749.234477-.025123.515849-.025123.844116v1.236028h-1.547547v1.095342h1.547547v10.802682zm4.944111-13.536012v-2.049997h-1.5174v2.049997zm-.010049 13.536012v-11.898024h-1.507351v11.898024zm5.486758.190932c.502451 0 .937908-.066994 1.306371-.200981.368464-.133986.66156-.313194.879288-.537621.217729-.224428.391912-.515849.522549-.874264s.217728-.728553.261274-1.110415c.043546-.381863.065318-.834068.065318-1.356616v-.582843h-1.396812v.653186c0 .422058-.010049.772099-.030147 1.050121-.020098.278023-.063643.540972-.130637.788847-.066993.247876-.159109.442156-.276347.582843-.117239.140686-.272998.251225-.467279.331617s-.432107.120588-.71348.120588c-.656535 0-1.103716-.237827-1.341542-.71348-.237827-.475653-.35674-1.323119-.35674-2.542398v-3.336271c0-1.306371.110539-2.202407.331617-2.688109.221079-.485702.673284-.728553 1.356616-.728553.602941 0 1.024999.192606 1.266175.577818s.361764 1.086967.361764 2.105267v.562744h1.396812v-.562744c0-.489052-.025122-.916135-.075367-1.281249s-.140686-.711804-.271323-1.040072c-.130637-.328267-.30817-.597916-.532598-.808945s-.517524-.376838-.879288-.497426-.790522-.180882-1.286273-.180882c-.629737 0-1.150611.092116-1.56262.276348-.41201.184232-.736927.480677-.974754.889337-.237826.40866-.403635.899386-.497426 1.472179-.093791.572794-.140686 1.291298-.140686 2.155512v2.773526c0 .589542.021773 1.100367.065319 1.532474.043545.432107.130637.85919.261274 1.281248.130637.422059.309844.76205.537622 1.019975.227777.257924.535947.467278.924508.628062.388562.160785.854166.241177 1.396812.241177zm12.058809-.040196c.395261 0 .817319-.043546 1.266175-.130637v-1.135538c-.288072.053594-.569444.080392-.844117.080392-.428758 0-.71348-.112214-.854166-.336642s-.211029-.638112-.211029-1.241052v-8.280382h1.979655v-1.004901h-1.979655v-3.677936h-1.507351v3.677936h-1.437008v1.004901h1.437008v8.421068c.0067.857515.164134 1.509026.472304 1.954532.308169.445506.867564.668259 1.678184.668259zm5.888718.040196c.60964 0 1.122139-.097141 1.537498-.291422.415359-.19428.741952-.489051.979778-.884312.237827-.395261.406985-.85919.507475-1.391788.10049-.532597.150735-1.174059.150735-1.924385v-3.296074c0-1.52075-.232802-2.647913-.698406-3.381491-.465604-.733577-1.291297-1.100366-2.47708-1.100366-1.179084 0-2.003102.368464-2.472056 1.105391s-.70343 1.862416-.70343 3.376466v3.296074c0 .750326.050245 1.391788.150735 1.924385.10049.532598.269648.996527.507475 1.391788.237826.395261.564419.690032.979778.884312.415359.194281.927858.291422 1.537498.291422zm0-1.135538c-.254575 0-.475653-.033497-.663235-.10049-.187581-.066994-.341666-.175858-.462254-.326593s-.217728-.311519-.291421-.482352-.128962-.393586-.165809-.668259c-.036846-.274673-.060294-.534272-.070343-.778798s-.015073-.551021-.015073-.919484v-3.456859c0-.368463.005024-.674958.015073-.919484s.033497-.504125.070343-.778798c.036847-.274673.092116-.497426.165809-.668259s.170833-.331617.291421-.482352.274673-.2596.462254-.326593c.187582-.066993.40866-.10049.663235-.10049.30147 0 .556045.055269.763724.165808.20768.11054.370139.249551.487377.417034.117239.167484.206005.40531.266299.71348.060294.308169.098815.60294.115563.884312.016749.281373.025123.646487.025123 1.095342l-.000149 3.558954c-.001189.402436-.009514.733518-.024974.993246-.016748.281373-.055269.576143-.115563.884313-.060294.308169-.14906.545996-.266299.713479-.117238.167484-.279697.306495-.487377.417034-.207679.110539-.462254.165809-.763724.165809zm-82.964602 28.933905v-16.661254h-1.21593c-.334967.462254-.778798.85919-1.331493 1.190807-.552696.331618-1.070219.56107-1.552572.688357v1.21593c1.514051-.415359 2.378265-.780473 2.592644-1.095342v14.661502zm8.019108.211029c2.52565 0 3.788475-1.728429 3.788475-5.185288v-6.652442c0-3.476957-1.276224-5.215435-3.828671-5.215435-2.646239 0-3.969358 1.691583-3.969358 5.074749 0 1.768625.264624 3.038149.793871 3.808573.529248.770424 1.463806 1.155636 2.803673 1.155636.636437 0 1.184108-.095466 1.643013-.286397s.805595-.420383 1.040072-.688357v3.13529c0 1.299672-.189256 2.224181-.567769 2.773526-.378512.549346-.939582.824019-1.683208.824019-.870914 0-1.478879-.222753-1.823895-.668259s-.517524-1.204206-.517524-2.2761h-1.487253v.30147c.033497 2.599343 1.303021 3.899015 3.808574 3.899015zm-.060294-8.179892c-.361765 0-.673284-.035171-.934558-.105514s-.480678-.187582-.65821-.351716c-.177532-.164133-.319893-.348365-.427083-.552695-.107189-.20433-.189256-.473978-.246201-.808945-.056944-.334967-.095465-.671609-.115563-1.009925-.020098-.338317-.030147-.7587-.030147-1.261151 0-1.199181.199305-2.086843.597916-2.662987.39861-.576143 1.009925-.864214 1.833944-.864214.810619 0 1.398486.296446 1.7636.889337s.547671 1.555921.547671 2.889089v2.874016c-.582842.643137-1.359965.964705-2.331369.964705zm13.596306 7.968863v-1.276224h-5.788228l4.160289-6.310777c.274673-.408659.479003-.718504.612989-.929533.133987-.211029.306495-.509149.517524-.894361s.366789-.721854.467279-1.009926c.10049-.288071.190931-.626388.271323-1.014949.080392-.388562.120588-.780473.120588-1.175734 0-1.346567-.323243-2.388314-.969729-3.125241s-1.589418-1.105391-2.828795-1.105391c-1.380064 0-2.389989.391911-3.029776 1.175734-.639787.783822-.95968 1.956206-.95968 3.517152v.422059h1.497302v-.381863c0-.522548.038521-.979778.115563-1.371689.077043-.391911.206005-.753676.386887-1.085293s.443831-.584517.788847-.7587.768749-.261274 1.2712-.261274c.730228 0 1.282923.2529 1.658086.7587s.562744 1.210905.562744 2.115316c0 .214379-.008374.422058-.025122.623038-.016749.20098-.05192.403635-.105515.607965s-.10049.381862-.140686.532598c-.040196.150735-.108864.328267-.206005.532597-.09714.20433-.172508.361764-.226102.472303-.053595.110539-.147386.278023-.281372.502451-.133987.224427-.227778.378512-.281373.462254-.053594.083742-.164133.24955-.331617.497426-.167483.247875-.274673.412009-.321568.492401l-4.481857 6.88357v1.105391zm4.240681 0v-2.261027h-1.597792v2.261027zm6.823276 0v-16.661254h-1.21593c-.334967.462254-.778798.85919-1.331494 1.190807-.552695.331618-1.070219.56107-1.552571.688357v1.21593c1.51405-.415359 2.378265-.780473 2.592644-1.095342v14.661502zm8.08945.211029c2.63284 0 3.94926-1.694933 3.94926-5.084798 0-1.775324-.266299-3.048198-.798896-3.818622s-1.46548-1.155636-2.798648-1.155636c-.549346 0-1.06352.09714-1.542523.291421s-.86254.425408-1.150611.693382v-3.14534c0-2.391663.793871-3.587495 2.381614-3.587495.803921 0 1.37504.226103 1.713356.678308.338317.452205.507475 1.207555.507475 2.266051h1.487253c0-.006699-.001675-.060294-.005025-.160784-.003349-.10049-.005024-.154085-.005024-.160784-.013399-1.292973-.328268-2.261027-.944607-2.904163-.616339-.643137-1.547547-.964705-2.793624-.964705-2.565846 0-3.848769 1.72508-3.848769 5.175239v6.652442c0 3.483656 1.282923 5.225484 3.848769 5.225484zm0-1.266175c-.81062 0-1.403511-.298121-1.778674-.894362s-.562744-1.557596-.562744-2.884065v-2.884065c.241176-.234477.581167-.452205 1.019974-.653185s.879288-.30147 1.321444-.30147c.361765 0 .673284.035171.934558.105514s.480678.187582.65821.351715c.177532.164134.319893.348366.427083.552696.107189.20433.189256.473978.2462.808945.056945.334967.095466.671609.115564 1.009925.020098.338317.030147.7587.030147 1.261151 0 1.239377-.194281 2.137088-.582842 2.693133-.388562.556045-.998202.834068-1.82892.834068zm9.898272 1.266175c2.612742 0 3.919113-1.560946 3.919113-4.682837 0-.556045-.050245-1.056821-.150735-1.502327s-.221078-.80727-.361764-1.085293c-.140686-.278022-.329943-.535947-.567769-.773773-.237827-.237827-.448856-.415359-.633088-.532598-.184231-.117238-.413684-.2462-.688357-.386886 1.487253-.60964 2.23088-1.899263 2.23088-3.868868 0-1.299672-.30147-2.32802-.904411-3.085045-.60294-.757025-1.550896-1.135538-2.843869-1.135538-1.299671 0-2.249302.373488-2.848893 1.120464s-.899386 1.766951-.899386 3.059923c0 1.996403.740277 3.299424 2.22083 3.909064-.274673.133986-.504125.261274-.688357.381862s-.393586.29812-.628063.532597-.422058.490727-.562744.768749c-.140686.278023-.261274.641462-.361764 1.090318-.10049.448855-.150735.951306-.150735 1.507351 0 3.121891 1.30637 4.682837 3.919112 4.682837zm0-9.636998c-1.507351-.066993-2.261026-1.148936-2.261026-3.245829 0-1.969605.753675-2.954408 2.261026-2.954408s2.261027.984803 2.261027 2.954408c0 2.096893-.753676 3.178836-2.261027 3.245829zm0 8.421068c-.824018 0-1.440357-.281372-1.849017-.844117-.40196-.562744-.60294-1.437008-.60294-2.62279 0-2.244279.817319-3.433411 2.451957-3.567398 1.627939.133987 2.441909 1.323119 2.441909 3.567398 0 1.179083-.20098 2.051672-.60294 2.617766-.401961.566094-1.01495.849141-1.838969.849141zm7.808079 1.004901v-2.261027h-1.597792v2.261027zm9.476213 0v-1.276224h-5.788228l4.160289-6.310777c.274673-.408659.479003-.718504.61299-.929533.133986-.211029.306494-.509149.517523-.894361.21103-.385212.366789-.721854.467279-1.009926.10049-.288071.190931-.626388.271323-1.014949.080393-.388562.120589-.780473.120589-1.175734 0-1.346567-.323243-2.388314-.96973-3.125241-.646486-.736927-1.589418-1.105391-2.828795-1.105391-1.380064 0-2.389989.391911-3.029776 1.175734-.639786.783822-.95968 1.956206-.95968 3.517152v.422059h1.497302v-.381863c0-.522548.038521-.979778.115564-1.371689.077042-.391911.206004-.753676.386887-1.085293.180882-.331617.443831-.584517.788847-.7587.345015-.174183.768749-.261274 1.271199-.261274.730228 0 1.282923.2529 1.658086.7587s.562745 1.210905.562745 2.115316c0 .214379-.008375.422058-.025123.623038s-.05192.403635-.105515.607965c-.053594.20433-.10049.381862-.140686.532598-.040196.150735-.108864.328267-.206004.532597-.097141.20433-.172508.361764-.226103.472303s-.147385.278023-.281372.502451c-.133987.224427-.227778.378512-.281372.462254-.053595.083742-.164134.24955-.331618.497426-.167483.247875-.274672.412009-.321568.492401l-4.481857 6.88357v1.105391zm4.240681 0v-2.261027h-1.597792v2.261027zm5.979159.211029c2.652938 0 3.979407-1.641338 3.979407-4.924014v-7.235285c0-3.262577-1.326469-4.893866-3.979407-4.893866-2.646238 0-3.969357 1.631289-3.969357 4.893866v7.235285c0 3.282676 1.323119 4.924014 3.969357 4.924014zm0-1.21593c-1.627939 0-2.441908-1.192482-2.441908-3.577446v-7.486511c0-.535947.038521-1.009925.115563-1.421934.077043-.412009.206005-.785498.386887-1.120464.180882-.334967.433782-.591217.7587-.76875.324918-.177532.718504-.266298 1.180758-.266298.462255 0 .857516.088766 1.185783.266298.328268.177533.581168.435457.7587.773774.177533.338317.30482.711805.381863 1.120464.077042.40866.115563.880963.115563 1.41691v7.486511c0 2.384964-.813969 3.577446-2.441909 3.577446z" fill="#4c688d" transform="matrix(.8660254 .5 -.5 .8660254 275.918356 -322.004478)"/><path d="m653.506219 141.53007v-16.661253h-1.547547v16.661253zm4.15024 0v-9.797782c.716829-.730227 1.400162-1.095341 2.049997-1.095341.388562 0 .674959.127287.859191.381862.184231.254575.276347.683332.276347 1.286273v9.224988h1.507351v-9.546556c0-.81062-.157434-1.435334-.472303-1.87414-.314869-.438807-.767074-.65821-1.356616-.65821-1.031698 0-1.986354.472303-2.863967 1.41691v-1.236028h-1.507351v11.898024zm9.737488.150735c.395261 0 .817319-.043545 1.266175-.130637v-1.135538c-.288072.053595-.569444.080392-.844117.080392-.428758 0-.713479-.112213-.854166-.336641-.140686-.224428-.211029-.638112-.211029-1.241053v-8.280381h1.979655v-1.004901h-1.979655v-3.677937h-1.507351v3.677937h-1.437008v1.004901h1.437008v8.421067c.0067.857516.164134 1.509026.472304 1.954532.308169.445506.867564.668259 1.678184.668259zm5.928914.040196c1.098691 0 1.889213-.311519 2.371566-.934557.482352-.623039.723528-1.510701.723528-2.662987v-.663235h-1.477204v.824019c0 .870914-.140686 1.472179-.422058 1.803797-.281372.331617-.683333.497426-1.205881.497426-.656535 0-1.103716-.254575-1.341543-.763725-.237826-.50915-.356739-1.380064-.356739-2.612742v-1.778674h4.803425l.010049-1.075244c0-.70343-.026797-1.304696-.080392-1.803797-.053595-.4991-.14906-.954655-.286397-1.366665-.137336-.412009-.323243-.738602-.55772-.979778-.234476-.241176-.529247-.427083-.884312-.55772s-.783823-.195955-1.286273-.195955c-.757025 0-1.36499.137336-1.823895.412009-.458904.274673-.80727.752001-1.045097 1.431984-.237826.679982-.356739 1.599466-.356739 2.758452v3.004653c0 1.701632.251225 2.904163.753675 3.607594.502451.70343 1.323119 1.055145 2.462007 1.055145zm1.61789-7.154893h-3.326221v-.80392c0-1.239378.125612-2.080145.376838-2.522301.251225-.442156.695056-.663234 1.331493-.663234.281372 0 .522548.046895.723528.140686.200981.09379.358415.217728.472304.371813s.202655.366789.266298.638112c.063644.271323.105515.544321.125613.818994s.030147.619689.030147 1.035048zm5.145092 6.963962v-9.134547c.556045-.924509 1.31642-1.386763 2.281124-1.386763.267974 0 .50915.043546.723529.130637v-1.627939c-.053595-.0067-.140686-.010049-.261274-.010049-.495751 0-.986478.144036-1.47218.432107-.485702.288072-.909435.733578-1.271199 1.336518v-1.637988h-1.507351v11.898024zm6.009306 0v-9.797782c.716829-.730227 1.400161-1.095341 2.049997-1.095341.388562 0 .674959.127287.85919.381862.184232.254575.276348.683332.276348 1.286273v9.224988h1.507351v-9.546556c0-.81062-.157434-1.435334-.472303-1.87414-.314869-.438807-.767074-.65821-1.356616-.65821-1.031698 0-1.986354.472303-2.863967 1.41691v-1.236028h-1.507351v11.898024zm9.908321.190931c1.098691 0 1.889213-.311519 2.371565-.934557.482353-.623039.723529-1.510701.723529-2.662987v-.663235h-1.477204v.824019c0 .870914-.140686 1.472179-.422058 1.803797-.281373.331617-.683333.497426-1.205881.497426-.656535 0-1.103716-.254575-1.341543-.763725-.237826-.50915-.356739-1.380064-.356739-2.612742v-1.778674h4.803425l.010049-1.075244c0-.70343-.026797-1.304696-.080392-1.803797-.053595-.4991-.14906-.954655-.286397-1.366665-.137336-.412009-.323243-.738602-.55772-.979778s-.529247-.427083-.884312-.55772-.783823-.195955-1.286273-.195955c-.757025 0-1.36499.137336-1.823895.412009s-.80727.752001-1.045097 1.431984c-.237826.679982-.35674 1.599466-.35674 2.758452v3.004653c0 1.701632.251226 2.904163.753676 3.607594.50245.70343 1.323119 1.055145 2.462007 1.055145zm1.61789-7.154893h-3.326221v-.80392c0-1.239378.125612-2.080145.376837-2.522301s.695057-.663234 1.331494-.663234c.281372 0 .522548.046895.723528.140686.20098.09379.358415.217728.472304.371813.113888.154085.202655.366789.266298.638112.063644.271323.105515.544321.125613.818994s.030147.619689.030147 1.035048zm6.340923 7.114697c.395261 0 .817319-.043545 1.266175-.130637v-1.135538c-.288071.053595-.569444.080392-.844116.080392-.428758 0-.71348-.112213-.854166-.336641s-.211029-.638112-.211029-1.241053v-8.280381h1.979654v-1.004901h-1.979654v-3.677937h-1.507351v3.677937h-1.437008v1.004901h1.437008v8.421067c.006699.857516.164134 1.509026.472303 1.954532.30817.445506.867564.668259 1.678184.668259zm9.958566 0c.395261 0 .817319-.043545 1.266175-.130637v-1.135538c-.288071.053595-.569444.080392-.844117.080392-.428757 0-.713479-.112213-.854165-.336641s-.211029-.638112-.211029-1.241053v-8.280381h1.979654v-1.004901h-1.979654v-3.677937h-1.507351v3.677937h-1.437008v1.004901h1.437008v8.421067c.006699.857516.164133 1.509026.472303 1.954532s.867564.668259 1.678184.668259zm4.562249-.150735v-9.134547c.556045-.924509 1.31642-1.386763 2.281125-1.386763.267973 0 .50915.043546.723528.130637v-1.627939c-.053594-.0067-.140686-.010049-.261274-.010049-.495751 0-.986477.144036-1.472179.432107-.485702.288072-.909435.733578-1.2712 1.336518v-1.637988h-1.507351v11.898024zm6.562002.190931c.596241 0 1.110415-.175857 1.542523-.527573.432107-.351715.738602-.788847.919484-1.311395l.221078 1.648037h1.336518c-.073693-.616339-.110539-1.403511-.110539-2.361516v-5.788229c0-1.373364-.221078-2.371565-.663235-2.994604-.442156-.623038-1.189132-.934557-2.240928-.934557-1.0183 0-1.795423.2529-2.33137.7587s-.827368 1.318095-.874264 2.436884c-.006699.046895-.010049.167483-.010049.361764l1.487253.050245v-.432107c0-1.359966.549346-2.039948 1.648038-2.039948.569443 0 .958005.206004 1.165684.618013.20768.41201.31152 1.16401.31152 2.256003v.854165c-.649836.288072-1.175734.532598-1.577694.733578-.401961.20098-.803921.420383-1.205881.65821-.401961.237826-.711805.462254-.929533.673283-.217729.211029-.418709.45388-.602941.728553s-.309844.567769-.376838.879288c-.066993.311519-.10049.664909-.10049 1.06017 0 .757026.224428 1.391788.673284 1.904287.448855.5125 1.021649.768749 1.71838.768749zm.492401-1.296322c-.395261 0-.723528-.142361-.984802-.427082-.261275-.284722-.391912-.718504-.391912-1.301347 0-.207679.013399-.396936.040196-.567769.026798-.170833.077043-.333292.150735-.487377.073693-.154084.145711-.289746.216054-.406984.070343-.117239.184232-.242851.341666-.376838.157435-.133987.296446-.247876.417034-.341666.120588-.093791.303145-.211029.547671-.351716.244526-.140686.45388-.257924.628063-.351715s.425408-.227777.753675-.40196c.087092-.046895.150736-.080392.190932-.10049v3.708083c-.194281.381863-.46058.711805-.798896.989828-.338317.278022-.708455.417033-1.110416.417033zm7.878422 1.105391v-10.802682h1.929409v-1.095342h-1.929409v-1.396812c0-.623039.066993-1.06352.20098-1.321445.133987-.257924.415359-.386886.844116-.386886.087092 0 .368464.036846.844117.110539v-1.135538c-.448856-.087091-.854166-.130637-1.21593-.130637-.321568 0-.60294.031822-.844116.095465-.241177.063644-.440482.164134-.597916.301471-.157435.137336-.284722.286396-.381863.447181-.09714.160784-.170833.365113-.221078.612989-.050245.247875-.083741.489052-.10049.723528-.016748.234477-.025122.515849-.025122.844117v1.236028h-1.547547v1.095342h1.547547v10.802682zm5.516905 0v-10.802682h1.929409v-1.095342h-1.929409v-1.396812c0-.623039.066993-1.06352.20098-1.321445.133987-.257924.415359-.386886.844116-.386886.087092 0 .368464.036846.844117.110539v-1.135538c-.448856-.087091-.854166-.130637-1.21593-.130637-.321568 0-.60294.031822-.844117.095465-.241176.063644-.440481.164134-.597915.301471-.157435.137336-.284722.286396-.381863.447181-.09714.160784-.170833.365113-.221078.612989-.050245.247875-.083742.489052-.10049.723528-.016748.234477-.025122.515849-.025122.844117v1.236028h-1.547548v1.095342h1.547548v10.802682zm4.944111-13.536012v-2.049998h-1.5174v2.049998zm-.010049 13.536012v-11.898024h-1.507351v11.898024zm5.486758.190931c.50245 0 .937907-.066993 1.306371-.20098.368463-.133987.661559-.313194.879288-.537622.217728-.224428.391911-.515849.522548-.874263.130637-.358415.217729-.728553.261274-1.110416.043546-.381862.065319-.834067.065319-1.356616v-.582842h-1.396812v.653186c0 .422058-.010049.772098-.030147 1.050121-.020098.278022-.063644.540971-.130637.788847-.066993.247875-.159109.442156-.276348.582842-.117238.140686-.272998.251225-.467279.331617-.19428.080392-.432107.120589-.713479.120589-.656535 0-1.103716-.237827-1.341543-.71348-.237826-.475653-.356739-1.323119-.356739-2.542399v-3.33627c0-1.306371.110539-2.202407.331617-2.688109s.673283-.728553 1.356616-.728553c.60294 0 1.024999.192606 1.266175.577817.241176.385212.361764 1.086968.361764 2.105267v.562745h1.396812v-.562745c0-.489051-.025123-.916134-.075368-1.281248s-.140686-.711805-.271323-1.040072c-.130637-.328268-.308169-.597916-.532597-.808945s-.517524-.376838-.879288-.497426-.790522-.180882-1.286273-.180882c-.629738 0-1.150611.092116-1.562621.276347-.412009.184232-.736927.480678-.974753.889338-.237827.408659-.403636.899386-.497426 1.472179-.093791.572793-.140686 1.291297-.140686 2.155512v2.773526c0 .589542.021773 1.100366.065318 1.532474.043546.432107.130637.85919.261274 1.281248s.309845.76205.537622 1.019974c.227778.257925.535947.467279.924509.628063s.854165.241176 1.396812.241176z" fill="#4c688d" transform="matrix(.83867057 -.54463904 .54463904 .83867057 40.683651 403.935522)"/><path d="m869.554242 335.620432c.50245 0 .937907-.066994 1.306371-.200981.368464-.133986.66156-.313194.879288-.537622.217729-.224427.391911-.515849.522549-.874263.130637-.358415.217728-.728553.261274-1.110415.043545-.381863.065318-.834068.065318-1.356616v-.582843h-1.396812v.653186c0 .422058-.010049.772098-.030147 1.050121-.020098.278022-.063643.540971-.130637.788847-.066993.247875-.159109.442156-.276348.582842-.117238.140686-.272998.251226-.467278.331618-.194281.080392-.432108.120588-.71348.120588-.656535 0-1.103716-.237827-1.341542-.71348-.237827-.475653-.35674-1.323119-.35674-2.542399v-3.33627c0-1.306371.110539-2.202407.331617-2.688109s.673284-.728553 1.356616-.728553c.602941 0 1.024999.192606 1.266175.577818s.361764 1.086967.361764 2.105267v.562744h1.396812v-.562744c0-.489052-.025122-.916135-.075367-1.281249s-.140686-.711804-.271324-1.040072c-.130637-.328268-.308169-.597916-.532597-.808945s-.517524-.376838-.879288-.497426-.790522-.180882-1.286273-.180882c-.629738 0-1.150611.092116-1.56262.276348-.41201.184231-.736928.480677-.974754.889337-.237827.408659-.403635.899386-.497426 1.472179-.093791.572794-.140686 1.291298-.140686 2.155512v2.773526c0 .589542.021773 1.100366.065318 1.532474.043546.432107.130638.85919.261275 1.281248s.309844.76205.537622 1.019974c.227777.257925.535947.467279.924508.628063.388562.160784.854166.241177 1.396812.241177zm6.762982-.190932v-16.661253h-1.5174v16.661253zm5.386268.190932c.609639 0 1.122139-.097141 1.537498-.291422s.741951-.489051.979778-.884312c.237826-.395261.406985-.85919.507475-1.391788.10049-.532597.150735-1.174059.150735-1.924385v-3.296074c0-1.52075-.232802-2.647913-.698406-3.381491-.465604-.733577-1.291298-1.100366-2.47708-1.100366-1.179084 0-2.003102.368464-2.472056 1.105391s-.703431 1.862416-.703431 3.376466v3.296074c0 .750326.050245 1.391788.150735 1.924385.100491.532598.269649.996527.507475 1.391788.237827.395261.56442.690031.979779.884312.415358.194281.927858.291422 1.537498.291422zm0-1.135538c-.254575 0-.475653-.033497-.663235-.10049-.187581-.066994-.341666-.175858-.462254-.326593s-.217729-.311519-.291421-.482352c-.073693-.170834-.128963-.393587-.165809-.668259-.036846-.274673-.060294-.534273-.070343-.778798-.010049-.244526-.015074-.551021-.015074-.919485v-3.456858c0-.368464.005025-.674958.015074-.919484s.033497-.504125.070343-.778798.092116-.497426.165809-.668259c.073692-.170833.170833-.331617.291421-.482352.120588-.150736.274673-.2596.462254-.326593.187582-.066994.40866-.10049.663235-.10049.30147 0 .556045.055269.763724.165808.20768.110539.370139.249551.487377.417034.117238.167484.206005.40531.266299.71348.060294.308169.098815.60294.115563.884312.016749.281372.025123.646486.025123 1.095342l-.000149 3.558954c-.001189.402436-.009514.733518-.024974.993246-.016748.281372-.055269.576143-.115563.884313-.060294.308169-.149061.545996-.266299.713479-.117238.167484-.279697.306495-.487377.417034-.207679.110539-.462254.165809-.763724.165809zm6.994108 1.125488c1.058496 0 2.0299-.4991 2.914212-1.497302v1.31642h1.507352v-11.898024h-1.507352v9.727439c-.730227.777123-1.433658 1.165685-2.110291 1.165685-.388562 0-.673283-.127288-.854166-.381863-.180882-.254574-.271323-.683332-.271323-1.286272v-9.224989h-1.5174v9.536508c0 .81062.157435 1.437008.472304 1.879164.314868.442156.770423.663234 1.366664.663234zm9.375724.01005c.750326-.0067 1.426959-.351716 2.029899-1.035048v.844116h1.507351v-16.661253h-1.507351v5.617395c-.616339-.683333-1.31642-1.028349-2.100242-1.035048-.448856 0-.837417.078717-1.165685.236152-.328267.157434-.596241.373488-.80392.648161-.20768.274672-.375163.629737-.502451 1.065194-.127287.435457-.214379.901061-.261274 1.396812s-.070343 1.071894-.070343 1.728429v2.200733c0 1.788723.222753 3.068297.668259 3.838721s1.180758 1.155636 2.205757 1.155636zm.30147-1.195832c-.656535 0-1.098691-.288072-1.326469-.864215-.227777-.576143-.341666-1.51405-.341666-2.813722v-2.803673c0-1.205881.112214-2.07512.336642-2.607717.224428-.532598.65486-.798896 1.291297-.798896.576143 0 1.165685.281372 1.768625.844116v8.260284c-.569443.522548-1.145586.783823-1.728429.783823zm7.79803 1.0049v-10.802682h1.929409v-1.095342h-1.929409v-1.396812c0-.623038.066993-1.06352.20098-1.321444.133987-.257925.415359-.386887.844116-.386887.087092 0 .368464.036846.844117.110539v-1.135538c-.448856-.087091-.854166-.130637-1.21593-.130637-.321568 0-.60294.031822-.844116.095466-.241177.063643-.440482.164133-.597916.30147-.157435.137336-.284722.286397-.381863.447181-.09714.160784-.170833.365114-.221078.612989-.050245.247876-.083742.489052-.10049.723529-.016748.234476-.025122.515849-.025122.844116v1.236028h-1.547547v1.095342h1.547547v10.802682zm4.984307 0v-16.661253h-1.5174v16.661253zm4.491906.190932c.596241 0 1.110415-.175858 1.542523-.527573.432107-.351716.738602-.788847.919484-1.311396l.221078 1.648037h1.336518c-.073693-.616339-.110539-1.403511-.110539-2.361516v-5.788228c0-1.373365-.221078-2.371566-.663235-2.994604-.442156-.623039-1.189132-.934558-2.240928-.934558-1.018299 0-1.795423.2529-2.33137.7587s-.827368 1.318095-.874263 2.436884c-.0067.046896-.010049.167484-.010049.361764l1.487253.050245v-.432107c0-1.359965.549345-2.039948 1.648037-2.039948.569444 0 .958005.206004 1.165685.618014.207679.412009.311519 1.16401.311519 2.256002v.854165c-.649836.288072-1.175734.532598-1.577694.733578s-.803921.420383-1.205881.65821c-.40196.237826-.711805.462254-.929533.673283-.217729.211029-.418709.45388-.602941.728553-.184231.274673-.309844.567769-.376837.879288-.066994.31152-.10049.66491-.10049 1.060171 0 .757025.224427 1.391787.673283 1.904286.448856.5125 1.021649.76875 1.71838.76875zm.492402-1.296322c-.395261 0-.723529-.142361-.984803-.427083s-.391911-.718504-.391911-1.301347c0-.207679.013398-.396935.040196-.567768.026797-.170834.077042-.333293.150735-.487377.073692-.154085.14571-.289747.216053-.406985.070343-.117239.184232-.242851.341667-.376838.157434-.133987.296445-.247875.417033-.341666.120589-.093791.303145-.211029.547671-.351715s.45388-.257925.628063-.351716c.174183-.09379.425408-.227777.753676-.40196.087091-.046895.150735-.080392.190931-.10049v3.708084c-.194281.381862-.46058.711804-.798896.989827-.338317.278022-.708455.417034-1.110415.417034zm7.245334 1.10539v-9.134547c.556045-.924509 1.31642-1.386763 2.281124-1.386763.267974 0 .50915.043546.723529.130637v-1.627939c-.053595-.006699-.140686-.010049-.261274-.010049-.495751 0-.986478.144036-1.47218.432107-.485702.288072-.909435.733578-1.271199 1.336518v-1.637988h-1.507351v11.898024zm7.496559.190932c1.098691 0 1.889213-.31152 2.371565-.934558.482353-.623039.723529-1.510701.723529-2.662987v-.663234h-1.477204v.824018c0 .870914-.140686 1.47218-.422058 1.803797-.281373.331617-.683333.497426-1.205881.497426-.656535 0-1.103716-.254575-1.341543-.763725-.237826-.50915-.356739-1.380063-.356739-2.612742v-1.778674h4.803425l.010049-1.075244c0-.70343-.026797-1.304696-.080392-1.803796-.053595-.499101-.14906-.954656-.286397-1.366665-.137336-.41201-.323243-.738602-.55772-.979779-.234476-.241176-.529247-.427082-.884312-.557719s-.783823-.195956-1.286273-.195956c-.757025 0-1.36499.137336-1.823895.412009s-.80727.752001-1.045097 1.431984c-.237826.679983-.356739 1.599467-.356739 2.758452v3.004653c0 1.701632.251225 2.904163.753675 3.607594.50245.70343 1.323119 1.055146 2.462007 1.055146zm1.61789-7.154893h-3.326221v-.803921c0-1.239378.125612-2.080144.376837-2.522301.251226-.442156.695057-.663234 1.331494-.663234.281372 0 .522548.046895.723528.140686s.358415.217728.472304.371813c.113888.154085.202655.366789.266298.638112.063644.271323.105515.544321.125613.818994s.030147.619689.030147 1.035048zm6.17009 7.154893c.750326-.0067 1.426959-.351716 2.0299-1.035048v.844116h1.507351v-16.661253h-1.507351v5.617395c-.616339-.683333-1.31642-1.028349-2.100243-1.035048-.448855 0-.837417.078717-1.165685.236152-.328267.157434-.596241.373488-.80392.648161-.20768.274672-.375163.629737-.502451 1.065194-.127287.435457-.214378.901061-.261274 1.396812-.046895.495751-.070343 1.071894-.070343 1.728429v2.200733c0 1.788723.222753 3.068297.668259 3.838721s1.180759 1.155636 2.205757 1.155636zm.30147-1.195832c-.656535 0-1.098691-.288072-1.326468-.864215-.227778-.576143-.341667-1.51405-.341667-2.813722v-2.803673c0-1.205881.112214-2.07512.336642-2.607717.224428-.532598.65486-.798896 1.291297-.798896.576144 0 1.165685.281372 1.768626.844116v8.260284c-.569444.522548-1.145587.783823-1.72843.783823z" fill="#4c688d"/><path d="m763.268317 281.949906v-20.906959h3.798525v-4.084922h-13.174249v4.084922h3.843746v20.906959zm8.787857.30147c1.437008 0 2.843868-.648161 4.220582-1.944483v1.643013h5.034553v-17.847037h-5.034553v14.184174c-.552695.351715-1.030023.532597-1.431983.542646-.371813.010049-.6356-.097978-.791359-.32408-.15576-.226103-.23364-.560232-.23364-1.002389v-13.400351h-5.034552v14.003292c0 1.21593.281372 2.210781.844116 2.984555.562745.773773 1.37169 1.16066 2.426836 1.16066zm17.440051-.30147v-13.942997c.623039-.41201 1.145587-.618014 1.567645-.618014.381863-.010049.643137.092953.783823.309007.140686.216053.211029.550183.211029 1.002388v13.249616h5.034552v-14.003291c0-1.21593-.281372-2.210782-.844116-2.984555-.562745-.773774-1.37169-1.160661-2.426835-1.160661-1.467155 0-2.909188.693382-4.326098 2.080145v-1.778675h-5.034552v17.847037zm15.661378 0v-13.942997c.623038-.41201 1.145586-.618014 1.567645-.618014.381862-.010049.643136.092953.783822.309007.140686.216053.211029.550183.211029 1.002388v13.249616h5.034553v-14.003291c0-1.21593-.281372-2.210782-.844117-2.984555-.562744-.773774-1.371689-1.160661-2.426835-1.160661-1.467155 0-2.909187.693382-4.326097 2.080145v-1.778675h-5.034553v17.847037zm16.460273.316544c1.879164 0 3.338783-.469792 4.378855-1.409374s1.560108-2.29871 1.560108-4.077384v-1.040072h-4.672788v1.190807c0 1.155636-.422058 1.733454-1.266175 1.733454-.432107 0-.738602-.183395-.919484-.550184-.180882-.366788-.271323-.911947-.271323-1.635475v-3.135291h7.12977v-3.512128c0-1.979654-.494913-3.479468-1.484741-4.499442-.989827-1.019975-2.474568-1.529962-4.454222-1.529962-1.959556 0-3.479469.525061-4.559737 1.575182s-1.620402 2.534862-1.620402 4.454222v6.391169c0 1.91936.537622 3.406613 1.612865 4.461759 1.075244 1.055146 2.597669 1.582719 4.567274 1.582719zm1.266175-11.274986h-2.456982v-1.477204c0-.773774.097978-1.321445.293933-1.643013.195956-.321568.489889-.482352.881801-.482352.412009 0 .728553.138174.949631.414521.221078.276348.331617.746139.331617 1.409373zm12.646675 10.958442v-24.991881h-5.034552v24.991881z" fill="#000" transform="matrix(.8660254 .5 -.5 .8660254 241.277292 -361.234639)"/></g></g></svg>