<?xml version="1.0" encoding="UTF-8"?>
<svg width="16px" height="16px" viewBox="0 0 16 16" version="1.1" xmlns="http://www.w3.org/2000/svg" xmlns:xlink="http://www.w3.org/1999/xlink">
    <!-- Generator: Sketch 48.1 (47250) - http://www.bohemiancoding.com/sketch -->
    <title>Artboard</title>
    <desc>Created with Sketch.</desc>
    <defs></defs>
    <g id="Page-1" stroke="none" stroke-width="1" fill="none" fill-rule="evenodd">
        <g id="Artboard" fill="#000000" fill-rule="nonzero">
            <g id="safari-pinned-tab" transform="translate(1.500000, 0.000000)">
                <g id="Group" transform="translate(6.500000, 7.993830) scale(-1, 1) rotate(-180.000000) translate(-6.500000, -7.993830) ">
                    <path d="M3.2958589,14.5439589 L0.0797546012,13.1002571 L0.0797546012,10.8750643 C0.0797546012,8.87197943 0.0837423313,8.64781491 0.109662577,8.66015424 C0.127607362,8.66632391 0.151533742,8.65809769 0.165490798,8.63958869 C0.179447853,8.62313625 1.59309816,7.97943445 3.30981595,7.20822622 C7.89570552,5.15372751 7.9595092,5.12493573 7.94156442,5.10642674 C7.92162577,5.08586118 6.49601227,4.44627249 6.47009202,4.44421594 C6.4601227,4.44421594 5.00260736,5.0940874 3.23404908,5.88791774 C1.46349693,6.67969152 0.0119631902,7.32956298 0.00797546012,7.32956298 C0.00398773006,7.32956298 0,6.33007712 0,5.10848329 L0,2.88946015 L0.0558282209,2.85861183 C0.107668712,2.82982005 6.32254601,0.0431876607 6.4202454,0.00205655527 C6.46610429,-0.0164524422 6.86288344,0.156298201 9.58052147,1.37583548 C11.2912577,2.14087404 12.7467791,2.79485861 12.8165644,2.8277635 L12.940184,2.88534704 L12.9361963,5.11876607 L12.9302147,7.35218509 L9.79984663,8.75681234 C8.0791411,9.52802057 6.6196319,10.1840617 6.55981595,10.2128535 C6.5,10.2416452 6.14309816,10.4020566 5.76625767,10.5706941 C5.39141104,10.7372751 5.09033742,10.8812339 5.09831288,10.8874036 C5.12423313,10.9120823 6.52193252,11.5311054 6.5458589,11.5311054 C6.55981595,11.5311054 7.98742331,10.8935733 9.72009202,10.1161954 C11.4527607,9.33881748 12.9003067,8.69100257 12.9361963,8.67660668 L13,8.64781491 L13,10.8750643 L13,13.1043702 L9.78190184,14.5460154 C8.01334356,15.3377892 6.55184049,15.9876607 6.53788344,15.9856041 C6.52193252,15.9856041 5.06242331,15.3357326 3.2958589,14.5439589 Z" id="Shape"></path>
                </g>
            </g>
        </g>
    </g>
</svg>