<?xml version="1.0" encoding="UTF-8"?><svg id="Calque_2" xmlns="http://www.w3.org/2000/svg" viewBox="0 0 404.04 475.49"><defs><style>.cls-1{fill:#e62a45;}.cls-2{fill:#b22145;}.cls-3{fill:#1f2546;}.cls-4{fill:#2e3a66;}</style></defs><g id="Calque_1-2"><g id="Calque_1-2"><g><path class="cls-3" d="m201.97,351.59h0S0,261.15,0,261.15v63.06c0,43.65,25.36,83.37,64.97,101.77l83.82,39.05c16.72,7.74,35.01,11.22,53.18,10.32h0c13.13-.67,26.14-3.7,38.49-9.09l95.71-41.18c41.18-17.84,67.77-58.35,67.77-103.11v-60.81s-201.97,90.44-201.97,90.44Z"/><path class="cls-1" d="m403.93,261.38L122.75,134.92C65.19,109,0,151.19,0,214.36H0l281.18,126.45c57.67,25.92,122.75-16.27,122.75-79.44h0Z"/><path class="cls-3" d="m0,214.36v-63.06C0,107.66,25.25,67.94,64.85,49.54L148.67,10.49c28.95-13.46,62.39-14.03,91.78-1.35l95.71,41.29c41.18,17.73,67.77,58.23,67.77,103v60.81l-201.97-90.44L0,214.36Z"/><path class="cls-3" d="m202.08,124.04V.28c13.13.67,26.14,3.7,38.49,9.09l95.71,41.18c41.18,17.84,67.77,58.35,67.77,103.11v60.81s-201.97-90.44-201.97-90.44Z"/><path class="cls-4" d="m0,214.48v-63.06C0,107.77,25.47,68.05,65.08,49.65L148.89,10.6C165.61,2.86,183.9-.62,202.08.28v123.76L0,214.48Z"/><g><path class="cls-4" d="m202.08,351.59v123.76c13.13-.67,26.14-3.7,38.49-9.09l95.71-41.18c41.18-17.84,67.77-58.35,67.77-103.11v-60.81s-201.97,90.44-201.97,90.44Z"/><path class="cls-3" d="m.11,261.15v63.06c0,43.65,25.36,83.37,64.97,101.77l83.82,39.05c16.72,7.74,35.01,11.22,53.18,10.32v-123.76L.11,261.15Z"/></g></g><polygon class="cls-2" points="150.46 147.15 18.4 222.22 0 214.59 150.46 147.15"/><polygon class="cls-2" points="253.24 328.59 385.31 253.41 403.71 261.04 253.24 328.59"/></g></g></svg>