<svg height="60" viewBox="0 0 60 60" width="60" xmlns="http://www.w3.org/2000/svg"><g fill="none" fill-rule="evenodd"><circle cx="30" cy="30" fill="#fff" r="30"/><g transform="translate(11.368421 8)"><path d="m.42105263 8 18.31578947 7.9638103-.0007895.0081897 17.8955263 7.781284v12.246716l-18.3157894-7.9638103-.0007369-.0091897-17.89399997-7.780284z" fill="#e80000"/><path d="m.42105263 20.2105263v-12.24671597l18.31578947-7.96381033 18.3157895 7.96381033v12.24671597l-18.3157895-7.9638103z" fill="#423e45"/><path d="m0 36.0361897v-12.246716l18.3157895 7.9638103 18.3157894-7.9638103v12.246716l-18.3157894 7.9638103z" fill="#423e45"/><g fill="#48444b"><path d="m22.5263158 23.7894737 14.105 6.105-14.105 6.1055263z" transform="matrix(-1 0 0 1 59.157894 0)"/><path d="m.42105263 8 14.10499997 6.105-14.10499997 6.1055263z"/></g></g></g></svg>