<?xml version="1.0" encoding="UTF-8"?>
<svg width="564px" height="564px" viewBox="0 0 564 564" version="1.1" xmlns="http://www.w3.org/2000/svg" xmlns:xlink="http://www.w3.org/1999/xlink">
    <title>oo</title>
    <g id="oo" stroke="none" stroke-width="1" fill="none" fill-rule="evenodd">
        <circle id="Oval" fill="#FFFFFF" cx="282" cy="282" r="282"></circle>
        <g id="Logo_Letter" transform="translate(118.000000, 89.000000)" fill-rule="nonzero">
            <g id="Group">
                <path d="M163.955352,285.41956 L163.955352,285.41956 C163.955352,285.41956 0,212.000827 0,212.000827 L0,263.192615 C0,298.627463 20.5867591,330.871957 52.7413934,345.808984 L120.784853,377.509576 C134.357827,383.792868 149.205296,386.617915 163.955352,385.887299 L163.955352,385.887299 C174.614033,385.343397 185.1753,382.883658 195.200792,378.508083 L272.896325,345.078369 C306.325455,330.595947 327.910704,297.710135 327.910704,261.374194 L327.910704,212.008945 C327.910704,212.008945 163.955352,285.427678 163.955352,285.427678 L163.955352,285.41956 Z" id="Path" fill="#1F2546"></path>
                <path d="M327.902586,212.18754 L99.6460834,109.527954 C52.9199852,88.48623 0,122.735858 0,174.016943 L0,174.016943 L228.256503,276.668411 C275.071897,297.710135 327.902586,263.460507 327.902586,212.179422 L327.902586,212.179422 L327.902586,212.18754 Z" id="Path" fill="#E62A45"></path>
                <path d="M0,174.016943 L0,122.825155 C0,87.3984248 20.4974632,55.1539305 52.6439797,40.216904 L120.68744,8.51631231 C144.188492,-2.41044733 171.334439,-2.87317043 195.192674,7.42038917 L272.888207,40.9394015 C306.317337,55.3325254 327.902586,88.2102197 327.902586,124.554278 L327.902586,173.919527 L163.947234,100.500795 L0,174.016943 Z" id="Path" fill="#1F2546"></path>
                <path d="M164.044648,100.695626 L164.044648,0.227886168 C174.703329,0.771788765 185.264596,3.23152738 195.290088,7.607102 L272.985621,41.0368168 C306.414751,55.5192382 328,88.4050505 328,124.740991 L328,174.10624 C328,174.10624 164.044648,100.687508 164.044648,100.687508 L164.044648,100.695626 Z" id="Path" fill="#1F2546"></path>
                <path d="M0,174.114358 L0,122.922571 C0,87.4877222 20.6760549,55.243228 52.8306893,40.3062014 L120.866031,8.60560975 C134.439005,2.32231706 149.286474,-0.502729261 164.044648,0.227886168 L164.044648,100.695626 L0,174.114358 Z" id="Path" fill="#2E3A66"></path>
                <g transform="translate(0.089296, 212.000827)" id="Path">
                    <path d="M163.955352,73.4187327 L163.955352,173.886472 C174.614033,173.342569 185.1753,170.882831 195.200792,166.507256 L272.896325,133.077541 C306.325455,118.59512 327.910704,85.7093078 327.910704,49.3733671 L327.910704,0.00811794921 C327.910704,0.00811794921 163.955352,73.4268506 163.955352,73.4268506 L163.955352,73.4187327 Z" fill="#2E3A66"></path>
                    <path d="M-1.42108547e-14,0 L-1.42108547e-14,51.1917877 C-1.42108547e-14,86.626636 20.5867591,118.87113 52.7413934,133.808157 L120.784853,165.508748 C134.357827,171.792041 149.205296,174.617088 163.955352,173.886472 L163.955352,73.4187327 L-1.42108547e-14,0 Z" fill="#1F2546"></path>
                </g>
            </g>
            <polygon id="Path" fill="#B22145" points="122 119 14.91958 180 0 173.800053"></polygon>
            <polygon id="Path" fill="#B22145" points="206 267 313.081412 206 328 212.190875"></polygon>
        </g>
    </g>
</svg>