<svg id="Layer_1" xmlns="http://www.w3.org/2000/svg" viewBox="0 0 90 90"><style>.st0{opacity:0.36;} .st1{fill:#FFFFFF;}</style><circle class="st0" cx="45" cy="45" r="45"/><path id="triangle" class="st1" d="M60 43.5L36.2 27.2c-.7-.5-2.7-.5-2.9 1.5v32.5c.2 2.1 2.2 2.1 2.9 1.5l23.7-16.2c.7-.4 1.5-1.9.1-3zM37 57.8V32.2L55.7 45 37 57.8z"/><path id="empty_circle" class="st1" d="M45 3.5C22.2 3.5 3.5 22.2 3.5 45S22.2 86.5 45 86.5 86.5 67.8 86.5 45 67.8 3.5 45 3.5zm0 79.4c-20.9 0-37.9-17-37.9-37.9S24.1 7.1 45 7.1s37.9 17 37.9 37.9-17 37.9-37.9 37.9z"/></svg>