<svg xmlns="http://www.w3.org/2000/svg" width="25" height="25"><path fill="#FFF" fill-rule="evenodd" d="M25 12.178c0 6.726-5.494 12.178-12.273 12.178-2.152 0-4.173-.55-5.932-1.515L0 25l2.215-6.534C1.098 16.63.455 14.48.455 12.178.455 5.452 5.948 0 12.725 0 19.508 0 25 5.452 25 12.178zM12.727 1.938C7.037 1.94 2.41 6.534 2.41 12.18c0 2.24.73 4.315 1.964 6.003l-1.29 3.803 3.967-1.26c1.63 1.07 3.58 1.694 5.68 1.694 5.69 0 10.32-4.593 10.32-10.238 0-5.647-4.63-10.24-10.32-10.24zm6.198 13.045c-.076-.124-.276-.2-.577-.35-.3-.148-1.78-.87-2.055-.97-.276-.1-.477-.15-.678.15-.2.3-.777.97-.953 1.17-.175.2-.35.224-.65.075-.302-.15-1.27-.465-2.42-1.48-.895-.792-1.498-1.77-1.674-2.068-.175-.3-.018-.46.132-.61.136-.133.3-.348.45-.522.152-.174.202-.298.302-.498.1-.2.05-.373-.025-.523-.075-.15-.677-1.618-.928-2.216-.25-.593-.505-.493-.68-.493-.176 0-.377-.025-.577-.025-.2 0-.527.074-.803.373-.274.3-1.05 1.02-1.05 2.49 0 1.47 1.077 2.888 1.23 3.087.15.196 2.08 3.31 5.137 4.504 3.06 1.195 3.06.796 3.61.746.55-.05 1.78-.72 2.03-1.418.25-.697.25-1.295.177-1.42z"/></svg>