<svg xmlns="http://www.w3.org/2000/svg" width="31" height="25"><path fill="#FFF" fill-rule="evenodd" d="M21.593 13.615c.078.197.113.4.113.603 0 .407-.142.803-.38 1.126-.236.32-.57.566-.964.675h-.012c-.186.06-.375.09-.56.09-.44 0-.873-.16-1.217-.43-.343-.27-.6-.65-.683-1.1v-.01c-.026-.12-.04-.23-.04-.35 0-.4.136-.77.36-1.08.22-.31.535-.56.9-.68h.008c.207-.08.426-.12.643-.12.4 0 .79.12 1.11.33.33.21.59.52.72.91l.01.01h.01-.01zm-1.207 4.812c-.155-.1-.334-.16-.523-.16-.153 0-.312.044-.453.137-1.334.787-2.904 1.22-4.462 1.22-1.17 0-2.33-.245-3.384-.756l-.005-.003-.01-.002c-.16-.064-.34-.2-.54-.33-.1-.065-.21-.13-.32-.176-.12-.048-.25-.082-.38-.082-.11 0-.23.025-.35.078l-.02.007c-.19.07-.33.196-.42.346-.1.155-.15.336-.15.515 0 .17.04.33.12.48.07.14.19.26.34.35 1.5 1.01 3.27 1.46 5.05 1.46 1.6 0 3.21-.36 4.65-1.03h.01c.19-.11.44-.21.67-.35.117-.07.232-.16.33-.27.1-.11.18-.24.222-.41.02-.07.022-.14.022-.21 0-.13-.03-.25-.088-.37-.08-.17-.21-.3-.365-.4zM9.82 16.013c.004 0 .008 0 .01.003.193.07.39.103.586.103.49 0 .964-.2 1.324-.52.36-.33.605-.79.605-1.31v-.05l.002-.08c0-.52-.243-.98-.6-1.31-.356-.33-.83-.53-1.32-.53-.132 0-.265.01-.396.04-.65.13-1.22.61-1.43 1.27-.06.18-.09.36-.09.55 0 .4.14.79.37 1.11.23.31.56.56.95.68V16zm20.375-4.687v.003c.005.06.006.13.006.19 0 .72-.23 1.42-.62 2.01-.36.55-.87 1.01-1.45 1.33.04.29.06.58.06.87 0 1.56-.54 3.1-1.49 4.33-1.75 2.3-4.44 3.66-7.16 4.35-1.45.35-2.94.52-4.44.52-2.23 0-4.45-.4-6.53-1.22v-.01h-.01c-2.15-.88-4.2-2.27-5.46-4.32-.67-1.09-1.05-2.37-1.05-3.66 0-.29.02-.59.06-.87-.56-.32-1.05-.77-1.42-1.3-.4-.55-.65-1.23-.68-1.94v-.01c0-1 .44-1.94 1.12-2.63.68-.7 1.61-1.15 2.61-1.15h.05c.103-.01.21-.01.313-.01.5 0 1 .08 1.48.26.41.17.81.37 1.17.66.12-.06.25-.13.39-.19 2.18-1.28 4.72-1.77 7.19-1.92.02-1.21.17-2.48.77-3.59.495-.92 1.36-1.64 2.386-1.888h.012c.39-.076.788-.11 1.18-.11 1.05 0 2.08.244 3.04.626.43-.64 1.04-1.14 1.76-1.42l.01-.003c.42-.13.87-.204 1.31-.204.47 0 .94.086 1.39.28l.01.005c.64.246 1.18.69 1.56 1.25.385.556.61 1.22.61 1.91 0 .13-.01.258-.023.386s0 .004 0 .006c-.076.89-.53 1.67-1.176 2.23-.65.56-1.49.89-2.35.89-.14 0-.28-.01-.417-.02-.852-.064-1.65-.473-2.24-1.08-.583-.61-.962-1.42-.962-2.3l.004-.13c-.8-.35-1.65-.645-2.5-.644-.12 0-.243.005-.37.018-.63.06-1.22.46-1.51 1.03-.43.835-.52 1.81-.53 2.78 2.43.16 4.88.734 7.025 1.954h.003l.03.02c.04.023.11.064.18.1.15-.12.3-.24.48-.345.65-.43 1.42-.64 2.19-.64.34 0 .68.05 1.01.13l.02.01h.01c.79.2 1.5.645 2.03 1.25.54.6.895 1.364.965 2.19v.003zM23.03 3.454c0 .032.002.066.005.1v.006c.016.417.215.806.518 1.094.305.287.71.465 1.12.467h.01c.03.01.06.01.09.01.414 0 .825-.17 1.133-.46.31-.28.514-.68.53-1.1v-.01c.003-.03.005-.06.005-.09 0-.43-.2-.84-.52-1.15-.32-.31-.75-.5-1.17-.5-.13 0-.27.02-.4.06h-.01c-.35.09-.67.31-.91.59-.23.28-.38.63-.38 1zM5.078 9.9c-.325-.148-.66-.255-.993-.254-.056 0-.112.003-.168.01H3.9c-.476.013-.958.22-1.32.55-.36.327-.6.77-.62 1.26v.01c-.003.04-.004.08-.004.117 0 .3.093.593.252.86.117.196.272.376.446.533.557-1.207 1.43-2.232 2.423-3.084zm21.188 5.908c0-1.076-.392-2.158-1.028-3.028-1.268-1.744-3.234-2.882-5.28-3.516l-.014-.005c-.392-.12-.79-.23-1.19-.32-1.194-.27-2.42-.41-3.644-.41-1.645 0-3.29.24-4.863.72-2.045.65-4.017 1.78-5.283 3.53-.64.87-1.016 1.96-1.016 3.04 0 .39.05.79.156 1.18h.002c.23.87.68 1.64 1.263 2.32.58.67 1.29 1.25 2.04 1.72.16.1.33.2.5.29 2.18 1.2 4.7 1.73 7.19 1.73.42 0 .84-.02 1.26-.05 2.51-.21 5.04-.94 7.08-2.44.65-.48 1.25-1.05 1.72-1.71.48-.66.83-1.39.98-2.18.06-.3.09-.6.09-.9zm1.984-4.284c0-.26-.062-.52-.194-.764l-.003-.003-.002-.004c-.17-.36-.45-.632-.78-.818-.33-.187-.72-.28-1.12-.28-.35 0-.71.077-1.02.233 1 .857 1.88 1.888 2.44 3.1.18-.157.34-.348.46-.56.15-.28.24-.594.24-.904z"/></svg>