<svg xmlns="http://www.w3.org/2000/svg" width="37" height="25"><path fill="#FFF" fill-rule="evenodd" d="M32.5 11.17c2.07-.17 3.47-1.1 4-2.35-.74.45-3.04.94-4.32.48-.06-.3-.13-.58-.2-.83-.97-3.52-4.3-6.35-7.77-6l.9-.32c.4-.13 2.7-.5 2.3-1.27-.3-.7-3 .52-3.5.67.7-.25 1.8-.7 1.97-1.46C24.8.2 23.8.7 23 1.4c.3-.3.5-.7.54-1.1C20.7 2 19.1 5.6 17.76 9 16.73 8 15.8 7.22 15 6.8c-2.3-1.2-5.1-2.5-9.4-4.1-.16 1.43.7 3.3 3.1 4.57-.5-.07-1.47.1-2.24.26.3 1.6 1.34 2.95 4.1 3.6-1.26.1-1.9.36-2.5.97.57 1.14 1.98 2.47 4.5 2.2-2.8 1.2-1.14 3.4 1.15 3.1-3.9 4-10 3.7-13.6.35 9.3 12.4 29.3 7.33 32.3-4.6 2.3 0 3.6-.8 4.4-1.65-1.3.23-3.2 0-4.1-.4z"/></svg>