<svg xmlns="http://www.w3.org/2000/svg" xmlns:xlink="http://www.w3.org/1999/xlink" width="635" height="386" xmlns:v="https://vecta.io/nano"><style><![CDATA[.B{fill-rule:nonzero}.C{stroke:#000}.D{stroke-width:.957}.E{fill:#fff}.F{fill:#000}.G{fill:#232f3e}.H{fill-opacity:.302}.I{stroke-opacity:.302}]]></style><defs><path id="A" d="M0 0h634.667v385.778H0z"/><path id="B" d="M0 0h634.667v384.82H0z"/><linearGradient x1="-215.820513%" y1="-124.697297%" x2="-215.820513%" y2="-100.697299%" id="C"><stop stop-color="#5a30b5" offset="0%"/><stop stop-color="#945df2" offset="100%"/></linearGradient><linearGradient x1="-381.461545%" y1="4.86681026%" x2="-381.461545%" y2="28.866809%" id="D"><stop stop-color="#f78e04" offset="0%"/></linearGradient><linearGradient x1="-381.461545%" y1="-254.261392%" x2="-381.461545%" y2="-230.261394%" id="E"><stop stop-color="#d05c17" offset="0%"/><stop stop-color="#f78e04" offset="100%"/></linearGradient><linearGradient x1="-537.358974%" y1="-124.697297%" x2="-537.358974%" y2="-100.697299%" id="F"><stop stop-color="#3334b9" offset="0%"/><stop stop-color="#4d72f3" offset="100%"/></linearGradient><linearGradient x1="-357.959998%" y1="91.712224%" x2="-357.959998%" y2="115.712224%" id="G"><stop stop-color="#d05c17" offset="0%"/><stop stop-color="#f78e04" offset="100%"/></linearGradient><path id="H" d="M0 0h53.12v29.12H0z"/><path id="I" d="M209.526 162.735l-6.701 3.35 1.675-3.35-1.675-3.35z"/><path id="J" d="M22.323 2.11h3.55c.702 0 1.268.198 1.697.594s.645.952.645 1.668c0 .616-.192 1.152-.575 1.609s-.972.685-1.767.685h-2.481V10h-1.069V2.11zm4.813 2.267c0-.58-.215-.974-.645-1.182-.236-.111-.56-.167-.972-.167h-2.127v2.734h2.127c.48 0 .869-.102 1.168-.306s.448-.564.448-1.08z"/><path id="K" d="M17.795 16.719h.983v5.726h-.983v-5.726zm0-2.165h.983v1.096h-.983v-1.096z"/><path id="L" d="M47.117 121.841c.699 0 1.179-.265 1.438-.794s.39-1.118.39-1.767c0-.586-.094-1.062-.281-1.43-.297-.578-.809-.867-1.535-.867-.645 0-1.113.246-1.406.738s-.439 1.086-.439 1.781c0 .668.146 1.225.439 1.67s.758.668 1.395.668zm.041-5.777a2.84 2.84 0 0 1 2.051.809c.559.539.838 1.332.838 2.379 0 1.012-.246 1.848-.738 2.508s-1.256.99-2.291.99c-.863 0-1.549-.292-2.057-.876s-.762-1.368-.762-2.353c0-1.055.268-1.895.803-2.52s1.254-.937 2.156-.937z"/><path id="M" d="M71.041 116.105c.445 0 .877.104 1.295.313s.736.479.955.812a2.8 2.8 0 0 1 .422 1.107c.063.289.094.75.094 1.383h-4.6c.02.637.17 1.147.451 1.532s.717.577 1.307.577c.551 0 .99-.182 1.318-.545.188-.211.32-.455.398-.732h1.037c-.027.23-.118.487-.272.771a2.74 2.74 0 0 1-.519.694c-.32.313-.717.523-1.189.633-.254.063-.541.094-.861.094a2.64 2.64 0 0 1-1.986-.853c-.543-.568-.814-1.364-.814-2.388 0-1.008.273-1.826.82-2.455s1.262-.943 2.145-.943zm1.682 2.777c-.043-.457-.143-.822-.299-1.096-.289-.508-.771-.762-1.447-.762-.484 0-.891.175-1.219.524s-.502.794-.521 1.333h3.486z"/><path id="N" d="M81.101 116.275h1.072v6.246h-1.072v-6.246zm0-2.361h1.072v1.195h-1.072v-1.195z"/><path id="O" d="M86.187 116.064c.707 0 1.282.172 1.726.516s.71.936.8 1.775h-1.025c-.062-.387-.205-.708-.428-.964s-.58-.384-1.072-.384c-.672 0-1.152.328-1.441.984-.187.426-.281.951-.281 1.576s.133 1.158.398 1.588.684.645 1.254.645c.438 0 .784-.134 1.04-.401s.433-.634.53-1.099h1.025c-.117.832-.41 1.44-.879 1.825s-1.068.577-1.799.577c-.82 0-1.475-.3-1.963-.899s-.732-1.349-.732-2.247c0-1.102.268-1.959.803-2.572a2.59 2.59 0 0 1 2.045-.92z"/><path id="P" d="M161.663 3.35l-6.701 3.35 1.675-3.35L154.962 0z"/><path id="Q" d="M219.744 222.379l-1.307-3.803-1.389 3.803h2.695zm-1.916-5.08h1.318l3.123 8.607h-1.277l-.873-2.578h-3.404l-.932 2.578h-1.195l3.24-8.607z"/><path id="R" d="M223.442 217.299h3.873c.766 0 1.383.216 1.852.647s.703 1.038.703 1.819c0 .672-.209 1.257-.627 1.755s-1.061.747-1.928.747h-2.707v3.639h-1.166v-8.607zm5.25 2.473c0-.633-.234-1.062-.703-1.289-.258-.121-.611-.182-1.061-.182h-2.32v2.982h2.32c.523 0 .948-.111 1.274-.334s.489-.615.489-1.178z"/><path id="S" d="M248.004 224.236c0 .305.111.545.334.721s.486.264.791.264c.371 0 .73-.086 1.078-.258.586-.285.879-.752.879-1.4v-.85c-.129.082-.295.15-.498.205s-.402.094-.598.117l-.639.082c-.383.051-.67.131-.861.24-.324.184-.486.477-.486.879zm2.555-2.133c.242-.031.404-.133.486-.305.047-.094.07-.229.07-.404 0-.359-.128-.62-.384-.782s-.622-.243-1.099-.243c-.551 0-.941.148-1.172.445-.129.164-.213.408-.252.732h-.984c.02-.773.271-1.312.753-1.614s1.042-.454 1.679-.454c.738 0 1.338.141 1.799.422s.686.719.686 1.313v3.615c0 .109.022.197.067.264s.14.1.284.1c.047 0 .1-.003.158-.009l.188-.026v.779l-.375.088a2.74 2.74 0 0 1-.352.018c-.363 0-.627-.129-.791-.387-.086-.137-.146-.33-.182-.58-.215.281-.523.525-.926.732s-.846.311-1.33.311c-.582 0-1.058-.177-1.427-.53a1.76 1.76 0 0 1-.554-1.327c0-.582.182-1.033.545-1.354s.84-.518 1.43-.592l1.682-.211z"/><path id="T" d="M254.08 217.879h1.066v1.752h1.002v.861h-1.002v4.096c0 .219.074.365.223.439.082.043.219.064.41.064l.164-.003.205-.015v.832c-.121.035-.247.061-.378.076s-.272.023-.425.023c-.492 0-.826-.126-1.002-.378s-.264-.579-.264-.981v-4.154h-.85v-.861h.85v-1.752z"/><path id="U" d="M283.137 219.631h1.166l-.99 2.754-.961 2.637c-.609 1.602-1.039 2.578-1.289 2.93s-.68.527-1.289.527a2.53 2.53 0 0 1-.343-.018c-.08-.012-.179-.033-.296-.064v-.961l.398.094c.082.012.154.018.217.018.195 0 .339-.032.431-.097a.89.89 0 0 0 .231-.237c.02-.031.09-.191.211-.48l.264-.645-2.32-6.457h1.195l1.682 5.109 1.693-5.109z"/><path id="V" d="M.914 2.392H2.08v7.582h4.359V11H.914z"/><path id="W" d="M14.121 4.724h1.043v.891c.25-.309.477-.533.68-.674.348-.238.742-.357 1.184-.357.5 0 .902.123 1.207.369.172.141.328.348.469.621.234-.336.51-.585.826-.747s.672-.243 1.066-.243c.844 0 1.418.305 1.723.914.164.328.246.77.246 1.324V11h-1.096V6.64c0-.418-.104-.705-.313-.861a1.24 1.24 0 0 0-.765-.234c-.414 0-.771.139-1.069.416s-.448.74-.448 1.389V11h-1.072V6.904c0-.426-.051-.736-.152-.932-.16-.293-.459-.439-.896-.439-.398 0-.761.154-1.087.463s-.489.867-.489 1.676V11h-1.055V4.724z"/><path id="X" d="M24.035 2.363h1.025v3.123a2.34 2.34 0 0 1 .826-.688c.32-.158.668-.237 1.043-.237.781 0 1.415.269 1.901.806s.729 1.329.729 2.376c0 .992-.24 1.816-.721 2.473s-1.146.984-1.998.984c-.477 0-.879-.115-1.207-.346-.195-.137-.404-.355-.627-.656V11h-.973V2.363zm2.742 7.904c.57 0 .997-.227 1.28-.68s.425-1.051.425-1.793c0-.66-.142-1.207-.425-1.641s-.7-.65-1.251-.65c-.48 0-.901.178-1.263.533s-.542.941-.542 1.758c0 .59.074 1.068.223 1.436.277.691.795 1.037 1.553 1.037z"/><path id="Y" d="M31.459 7.935c0 .672.143 1.234.428 1.688s.742.68 1.371.68c.488 0 .89-.21 1.204-.63s.472-1.022.472-1.808c0-.793-.162-1.38-.486-1.761s-.725-.571-1.201-.571c-.531 0-.962.203-1.292.609s-.495 1.004-.495 1.793zm1.588-3.322c.48 0 .883.102 1.207.305.188.117.4.322.639.615v-3.17h1.014V11h-.949v-.873c-.246.387-.537.666-.873.838s-.721.258-1.154.258c-.699 0-1.305-.294-1.816-.882s-.768-1.37-.768-2.347c0-.914.233-1.706.7-2.376s1.134-1.005 2.001-1.005z"/><path id="Z" d="M29.871 22.434c.031.352.119.621.264.809.266.34.727.51 1.383.51.391 0 .734-.085 1.031-.255s.445-.433.445-.788c0-.27-.119-.475-.357-.615-.152-.086-.453-.186-.902-.299l-.838-.211c-.535-.133-.93-.281-1.184-.445-.453-.285-.68-.68-.68-1.184 0-.594.214-1.074.642-1.441s1.003-.551 1.726-.551c.945 0 1.627.277 2.045.832.262.352.389.73.381 1.137h-.996a1.22 1.22 0 0 0-.252-.65c-.242-.277-.662-.416-1.26-.416-.398 0-.7.076-.905.229s-.308.354-.308.604c0 .273.135.492.404.656.156.098.387.184.691.258l.697.17c.758.184 1.266.361 1.523.533.41.27.615.693.615 1.271 0 .559-.212 1.041-.636 1.447s-1.069.609-1.937.609c-.934 0-1.595-.212-1.983-.636s-.597-.948-.624-1.573h1.014z"/><path id="a" d="M152.09 3.35l-6.701 3.35 1.675-3.35L145.389 0z"/><path id="b" d="M104.706 3.35l-6.701 3.35 1.675-3.35L98.005 0z"/><path id="c" d="M28.832 18.127v4.166c0 .32.051.582.152.785.188.375.537.563 1.049.563.734 0 1.234-.328 1.5-.984.145-.352.217-.834.217-1.447v-3.082h1.055v6.275h-.996l.012-.926c-.137.238-.307.439-.51.604-.402.328-.891.492-1.465.492-.895 0-1.504-.299-1.828-.896-.176-.32-.264-.748-.264-1.283v-4.266h1.078z"/><path id="d" d="M45.989 23.57l3.721-4.5h-3.445v-.943h4.863v.861l-3.697 4.471h3.809v.943h-5.25z"/><path id="e" d="M59.161 18.127h1.002v1.084c.082-.211.283-.468.604-.771s.689-.454 1.107-.454c.02 0 .053.002.1.006l.24.023v1.113c-.062-.012-.12-.02-.173-.023l-.173-.006c-.531 0-.939.171-1.225.513a1.79 1.79 0 0 0-.428 1.181v3.609h-1.055v-6.275z"/><path id="f" d="M23.932 48.935l3.35 6.701-3.35-1.675-3.35 1.675z"/><path id="g" d="M23.932 104.227l-3.35-6.701 3.35 1.675 3.35-1.675z"/></defs><g fill="none" fill-rule="evenodd"><mask id="h" class="E"><use xlink:href="#A"/></mask><g mask="url(#h)" class="B E"><path d="M0 0h634.667v385.778H0z"/></g><mask id="i" class="E"><use xlink:href="#B"/></mask><g mask="url(#i)"><g transform="translate(1.436 1.436)"><path d="M0 0h631.795v382.906H0z" class="B E"/><path d="M104.821 66.817h67.487v95.918H204.5" class="C D"/><use xlink:href="#I" class="B F"/><use xlink:href="#I" class="C D"/><g transform="translate(115.006 36.855)" class="B"><path d="M.344 0h58.393v24.889H.344z" class="E"/><g class="F"><path d="M.865 2.11h1.08v3.26h4.104V2.11h1.08V10h-1.08V6.31H1.945V10H.865zm13.659 0v.94h-2.659V10H10.78V3.05H8.121v-.94zm6.719 0v.94h-2.659V10h-1.085V3.05H14.84v-.94z"/><use xlink:href="#J"/><use xlink:href="#J" x="10.199"/><path d="M43.162 1.895c1.393 0 2.424.448 3.094 1.343.523.698.784 1.592.784 2.68 0 1.178-.299 2.157-.897 2.938-.702.917-1.703 1.375-3.002 1.375-1.214 0-2.168-.401-2.863-1.203-.619-.773-.929-1.751-.929-2.933 0-1.067.265-1.98.795-2.739.68-.974 1.687-1.461 3.019-1.461zm.107 7.38c.942 0 1.623-.337 2.044-1.012s.631-1.451.631-2.328c0-.927-.243-1.674-.728-2.24s-1.149-.849-1.99-.849c-.816 0-1.482.28-1.998.841s-.773 1.387-.773 2.479c0 .874.221 1.61.663 2.21s1.159.9 2.151.9zm5.742-1.821c.025.448.131.811.317 1.09.354.523.979.784 1.875.784.401 0 .766-.057 1.096-.172.637-.222.956-.619.956-1.192 0-.43-.134-.736-.403-.918s-.698-.335-1.278-.467l-1.069-.242c-.698-.158-1.192-.331-1.482-.521-.501-.329-.752-.822-.752-1.477 0-.709.245-1.291.736-1.746s1.185-.682 2.084-.682c.827 0 1.53.2 2.108.599s.867 1.038.867 1.915h-1.004c-.054-.423-.168-.747-.344-.972-.326-.412-.879-.618-1.66-.618-.63 0-1.083.132-1.359.397s-.414.573-.414.924a.9.9 0 0 0 .483.849c.211.115.689.258 1.434.43l1.106.252c.534.122.945.288 1.235.5.501.369.752.904.752 1.606 0 .874-.318 1.499-.953 1.875s-1.374.564-2.216.564c-.981 0-1.749-.251-2.304-.752s-.827-1.173-.816-2.025h1.004zM61.392 2.11v.94h-2.659V10h-1.085V3.05H54.99v-.94zM16.533 14.554h.816l-2.503 7.89h-.816z"/><use xlink:href="#K"/><path d="M20.239 16.692h.918v.816c.272-.337.56-.578.865-.725s.643-.22 1.015-.22c.816 0 1.368.285 1.654.854.158.312.236.757.236 1.337v3.69h-.983v-3.625c0-.351-.052-.634-.156-.849-.172-.358-.483-.537-.935-.537a1.89 1.89 0 0 0-.564.07c-.265.079-.498.236-.698.473-.161.19-.266.386-.314.588s-.073.491-.073.867v3.013h-.967v-5.752zm8.148-.102c.451 0 .845.111 1.182.333.183.125.369.308.559.548v-.725h.892v5.231c0 .73-.107 1.307-.322 1.729-.401.781-1.158 1.171-2.272 1.171-.619 0-1.14-.139-1.563-.416s-.659-.712-.709-1.302h.983c.047.258.14.457.279.596.218.215.562.322 1.031.322.741 0 1.226-.261 1.456-.784.136-.308.199-.858.188-1.649-.193.294-.426.512-.698.655s-.632.215-1.08.215c-.623 0-1.168-.221-1.635-.663s-.701-1.174-.701-2.194c0-.963.235-1.715.706-2.256s1.039-.811 1.705-.811zm1.74 2.954c0-.713-.147-1.241-.44-1.584a1.41 1.41 0 0 0-1.123-.516c-.68 0-1.146.319-1.396.956-.132.34-.199.786-.199 1.337 0 .648.132 1.141.395 1.48s.617.508 1.061.508c.695 0 1.183-.313 1.466-.94.158-.354.236-.768.236-1.241zm4.743-2.981a2.63 2.63 0 0 1 1.187.287c.383.191.675.44.875.744.193.29.322.628.387 1.015.057.265.086.688.086 1.268h-4.216c.018.584.156 1.052.414 1.405s.657.529 1.198.529c.505 0 .908-.167 1.208-.5a1.67 1.67 0 0 0 .365-.671h.951c-.025.211-.108.447-.25.706a2.53 2.53 0 0 1-.475.636c-.294.286-.657.48-1.09.58a3.33 3.33 0 0 1-.79.086 2.42 2.42 0 0 1-1.821-.781c-.498-.521-.747-1.251-.747-2.189 0-.924.251-1.674.752-2.25s1.157-.865 1.966-.865zm1.542 2.546c-.039-.419-.131-.754-.274-1.004-.265-.465-.707-.698-1.327-.698a1.47 1.47 0 0 0-1.117.481c-.301.32-.46.728-.478 1.222h3.196zm2.755 1.53c.029.322.109.569.242.741.243.312.666.467 1.268.467.358 0 .673-.078.945-.234s.408-.397.408-.722c0-.247-.109-.435-.328-.564-.14-.079-.415-.17-.827-.274l-.768-.193c-.491-.122-.852-.258-1.085-.408-.415-.261-.623-.623-.623-1.085 0-.544.196-.985.588-1.321s.919-.505 1.582-.505c.867 0 1.491.254 1.875.763.24.322.356.67.349 1.042h-.913a1.12 1.12 0 0 0-.231-.596c-.222-.254-.607-.381-1.155-.381-.365 0-.642.07-.83.209s-.282.324-.282.553c0 .251.124.451.371.602.143.09.354.168.634.236l.639.156c.695.168 1.16.331 1.396.489.376.247.564.636.564 1.166 0 .512-.194.954-.583 1.327s-.98.559-1.775.559c-.856 0-1.462-.194-1.818-.583s-.547-.869-.572-1.442h.929zm5.118-5.553h.978v1.606h.918v.79h-.918v3.754c0 .201.068.335.204.403.075.039.201.059.376.059l.15-.003.188-.013v.763a2.16 2.16 0 0 1-.346.07 3.37 3.37 0 0 1-.389.021c-.451 0-.757-.115-.918-.346s-.242-.531-.242-.9v-3.808h-.779v-.79h.779v-1.606z"/></g></g><g transform="translate(28.718 28.718)" class="B"><path d="M53.013 76.103h-4.269v-7.065H46.6v7.065H42.33v-7.065l-2.144.01v7.055l-4.269-.01v-7.045l-2.144-.01v7.055l-4.269.01v-7.065h-2.144v7.065h-4.269v-7.055l-3.705-.01c-5.035 0-9.668-4.193-9.668-9.592v-6.442H0v-4.269h9.716V46.59H0v-4.26h9.716v-2.144H0v-4.279h9.716v-2.135H0v-4.279h9.716v-2.135H0V23.08h9.716v-3.8c0-4.7 4.011-9.544 9.697-9.544h3.676V0l4.269.01v9.726h2.144V0l4.269.01v9.726h2.144V.01L40.186 0v9.735h2.144V0L46.6.01v9.726h2.144V0l4.269.01v9.726h3.752c4.844 0 9.601 4.03 9.601 9.726v3.618h9.735v4.279h-9.735v2.135h9.735v4.279h-9.735v2.135l9.735.01v4.269h-9.735v2.144h9.735v4.26h-9.735v2.144h9.735v4.269h-9.735v6.423c0 4.882-4.107 9.621-9.707 9.621l-3.647-.01v7.065z" fill="#5294cf"/><path d="M23.089 69.048l-3.705-.01c-5.035 0-9.668-4.202-9.668-9.592v-2.451c0 4.145 3.666 9.372 9.783 9.372h3.59v2.68zm4.269-.01v-2.671l2.144.019v2.652h-2.144zm6.414 0v-2.671h2.144v2.68l-2.144-.01zm6.414.01v-2.68h2.144v2.671l-2.144.01zm6.414-.01v-2.671h2.144v2.671H46.6zm6.414 0v-2.671h3.848c5.006 0 9.506-4.375 9.506-9.458v2.518c0 4.892-4.107 9.621-9.707 9.621l-3.647-.01z" class="F H"/><path d="M28.105 50.438c-1.426 0-2.451-1.091-2.451-2.451v-2.565h14.531c.689 1.742 2.422 2.671 3.848 2.671 2.642 0 4.375-2.039 4.375-4.279 0-2.431-1.991-4.269-4.289-4.269-1.704 0-3.322 1.091-3.934 2.671H25.655V27.943c0-1.407 1.197-2.412 2.422-2.412h20.064c1.225 0 2.422.976 2.422 2.47v2.46H35.926a4.28 4.28 0 0 0-3.963-2.671c-2.345 0-4.269 1.934-4.269 4.317 0 2.173 1.723 4.231 4.403 4.231 1.465 0 3.178-1.005 3.819-2.671h14.646v14.254c0 1.579-1.177 2.537-2.451 2.537l-20.007-.019h0z" class="E"/></g><g class="B F"><path d="M41.697 113.913h1.178v8.607h-1.178z"/><use xlink:href="#L"/><path d="M57.705 113.913v1.025h-2.9v7.582h-1.184v-7.582h-2.9v-1.025zm4.717 5.543c0 .672.143 1.234.428 1.688s.742.68 1.371.68c.488 0 .89-.21 1.204-.63s.472-1.022.472-1.808c0-.793-.162-1.38-.486-1.761s-.725-.571-1.201-.571c-.531 0-.962.203-1.292.609s-.495 1.004-.495 1.793zm1.588-3.322c.48 0 .883.102 1.207.305.188.117.4.322.639.615v-3.17h1.014v8.637h-.949v-.873c-.246.387-.537.666-.873.838s-.721.258-1.154.258c-.699 0-1.305-.294-1.816-.882s-.768-1.37-.768-2.347c0-.914.233-1.706.7-2.376s1.134-1.005 2.001-1.005z"/><use xlink:href="#M"/><path d="M75.617 116.245l1.676 5.109 1.752-5.109h1.154l-2.367 6.275h-1.125l-2.314-6.275z"/><use xlink:href="#N"/><use xlink:href="#O"/><use xlink:href="#M" x="21.34"/></g><g transform="translate(210.598 93.333)"><path d="M74.667 78.017h40.205v86.154h41.765" class="C D"/><use xlink:href="#I" x="-47.863" y="1.436" class="B F"/><g class="C D"><use xlink:href="#I" x="-47.863" y="1.436"/><path d="M74.667 69.402h40.205V3.35h41.765"/></g><use xlink:href="#P" class="B F"/><use xlink:href="#P" class="C D"/><g class="B"><path fill="url(#C)" d="M0 40.684h74.667v74.667H0z"/><path d="M50.467 49.261c-.622.029-1.12.546-1.12 1.168v13.201H45.7v2.326h3.647v24.027h-3.676v2.326h3.676v13.239c0 .383.182.728.488.948.297.221.689.278 1.043.163l15.527-5.198c.479-.163.795-.603.795-1.11V58.116c0-.44-.249-.842-.651-1.043l-15.517-7.687a1.31 1.31 0 0 0-.565-.124zm-26.315.066a1.01 1.01 0 0 0-.479.115L8.118 57.13c-.402.201-.651.603-.651 1.043v42.196c0 .498.325.948.795 1.11l15.556 5.179c.354.124.747.057 1.053-.163s.479-.565.479-.948V92.309h2.403v-2.326h-2.403V65.956h2.374v-2.326h-2.374V50.486c0-.316-.124-.613-.354-.833-.22-.22-.526-.335-.842-.326h0zm27.521 2.978l13.201 6.538v40.674l-13.201 4.423V52.305zm-28.651.057v51.577l-13.22-4.413V58.901l13.22-6.538zm8.29 11.267v2.326h3.638v-2.326h-3.638zm7.208 0v2.326h3.58v-2.326h-3.58zm.124 6.921l-4.786 14.12 2.211.747 4.777-14.12-2.202-.747zm-6.519 1.991l-4.566 3.906c-.258.22-.412.546-.412.881a1.17 1.17 0 0 0 .412.89l4.566 3.886 1.512-1.771-3.532-3.006 3.532-3.015-1.512-1.771zm10.444.057l-1.503 1.781 3.456 2.91-3.465 2.987 1.512 1.771 4.518-3.877c.258-.22.402-.546.402-.89a1.17 1.17 0 0 0-.412-.89l-4.509-3.791h0zM31.274 89.983v2.326h3.666v-2.326h-3.666zm7.246 0v2.326h3.513v-2.326H38.52z" class="E"/></g></g><g class="B G"><use xlink:href="#Q"/><use xlink:href="#R"/><path d="M231.598 217.299h1.178v8.607h-1.178zm10.125-.223c.809 0 1.508.156 2.098.469.855.449 1.379 1.236 1.57 2.361h-1.154c-.141-.629-.432-1.087-.873-1.374s-.998-.431-1.67-.431c-.797 0-1.468.299-2.013.896s-.817 1.488-.817 2.672c0 1.023.225 1.856.674 2.499s1.182.964 2.197.964c.777 0 1.421-.226 1.931-.677s.771-1.181.782-2.188h-2.695v-.967h3.779v4.605h-.75l-.281-1.107c-.395.434-.744.734-1.049.902-.512.289-1.162.434-1.951.434a3.8 3.8 0 0 1-2.631-.99c-.801-.828-1.201-1.965-1.201-3.41s.391-2.588 1.172-3.439c.742-.812 1.703-1.219 2.883-1.219z"/><use xlink:href="#S"/><use xlink:href="#T"/><use xlink:href="#M" x="188.776" y="103.385"/><path d="M264.363 219.631l1.207 4.945 1.225-4.945h1.184l1.23 4.916 1.283-4.916h1.055l-1.822 6.275h-1.096l-1.277-4.857-1.236 4.857h-1.096l-1.811-6.275z"/><use xlink:href="#S" x="25.348"/><use xlink:href="#U"/></g><g transform="translate(373.333 56)"><path d="M74.667 33.983h40.205v72.752h32.193" class="C D"/><use xlink:href="#I" x="-57.436" y="-56" class="B F"/><use xlink:href="#I" x="-57.436" y="-56" class="C D"/><g class="B"><path fill="url(#D)" d="M0 0h74.667v74.667H0z"/><path d="M19.442 7.467c-.641 0-1.168.526-1.168 1.168v13.172c0 .641.527 1.168 1.168 1.168h8.816l20.849 43.565c.191.402.603.661 1.053.661h14.704c.651 0 1.168-.527 1.168-1.168V52.86c0-.641-.517-1.168-1.168-1.168h-5.217L38.875 8.137a1.16 1.16 0 0 0-1.053-.67H19.442zm1.168 2.336h16.475l20.773 43.556a1.16 1.16 0 0 0 1.053.67h4.796v10.836H50.898L30.049 21.309a1.17 1.17 0 0 0-1.053-.67H20.61V9.802zm5.523 20.935a1.17 1.17 0 0 0-1.082.67L8.807 65.515a1.16 1.16 0 0 0 .067 1.13 1.17 1.17 0 0 0 .986.546h15.489a1.17 1.17 0 0 0 1.053-.67l8.587-17.949c.153-.316.153-.689 0-1.005l-7.83-16.168a1.17 1.17 0 0 0-1.024-.661h0zm-.019 3.868l6.519 13.469-8.022 16.781H11.707l14.407-30.25h0z" class="E"/></g></g><g transform="translate(389.906 137.368)" class="B G"><use xlink:href="#V"/><use xlink:href="#S" x="-239.748" y="-214.906"/><use xlink:href="#W"/><use xlink:href="#X"/><use xlink:href="#Y"/><use xlink:href="#S" x="-209.731" y="-214.906"/><path d="M6.293 15.795h1.178v8.607H6.293zm2.93 2.332h1.002v.891c.297-.367.611-.631.943-.791s.701-.24 1.107-.24c.891 0 1.492.311 1.805.932.172.34.258.826.258 1.459v4.025h-1.072v-3.955c0-.383-.057-.691-.17-.926-.187-.391-.527-.586-1.02-.586-.25 0-.455.025-.615.076-.289.086-.543.258-.762.516-.176.207-.29.421-.343.642s-.079.536-.079.946v3.287H9.223v-6.275zm8.888-.111c.492 0 .922.121 1.289.363.199.137.402.336.609.598v-.791h.973v5.707c0 .797-.117 1.426-.352 1.887-.437.852-1.264 1.277-2.479 1.277-.676 0-1.244-.151-1.705-.454s-.719-.776-.773-1.421h1.072c.051.281.152.498.305.65.238.234.613.352 1.125.352.809 0 1.338-.285 1.588-.855.148-.336.217-.936.205-1.799a2.07 2.07 0 0 1-.762.715c-.297.156-.689.234-1.178.234a2.51 2.51 0 0 1-1.784-.724c-.51-.483-.765-1.28-.765-2.394 0-1.051.257-1.871.771-2.461s1.134-.885 1.86-.885zm1.898 3.223c0-.777-.16-1.354-.48-1.729a1.54 1.54 0 0 0-1.225-.562c-.742 0-1.25.348-1.523 1.043-.145.371-.217.857-.217 1.459 0 .707.144 1.245.431 1.614a1.39 1.39 0 0 0 1.157.554 1.62 1.62 0 0 0 1.6-1.025c.172-.387.258-.838.258-1.354z"/><use xlink:href="#M" x="-45.857" y="-98.119"/><use xlink:href="#Z"/><use xlink:href="#T" x="-218.625" y="-201.504"/></g><g transform="translate(373.333 168.957)"><path d="M74.667 83.761h40.205V3.35h32.193" class="C D"/><use xlink:href="#a" class="B F"/><use xlink:href="#a" class="C D"/><g class="B"><path fill="url(#E)" d="M0 43.077h74.667v74.667H0z"/><path d="M19.442 50.544c-.641 0-1.168.527-1.168 1.168v13.172c0 .641.527 1.168 1.168 1.168h8.816l20.849 43.565c.191.402.603.661 1.053.661h14.704c.651 0 1.168-.527 1.168-1.168V95.937c0-.641-.517-1.168-1.168-1.168h-5.217L38.875 51.214a1.16 1.16 0 0 0-1.053-.67H19.442zm1.168 2.336h16.475l20.773 43.556a1.16 1.16 0 0 0 1.053.67h4.796v10.836H50.898L30.049 64.386a1.17 1.17 0 0 0-1.053-.67H20.61V52.879zm5.523 20.935a1.17 1.17 0 0 0-1.082.67L8.807 108.592a1.16 1.16 0 0 0 .067 1.13 1.17 1.17 0 0 0 .986.546h15.489a1.17 1.17 0 0 0 1.053-.67l8.587-17.949c.153-.316.153-.689 0-1.005l-7.83-16.168a1.17 1.17 0 0 0-1.024-.661h0zm-.019 3.868l6.519 13.469-8.022 16.781H11.707l14.407-30.25z" class="E"/></g></g><g transform="translate(389.906 293.402)" class="B G"><use xlink:href="#V"/><use xlink:href="#S" x="-239.748" y="-214.906"/><use xlink:href="#W"/><use xlink:href="#X"/><use xlink:href="#Y"/><use xlink:href="#S" x="-209.731" y="-214.906"/><use xlink:href="#Q" x="-202.91" y="-201.504"/><use xlink:href="#R" x="-202.91" y="-201.504"/><path d="M28.688 15.795h1.178v8.607h-1.178z"/></g><g transform="translate(526.496 134.017)" class="B"><path fill="url(#F)" d="M0 0h74.667v74.667H0z"/><path d="M32.049 7.467c-3.207.01-6.5.335-9.707 1.015-.029.01-.048.01-.077.019-2.307.641-4.738 1.302-6.72 2.431s-3.59 2.958-3.59 5.476v8.845c0 1.522.766 2.795 1.857 3.791l-1.694 2.824a1.21 1.21 0 0 0-.163.603v9.525.077c.096 1.445.823 2.671 1.857 3.657l-.737.728c-.584.661-1.12 1.436-1.12 2.441v9.64c0 1.867 1.091 3.417 2.575 4.518s3.408 1.886 5.514 2.489c4.222 1.206 9.18 1.656 12.693 1.656a47.09 47.09 0 0 0 10.463-1.359c2.049-.517 4.049-1.216 5.705-2.202s3.025-2.307 3.504-4.097a1.01 1.01 0 0 0 .038-.297V48.993c0-.057 0-.115-.01-.172-.22-1.426-.996-2.384-1.79-3.111.096-.086.191-.182.278-.268.976-.967 1.627-2.096 1.627-3.331h-2.326c0 .383-.249.996-.938 1.685s-1.79 1.417-3.216 2.029l.919 2.135c.613-.268 1.187-.555 1.713-.852.737.632 1.254 1.139 1.407 1.982-.057.852-.526 1.608-1.493 2.384-1.005.814-2.508 1.551-4.25 2.125-3.484 1.158-7.878 1.713-11.066 1.713-3.293 0-8.156-.297-12.129-1.34-1.982-.526-3.743-1.244-4.949-2.125-1.187-.862-1.819-1.781-1.934-2.968.01-.105.124-.431.517-.862.249-.278.574-.584.948-.89 1.311.747 2.833 1.311 4.47 1.771 4.164 1.168 9.008 1.579 12.397 1.579V48.15c-3.197 0-7.926-.412-11.774-1.493-1.924-.536-3.618-1.254-4.777-2.077s-1.723-1.666-1.79-2.652v-5.342c.268.23.565.44.862.632 1.675 1.091 3.791 1.8 6.107 2.317 4.614 1.034 10.042 1.235 14.1 1.235v-2.326c-3.982 0-9.295-.211-13.593-1.177-2.154-.479-4.04-1.158-5.351-2.001-1.187-.766-1.8-1.618-2.02-2.652l1.331-2.23c1.331.747 2.872 1.302 4.451 1.752 3.982 1.13 8.108 1.503 9.63 1.503v-2.326c-1.082 0-5.303-.373-8.998-1.417-1.848-.527-3.59-1.225-4.777-2.049s-1.742-1.637-1.742-2.594v-5.399c1.522 1.225 3.59 2.087 5.878 2.728 3.848 1.063 8.51 1.493 12.961 1.493v-2.326c-4.308 0-8.807-.431-12.339-1.407-3.398-.948-5.705-2.422-6.442-4.116.077-1.484.833-2.412 2.355-3.274 1.58-.9 3.867-1.56 6.155-2.202 8.108-1.704 16.867-1.005 22.984 1.369l.842-2.163c-3.331-1.302-7.275-2.116-11.449-2.393-1.053-.067-2.106-.096-3.178-.096h0zm9.19 6.04a1.14 1.14 0 0 0-1.034.632L32.978 28.44c-.182.364-.172.785.048 1.13.211.345.584.555.986.555h6.749l-6.605 22.323a1.16 1.16 0 0 0 .536 1.34 1.15 1.15 0 0 0 1.426-.201l26.181-27.406c.325-.335.412-.833.23-1.264-.182-.421-.603-.699-1.072-.699h-6.777l3.149-9.171a1.15 1.15 0 0 0-.153-1.053 1.17 1.17 0 0 0-.948-.488H41.239zm.718 2.326H55.1l-3.149 9.171a1.15 1.15 0 0 0 .153 1.053c.22.306.565.488.948.488h5.686l-20.983 21.96 5.677-19.212a1.16 1.16 0 0 0-.182-1.024c-.22-.297-.565-.469-.929-.469h-6.414l6.05-11.966zm-24.066 8.041a1.55 1.55 0 0 0-1.551 1.541 1.55 1.55 0 1 0 3.102 0 1.55 1.55 0 0 0-1.551-1.541zm0 16.771a1.55 1.55 0 0 0-1.551 1.551 1.57 1.57 0 0 0 .459 1.091c.287.287.68.45 1.091.45s.804-.163 1.091-.45a1.53 1.53 0 0 0 .459-1.091 1.55 1.55 0 0 0-1.551-1.551h0zm32.231 12.607v5.763c-.278.948-1.082 1.838-2.403 2.623-1.359.804-3.178 1.465-5.093 1.953-3.829.967-8.07 1.283-9.889 1.283-3.312 0-8.165-.45-12.052-1.56-1.943-.555-3.647-1.292-4.767-2.125-1.13-.833-1.637-1.656-1.637-2.652v-5.265a6.7 6.7 0 0 0 .574.459c1.579 1.139 3.571 1.924 5.734 2.489 4.308 1.13 9.285 1.417 12.712 1.417 3.446 0 7.974-.565 11.794-1.828 1.915-.632 3.647-1.445 4.987-2.527.01-.01.029-.019.038-.029h0zm-32.231 4.068a1.55 1.55 0 0 0-1.551 1.551 1.55 1.55 0 1 0 3.102 0 1.55 1.55 0 0 0-1.551-1.551z" class="E"/></g><g transform="translate(534.468 214.906)" class="B G"><path d="M4.219 10.004c.395 0 .719-.041.973-.123.453-.152.824-.445 1.113-.879.23-.348.396-.793.498-1.336.059-.324.088-.625.088-.902 0-1.066-.212-1.895-.636-2.484s-1.106-.885-2.048-.885H2.139v6.609h2.08zM.967 2.393h3.486c1.184 0 2.102.42 2.754 1.26.582.758.873 1.729.873 2.912 0 .914-.172 1.74-.516 2.479C6.959 10.348 5.918 11 4.442 11H.967V2.393z"/><use xlink:href="#U" x="-269.777" y="-214.906"/><path d="M15.44 4.725h1.002v.891c.297-.367.611-.631.943-.791s.701-.24 1.107-.24c.891 0 1.492.311 1.805.932.172.34.258.826.258 1.459V11h-1.072V7.045c0-.383-.057-.691-.17-.926-.187-.391-.527-.586-1.02-.586-.25 0-.455.025-.615.076-.289.086-.543.258-.762.516-.176.207-.29.421-.343.642s-.079.536-.079.946V11H15.44V4.725z"/><use xlink:href="#S" x="-225.082" y="-214.905"/><path d="M28.787 4.725h1.043v.891c.25-.309.477-.533.68-.674.348-.238.742-.357 1.184-.357.5 0 .902.123 1.207.369.172.141.328.348.469.621.234-.336.51-.585.826-.747s.672-.243 1.066-.243c.844 0 1.418.305 1.723.914.164.328.246.77.246 1.324V11h-1.096V6.641c0-.418-.104-.705-.313-.861a1.24 1.24 0 0 0-.765-.234c-.414 0-.771.139-1.069.416s-.448.74-.448 1.389V11h-1.072V6.905c0-.426-.051-.736-.152-.932-.16-.293-.459-.439-.896-.439-.398 0-.761.154-1.087.463s-.489.867-.489 1.676V11h-1.055V4.725zm12.487 5.596c.699 0 1.179-.265 1.438-.794s.39-1.118.39-1.767c0-.586-.094-1.062-.281-1.43-.297-.578-.809-.867-1.535-.867-.645 0-1.113.246-1.406.738s-.439 1.086-.439 1.781c0 .668.146 1.225.439 1.67s.758.668 1.395.668zm.041-5.777a2.84 2.84 0 0 1 2.051.809c.559.539.838 1.332.838 2.379 0 1.012-.246 1.848-.738 2.508s-1.256.99-2.291.99c-.863 0-1.549-.292-2.057-.876S38.356 8.985 38.356 8c0-1.055.268-1.895.803-2.52s1.254-.937 2.156-.937zm7.588 5.46c.395 0 .719-.041.973-.123.453-.152.824-.445 1.113-.879.23-.348.396-.793.498-1.336.059-.324.088-.625.088-.902 0-1.066-.212-1.895-.636-2.484s-1.106-.885-2.048-.885h-2.068v6.609h2.08zm-3.252-7.611h3.486c1.184 0 2.102.42 2.754 1.26.582.758.873 1.729.873 2.912 0 .914-.172 1.74-.516 2.479C51.643 10.348 50.602 11 49.125 11H45.65V2.393zm11.847 3.639c.492 0 .875-.068 1.148-.205.43-.215.645-.602.645-1.16s-.229-.941-.686-1.137c-.258-.109-.641-.164-1.148-.164h-2.08v2.666h2.121zm.393 3.973c.715 0 1.225-.207 1.529-.621.191-.262.287-.578.287-.949 0-.625-.279-1.051-.838-1.277-.297-.121-.689-.182-1.178-.182h-2.314v3.029h2.514zm-3.656-7.611h3.697c1.008 0 1.725.301 2.15.902.25.355.375.766.375 1.23 0 .543-.154.988-.463 1.336-.16.184-.391.352-.691.504.441.168.771.357.99.568.387.375.58.893.58 1.553a2.4 2.4 0 0 1-.521 1.506c-.52.672-1.346 1.008-2.479 1.008h-3.639V2.393zM8.691 23.406c.395 0 .719-.041.973-.123.453-.152.824-.445 1.113-.879.23-.348.396-.793.498-1.336.059-.324.088-.625.088-.902 0-1.066-.212-1.895-.636-2.484s-1.106-.885-2.048-.885H6.611v6.609h2.08zm-3.252-7.611h3.486c1.184 0 2.102.42 2.754 1.26.582.758.873 1.729.873 2.912 0 .914-.172 1.74-.516 2.479-.605 1.305-1.646 1.957-3.123 1.957H5.439v-8.607z"/><use xlink:href="#S" x="-233.284" y="-201.503"/><use xlink:href="#T" x="-233.284" y="-201.504"/><use xlink:href="#S" x="-223.276" y="-201.503"/><use xlink:href="#Z" x="1.349"/><use xlink:href="#T" x="-217.276" y="-201.504"/><use xlink:href="#L" x="-4.699" y="-98.118"/><path d="M46.63 18.127h1.002v1.084c.082-.211.283-.468.604-.771s.689-.454 1.107-.454c.02 0 .053.002.1.006l.24.023v1.113c-.062-.012-.12-.02-.173-.023l-.173-.006c-.531 0-.939.171-1.225.513a1.79 1.79 0 0 0-.428 1.181v3.609H46.63v-6.275z"/><use xlink:href="#M" x="-17.831" y="-98.119"/></g><g transform="translate(104.821 177.573)"><path d="M0 99.077h67.487V3.35H99.68" class="C D"/><use xlink:href="#b" class="B F"/><use xlink:href="#b" class="C D"/></g><g transform="translate(108.65 246.496)" class="B"><path d="M0 0h52.65v24.889H0z" class="E"/><g class="F"><path d="M1.164 2.11h1.08v3.26h4.104V2.11h1.08V10h-1.08V6.31H2.244V10h-1.08zm13.659 0v.94h-2.659V10h-1.085V3.05H8.42v-.94zm6.719 0v.94h-2.659V10h-1.085V3.05H15.14v-.94zm1.08 0h3.55c.702 0 1.268.198 1.697.594s.645.952.645 1.668c0 .616-.192 1.152-.575 1.609s-.972.685-1.767.685H23.69V10h-1.069V2.11zm4.813 2.267c0-.58-.215-.974-.645-1.182-.236-.111-.56-.167-.972-.167H23.69v2.734h2.127c.48 0 .869-.102 1.168-.306s.448-.564.448-1.08zm8.695-2.471c.741 0 1.382.143 1.923.43.784.412 1.264 1.133 1.439 2.165h-1.058c-.129-.576-.396-.996-.8-1.26s-.915-.395-1.531-.395c-.73 0-1.345.274-1.845.822s-.749 1.364-.749 2.449c0 .938.206 1.702.618 2.291s1.083.884 2.014.884c.713 0 1.302-.207 1.77-.62s.706-1.082.717-2.006h-2.471V5.78h3.464V10h-.687l-.258-1.015c-.362.397-.682.673-.961.827-.469.265-1.065.397-1.789.397-.935 0-1.738-.303-2.412-.908-.734-.759-1.101-1.801-1.101-3.126s.358-2.372 1.074-3.153c.68-.745 1.561-1.117 2.643-1.117zm5.247.204h5.752v.967h-4.71v2.396h4.356v.913h-4.356V9.06h4.791V10h-5.833zm12.977 0v.94h-2.659V10H50.61V3.05h-2.659v-.94zM20.347 14.554h.816l-2.503 7.89h-.816zm2.003 6.359c0 .279.102.5.306.661s.446.242.725.242a2.21 2.21 0 0 0 .988-.236c.537-.261.806-.689.806-1.284v-.779c-.118.075-.27.138-.457.188a3.89 3.89 0 0 1-.548.107l-.585.075c-.351.047-.614.12-.79.22-.297.168-.446.437-.446.806zm2.342-1.955c.222-.029.371-.122.446-.279a.85.85 0 0 0 .064-.371c0-.329-.117-.568-.352-.717s-.57-.223-1.007-.223c-.505 0-.863.136-1.074.408-.118.15-.195.374-.231.671h-.902c.018-.709.248-1.202.69-1.48s.955-.416 1.539-.416c.677 0 1.226.129 1.649.387s.628.659.628 1.203v3.314c0 .1.021.181.062.242s.128.091.26.091a1.47 1.47 0 0 0 .145-.008l.172-.024v.714l-.344.081c-.079.011-.186.016-.322.016-.333 0-.575-.118-.725-.354-.079-.125-.134-.303-.167-.532-.197.258-.48.482-.849.671s-.775.285-1.219.285c-.534 0-.969-.162-1.308-.486s-.508-.73-.508-1.217c0-.534.167-.947.5-1.241s.77-.474 1.311-.542l1.542-.193zm5.463 2.836c.451 0 .826-.189 1.125-.567s.448-.943.448-1.695c0-.458-.066-.852-.199-1.182-.251-.634-.709-.951-1.375-.951s-1.128.335-1.375 1.004c-.132.358-.199.813-.199 1.364 0 .444.066.822.199 1.133.251.594.709.892 1.375.892zm-2.503-5.076h.94v.763c.193-.261.405-.464.634-.607.326-.215.709-.322 1.149-.322a2.16 2.16 0 0 1 1.66.749c.455.5.682 1.213.682 2.14 0 1.253-.328 2.148-.983 2.686a2.22 2.22 0 0 1-1.45.51c-.433 0-.797-.095-1.09-.285-.172-.107-.363-.292-.575-.553v2.938h-.967v-8.019z"/><use xlink:href="#K" x="16.049"/></g></g><path d="M25.195 12.569h4.375V8.156h-4.375v4.413zm-8.491 0h4.289V8.156h-4.289v4.413zm-8.577 0h4.384V8.156H8.127v4.413zm24.736 54.708H0V0h67.181v28.737c-2.259-1.331-4.882-2.527-8.098-3.169V16.79H8.137v42.455h20.562c.651 2.719 2.336 5.619 4.164 8.031h0zm20.983-4.825c7.61 0 11.085-6.299 11.085-10.884 0-6.136-5.064-10.989-10.884-10.989-6.136 0-10.913 5.169-10.913 11.018 0 5.61 4.557 10.855 10.712 10.855zm-17.011 3.389c-1.015-1.283-1.924-2.68-2.747-4.183l2.604-2.69c-.488-1.082-.909-2.431-1.235-3.963l-3.599-.766c-.077-1.675-.096-3.35-.057-5.054l3.676-.852c.153-1.378.536-2.709 1.063-4.001l-2.585-2.518c.766-1.445 1.627-2.891 2.719-4.336l3.408 1.34c.833-1.082 1.982-2.077 3.082-2.709l-.756-3.657c1.35-.842 2.862-1.57 4.518-2.202l2.211 2.958c1.168-.297 2.738-.517 4.155-.603l1.225-3.408c1.627.105 3.293.297 5.045.68l.306 3.657c1.244.325 2.527.938 3.791 1.694l2.872-2.297c1.417 1.053 2.776 2.183 3.848 3.322l-1.742 3.255c.976 1.158 1.675 2.297 2.259 3.398l3.685-.297a48.97 48.97 0 0 1 1.522 5.006l-3.283 1.637c.172 1.493.191 2.91.029 4.231l3.14 1.57c-.124 1.522-.766 3.676-1.254 4.978l-3.724-.191c-.622 1.244-1.35 2.403-2.154 3.523l1.828 3.121c-1.11 1.177-2.441 2.384-3.81 3.456l-2.92-2.163c-.996.613-2.556 1.273-3.867 1.656l-.258 3.714c-1.627.421-3.312.68-5.016.565l-1.149-3.149c-1.426-.077-3.025-.278-4.097-.689l-2.269 3.035c-1.646-.603-3.207-1.292-4.595-2.116l.737-3.599c-1.206-.823-2.345-1.752-3.14-2.68l-3.465 1.331z" fill="#3b8df1" transform="translate(28.718 243.145)" class="B"/><g transform="translate(31.679 323.077)" class="B F"><path d="M1.483 2.393l1.623 7.002 1.945-7.002h1.266l1.945 7.002 1.623-7.002h1.277L8.901 11H7.676L5.69 3.864 3.692 11H2.467L.217 2.393z"/><use xlink:href="#M" x="-56.539" y="-111.521"/><path d="M18.481 2.364h1.025v3.123a2.34 2.34 0 0 1 .826-.688c.32-.158.668-.237 1.043-.237.781 0 1.415.269 1.901.806s.729 1.329.729 2.376c0 .992-.24 1.816-.721 2.473s-1.146.984-1.998.984c-.477 0-.879-.115-1.207-.346-.195-.137-.404-.355-.627-.656V11h-.973V2.364zm2.742 7.904c.57 0 .997-.227 1.28-.68s.425-1.051.425-1.793c0-.66-.142-1.207-.425-1.641s-.7-.65-1.251-.65c-.48 0-.901.178-1.263.533s-.542.941-.542 1.758c0 .59.074 1.068.223 1.436.277.691.795 1.037 1.553 1.037zm7.348-5.514h1.072V11h-1.072V4.754zm0-2.361h1.072v1.195h-1.072V2.393zm2.666 2.332h1.002v.891c.297-.367.611-.631.943-.791s.701-.24 1.107-.24c.891 0 1.492.311 1.805.932.172.34.258.826.258 1.459V11H35.28V7.045c0-.383-.057-.691-.17-.926-.187-.391-.527-.586-1.02-.586-.25 0-.455.025-.615.076-.289.086-.543.258-.762.516-.176.207-.29.421-.343.642s-.079.536-.079.946V11h-1.055V4.725zm6.884-1.752h1.066v1.752h1.002v.861h-1.002v4.096c0 .219.074.365.223.439.082.043.219.064.41.064l.164-.003.205-.015V11a2.3 2.3 0 0 1-.378.076c-.131.015-.272.023-.425.023-.492 0-.826-.126-1.002-.378s-.264-.579-.264-.981V5.586h-.85v-.861h.85V2.973z"/><use xlink:href="#M" x="-27.183" y="-111.521"/><path d="M47.947 4.725h1.002v1.084c.082-.211.283-.468.604-.771s.689-.454 1.107-.454a1.35 1.35 0 0 1 .1.006l.24.023v1.113a1.31 1.31 0 0 0-.173-.023l-.173-.006c-.531 0-.939.171-1.225.513a1.79 1.79 0 0 0-.428 1.181V11h-1.055V4.725zm4.231-.955c.016-.437.092-.758.229-.961.246-.359.721-.539 1.424-.539l.205.006.24.018v.961l-.237-.015-.138-.003c-.32 0-.512.083-.574.249s-.094.589-.094 1.269h1.043v.832h-1.055V11h-1.043V5.586h-.873v-.832h.873V3.77z"/><use xlink:href="#S" x="-191.947" y="-214.905"/><use xlink:href="#O" x="-21.845" y="-111.521"/><use xlink:href="#M" x="-0.506" y="-111.521"/><path d="M12.139 15.795l2.473 7.33 2.443-7.33h1.307l-3.141 8.607h-1.236l-3.135-8.607z"/><use xlink:href="#N" x="-61.989" y="-98.119"/><use xlink:href="#Z" x="-7.466"/><use xlink:href="#c"/><use xlink:href="#S" x="-212.744" y="-201.503"/><path d="M41.155 15.795h1.055v8.607h-1.055z"/><use xlink:href="#N" x="-37.31" y="-98.119"/><use xlink:href="#d"/><use xlink:href="#M" x="-15.97" y="-98.119"/><use xlink:href="#e"/></g><g transform="translate(224 28.718)"><path d="M23.932 53.961v45.24" class="C D I"/><use xlink:href="#f" class="B F H"/><use xlink:href="#f" class="C D I"/><use xlink:href="#g" class="B F H"/><use xlink:href="#g" class="C D I"/><g class="B"><path fill-opacity=".6" fill="url(#G)" d="M0 0h47.863v47.863H0z"/><path d="M12.464 4.786a.75.75 0 0 0-.747.747v8.443a.75.75 0 0 0 .747.747h5.648l13.363 27.933c.124.258.392.421.68.421h9.429a.75.75 0 0 0 .747-.747v-8.443a.75.75 0 0 0-.747-.747h-3.35L24.918 5.217c-.124-.268-.383-.431-.67-.431H12.464zm.747 1.493h10.568l13.306 27.923c.124.268.392.431.68.431h3.073v6.95h-8.213L19.26 13.66c-.124-.258-.383-.431-.68-.431h-5.37V6.28zm3.542 13.421a.75.75 0 0 0-.689.431L5.648 41.995c-.115.23-.096.507.038.728a.75.75 0 0 0 .632.345h9.927c.287 0 .555-.163.68-.421l5.504-11.506c.096-.211.096-.45 0-.651l-5.016-10.358c-.124-.258-.383-.421-.661-.431zm-.01 2.479l4.183 8.635-5.15 10.76H7.505l9.238-19.394h0z" fill-opacity=".6" class="E"/></g></g><g transform="translate(273.124 37.604)"><mask id="j" class="E"><use xlink:href="#H"/></mask><g opacity=".6" mask="url(#j)" class="B G"><g transform="translate(.175 2.122)"><use xlink:href="#V"/><use xlink:href="#S" x="-239.748" y="-214.906"/><use xlink:href="#W"/><use xlink:href="#X"/><use xlink:href="#Y"/><use xlink:href="#S" x="-209.731" y="-214.906"/><path d="M5.332 20.874l-1.307-3.803-1.389 3.803h2.695zm-1.916-5.08h1.318l3.123 8.607H6.58l-.873-2.578H2.303l-.932 2.578H.176l3.24-8.607z"/><use xlink:href="#c" x="-19" y="-0.001"/><use xlink:href="#T" x="-238.418" y="-201.505"/><path d="M18.785 15.765h1.055v3.211c.25-.316.475-.539.674-.668.34-.223.764-.334 1.271-.334.91 0 1.527.318 1.852.955.176.348.264.83.264 1.447v4.025h-1.084v-3.955c0-.461-.059-.799-.176-1.014-.191-.344-.551-.516-1.078-.516-.437 0-.834.15-1.189.451s-.533.869-.533 1.705v3.328h-1.055v-8.637z"/><use xlink:href="#L" x="-19.168" y="-98.119"/><use xlink:href="#e" x="-26.999" y="-0.001"/><use xlink:href="#N" x="-44.972" y="-98.119"/><use xlink:href="#d" x="-7.663"/><use xlink:href="#M" x="-23.633" y="-98.119"/><path d="M51.498 18.126H52.5v1.084c.082-.211.283-.468.604-.771s.689-.454 1.107-.454c.02 0 .053.002.1.006l.24.023v1.113c-.062-.012-.12-.02-.173-.023l-.173-.006c-.531 0-.939.171-1.225.513a1.79 1.79 0 0 0-.428 1.181v3.609h-1.055v-6.275z"/></g></g></g></g></g></g></svg>