<svg version="1.1" viewBox="0.0 0.0 814.0 504.0" fill="none" stroke="none" stroke-linecap="square" stroke-miterlimit="10" width="814" height="504" xmlns:xlink="http://www.w3.org/1999/xlink" xmlns="http://www.w3.org/2000/svg"><path fill="#ffffff" d="M0 0L814.0 0L814.0 504.0L0 504.0L0 0Z" fill-rule="nonzero"/><path stroke="#cccccc" stroke-width="1.0" stroke-linecap="butt" d="M227.5 73.5L227.5 426.5" fill-rule="nonzero"/><path stroke="#cccccc" stroke-width="1.0" stroke-linecap="butt" d="M398.5 73.5L398.5 426.5" fill-rule="nonzero"/><path stroke="#cccccc" stroke-width="1.0" stroke-linecap="butt" d="M569.5 73.5L569.5 426.5" fill-rule="nonzero"/><path stroke="#cccccc" stroke-width="1.0" stroke-linecap="butt" d="M739.5 73.5L739.5 426.5" fill-rule="nonzero"/><path stroke="#333333" stroke-width="1.0" stroke-linecap="butt" d="M105.5 426.5L788.5 426.5" fill-rule="nonzero"/><path stroke="#cccccc" stroke-width="1.0" stroke-linecap="butt" d="M105.5 356.5L788.5 356.5" fill-rule="nonzero"/><path stroke="#cccccc" stroke-width="1.0" stroke-linecap="butt" d="M105.5 285.5L788.5 285.5" fill-rule="nonzero"/><path stroke="#cccccc" stroke-width="1.0" stroke-linecap="butt" d="M105.5 214.5L788.5 214.5" fill-rule="nonzero"/><path stroke="#cccccc" stroke-width="1.0" stroke-linecap="butt" d="M105.5 143.5L788.5 143.5" fill-rule="nonzero"/><path stroke="#cccccc" stroke-width="1.0" stroke-linecap="butt" d="M105.5 73.5L788.5 73.5" fill-rule="nonzero"/><clipPath id="id_0"><path d="M105.2 73.0L788.8 73.0L788.8 426.8L105.2 426.8L105.2 73.0Z" clip-rule="nonzero"/></clipPath><path stroke="#4285f4" stroke-width="2.0" stroke-linecap="butt" clip-path="url(#id_0)" d="M105.2 396.65372L129.61429 362.40543L154.02856 300.26614L178.44286 305.95474L202.85715 298.54205L227.27142 291.55905L251.68571 325.50302L276.1 409.28516L300.51428 290.28552L324.92856 289.3948L349.34286 278.71542L373.75714 265.79416L398.17142 296.9068L422.58572 99.27628L447.0 220.8077L471.41428 243.8723L495.82858 264.91147L520.24286 266.12787L544.65717 282.37625L569.0714 281.5968L593.4857 268.00287L617.9 259.16095L642.3143 275.04965L666.7286 229.3437L691.1429 249.37611L715.5571 256.50946L739.97144 270.53833L764.38574 256.1776L788.8 247.97145" fill-rule="nonzero"/><path fill="#000000" fill-opacity="0.0" clip-path="url(#id_0)" d="M108.2 396.65372C108.2 398.31058 106.85686 399.65372 105.2 399.65372C103.543144 399.65372 102.2 398.31058 102.2 396.65372C102.2 394.9969 103.543144 393.65372 105.2 393.65372C106.85686 393.65372 108.2 394.9969 108.2 396.65372Z" fill-rule="nonzero"/><path fill="#000000" fill-opacity="0.0" clip-path="url(#id_0)" d="M132.61429 362.40543C132.61429 364.0623 131.27113 365.40543 129.61429 365.40543C127.95743 365.40543 126.61429 364.0623 126.61429 362.40543C126.61429 360.7486 127.95743 359.40543 129.61429 359.40543C131.27113 359.40543 132.61429 360.7486 132.61429 362.40543Z" fill-rule="nonzero"/><path fill="#000000" fill-opacity="0.0" clip-path="url(#id_0)" d="M157.02856 300.26614C157.02856 301.92297 155.68542 303.26614 154.02856 303.26614C152.37172 303.26614 151.02856 301.92297 151.02856 300.26614C151.02856 298.60928 152.37172 297.26614 154.02856 297.26614C155.68542 297.26614 157.02856 298.60928 157.02856 300.26614Z" fill-rule="nonzero"/><path fill="#000000" fill-opacity="0.0" clip-path="url(#id_0)" d="M181.44286 305.95474C181.44286 307.61157 180.09972 308.95474 178.44286 308.95474C176.786 308.95474 175.44286 307.61157 175.44286 305.95474C175.44286 304.29788 176.786 302.95474 178.44286 302.95474C180.09972 302.95474 181.44286 304.29788 181.44286 305.95474Z" fill-rule="nonzero"/><path fill="#000000" fill-opacity="0.0" clip-path="url(#id_0)" d="M205.85715 298.54205C205.85715 300.1989 204.51399 301.54205 202.85715 301.54205C201.20029 301.54205 199.85715 300.1989 199.85715 298.54205C199.85715 296.8852 201.20029 295.54205 202.85715 295.54205C204.51399 295.54205 205.85715 296.8852 205.85715 298.54205Z" fill-rule="nonzero"/><path fill="#000000" fill-opacity="0.0" clip-path="url(#id_0)" d="M230.27142 291.55905C230.27142 293.2159 228.92828 294.55905 227.27142 294.55905C225.61458 294.55905 224.27142 293.2159 224.27142 291.55905C224.27142 289.9022 225.61458 288.55905 227.27142 288.55905C228.92828 288.55905 230.27142 289.9022 230.27142 291.55905Z" fill-rule="nonzero"/><path fill="#000000" fill-opacity="0.0" clip-path="url(#id_0)" d="M254.68571 325.50302C254.68571 327.15988 253.34258 328.50302 251.68571 328.50302C250.02885 328.50302 248.68571 327.15988 248.68571 325.50302C248.68571 323.84616 250.02885 322.50302 251.68571 322.50302C253.34258 322.50302 254.68571 323.84616 254.68571 325.50302Z" fill-rule="nonzero"/><path fill="#000000" fill-opacity="0.0" clip-path="url(#id_0)" d="M279.1 409.28516C279.1 410.94202 277.75687 412.28516 276.1 412.28516C274.44315 412.28516 273.1 410.94202 273.1 409.28516C273.1 407.6283 274.44315 406.28516 276.1 406.28516C277.75687 406.28516 279.1 407.6283 279.1 409.28516Z" fill-rule="nonzero"/><path fill="#000000" fill-opacity="0.0" clip-path="url(#id_0)" d="M303.51428 290.28552C303.51428 291.94238 302.17114 293.28552 300.51428 293.28552C298.85742 293.28552 297.51428 291.94238 297.51428 290.28552C297.51428 288.62866 298.85742 287.28552 300.51428 287.28552C302.17114 287.28552 303.51428 288.62866 303.51428 290.28552Z" fill-rule="nonzero"/><path fill="#000000" fill-opacity="0.0" clip-path="url(#id_0)" d="M327.92856 289.3948C327.92856 291.05167 326.58542 292.3948 324.92856 292.3948C323.27173 292.3948 321.92856 291.05167 321.92856 289.3948C321.92856 287.73795 323.27173 286.3948 324.92856 286.3948C326.58542 286.3948 327.92856 287.73795 327.92856 289.3948Z" fill-rule="nonzero"/><path fill="#000000" fill-opacity="0.0" clip-path="url(#id_0)" d="M352.34286 278.71542C352.34286 280.37228 350.99973 281.71542 349.34286 281.71542C347.686 281.71542 346.34286 280.37228 346.34286 278.71542C346.34286 277.05856 347.686 275.71542 349.34286 275.71542C350.99973 275.71542 352.34286 277.05856 352.34286 278.71542Z" fill-rule="nonzero"/><path fill="#000000" fill-opacity="0.0" clip-path="url(#id_0)" d="M376.75714 265.79416C376.75714 267.45102 375.414 268.79416 373.75714 268.79416C372.10028 268.79416 370.75714 267.45102 370.75714 265.79416C370.75714 264.1373 372.10028 262.79416 373.75714 262.79416C375.414 262.79416 376.75714 264.1373 376.75714 265.79416Z" fill-rule="nonzero"/><path fill="#000000" fill-opacity="0.0" clip-path="url(#id_0)" d="M401.17142 296.9068C401.17142 298.56366 399.82828 299.9068 398.17142 299.9068C396.5146 299.9068 395.17142 298.56366 395.17142 296.9068C395.17142 295.24994 396.5146 293.9068 398.17142 293.9068C399.82828 293.9068 401.17142 295.24994 401.17142 296.9068Z" fill-rule="nonzero"/><path fill="#000000" fill-opacity="0.0" clip-path="url(#id_0)" d="M425.58572 99.27628C425.58572 100.933136 424.24255 102.27628 422.58572 102.27628C420.92886 102.27628 419.58572 100.933136 419.58572 99.27628C419.58572 97.61942 420.92886 96.27628 422.58572 96.27628C424.24255 96.27628 425.58572 97.61942 425.58572 99.27628Z" fill-rule="nonzero"/><path fill="#000000" fill-opacity="0.0" clip-path="url(#id_0)" d="M450.0 220.8077C450.0 222.46455 448.65686 223.8077 447.0 223.8077C445.34314 223.8077 444.0 222.46455 444.0 220.8077C444.0 219.15083 445.34314 217.8077 447.0 217.8077C448.65686 217.8077 450.0 219.15083 450.0 220.8077Z" fill-rule="nonzero"/><path fill="#000000" fill-opacity="0.0" clip-path="url(#id_0)" d="M474.41428 243.8723C474.41428 245.52914 473.07114 246.8723 471.41428 246.8723C469.75745 246.8723 468.41428 245.52914 468.41428 243.8723C468.41428 242.21544 469.75745 240.8723 471.41428 240.8723C473.07114 240.8723 474.41428 242.21544 474.41428 243.8723Z" fill-rule="nonzero"/><path fill="#000000" fill-opacity="0.0" clip-path="url(#id_0)" d="M498.82858 264.91147C498.82858 266.56833 497.4854 267.91147 495.82858 267.91147C494.17172 267.91147 492.82858 266.56833 492.82858 264.91147C492.82858 263.25464 494.17172 261.91147 495.82858 261.91147C497.4854 261.91147 498.82858 263.25464 498.82858 264.91147Z" fill-rule="nonzero"/><path fill="#000000" fill-opacity="0.0" clip-path="url(#id_0)" d="M523.24286 266.12787C523.24286 267.78473 521.8997 269.12787 520.24286 269.12787C518.586 269.12787 517.24286 267.78473 517.24286 266.12787C517.24286 264.47104 518.586 263.12787 520.24286 263.12787C521.8997 263.12787 523.24286 264.47104 523.24286 266.12787Z" fill-rule="nonzero"/><path fill="#000000" fill-opacity="0.0" clip-path="url(#id_0)" d="M547.65717 282.37625C547.65717 284.03308 546.314 285.37625 544.65717 285.37625C543.0003 285.37625 541.65717 284.03308 541.65717 282.37625C541.65717 280.7194 543.0003 279.37625 544.65717 279.37625C546.314 279.37625 547.65717 280.7194 547.65717 282.37625Z" fill-rule="nonzero"/><path fill="#000000" fill-opacity="0.0" clip-path="url(#id_0)" d="M572.0714 281.5968C572.0714 283.25366 570.7283 284.5968 569.0714 284.5968C567.41455 284.5968 566.0714 283.25366 566.0714 281.5968C566.0714 279.93994 567.41455 278.5968 569.0714 278.5968C570.7283 278.5968 572.0714 279.93994 572.0714 281.5968Z" fill-rule="nonzero"/><path fill="#000000" fill-opacity="0.0" clip-path="url(#id_0)" d="M596.4857 268.00287C596.4857 269.65973 595.1426 271.00287 593.4857 271.00287C591.82886 271.00287 590.4857 269.65973 590.4857 268.00287C590.4857 266.346 591.82886 265.00287 593.4857 265.00287C595.1426 265.00287 596.4857 266.346 596.4857 268.00287Z" fill-rule="nonzero"/><path fill="#000000" fill-opacity="0.0" clip-path="url(#id_0)" d="M620.9 259.16095C620.9 260.8178 619.5569 262.16095 617.9 262.16095C616.24316 262.16095 614.9 260.8178 614.9 259.16095C614.9 257.5041 616.24316 256.16095 617.9 256.16095C619.5569 256.16095 620.9 257.5041 620.9 259.16095Z" fill-rule="nonzero"/><path fill="#000000" fill-opacity="0.0" clip-path="url(#id_0)" d="M645.3143 275.04965C645.3143 276.70648 643.9711 278.04965 642.3143 278.04965C640.6574 278.04965 639.3143 276.70648 639.3143 275.04965C639.3143 273.3928 640.6574 272.04965 642.3143 272.04965C643.9711 272.04965 645.3143 273.3928 645.3143 275.04965Z" fill-rule="nonzero"/><path fill="#000000" fill-opacity="0.0" clip-path="url(#id_0)" d="M669.7286 229.3437C669.7286 231.00055 668.38544 232.3437 666.7286 232.3437C665.0717 232.3437 663.7286 231.00055 663.7286 229.3437C663.7286 227.68684 665.0717 226.3437 666.7286 226.3437C668.38544 226.3437 669.7286 227.68684 669.7286 229.3437Z" fill-rule="nonzero"/><path fill="#000000" fill-opacity="0.0" clip-path="url(#id_0)" d="M694.1429 249.37611C694.1429 251.03296 692.7997 252.37611 691.1429 252.37611C689.486 252.37611 688.1429 251.03296 688.1429 249.37611C688.1429 247.71925 689.486 246.37611 691.1429 246.37611C692.7997 246.37611 694.1429 247.71925 694.1429 249.37611Z" fill-rule="nonzero"/><path fill="#000000" fill-opacity="0.0" clip-path="url(#id_0)" d="M718.5571 256.50946C718.5571 258.1663 717.214 259.50946 715.5571 259.50946C713.90027 259.50946 712.5571 258.1663 712.5571 256.50946C712.5571 254.8526 713.90027 253.50945 715.5571 253.50945C717.214 253.50945 718.5571 254.8526 718.5571 256.50946Z" fill-rule="nonzero"/><path fill="#000000" fill-opacity="0.0" clip-path="url(#id_0)" d="M742.97144 270.53833C742.97144 272.1952 741.6283 273.53833 739.97144 273.53833C738.3146 273.53833 736.97144 272.1952 736.97144 270.53833C736.97144 268.88147 738.3146 267.53833 739.97144 267.53833C741.6283 267.53833 742.97144 268.88147 742.97144 270.53833Z" fill-rule="nonzero"/><path fill="#000000" fill-opacity="0.0" clip-path="url(#id_0)" d="M767.38574 256.1776C767.38574 257.83447 766.04254 259.1776 764.38574 259.1776C762.7289 259.1776 761.38574 257.83447 761.38574 256.1776C761.38574 254.52077 762.7289 253.17761 764.38574 253.17761C766.04254 253.17761 767.38574 254.52077 767.38574 256.1776Z" fill-rule="nonzero"/><path fill="#000000" fill-opacity="0.0" clip-path="url(#id_0)" d="M791.8 247.97145C791.8 249.62831 790.45685 250.97145 788.8 250.97145C787.1431 250.97145 785.8 249.62831 785.8 247.97145C785.8 246.3146 787.1431 244.97145 788.8 244.97145C790.45685 244.97145 791.8 246.3146 791.8 247.97145Z" fill-rule="nonzero"/><path fill="#000000" d="M434.92188 475.8L434.92188 467.20624L437.89062 467.20624Q438.89062 467.20624 439.42188 467.33124Q440.15625 467.5031 440.67188 467.9406Q441.35938 468.51874 441.6875 469.425Q442.03125 470.3156 442.03125 471.45624Q442.03125 472.4406 441.79688 473.1906Q441.57812 473.9406 441.21875 474.4406Q440.85938 474.9406 440.42188 475.22186Q440.0 475.5031 439.40625 475.65936Q438.8125 475.8 438.03125 475.8L434.92188 475.8ZM436.0625 474.78436L437.89062 474.78436Q438.75 474.78436 439.23438 474.6281Q439.71875 474.47186 440.0 474.175Q440.40625 473.78436 440.625 473.09686Q440.85938 472.40936 440.85938 471.4406Q440.85938 470.09686 440.40625 469.3781Q439.96875 468.64374 439.34375 468.39374Q438.875 468.22186 437.875 468.22186L436.0625 468.22186L436.0625 474.78436ZM447.85938 475.03436Q447.26562 475.53436 446.71875 475.7375Q446.1875 475.9406 445.5625 475.9406Q444.53125 475.9406 443.98438 475.4406Q443.4375 474.9406 443.4375 474.15936Q443.4375 473.70624 443.64062 473.33124Q443.84375 472.9406 444.1875 472.72186Q444.53125 472.4875 444.95312 472.3781Q445.25 472.28436 445.89062 472.20624Q447.15625 472.0656 447.76562 471.84686Q447.76562 471.6281 447.76562 471.58124Q447.76562 470.925 447.46875 470.65936Q447.0625 470.3156 446.26562 470.3156Q445.53125 470.3156 445.17188 470.58124Q444.8125 470.83124 444.64062 471.4875L443.60938 471.34686Q443.75 470.6906 444.07812 470.28436Q444.40625 469.8781 445.01562 469.65936Q445.625 469.4406 446.42188 469.4406Q447.21875 469.4406 447.71875 469.6281Q448.21875 469.8156 448.45312 470.09686Q448.6875 470.3781 448.78125 470.8156Q448.82812 471.08124 448.82812 471.78436L448.82812 473.1906Q448.82812 474.65936 448.89062 475.05Q448.96875 475.4406 449.17188 475.8L448.0625 475.8Q447.90625 475.47186 447.85938 475.03436ZM447.76562 472.675Q447.1875 472.90936 446.04688 473.08124Q445.39062 473.175 445.125 473.3Q444.85938 473.40936 444.70312 473.6281Q444.5625 473.84686 444.5625 474.1281Q444.5625 474.55 444.875 474.83124Q445.20312 475.1125 445.8125 475.1125Q446.42188 475.1125 446.89062 474.84686Q447.375 474.58124 447.59375 474.1125Q447.76562 473.7531 447.76562 473.0656L447.76562 472.675ZM453.09375 474.8625L453.25 475.78436Q452.79688 475.8781 452.45312 475.8781Q451.875 475.8781 451.5625 475.70624Q451.25 475.51874 451.10938 475.22186Q450.98438 474.925 450.98438 473.97186L450.98438 470.39374L450.21875 470.39374L450.21875 469.58124L450.98438 469.58124L450.98438 468.03436L452.03125 467.40936L452.03125 469.58124L453.09375 469.58124L453.09375 470.39374L452.03125 470.39374L452.03125 474.03436Q452.03125 474.4875 452.07812 474.6125Q452.14062 474.7375 452.26562 474.8156Q452.39062 474.89374 452.625 474.89374Q452.8125 474.89374 453.09375 474.8625ZM458.04688 473.8L459.14062 473.925Q458.89062 474.8781 458.1875 475.40936Q457.48438 475.9406 456.40625 475.9406Q455.04688 475.9406 454.23438 475.09686Q453.4375 474.2531 453.4375 472.7375Q453.4375 471.175 454.25 470.3156Q455.0625 469.4406 456.34375 469.4406Q457.59375 469.4406 458.375 470.28436Q459.17188 471.1281 459.17188 472.675Q459.17188 472.76874 459.17188 472.95624L454.53125 472.95624Q454.59375 473.9875 455.10938 474.53436Q455.625 475.0656 456.40625 475.0656Q456.98438 475.0656 457.39062 474.76874Q457.8125 474.45624 458.04688 473.8ZM454.59375 472.09686L458.0625 472.09686Q458.0 471.3 457.67188 470.90936Q457.15625 470.3 456.35938 470.3Q455.625 470.3 455.125 470.78436Q454.64062 471.26874 454.59375 472.09686Z" fill-rule="nonzero"/><path fill="#000000" d="M36.19999 352.97812L27.606237 352.97812L27.606237 349.72812Q27.606237 348.88437 27.684362 348.43124Q27.793737 347.79062 28.090612 347.36874Q28.387487 346.93124 28.918737 346.68124Q29.449987 346.41562 30.090612 346.41562Q31.184362 346.41562 31.949987 347.11874Q32.69999 347.80624 32.69999 349.63437L32.69999 351.8375L36.19999 351.8375L36.19999 352.97812ZM31.699987 351.8375L31.699987 349.61874Q31.699987 348.50937 31.293737 348.05624Q30.871862 347.5875 30.121862 347.5875Q29.590612 347.5875 29.215612 347.86874Q28.824987 348.13437 28.699987 348.57187Q28.621862 348.86874 28.621862 349.63437L28.621862 351.8375L31.699987 351.8375ZM36.19999 345.13437L27.606237 345.13437L27.606237 344.07187L36.19999 344.07187L36.19999 345.13437ZM35.434364 338.04062Q35.934364 338.63437 36.13749 339.18124Q36.340614 339.7125 36.340614 340.3375Q36.340614 341.36874 35.840614 341.91562Q35.340614 342.4625 34.559364 342.4625Q34.10624 342.4625 33.73124 342.25937Q33.340614 342.05624 33.121864 341.7125Q32.88749 341.36874 32.778114 340.94687Q32.684364 340.65 32.60624 340.00937Q32.465614 338.74374 32.246864 338.13437Q32.028114 338.13437 31.981237 338.13437Q31.324987 338.13437 31.059362 338.43124Q30.715612 338.8375 30.715612 339.63437Q30.715612 340.36874 30.981237 340.72812Q31.231237 341.0875 31.887487 341.25937L31.746862 342.29062Q31.090612 342.15 30.684362 341.82187Q30.278112 341.49374 30.059362 340.88437Q29.840612 340.275 29.840612 339.47812Q29.840612 338.68124 30.028112 338.18124Q30.215612 337.68124 30.496862 337.44687Q30.778112 337.2125 31.215612 337.11874Q31.481237 337.07187 32.184364 337.07187L33.590614 337.07187Q35.059364 337.07187 35.44999 337.00937Q35.840614 336.93124 36.19999 336.72812L36.19999 337.8375Q35.871864 337.99374 35.434364 338.04062ZM33.07499 338.13437Q33.309364 338.7125 33.48124 339.85312Q33.57499 340.50937 33.69999 340.775Q33.809364 341.04062 34.028114 341.19687Q34.246864 341.3375 34.528114 341.3375Q34.94999 341.3375 35.23124 341.025Q35.51249 340.69687 35.51249 340.0875Q35.51249 339.47812 35.246864 339.00937Q34.98124 338.525 34.51249 338.30624Q34.153114 338.13437 33.465614 338.13437L33.07499 338.13437ZM36.19999 331.025L35.278114 331.025Q36.340614 331.75937 36.340614 333.00937Q36.340614 333.55624 36.13749 334.04062Q35.91874 334.50937 35.60624 334.74374Q35.278114 334.97812 34.809364 335.07187Q34.51249 335.13437 33.82499 335.13437L29.981237 335.13437L29.981237 334.07187L33.434364 334.07187Q34.246864 334.07187 34.54374 334.00937Q34.94999 333.91562 35.19999 333.60312Q35.434364 333.275 35.434364 332.79062Q35.434364 332.32187 35.19999 331.91562Q34.94999 331.49374 34.528114 331.32187Q34.10624 331.13437 33.309364 331.13437L29.981237 331.13437L29.981237 330.0875L36.19999 330.0875L36.19999 331.025ZM34.340614 328.525L34.184364 327.49374Q34.809364 327.4 35.13749 327.00937Q35.465614 326.60312 35.465614 325.86874Q35.465614 325.15 35.184364 324.80624Q34.88749 324.44687 34.48124 324.44687Q34.121864 324.44687 33.91874 324.75937Q33.778114 324.97812 33.559364 325.8375Q33.26249 326.99374 33.059364 327.44687Q32.840614 327.88437 32.465614 328.11874Q32.090614 328.35312 31.621862 328.35312Q31.215612 328.35312 30.856237 328.16562Q30.496862 327.97812 30.262487 327.65Q30.090612 327.4 29.965612 326.97812Q29.840612 326.55624 29.840612 326.05624Q29.840612 325.3375 30.059362 324.79062Q30.262487 324.22812 30.621862 323.9625Q30.981237 323.69687 31.574987 323.60312L31.715612 324.63437Q31.246862 324.69687 30.981237 325.04062Q30.699987 325.36874 30.699987 325.99374Q30.699987 326.7125 30.949987 327.025Q31.184362 327.3375 31.512487 327.3375Q31.715612 327.3375 31.871862 327.2125Q32.04374 327.07187 32.153114 326.80624Q32.215614 326.65 32.41874 325.86874Q32.73124 324.74374 32.91874 324.30624Q33.10624 323.86874 33.465614 323.61874Q33.82499 323.36874 34.371864 323.36874Q34.903114 323.36874 35.371864 323.68124Q35.82499 323.97812 36.090614 324.55624Q36.340614 325.13437 36.340614 325.86874Q36.340614 327.0875 35.840614 327.72812Q35.32499 328.35312 34.340614 328.525ZM28.824987 322.10312L27.606237 322.10312L27.606237 321.04062L28.824987 321.04062L28.824987 322.10312ZM36.19999 322.10312L29.981237 322.10312L29.981237 321.04062L36.19999 321.04062L36.19999 322.10312ZM36.19999 318.13437L36.19999 319.11874L27.606237 319.11874L27.606237 318.05624L30.668737 318.05624Q29.840612 317.38437 29.840612 316.35312Q29.840612 315.775 30.074987 315.275Q30.293737 314.75937 30.715612 314.43124Q31.137487 314.0875 31.731237 313.9Q32.32499 313.7125 32.996864 313.7125Q34.590614 313.7125 35.465614 314.50937Q36.340614 315.30624 36.340614 316.4Q36.340614 317.50937 35.41874 318.13437L36.19999 318.13437ZM33.04374 318.15Q34.153114 318.15 34.653114 317.8375Q35.465614 317.3375 35.465614 316.49374Q35.465614 315.80624 34.871864 315.30624Q34.278114 314.79062 33.07499 314.79062Q31.856237 314.79062 31.278112 315.275Q30.699987 315.75937 30.699987 316.44687Q30.699987 317.13437 31.309362 317.65Q31.903112 318.15 33.04374 318.15ZM36.19999 312.13437L27.606237 312.13437L27.606237 311.07187L36.19999 311.07187L36.19999 312.13437ZM34.19999 304.85312L34.32499 303.75937Q35.278114 304.00937 35.809364 304.7125Q36.340614 305.41562 36.340614 306.49374Q36.340614 307.85312 35.496864 308.66562Q34.653114 309.4625 33.13749 309.4625Q31.574987 309.4625 30.715612 308.65Q29.840612 307.8375 29.840612 306.55624Q29.840612 305.30624 30.684362 304.525Q31.528112 303.72812 33.07499 303.72812Q33.16874 303.72812 33.35624 303.72812L33.35624 308.36874Q34.38749 308.30624 34.934364 307.79062Q35.465614 307.275 35.465614 306.49374Q35.465614 305.91562 35.16874 305.50937Q34.85624 305.0875 34.19999 304.85312ZM32.496864 308.30624L32.496864 304.8375Q31.699987 304.9 31.309362 305.22812Q30.699987 305.74374 30.699987 306.54062Q30.699987 307.275 31.184362 307.775Q31.668737 308.25937 32.496864 308.30624ZM33.090614 299.49374Q31.356237 299.49374 30.528112 298.54062Q29.840612 297.74374 29.840612 296.5875Q29.840612 295.30624 30.684362 294.49374Q31.512487 293.66562 32.996864 293.66562Q34.19999 293.66562 34.88749 294.025Q35.57499 294.38437 35.965614 295.0875Q36.340614 295.775 36.340614 296.5875Q36.340614 297.88437 35.51249 298.69687Q34.66874 299.49374 33.090614 299.49374ZM33.090614 298.41562Q34.278114 298.41562 34.871864 297.9Q35.465614 297.36874 35.465614 296.5875Q35.465614 295.79062 34.871864 295.275Q34.278114 294.75937 33.059364 294.75937Q31.903112 294.75937 31.309362 295.29062Q30.715612 295.80624 30.715612 296.5875Q30.715612 297.36874 31.309362 297.9Q31.887487 298.41562 33.090614 298.41562ZM36.19999 290.38437L29.981237 292.74374L29.981237 291.63437L33.69999 290.29062Q34.309364 290.0875 34.94999 289.9Q34.465614 289.75937 33.778114 289.50937L29.981237 288.11874L29.981237 287.04062L36.19999 289.4L36.19999 290.38437ZM34.19999 281.85312L34.32499 280.75937Q35.278114 281.00937 35.809364 281.7125Q36.340614 282.41562 36.340614 283.49374Q36.340614 284.85312 35.496864 285.66562Q34.653114 286.4625 33.13749 286.4625Q31.574987 286.4625 30.715612 285.65Q29.840612 284.8375 29.840612 283.55624Q29.840612 282.30624 30.684362 281.525Q31.528112 280.72812 33.07499 280.72812Q33.16874 280.72812 33.35624 280.72812L33.35624 285.36874Q34.38749 285.30624 34.934364 284.79062Q35.465614 284.275 35.465614 283.49374Q35.465614 282.91562 35.16874 282.50937Q34.85624 282.0875 34.19999 281.85312ZM32.496864 285.30624L32.496864 281.8375Q31.699987 281.9 31.309362 282.22812Q30.699987 282.74374 30.699987 283.54062Q30.699987 284.275 31.184362 284.775Q31.668737 285.25937 32.496864 285.30624ZM36.19999 279.11874L29.981237 279.11874L29.981237 278.16562L30.918737 278.16562Q30.262487 277.80624 30.059362 277.50937Q29.840612 277.19687 29.840612 276.82187Q29.840612 276.29062 30.168737 275.74374L31.153112 276.10312Q30.918737 276.49374 30.918737 276.86874Q30.918737 277.22812 31.137487 277.50937Q31.340612 277.775 31.715612 277.88437Q32.278114 278.07187 32.934364 278.07187L36.19999 278.07187L36.19999 279.11874ZM32.82499 267.94687L31.824987 267.94687L31.809362 264.32187L34.996864 264.32187Q35.66874 265.15 36.01249 266.04062Q36.340614 266.93124 36.340614 267.86874Q36.340614 269.13437 35.809364 270.18124Q35.26249 271.2125 34.246864 271.74374Q33.215614 272.25937 31.949987 272.25937Q30.684362 272.25937 29.606237 271.74374Q28.512487 271.2125 27.996862 270.22812Q27.465612 269.24374 27.465612 267.9625Q27.465612 267.025 27.762487 266.275Q28.059362 265.525 28.606237 265.10312Q29.137487 264.66562 30.012487 264.44687L30.293737 265.4625Q29.637487 265.66562 29.262487 265.9625Q28.887487 266.24374 28.668737 266.775Q28.434362 267.30624 28.434362 267.94687Q28.434362 268.72812 28.668737 269.30624Q28.903112 269.86874 29.293737 270.22812Q29.684362 270.57187 30.153112 270.75937Q30.949987 271.0875 31.871862 271.0875Q33.028114 271.0875 33.809364 270.69687Q34.57499 270.29062 34.94999 269.54062Q35.32499 268.79062 35.32499 267.93124Q35.32499 267.19687 35.04374 266.49374Q34.746864 265.79062 34.434364 265.43124L32.82499 265.43124L32.82499 267.94687ZM33.090614 263.49374Q31.356237 263.49374 30.528112 262.54062Q29.840612 261.74374 29.840612 260.5875Q29.840612 259.30624 30.684362 258.49374Q31.512487 257.66562 32.996864 257.66562Q34.19999 257.66562 34.88749 258.025Q35.57499 258.38437 35.965614 259.0875Q36.340614 259.775 36.340614 260.5875Q36.340614 261.88437 35.51249 262.69687Q34.66874 263.49374 33.090614 263.49374ZM33.090614 262.41562Q34.278114 262.41562 34.871864 261.9Q35.465614 261.36874 35.465614 260.5875Q35.465614 259.79062 34.871864 259.275Q34.278114 258.75937 33.059364 258.75937Q31.903112 258.75937 31.309362 259.29062Q30.715612 259.80624 30.715612 260.5875Q30.715612 261.36874 31.309362 261.9Q31.887487 262.41562 33.090614 262.41562ZM33.090614 256.49374Q31.356237 256.49374 30.528112 255.54062Q29.840612 254.74374 29.840612 253.5875Q29.840612 252.30624 30.684362 251.49374Q31.512487 250.66562 32.996864 250.66562Q34.19999 250.66562 34.88749 251.025Q35.57499 251.38437 35.965614 252.0875Q36.340614 252.775 36.340614 253.5875Q36.340614 254.88437 35.51249 255.69687Q34.66874 256.49374 33.090614 256.49374ZM33.090614 255.41562Q34.278114 255.41562 34.871864 254.9Q35.465614 254.36874 35.465614 253.5875Q35.465614 252.79062 34.871864 252.275Q34.278114 251.75937 33.059364 251.75937Q31.903112 251.75937 31.309362 252.29062Q30.715612 252.80624 30.715612 253.5875Q30.715612 254.36874 31.309362 254.9Q31.887487 255.41562 33.090614 255.41562ZM36.715614 249.30624L36.871864 248.275Q37.340614 248.2125 37.559364 247.91562Q37.85624 247.525 37.85624 246.85312Q37.85624 246.11874 37.559364 245.72812Q37.26249 245.32187 36.746864 245.18124Q36.41874 245.0875 35.38749 245.10312Q36.19999 245.79062 36.19999 246.82187Q36.19999 248.10312 35.278114 248.80624Q34.340614 249.50937 33.059364 249.50937Q32.16874 249.50937 31.418737 249.19687Q30.653112 248.86874 30.246862 248.25937Q29.840612 247.65 29.840612 246.82187Q29.840612 245.7125 30.731237 244.99374L29.981237 244.99374L29.981237 244.025L35.35624 244.025Q36.809364 244.025 37.41874 244.32187Q38.028114 244.61874 38.371864 245.25937Q38.73124 245.9 38.73124 246.8375Q38.73124 247.94687 38.23124 248.63437Q37.73124 249.32187 36.715614 249.30624ZM32.98124 248.43124Q34.19999 248.43124 34.76249 247.94687Q35.32499 247.4625 35.32499 246.72812Q35.32499 245.99374 34.76249 245.50937Q34.19999 245.00937 33.01249 245.00937Q31.871862 245.00937 31.293737 245.525Q30.715612 246.025 30.715612 246.74374Q30.715612 247.44687 31.293737 247.94687Q31.856237 248.43124 32.98124 248.43124ZM36.19999 242.13437L27.606237 242.13437L27.606237 241.07187L36.19999 241.07187L36.19999 242.13437ZM34.19999 234.85312L34.32499 233.75937Q35.278114 234.00937 35.809364 234.7125Q36.340614 235.41562 36.340614 236.49374Q36.340614 237.85312 35.496864 238.66562Q34.653114 239.4625 33.13749 239.4625Q31.574987 239.4625 30.715612 238.65Q29.840612 237.8375 29.840612 236.55624Q29.840612 235.30624 30.684362 234.525Q31.528112 233.72812 33.07499 233.72812Q33.16874 233.72812 33.35624 233.72812L33.35624 238.36874Q34.38749 238.30624 34.934364 237.79062Q35.465614 237.275 35.465614 236.49374Q35.465614 235.91562 35.16874 235.50937Q34.85624 235.0875 34.19999 234.85312ZM32.496864 238.30624L32.496864 234.8375Q31.699987 234.9 31.309362 235.22812Q30.699987 235.74374 30.699987 236.54062Q30.699987 237.275 31.184362 237.775Q31.668737 238.25937 32.496864 238.30624ZM36.19999 229.91562L27.606237 226.61874L27.606237 225.4L36.19999 221.88437L36.19999 223.16562L33.590614 224.18124L33.590614 227.75937L36.19999 228.7125L36.19999 229.91562ZM32.66874 227.43124L32.66874 224.525L30.293737 225.41562Q29.215612 225.8375 28.512487 226.025Q29.340612 226.19687 30.153112 226.49374L32.66874 227.43124ZM36.19999 221.10312L29.981237 221.10312L29.981237 220.16562L30.856237 220.16562Q29.840612 219.47812 29.840612 218.18124Q29.840612 217.61874 30.043737 217.15Q30.246862 216.66562 30.574987 216.43124Q30.903112 216.19687 31.340612 216.10312Q31.637487 216.05624 32.371864 216.05624L36.19999 216.05624L36.19999 217.10312L32.41874 217.10312Q31.762487 217.10312 31.449987 217.22812Q31.137487 217.35312 30.949987 217.66562Q30.746862 217.97812 30.746862 218.4Q30.746862 219.07187 31.184362 219.57187Q31.606237 220.05624 32.79374 220.05624L36.19999 220.05624L36.19999 221.10312ZM35.434364 210.04062Q35.934364 210.63437 36.13749 211.18124Q36.340614 211.7125 36.340614 212.3375Q36.340614 213.36874 35.840614 213.91562Q35.340614 214.4625 34.559364 214.4625Q34.10624 214.4625 33.73124 214.25937Q33.340614 214.05624 33.121864 213.7125Q32.88749 213.36874 32.778114 212.94687Q32.684364 212.65 32.60624 212.00937Q32.465614 210.74374 32.246864 210.13437Q32.028114 210.13437 31.981237 210.13437Q31.324987 210.13437 31.059362 210.43124Q30.715612 210.8375 30.715612 211.63437Q30.715612 212.36874 30.981237 212.72812Q31.231237 213.0875 31.887487 213.25937L31.746862 214.29062Q31.090612 214.15 30.684362 213.82187Q30.278112 213.49374 30.059362 212.88437Q29.840612 212.275 29.840612 211.47812Q29.840612 210.68124 30.028112 210.18124Q30.215612 209.68124 30.496862 209.44687Q30.778112 209.2125 31.215612 209.11874Q31.481237 209.07187 32.184364 209.07187L33.590614 209.07187Q35.059364 209.07187 35.44999 209.00937Q35.840614 208.93124 36.19999 208.72812L36.19999 209.8375Q35.871864 209.99374 35.434364 210.04062ZM33.07499 210.13437Q33.309364 210.7125 33.48124 211.85312Q33.57499 212.50937 33.69999 212.775Q33.809364 213.04062 34.028114 213.19687Q34.246864 213.3375 34.528114 213.3375Q34.94999 213.3375 35.23124 213.025Q35.51249 212.69687 35.51249 212.0875Q35.51249 211.47812 35.246864 211.00937Q34.98124 210.525 34.51249 210.30624Q34.153114 210.13437 33.465614 210.13437L33.07499 210.13437ZM36.19999 207.13437L27.606237 207.13437L27.606237 206.07187L36.19999 206.07187L36.19999 207.13437ZM38.590614 204.15L37.60624 204.275Q37.69999 203.93124 37.69999 203.66562Q37.69999 203.32187 37.57499 203.11874Q37.465614 202.9 37.26249 202.75937Q37.090614 202.66562 36.465614 202.43124Q36.38749 202.41562 36.215614 202.3375L29.981237 204.7125L29.981237 203.57187L33.57499 202.275Q34.26249 202.025 35.028114 201.82187Q34.29374 201.63437 33.60624 201.38437L29.981237 200.05624L29.981237 199.00937L36.309364 201.36874Q37.32499 201.75937 37.715614 201.9625Q38.246864 202.24374 38.48124 202.61874Q38.73124 202.97812 38.73124 203.47812Q38.73124 203.775 38.590614 204.15ZM35.26249 195.80624L36.184364 195.65Q36.278114 196.10312 36.278114 196.44687Q36.278114 197.025 36.10624 197.3375Q35.91874 197.65 35.621864 197.79062Q35.32499 197.91562 34.371864 197.91562L30.793737 197.91562L30.793737 198.68124L29.981237 198.68124L29.981237 197.91562L28.434362 197.91562L27.809362 196.86874L29.981237 196.86874L29.981237 195.80624L30.793737 195.80624L30.793737 196.86874L34.434364 196.86874Q34.88749 196.86874 35.01249 196.82187Q35.13749 196.75937 35.215614 196.63437Q35.29374 196.50937 35.29374 196.275Q35.29374 196.0875 35.26249 195.80624ZM28.824987 195.10312L27.606237 195.10312L27.606237 194.04062L28.824987 194.04062L28.824987 195.10312ZM36.19999 195.10312L29.981237 195.10312L29.981237 194.04062L36.19999 194.04062L36.19999 195.10312ZM33.91874 188.04062L34.059364 187.00937Q35.121864 187.18124 35.73124 187.88437Q36.340614 188.5875 36.340614 189.60312Q36.340614 190.88437 35.51249 191.66562Q34.66874 192.43124 33.10624 192.43124Q32.10624 192.43124 31.356237 192.10312Q30.590612 191.75937 30.215612 191.0875Q29.840612 190.4 29.840612 189.5875Q29.840612 188.5875 30.356237 187.94687Q30.856237 187.29062 31.809362 187.10312L31.965612 188.13437Q31.340612 188.275 31.028112 188.65Q30.699987 189.025 30.699987 189.55624Q30.699987 190.35312 31.278112 190.85312Q31.840612 191.35312 33.07499 191.35312Q34.340614 191.35312 34.903114 190.86874Q35.465614 190.38437 35.465614 189.61874Q35.465614 188.99374 35.090614 188.5875Q34.715614 188.16562 33.91874 188.04062ZM34.340614 186.525L34.184364 185.49374Q34.809364 185.4 35.13749 185.00937Q35.465614 184.60312 35.465614 183.86874Q35.465614 183.15 35.184364 182.80624Q34.88749 182.44687 34.48124 182.44687Q34.121864 182.44687 33.91874 182.75937Q33.778114 182.97812 33.559364 183.8375Q33.26249 184.99374 33.059364 185.44687Q32.840614 185.88437 32.465614 186.11874Q32.090614 186.35312 31.621862 186.35312Q31.215612 186.35312 30.856237 186.16562Q30.496862 185.97812 30.262487 185.65Q30.090612 185.4 29.965612 184.97812Q29.840612 184.55624 29.840612 184.05624Q29.840612 183.3375 30.059362 182.79062Q30.262487 182.22812 30.621862 181.9625Q30.981237 181.69687 31.574987 181.60312L31.715612 182.63437Q31.246862 182.69687 30.981237 183.04062Q30.699987 183.36874 30.699987 183.99374Q30.699987 184.7125 30.949987 185.025Q31.184362 185.3375 31.512487 185.3375Q31.715612 185.3375 31.871862 185.2125Q32.04374 185.07187 32.153114 184.80624Q32.215614 184.65 32.41874 183.86874Q32.73124 182.74374 32.91874 182.30624Q33.10624 181.86874 33.465614 181.61874Q33.82499 181.36874 34.371864 181.36874Q34.903114 181.36874 35.371864 181.68124Q35.82499 181.97812 36.090614 182.55624Q36.340614 183.13437 36.340614 183.86874Q36.340614 185.0875 35.840614 185.72812Q35.32499 186.35312 34.340614 186.525ZM38.73124 175.0875Q37.621864 175.9625 36.153114 176.57187Q34.66874 177.16562 33.090614 177.16562Q31.699987 177.16562 30.418737 176.72812Q28.934362 176.19687 27.465612 175.0875L27.465612 174.3375Q28.684362 175.04062 29.199987 175.275Q30.012487 175.63437 30.887487 175.8375Q31.981237 176.0875 33.090614 176.0875Q35.91874 176.0875 38.73124 174.3375L38.73124 175.0875ZM29.668737 173.19687Q28.746862 173.19687 28.106237 172.74374Q27.465612 172.275 27.465612 171.4Q27.465612 170.5875 28.043737 170.05624Q28.621862 169.525 29.731237 169.525Q30.824987 169.525 31.418737 170.07187Q31.996862 170.60312 31.996862 171.38437Q31.996862 172.16562 31.418737 172.68124Q30.840612 173.19687 29.668737 173.19687ZM28.184362 171.36874Q28.184362 171.75937 28.528112 172.025Q28.871862 172.275 29.778112 172.275Q30.606237 172.275 30.949987 172.025Q31.278112 171.75937 31.278112 171.36874Q31.278112 170.9625 30.934362 170.7125Q30.590612 170.44687 29.699987 170.44687Q28.856237 170.44687 28.528112 170.7125Q28.184362 170.97812 28.184362 171.36874ZM36.51249 171.36874L27.465612 166.66562L27.465612 165.80624L36.51249 170.49374L36.51249 171.36874ZM34.184364 167.65Q33.26249 167.65 32.621864 167.19687Q31.981237 166.72812 31.981237 165.8375Q31.981237 165.025 32.559364 164.49374Q33.121864 163.9625 34.246864 163.9625Q35.340614 163.9625 35.934364 164.50937Q36.51249 165.04062 36.51249 165.8375Q36.51249 166.60312 35.934364 167.13437Q35.35624 167.65 34.184364 167.65ZM32.69999 165.80624Q32.69999 166.2125 33.04374 166.47812Q33.38749 166.72812 34.29374 166.72812Q35.10624 166.72812 35.44999 166.4625Q35.79374 166.19687 35.79374 165.80624Q35.79374 165.41562 35.44999 165.15Q35.10624 164.88437 34.19999 164.88437Q33.371864 164.88437 33.04374 165.15Q32.69999 165.41562 32.69999 165.80624ZM38.73124 161.41562L38.73124 162.16562Q35.91874 160.41562 33.090614 160.41562Q31.996862 160.41562 30.903112 160.66562Q30.028112 160.86874 29.215612 161.22812Q28.699987 161.4625 27.465612 162.16562L27.465612 161.41562Q28.934362 160.32187 30.418737 159.79062Q31.699987 159.3375 33.090614 159.3375Q34.66874 159.3375 36.153114 159.94687Q37.621864 160.55624 38.73124 161.41562Z" fill-rule="nonzero"/><path fill="#000000" d="M64.7 426.5656Q64.7 425.03436 65.0125 424.1125Q65.325 423.175 65.93437 422.675Q66.55937 422.175 67.49687 422.175Q68.18437 422.175 68.7 422.45624Q69.23125 422.7375 69.575 423.26874Q69.91875 423.78436 70.10625 424.53436Q70.29375 425.28436 70.29375 426.5656Q70.29375 428.08124 69.98125 429.0031Q69.68437 429.925 69.05937 430.4406Q68.45 430.9406 67.49687 430.9406Q66.2625 430.9406 65.54375 430.05Q64.7 428.9875 64.7 426.5656ZM65.77812 426.5656Q65.77812 428.675 66.27812 429.3781Q66.77812 430.08124 67.49687 430.08124Q68.23125 430.08124 68.71562 429.3781Q69.21562 428.675 69.21562 426.5656Q69.21562 424.4406 68.71562 423.7531Q68.23125 423.05 67.48125 423.05Q66.7625 423.05 66.325 423.65936Q65.77812 424.4406 65.77812 426.5656ZM72.29375 430.8L72.29375 429.59686L73.49687 429.59686L73.49687 430.8L72.29375 430.8ZM74.7 426.5656Q74.7 425.03436 75.0125 424.1125Q75.325 423.175 75.93437 422.675Q76.55937 422.175 77.49687 422.175Q78.18437 422.175 78.7 422.45624Q79.23125 422.7375 79.575 423.26874Q79.91875 423.78436 80.10625 424.53436Q80.29375 425.28436 80.29375 426.5656Q80.29375 428.08124 79.98125 429.0031Q79.68437 429.925 79.05937 430.4406Q78.45 430.9406 77.49687 430.9406Q76.2625 430.9406 75.54375 430.05Q74.7 428.9875 74.7 426.5656ZM75.77812 426.5656Q75.77812 428.675 76.27812 429.3781Q76.77812 430.08124 77.49687 430.08124Q78.23125 430.08124 78.71562 429.3781Q79.21562 428.675 79.21562 426.5656Q79.21562 424.4406 78.71562 423.7531Q78.23125 423.05 77.48125 423.05Q76.7625 423.05 76.325 423.65936Q75.77812 424.4406 75.77812 426.5656ZM81.7 426.5656Q81.7 425.03436 82.0125 424.1125Q82.325 423.175 82.93437 422.675Q83.55937 422.175 84.49687 422.175Q85.18437 422.175 85.7 422.45624Q86.23125 422.7375 86.575 423.26874Q86.91875 423.78436 87.10625 424.53436Q87.29375 425.28436 87.29375 426.5656Q87.29375 428.08124 86.98125 429.0031Q86.68437 429.925 86.05937 430.4406Q85.45 430.9406 84.49687 430.9406Q83.2625 430.9406 82.54375 430.05Q81.7 428.9875 81.7 426.5656ZM82.77812 426.5656Q82.77812 428.675 83.27812 429.3781Q83.77812 430.08124 84.49687 430.08124Q85.23125 430.08124 85.71562 429.3781Q86.21562 428.675 86.21562 426.5656Q86.21562 424.4406 85.71562 423.7531Q85.23125 423.05 84.48125 423.05Q83.7625 423.05 83.325 423.65936Q82.77812 424.4406 82.77812 426.5656ZM88.90312 424.26874Q88.90312 423.34686 89.35625 422.70624Q89.825 422.0656 90.7 422.0656Q91.5125 422.0656 92.04375 422.64374Q92.575 423.22186 92.575 424.33124Q92.575 425.425 92.02812 426.01874Q91.49687 426.59686 90.71562 426.59686Q89.93437 426.59686 89.41875 426.01874Q88.90312 425.4406 88.90312 424.26874ZM90.73125 422.78436Q90.34062 422.78436 90.075 423.1281Q89.825 423.47186 89.825 424.3781Q89.825 425.20624 90.075 425.55Q90.34062 425.8781 90.73125 425.8781Q91.1375 425.8781 91.3875 425.53436Q91.65312 425.1906 91.65312 424.3Q91.65312 423.45624 91.3875 423.1281Q91.12187 422.78436 90.73125 422.78436ZM90.73125 431.1125L95.43437 422.0656L96.29375 422.0656L91.60625 431.1125L90.73125 431.1125ZM94.45 428.78436Q94.45 427.8625 94.90312 427.22186Q95.37187 426.58124 96.2625 426.58124Q97.075 426.58124 97.60625 427.15936Q98.1375 427.72186 98.1375 428.84686Q98.1375 429.9406 97.59062 430.53436Q97.05937 431.1125 96.2625 431.1125Q95.49687 431.1125 94.96562 430.53436Q94.45 429.95624 94.45 428.78436ZM96.29375 427.3Q95.8875 427.3 95.62187 427.64374Q95.37187 427.9875 95.37187 428.89374Q95.37187 429.70624 95.6375 430.05Q95.90312 430.39374 96.29375 430.39374Q96.68437 430.39374 96.95 430.05Q97.21562 429.70624 97.21562 428.8Q97.21562 427.97186 96.95 427.64374Q96.68437 427.3 96.29375 427.3Z" fill-rule="nonzero"/><path fill="#000000" d="M61.66875 360.04L60.621876 360.04L60.621876 353.32126Q60.23125 353.68063 59.60625 354.05563Q58.996876 354.415 58.5125 354.58688L58.5125 353.57126Q59.3875 353.14938 60.04375 352.57126Q60.715626 351.9775 60.996876 351.415L61.66875 351.415L61.66875 360.04ZM64.7 355.80563Q64.7 354.27438 65.0125 353.3525Q65.325 352.415 65.93437 351.915Q66.55937 351.415 67.49687 351.415Q68.18437 351.415 68.7 351.69626Q69.23125 351.9775 69.575 352.50876Q69.91875 353.02438 70.10625 353.77438Q70.29375 354.52438 70.29375 355.80563Q70.29375 357.32126 69.98125 358.24313Q69.68437 359.165 69.05937 359.68063Q68.45 360.18063 67.49687 360.18063Q66.2625 360.18063 65.54375 359.29Q64.7 358.2275 64.7 355.80563ZM65.77812 355.80563Q65.77812 357.915 66.27812 358.61813Q66.77812 359.32126 67.49687 359.32126Q68.23125 359.32126 68.71562 358.61813Q69.21562 357.915 69.21562 355.80563Q69.21562 353.68063 68.71562 352.99313Q68.23125 352.29 67.48125 352.29Q66.7625 352.29 66.325 352.89938Q65.77812 353.68063 65.77812 355.80563ZM72.29375 360.04L72.29375 358.83688L73.49687 358.83688L73.49687 360.04L72.29375 360.04ZM74.7 355.80563Q74.7 354.27438 75.0125 353.3525Q75.325 352.415 75.93437 351.915Q76.55937 351.415 77.49687 351.415Q78.18437 351.415 78.7 351.69626Q79.23125 351.9775 79.575 352.50876Q79.91875 353.02438 80.10625 353.77438Q80.29375 354.52438 80.29375 355.80563Q80.29375 357.32126 79.98125 358.24313Q79.68437 359.165 79.05937 359.68063Q78.45 360.18063 77.49687 360.18063Q76.2625 360.18063 75.54375 359.29Q74.7 358.2275 74.7 355.80563ZM75.77812 355.80563Q75.77812 357.915 76.27812 358.61813Q76.77812 359.32126 77.49687 359.32126Q78.23125 359.32126 78.71562 358.61813Q79.21562 357.915 79.21562 355.80563Q79.21562 353.68063 78.71562 352.99313Q78.23125 352.29 77.48125 352.29Q76.7625 352.29 76.325 352.89938Q75.77812 353.68063 75.77812 355.80563ZM81.7 355.80563Q81.7 354.27438 82.0125 353.3525Q82.325 352.415 82.93437 351.915Q83.55937 351.415 84.49687 351.415Q85.18437 351.415 85.7 351.69626Q86.23125 351.9775 86.575 352.50876Q86.91875 353.02438 87.10625 353.77438Q87.29375 354.52438 87.29375 355.80563Q87.29375 357.32126 86.98125 358.24313Q86.68437 359.165 86.05937 359.68063Q85.45 360.18063 84.49687 360.18063Q83.2625 360.18063 82.54375 359.29Q81.7 358.2275 81.7 355.80563ZM82.77812 355.80563Q82.77812 357.915 83.27812 358.61813Q83.77812 359.32126 84.49687 359.32126Q85.23125 359.32126 85.71562 358.61813Q86.21562 357.915 86.21562 355.80563Q86.21562 353.68063 85.71562 352.99313Q85.23125 352.29 84.48125 352.29Q83.7625 352.29 83.325 352.89938Q82.77812 353.68063 82.77812 355.80563ZM88.90312 353.50876Q88.90312 352.58688 89.35625 351.94626Q89.825 351.30563 90.7 351.30563Q91.5125 351.30563 92.04375 351.88376Q92.575 352.46188 92.575 353.57126Q92.575 354.665 92.02812 355.25876Q91.49687 355.83688 90.71562 355.83688Q89.93437 355.83688 89.41875 355.25876Q88.90312 354.68063 88.90312 353.50876ZM90.73125 352.02438Q90.34062 352.02438 90.075 352.36813Q89.825 352.71188 89.825 353.61813Q89.825 354.44626 90.075 354.79Q90.34062 355.11813 90.73125 355.11813Q91.1375 355.11813 91.3875 354.77438Q91.65312 354.43063 91.65312 353.54Q91.65312 352.69626 91.3875 352.36813Q91.12187 352.02438 90.73125 352.02438ZM90.73125 360.3525L95.43437 351.30563L96.29375 351.30563L91.60625 360.3525L90.73125 360.3525ZM94.45 358.02438Q94.45 357.1025 94.90312 356.46188Q95.37187 355.82126 96.2625 355.82126Q97.075 355.82126 97.60625 356.39938Q98.1375 356.96188 98.1375 358.08688Q98.1375 359.18063 97.59062 359.77438Q97.05937 360.3525 96.2625 360.3525Q95.49687 360.3525 94.96562 359.77438Q94.45 359.19626 94.45 358.02438ZM96.29375 356.54Q95.8875 356.54 95.62187 356.88376Q95.37187 357.2275 95.37187 358.13376Q95.37187 358.94626 95.6375 359.29Q95.90312 359.63376 96.29375 359.63376Q96.68437 359.63376 96.95 359.29Q97.21562 358.94626 97.21562 358.04Q97.21562 357.21188 96.95 356.88376Q96.68437 356.54 96.29375 356.54Z" fill-rule="nonzero"/><path fill="#000000" d="M63.246876 288.26437L63.246876 289.28L57.559376 289.28Q57.559376 288.905 57.684376 288.54562Q57.903126 287.9675 58.371876 287.405Q58.85625 286.8425 59.7625 286.10812Q61.16875 284.95187 61.653126 284.28Q62.153126 283.60812 62.153126 283.01437Q62.153126 282.38937 61.7 281.9675Q61.246876 281.53 60.528126 281.53Q59.7625 281.53 59.309376 281.98312Q58.85625 282.43625 58.840626 283.24875L57.7625 283.13937Q57.871876 281.92062 58.590626 281.29562Q59.325 280.655 60.559376 280.655Q61.79375 280.655 62.5125 281.3425Q63.23125 282.03 63.23125 283.04562Q63.23125 283.56125 63.0125 284.06125Q62.809376 284.54562 62.309376 285.10812Q61.825 285.655 60.7 286.60812Q59.746876 287.405 59.465626 287.70187Q59.2 287.98312 59.028126 288.26437L63.246876 288.26437ZM64.7 285.04562Q64.7 283.51437 65.0125 282.5925Q65.325 281.655 65.93437 281.155Q66.55937 280.655 67.49687 280.655Q68.18437 280.655 68.7 280.93625Q69.23125 281.2175 69.575 281.74875Q69.91875 282.26437 70.10625 283.01437Q70.29375 283.76437 70.29375 285.04562Q70.29375 286.56125 69.98125 287.48312Q69.68437 288.405 69.05937 288.92062Q68.45 289.42062 67.49687 289.42062Q66.2625 289.42062 65.54375 288.53Q64.7 287.4675 64.7 285.04562ZM65.77812 285.04562Q65.77812 287.155 66.27812 287.85812Q66.77812 288.56125 67.49687 288.56125Q68.23125 288.56125 68.71562 287.85812Q69.21562 287.155 69.21562 285.04562Q69.21562 282.92062 68.71562 282.23312Q68.23125 281.53 67.48125 281.53Q66.7625 281.53 66.325 282.13937Q65.77812 282.92062 65.77812 285.04562ZM72.29375 289.28L72.29375 288.07687L73.49687 288.07687L73.49687 289.28L72.29375 289.28ZM74.7 285.04562Q74.7 283.51437 75.0125 282.5925Q75.325 281.655 75.93437 281.155Q76.55937 280.655 77.49687 280.655Q78.18437 280.655 78.7 280.93625Q79.23125 281.2175 79.575 281.74875Q79.91875 282.26437 80.10625 283.01437Q80.29375 283.76437 80.29375 285.04562Q80.29375 286.56125 79.98125 287.48312Q79.68437 288.405 79.05937 288.92062Q78.45 289.42062 77.49687 289.42062Q76.2625 289.42062 75.54375 288.53Q74.7 287.4675 74.7 285.04562ZM75.77812 285.04562Q75.77812 287.155 76.27812 287.85812Q76.77812 288.56125 77.49687 288.56125Q78.23125 288.56125 78.71562 287.85812Q79.21562 287.155 79.21562 285.04562Q79.21562 282.92062 78.71562 282.23312Q78.23125 281.53 77.48125 281.53Q76.7625 281.53 76.325 282.13937Q75.77812 282.92062 75.77812 285.04562ZM81.7 285.04562Q81.7 283.51437 82.0125 282.5925Q82.325 281.655 82.93437 281.155Q83.55937 280.655 84.49687 280.655Q85.18437 280.655 85.7 280.93625Q86.23125 281.2175 86.575 281.74875Q86.91875 282.26437 87.10625 283.01437Q87.29375 283.76437 87.29375 285.04562Q87.29375 286.56125 86.98125 287.48312Q86.68437 288.405 86.05937 288.92062Q85.45 289.42062 84.49687 289.42062Q83.2625 289.42062 82.54375 288.53Q81.7 287.4675 81.7 285.04562ZM82.77812 285.04562Q82.77812 287.155 83.27812 287.85812Q83.77812 288.56125 84.49687 288.56125Q85.23125 288.56125 85.71562 287.85812Q86.21562 287.155 86.21562 285.04562Q86.21562 282.92062 85.71562 282.23312Q85.23125 281.53 84.48125 281.53Q83.7625 281.53 83.325 282.13937Q82.77812 282.92062 82.77812 285.04562ZM88.90312 282.74875Q88.90312 281.82687 89.35625 281.18625Q89.825 280.54562 90.7 280.54562Q91.5125 280.54562 92.04375 281.12375Q92.575 281.70187 92.575 282.81125Q92.575 283.905 92.02812 284.49875Q91.49687 285.07687 90.71562 285.07687Q89.93437 285.07687 89.41875 284.49875Q88.90312 283.92062 88.90312 282.74875ZM90.73125 281.26437Q90.34062 281.26437 90.075 281.60812Q89.825 281.95187 89.825 282.85812Q89.825 283.68625 90.075 284.03Q90.34062 284.35812 90.73125 284.35812Q91.1375 284.35812 91.3875 284.01437Q91.65312 283.67062 91.65312 282.78Q91.65312 281.93625 91.3875 281.60812Q91.12187 281.26437 90.73125 281.26437ZM90.73125 289.5925L95.43437 280.54562L96.29375 280.54562L91.60625 289.5925L90.73125 289.5925ZM94.45 287.26437Q94.45 286.3425 94.90312 285.70187Q95.37187 285.06125 96.2625 285.06125Q97.075 285.06125 97.60625 285.63937Q98.1375 286.20187 98.1375 287.32687Q98.1375 288.42062 97.59062 289.01437Q97.05937 289.5925 96.2625 289.5925Q95.49687 289.5925 94.96562 289.01437Q94.45 288.43625 94.45 287.26437ZM96.29375 285.78Q95.8875 285.78 95.62187 286.12375Q95.37187 286.4675 95.37187 287.37375Q95.37187 288.18625 95.6375 288.53Q95.90312 288.87375 96.29375 288.87375Q96.68437 288.87375 96.95 288.53Q97.21562 288.18625 97.21562 287.28Q97.21562 286.45187 96.95 286.12375Q96.68437 285.78 96.29375 285.78Z" fill-rule="nonzero"/><path fill="#000000" d="M57.7 216.25438L58.7625 216.11375Q58.934376 217.00438 59.371876 217.41063Q59.809376 217.80125 60.434376 217.80125Q61.184376 217.80125 61.7 217.28563Q62.215626 216.77 62.215626 216.00438Q62.215626 215.28563 61.73125 214.81688Q61.2625 214.3325 60.528126 214.3325Q60.23125 214.3325 59.778126 214.4575L59.903126 213.52Q60.0125 213.53563 60.075 213.53563Q60.746876 213.53563 61.278126 213.19188Q61.825 212.8325 61.825 212.09813Q61.825 211.52 61.434376 211.145Q61.04375 210.75438 60.41875 210.75438Q59.809376 210.75438 59.3875 211.145Q58.98125 211.53563 58.871876 212.30125L57.809376 212.11375Q57.996876 211.06688 58.684376 210.48875Q59.371876 209.895 60.3875 209.895Q61.090626 209.895 61.684376 210.2075Q62.278126 210.50438 62.590626 211.02Q62.903126 211.53563 62.903126 212.12938Q62.903126 212.67625 62.60625 213.145Q62.309376 213.59813 61.73125 213.86375Q62.48125 214.03563 62.903126 214.59813Q63.325 215.145 63.325 215.98875Q63.325 217.11375 62.496876 217.895Q61.684376 218.67625 60.434376 218.67625Q59.309376 218.67625 58.559376 218.00438Q57.809376 217.31688 57.7 216.25438ZM64.7 214.28563Q64.7 212.75438 65.0125 211.8325Q65.325 210.895 65.93437 210.395Q66.55937 209.895 67.49687 209.895Q68.18437 209.895 68.7 210.17625Q69.23125 210.4575 69.575 210.98875Q69.91875 211.50438 70.10625 212.25438Q70.29375 213.00438 70.29375 214.28563Q70.29375 215.80125 69.98125 216.72313Q69.68437 217.645 69.05937 218.16063Q68.45 218.66063 67.49687 218.66063Q66.2625 218.66063 65.54375 217.77Q64.7 216.7075 64.7 214.28563ZM65.77812 214.28563Q65.77812 216.395 66.27812 217.09813Q66.77812 217.80125 67.49687 217.80125Q68.23125 217.80125 68.71562 217.09813Q69.21562 216.395 69.21562 214.28563Q69.21562 212.16063 68.71562 211.47313Q68.23125 210.77 67.48125 210.77Q66.7625 210.77 66.325 211.37938Q65.77812 212.16063 65.77812 214.28563ZM72.29375 218.52L72.29375 217.31688L73.49687 217.31688L73.49687 218.52L72.29375 218.52ZM74.7 214.28563Q74.7 212.75438 75.0125 211.8325Q75.325 210.895 75.93437 210.395Q76.55937 209.895 77.49687 209.895Q78.18437 209.895 78.7 210.17625Q79.23125 210.4575 79.575 210.98875Q79.91875 211.50438 80.10625 212.25438Q80.29375 213.00438 80.29375 214.28563Q80.29375 215.80125 79.98125 216.72313Q79.68437 217.645 79.05937 218.16063Q78.45 218.66063 77.49687 218.66063Q76.2625 218.66063 75.54375 217.77Q74.7 216.7075 74.7 214.28563ZM75.77812 214.28563Q75.77812 216.395 76.27812 217.09813Q76.77812 217.80125 77.49687 217.80125Q78.23125 217.80125 78.71562 217.09813Q79.21562 216.395 79.21562 214.28563Q79.21562 212.16063 78.71562 211.47313Q78.23125 210.77 77.48125 210.77Q76.7625 210.77 76.325 211.37938Q75.77812 212.16063 75.77812 214.28563ZM81.7 214.28563Q81.7 212.75438 82.0125 211.8325Q82.325 210.895 82.93437 210.395Q83.55937 209.895 84.49687 209.895Q85.18437 209.895 85.7 210.17625Q86.23125 210.4575 86.575 210.98875Q86.91875 211.50438 87.10625 212.25438Q87.29375 213.00438 87.29375 214.28563Q87.29375 215.80125 86.98125 216.72313Q86.68437 217.645 86.05937 218.16063Q85.45 218.66063 84.49687 218.66063Q83.2625 218.66063 82.54375 217.77Q81.7 216.7075 81.7 214.28563ZM82.77812 214.28563Q82.77812 216.395 83.27812 217.09813Q83.77812 217.80125 84.49687 217.80125Q85.23125 217.80125 85.71562 217.09813Q86.21562 216.395 86.21562 214.28563Q86.21562 212.16063 85.71562 211.47313Q85.23125 210.77 84.48125 210.77Q83.7625 210.77 83.325 211.37938Q82.77812 212.16063 82.77812 214.28563ZM88.90312 211.98875Q88.90312 211.06688 89.35625 210.42625Q89.825 209.78563 90.7 209.78563Q91.5125 209.78563 92.04375 210.36375Q92.575 210.94188 92.575 212.05125Q92.575 213.145 92.02812 213.73875Q91.49687 214.31688 90.71562 214.31688Q89.93437 214.31688 89.41875 213.73875Q88.90312 213.16063 88.90312 211.98875ZM90.73125 210.50438Q90.34062 210.50438 90.075 210.84813Q89.825 211.19188 89.825 212.09813Q89.825 212.92625 90.075 213.27Q90.34062 213.59813 90.73125 213.59813Q91.1375 213.59813 91.3875 213.25438Q91.65312 212.91063 91.65312 212.02Q91.65312 211.17625 91.3875 210.84813Q91.12187 210.50438 90.73125 210.50438ZM90.73125 218.8325L95.43437 209.78563L96.29375 209.78563L91.60625 218.8325L90.73125 218.8325ZM94.45 216.50438Q94.45 215.5825 94.90312 214.94188Q95.37187 214.30125 96.2625 214.30125Q97.075 214.30125 97.60625 214.87938Q98.1375 215.44188 98.1375 216.56688Q98.1375 217.66063 97.59062 218.25438Q97.05937 218.8325 96.2625 218.8325Q95.49687 218.8325 94.96562 218.25438Q94.45 217.67625 94.45 216.50438ZM96.29375 215.02Q95.8875 215.02 95.62187 215.36375Q95.37187 215.7075 95.37187 216.61375Q95.37187 217.42625 95.6375 217.77Q95.90312 218.11375 96.29375 218.11375Q96.68437 218.11375 96.95 217.77Q97.21562 217.42625 97.21562 216.52Q97.21562 215.69188 96.95 215.36375Q96.68437 215.02 96.29375 215.02Z" fill-rule="nonzero"/><path fill="#000000" d="M61.075 147.76L61.075 145.6975L57.35625 145.6975L57.35625 144.72874L61.278126 139.16624L62.1375 139.16624L62.1375 144.72874L63.29375 144.72874L63.29375 145.6975L62.1375 145.6975L62.1375 147.76L61.075 147.76ZM61.075 144.72874L61.075 140.86937L58.3875 144.72874L61.075 144.72874ZM64.7 143.52562Q64.7 141.99437 65.0125 141.0725Q65.325 140.135 65.93437 139.635Q66.55937 139.135 67.49687 139.135Q68.18437 139.135 68.7 139.41624Q69.23125 139.6975 69.575 140.22874Q69.91875 140.74437 70.10625 141.49437Q70.29375 142.24437 70.29375 143.52562Q70.29375 145.04124 69.98125 145.96312Q69.68437 146.885 69.05937 147.40062Q68.45 147.90062 67.49687 147.90062Q66.2625 147.90062 65.54375 147.01Q64.7 145.9475 64.7 143.52562ZM65.77812 143.52562Q65.77812 145.635 66.27812 146.33812Q66.77812 147.04124 67.49687 147.04124Q68.23125 147.04124 68.71562 146.33812Q69.21562 145.635 69.21562 143.52562Q69.21562 141.40062 68.71562 140.71312Q68.23125 140.01 67.48125 140.01Q66.7625 140.01 66.325 140.61937Q65.77812 141.40062 65.77812 143.52562ZM72.29375 147.76L72.29375 146.55687L73.49687 146.55687L73.49687 147.76L72.29375 147.76ZM74.7 143.52562Q74.7 141.99437 75.0125 141.0725Q75.325 140.135 75.93437 139.635Q76.55937 139.135 77.49687 139.135Q78.18437 139.135 78.7 139.41624Q79.23125 139.6975 79.575 140.22874Q79.91875 140.74437 80.10625 141.49437Q80.29375 142.24437 80.29375 143.52562Q80.29375 145.04124 79.98125 145.96312Q79.68437 146.885 79.05937 147.40062Q78.45 147.90062 77.49687 147.90062Q76.2625 147.90062 75.54375 147.01Q74.7 145.9475 74.7 143.52562ZM75.77812 143.52562Q75.77812 145.635 76.27812 146.33812Q76.77812 147.04124 77.49687 147.04124Q78.23125 147.04124 78.71562 146.33812Q79.21562 145.635 79.21562 143.52562Q79.21562 141.40062 78.71562 140.71312Q78.23125 140.01 77.48125 140.01Q76.7625 140.01 76.325 140.61937Q75.77812 141.40062 75.77812 143.52562ZM81.7 143.52562Q81.7 141.99437 82.0125 141.0725Q82.325 140.135 82.93437 139.635Q83.55937 139.135 84.49687 139.135Q85.18437 139.135 85.7 139.41624Q86.23125 139.6975 86.575 140.22874Q86.91875 140.74437 87.10625 141.49437Q87.29375 142.24437 87.29375 143.52562Q87.29375 145.04124 86.98125 145.96312Q86.68437 146.885 86.05937 147.40062Q85.45 147.90062 84.49687 147.90062Q83.2625 147.90062 82.54375 147.01Q81.7 145.9475 81.7 143.52562ZM82.77812 143.52562Q82.77812 145.635 83.27812 146.33812Q83.77812 147.04124 84.49687 147.04124Q85.23125 147.04124 85.71562 146.33812Q86.21562 145.635 86.21562 143.52562Q86.21562 141.40062 85.71562 140.71312Q85.23125 140.01 84.48125 140.01Q83.7625 140.01 83.325 140.61937Q82.77812 141.40062 82.77812 143.52562ZM88.90312 141.22874Q88.90312 140.30687 89.35625 139.66624Q89.825 139.02562 90.7 139.02562Q91.5125 139.02562 92.04375 139.60374Q92.575 140.18187 92.575 141.29124Q92.575 142.385 92.02812 142.97874Q91.49687 143.55687 90.71562 143.55687Q89.93437 143.55687 89.41875 142.97874Q88.90312 142.40062 88.90312 141.22874ZM90.73125 139.74437Q90.34062 139.74437 90.075 140.08812Q89.825 140.43187 89.825 141.33812Q89.825 142.16624 90.075 142.51Q90.34062 142.83812 90.73125 142.83812Q91.1375 142.83812 91.3875 142.49437Q91.65312 142.15062 91.65312 141.26Q91.65312 140.41624 91.3875 140.08812Q91.12187 139.74437 90.73125 139.74437ZM90.73125 148.0725L95.43437 139.02562L96.29375 139.02562L91.60625 148.0725L90.73125 148.0725ZM94.45 145.74437Q94.45 144.8225 94.90312 144.18187Q95.37187 143.54124 96.2625 143.54124Q97.075 143.54124 97.60625 144.11937Q98.1375 144.68187 98.1375 145.80687Q98.1375 146.90062 97.59062 147.49437Q97.05937 148.0725 96.2625 148.0725Q95.49687 148.0725 94.96562 147.49437Q94.45 146.91624 94.45 145.74437ZM96.29375 144.26Q95.8875 144.26 95.62187 144.60374Q95.37187 144.9475 95.37187 145.85374Q95.37187 146.66624 95.6375 147.01Q95.90312 147.35374 96.29375 147.35374Q96.68437 147.35374 96.95 147.01Q97.21562 146.66624 97.21562 145.76Q97.21562 144.93187 96.95 144.60374Q96.68437 144.26 96.29375 144.26Z" fill-rule="nonzero"/><path fill="#000000" d="M57.7 74.75L58.809376 74.65625Q58.934376 75.46875 59.371876 75.875Q59.825 76.28125 60.465626 76.28125Q61.215626 76.28125 61.746876 75.703125Q62.278126 75.125 62.278126 74.1875Q62.278126 73.28125 61.7625 72.765625Q61.2625 72.234375 60.434376 72.234375Q59.934376 72.234375 59.5125 72.46875Q59.10625 72.703125 58.871876 73.0625L57.8875 72.9375L58.715626 68.53125L62.996876 68.53125L62.996876 69.53125L59.559376 69.53125L59.10625 71.84375Q59.871876 71.296875 60.715626 71.296875Q61.840626 71.296875 62.60625 72.078125Q63.3875 72.859375 63.3875 74.09375Q63.3875 75.25 62.715626 76.109375Q61.8875 77.140625 60.465626 77.140625Q59.29375 77.140625 58.54375 76.484375Q57.809376 75.828125 57.7 74.75ZM64.7 72.765625Q64.7 71.234375 65.0125 70.3125Q65.325 69.375 65.93437 68.875Q66.55937 68.375 67.49687 68.375Q68.18437 68.375 68.7 68.65625Q69.23125 68.9375 69.575 69.46875Q69.91875 69.984375 70.10625 70.734375Q70.29375 71.484375 70.29375 72.765625Q70.29375 74.28125 69.98125 75.203125Q69.68437 76.125 69.05937 76.640625Q68.45 77.140625 67.49687 77.140625Q66.2625 77.140625 65.54375 76.25Q64.7 75.1875 64.7 72.765625ZM65.77812 72.765625Q65.77812 74.875 66.27812 75.578125Q66.77812 76.28125 67.49687 76.28125Q68.23125 76.28125 68.71562 75.578125Q69.21562 74.875 69.21562 72.765625Q69.21562 70.640625 68.71562 69.953125Q68.23125 69.25 67.48125 69.25Q66.7625 69.25 66.325 69.859375Q65.77812 70.640625 65.77812 72.765625ZM72.29375 77.0L72.29375 75.796875L73.49687 75.796875L73.49687 77.0L72.29375 77.0ZM74.7 72.765625Q74.7 71.234375 75.0125 70.3125Q75.325 69.375 75.93437 68.875Q76.55937 68.375 77.49687 68.375Q78.18437 68.375 78.7 68.65625Q79.23125 68.9375 79.575 69.46875Q79.91875 69.984375 80.10625 70.734375Q80.29375 71.484375 80.29375 72.765625Q80.29375 74.28125 79.98125 75.203125Q79.68437 76.125 79.05937 76.640625Q78.45 77.140625 77.49687 77.140625Q76.2625 77.140625 75.54375 76.25Q74.7 75.1875 74.7 72.765625ZM75.77812 72.765625Q75.77812 74.875 76.27812 75.578125Q76.77812 76.28125 77.49687 76.28125Q78.23125 76.28125 78.71562 75.578125Q79.21562 74.875 79.21562 72.765625Q79.21562 70.640625 78.71562 69.953125Q78.23125 69.25 77.48125 69.25Q76.7625 69.25 76.325 69.859375Q75.77812 70.640625 75.77812 72.765625ZM81.7 72.765625Q81.7 71.234375 82.0125 70.3125Q82.325 69.375 82.93437 68.875Q83.55937 68.375 84.49687 68.375Q85.18437 68.375 85.7 68.65625Q86.23125 68.9375 86.575 69.46875Q86.91875 69.984375 87.10625 70.734375Q87.29375 71.484375 87.29375 72.765625Q87.29375 74.28125 86.98125 75.203125Q86.68437 76.125 86.05937 76.640625Q85.45 77.140625 84.49687 77.140625Q83.2625 77.140625 82.54375 76.25Q81.7 75.1875 81.7 72.765625ZM82.77812 72.765625Q82.77812 74.875 83.27812 75.578125Q83.77812 76.28125 84.49687 76.28125Q85.23125 76.28125 85.71562 75.578125Q86.21562 74.875 86.21562 72.765625Q86.21562 70.640625 85.71562 69.953125Q85.23125 69.25 84.48125 69.25Q83.7625 69.25 83.325 69.859375Q82.77812 70.640625 82.77812 72.765625ZM88.90312 70.46875Q88.90312 69.546875 89.35625 68.90625Q89.825 68.265625 90.7 68.265625Q91.5125 68.265625 92.04375 68.84375Q92.575 69.421875 92.575 70.53125Q92.575 71.625 92.02812 72.21875Q91.49687 72.796875 90.71562 72.796875Q89.93437 72.796875 89.41875 72.21875Q88.90312 71.640625 88.90312 70.46875ZM90.73125 68.984375Q90.34062 68.984375 90.075 69.328125Q89.825 69.671875 89.825 70.578125Q89.825 71.40625 90.075 71.75Q90.34062 72.078125 90.73125 72.078125Q91.1375 72.078125 91.3875 71.734375Q91.65312 71.390625 91.65312 70.5Q91.65312 69.65625 91.3875 69.328125Q91.12187 68.984375 90.73125 68.984375ZM90.73125 77.3125L95.43437 68.265625L96.29375 68.265625L91.60625 77.3125L90.73125 77.3125ZM94.45 74.984375Q94.45 74.0625 94.90312 73.421875Q95.37187 72.78125 96.2625 72.78125Q97.075 72.78125 97.60625 73.359375Q98.1375 73.921875 98.1375 75.046875Q98.1375 76.140625 97.59062 76.734375Q97.05937 77.3125 96.2625 77.3125Q95.49687 77.3125 94.96562 76.734375Q94.45 76.15625 94.45 74.984375ZM96.29375 73.5Q95.8875 73.5 95.62187 73.84375Q95.37187 74.1875 95.37187 75.09375Q95.37187 75.90625 95.6375 76.25Q95.90312 76.59375 96.29375 76.59375Q96.68437 76.59375 96.95 76.25Q97.21562 75.90625 97.21562 75.0Q97.21562 74.171875 96.95 73.84375Q96.68437 73.5 96.29375 73.5Z" fill-rule="nonzero"/><path fill="#000000" d="M202.3183 442.78436L202.3183 443.8L196.6308 443.8Q196.6308 443.425 196.7558 443.0656Q196.97455 442.4875 197.4433 441.925Q197.92767 441.3625 198.83392 440.6281Q200.24017 439.47186 200.72455 438.8Q201.22455 438.1281 201.22455 437.53436Q201.22455 436.90936 200.77142 436.4875Q200.3183 436.05 199.59955 436.05Q198.83392 436.05 198.3808 436.5031Q197.92767 436.95624 197.91205 437.76874L196.83392 437.65936Q196.9433 436.4406 197.66205 435.8156Q198.39642 435.175 199.6308 435.175Q200.86517 435.175 201.58392 435.8625Q202.30267 436.55 202.30267 437.5656Q202.30267 438.08124 202.08392 438.58124Q201.8808 439.0656 201.3808 439.6281Q200.89642 440.175 199.77142 441.1281Q198.8183 441.925 198.53705 442.22186Q198.27142 442.5031 198.09955 442.78436L202.3183 442.78436ZM203.83392 436.33124L203.83392 435.3156L209.39642 435.3156L209.39642 436.14374Q208.58392 437.01874 207.77142 438.47186Q206.97455 439.90936 206.53705 441.4406Q206.20892 442.51874 206.1308 443.8L205.03705 443.8Q205.05267 442.78436 205.42767 441.34686Q205.8183 439.90936 206.52142 438.58124Q207.24017 437.2531 208.05267 436.33124L203.83392 436.33124ZM210.27142 443.9406L212.7558 435.0656L213.59955 435.0656L211.11517 443.9406L210.27142 443.9406ZM213.77142 439.5656Q213.77142 438.03436 214.08392 437.1125Q214.39642 436.175 215.0058 435.675Q215.6308 435.175 216.5683 435.175Q217.2558 435.175 217.77142 435.45624Q218.30267 435.7375 218.64642 436.26874Q218.99017 436.78436 219.17767 437.53436Q219.36517 438.28436 219.36517 439.5656Q219.36517 441.08124 219.05267 442.0031Q218.7558 442.925 218.1308 443.4406Q217.52142 443.9406 216.5683 443.9406Q215.33392 443.9406 214.61517 443.05Q213.77142 441.9875 213.77142 439.5656ZM214.84955 439.5656Q214.84955 441.675 215.34955 442.3781Q215.84955 443.08124 216.5683 443.08124Q217.30267 443.08124 217.78705 442.3781Q218.28705 441.675 218.28705 439.5656Q218.28705 437.4406 217.78705 436.7531Q217.30267 436.05 216.55267 436.05Q215.83392 436.05 215.39642 436.65936Q214.84955 437.4406 214.84955 439.5656ZM220.92767 441.8156L221.9433 441.72186Q222.0683 442.4406 222.42767 442.76874Q222.80267 443.08124 223.36517 443.08124Q223.84955 443.08124 224.20892 442.8625Q224.58392 442.6281 224.8183 442.26874Q225.05267 441.89374 225.20892 441.26874Q225.36517 440.6281 225.36517 439.97186Q225.36517 439.89374 225.36517 439.7531Q225.05267 440.2531 224.5058 440.58124Q223.95892 440.89374 223.3183 440.89374Q222.24017 440.89374 221.5058 440.1281Q220.77142 439.34686 220.77142 438.08124Q220.77142 436.76874 221.53705 435.97186Q222.3183 435.175 223.47455 435.175Q224.30267 435.175 224.99017 435.6281Q225.6933 436.08124 226.05267 436.925Q226.41205 437.7531 226.41205 439.33124Q226.41205 440.97186 226.05267 441.95624Q225.70892 442.925 224.99017 443.4406Q224.28705 443.9406 223.34955 443.9406Q222.33392 443.9406 221.6933 443.39374Q221.05267 442.83124 220.92767 441.8156ZM225.24017 438.01874Q225.24017 437.1125 224.7558 436.58124Q224.28705 436.05 223.59955 436.05Q222.89642 436.05 222.36517 436.6281Q221.84955 437.1906 221.84955 438.1125Q221.84955 438.925 222.34955 439.4406Q222.84955 439.95624 223.5683 439.95624Q224.30267 439.95624 224.77142 439.4406Q225.24017 438.925 225.24017 438.01874ZM227.27142 443.9406L229.7558 435.0656L230.59955 435.0656L228.11517 443.9406L227.27142 443.9406ZM236.3183 442.78436L236.3183 443.8L230.6308 443.8Q230.6308 443.425 230.7558 443.0656Q230.97455 442.4875 231.4433 441.925Q231.92767 441.3625 232.83392 440.6281Q234.24017 439.47186 234.72455 438.8Q235.22455 438.1281 235.22455 437.53436Q235.22455 436.90936 234.77142 436.4875Q234.3183 436.05 233.59955 436.05Q232.83392 436.05 232.3808 436.5031Q231.92767 436.95624 231.91205 437.76874L230.83392 437.65936Q230.9433 436.4406 231.66205 435.8156Q232.39642 435.175 233.6308 435.175Q234.86517 435.175 235.58392 435.8625Q236.30267 436.55 236.30267 437.5656Q236.30267 438.08124 236.08392 438.58124Q235.8808 439.0656 235.3808 439.6281Q234.89642 440.175 233.77142 441.1281Q232.8183 441.925 232.53705 442.22186Q232.27142 442.5031 232.09955 442.78436L236.3183 442.78436ZM237.77142 439.5656Q237.77142 438.03436 238.08392 437.1125Q238.39642 436.175 239.0058 435.675Q239.6308 435.175 240.5683 435.175Q241.2558 435.175 241.77142 435.45624Q242.30267 435.7375 242.64642 436.26874Q242.99017 436.78436 243.17767 437.53436Q243.36517 438.28436 243.36517 439.5656Q243.36517 441.08124 243.05267 442.0031Q242.7558 442.925 242.1308 443.4406Q241.52142 443.9406 240.5683 443.9406Q239.33392 443.9406 238.61517 443.05Q237.77142 441.9875 237.77142 439.5656ZM238.84955 439.5656Q238.84955 441.675 239.34955 442.3781Q239.84955 443.08124 240.5683 443.08124Q241.30267 443.08124 241.78705 442.3781Q242.28705 441.675 242.28705 439.5656Q242.28705 437.4406 241.78705 436.7531Q241.30267 436.05 240.55267 436.05Q239.83392 436.05 239.39642 436.65936Q238.84955 437.4406 238.84955 439.5656ZM250.3183 442.78436L250.3183 443.8L244.6308 443.8Q244.6308 443.425 244.7558 443.0656Q244.97455 442.4875 245.4433 441.925Q245.92767 441.3625 246.83392 440.6281Q248.24017 439.47186 248.72455 438.8Q249.22455 438.1281 249.22455 437.53436Q249.22455 436.90936 248.77142 436.4875Q248.3183 436.05 247.59955 436.05Q246.83392 436.05 246.3808 436.5031Q245.92767 436.95624 245.91205 437.76874L244.83392 437.65936Q244.9433 436.4406 245.66205 435.8156Q246.39642 435.175 247.6308 435.175Q248.86517 435.175 249.58392 435.8625Q250.30267 436.55 250.30267 437.5656Q250.30267 438.08124 250.08392 438.58124Q249.8808 439.0656 249.3808 439.6281Q248.89642 440.175 247.77142 441.1281Q246.8183 441.925 246.53705 442.22186Q246.27142 442.5031 246.09955 442.78436L250.3183 442.78436ZM251.77142 439.5656Q251.77142 438.03436 252.08392 437.1125Q252.39642 436.175 253.0058 435.675Q253.6308 435.175 254.5683 435.175Q255.2558 435.175 255.77142 435.45624Q256.30267 435.7375 256.64642 436.26874Q256.99017 436.78436 257.17767 437.53436Q257.36517 438.28436 257.36517 439.5656Q257.36517 441.08124 257.05267 442.0031Q256.7558 442.925 256.1308 443.4406Q255.52142 443.9406 254.5683 443.9406Q253.33392 443.9406 252.61517 443.05Q251.77142 441.9875 251.77142 439.5656ZM252.84955 439.5656Q252.84955 441.675 253.34955 442.3781Q253.84955 443.08124 254.5683 443.08124Q255.30267 443.08124 255.78705 442.3781Q256.28705 441.675 256.28705 439.5656Q256.28705 437.4406 255.78705 436.7531Q255.30267 436.05 254.55267 436.05Q253.83392 436.05 253.39642 436.65936Q252.84955 437.4406 252.84955 439.5656Z" fill-rule="nonzero"/><path fill="#000000" d="M367.67142 439.5656Q367.67142 438.03436 367.98392 437.1125Q368.29642 436.175 368.9058 435.675Q369.5308 435.175 370.4683 435.175Q371.1558 435.175 371.67142 435.45624Q372.20267 435.7375 372.54642 436.26874Q372.89017 436.78436 373.07767 437.53436Q373.26517 438.28436 373.26517 439.5656Q373.26517 441.08124 372.95267 442.0031Q372.6558 442.925 372.0308 443.4406Q371.42142 443.9406 370.4683 443.9406Q369.23392 443.9406 368.51517 443.05Q367.67142 441.9875 367.67142 439.5656ZM368.74954 439.5656Q368.74954 441.675 369.24954 442.3781Q369.74954 443.08124 370.4683 443.08124Q371.20267 443.08124 371.68704 442.3781Q372.18704 441.675 372.18704 439.5656Q372.18704 437.4406 371.68704 436.7531Q371.20267 436.05 370.45267 436.05Q369.73392 436.05 369.29642 436.65936Q368.74954 437.4406 368.74954 439.5656ZM378.04642 443.8L378.04642 441.7375L374.32767 441.7375L374.32767 440.76874L378.24954 435.20624L379.10892 435.20624L379.10892 440.76874L380.26517 440.76874L380.26517 441.7375L379.10892 441.7375L379.10892 443.8L378.04642 443.8ZM378.04642 440.76874L378.04642 436.90936L375.35892 440.76874L378.04642 440.76874ZM381.17142 443.9406L383.6558 435.0656L384.49954 435.0656L382.01517 443.9406L381.17142 443.9406ZM388.64017 443.8L387.5933 443.8L387.5933 437.08124Q387.20267 437.4406 386.57767 437.8156Q385.9683 438.175 385.48392 438.34686L385.48392 437.33124Q386.35892 436.90936 387.01517 436.33124Q387.68704 435.7375 387.9683 435.175L388.64017 435.175L388.64017 443.8ZM391.67142 439.5656Q391.67142 438.03436 391.98392 437.1125Q392.29642 436.175 392.9058 435.675Q393.5308 435.175 394.4683 435.175Q395.1558 435.175 395.67142 435.45624Q396.20267 435.7375 396.54642 436.26874Q396.89017 436.78436 397.07767 437.53436Q397.26517 438.28436 397.26517 439.5656Q397.26517 441.08124 396.95267 442.0031Q396.6558 442.925 396.0308 443.4406Q395.42142 443.9406 394.4683 443.9406Q393.23392 443.9406 392.51517 443.05Q391.67142 441.9875 391.67142 439.5656ZM392.74954 439.5656Q392.74954 441.675 393.24954 442.3781Q393.74954 443.08124 394.4683 443.08124Q395.20267 443.08124 395.68704 442.3781Q396.18704 441.675 396.18704 439.5656Q396.18704 437.4406 395.68704 436.7531Q395.20267 436.05 394.45267 436.05Q393.73392 436.05 393.29642 436.65936Q392.74954 437.4406 392.74954 439.5656ZM398.17142 443.9406L400.6558 435.0656L401.49954 435.0656L399.01517 443.9406L398.17142 443.9406ZM407.2183 442.78436L407.2183 443.8L401.5308 443.8Q401.5308 443.425 401.6558 443.0656Q401.87454 442.4875 402.3433 441.925Q402.82767 441.3625 403.73392 440.6281Q405.14017 439.47186 405.62454 438.8Q406.12454 438.1281 406.12454 437.53436Q406.12454 436.90936 405.67142 436.4875Q405.2183 436.05 404.49954 436.05Q403.73392 436.05 403.2808 436.5031Q402.82767 436.95624 402.81204 437.76874L401.73392 437.65936Q401.8433 436.4406 402.56204 435.8156Q403.29642 435.175 404.5308 435.175Q405.76517 435.175 406.48392 435.8625Q407.20267 436.55 407.20267 437.5656Q407.20267 438.08124 406.98392 438.58124Q406.7808 439.0656 406.2808 439.6281Q405.79642 440.175 404.67142 441.1281Q403.7183 441.925 403.43704 442.22186Q403.17142 442.5031 402.99954 442.78436L407.2183 442.78436ZM408.67142 439.5656Q408.67142 438.03436 408.98392 437.1125Q409.29642 436.175 409.9058 435.675Q410.5308 435.175 411.4683 435.175Q412.1558 435.175 412.67142 435.45624Q413.20267 435.7375 413.54642 436.26874Q413.89017 436.78436 414.07767 437.53436Q414.26517 438.28436 414.26517 439.5656Q414.26517 441.08124 413.95267 442.0031Q413.6558 442.925 413.0308 443.4406Q412.42142 443.9406 411.4683 443.9406Q410.23392 443.9406 409.51517 443.05Q408.67142 441.9875 408.67142 439.5656ZM409.74954 439.5656Q409.74954 441.675 410.24954 442.3781Q410.74954 443.08124 411.4683 443.08124Q412.20267 443.08124 412.68704 442.3781Q413.18704 441.675 413.18704 439.5656Q413.18704 437.4406 412.68704 436.7531Q412.20267 436.05 411.45267 436.05Q410.73392 436.05 410.29642 436.65936Q409.74954 437.4406 409.74954 439.5656ZM421.2183 442.78436L421.2183 443.8L415.5308 443.8Q415.5308 443.425 415.6558 443.0656Q415.87454 442.4875 416.3433 441.925Q416.82767 441.3625 417.73392 440.6281Q419.14017 439.47186 419.62454 438.8Q420.12454 438.1281 420.12454 437.53436Q420.12454 436.90936 419.67142 436.4875Q419.2183 436.05 418.49954 436.05Q417.73392 436.05 417.2808 436.5031Q416.82767 436.95624 416.81204 437.76874L415.73392 437.65936Q415.8433 436.4406 416.56204 435.8156Q417.29642 435.175 418.5308 435.175Q419.76517 435.175 420.48392 435.8625Q421.20267 436.55 421.20267 437.5656Q421.20267 438.08124 420.98392 438.58124Q420.7808 439.0656 420.2808 439.6281Q419.79642 440.175 418.67142 441.1281Q417.7183 441.925 417.43704 442.22186Q417.17142 442.5031 416.99954 442.78436L421.2183 442.78436ZM422.67142 439.5656Q422.67142 438.03436 422.98392 437.1125Q423.29642 436.175 423.9058 435.675Q424.5308 435.175 425.4683 435.175Q426.1558 435.175 426.67142 435.45624Q427.20267 435.7375 427.54642 436.26874Q427.89017 436.78436 428.07767 437.53436Q428.26517 438.28436 428.26517 439.5656Q428.26517 441.08124 427.95267 442.0031Q427.6558 442.925 427.0308 443.4406Q426.42142 443.9406 425.4683 443.9406Q424.23392 443.9406 423.51517 443.05Q422.67142 441.9875 422.67142 439.5656ZM423.74954 439.5656Q423.74954 441.675 424.24954 442.3781Q424.74954 443.08124 425.4683 443.08124Q426.20267 443.08124 426.68704 442.3781Q427.18704 441.675 427.18704 439.5656Q427.18704 437.4406 426.68704 436.7531Q426.20267 436.05 425.45267 436.05Q424.73392 436.05 424.29642 436.65936Q423.74954 437.4406 423.74954 439.5656Z" fill-rule="nonzero"/><path fill="#000000" d="M542.54016 443.8L541.4933 443.8L541.4933 437.08124Q541.10266 437.4406 540.47766 437.8156Q539.8683 438.175 539.3839 438.34686L539.3839 437.33124Q540.2589 436.90936 540.91516 436.33124Q541.58704 435.7375 541.8683 435.175L542.54016 435.175L542.54016 443.8ZM549.54016 443.8L548.4933 443.8L548.4933 437.08124Q548.10266 437.4406 547.47766 437.8156Q546.8683 438.175 546.3839 438.34686L546.3839 437.33124Q547.2589 436.90936 547.91516 436.33124Q548.58704 435.7375 548.8683 435.175L549.54016 435.175L549.54016 443.8ZM552.0714 443.9406L554.5558 435.0656L555.39954 435.0656L552.91516 443.9406L552.0714 443.9406ZM559.54016 443.8L558.4933 443.8L558.4933 437.08124Q558.10266 437.4406 557.47766 437.8156Q556.8683 438.175 556.3839 438.34686L556.3839 437.33124Q557.2589 436.90936 557.91516 436.33124Q558.58704 435.7375 558.8683 435.175L559.54016 435.175L559.54016 443.8ZM562.5714 439.5656Q562.5714 438.03436 562.8839 437.1125Q563.1964 436.175 563.8058 435.675Q564.4308 435.175 565.3683 435.175Q566.0558 435.175 566.5714 435.45624Q567.10266 435.7375 567.4464 436.26874Q567.79016 436.78436 567.97766 437.53436Q568.16516 438.28436 568.16516 439.5656Q568.16516 441.08124 567.85266 442.0031Q567.5558 442.925 566.9308 443.4406Q566.3214 443.9406 565.3683 443.9406Q564.1339 443.9406 563.41516 443.05Q562.5714 441.9875 562.5714 439.5656ZM563.64954 439.5656Q563.64954 441.675 564.14954 442.3781Q564.64954 443.08124 565.3683 443.08124Q566.10266 443.08124 566.58704 442.3781Q567.08704 441.675 567.08704 439.5656Q567.08704 437.4406 566.58704 436.7531Q566.10266 436.05 565.35266 436.05Q564.6339 436.05 564.1964 436.65936Q563.64954 437.4406 563.64954 439.5656ZM569.0714 443.9406L571.5558 435.0656L572.39954 435.0656L569.91516 443.9406L569.0714 443.9406ZM578.1183 442.78436L578.1183 443.8L572.4308 443.8Q572.4308 443.425 572.5558 443.0656Q572.77454 442.4875 573.2433 441.925Q573.72766 441.3625 574.6339 440.6281Q576.04016 439.47186 576.52454 438.8Q577.02454 438.1281 577.02454 437.53436Q577.02454 436.90936 576.5714 436.4875Q576.1183 436.05 575.39954 436.05Q574.6339 436.05 574.1808 436.5031Q573.72766 436.95624 573.71204 437.76874L572.6339 437.65936Q572.7433 436.4406 573.46204 435.8156Q574.1964 435.175 575.4308 435.175Q576.66516 435.175 577.3839 435.8625Q578.10266 436.55 578.10266 437.5656Q578.10266 438.08124 577.8839 438.58124Q577.6808 439.0656 577.1808 439.6281Q576.6964 440.175 575.5714 441.1281Q574.6183 441.925 574.33704 442.22186Q574.0714 442.5031 573.89954 442.78436L578.1183 442.78436ZM579.5714 439.5656Q579.5714 438.03436 579.8839 437.1125Q580.1964 436.175 580.8058 435.675Q581.4308 435.175 582.3683 435.175Q583.0558 435.175 583.5714 435.45624Q584.10266 435.7375 584.4464 436.26874Q584.79016 436.78436 584.97766 437.53436Q585.16516 438.28436 585.16516 439.5656Q585.16516 441.08124 584.85266 442.0031Q584.5558 442.925 583.9308 443.4406Q583.3214 443.9406 582.3683 443.9406Q581.1339 443.9406 580.41516 443.05Q579.5714 441.9875 579.5714 439.5656ZM580.64954 439.5656Q580.64954 441.675 581.14954 442.3781Q581.64954 443.08124 582.3683 443.08124Q583.10266 443.08124 583.58704 442.3781Q584.08704 441.675 584.08704 439.5656Q584.08704 437.4406 583.58704 436.7531Q583.10266 436.05 582.35266 436.05Q581.6339 436.05 581.1964 436.65936Q580.64954 437.4406 580.64954 439.5656ZM592.1183 442.78436L592.1183 443.8L586.4308 443.8Q586.4308 443.425 586.5558 443.0656Q586.77454 442.4875 587.2433 441.925Q587.72766 441.3625 588.6339 440.6281Q590.04016 439.47186 590.52454 438.8Q591.02454 438.1281 591.02454 437.53436Q591.02454 436.90936 590.5714 436.4875Q590.1183 436.05 589.39954 436.05Q588.6339 436.05 588.1808 436.5031Q587.72766 436.95624 587.71204 437.76874L586.6339 437.65936Q586.7433 436.4406 587.46204 435.8156Q588.1964 435.175 589.4308 435.175Q590.66516 435.175 591.3839 435.8625Q592.10266 436.55 592.10266 437.5656Q592.10266 438.08124 591.8839 438.58124Q591.6808 439.0656 591.1808 439.6281Q590.6964 440.175 589.5714 441.1281Q588.6183 441.925 588.33704 442.22186Q588.0714 442.5031 587.89954 442.78436L592.1183 442.78436ZM593.5714 439.5656Q593.5714 438.03436 593.8839 437.1125Q594.1964 436.175 594.8058 435.675Q595.4308 435.175 596.3683 435.175Q597.0558 435.175 597.5714 435.45624Q598.10266 435.7375 598.4464 436.26874Q598.79016 436.78436 598.97766 437.53436Q599.16516 438.28436 599.16516 439.5656Q599.16516 441.08124 598.85266 442.0031Q598.5558 442.925 597.9308 443.4406Q597.3214 443.9406 596.3683 443.9406Q595.1339 443.9406 594.41516 443.05Q593.5714 441.9875 593.5714 439.5656ZM594.64954 439.5656Q594.64954 441.675 595.14954 442.3781Q595.64954 443.08124 596.3683 443.08124Q597.10266 443.08124 597.58704 442.3781Q598.08704 441.675 598.08704 439.5656Q598.08704 437.4406 597.58704 436.7531Q597.10266 436.05 596.35266 436.05Q595.6339 436.05 595.1964 436.65936Q594.64954 437.4406 594.64954 439.5656Z" fill-rule="nonzero"/><path fill="#000000" d="M713.4402 443.8L712.3933 443.8L712.3933 437.08124Q712.0027 437.4406 711.3777 437.8156Q710.7683 438.175 710.28394 438.34686L710.28394 437.33124Q711.15894 436.90936 711.8152 436.33124Q712.48706 435.7375 712.7683 435.175L713.4402 435.175L713.4402 443.8ZM718.09644 439.14374Q717.4402 438.89374 717.11206 438.45624Q716.79956 438.0031 716.79956 437.39374Q716.79956 436.45624 717.47144 435.8156Q718.15894 435.175 719.2683 435.175Q720.3933 435.175 721.0808 435.83124Q721.7683 436.4875 721.7683 437.425Q721.7683 438.01874 721.4558 438.45624Q721.1433 438.89374 720.5027 439.14374Q721.29956 439.39374 721.7058 439.97186Q722.11206 440.55 722.11206 441.34686Q722.11206 442.4406 721.3308 443.1906Q720.5652 443.9406 719.28394 443.9406Q718.0183 443.9406 717.23706 443.1906Q716.4558 442.4406 716.4558 441.3156Q716.4558 440.47186 716.8777 439.90936Q717.3152 439.34686 718.09644 439.14374ZM717.8777 437.34686Q717.8777 437.95624 718.2683 438.34686Q718.67456 438.7375 719.29956 438.7375Q719.90894 438.7375 720.29956 438.3625Q720.6902 437.97186 720.6902 437.40936Q720.6902 436.83124 720.28394 436.4406Q719.8777 436.03436 719.28394 436.03436Q718.67456 436.03436 718.2683 436.425Q717.8777 436.8156 717.8777 437.34686ZM717.54956 441.3156Q717.54956 441.76874 717.7527 442.1906Q717.97144 442.6125 718.3933 442.84686Q718.8152 443.08124 719.29956 443.08124Q720.04956 443.08124 720.53394 442.59686Q721.03394 442.1125 721.03394 441.3625Q721.03394 440.59686 720.53394 440.09686Q720.03394 439.59686 719.2683 439.59686Q718.5183 439.59686 718.03394 440.09686Q717.54956 440.58124 717.54956 441.3156ZM722.97144 443.9406L725.4558 435.0656L726.29956 435.0656L723.8152 443.9406L722.97144 443.9406ZM730.4402 443.8L729.3933 443.8L729.3933 437.08124Q729.0027 437.4406 728.3777 437.8156Q727.7683 438.175 727.28394 438.34686L727.28394 437.33124Q728.15894 436.90936 728.8152 436.33124Q729.48706 435.7375 729.7683 435.175L730.4402 435.175L730.4402 443.8ZM733.47144 439.5656Q733.47144 438.03436 733.78394 437.1125Q734.09644 436.175 734.7058 435.675Q735.3308 435.175 736.2683 435.175Q736.9558 435.175 737.47144 435.45624Q738.0027 435.7375 738.34644 436.26874Q738.6902 436.78436 738.8777 437.53436Q739.0652 438.28436 739.0652 439.5656Q739.0652 441.08124 738.7527 442.0031Q738.4558 442.925 737.8308 443.4406Q737.22144 443.9406 736.2683 443.9406Q735.03394 443.9406 734.3152 443.05Q733.47144 441.9875 733.47144 439.5656ZM734.54956 439.5656Q734.54956 441.675 735.04956 442.3781Q735.54956 443.08124 736.2683 443.08124Q737.0027 443.08124 737.48706 442.3781Q737.98706 441.675 737.98706 439.5656Q737.98706 437.4406 737.48706 436.7531Q737.0027 436.05 736.2527 436.05Q735.53394 436.05 735.09644 436.65936Q734.54956 437.4406 734.54956 439.5656ZM739.97144 443.9406L742.4558 435.0656L743.29956 435.0656L740.8152 443.9406L739.97144 443.9406ZM749.0183 442.78436L749.0183 443.8L743.3308 443.8Q743.3308 443.425 743.4558 443.0656Q743.67456 442.4875 744.1433 441.925Q744.6277 441.3625 745.53394 440.6281Q746.9402 439.47186 747.42456 438.8Q747.92456 438.1281 747.92456 437.53436Q747.92456 436.90936 747.47144 436.4875Q747.0183 436.05 746.29956 436.05Q745.53394 436.05 745.0808 436.5031Q744.6277 436.95624 744.61206 437.76874L743.53394 437.65936Q743.6433 436.4406 744.36206 435.8156Q745.09644 435.175 746.3308 435.175Q747.5652 435.175 748.28394 435.8625Q749.0027 436.55 749.0027 437.5656Q749.0027 438.08124 748.78394 438.58124Q748.5808 439.0656 748.0808 439.6281Q747.59644 440.175 746.47144 441.1281Q745.5183 441.925 745.23706 442.22186Q744.97144 442.5031 744.79956 442.78436L749.0183 442.78436ZM750.47144 439.5656Q750.47144 438.03436 750.78394 437.1125Q751.09644 436.175 751.7058 435.675Q752.3308 435.175 753.2683 435.175Q753.9558 435.175 754.47144 435.45624Q755.0027 435.7375 755.34644 436.26874Q755.6902 436.78436 755.8777 437.53436Q756.0652 438.28436 756.0652 439.5656Q756.0652 441.08124 755.7527 442.0031Q755.4558 442.925 754.8308 443.4406Q754.22144 443.9406 753.2683 443.9406Q752.03394 443.9406 751.3152 443.05Q750.47144 441.9875 750.47144 439.5656ZM751.54956 439.5656Q751.54956 441.675 752.04956 442.3781Q752.54956 443.08124 753.2683 443.08124Q754.0027 443.08124 754.48706 442.3781Q754.98706 441.675 754.98706 439.5656Q754.98706 437.4406 754.48706 436.7531Q754.0027 436.05 753.2527 436.05Q752.53394 436.05 752.09644 436.65936Q751.54956 437.4406 751.54956 439.5656ZM763.0183 442.78436L763.0183 443.8L757.3308 443.8Q757.3308 443.425 757.4558 443.0656Q757.67456 442.4875 758.1433 441.925Q758.6277 441.3625 759.53394 440.6281Q760.9402 439.47186 761.42456 438.8Q761.92456 438.1281 761.92456 437.53436Q761.92456 436.90936 761.47144 436.4875Q761.0183 436.05 760.29956 436.05Q759.53394 436.05 759.0808 436.5031Q758.6277 436.95624 758.61206 437.76874L757.53394 437.65936Q757.6433 436.4406 758.36206 435.8156Q759.09644 435.175 760.3308 435.175Q761.5652 435.175 762.28394 435.8625Q763.0027 436.55 763.0027 437.5656Q763.0027 438.08124 762.78394 438.58124Q762.5808 439.0656 762.0808 439.6281Q761.59644 440.175 760.47144 441.1281Q759.5183 441.925 759.23706 442.22186Q758.97144 442.5031 758.79956 442.78436L763.0183 442.78436ZM764.47144 439.5656Q764.47144 438.03436 764.78394 437.1125Q765.09644 436.175 765.7058 435.675Q766.3308 435.175 767.2683 435.175Q767.9558 435.175 768.47144 435.45624Q769.0027 435.7375 769.34644 436.26874Q769.6902 436.78436 769.8777 437.53436Q770.0652 438.28436 770.0652 439.5656Q770.0652 441.08124 769.7527 442.0031Q769.4558 442.925 768.8308 443.4406Q768.22144 443.9406 767.2683 443.9406Q766.03394 443.9406 765.3152 443.05Q764.47144 441.9875 764.47144 439.5656ZM765.54956 439.5656Q765.54956 441.675 766.04956 442.3781Q766.54956 443.08124 767.2683 443.08124Q768.0027 443.08124 768.48706 442.3781Q768.98706 441.675 768.98706 439.5656Q768.98706 437.4406 768.48706 436.7531Q768.0027 436.05 767.2527 436.05Q766.53394 436.05 766.09644 436.65936Q765.54956 437.4406 765.54956 439.5656Z" fill-rule="nonzero"/><path fill="#757575" d="M26.746876 44.2L26.746876 29.8875L32.1375 29.8875Q33.575 29.8875 34.325 30.0125Q35.371876 30.2 36.090626 30.7Q36.809376 31.184376 37.23125 32.075Q37.66875 32.965626 37.66875 34.028126Q37.66875 35.85625 36.496876 37.121876Q35.340626 38.371876 32.309376 38.371876L28.6375 38.371876L28.6375 44.2L26.746876 44.2ZM28.6375 36.684376L32.340626 36.684376Q34.16875 36.684376 34.934376 36.0125Q35.715626 35.325 35.715626 34.075Q35.715626 33.184376 35.2625 32.54375Q34.809376 31.903126 34.075 31.7Q33.590626 31.575 32.29375 31.575L28.6375 31.575L28.6375 36.684376ZM39.48125 44.2L39.48125 29.8875L41.23125 29.8875L41.23125 44.2L39.48125 44.2ZM50.29375 42.91875Q49.309376 43.746876 48.403126 44.090626Q47.496876 44.434376 46.465626 44.434376Q44.7625 44.434376 43.840626 43.60625Q42.91875 42.7625 42.91875 41.465626Q42.91875 40.7 43.2625 40.075Q43.621876 39.45 44.184376 39.075Q44.746876 38.684376 45.45 38.48125Q45.965626 38.35625 47.0125 38.215626Q49.1375 37.965626 50.1375 37.621876Q50.153126 37.2625 50.153126 37.153126Q50.153126 36.090626 49.653126 35.6375Q48.98125 35.04375 47.653126 35.04375Q46.403126 35.04375 45.809376 35.48125Q45.23125 35.91875 44.95 37.028126L43.23125 36.79375Q43.465626 35.684376 43.996876 35.0125Q44.528126 34.325 45.54375 33.965626Q46.559376 33.590626 47.903126 33.590626Q49.23125 33.590626 50.059376 33.903126Q50.8875 34.215626 51.278126 34.7Q51.66875 35.16875 51.825 35.8875Q51.91875 36.340626 51.91875 37.5125L51.91875 39.85625Q51.91875 42.309376 52.028126 42.965626Q52.1375 43.60625 52.48125 44.2L50.6375 44.2Q50.371876 43.653126 50.29375 42.91875ZM50.1375 38.996876Q49.184376 39.3875 47.2625 39.653126Q46.184376 39.809376 45.73125 40.0125Q45.29375 40.2 45.04375 40.575Q44.79375 40.95 44.79375 41.41875Q44.79375 42.121876 45.325 42.590626Q45.85625 43.059376 46.8875 43.059376Q47.903126 43.059376 48.684376 42.621876Q49.48125 42.16875 49.85625 41.403126Q50.1375 40.79375 50.1375 39.6375L50.1375 38.996876ZM61.309376 44.2L61.309376 42.66875Q60.10625 44.434376 58.028126 44.434376Q57.10625 44.434376 56.309376 44.090626Q55.5125 43.73125 55.121876 43.2Q54.746876 42.66875 54.590626 41.8875Q54.48125 41.371876 54.48125 40.246876L54.48125 33.825L56.23125 33.825L56.23125 39.575Q56.23125 40.95 56.340626 41.434376Q56.5125 42.121876 57.04375 42.528126Q57.590626 42.91875 58.371876 42.91875Q59.16875 42.91875 59.85625 42.5125Q60.559376 42.10625 60.840626 41.41875Q61.1375 40.715626 61.1375 39.3875L61.1375 33.825L62.8875 33.825L62.8875 44.2L61.309376 44.2ZM64.80937 41.10625L66.55937 40.825Q66.7 41.871876 67.37187 42.434376Q68.04375 42.98125 69.24687 42.98125Q70.45 42.98125 71.02812 42.496876Q71.62187 41.996876 71.62187 41.340626Q71.62187 40.746876 71.10625 40.403126Q70.74687 40.16875 69.30937 39.809376Q67.37187 39.309376 66.62187 38.965626Q65.8875 38.60625 65.49687 37.98125Q65.10625 37.340626 65.10625 36.575Q65.10625 35.8875 65.41875 35.29375Q65.74687 34.7 66.29375 34.309376Q66.7 34.0125 67.40312 33.809376Q68.12187 33.590626 68.93437 33.590626Q70.15312 33.590626 71.075 33.95Q71.99687 34.29375 72.43437 34.903126Q72.87187 35.496876 73.04375 36.496876L71.325 36.73125Q71.2 35.934376 70.6375 35.496876Q70.075 35.04375 69.05937 35.04375Q67.84062 35.04375 67.325 35.45Q66.80937 35.840626 66.80937 36.371876Q66.80937 36.715626 67.02812 36.996876Q67.23125 37.278126 67.7 37.465626Q67.96562 37.559376 69.24687 37.903126Q71.12187 38.403126 71.85625 38.73125Q72.59062 39.04375 73.0125 39.653126Q73.43437 40.246876 73.43437 41.153126Q73.43437 42.028126 72.91875 42.809376Q72.40312 43.590626 71.43437 44.0125Q70.46562 44.434376 69.24687 44.434376Q67.23125 44.434376 66.16875 43.590626Q65.10625 42.746876 64.80937 41.10625ZM75.52812 31.903126L75.52812 29.8875L77.29375 29.8875L77.29375 31.903126L75.52812 31.903126ZM75.52812 44.2L75.52812 33.825L77.29375 33.825L77.29375 44.2L75.52812 44.2ZM81.1375 44.2L79.5125 44.2L79.5125 29.8875L81.2625 29.8875L81.2625 34.996876Q82.3875 33.590626 84.10625 33.590626Q85.05937 33.590626 85.91875 33.98125Q86.77812 34.371876 87.325 35.075Q87.87187 35.7625 88.18437 36.746876Q88.49687 37.73125 88.49687 38.85625Q88.49687 41.528126 87.18437 42.98125Q85.87187 44.434376 84.02812 44.434376Q82.18437 44.434376 81.1375 42.903126L81.1375 44.2ZM81.12187 38.934376Q81.12187 40.79375 81.62187 41.6375Q82.46562 42.98125 83.87187 42.98125Q85.02812 42.98125 85.85625 41.98125Q86.7 40.98125 86.7 38.996876Q86.7 36.965626 85.8875 36.0125Q85.09062 35.04375 83.95 35.04375Q82.79375 35.04375 81.95 36.04375Q81.12187 37.04375 81.12187 38.934376ZM90.48125 44.2L90.48125 29.8875L92.23125 29.8875L92.23125 44.2L90.48125 44.2ZM101.62187 40.85625L103.43437 41.090626Q103.0125 42.66875 101.84062 43.559376Q100.68437 44.434376 98.87187 44.434376Q96.60625 44.434376 95.2625 43.04375Q93.93437 41.6375 93.93437 39.10625Q93.93437 36.48125 95.27812 35.04375Q96.62187 33.590626 98.77812 33.590626Q100.85625 33.590626 102.16875 35.0125Q103.49687 36.41875 103.49687 38.996876Q103.49687 39.153126 103.48125 39.465626L95.74687 39.465626Q95.84062 41.16875 96.71562 42.075Q97.59062 42.98125 98.8875 42.98125Q99.85625 42.98125 100.52812 42.48125Q101.21562 41.965626 101.62187 40.85625ZM95.84062 38.0125L101.6375 38.0125Q101.52812 36.715626 100.98125 36.059376Q100.1375 35.04375 98.79375 35.04375Q97.59062 35.04375 96.7625 35.85625Q95.93437 36.653126 95.84062 38.0125ZM114.40312 44.2L110.45 33.825L112.30937 33.825L114.54375 40.04375Q114.90312 41.04375 115.2 42.121876Q115.43437 41.309376 115.85625 40.153126L118.15312 33.825L119.96562 33.825L116.04375 44.2L114.40312 44.2ZM120.80937 41.10625L122.55937 40.825Q122.7 41.871876 123.37187 42.434376Q124.04375 42.98125 125.24687 42.98125Q126.45 42.98125 127.02812 42.496876Q127.62187 41.996876 127.62187 41.340626Q127.62187 40.746876 127.10625 40.403126Q126.74687 40.16875 125.30937 39.809376Q123.37187 39.309376 122.62187 38.965626Q121.8875 38.60625 121.49687 37.98125Q121.10625 37.340626 121.10625 36.575Q121.10625 35.8875 121.41875 35.29375Q121.74687 34.7 122.29375 34.309376Q122.7 34.0125 123.40312 33.809376Q124.12187 33.590626 124.93437 33.590626Q126.15312 33.590626 127.075 33.95Q127.99687 34.29375 128.43437 34.903126Q128.87187 35.496876 129.04375 36.496876L127.325 36.73125Q127.2 35.934376 126.6375 35.496876Q126.075 35.04375 125.05937 35.04375Q123.84062 35.04375 123.325 35.45Q122.80937 35.840626 122.80937 36.371876Q122.80937 36.715626 123.02812 36.996876Q123.23125 37.278126 123.7 37.465626Q123.96562 37.559376 125.24687 37.903126Q127.12187 38.403126 127.85625 38.73125Q128.59062 39.04375 129.0125 39.653126Q129.43437 40.246876 129.43437 41.153126Q129.43437 42.028126 128.91875 42.809376Q128.40312 43.590626 127.43437 44.0125Q126.46562 44.434376 125.24687 44.434376Q123.23125 44.434376 122.16875 43.590626Q121.10625 42.746876 120.80937 41.10625ZM144.45 38.590626L144.45 36.903126L150.5125 36.8875L150.5125 42.2Q149.10625 43.325 147.62187 43.8875Q146.1375 44.45 144.575 44.45Q142.46562 44.45 140.74687 43.54375Q139.02812 42.6375 138.1375 40.934376Q137.2625 39.215626 137.2625 37.10625Q137.2625 35.0125 138.1375 33.215626Q139.0125 31.403126 140.65312 30.528126Q142.29375 29.6375 144.43437 29.6375Q145.98125 29.6375 147.23125 30.1375Q148.49687 30.6375 149.2 31.54375Q149.91875 32.434376 150.29375 33.8875L148.59062 34.35625Q148.2625 33.2625 147.77812 32.6375Q147.30937 32.0125 146.41875 31.6375Q145.52812 31.2625 144.45 31.2625Q143.1375 31.2625 142.18437 31.653126Q141.24687 32.04375 140.66875 32.7Q140.09062 33.340626 139.7625 34.10625Q139.21562 35.434376 139.21562 36.996876Q139.21562 38.903126 139.87187 40.2Q140.54375 41.48125 141.79375 42.10625Q143.05937 42.73125 144.46562 42.73125Q145.7 42.73125 146.87187 42.2625Q148.04375 41.79375 148.65312 41.246876L148.65312 38.590626L144.45 38.590626ZM152.87187 39.0125Q152.87187 36.1375 154.46562 34.746876Q155.80937 33.590626 157.73125 33.590626Q159.87187 33.590626 161.21562 34.996876Q162.575 36.403126 162.575 38.871876Q162.575 40.871876 161.98125 42.028126Q161.3875 43.16875 160.23125 43.809376Q159.09062 44.434376 157.73125 44.434376Q155.54375 44.434376 154.2 43.04375Q152.87187 41.6375 152.87187 39.0125ZM154.66875 39.0125Q154.66875 41.0125 155.52812 41.996876Q156.40312 42.98125 157.73125 42.98125Q159.04375 42.98125 159.90312 41.996876Q160.77812 40.996876 160.77812 38.95Q160.77812 37.028126 159.90312 36.04375Q159.02812 35.04375 157.73125 35.04375Q156.40312 35.04375 155.52812 36.04375Q154.66875 37.028126 154.66875 39.0125ZM163.87187 39.0125Q163.87187 36.1375 165.46562 34.746876Q166.80937 33.590626 168.73125 33.590626Q170.87187 33.590626 172.21562 34.996876Q173.575 36.403126 173.575 38.871876Q173.575 40.871876 172.98125 42.028126Q172.3875 43.16875 171.23125 43.809376Q170.09062 44.434376 168.73125 44.434376Q166.54375 44.434376 165.2 43.04375Q163.87187 41.6375 163.87187 39.0125ZM165.66875 39.0125Q165.66875 41.0125 166.52812 41.996876Q167.40312 42.98125 168.73125 42.98125Q170.04375 42.98125 170.90312 41.996876Q171.77812 40.996876 171.77812 38.95Q171.77812 37.028126 170.90312 36.04375Q170.02812 35.04375 168.73125 35.04375Q167.40312 35.04375 166.52812 36.04375Q165.66875 37.028126 165.66875 39.0125ZM175.2 45.059376L176.90312 45.309376Q177.0125 46.10625 177.49687 46.465626Q178.15312 46.95 179.29375 46.95Q180.5125 46.95 181.16875 46.465626Q181.84062 45.98125 182.075 45.10625Q182.21562 44.559376 182.2 42.840626Q181.04375 44.2 179.325 44.2Q177.18437 44.2 176.0125 42.653126Q174.84062 41.10625 174.84062 38.95Q174.84062 37.465626 175.37187 36.215626Q175.91875 34.965626 176.93437 34.278126Q177.96562 33.590626 179.34062 33.590626Q181.16875 33.590626 182.37187 35.075L182.37187 33.825L183.98125 33.825L183.98125 42.79375Q183.98125 45.215626 183.48125 46.215626Q182.99687 47.23125 181.91875 47.809376Q180.85625 48.403126 179.29375 48.403126Q177.45 48.403126 176.29375 47.575Q175.15312 46.746876 175.2 45.059376ZM176.65312 38.825Q176.65312 40.871876 177.46562 41.809376Q178.27812 42.746876 179.49687 42.746876Q180.7 42.746876 181.5125 41.809376Q182.34062 40.871876 182.34062 38.8875Q182.34062 36.98125 181.49687 36.0125Q180.65312 35.04375 179.46562 35.04375Q178.29375 35.04375 177.46562 35.996876Q176.65312 36.95 176.65312 38.825ZM186.48125 44.2L186.48125 29.8875L188.23125 29.8875L188.23125 44.2L186.48125 44.2ZM197.62187 40.85625L199.43437 41.090626Q199.0125 42.66875 197.84062 43.559376Q196.68437 44.434376 194.87187 44.434376Q192.60625 44.434376 191.2625 43.04375Q189.93437 41.6375 189.93437 39.10625Q189.93437 36.48125 191.27812 35.04375Q192.62187 33.590626 194.77812 33.590626Q196.85625 33.590626 198.16875 35.0125Q199.49687 36.41875 199.49687 38.996876Q199.49687 39.153126 199.48125 39.465626L191.74687 39.465626Q191.84062 41.16875 192.71562 42.075Q193.59062 42.98125 194.8875 42.98125Q195.85625 42.98125 196.52812 42.48125Q197.21562 41.965626 197.62187 40.85625ZM191.84062 38.0125L197.6375 38.0125Q197.52812 36.715626 196.98125 36.059376Q196.1375 35.04375 194.79375 35.04375Q193.59062 35.04375 192.7625 35.85625Q191.93437 36.653126 191.84062 38.0125ZM206.16875 44.2L211.66875 29.8875L213.71562 29.8875L219.575 44.2L217.41875 44.2L215.74687 39.85625L209.7625 39.85625L208.18437 44.2L206.16875 44.2ZM210.30937 38.325L215.15312 38.325L213.66875 34.35625Q212.98125 32.54375 212.65312 31.3875Q212.37187 32.7625 211.87187 34.121876L210.30937 38.325ZM220.5125 44.2L220.5125 33.825L222.10625 33.825L222.10625 35.309376Q223.24687 33.590626 225.40312 33.590626Q226.34062 33.590626 227.12187 33.934376Q227.91875 34.2625 228.30937 34.809376Q228.7 35.35625 228.85625 36.10625Q228.95 36.60625 228.95 37.825L228.95 44.2L227.18437 44.2L227.18437 37.8875Q227.18437 36.809376 226.98125 36.278126Q226.77812 35.746876 226.24687 35.434376Q225.73125 35.121876 225.02812 35.121876Q223.90312 35.121876 223.09062 35.840626Q222.27812 36.54375 222.27812 38.528126L222.27812 44.2L220.5125 44.2ZM238.29375 42.91875Q237.30937 43.746876 236.40312 44.090626Q235.49687 44.434376 234.46562 44.434376Q232.7625 44.434376 231.84062 43.60625Q230.91875 42.7625 230.91875 41.465626Q230.91875 40.7 231.2625 40.075Q231.62187 39.45 232.18437 39.075Q232.74687 38.684376 233.45 38.48125Q233.96562 38.35625 235.0125 38.215626Q237.1375 37.965626 238.1375 37.621876Q238.15312 37.2625 238.15312 37.153126Q238.15312 36.090626 237.65312 35.6375Q236.98125 35.04375 235.65312 35.04375Q234.40312 35.04375 233.80937 35.48125Q233.23125 35.91875 232.95 37.028126L231.23125 36.79375Q231.46562 35.684376 231.99687 35.0125Q232.52812 34.325 233.54375 33.965626Q234.55937 33.590626 235.90312 33.590626Q237.23125 33.590626 238.05937 33.903126Q238.8875 34.215626 239.27812 34.7Q239.66875 35.16875 239.825 35.8875Q239.91875 36.340626 239.91875 37.5125L239.91875 39.85625Q239.91875 42.309376 240.02812 42.965626Q240.1375 43.60625 240.48125 44.2L238.6375 44.2Q238.37187 43.653126 238.29375 42.91875ZM238.1375 38.996876Q237.18437 39.3875 235.2625 39.653126Q234.18437 39.809376 233.73125 40.0125Q233.29375 40.2 233.04375 40.575Q232.79375 40.95 232.79375 41.41875Q232.79375 42.121876 233.325 42.590626Q233.85625 43.059376 234.8875 43.059376Q235.90312 43.059376 236.68437 42.621876Q237.48125 42.16875 237.85625 41.403126Q238.1375 40.79375 238.1375 39.6375L238.1375 38.996876ZM242.48125 44.2L242.48125 29.8875L244.23125 29.8875L244.23125 44.2L242.48125 44.2ZM246.43437 48.2L246.24687 46.54375Q246.825 46.7 247.24687 46.7Q247.84062 46.7 248.18437 46.496876Q248.54375 46.309376 248.7625 45.965626Q248.93437 45.7 249.30937 44.653126Q249.35625 44.496876 249.46562 44.215626L245.52812 33.825L247.41875 33.825L249.575 39.840626Q249.99687 40.98125 250.325 42.23125Q250.6375 41.028126 251.04375 39.871876L253.2625 33.825L255.02812 33.825L251.075 44.371876Q250.45 46.090626 250.09062 46.73125Q249.62187 47.60625 249.0125 47.996876Q248.41875 48.403126 247.575 48.403126Q247.05937 48.403126 246.43437 48.2ZM260.35626 42.621876L260.60626 44.184376Q259.8719 44.340626 259.27814 44.340626Q258.325 44.340626 257.79376 44.04375Q257.27814 43.73125 257.0594 43.246876Q256.84064 42.746876 256.84064 41.16875L256.84064 35.2L255.55937 35.2L255.55937 33.825L256.84064 33.825L256.84064 31.2625L258.59064 30.2L258.59064 33.825L260.35626 33.825L260.35626 35.2L258.59064 35.2L258.59064 41.2625Q258.59064 42.0125 258.6844 42.23125Q258.77814 42.434376 258.98126 42.575Q259.2 42.7 259.59064 42.7Q259.8719 42.7 260.35626 42.621876ZM262.52814 31.903126L262.52814 29.8875L264.29376 29.8875L264.29376 31.903126L262.52814 31.903126ZM262.52814 44.2L262.52814 33.825L264.29376 33.825L264.29376 44.2L262.52814 44.2ZM273.29376 40.403126L275.0125 40.621876Q274.73126 42.41875 273.5594 43.434376Q272.40314 44.434376 270.7 44.434376Q268.575 44.434376 267.27814 43.04375Q265.98126 41.653126 265.98126 39.059376Q265.98126 37.371876 266.52814 36.121876Q267.09064 34.85625 268.23126 34.23125Q269.3719 33.590626 270.71564 33.590626Q272.40314 33.590626 273.46564 34.45Q274.54376 35.309376 274.85626 36.871876L273.1375 37.1375Q272.90314 36.090626 272.27814 35.575Q271.65314 35.04375 270.77814 35.04375Q269.45 35.04375 268.6219 35.996876Q267.79376 36.95 267.79376 38.996876Q267.79376 41.090626 268.59064 42.04375Q269.3875 42.98125 270.6844 42.98125Q271.71564 42.98125 272.40314 42.35625Q273.10626 41.715626 273.29376 40.403126ZM275.8094 41.10625L277.5594 40.825Q277.7 41.871876 278.3719 42.434376Q279.04376 42.98125 280.2469 42.98125Q281.45 42.98125 282.02814 42.496876Q282.6219 41.996876 282.6219 41.340626Q282.6219 40.746876 282.10626 40.403126Q281.7469 40.16875 280.3094 39.809376Q278.3719 39.309376 277.6219 38.965626Q276.8875 38.60625 276.4969 37.98125Q276.10626 37.340626 276.10626 36.575Q276.10626 35.8875 276.41876 35.29375Q276.7469 34.7 277.29376 34.309376Q277.7 34.0125 278.40314 33.809376Q279.1219 33.590626 279.9344 33.590626Q281.15314 33.590626 282.075 33.95Q282.9969 34.29375 283.4344 34.903126Q283.8719 35.496876 284.04376 36.496876L282.325 36.73125Q282.2 35.934376 281.6375 35.496876Q281.075 35.04375 280.0594 35.04375Q278.84064 35.04375 278.325 35.45Q277.8094 35.840626 277.8094 36.371876Q277.8094 36.715626 278.02814 36.996876Q278.23126 37.278126 278.7 37.465626Q278.96564 37.559376 280.2469 37.903126Q282.1219 38.403126 282.85626 38.73125Q283.59064 39.04375 284.0125 39.653126Q284.4344 40.246876 284.4344 41.153126Q284.4344 42.028126 283.91876 42.809376Q283.40314 43.590626 282.4344 44.0125Q281.46564 44.434376 280.2469 44.434376Q278.23126 44.434376 277.16876 43.590626Q276.10626 42.746876 275.8094 41.10625Z" fill-rule="nonzero"/></svg>