<svg version="1.1" viewBox="0.0 0.0 600.0 371.0" fill="none" stroke="none" stroke-linecap="square" stroke-miterlimit="10" width="600" height="371" xmlns:xlink="http://www.w3.org/1999/xlink" xmlns="http://www.w3.org/2000/svg"><path fill="#ffffff" d="M0 0L600.0 0L600.0 371.0L0 371.0L0 0Z" fill-rule="nonzero"/><path fill="#71c287" d="M299.41718 54.91781C299.61145 54.917046 299.80573 54.916668 300.0 54.916668L300.0 203.68333Z" fill-rule="nonzero"/><path fill="#fcd04f" d="M298.04584 54.9295C298.50293 54.923496 298.96005 54.919598 299.41718 54.91781L300.0 203.68333Z" fill-rule="nonzero"/><path fill="#f07b72" d="M289.2099 55.308487C292.15082 55.09462 295.09744 54.968235 298.04584 54.9295L300.0 203.68333Z" fill-rule="nonzero"/><path fill="#46bdc6" d="M257.53766 61.105392C267.85425 58.032913 278.47385 56.089233 289.2099 55.308487L300.0 203.68333Z" fill-rule="nonzero"/><path fill="#ff6d01" d="M248.94702 63.95104C251.78104 62.915592 254.6459 61.966602 257.53766 61.105392L300.0 203.68333Z" fill-rule="nonzero"/><path fill="#34a853" d="M235.77487 69.49445C240.07425 67.4367 244.47003 65.58676 248.94702 63.95104L300.0 203.68333Z" fill-rule="nonzero"/><path fill="#fbbc04" d="M175.79315 121.80427C190.66534 99.24383 211.40134 81.16006 235.77487 69.49445L300.0 203.68333Z" fill-rule="nonzero"/><path fill="#ea4335" d="M182.54126 294.97937C143.42937 244.65918 140.71556 175.0154 175.79315 121.80427L300.0 203.68333Z" fill-rule="nonzero"/><path fill="#4285f4" d="M300.0 54.916668C369.6392 54.916668 429.95953 103.2261 445.17322 171.18315C460.38687 239.14023 426.42218 308.5574 363.43027 338.24976C300.43835 367.9421 225.27788 349.963 182.54126 294.97937L300.0 203.68333Z" fill-rule="nonzero"/><path fill="#1a1a1a" d="M19.440624 65.916664L19.440624 57.322914L21.159374 57.322914L23.190624 63.40104Q23.471874 64.260414 23.596874 64.68229Q23.7375 64.21354 24.05 63.30729L26.1125 57.322914L27.64375 57.322914L27.64375 65.916664L26.55 65.916664L26.55 58.729164L24.05 65.916664L23.01875 65.916664L20.534374 58.604164L20.534374 65.916664L19.440624 65.916664ZM29.346874 58.541664L29.346874 57.322914L30.409374 57.322914L30.409374 58.541664L29.346874 58.541664ZM29.346874 65.916664L29.346874 59.697914L30.409374 59.697914L30.409374 65.916664L29.346874 65.916664ZM36.409374 63.635414L37.440624 63.77604Q37.26875 64.83854 36.565624 65.447914Q35.8625 66.05729 34.846874 66.05729Q33.565624 66.05729 32.784374 65.229164Q32.01875 64.385414 32.01875 62.822914Q32.01875 61.822914 32.346874 61.072914Q32.690624 60.30729 33.3625 59.93229Q34.05 59.55729 34.8625 59.55729Q35.8625 59.55729 36.503124 60.072914Q37.159374 60.572914 37.346874 61.52604L36.315624 61.68229Q36.175 61.05729 35.8 60.74479Q35.425 60.416664 34.89375 60.416664Q34.096874 60.416664 33.596874 60.99479Q33.096874 61.55729 33.096874 62.791664Q33.096874 64.05729 33.58125 64.61979Q34.065624 65.18229 34.83125 65.18229Q35.45625 65.18229 35.8625 64.80729Q36.284374 64.43229 36.409374 63.635414ZM38.33125 65.916664L38.33125 59.697914L39.284374 59.697914L39.284374 60.635414Q39.64375 59.979164 39.940624 59.77604Q40.253124 59.55729 40.628124 59.55729Q41.159374 59.55729 41.70625 59.885414L41.346874 60.86979Q40.95625 60.635414 40.58125 60.635414Q40.221874 60.635414 39.940624 60.854164Q39.675 61.05729 39.565624 61.43229Q39.378124 61.99479 39.378124 62.65104L39.378124 65.916664L38.33125 65.916664ZM41.95625 62.80729Q41.95625 61.072914 42.909374 60.24479Q43.70625 59.55729 44.8625 59.55729Q46.14375 59.55729 46.95625 60.40104Q47.784374 61.229164 47.784374 62.71354Q47.784374 63.916664 47.425 64.604164Q47.065624 65.291664 46.3625 65.68229Q45.675 66.05729 44.8625 66.05729Q43.565624 66.05729 42.753124 65.229164Q41.95625 64.385414 41.95625 62.80729ZM43.034374 62.80729Q43.034374 63.99479 43.55 64.58854Q44.08125 65.18229 44.8625 65.18229Q45.659374 65.18229 46.175 64.58854Q46.690624 63.99479 46.690624 62.77604Q46.690624 61.61979 46.159374 61.02604Q45.64375 60.43229 44.8625 60.43229Q44.08125 60.43229 43.55 61.02604Q43.034374 61.604164 43.034374 62.80729ZM48.925 64.05729L49.95625 63.90104Q50.05 64.52604 50.440624 64.854164Q50.846874 65.18229 51.58125 65.18229Q52.3 65.18229 52.64375 64.90104Q53.003124 64.604164 53.003124 64.197914Q53.003124 63.83854 52.690624 63.635414Q52.471874 63.49479 51.6125 63.27604Q50.45625 62.979164 50.003124 62.77604Q49.565624 62.55729 49.33125 62.18229Q49.096874 61.80729 49.096874 61.33854Q49.096874 60.93229 49.284374 60.572914Q49.471874 60.21354 49.8 59.979164Q50.05 59.80729 50.471874 59.68229Q50.89375 59.55729 51.39375 59.55729Q52.1125 59.55729 52.659374 59.77604Q53.221874 59.979164 53.4875 60.33854Q53.753124 60.697914 53.846874 61.291664L52.815624 61.43229Q52.753124 60.96354 52.409374 60.697914Q52.08125 60.416664 51.45625 60.416664Q50.7375 60.416664 50.425 60.666664Q50.1125 60.90104 50.1125 61.229164Q50.1125 61.43229 50.2375 61.58854Q50.378124 61.760414 50.64375 61.86979Q50.8 61.93229 51.58125 62.135414Q52.70625 62.447914 53.14375 62.635414Q53.58125 62.822914 53.83125 63.18229Q54.08125 63.541664 54.08125 64.08854Q54.08125 64.61979 53.76875 65.08854Q53.471874 65.541664 52.89375 65.80729Q52.315624 66.05729 51.58125 66.05729Q50.3625 66.05729 49.721874 65.55729Q49.096874 65.041664 48.925 64.05729ZM54.95625 62.80729Q54.95625 61.072914 55.909374 60.24479Q56.70625 59.55729 57.8625 59.55729Q59.14375 59.55729 59.95625 60.40104Q60.784374 61.229164 60.784374 62.71354Q60.784374 63.916664 60.425 64.604164Q60.065624 65.291664 59.3625 65.68229Q58.675 66.05729 57.8625 66.05729Q56.565624 66.05729 55.753124 65.229164Q54.95625 64.385414 54.95625 62.80729ZM56.034374 62.80729Q56.034374 63.99479 56.55 64.58854Q57.08125 65.18229 57.8625 65.18229Q58.659374 65.18229 59.175 64.58854Q59.690624 63.99479 59.690624 62.77604Q59.690624 61.61979 59.159374 61.02604Q58.64375 60.43229 57.8625 60.43229Q57.08125 60.43229 56.55 61.02604Q56.034374 61.604164 56.034374 62.80729ZM62.596874 65.916664L62.596874 60.510414L61.659374 60.510414L61.659374 59.697914L62.596874 59.697914L62.596874 59.02604Q62.596874 58.40104 62.70625 58.104164Q62.8625 57.68229 63.2375 57.43229Q63.628124 57.18229 64.31563 57.18229Q64.76875 57.18229 65.3 57.291664L65.14375 58.197914Q64.81563 58.15104 64.51875 58.15104Q64.03438 58.15104 63.83125 58.354164Q63.64375 58.55729 63.64375 59.11979L63.64375 59.697914L64.8625 59.697914L64.8625 60.510414L63.64375 60.510414L63.64375 65.916664L62.596874 65.916664ZM67.64375 64.979164L67.8 65.90104Q67.34688 65.99479 67.00313 65.99479Q66.425 65.99479 66.1125 65.822914Q65.8 65.635414 65.65938 65.33854Q65.53438 65.041664 65.53438 64.08854L65.53438 60.510414L64.76875 60.510414L64.76875 59.697914L65.53438 59.697914L65.53438 58.15104L66.58125 57.52604L66.58125 59.697914L67.64375 59.697914L67.64375 60.510414L66.58125 60.510414L66.58125 64.15104Q66.58125 64.604164 66.62813 64.729164Q66.69063 64.854164 66.81563 64.93229Q66.94063 65.010414 67.175 65.010414Q67.3625 65.010414 67.64375 64.979164ZM71.50313 65.916664L71.50313 57.322914L77.70625 57.322914L77.70625 58.33854L72.64375 58.33854L72.64375 60.96354L77.39375 60.96354L77.39375 61.979164L72.64375 61.979164L72.64375 64.90104L77.90938 64.90104L77.90938 65.916664L71.50313 65.916664ZM83.37813 65.916664L83.37813 65.135414Q82.78438 66.05729 81.64375 66.05729Q80.89375 66.05729 80.26875 65.65104Q79.64375 65.229164 79.3 64.49479Q78.95625 63.760414 78.95625 62.80729Q78.95625 61.885414 79.26875 61.11979Q79.58125 60.354164 80.20625 59.96354Q80.83125 59.55729 81.59688 59.55729Q82.15938 59.55729 82.59688 59.791664Q83.03438 60.02604 83.31563 60.40104L83.31563 57.322914L84.3625 57.322914L84.3625 65.916664L83.37813 65.916664ZM80.05 62.80729Q80.05 64.010414 80.55 64.604164Q81.05 65.18229 81.7375 65.18229Q82.425 65.18229 82.90938 64.61979Q83.39375 64.05729 83.39375 62.90104Q83.39375 61.61979 82.89375 61.02604Q82.40938 60.43229 81.69063 60.43229Q80.9875 60.43229 80.51875 61.010414Q80.05 61.572914 80.05 62.80729ZM86.14375 66.43229L87.175 66.58854Q87.2375 67.05729 87.53438 67.27604Q87.925 67.572914 88.59688 67.572914Q89.33125 67.572914 89.72188 67.27604Q90.12813 66.979164 90.26875 66.46354Q90.3625 66.135414 90.34688 65.104164Q89.65938 65.916664 88.62813 65.916664Q87.34688 65.916664 86.64375 64.99479Q85.94063 64.05729 85.94063 62.77604Q85.94063 61.885414 86.25313 61.135414Q86.58125 60.36979 87.19063 59.96354Q87.8 59.55729 88.62813 59.55729Q89.7375 59.55729 90.45625 60.447914L90.45625 59.697914L91.425 59.697914L91.425 65.072914Q91.425 66.52604 91.12813 67.135414Q90.83125 67.74479 90.19063 68.08854Q89.55 68.447914 88.6125 68.447914Q87.50313 68.447914 86.81563 67.947914Q86.12813 67.447914 86.14375 66.43229ZM87.01875 62.697914Q87.01875 63.916664 87.50313 64.479164Q87.9875 65.041664 88.72188 65.041664Q89.45625 65.041664 89.94063 64.479164Q90.44063 63.916664 90.44063 62.729164Q90.44063 61.58854 89.925 61.010414Q89.425 60.43229 88.70625 60.43229Q88.00313 60.43229 87.50313 61.010414Q87.01875 61.572914 87.01875 62.697914ZM97.59688 63.916664L98.69063 64.041664Q98.44063 64.99479 97.7375 65.52604Q97.03438 66.05729 95.95625 66.05729Q94.59688 66.05729 93.78438 65.21354Q92.9875 64.36979 92.9875 62.854164Q92.9875 61.291664 93.8 60.43229Q94.6125 59.55729 95.89375 59.55729Q97.14375 59.55729 97.925 60.40104Q98.72188 61.24479 98.72188 62.791664Q98.72188 62.885414 98.72188 63.072914L94.08125 63.072914Q94.14375 64.104164 94.65938 64.65104Q95.175 65.18229 95.95625 65.18229Q96.53438 65.18229 96.94063 64.885414Q97.3625 64.572914 97.59688 63.916664ZM94.14375 62.21354L97.6125 62.21354Q97.55 61.416664 97.22188 61.02604Q96.70625 60.416664 95.90938 60.416664Q95.175 60.416664 94.675 60.90104Q94.19063 61.385414 94.14375 62.21354Z" fill-rule="nonzero"/><path fill="#9e9e9e" d="M19.05 80.65104L20.1125 80.510414Q20.284374 81.40104 20.721874 81.80729Q21.159374 82.197914 21.784374 82.197914Q22.534374 82.197914 23.05 81.68229Q23.565624 81.166664 23.565624 80.40104Q23.565624 79.68229 23.08125 79.21354Q22.6125 78.729164 21.878124 78.729164Q21.58125 78.729164 21.128124 78.854164L21.253124 77.916664Q21.3625 77.93229 21.425 77.93229Q22.096874 77.93229 22.628124 77.58854Q23.175 77.229164 23.175 76.49479Q23.175 75.916664 22.784374 75.541664Q22.39375 75.15104 21.76875 75.15104Q21.159374 75.15104 20.7375 75.541664Q20.33125 75.93229 20.221874 76.697914L19.159374 76.510414Q19.346874 75.46354 20.034374 74.885414Q20.721874 74.291664 21.7375 74.291664Q22.440624 74.291664 23.034374 74.604164Q23.628124 74.90104 23.940624 75.416664Q24.253124 75.93229 24.253124 76.52604Q24.253124 77.072914 23.95625 77.541664Q23.659374 77.99479 23.08125 78.260414Q23.83125 78.43229 24.253124 78.99479Q24.675 79.541664 24.675 80.385414Q24.675 81.510414 23.846874 82.291664Q23.034374 83.072914 21.784374 83.072914Q20.659374 83.072914 19.909374 82.40104Q19.159374 81.71354 19.05 80.65104ZM26.64375 82.916664L26.64375 81.71354L27.846874 81.71354L27.846874 82.916664L26.64375 82.916664ZM29.05 80.666664L30.159374 80.572914Q30.284374 81.385414 30.721874 81.791664Q31.175 82.197914 31.815624 82.197914Q32.565624 82.197914 33.096874 81.61979Q33.628124 81.041664 33.628124 80.104164Q33.628124 79.197914 33.1125 78.68229Q32.6125 78.15104 31.784374 78.15104Q31.284374 78.15104 30.8625 78.385414Q30.45625 78.61979 30.221874 78.979164L29.2375 78.854164L30.065624 74.447914L34.346874 74.447914L34.346874 75.447914L30.909374 75.447914L30.45625 77.760414Q31.221874 77.21354 32.065624 77.21354Q33.190624 77.21354 33.95625 77.99479Q34.7375 78.77604 34.7375 80.010414Q34.7375 81.166664 34.065624 82.02604Q33.2375 83.05729 31.815624 83.05729Q30.64375 83.05729 29.89375 82.40104Q29.159374 81.74479 29.05 80.666664ZM36.253124 76.385414Q36.253124 75.46354 36.70625 74.822914Q37.175 74.18229 38.05 74.18229Q38.8625 74.18229 39.39375 74.760414Q39.925 75.33854 39.925 76.447914Q39.925 77.541664 39.378124 78.135414Q38.846874 78.71354 38.065624 78.71354Q37.284374 78.71354 36.76875 78.135414Q36.253124 77.55729 36.253124 76.385414ZM38.08125 74.90104Q37.690624 74.90104 37.425 75.24479Q37.175 75.58854 37.175 76.49479Q37.175 77.322914 37.425 77.666664Q37.690624 77.99479 38.08125 77.99479Q38.4875 77.99479 38.7375 77.65104Q39.003124 77.30729 39.003124 76.416664Q39.003124 75.572914 38.7375 75.24479Q38.471874 74.90104 38.08125 74.90104ZM38.08125 83.229164L42.784374 74.18229L43.64375 74.18229L38.95625 83.229164L38.08125 83.229164ZM41.8 80.90104Q41.8 79.979164 42.253124 79.33854Q42.721874 78.697914 43.6125 78.697914Q44.425 78.697914 44.95625 79.27604Q45.4875 79.83854 45.4875 80.96354Q45.4875 82.05729 44.940624 82.65104Q44.409374 83.229164 43.6125 83.229164Q42.846874 83.229164 42.315624 82.65104Q41.8 82.072914 41.8 80.90104ZM43.64375 79.416664Q43.2375 79.416664 42.971874 79.760414Q42.721874 80.104164 42.721874 81.010414Q42.721874 81.822914 42.9875 82.166664Q43.253124 82.510414 43.64375 82.510414Q44.034374 82.510414 44.3 82.166664Q44.565624 81.822914 44.565624 80.916664Q44.565624 80.08854 44.3 79.760414Q44.034374 79.416664 43.64375 79.416664Z" fill-rule="nonzero"/><path stroke="#757575" stroke-width="1.0" stroke-linecap="butt" d="M18.55 70.416664L145.23334 70.416664L274.55566 64.66433" fill-rule="nonzero"/><path fill="#9e9e9e" d="M276.55566 64.66433C276.55566 63.55976 275.66022 62.66433 274.55566 62.66433C273.45108 62.66433 272.55566 63.55976 272.55566 64.66433C272.55566 65.7689 273.45108 66.66433 274.55566 66.66433C275.66022 66.66433 276.55566 65.7689 276.55566 64.66433" fill-rule="nonzero"/><path fill="#1a1a1a" d="M19.128124 92.729164Q19.128124 90.58854 20.26875 89.385414Q21.425 88.166664 23.2375 88.166664Q24.440624 88.166664 25.39375 88.74479Q26.346874 89.30729 26.846874 90.322914Q27.346874 91.33854 27.346874 92.635414Q27.346874 93.93229 26.815624 94.96354Q26.284374 95.99479 25.315624 96.52604Q24.3625 97.05729 23.2375 97.05729Q22.01875 97.05729 21.065624 96.479164Q20.1125 95.885414 19.6125 94.885414Q19.128124 93.86979 19.128124 92.729164ZM20.3 92.74479Q20.3 94.30729 21.128124 95.197914Q21.971874 96.08854 23.2375 96.08854Q24.51875 96.08854 25.346874 95.197914Q26.175 94.291664 26.175 92.61979Q26.175 91.572914 25.815624 90.791664Q25.471874 90.010414 24.784374 89.58854Q24.096874 89.15104 23.253124 89.15104Q22.05 89.15104 21.175 89.979164Q20.3 90.80729 20.3 92.74479ZM28.346874 99.30729L28.346874 90.697914L29.3 90.697914L29.3 91.49479Q29.64375 91.02604 30.065624 90.791664Q30.503124 90.55729 31.1125 90.55729Q31.909374 90.55729 32.51875 90.96354Q33.128124 91.36979 33.425 92.11979Q33.7375 92.86979 33.7375 93.760414Q33.7375 94.71354 33.39375 95.479164Q33.065624 96.24479 32.409374 96.65104Q31.753124 97.05729 31.034374 97.05729Q30.503124 97.05729 30.08125 96.83854Q29.659374 96.604164 29.39375 96.27604L29.39375 99.30729L28.346874 99.30729ZM29.3 93.83854Q29.3 95.041664 29.784374 95.61979Q30.26875 96.18229 30.95625 96.18229Q31.659374 96.18229 32.159374 95.58854Q32.659374 94.99479 32.659374 93.74479Q32.659374 92.55729 32.175 91.979164Q31.690624 91.385414 31.003124 91.385414Q30.33125 91.385414 29.815624 92.010414Q29.3 92.635414 29.3 93.83854ZM39.596874 94.916664L40.690624 95.041664Q40.440624 95.99479 39.7375 96.52604Q39.034374 97.05729 37.95625 97.05729Q36.596874 97.05729 35.784374 96.21354Q34.9875 95.36979 34.9875 93.854164Q34.9875 92.291664 35.8 91.43229Q36.6125 90.55729 37.89375 90.55729Q39.14375 90.55729 39.925 91.40104Q40.721874 92.24479 40.721874 93.791664Q40.721874 93.885414 40.721874 94.072914L36.08125 94.072914Q36.14375 95.104164 36.659374 95.65104Q37.175 96.18229 37.95625 96.18229Q38.534374 96.18229 38.940624 95.885414Q39.3625 95.572914 39.596874 94.916664ZM36.14375 93.21354L39.6125 93.21354Q39.55 92.416664 39.221874 92.02604Q38.70625 91.416664 37.909374 91.416664Q37.175 91.416664 36.675 91.90104Q36.190624 92.385414 36.14375 93.21354ZM42.33125 96.916664L42.33125 90.697914L43.284374 90.697914L43.284374 91.635414Q43.64375 90.979164 43.940624 90.77604Q44.253124 90.55729 44.628124 90.55729Q45.159374 90.55729 45.70625 90.885414L45.346874 91.86979Q44.95625 91.635414 44.58125 91.635414Q44.221874 91.635414 43.940624 91.854164Q43.675 92.05729 43.565624 92.43229Q43.378124 92.99479 43.378124 93.65104L43.378124 96.916664L42.33125 96.916664ZM50.409374 96.15104Q49.815624 96.65104 49.26875 96.854164Q48.7375 97.05729 48.1125 97.05729Q47.08125 97.05729 46.534374 96.55729Q45.9875 96.05729 45.9875 95.27604Q45.9875 94.822914 46.190624 94.447914Q46.39375 94.05729 46.7375 93.83854Q47.08125 93.604164 47.503124 93.49479Q47.8 93.40104 48.440624 93.322914Q49.70625 93.18229 50.315624 92.96354Q50.315624 92.74479 50.315624 92.697914Q50.315624 92.041664 50.01875 91.77604Q49.6125 91.43229 48.815624 91.43229Q48.08125 91.43229 47.721874 91.697914Q47.3625 91.947914 47.190624 92.604164L46.159374 92.46354Q46.3 91.80729 46.628124 91.40104Q46.95625 90.99479 47.565624 90.77604Q48.175 90.55729 48.971874 90.55729Q49.76875 90.55729 50.26875 90.74479Q50.76875 90.93229 51.003124 91.21354Q51.2375 91.49479 51.33125 91.93229Q51.378124 92.197914 51.378124 92.90104L51.378124 94.30729Q51.378124 95.77604 51.440624 96.166664Q51.51875 96.55729 51.721874 96.916664L50.6125 96.916664Q50.45625 96.58854 50.409374 96.15104ZM50.315624 93.791664Q49.7375 94.02604 48.596874 94.197914Q47.940624 94.291664 47.675 94.416664Q47.409374 94.52604 47.253124 94.74479Q47.1125 94.96354 47.1125 95.24479Q47.1125 95.666664 47.425 95.947914Q47.753124 96.229164 48.3625 96.229164Q48.971874 96.229164 49.440624 95.96354Q49.925 95.697914 50.14375 95.229164Q50.315624 94.86979 50.315624 94.18229L50.315624 93.791664Z" fill-rule="nonzero"/><path fill="#9e9e9e" d="M23.01875 113.916664L21.971874 113.916664L21.971874 107.197914Q21.58125 107.55729 20.95625 107.93229Q20.346874 108.291664 19.8625 108.46354L19.8625 107.447914Q20.7375 107.02604 21.39375 106.447914Q22.065624 105.854164 22.346874 105.291664L23.01875 105.291664L23.01875 113.916664ZM26.64375 113.916664L26.64375 112.71354L27.846874 112.71354L27.846874 113.916664L26.64375 113.916664ZM29.05 111.666664L30.159374 111.572914Q30.284374 112.385414 30.721874 112.791664Q31.175 113.197914 31.815624 113.197914Q32.565624 113.197914 33.096874 112.61979Q33.628124 112.041664 33.628124 111.104164Q33.628124 110.197914 33.1125 109.68229Q32.6125 109.15104 31.784374 109.15104Q31.284374 109.15104 30.8625 109.385414Q30.45625 109.61979 30.221874 109.979164L29.2375 109.854164L30.065624 105.447914L34.346874 105.447914L34.346874 106.447914L30.909374 106.447914L30.45625 108.760414Q31.221874 108.21354 32.065624 108.21354Q33.190624 108.21354 33.95625 108.99479Q34.7375 109.77604 34.7375 111.010414Q34.7375 112.166664 34.065624 113.02604Q33.2375 114.05729 31.815624 114.05729Q30.64375 114.05729 29.89375 113.40104Q29.159374 112.74479 29.05 111.666664ZM36.253124 107.385414Q36.253124 106.46354 36.70625 105.822914Q37.175 105.18229 38.05 105.18229Q38.8625 105.18229 39.39375 105.760414Q39.925 106.33854 39.925 107.447914Q39.925 108.541664 39.378124 109.135414Q38.846874 109.71354 38.065624 109.71354Q37.284374 109.71354 36.76875 109.135414Q36.253124 108.55729 36.253124 107.385414ZM38.08125 105.90104Q37.690624 105.90104 37.425 106.24479Q37.175 106.58854 37.175 107.49479Q37.175 108.322914 37.425 108.666664Q37.690624 108.99479 38.08125 108.99479Q38.4875 108.99479 38.7375 108.65104Q39.003124 108.30729 39.003124 107.416664Q39.003124 106.572914 38.7375 106.24479Q38.471874 105.90104 38.08125 105.90104ZM38.08125 114.229164L42.784374 105.18229L43.64375 105.18229L38.95625 114.229164L38.08125 114.229164ZM41.8 111.90104Q41.8 110.979164 42.253124 110.33854Q42.721874 109.697914 43.6125 109.697914Q44.425 109.697914 44.95625 110.27604Q45.4875 110.83854 45.4875 111.96354Q45.4875 113.05729 44.940624 113.65104Q44.409374 114.229164 43.6125 114.229164Q42.846874 114.229164 42.315624 113.65104Q41.8 113.072914 41.8 111.90104ZM43.64375 110.416664Q43.2375 110.416664 42.971874 110.760414Q42.721874 111.104164 42.721874 112.010414Q42.721874 112.822914 42.9875 113.166664Q43.253124 113.510414 43.64375 113.510414Q44.034374 113.510414 44.3 113.166664Q44.565624 112.822914 44.565624 111.916664Q44.565624 111.08854 44.3 110.760414Q44.034374 110.416664 43.64375 110.416664Z" fill-rule="nonzero"/><path stroke="#757575" stroke-width="1.0" stroke-linecap="butt" d="M18.55 101.416664L145.23334 101.416664L245.17963 73.420425" fill-rule="nonzero"/><path fill="#9e9e9e" d="M247.17963 73.420425C247.17963 72.31586 246.2842 71.420425 245.17963 71.420425C244.07506 71.420425 243.17963 72.31586 243.17963 73.420425C243.17963 74.524994 244.07506 75.420425 245.17963 75.420425C246.2842 75.420425 247.17963 74.524994 247.17963 73.420425" fill-rule="nonzero"/><path fill="#1a1a1a" d="M19.534374 127.916664L19.534374 119.322914L25.33125 119.322914L25.33125 120.33854L20.675 120.33854L20.675 122.99479L24.70625 122.99479L24.70625 124.010414L20.675 124.010414L20.675 127.916664L19.534374 127.916664ZM26.346874 120.541664L26.346874 119.322914L27.409374 119.322914L27.409374 120.541664L26.346874 120.541664ZM26.346874 127.916664L26.346874 121.697914L27.409374 121.697914L27.409374 127.916664L26.346874 127.916664ZM29.33125 127.916664L29.33125 121.697914L30.284374 121.697914L30.284374 122.635414Q30.64375 121.979164 30.940624 121.77604Q31.253124 121.55729 31.628124 121.55729Q32.159374 121.55729 32.70625 121.885414L32.346874 122.86979Q31.95625 122.635414 31.58125 122.635414Q31.221874 122.635414 30.940624 122.854164Q30.675 123.05729 30.565624 123.43229Q30.378124 123.99479 30.378124 124.65104L30.378124 127.916664L29.33125 127.916664ZM37.596874 125.916664L38.690624 126.041664Q38.440624 126.99479 37.7375 127.52604Q37.034374 128.05728 35.95625 128.05728Q34.596874 128.05728 33.784374 127.21354Q32.9875 126.36979 32.9875 124.854164Q32.9875 123.291664 33.8 122.43229Q34.6125 121.55729 35.89375 121.55729Q37.14375 121.55729 37.925 122.40104Q38.721874 123.24479 38.721874 124.791664Q38.721874 124.885414 38.721874 125.072914L34.08125 125.072914Q34.14375 126.104164 34.659374 126.65104Q35.175 127.18229 35.95625 127.18229Q36.534374 127.18229 36.940624 126.885414Q37.3625 126.572914 37.596874 125.916664ZM34.14375 124.21354L37.6125 124.21354Q37.55 123.416664 37.221874 123.02604Q36.70625 122.416664 35.909374 122.416664Q35.175 122.416664 34.675 122.90104Q34.190624 123.385414 34.14375 124.21354ZM40.596874 127.916664L40.596874 122.510414L39.659374 122.510414L39.659374 121.697914L40.596874 121.697914L40.596874 121.02604Q40.596874 120.40104 40.70625 120.104164Q40.8625 119.68229 41.2375 119.43229Q41.628124 119.18229 42.315624 119.18229Q42.76875 119.18229 43.3 119.291664L43.14375 120.197914Q42.815624 120.15104 42.51875 120.15104Q42.034374 120.15104 41.83125 120.354164Q41.64375 120.55729 41.64375 121.11979L41.64375 121.697914L42.8625 121.697914L42.8625 122.510414L41.64375 122.510414L41.64375 127.916664L40.596874 127.916664ZM42.95625 124.80729Q42.95625 123.072914 43.909374 122.24479Q44.70625 121.55729 45.8625 121.55729Q47.14375 121.55729 47.95625 122.40104Q48.784374 123.229164 48.784374 124.71354Q48.784374 125.916664 48.425 126.604164Q48.065624 127.291664 47.3625 127.68229Q46.675 128.05728 45.8625 128.05728Q44.565624 128.05728 43.753124 127.229164Q42.95625 126.385414 42.95625 124.80729ZM44.034374 124.80729Q44.034374 125.99479 44.55 126.58854Q45.08125 127.18229 45.8625 127.18229Q46.659374 127.18229 47.175 126.58854Q47.690624 125.99479 47.690624 124.77604Q47.690624 123.61979 47.159374 123.02604Q46.64375 122.43229 45.8625 122.43229Q45.08125 122.43229 44.55 123.02604Q44.034374 123.604164 44.034374 124.80729ZM49.64375 127.916664L51.909374 124.68229L49.815624 121.697914L51.128124 121.697914L52.08125 123.15104Q52.346874 123.572914 52.51875 123.854164Q52.76875 123.46354 52.9875 123.166664L54.034374 121.697914L55.3 121.697914L53.14375 124.61979L55.45625 127.916664L54.175 127.916664L52.89375 125.979164L52.55 125.46354L50.909374 127.916664L49.64375 127.916664Z" fill-rule="nonzero"/><path fill="#9e9e9e" d="M20.675 140.26042Q20.01875 140.01042 19.690624 139.57292Q19.378124 139.1198 19.378124 138.51042Q19.378124 137.57292 20.05 136.9323Q20.7375 136.29167 21.846874 136.29167Q22.971874 136.29167 23.659374 136.94792Q24.346874 137.60417 24.346874 138.54167Q24.346874 139.13542 24.034374 139.57292Q23.721874 140.01042 23.08125 140.26042Q23.878124 140.51042 24.284374 141.08855Q24.690624 141.66667 24.690624 142.46355Q24.690624 143.5573 23.909374 144.3073Q23.14375 145.0573 21.8625 145.0573Q20.596874 145.0573 19.815624 144.3073Q19.034374 143.5573 19.034374 142.4323Q19.034374 141.58855 19.45625 141.02605Q19.89375 140.46355 20.675 140.26042ZM20.45625 138.46355Q20.45625 139.07292 20.846874 139.46355Q21.253124 139.85417 21.878124 139.85417Q22.4875 139.85417 22.878124 139.47917Q23.26875 139.08855 23.26875 138.52605Q23.26875 137.94792 22.8625 137.5573Q22.45625 137.15105 21.8625 137.15105Q21.253124 137.15105 20.846874 137.54167Q20.45625 137.9323 20.45625 138.46355ZM20.128124 142.4323Q20.128124 142.88542 20.33125 143.3073Q20.55 143.72917 20.971874 143.96355Q21.39375 144.19792 21.878124 144.19792Q22.628124 144.19792 23.1125 143.71355Q23.6125 143.22917 23.6125 142.47917Q23.6125 141.71355 23.1125 141.21355Q22.6125 140.71355 21.846874 140.71355Q21.096874 140.71355 20.6125 141.21355Q20.128124 141.69792 20.128124 142.4323ZM26.64375 144.91667L26.64375 143.71355L27.846874 143.71355L27.846874 144.91667L26.64375 144.91667ZM34.51875 138.4323L33.471874 138.51042Q33.33125 137.88542 33.08125 137.60417Q32.64375 137.15105 32.01875 137.15105Q31.51875 137.15105 31.128124 137.4323Q30.64375 137.8073 30.346874 138.51042Q30.065624 139.19792 30.05 140.47917Q30.425 139.90105 30.971874 139.6198Q31.534374 139.33855 32.14375 139.33855Q33.190624 139.33855 33.925 140.1198Q34.675 140.90105 34.675 142.1198Q34.675 142.9323 34.315624 143.63542Q33.971874 144.32292 33.3625 144.69792Q32.753124 145.0573 31.9875 145.0573Q30.659374 145.0573 29.83125 144.08855Q29.003124 143.1198 29.003124 140.90105Q29.003124 138.40105 29.925 137.27605Q30.721874 136.29167 32.08125 136.29167Q33.096874 136.29167 33.7375 136.8698Q34.39375 137.4323 34.51875 138.4323ZM30.221874 142.13542Q30.221874 142.6823 30.440624 143.1823Q30.675 143.66667 31.08125 143.9323Q31.503124 144.19792 31.971874 144.19792Q32.628124 144.19792 33.1125 143.66667Q33.596874 143.1198 33.596874 142.19792Q33.596874 141.3073 33.1125 140.79167Q32.64375 140.27605 31.925 140.27605Q31.20625 140.27605 30.70625 140.79167Q30.221874 141.3073 30.221874 142.13542ZM36.253124 138.38542Q36.253124 137.46355 36.70625 136.82292Q37.175 136.1823 38.05 136.1823Q38.8625 136.1823 39.39375 136.76042Q39.925 137.33855 39.925 138.44792Q39.925 139.54167 39.378124 140.13542Q38.846874 140.71355 38.065624 140.71355Q37.284374 140.71355 36.76875 140.13542Q36.253124 139.5573 36.253124 138.38542ZM38.08125 136.90105Q37.690624 136.90105 37.425 137.2448Q37.175 137.58855 37.175 138.4948Q37.175 139.32292 37.425 139.66667Q37.690624 139.9948 38.08125 139.9948Q38.4875 139.9948 38.7375 139.65105Q39.003124 139.3073 39.003124 138.41667Q39.003124 137.57292 38.7375 137.2448Q38.471874 136.90105 38.08125 136.90105ZM38.08125 145.22917L42.784374 136.1823L43.64375 136.1823L38.95625 145.22917L38.08125 145.22917ZM41.8 142.90105Q41.8 141.97917 42.253124 141.33855Q42.721874 140.69792 43.6125 140.69792Q44.425 140.69792 44.95625 141.27605Q45.4875 141.83855 45.4875 142.96355Q45.4875 144.0573 44.940624 144.65105Q44.409374 145.22917 43.6125 145.22917Q42.846874 145.22917 42.315624 144.65105Q41.8 144.07292 41.8 142.90105ZM43.64375 141.41667Q43.2375 141.41667 42.971874 141.76042Q42.721874 142.10417 42.721874 143.01042Q42.721874 143.82292 42.9875 144.16667Q43.253124 144.51042 43.64375 144.51042Q44.034374 144.51042 44.3 144.16667Q44.565624 143.82292 44.565624 142.91667Q44.565624 142.08855 44.3 141.76042Q44.034374 141.41667 43.64375 141.41667Z" fill-rule="nonzero"/><path stroke="#757575" stroke-width="1.0" stroke-linecap="butt" d="M18.55 132.41667L145.23334 132.41667L207.10995 97.16978" fill-rule="nonzero"/><path fill="#9e9e9e" d="M209.10995 97.16978C209.10995 96.0652 208.21452 95.16978 207.10995 95.16978C206.00539 95.16978 205.10995 96.0652 205.10995 97.16978C205.10995 98.274345 206.00539 99.16978 207.10995 99.16978C208.21452 99.16978 209.10995 98.274345 209.10995 97.16978" fill-rule="nonzero"/><path fill="#1a1a1a" d="M19.096874 201.92067L20.159374 201.82692Q20.2375 202.48317 20.51875 202.88942Q20.8 203.29567 21.378124 203.5613Q21.971874 203.8113 22.70625 203.8113Q23.346874 203.8113 23.846874 203.6238Q24.346874 203.42067 24.58125 203.09254Q24.83125 202.7488 24.83125 202.35817Q24.83125 201.95192 24.596874 201.65504Q24.3625 201.34254 23.83125 201.13942Q23.471874 200.9988 22.284374 200.71754Q21.1125 200.4363 20.64375 200.1863Q20.01875 199.85817 19.721874 199.38942Q19.425 198.90504 19.425 198.3113Q19.425 197.67067 19.784374 197.10817Q20.159374 196.53004 20.8625 196.2488Q21.58125 195.95192 22.440624 195.95192Q23.39375 195.95192 24.128124 196.26442Q24.8625 196.5613 25.253124 197.17067Q25.64375 197.76442 25.675 198.51442L24.58125 198.59254Q24.4875 197.78004 23.971874 197.3738Q23.471874 196.95192 22.4875 196.95192Q21.45625 196.95192 20.9875 197.32692Q20.51875 197.70192 20.51875 198.23317Q20.51875 198.70192 20.846874 198.9988Q21.175 199.29567 22.55 199.60817Q23.940624 199.92067 24.45625 200.15504Q25.20625 200.51442 25.565624 201.04567Q25.925 201.5613 25.925 202.26442Q25.925 202.95192 25.534374 203.5613Q25.14375 204.15504 24.409374 204.4988Q23.675 204.82692 22.753124 204.82692Q21.58125 204.82692 20.784374 204.4988Q20.003124 204.15504 19.55 203.46754Q19.1125 202.78004 19.096874 201.92067ZM31.409374 203.92067Q30.815624 204.42067 30.26875 204.6238Q29.7375 204.82692 29.1125 204.82692Q28.08125 204.82692 27.534374 204.32692Q26.9875 203.82692 26.9875 203.04567Q26.9875 202.59254 27.190624 202.21754Q27.39375 201.82692 27.7375 201.60817Q28.08125 201.3738 28.503124 201.26442Q28.8 201.17067 29.440624 201.09254Q30.70625 200.95192 31.315624 200.73317Q31.315624 200.51442 31.315624 200.46754Q31.315624 199.8113 31.01875 199.54567Q30.6125 199.20192 29.815624 199.20192Q29.08125 199.20192 28.721874 199.46754Q28.3625 199.71754 28.190624 200.3738L27.159374 200.23317Q27.3 199.57692 27.628124 199.17067Q27.95625 198.76442 28.565624 198.54567Q29.175 198.32692 29.971874 198.32692Q30.76875 198.32692 31.26875 198.51442Q31.76875 198.70192 32.003124 198.98317Q32.2375 199.26442 32.33125 199.70192Q32.378124 199.96754 32.378124 200.67067L32.378124 202.07692Q32.378124 203.54567 32.440624 203.9363Q32.51875 204.32692 32.721874 204.6863L31.6125 204.6863Q31.45625 204.35817 31.409374 203.92067ZM31.315624 201.5613Q30.7375 201.79567 29.596874 201.96754Q28.940624 202.0613 28.675 202.1863Q28.409374 202.29567 28.253124 202.51442Q28.1125 202.73317 28.1125 203.01442Q28.1125 203.4363 28.425 203.71754Q28.753124 203.9988 29.3625 203.9988Q29.971874 203.9988 30.440624 203.73317Q30.925 203.46754 31.14375 202.9988Q31.315624 202.63942 31.315624 201.95192L31.315624 201.5613ZM34.596874 204.6863L34.596874 199.28004L33.659374 199.28004L33.659374 198.46754L34.596874 198.46754L34.596874 197.79567Q34.596874 197.17067 34.70625 196.8738Q34.8625 196.45192 35.2375 196.20192Q35.628124 195.95192 36.315624 195.95192Q36.76875 195.95192 37.3 196.0613L37.14375 196.96754Q36.815624 196.92067 36.51875 196.92067Q36.034374 196.92067 35.83125 197.1238Q35.64375 197.32692 35.64375 197.88942L35.64375 198.46754L36.8625 198.46754L36.8625 199.28004L35.64375 199.28004L35.64375 204.6863L34.596874 204.6863ZM41.409374 203.92067Q40.815624 204.42067 40.26875 204.6238Q39.7375 204.82692 39.1125 204.82692Q38.08125 204.82692 37.534374 204.32692Q36.9875 203.82692 36.9875 203.04567Q36.9875 202.59254 37.190624 202.21754Q37.39375 201.82692 37.7375 201.60817Q38.08125 201.3738 38.503124 201.26442Q38.8 201.17067 39.440624 201.09254Q40.70625 200.95192 41.315624 200.73317Q41.315624 200.51442 41.315624 200.46754Q41.315624 199.8113 41.01875 199.54567Q40.6125 199.20192 39.815624 199.20192Q39.08125 199.20192 38.721874 199.46754Q38.3625 199.71754 38.190624 200.3738L37.159374 200.23317Q37.3 199.57692 37.628124 199.17067Q37.95625 198.76442 38.565624 198.54567Q39.175 198.32692 39.971874 198.32692Q40.76875 198.32692 41.26875 198.51442Q41.76875 198.70192 42.003124 198.98317Q42.2375 199.26442 42.33125 199.70192Q42.378124 199.96754 42.378124 200.67067L42.378124 202.07692Q42.378124 203.54567 42.440624 203.9363Q42.51875 204.32692 42.721874 204.6863L41.6125 204.6863Q41.45625 204.35817 41.409374 203.92067ZM41.315624 201.5613Q40.7375 201.79567 39.596874 201.96754Q38.940624 202.0613 38.675 202.1863Q38.409374 202.29567 38.253124 202.51442Q38.1125 202.73317 38.1125 203.01442Q38.1125 203.4363 38.425 203.71754Q38.753124 203.9988 39.3625 203.9988Q39.971874 203.9988 40.440624 203.73317Q40.925 203.46754 41.14375 202.9988Q41.315624 202.63942 41.315624 201.95192L41.315624 201.5613ZM44.33125 204.6863L44.33125 198.46754L45.284374 198.46754L45.284374 199.40504Q45.64375 198.7488 45.940624 198.54567Q46.253124 198.32692 46.628124 198.32692Q47.159374 198.32692 47.70625 198.65504L47.346874 199.63942Q46.95625 199.40504 46.58125 199.40504Q46.221874 199.40504 45.940624 199.6238Q45.675 199.82692 45.565624 200.20192Q45.378124 200.76442 45.378124 201.42067L45.378124 204.6863L44.33125 204.6863ZM48.346874 197.3113L48.346874 196.09254L49.409374 196.09254L49.409374 197.3113L48.346874 197.3113ZM48.346874 204.6863L48.346874 198.46754L49.409374 198.46754L49.409374 204.6863L48.346874 204.6863Z" fill-rule="nonzero"/><path fill="#9e9e9e" d="M23.01875 221.6863L21.971874 221.6863L21.971874 214.96754Q21.58125 215.32692 20.95625 215.70192Q20.346874 216.0613 19.8625 216.23317L19.8625 215.21754Q20.7375 214.79567 21.39375 214.21754Q22.065624 213.6238 22.346874 213.0613L23.01875 213.0613L23.01875 221.6863ZM26.20625 219.70192L27.221874 219.60817Q27.346874 220.32692 27.70625 220.65504Q28.08125 220.96754 28.64375 220.96754Q29.128124 220.96754 29.4875 220.7488Q29.8625 220.51442 30.096874 220.15504Q30.33125 219.78004 30.4875 219.15504Q30.64375 218.51442 30.64375 217.85817Q30.64375 217.78004 30.64375 217.63942Q30.33125 218.13942 29.784374 218.46754Q29.2375 218.78004 28.596874 218.78004Q27.51875 218.78004 26.784374 218.01442Q26.05 217.23317 26.05 215.96754Q26.05 214.65504 26.815624 213.85817Q27.596874 213.0613 28.753124 213.0613Q29.58125 213.0613 30.26875 213.51442Q30.971874 213.96754 31.33125 214.8113Q31.690624 215.63942 31.690624 217.21754Q31.690624 218.85817 31.33125 219.84254Q30.9875 220.8113 30.26875 221.32692Q29.565624 221.82692 28.628124 221.82692Q27.6125 221.82692 26.971874 221.28004Q26.33125 220.71754 26.20625 219.70192ZM30.51875 215.90504Q30.51875 214.9988 30.034374 214.46754Q29.565624 213.9363 28.878124 213.9363Q28.175 213.9363 27.64375 214.51442Q27.128124 215.07692 27.128124 215.9988Q27.128124 216.8113 27.628124 217.32692Q28.128124 217.84254 28.846874 217.84254Q29.58125 217.84254 30.05 217.32692Q30.51875 216.8113 30.51875 215.90504ZM33.64375 221.6863L33.64375 220.48317L34.846874 220.48317L34.846874 221.6863L33.64375 221.6863ZM37.675 217.03004Q37.01875 216.78004 36.690624 216.34254Q36.378124 215.88942 36.378124 215.28004Q36.378124 214.34254 37.05 213.70192Q37.7375 213.0613 38.846874 213.0613Q39.971874 213.0613 40.659374 213.71754Q41.346874 214.3738 41.346874 215.3113Q41.346874 215.90504 41.034374 216.34254Q40.721874 216.78004 40.08125 217.03004Q40.878124 217.28004 41.284374 217.85817Q41.690624 218.4363 41.690624 219.23317Q41.690624 220.32692 40.909374 221.07692Q40.14375 221.82692 38.8625 221.82692Q37.596874 221.82692 36.815624 221.07692Q36.034374 220.32692 36.034374 219.20192Q36.034374 218.35817 36.45625 217.79567Q36.89375 217.23317 37.675 217.03004ZM37.45625 215.23317Q37.45625 215.84254 37.846874 216.23317Q38.253124 216.6238 38.878124 216.6238Q39.4875 216.6238 39.878124 216.2488Q40.26875 215.85817 40.26875 215.29567Q40.26875 214.71754 39.8625 214.32692Q39.45625 213.92067 38.8625 213.92067Q38.253124 213.92067 37.846874 214.3113Q37.45625 214.70192 37.45625 215.23317ZM37.128124 219.20192Q37.128124 219.65504 37.33125 220.07692Q37.55 220.4988 37.971874 220.73317Q38.39375 220.96754 38.878124 220.96754Q39.628124 220.96754 40.1125 220.48317Q40.6125 219.9988 40.6125 219.2488Q40.6125 218.48317 40.1125 217.98317Q39.6125 217.48317 38.846874 217.48317Q38.096874 217.48317 37.6125 217.98317Q37.128124 218.46754 37.128124 219.20192ZM43.253124 215.15504Q43.253124 214.23317 43.70625 213.59254Q44.175 212.95192 45.05 212.95192Q45.8625 212.95192 46.39375 213.53004Q46.925 214.10817 46.925 215.21754Q46.925 216.3113 46.378124 216.90504Q45.846874 217.48317 45.065624 217.48317Q44.284374 217.48317 43.76875 216.90504Q43.253124 216.32692 43.253124 215.15504ZM45.08125 213.67067Q44.690624 213.67067 44.425 214.01442Q44.175 214.35817 44.175 215.26442Q44.175 216.09254 44.425 216.4363Q44.690624 216.76442 45.08125 216.76442Q45.4875 216.76442 45.7375 216.42067Q46.003124 216.07692 46.003124 215.1863Q46.003124 214.34254 45.7375 214.01442Q45.471874 213.67067 45.08125 213.67067ZM45.08125 221.9988L49.784374 212.95192L50.64375 212.95192L45.95625 221.9988L45.08125 221.9988ZM48.8 219.67067Q48.8 218.7488 49.253124 218.10817Q49.721874 217.46754 50.6125 217.46754Q51.425 217.46754 51.95625 218.04567Q52.4875 218.60817 52.4875 219.73317Q52.4875 220.82692 51.940624 221.42067Q51.409374 221.9988 50.6125 221.9988Q49.846874 221.9988 49.315624 221.42067Q48.8 220.84254 48.8 219.67067ZM50.64375 218.1863Q50.2375 218.1863 49.971874 218.53004Q49.721874 218.8738 49.721874 219.78004Q49.721874 220.59254 49.9875 220.9363Q50.253124 221.28004 50.64375 221.28004Q51.034374 221.28004 51.3 220.9363Q51.565624 220.59254 51.565624 219.6863Q51.565624 218.85817 51.3 218.53004Q51.034374 218.1863 50.64375 218.1863Z" fill-rule="nonzero"/><path stroke="#757575" stroke-width="1.0" stroke-linecap="butt" d="M18.55 209.1863L145.23334 209.1863L158.77884 209.1863" fill-rule="nonzero"/><path fill="#9e9e9e" d="M160.77884 209.1863C160.77884 208.08173 159.8834 207.1863 158.77884 207.1863C157.67427 207.1863 156.77884 208.08173 156.77884 209.1863C156.77884 210.29086 157.67427 211.1863 158.77884 211.1863C159.8834 211.1863 160.77884 210.29086 160.77884 209.1863" fill-rule="nonzero"/><path fill="#1a1a1a" d="M544.5125 258.28098L545.6375 258.57785Q545.27814 259.96848 544.35626 260.70285Q543.4344 261.43723 542.09064 261.43723Q540.7 261.43723 539.825 260.87473Q538.95 260.31223 538.4969 259.24973Q538.04376 258.1716 538.04376 256.93723Q538.04376 255.59348 538.5594 254.59348Q539.075 253.59348 540.0125 253.07785Q540.96564 252.56223 542.10626 252.56223Q543.3875 252.56223 544.2625 253.21848Q545.15314 253.87473 545.4969 255.06223L544.3719 255.32785Q544.075 254.39035 543.4969 253.96848Q542.9344 253.53098 542.075 253.53098Q541.09064 253.53098 540.41876 254.01535Q539.7625 254.4841 539.48126 255.28098Q539.21564 256.07785 539.21564 256.93723Q539.21564 258.03098 539.52814 258.84348Q539.85626 259.65598 540.52814 260.06223Q541.2 260.46848 541.9969 260.46848Q542.95 260.46848 543.60626 259.9216Q544.27814 259.37473 544.5125 258.28098ZM547.2469 261.2966L547.2469 252.70285L548.29376 252.70285L548.29376 255.78098Q549.02814 254.93723 550.15314 254.93723Q550.85626 254.93723 551.35626 255.21848Q551.8719 255.4841 552.09064 255.96848Q552.3094 256.43723 552.3094 257.3591L552.3094 261.2966L551.2625 261.2966L551.2625 257.3591Q551.2625 256.56223 550.91876 256.20285Q550.575 255.84348 549.95 255.84348Q549.48126 255.84348 549.0594 256.09348Q548.65314 256.32785 548.46564 256.74973Q548.29376 257.15598 548.29376 257.89035L548.29376 261.2966L547.2469 261.2966ZM554.23126 261.2966L554.23126 255.07785L555.1844 255.07785L555.1844 256.01535Q555.54376 255.3591 555.84064 255.15598Q556.15314 254.93723 556.52814 254.93723Q557.0594 254.93723 557.60626 255.26535L557.2469 256.24973Q556.85626 256.01535 556.48126 256.01535Q556.1219 256.01535 555.84064 256.2341Q555.575 256.43723 555.46564 256.81223Q555.27814 257.37473 555.27814 258.03098L555.27814 261.2966L554.23126 261.2966ZM557.85626 258.18723Q557.85626 256.45285 558.8094 255.62473Q559.60626 254.93723 560.7625 254.93723Q562.04376 254.93723 562.85626 255.78098Q563.6844 256.6091 563.6844 258.09348Q563.6844 259.2966 563.325 259.9841Q562.96564 260.6716 562.2625 261.06223Q561.575 261.43723 560.7625 261.43723Q559.46564 261.43723 558.65314 260.6091Q557.85626 259.76535 557.85626 258.18723ZM558.9344 258.18723Q558.9344 259.37473 559.45 259.96848Q559.98126 260.56223 560.7625 260.56223Q561.5594 260.56223 562.075 259.96848Q562.59064 259.37473 562.59064 258.15598Q562.59064 256.99973 562.0594 256.40598Q561.54376 255.81223 560.7625 255.81223Q559.98126 255.81223 559.45 256.40598Q558.9344 256.9841 558.9344 258.18723ZM565.2469 261.2966L565.2469 255.07785L566.1844 255.07785L566.1844 255.95285Q566.48126 255.4841 566.96564 255.21848Q567.45 254.93723 568.075 254.93723Q568.7625 254.93723 569.2 255.21848Q569.65314 255.49973 569.825 256.01535Q570.575 254.93723 571.7469 254.93723Q572.6844 254.93723 573.16876 255.45285Q573.66876 255.95285 573.66876 257.03098L573.66876 261.2966L572.6219 261.2966L572.6219 257.37473Q572.6219 256.74973 572.5125 256.46848Q572.41876 256.18723 572.15314 256.01535Q571.8875 255.84348 571.5125 255.84348Q570.85626 255.84348 570.41876 256.28098Q569.9969 256.71848 569.9969 257.68723L569.9969 261.2966L568.9344 261.2966L568.9344 257.24973Q568.9344 256.5466 568.66876 256.20285Q568.41876 255.84348 567.84064 255.84348Q567.3875 255.84348 567.0125 256.07785Q566.6375 256.31223 566.46564 256.76535Q566.29376 257.21848 566.29376 258.06223L566.29376 261.2966L565.2469 261.2966ZM579.4969 259.2966L580.59064 259.4216Q580.34064 260.37473 579.6375 260.90598Q578.9344 261.43723 577.85626 261.43723Q576.4969 261.43723 575.6844 260.59348Q574.8875 259.74973 574.8875 258.2341Q574.8875 256.6716 575.7 255.81223Q576.5125 254.93723 577.79376 254.93723Q579.04376 254.93723 579.825 255.78098Q580.6219 256.62473 580.6219 258.1716Q580.6219 258.26535 580.6219 258.45285L575.98126 258.45285Q576.04376 259.4841 576.5594 260.03098Q577.075 260.56223 577.85626 260.56223Q578.4344 260.56223 578.84064 260.26535Q579.2625 259.95285 579.4969 259.2966ZM576.04376 257.59348L579.5125 257.59348Q579.45 256.7966 579.1219 256.40598Q578.60626 255.7966 577.8094 255.7966Q577.075 255.7966 576.575 256.28098Q576.09064 256.76535 576.04376 257.59348Z" fill-rule="nonzero"/><path fill="#9e9e9e" d="M552.41876 271.81223L551.3719 271.89035Q551.23126 271.26535 550.98126 270.9841Q550.54376 270.53098 549.91876 270.53098Q549.41876 270.53098 549.02814 270.81223Q548.54376 271.18723 548.2469 271.89035Q547.96564 272.57785 547.95 273.8591Q548.325 273.28098 548.8719 272.99973Q549.4344 272.71848 550.04376 272.71848Q551.09064 272.71848 551.825 273.49973Q552.575 274.28098 552.575 275.49973Q552.575 276.31223 552.21564 277.01535Q551.8719 277.70285 551.2625 278.07785Q550.65314 278.43723 549.8875 278.43723Q548.5594 278.43723 547.73126 277.46848Q546.90314 276.49973 546.90314 274.28098Q546.90314 271.78098 547.825 270.65598Q548.6219 269.6716 549.98126 269.6716Q550.9969 269.6716 551.6375 270.24973Q552.29376 270.81223 552.41876 271.81223ZM548.1219 275.51535Q548.1219 276.06223 548.34064 276.56223Q548.575 277.0466 548.98126 277.31223Q549.40314 277.57785 549.8719 277.57785Q550.52814 277.57785 551.0125 277.0466Q551.4969 276.49973 551.4969 275.57785Q551.4969 274.68723 551.0125 274.1716Q550.54376 273.65598 549.825 273.65598Q549.10626 273.65598 548.60626 274.1716Q548.1219 274.68723 548.1219 275.51535ZM557.325 278.2966L557.325 276.2341L553.60626 276.2341L553.60626 275.26535L557.52814 269.70285L558.3875 269.70285L558.3875 275.26535L559.54376 275.26535L559.54376 276.2341L558.3875 276.2341L558.3875 278.2966L557.325 278.2966ZM557.325 275.26535L557.325 271.40598L554.6375 275.26535L557.325 275.26535ZM561.54376 278.2966L561.54376 277.09348L562.7469 277.09348L562.7469 278.2966L561.54376 278.2966ZM563.95 276.0466L565.0594 275.95285Q565.1844 276.76535 565.6219 277.1716Q566.075 277.57785 566.71564 277.57785Q567.46564 277.57785 567.9969 276.99973Q568.52814 276.4216 568.52814 275.4841Q568.52814 274.57785 568.0125 274.06223Q567.5125 273.53098 566.6844 273.53098Q566.1844 273.53098 565.7625 273.76535Q565.35626 273.99973 565.1219 274.3591L564.1375 274.2341L564.96564 269.82785L569.2469 269.82785L569.2469 270.82785L565.8094 270.82785L565.35626 273.14035Q566.1219 272.59348 566.96564 272.59348Q568.09064 272.59348 568.85626 273.37473Q569.6375 274.15598 569.6375 275.39035Q569.6375 276.5466 568.96564 277.40598Q568.1375 278.43723 566.71564 278.43723Q565.54376 278.43723 564.79376 277.78098Q564.0594 277.12473 563.95 276.0466ZM571.15314 271.76535Q571.15314 270.84348 571.60626 270.20285Q572.075 269.56223 572.95 269.56223Q573.7625 269.56223 574.29376 270.14035Q574.825 270.71848 574.825 271.82785Q574.825 272.9216 574.27814 273.51535Q573.7469 274.09348 572.96564 274.09348Q572.1844 274.09348 571.66876 273.51535Q571.15314 272.93723 571.15314 271.76535ZM572.98126 270.28098Q572.59064 270.28098 572.325 270.62473Q572.075 270.96848 572.075 271.87473Q572.075 272.70285 572.325 273.0466Q572.59064 273.37473 572.98126 273.37473Q573.3875 273.37473 573.6375 273.03098Q573.90314 272.68723 573.90314 271.7966Q573.90314 270.95285 573.6375 270.62473Q573.3719 270.28098 572.98126 270.28098ZM572.98126 278.6091L577.6844 269.56223L578.54376 269.56223L573.85626 278.6091L572.98126 278.6091ZM576.7 276.28098Q576.7 275.3591 577.15314 274.71848Q577.6219 274.07785 578.5125 274.07785Q579.325 274.07785 579.85626 274.65598Q580.3875 275.21848 580.3875 276.34348Q580.3875 277.43723 579.84064 278.03098Q579.3094 278.6091 578.5125 278.6091Q577.7469 278.6091 577.21564 278.03098Q576.7 277.45285 576.7 276.28098ZM578.54376 274.7966Q578.1375 274.7966 577.8719 275.14035Q577.6219 275.4841 577.6219 276.39035Q577.6219 277.20285 577.8875 277.5466Q578.15314 277.89035 578.54376 277.89035Q578.9344 277.89035 579.2 277.5466Q579.46564 277.20285 579.46564 276.2966Q579.46564 275.46848 579.2 275.14035Q578.9344 274.7966 578.54376 274.7966Z" fill-rule="nonzero"/><path stroke="#757575" stroke-width="1.0" stroke-linecap="butt" d="M581.45 265.7966L454.76666 265.7966L426.9474 265.7966" fill-rule="nonzero"/><path fill="#9e9e9e" d="M428.9474 265.7966C428.9474 264.69205 428.05197 263.7966 426.9474 263.7966C425.84283 263.7966 424.9474 264.69205 424.9474 265.7966C424.9474 266.90118 425.84283 267.7966 426.9474 267.7966C428.05197 267.7966 428.9474 266.90118 428.9474 265.7966" fill-rule="nonzero"/><path fill="#757575" d="M20.01875 37.55L20.01875 23.2375L25.39375 23.2375Q27.034374 23.2375 28.01875 23.675Q29.003124 24.096874 29.565624 25.003124Q30.128124 25.909374 30.128124 26.89375Q30.128124 27.815624 29.628124 28.628124Q29.14375 29.440624 28.128124 29.925Q29.425 30.315624 30.128124 31.2375Q30.83125 32.14375 30.83125 33.39375Q30.83125 34.409374 30.39375 35.26875Q29.971874 36.128124 29.346874 36.596874Q28.721874 37.065624 27.784374 37.315624Q26.846874 37.55 25.471874 37.55L20.01875 37.55ZM21.909374 29.253124L25.003124 29.253124Q26.26875 29.253124 26.815624 29.08125Q27.534374 28.8625 27.89375 28.378124Q28.26875 27.878124 28.26875 27.1125Q28.26875 26.409374 27.925 25.8625Q27.58125 25.315624 26.940624 25.128124Q26.315624 24.925 24.76875 24.925L21.909374 24.925L21.909374 29.253124ZM21.909374 35.8625L25.471874 35.8625Q26.39375 35.8625 26.76875 35.784374Q27.425 35.675 27.8625 35.409374Q28.3 35.128124 28.58125 34.6125Q28.8625 34.08125 28.8625 33.39375Q28.8625 32.596874 28.45625 32.003124Q28.05 31.409374 27.315624 31.175Q26.58125 30.940624 25.221874 30.940624L21.909374 30.940624L21.909374 35.8625ZM32.846874 37.55L32.846874 27.175L34.425 27.175L34.425 28.753124Q35.034374 27.64375 35.55 27.3Q36.065624 26.940624 36.675 26.940624Q37.565624 26.940624 38.4875 27.503124L37.878124 29.14375Q37.2375 28.753124 36.596874 28.753124Q36.01875 28.753124 35.55 29.1125Q35.096874 29.45625 34.89375 30.065624Q34.6125 31.003124 34.6125 32.1125L34.6125 37.55L32.846874 37.55ZM39.221874 32.3625Q39.221874 29.4875 40.815624 28.096874Q42.159374 26.940624 44.08125 26.940624Q46.221874 26.940624 47.565624 28.346874Q48.925 29.753124 48.925 32.221874Q48.925 34.221874 48.33125 35.378124Q47.7375 36.51875 46.58125 37.159374Q45.440624 37.784374 44.08125 37.784374Q41.89375 37.784374 40.55 36.39375Q39.221874 34.9875 39.221874 32.3625ZM41.01875 32.3625Q41.01875 34.3625 41.878124 35.346874Q42.753124 36.33125 44.08125 36.33125Q45.39375 36.33125 46.253124 35.346874Q47.128124 34.346874 47.128124 32.3Q47.128124 30.378124 46.253124 29.39375Q45.378124 28.39375 44.08125 28.39375Q42.753124 28.39375 41.878124 29.39375Q41.01875 30.378124 41.01875 32.3625ZM52.784374 37.55L49.6125 27.175L51.425 27.175L53.08125 33.159374L53.690624 35.39375Q53.7375 35.221874 54.221874 33.253124L55.878124 27.175L57.690624 27.175L59.2375 33.190624L59.753124 35.175L60.346874 33.175L62.128124 27.175L63.83125 27.175L60.596874 37.55L58.76875 37.55L57.1125 31.33125L56.721874 29.565624L54.6125 37.55L52.784374 37.55ZM64.15938 34.45625L65.90938 34.175Q66.05 35.221874 66.72188 35.784374Q67.39375 36.33125 68.59688 36.33125Q69.8 36.33125 70.37813 35.846874Q70.97188 35.346874 70.97188 34.690624Q70.97188 34.096874 70.45625 33.753124Q70.09688 33.51875 68.65938 33.159374Q66.72188 32.659374 65.97188 32.315624Q65.2375 31.95625 64.84688 31.33125Q64.45625 30.690624 64.45625 29.925Q64.45625 29.2375 64.76875 28.64375Q65.09688 28.05 65.64375 27.659374Q66.05 27.3625 66.75313 27.159374Q67.47188 26.940624 68.28438 26.940624Q69.50313 26.940624 70.425 27.3Q71.34688 27.64375 71.78438 28.253124Q72.22188 28.846874 72.39375 29.846874L70.675 30.08125Q70.55 29.284374 69.9875 28.846874Q69.425 28.39375 68.40938 28.39375Q67.19063 28.39375 66.675 28.8Q66.15938 29.190624 66.15938 29.721874Q66.15938 30.065624 66.37813 30.346874Q66.58125 30.628124 67.05 30.815624Q67.31563 30.909374 68.59688 31.253124Q70.47188 31.753124 71.20625 32.08125Q71.94063 32.39375 72.3625 33.003124Q72.78438 33.596874 72.78438 34.503124Q72.78438 35.378124 72.26875 36.159374Q71.75313 36.940624 70.78438 37.3625Q69.81563 37.784374 68.59688 37.784374Q66.58125 37.784374 65.51875 36.940624Q64.45625 36.096874 64.15938 34.45625ZM81.97188 34.20625L83.78438 34.440624Q83.3625 36.01875 82.19063 36.909374Q81.03438 37.784374 79.22188 37.784374Q76.95625 37.784374 75.6125 36.39375Q74.28438 34.9875 74.28438 32.45625Q74.28438 29.83125 75.62813 28.39375Q76.97188 26.940624 79.12813 26.940624Q81.20625 26.940624 82.51875 28.3625Q83.84688 29.76875 83.84688 32.346874Q83.84688 32.503124 83.83125 32.815624L76.09688 32.815624Q76.19063 34.51875 77.06563 35.425Q77.94063 36.33125 79.2375 36.33125Q80.20625 36.33125 80.87813 35.83125Q81.56563 35.315624 81.97188 34.20625ZM76.19063 31.3625L81.9875 31.3625Q81.87813 30.065624 81.33125 29.409374Q80.4875 28.39375 79.14375 28.39375Q77.94063 28.39375 77.1125 29.20625Q76.28438 30.003124 76.19063 31.3625ZM85.84688 37.55L85.84688 27.175L87.425 27.175L87.425 28.753124Q88.03438 27.64375 88.55 27.3Q89.06563 26.940624 89.675 26.940624Q90.56563 26.940624 91.4875 27.503124L90.87813 29.14375Q90.2375 28.753124 89.59688 28.753124Q89.01875 28.753124 88.55 29.1125Q88.09688 29.45625 87.89375 30.065624Q87.6125 31.003124 87.6125 32.1125L87.6125 37.55L85.84688 37.55ZM98.8625 37.55L98.8625 27.175L100.44063 27.175L100.44063 28.628124Q100.925 27.878124 101.7375 27.409374Q102.55 26.940624 103.58125 26.940624Q104.7375 26.940624 105.47188 27.425Q106.20625 27.89375 106.51875 28.753124Q107.75313 26.940624 109.72188 26.940624Q111.26875 26.940624 112.09688 27.8Q112.925 28.659374 112.925 30.425L112.925 37.55L111.175 37.55L111.175 31.01875Q111.175 29.95625 111.00313 29.503124Q110.83125 29.034374 110.37813 28.753124Q109.94063 28.471874 109.33125 28.471874Q108.2375 28.471874 107.50313 29.20625Q106.78438 29.925 106.78438 31.51875L106.78438 37.55L105.03438 37.55L105.03438 30.815624Q105.03438 29.64375 104.59688 29.065624Q104.175 28.471874 103.19063 28.471874Q102.45625 28.471874 101.81563 28.8625Q101.19063 29.253124 100.90938 30.003124Q100.62813 30.753124 100.62813 32.175L100.62813 37.55L98.8625 37.55ZM122.64375 36.26875Q121.65938 37.096874 120.75313 37.440624Q119.84688 37.784374 118.81563 37.784374Q117.1125 37.784374 116.19063 36.95625Q115.26875 36.1125 115.26875 34.815624Q115.26875 34.05 115.6125 33.425Q115.97188 32.8 116.53438 32.425Q117.09688 32.034374 117.8 31.83125Q118.31563 31.70625 119.3625 31.565624Q121.4875 31.315624 122.4875 30.971874Q122.50313 30.6125 122.50313 30.503124Q122.50313 29.440624 122.00313 28.9875Q121.33125 28.39375 120.00313 28.39375Q118.75313 28.39375 118.15938 28.83125Q117.58125 29.26875 117.3 30.378124L115.58125 30.14375Q115.81563 29.034374 116.34688 28.3625Q116.87813 27.675 117.89375 27.315624Q118.90938 26.940624 120.25313 26.940624Q121.58125 26.940624 122.40938 27.253124Q123.2375 27.565624 123.62813 28.05Q124.01875 28.51875 124.175 29.2375Q124.26875 29.690624 124.26875 30.8625L124.26875 33.20625Q124.26875 35.659374 124.37813 36.315624Q124.4875 36.95625 124.83125 37.55L122.9875 37.55Q122.72188 37.003124 122.64375 36.26875ZM122.4875 32.346874Q121.53438 32.7375 119.6125 33.003124Q118.53438 33.159374 118.08125 33.3625Q117.64375 33.55 117.39375 33.925Q117.14375 34.3 117.14375 34.76875Q117.14375 35.471874 117.675 35.940624Q118.20625 36.409374 119.2375 36.409374Q120.25313 36.409374 121.03438 35.971874Q121.83125 35.51875 122.20625 34.753124Q122.4875 34.14375 122.4875 32.9875L122.4875 32.346874ZM126.84688 37.55L126.84688 27.175L128.425 27.175L128.425 28.753124Q129.03438 27.64375 129.55 27.3Q130.06563 26.940624 130.675 26.940624Q131.56563 26.940624 132.4875 27.503124L131.87813 29.14375Q131.2375 28.753124 130.59688 28.753124Q130.01875 28.753124 129.55 29.1125Q129.09688 29.45625 128.89375 30.065624Q128.6125 31.003124 128.6125 32.1125L128.6125 37.55L126.84688 37.55ZM133.87813 37.55L133.87813 23.2375L135.64375 23.2375L135.64375 31.39375L139.8 27.175L142.06563 27.175L138.1125 31.01875L142.47188 37.55L140.3 37.55L136.87813 32.253124L135.64375 33.440624L135.64375 37.55L133.87813 37.55ZM150.97188 34.20625L152.78438 34.440624Q152.3625 36.01875 151.19063 36.909374Q150.03438 37.784374 148.22188 37.784374Q145.95625 37.784374 144.6125 36.39375Q143.28438 34.9875 143.28438 32.45625Q143.28438 29.83125 144.62813 28.39375Q145.97188 26.940624 148.12813 26.940624Q150.20625 26.940624 151.51875 28.3625Q152.84688 29.76875 152.84688 32.346874Q152.84688 32.503124 152.83125 32.815624L145.09688 32.815624Q145.19063 34.51875 146.06563 35.425Q146.94063 36.33125 148.2375 36.33125Q149.20625 36.33125 149.87813 35.83125Q150.56563 35.315624 150.97188 34.20625ZM145.19063 31.3625L150.9875 31.3625Q150.87813 30.065624 150.33125 29.409374Q149.4875 28.39375 148.14375 28.39375Q146.94063 28.39375 146.1125 29.20625Q145.28438 30.003124 145.19063 31.3625ZM158.70625 35.971874L158.95625 37.534374Q158.22188 37.690624 157.62813 37.690624Q156.675 37.690624 156.14375 37.39375Q155.62813 37.08125 155.40938 36.596874Q155.19063 36.096874 155.19063 34.51875L155.19063 28.55L153.90938 28.55L153.90938 27.175L155.19063 27.175L155.19063 24.6125L156.94063 23.55L156.94063 27.175L158.70625 27.175L158.70625 28.55L156.94063 28.55L156.94063 34.6125Q156.94063 35.3625 157.03438 35.58125Q157.12813 35.784374 157.33125 35.925Q157.55 36.05 157.94063 36.05Q158.22188 36.05 158.70625 35.971874ZM160.15938 34.45625L161.90938 34.175Q162.05 35.221874 162.72188 35.784374Q163.39375 36.33125 164.59688 36.33125Q165.8 36.33125 166.37813 35.846874Q166.97188 35.346874 166.97188 34.690624Q166.97188 34.096874 166.45625 33.753124Q166.09688 33.51875 164.65938 33.159374Q162.72188 32.659374 161.97188 32.315624Q161.2375 31.95625 160.84688 31.33125Q160.45625 30.690624 160.45625 29.925Q160.45625 29.2375 160.76875 28.64375Q161.09688 28.05 161.64375 27.659374Q162.05 27.3625 162.75313 27.159374Q163.47188 26.940624 164.28438 26.940624Q165.50313 26.940624 166.425 27.3Q167.34688 27.64375 167.78438 28.253124Q168.22188 28.846874 168.39375 29.846874L166.675 30.08125Q166.55 29.284374 165.9875 28.846874Q165.425 28.39375 164.40938 28.39375Q163.19063 28.39375 162.675 28.8Q162.15938 29.190624 162.15938 29.721874Q162.15938 30.065624 162.37813 30.346874Q162.58125 30.628124 163.05 30.815624Q163.31563 30.909374 164.59688 31.253124Q166.47188 31.753124 167.20625 32.08125Q167.94063 32.39375 168.3625 33.003124Q168.78438 33.596874 168.78438 34.503124Q168.78438 35.378124 168.26875 36.159374Q167.75313 36.940624 166.78438 37.3625Q165.81563 37.784374 164.59688 37.784374Q162.58125 37.784374 161.51875 36.940624Q160.45625 36.096874 160.15938 34.45625ZM170.8625 37.55L170.8625 23.2375L172.62813 23.2375L172.62813 28.3625Q173.8625 26.940624 175.7375 26.940624Q176.87813 26.940624 177.72188 27.39375Q178.58125 27.846874 178.94063 28.659374Q179.31563 29.45625 179.31563 30.971874L179.31563 37.55L177.56563 37.55L177.56563 30.971874Q177.56563 29.659374 176.9875 29.065624Q176.40938 28.45625 175.37813 28.45625Q174.59688 28.45625 173.89375 28.8625Q173.20625 29.26875 172.90938 29.971874Q172.62813 30.659374 172.62813 31.878124L172.62813 37.55L170.8625 37.55ZM188.64375 36.26875Q187.65938 37.096874 186.75313 37.440624Q185.84688 37.784374 184.81563 37.784374Q183.1125 37.784374 182.19063 36.95625Q181.26875 36.1125 181.26875 34.815624Q181.26875 34.05 181.6125 33.425Q181.97188 32.8 182.53438 32.425Q183.09688 32.034374 183.8 31.83125Q184.31563 31.70625 185.3625 31.565624Q187.4875 31.315624 188.4875 30.971874Q188.50313 30.6125 188.50313 30.503124Q188.50313 29.440624 188.00313 28.9875Q187.33125 28.39375 186.00313 28.39375Q184.75313 28.39375 184.15938 28.83125Q183.58125 29.26875 183.3 30.378124L181.58125 30.14375Q181.81563 29.034374 182.34688 28.3625Q182.87813 27.675 183.89375 27.315624Q184.90938 26.940624 186.25313 26.940624Q187.58125 26.940624 188.40938 27.253124Q189.2375 27.565624 189.62813 28.05Q190.01875 28.51875 190.175 29.2375Q190.26875 29.690624 190.26875 30.8625L190.26875 33.20625Q190.26875 35.659374 190.37813 36.315624Q190.4875 36.95625 190.83125 37.55L188.9875 37.55Q188.72188 37.003124 188.64375 36.26875ZM188.4875 32.346874Q187.53438 32.7375 185.6125 33.003124Q184.53438 33.159374 184.08125 33.3625Q183.64375 33.55 183.39375 33.925Q183.14375 34.3 183.14375 34.76875Q183.14375 35.471874 183.675 35.940624Q184.20625 36.409374 185.2375 36.409374Q186.25313 36.409374 187.03438 35.971874Q187.83125 35.51875 188.20625 34.753124Q188.4875 34.14375 188.4875 32.9875L188.4875 32.346874ZM192.84688 37.55L192.84688 27.175L194.425 27.175L194.425 28.753124Q195.03438 27.64375 195.55 27.3Q196.06563 26.940624 196.675 26.940624Q197.56563 26.940624 198.4875 27.503124L197.87813 29.14375Q197.2375 28.753124 196.59688 28.753124Q196.01875 28.753124 195.55 29.1125Q195.09688 29.45625 194.89375 30.065624Q194.6125 31.003124 194.6125 32.1125L194.6125 37.55L192.84688 37.55ZM206.97188 34.20625L208.78438 34.440624Q208.3625 36.01875 207.19063 36.909374Q206.03438 37.784374 204.22188 37.784374Q201.95625 37.784374 200.6125 36.39375Q199.28438 34.9875 199.28438 32.45625Q199.28438 29.83125 200.62813 28.39375Q201.97188 26.940624 204.12813 26.940624Q206.20625 26.940624 207.51875 28.3625Q208.84688 29.76875 208.84688 32.346874Q208.84688 32.503124 208.83125 32.815624L201.09688 32.815624Q201.19063 34.51875 202.06563 35.425Q202.94063 36.33125 204.2375 36.33125Q205.20625 36.33125 205.87813 35.83125Q206.56563 35.315624 206.97188 34.20625ZM201.19063 31.3625L206.9875 31.3625Q206.87813 30.065624 206.33125 29.409374Q205.4875 28.39375 204.14375 28.39375Q202.94063 28.39375 202.1125 29.20625Q201.28438 30.003124 201.19063 31.3625ZM216.22188 32.3625Q216.22188 29.4875 217.81563 28.096874Q219.15938 26.940624 221.08125 26.940624Q223.22188 26.940624 224.56563 28.346874Q225.925 29.753124 225.925 32.221874Q225.925 34.221874 225.33125 35.378124Q224.7375 36.51875 223.58125 37.159374Q222.44063 37.784374 221.08125 37.784374Q218.89375 37.784374 217.55 36.39375Q216.22188 34.9875 216.22188 32.3625ZM218.01875 32.3625Q218.01875 34.3625 218.87813 35.346874Q219.75313 36.33125 221.08125 36.33125Q222.39375 36.33125 223.25313 35.346874Q224.12813 34.346874 224.12813 32.3Q224.12813 30.378124 223.25313 29.39375Q222.37813 28.39375 221.08125 28.39375Q219.75313 28.39375 218.87813 29.39375Q218.01875 30.378124 218.01875 32.3625ZM227.8625 37.55L227.8625 27.175L229.45625 27.175L229.45625 28.659374Q230.59688 26.940624 232.75313 26.940624Q233.69063 26.940624 234.47188 27.284374Q235.26875 27.6125 235.65938 28.159374Q236.05 28.70625 236.20625 29.45625Q236.3 29.95625 236.3 31.175L236.3 37.55L234.53438 37.55L234.53438 31.2375Q234.53438 30.159374 234.33125 29.628124Q234.12813 29.096874 233.59688 28.784374Q233.08125 28.471874 232.37813 28.471874Q231.25313 28.471874 230.44063 29.190624Q229.62813 29.89375 229.62813 31.878124L229.62813 37.55L227.8625 37.55ZM244.45625 32.95625L246.2375 32.8Q246.3625 33.8625 246.81563 34.55Q247.28438 35.2375 248.25313 35.675Q249.2375 36.096874 250.47188 36.096874Q251.55 36.096874 252.37813 35.784374Q253.20625 35.45625 253.6125 34.89375Q254.01875 34.33125 254.01875 33.659374Q254.01875 32.9875 253.62813 32.4875Q253.2375 31.9875 252.34688 31.64375Q251.76875 31.409374 249.78438 30.940624Q247.81563 30.471874 247.03438 30.05Q246.00313 29.51875 245.50313 28.721874Q245.00313 27.925 245.00313 26.940624Q245.00313 25.846874 245.6125 24.909374Q246.22188 23.971874 247.40938 23.4875Q248.59688 22.9875 250.03438 22.9875Q251.62813 22.9875 252.84688 23.503124Q254.06563 24.01875 254.70625 25.01875Q255.3625 26.003124 255.40938 27.26875L253.59688 27.409374Q253.45625 26.05 252.6125 25.3625Q251.76875 24.659374 250.1125 24.659374Q248.39375 24.659374 247.59688 25.3Q246.81563 25.925 246.81563 26.8Q246.81563 27.58125 247.37813 28.08125Q247.925 28.58125 250.2375 29.096874Q252.55 29.6125 253.40938 30.003124Q254.65938 30.58125 255.25313 31.471874Q255.84688 32.346874 255.84688 33.503124Q255.84688 34.64375 255.19063 35.659374Q254.53438 36.675 253.3 37.2375Q252.08125 37.8 250.55 37.8Q248.6125 37.8 247.3 37.2375Q245.9875 36.659374 245.2375 35.51875Q244.4875 34.378124 244.45625 32.95625ZM264.64374 36.26875Q263.65936 37.096874 262.7531 37.440624Q261.84686 37.784374 260.8156 37.784374Q259.1125 37.784374 258.1906 36.95625Q257.26874 36.1125 257.26874 34.815624Q257.26874 34.05 257.6125 33.425Q257.97186 32.8 258.53436 32.425Q259.09686 32.034374 259.8 31.83125Q260.3156 31.70625 261.3625 31.565624Q263.4875 31.315624 264.4875 30.971874Q264.5031 30.6125 264.5031 30.503124Q264.5031 29.440624 264.0031 28.9875Q263.33124 28.39375 262.0031 28.39375Q260.7531 28.39375 260.15936 28.83125Q259.58124 29.26875 259.3 30.378124L257.58124 30.14375Q257.8156 29.034374 258.34686 28.3625Q258.8781 27.675 259.89374 27.315624Q260.90936 26.940624 262.2531 26.940624Q263.58124 26.940624 264.40936 27.253124Q265.2375 27.565624 265.6281 28.05Q266.01874 28.51875 266.175 29.2375Q266.26874 29.690624 266.26874 30.8625L266.26874 33.20625Q266.26874 35.659374 266.3781 36.315624Q266.4875 36.95625 266.83124 37.55L264.9875 37.55Q264.72186 37.003124 264.64374 36.26875ZM264.4875 32.346874Q263.53436 32.7375 261.6125 33.003124Q260.53436 33.159374 260.08124 33.3625Q259.64374 33.55 259.39374 33.925Q259.14374 34.3 259.14374 34.76875Q259.14374 35.471874 259.675 35.940624Q260.20624 36.409374 261.2375 36.409374Q262.2531 36.409374 263.03436 35.971874Q263.83124 35.51875 264.20624 34.753124Q264.4875 34.14375 264.4875 32.9875L264.4875 32.346874ZM271.7531 37.55L267.8 27.175L269.65936 27.175L271.89374 33.39375Q272.2531 34.39375 272.55 35.471874Q272.78436 34.659374 273.20624 33.503124L275.5031 27.175L277.3156 27.175L273.39374 37.55L271.7531 37.55ZM278.8625 25.26875L278.8625 23.2375L280.6125 23.2375L280.6125 25.26875L278.8625 25.26875ZM276.6281 41.58125L276.95624 40.08125Q277.4875 40.221874 277.8 40.221874Q278.33124 40.221874 278.59686 39.8625Q278.8625 39.503124 278.8625 38.08125L278.8625 27.175L280.6125 27.175L280.6125 38.1125Q280.6125 40.034374 280.1125 40.784374Q279.4875 41.753124 278.0031 41.753124Q277.3 41.753124 276.6281 41.58125ZM289.97186 34.20625L291.78436 34.440624Q291.3625 36.01875 290.1906 36.909374Q289.03436 37.784374 287.22186 37.784374Q284.95624 37.784374 283.6125 36.39375Q282.28436 34.9875 282.28436 32.45625Q282.28436 29.83125 283.6281 28.39375Q284.97186 26.940624 287.1281 26.940624Q289.20624 26.940624 290.51874 28.3625Q291.84686 29.76875 291.84686 32.346874Q291.84686 32.503124 291.83124 32.815624L284.09686 32.815624Q284.1906 34.51875 285.0656 35.425Q285.9406 36.33125 287.2375 36.33125Q288.20624 36.33125 288.8781 35.83125Q289.5656 35.315624 289.97186 34.20625ZM284.1906 31.3625L289.9875 31.3625Q289.8781 30.065624 289.33124 29.409374Q288.4875 28.39375 287.14374 28.39375Q285.9406 28.39375 285.1125 29.20625Q284.28436 30.003124 284.1906 31.3625ZM300.97186 34.20625L302.78436 34.440624Q302.3625 36.01875 301.1906 36.909374Q300.03436 37.784374 298.22186 37.784374Q295.95624 37.784374 294.6125 36.39375Q293.28436 34.9875 293.28436 32.45625Q293.28436 29.83125 294.6281 28.39375Q295.97186 26.940624 298.1281 26.940624Q300.20624 26.940624 301.51874 28.3625Q302.84686 29.76875 302.84686 32.346874Q302.84686 32.503124 302.83124 32.815624L295.09686 32.815624Q295.1906 34.51875 296.0656 35.425Q296.9406 36.33125 298.2375 36.33125Q299.20624 36.33125 299.8781 35.83125Q300.5656 35.315624 300.97186 34.20625ZM295.1906 31.3625L300.9875 31.3625Q300.8781 30.065624 300.33124 29.409374Q299.4875 28.39375 298.14374 28.39375Q296.9406 28.39375 296.1125 29.20625Q295.28436 30.003124 295.1906 31.3625ZM305.3625 37.55L305.3625 35.55L307.3625 35.55L307.3625 37.55L305.3625 37.55ZM312.4875 37.55L310.8625 37.55L310.8625 23.2375L312.6125 23.2375L312.6125 28.346874Q313.7375 26.940624 315.45624 26.940624Q316.40936 26.940624 317.26874 27.33125Q318.1281 27.721874 318.675 28.425Q319.22186 29.1125 319.53436 30.096874Q319.84686 31.08125 319.84686 32.20625Q319.84686 34.878124 318.53436 36.33125Q317.22186 37.784374 315.3781 37.784374Q313.53436 37.784374 312.4875 36.253124L312.4875 37.55ZM312.47186 32.284374Q312.47186 34.14375 312.97186 34.9875Q313.8156 36.33125 315.22186 36.33125Q316.3781 36.33125 317.20624 35.33125Q318.05 34.33125 318.05 32.346874Q318.05 30.315624 317.2375 29.3625Q316.4406 28.39375 315.3 28.39375Q314.14374 28.39375 313.3 29.39375Q312.47186 30.39375 312.47186 32.284374ZM328.97186 34.20625L330.78436 34.440624Q330.3625 36.01875 329.1906 36.909374Q328.03436 37.784374 326.22186 37.784374Q323.95624 37.784374 322.6125 36.39375Q321.28436 34.9875 321.28436 32.45625Q321.28436 29.83125 322.6281 28.39375Q323.97186 26.940624 326.1281 26.940624Q328.20624 26.940624 329.51874 28.3625Q330.84686 29.76875 330.84686 32.346874Q330.84686 32.503124 330.83124 32.815624L323.09686 32.815624Q323.1906 34.51875 324.0656 35.425Q324.9406 36.33125 326.2375 36.33125Q327.20624 36.33125 327.8781 35.83125Q328.5656 35.315624 328.97186 34.20625ZM323.1906 31.3625L328.9875 31.3625Q328.8781 30.065624 328.33124 29.409374Q327.4875 28.39375 326.14374 28.39375Q324.9406 28.39375 324.1125 29.20625Q323.28436 30.003124 323.1906 31.3625ZM342.22186 41.753124Q340.76874 39.925 339.76874 37.471874Q338.76874 35.003124 338.76874 32.3625Q338.76874 30.034374 339.51874 27.909374Q340.39374 25.440624 342.22186 22.9875L343.4875 22.9875Q342.3 25.01875 341.925 25.89375Q341.33124 27.2375 340.9875 28.70625Q340.5656 30.534374 340.5656 32.378124Q340.5656 37.065624 343.4875 41.753124L342.22186 41.753124ZM352.8 31.940624L352.8 30.253124L358.8625 30.2375L358.8625 35.55Q357.45624 36.675 355.97186 37.2375Q354.4875 37.8 352.925 37.8Q350.8156 37.8 349.09686 36.89375Q347.3781 35.9875 346.4875 34.284374Q345.6125 32.565624 345.6125 30.45625Q345.6125 28.3625 346.4875 26.565624Q347.3625 24.753124 349.0031 23.878124Q350.64374 22.9875 352.78436 22.9875Q354.33124 22.9875 355.58124 23.4875Q356.84686 23.9875 357.55 24.89375Q358.26874 25.784374 358.64374 27.2375L356.9406 27.70625Q356.6125 26.6125 356.1281 25.9875Q355.65936 25.3625 354.76874 24.9875Q353.8781 24.6125 352.8 24.6125Q351.4875 24.6125 350.53436 25.003124Q349.59686 25.39375 349.01874 26.05Q348.4406 26.690624 348.1125 27.45625Q347.5656 28.784374 347.5656 30.346874Q347.5656 32.253124 348.22186 33.55Q348.89374 34.83125 350.14374 35.45625Q351.40936 36.08125 352.8156 36.08125Q354.05 36.08125 355.22186 35.6125Q356.39374 35.14375 357.0031 34.596874L357.0031 31.940624L352.8 31.940624ZM361.22186 32.3625Q361.22186 29.4875 362.8156 28.096874Q364.15936 26.940624 366.08124 26.940624Q368.22186 26.940624 369.5656 28.346874Q370.925 29.753124 370.925 32.221874Q370.925 34.221874 370.33124 35.378124Q369.7375 36.51875 368.58124 37.159374Q367.4406 37.784374 366.08124 37.784374Q363.89374 37.784374 362.55 36.39375Q361.22186 34.9875 361.22186 32.3625ZM363.01874 32.3625Q363.01874 34.3625 363.8781 35.346874Q364.7531 36.33125 366.08124 36.33125Q367.39374 36.33125 368.2531 35.346874Q369.1281 34.346874 369.1281 32.3Q369.1281 30.378124 368.2531 29.39375Q367.3781 28.39375 366.08124 28.39375Q364.7531 28.39375 363.8781 29.39375Q363.01874 30.378124 363.01874 32.3625ZM372.22186 32.3625Q372.22186 29.4875 373.8156 28.096874Q375.15936 26.940624 377.08124 26.940624Q379.22186 26.940624 380.5656 28.346874Q381.925 29.753124 381.925 32.221874Q381.925 34.221874 381.33124 35.378124Q380.7375 36.51875 379.58124 37.159374Q378.4406 37.784374 377.08124 37.784374Q374.89374 37.784374 373.55 36.39375Q372.22186 34.9875 372.22186 32.3625ZM374.01874 32.3625Q374.01874 34.3625 374.8781 35.346874Q375.7531 36.33125 377.08124 36.33125Q378.39374 36.33125 379.2531 35.346874Q380.1281 34.346874 380.1281 32.3Q380.1281 30.378124 379.2531 29.39375Q378.3781 28.39375 377.08124 28.39375Q375.7531 28.39375 374.8781 29.39375Q374.01874 30.378124 374.01874 32.3625ZM383.55 38.409374L385.2531 38.659374Q385.3625 39.45625 385.84686 39.815624Q386.5031 40.3 387.64374 40.3Q388.8625 40.3 389.51874 39.815624Q390.1906 39.33125 390.425 38.45625Q390.5656 37.909374 390.55 36.190624Q389.39374 37.55 387.675 37.55Q385.53436 37.55 384.3625 36.003124Q383.1906 34.45625 383.1906 32.3Q383.1906 30.815624 383.72186 29.565624Q384.26874 28.315624 385.28436 27.628124Q386.3156 26.940624 387.6906 26.940624Q389.51874 26.940624 390.72186 28.425L390.72186 27.175L392.33124 27.175L392.33124 36.14375Q392.33124 38.565624 391.83124 39.565624Q391.34686 40.58125 390.26874 41.159374Q389.20624 41.753124 387.64374 41.753124Q385.8 41.753124 384.64374 40.925Q383.5031 40.096874 383.55 38.409374ZM385.0031 32.175Q385.0031 34.221874 385.8156 35.159374Q386.6281 36.096874 387.84686 36.096874Q389.05 36.096874 389.8625 35.159374Q390.6906 34.221874 390.6906 32.2375Q390.6906 30.33125 389.84686 29.3625Q389.0031 28.39375 387.8156 28.39375Q386.64374 28.39375 385.8156 29.346874Q385.0031 30.3 385.0031 32.175ZM394.83124 37.55L394.83124 23.2375L396.58124 23.2375L396.58124 37.55L394.83124 37.55ZM405.97186 34.20625L407.78436 34.440624Q407.3625 36.01875 406.1906 36.909374Q405.03436 37.784374 403.22186 37.784374Q400.95624 37.784374 399.6125 36.39375Q398.28436 34.9875 398.28436 32.45625Q398.28436 29.83125 399.6281 28.39375Q400.97186 26.940624 403.1281 26.940624Q405.20624 26.940624 406.51874 28.3625Q407.84686 29.76875 407.84686 32.346874Q407.84686 32.503124 407.83124 32.815624L400.09686 32.815624Q400.1906 34.51875 401.0656 35.425Q401.9406 36.33125 403.2375 36.33125Q404.20624 36.33125 404.8781 35.83125Q405.5656 35.315624 405.97186 34.20625ZM400.1906 31.3625L405.9875 31.3625Q405.8781 30.065624 405.33124 29.409374Q404.4875 28.39375 403.14374 28.39375Q401.9406 28.39375 401.1125 29.20625Q400.28436 30.003124 400.1906 31.3625ZM414.51874 37.55L420.01874 23.2375L422.0656 23.2375L427.925 37.55L425.76874 37.55L424.09686 33.20625L418.1125 33.20625L416.53436 37.55L414.51874 37.55ZM418.65936 31.675L423.5031 31.675L422.01874 27.70625Q421.33124 25.89375 421.0031 24.7375Q420.72186 26.1125 420.22186 27.471874L418.65936 31.675ZM428.8625 37.55L428.8625 27.175L430.45624 27.175L430.45624 28.659374Q431.59686 26.940624 433.7531 26.940624Q434.6906 26.940624 435.47186 27.284374Q436.26874 27.6125 436.65936 28.159374Q437.05 28.70625 437.20624 29.45625Q437.3 29.95625 437.3 31.175L437.3 37.55L435.53436 37.55L435.53436 31.2375Q435.53436 30.159374 435.33124 29.628124Q435.1281 29.096874 434.59686 28.784374Q434.08124 28.471874 433.3781 28.471874Q432.2531 28.471874 431.4406 29.190624Q430.6281 29.89375 430.6281 31.878124L430.6281 37.55L428.8625 37.55ZM446.64374 36.26875Q445.65936 37.096874 444.7531 37.440624Q443.84686 37.784374 442.8156 37.784374Q441.1125 37.784374 440.1906 36.95625Q439.26874 36.1125 439.26874 34.815624Q439.26874 34.05 439.6125 33.425Q439.97186 32.8 440.53436 32.425Q441.09686 32.034374 441.8 31.83125Q442.3156 31.70625 443.3625 31.565624Q445.4875 31.315624 446.4875 30.971874Q446.5031 30.6125 446.5031 30.503124Q446.5031 29.440624 446.0031 28.9875Q445.33124 28.39375 444.0031 28.39375Q442.7531 28.39375 442.15936 28.83125Q441.58124 29.26875 441.3 30.378124L439.58124 30.14375Q439.8156 29.034374 440.34686 28.3625Q440.8781 27.675 441.89374 27.315624Q442.90936 26.940624 444.2531 26.940624Q445.58124 26.940624 446.40936 27.253124Q447.2375 27.565624 447.6281 28.05Q448.01874 28.51875 448.175 29.2375Q448.26874 29.690624 448.26874 30.8625L448.26874 33.20625Q448.26874 35.659374 448.3781 36.315624Q448.4875 36.95625 448.83124 37.55L446.9875 37.55Q446.72186 37.003124 446.64374 36.26875ZM446.4875 32.346874Q445.53436 32.7375 443.6125 33.003124Q442.53436 33.159374 442.08124 33.3625Q441.64374 33.55 441.39374 33.925Q441.14374 34.3 441.14374 34.76875Q441.14374 35.471874 441.675 35.940624Q442.20624 36.409374 443.2375 36.409374Q444.2531 36.409374 445.03436 35.971874Q445.83124 35.51875 446.20624 34.753124Q446.4875 34.14375 446.4875 32.9875L446.4875 32.346874ZM450.83124 37.55L450.83124 23.2375L452.58124 23.2375L452.58124 37.55L450.83124 37.55ZM454.78436 41.55L454.59686 39.89375Q455.175 40.05 455.59686 40.05Q456.1906 40.05 456.53436 39.846874Q456.89374 39.659374 457.1125 39.315624Q457.28436 39.05 457.65936 38.003124Q457.70624 37.846874 457.8156 37.565624L453.8781 27.175L455.76874 27.175L457.925 33.190624Q458.34686 34.33125 458.675 35.58125Q458.9875 34.378124 459.39374 33.221874L461.6125 27.175L463.3781 27.175L459.425 37.721874Q458.8 39.440624 458.4406 40.08125Q457.97186 40.95625 457.3625 41.346874Q456.76874 41.753124 455.925 41.753124Q455.40936 41.753124 454.78436 41.55ZM468.70624 35.971874L468.95624 37.534374Q468.22186 37.690624 467.6281 37.690624Q466.675 37.690624 466.14374 37.39375Q465.6281 37.08125 465.40936 36.596874Q465.1906 36.096874 465.1906 34.51875L465.1906 28.55L463.90936 28.55L463.90936 27.175L465.1906 27.175L465.1906 24.6125L466.9406 23.55L466.9406 27.175L468.70624 27.175L468.70624 28.55L466.9406 28.55L466.9406 34.6125Q466.9406 35.3625 467.03436 35.58125Q467.1281 35.784374 467.33124 35.925Q467.55 36.05 467.9406 36.05Q468.22186 36.05 468.70624 35.971874ZM470.8781 25.253124L470.8781 23.2375L472.64374 23.2375L472.64374 25.253124L470.8781 25.253124ZM470.8781 37.55L470.8781 27.175L472.64374 27.175L472.64374 37.55L470.8781 37.55ZM481.64374 33.753124L483.3625 33.971874Q483.08124 35.76875 481.90936 36.784374Q480.7531 37.784374 479.05 37.784374Q476.925 37.784374 475.6281 36.39375Q474.33124 35.003124 474.33124 32.409374Q474.33124 30.721874 474.8781 29.471874Q475.4406 28.20625 476.58124 27.58125Q477.72186 26.940624 479.0656 26.940624Q480.7531 26.940624 481.8156 27.8Q482.89374 28.659374 483.20624 30.221874L481.4875 30.4875Q481.2531 29.440624 480.6281 28.925Q480.0031 28.39375 479.1281 28.39375Q477.8 28.39375 476.97186 29.346874Q476.14374 30.3 476.14374 32.346874Q476.14374 34.440624 476.9406 35.39375Q477.7375 36.33125 479.03436 36.33125Q480.0656 36.33125 480.7531 35.70625Q481.45624 35.065624 481.64374 33.753124ZM484.15936 34.45625L485.90936 34.175Q486.05 35.221874 486.72186 35.784374Q487.39374 36.33125 488.59686 36.33125Q489.8 36.33125 490.3781 35.846874Q490.97186 35.346874 490.97186 34.690624Q490.97186 34.096874 490.45624 33.753124Q490.09686 33.51875 488.65936 33.159374Q486.72186 32.659374 485.97186 32.315624Q485.2375 31.95625 484.84686 31.33125Q484.45624 30.690624 484.45624 29.925Q484.45624 29.2375 484.76874 28.64375Q485.09686 28.05 485.64374 27.659374Q486.05 27.3625 486.7531 27.159374Q487.47186 26.940624 488.28436 26.940624Q489.5031 26.940624 490.425 27.3Q491.34686 27.64375 491.78436 28.253124Q492.22186 28.846874 492.39374 29.846874L490.675 30.08125Q490.55 29.284374 489.9875 28.846874Q489.425 28.39375 488.40936 28.39375Q487.1906 28.39375 486.675 28.8Q486.15936 29.190624 486.15936 29.721874Q486.15936 30.065624 486.3781 30.346874Q486.58124 30.628124 487.05 30.815624Q487.3156 30.909374 488.59686 31.253124Q490.47186 31.753124 491.20624 32.08125Q491.9406 32.39375 492.3625 33.003124Q492.78436 33.596874 492.78436 34.503124Q492.78436 35.378124 492.26874 36.159374Q491.7531 36.940624 490.78436 37.3625Q489.8156 37.784374 488.59686 37.784374Q486.58124 37.784374 485.51874 36.940624Q484.45624 36.096874 484.15936 34.45625ZM496.01874 41.753124L494.76874 41.753124Q497.675 37.065624 497.675 32.378124Q497.675 30.534374 497.26874 28.7375Q496.925 27.26875 496.33124 25.925Q495.95624 25.034374 494.76874 22.9875L496.01874 22.9875Q497.8625 25.440624 498.7375 27.909374Q499.4875 30.034374 499.4875 32.3625Q499.4875 35.003124 498.47186 37.471874Q497.47186 39.925 496.01874 41.753124Z" fill-rule="nonzero"/></svg>