<svg version="1.1" viewBox="0.0 0.0 600.0 371.0" fill="none" stroke="none" stroke-linecap="square" stroke-miterlimit="10" width="600" height="371" xmlns:xlink="http://www.w3.org/1999/xlink" xmlns="http://www.w3.org/2000/svg"><path fill="#ffffff" d="M0 0L600.0 0L600.0 371.0L0 371.0L0 0Z" fill-rule="nonzero"/><path fill="#7baaf7" d="M295.13434 54.996258C296.75568 54.9432 298.37778 54.916668 300.0 54.916668L300.0 203.68333Z" fill-rule="nonzero"/><path fill="#46bdc6" d="M288.8327 55.3364C290.9306 55.178474 293.03162 55.065067 295.13434 54.996258L300.0 203.68333Z" fill-rule="nonzero"/><path fill="#ff6d01" d="M281.11722 56.119915C283.68182 55.791744 286.25452 55.530483 288.8327 55.3364L300.0 203.68333Z" fill-rule="nonzero"/><path fill="#34a853" d="M269.24985 58.129395C273.1769 57.29975 277.13596 56.629375 281.11722 56.119915L300.0 203.68333Z" fill-rule="nonzero"/><path fill="#fbbc04" d="M174.73938 123.42563C196.23006 89.88448 230.27475 66.36339 269.24985 58.129395L300.0 203.68333Z" fill-rule="nonzero"/><path fill="#ea4335" d="M173.91205 282.6349C143.37746 233.87025 143.69965 171.87029 174.73938 123.42563L300.0 203.68333Z" fill-rule="nonzero"/><path fill="#4285f4" d="M300.0 54.916668C371.52542 54.916668 432.92676 105.81669 446.18753 176.10208C459.4483 246.38748 420.8145 316.16116 354.20618 342.2229C287.5978 368.28464 211.87111 343.25662 173.91205 282.6349L300.0 203.68333Z" fill-rule="nonzero"/><path fill="#1a1a1a" d="M19.128124 61.729164Q19.128124 59.58854 20.26875 58.385414Q21.425 57.166664 23.2375 57.166664Q24.440624 57.166664 25.39375 57.74479Q26.346874 58.30729 26.846874 59.322914Q27.346874 60.33854 27.346874 61.635414Q27.346874 62.93229 26.815624 63.96354Q26.284374 64.99479 25.315624 65.52604Q24.3625 66.05729 23.2375 66.05729Q22.01875 66.05729 21.065624 65.479164Q20.1125 64.885414 19.6125 63.885414Q19.128124 62.86979 19.128124 61.729164ZM20.3 61.74479Q20.3 63.30729 21.128124 64.197914Q21.971874 65.08854 23.2375 65.08854Q24.51875 65.08854 25.346874 64.197914Q26.175 63.291664 26.175 61.61979Q26.175 60.572914 25.815624 59.791664Q25.471874 59.010414 24.784374 58.58854Q24.096874 58.15104 23.253124 58.15104Q22.05 58.15104 21.175 58.979164Q20.3 59.80729 20.3 61.74479ZM28.346874 68.30729L28.346874 59.697914L29.3 59.697914L29.3 60.49479Q29.64375 60.02604 30.065624 59.791664Q30.503124 59.55729 31.1125 59.55729Q31.909374 59.55729 32.51875 59.96354Q33.128124 60.36979 33.425 61.11979Q33.7375 61.86979 33.7375 62.760414Q33.7375 63.71354 33.39375 64.479164Q33.065624 65.24479 32.409374 65.65104Q31.753124 66.05729 31.034374 66.05729Q30.503124 66.05729 30.08125 65.83854Q29.659374 65.604164 29.39375 65.27604L29.39375 68.30729L28.346874 68.30729ZM29.3 62.83854Q29.3 64.041664 29.784374 64.61979Q30.26875 65.18229 30.95625 65.18229Q31.659374 65.18229 32.159374 64.58854Q32.659374 63.99479 32.659374 62.74479Q32.659374 61.55729 32.175 60.979164Q31.690624 60.385414 31.003124 60.385414Q30.33125 60.385414 29.815624 61.010414Q29.3 61.635414 29.3 62.83854ZM39.596874 63.916664L40.690624 64.041664Q40.440624 64.99479 39.7375 65.52604Q39.034374 66.05729 37.95625 66.05729Q36.596874 66.05729 35.784374 65.21354Q34.9875 64.36979 34.9875 62.854164Q34.9875 61.291664 35.8 60.43229Q36.6125 59.55729 37.89375 59.55729Q39.14375 59.55729 39.925 60.40104Q40.721874 61.24479 40.721874 62.791664Q40.721874 62.885414 40.721874 63.072914L36.08125 63.072914Q36.14375 64.104164 36.659374 64.65104Q37.175 65.18229 37.95625 65.18229Q38.534374 65.18229 38.940624 64.885414Q39.3625 64.572914 39.596874 63.916664ZM36.14375 62.21354L39.6125 62.21354Q39.55 61.416664 39.221874 61.02604Q38.70625 60.416664 37.909374 60.416664Q37.175 60.416664 36.675 60.90104Q36.190624 61.385414 36.14375 62.21354ZM42.33125 65.916664L42.33125 59.697914L43.284374 59.697914L43.284374 60.635414Q43.64375 59.979164 43.940624 59.77604Q44.253124 59.55729 44.628124 59.55729Q45.159374 59.55729 45.70625 59.885414L45.346874 60.86979Q44.95625 60.635414 44.58125 60.635414Q44.221874 60.635414 43.940624 60.854164Q43.675 61.05729 43.565624 61.43229Q43.378124 61.99479 43.378124 62.65104L43.378124 65.916664L42.33125 65.916664ZM50.409374 65.15104Q49.815624 65.65104 49.26875 65.854164Q48.7375 66.05729 48.1125 66.05729Q47.08125 66.05729 46.534374 65.55729Q45.9875 65.05729 45.9875 64.27604Q45.9875 63.822914 46.190624 63.447914Q46.39375 63.05729 46.7375 62.83854Q47.08125 62.604164 47.503124 62.49479Q47.8 62.40104 48.440624 62.322914Q49.70625 62.18229 50.315624 61.96354Q50.315624 61.74479 50.315624 61.697914Q50.315624 61.041664 50.01875 60.77604Q49.6125 60.43229 48.815624 60.43229Q48.08125 60.43229 47.721874 60.697914Q47.3625 60.947914 47.190624 61.604164L46.159374 61.46354Q46.3 60.80729 46.628124 60.40104Q46.95625 59.99479 47.565624 59.77604Q48.175 59.55729 48.971874 59.55729Q49.76875 59.55729 50.26875 59.74479Q50.76875 59.93229 51.003124 60.21354Q51.2375 60.49479 51.33125 60.93229Q51.378124 61.197914 51.378124 61.90104L51.378124 63.30729Q51.378124 64.77604 51.440624 65.166664Q51.51875 65.55729 51.721874 65.916664L50.6125 65.916664Q50.45625 65.58854 50.409374 65.15104ZM50.315624 62.791664Q49.7375 63.02604 48.596874 63.197914Q47.940624 63.291664 47.675 63.416664Q47.409374 63.52604 47.253124 63.74479Q47.1125 63.96354 47.1125 64.24479Q47.1125 64.666664 47.425 64.947914Q47.753124 65.229164 48.3625 65.229164Q48.971874 65.229164 49.440624 64.96354Q49.925 64.697914 50.14375 64.229164Q50.315624 63.86979 50.315624 63.18229L50.315624 62.791664Z" fill-rule="nonzero"/><path fill="#9e9e9e" d="M23.01875 82.916664L21.971874 82.916664L21.971874 76.197914Q21.58125 76.55729 20.95625 76.93229Q20.346874 77.291664 19.8625 77.46354L19.8625 76.447914Q20.7375 76.02604 21.39375 75.447914Q22.065624 74.854164 22.346874 74.291664L23.01875 74.291664L23.01875 82.916664ZM26.64375 82.916664L26.64375 81.71354L27.846874 81.71354L27.846874 82.916664L26.64375 82.916664ZM29.05 80.65104L30.1125 80.510414Q30.284374 81.40104 30.721874 81.80729Q31.159374 82.197914 31.784374 82.197914Q32.534374 82.197914 33.05 81.68229Q33.565624 81.166664 33.565624 80.40104Q33.565624 79.68229 33.08125 79.21354Q32.6125 78.729164 31.878124 78.729164Q31.58125 78.729164 31.128124 78.854164L31.253124 77.916664Q31.3625 77.93229 31.425 77.93229Q32.096874 77.93229 32.628124 77.58854Q33.175 77.229164 33.175 76.49479Q33.175 75.916664 32.784374 75.541664Q32.39375 75.15104 31.76875 75.15104Q31.159374 75.15104 30.7375 75.541664Q30.33125 75.93229 30.221874 76.697914L29.159374 76.510414Q29.346874 75.46354 30.034374 74.885414Q30.721874 74.291664 31.7375 74.291664Q32.440624 74.291664 33.034374 74.604164Q33.628124 74.90104 33.940624 75.416664Q34.253124 75.93229 34.253124 76.52604Q34.253124 77.072914 33.95625 77.541664Q33.659374 77.99479 33.08125 78.260414Q33.83125 78.43229 34.253124 78.99479Q34.675 79.541664 34.675 80.385414Q34.675 81.510414 33.846874 82.291664Q33.034374 83.072914 31.784374 83.072914Q30.659374 83.072914 29.909374 82.40104Q29.159374 81.71354 29.05 80.65104ZM36.253124 76.385414Q36.253124 75.46354 36.70625 74.822914Q37.175 74.18229 38.05 74.18229Q38.8625 74.18229 39.39375 74.760414Q39.925 75.33854 39.925 76.447914Q39.925 77.541664 39.378124 78.135414Q38.846874 78.71354 38.065624 78.71354Q37.284374 78.71354 36.76875 78.135414Q36.253124 77.55729 36.253124 76.385414ZM38.08125 74.90104Q37.690624 74.90104 37.425 75.24479Q37.175 75.58854 37.175 76.49479Q37.175 77.322914 37.425 77.666664Q37.690624 77.99479 38.08125 77.99479Q38.4875 77.99479 38.7375 77.65104Q39.003124 77.30729 39.003124 76.416664Q39.003124 75.572914 38.7375 75.24479Q38.471874 74.90104 38.08125 74.90104ZM38.08125 83.229164L42.784374 74.18229L43.64375 74.18229L38.95625 83.229164L38.08125 83.229164ZM41.8 80.90104Q41.8 79.979164 42.253124 79.33854Q42.721874 78.697914 43.6125 78.697914Q44.425 78.697914 44.95625 79.27604Q45.4875 79.83854 45.4875 80.96354Q45.4875 82.05729 44.940624 82.65104Q44.409374 83.229164 43.6125 83.229164Q42.846874 83.229164 42.315624 82.65104Q41.8 82.072914 41.8 80.90104ZM43.64375 79.416664Q43.2375 79.416664 42.971874 79.760414Q42.721874 80.104164 42.721874 81.010414Q42.721874 81.822914 42.9875 82.166664Q43.253124 82.510414 43.64375 82.510414Q44.034374 82.510414 44.3 82.166664Q44.565624 81.822914 44.565624 80.916664Q44.565624 80.08854 44.3 79.760414Q44.034374 79.416664 43.64375 79.416664Z" fill-rule="nonzero"/><path stroke="#757575" stroke-width="1.0" stroke-linecap="butt" d="M18.55 70.416664L145.23334 70.416664L276.40506 64.338524" fill-rule="nonzero"/><path fill="#9e9e9e" d="M278.40506 64.338524C278.40506 63.23395 277.5096 62.338524 276.40506 62.338524C275.30048 62.338524 274.40506 63.23395 274.40506 64.338524C274.40506 65.44309 275.30048 66.338524 276.40506 66.338524C277.5096 66.338524 278.40506 65.44309 278.40506 64.338524" fill-rule="nonzero"/><path fill="#1a1a1a" d="M19.534374 96.916664L19.534374 88.322914L25.33125 88.322914L25.33125 89.33854L20.675 89.33854L20.675 91.99479L24.70625 91.99479L24.70625 93.010414L20.675 93.010414L20.675 96.916664L19.534374 96.916664ZM26.346874 89.541664L26.346874 88.322914L27.409374 88.322914L27.409374 89.541664L26.346874 89.541664ZM26.346874 96.916664L26.346874 90.697914L27.409374 90.697914L27.409374 96.916664L26.346874 96.916664ZM29.33125 96.916664L29.33125 90.697914L30.284374 90.697914L30.284374 91.635414Q30.64375 90.979164 30.940624 90.77604Q31.253124 90.55729 31.628124 90.55729Q32.159374 90.55729 32.70625 90.885414L32.346874 91.86979Q31.95625 91.635414 31.58125 91.635414Q31.221874 91.635414 30.940624 91.854164Q30.675 92.05729 30.565624 92.43229Q30.378124 92.99479 30.378124 93.65104L30.378124 96.916664L29.33125 96.916664ZM37.596874 94.916664L38.690624 95.041664Q38.440624 95.99479 37.7375 96.52604Q37.034374 97.05729 35.95625 97.05729Q34.596874 97.05729 33.784374 96.21354Q32.9875 95.36979 32.9875 93.854164Q32.9875 92.291664 33.8 91.43229Q34.6125 90.55729 35.89375 90.55729Q37.14375 90.55729 37.925 91.40104Q38.721874 92.24479 38.721874 93.791664Q38.721874 93.885414 38.721874 94.072914L34.08125 94.072914Q34.14375 95.104164 34.659374 95.65104Q35.175 96.18229 35.95625 96.18229Q36.534374 96.18229 36.940624 95.885414Q37.3625 95.572914 37.596874 94.916664ZM34.14375 93.21354L37.6125 93.21354Q37.55 92.416664 37.221874 92.02604Q36.70625 91.416664 35.909374 91.416664Q35.175 91.416664 34.675 91.90104Q34.190624 92.385414 34.14375 93.21354ZM40.596874 96.916664L40.596874 91.510414L39.659374 91.510414L39.659374 90.697914L40.596874 90.697914L40.596874 90.02604Q40.596874 89.40104 40.70625 89.104164Q40.8625 88.68229 41.2375 88.43229Q41.628124 88.18229 42.315624 88.18229Q42.76875 88.18229 43.3 88.291664L43.14375 89.197914Q42.815624 89.15104 42.51875 89.15104Q42.034374 89.15104 41.83125 89.354164Q41.64375 89.55729 41.64375 90.11979L41.64375 90.697914L42.8625 90.697914L42.8625 91.510414L41.64375 91.510414L41.64375 96.916664L40.596874 96.916664ZM42.95625 93.80729Q42.95625 92.072914 43.909374 91.24479Q44.70625 90.55729 45.8625 90.55729Q47.14375 90.55729 47.95625 91.40104Q48.784374 92.229164 48.784374 93.71354Q48.784374 94.916664 48.425 95.604164Q48.065624 96.291664 47.3625 96.68229Q46.675 97.05729 45.8625 97.05729Q44.565624 97.05729 43.753124 96.229164Q42.95625 95.385414 42.95625 93.80729ZM44.034374 93.80729Q44.034374 94.99479 44.55 95.58854Q45.08125 96.18229 45.8625 96.18229Q46.659374 96.18229 47.175 95.58854Q47.690624 94.99479 47.690624 93.77604Q47.690624 92.61979 47.159374 92.02604Q46.64375 91.43229 45.8625 91.43229Q45.08125 91.43229 44.55 92.02604Q44.034374 92.604164 44.034374 93.80729ZM49.64375 96.916664L51.909374 93.68229L49.815624 90.697914L51.128124 90.697914L52.08125 92.15104Q52.346874 92.572914 52.51875 92.854164Q52.76875 92.46354 52.9875 92.166664L54.034374 90.697914L55.3 90.697914L53.14375 93.61979L55.45625 96.916664L54.175 96.916664L52.89375 94.979164L52.55 94.46354L50.909374 96.916664L49.64375 96.916664Z" fill-rule="nonzero"/><path fill="#9e9e9e" d="M23.01875 113.916664L21.971874 113.916664L21.971874 107.197914Q21.58125 107.55729 20.95625 107.93229Q20.346874 108.291664 19.8625 108.46354L19.8625 107.447914Q20.7375 107.02604 21.39375 106.447914Q22.065624 105.854164 22.346874 105.291664L23.01875 105.291664L23.01875 113.916664ZM31.596874 112.90104L31.596874 113.916664L25.909374 113.916664Q25.909374 113.541664 26.034374 113.18229Q26.253124 112.604164 26.721874 112.041664Q27.20625 111.479164 28.1125 110.74479Q29.51875 109.58854 30.003124 108.916664Q30.503124 108.24479 30.503124 107.65104Q30.503124 107.02604 30.05 106.604164Q29.596874 106.166664 28.878124 106.166664Q28.1125 106.166664 27.659374 106.61979Q27.20625 107.072914 27.190624 107.885414L26.1125 107.77604Q26.221874 106.55729 26.940624 105.93229Q27.675 105.291664 28.909374 105.291664Q30.14375 105.291664 30.8625 105.979164Q31.58125 106.666664 31.58125 107.68229Q31.58125 108.197914 31.3625 108.697914Q31.159374 109.18229 30.659374 109.74479Q30.175 110.291664 29.05 111.24479Q28.096874 112.041664 27.815624 112.33854Q27.55 112.61979 27.378124 112.90104L31.596874 112.90104ZM33.64375 113.916664L33.64375 112.71354L34.846874 112.71354L34.846874 113.916664L33.64375 113.916664ZM41.51875 107.43229L40.471874 107.510414Q40.33125 106.885414 40.08125 106.604164Q39.64375 106.15104 39.01875 106.15104Q38.51875 106.15104 38.128124 106.43229Q37.64375 106.80729 37.346874 107.510414Q37.065624 108.197914 37.05 109.479164Q37.425 108.90104 37.971874 108.61979Q38.534374 108.33854 39.14375 108.33854Q40.190624 108.33854 40.925 109.11979Q41.675 109.90104 41.675 111.11979Q41.675 111.93229 41.315624 112.635414Q40.971874 113.322914 40.3625 113.697914Q39.753124 114.05729 38.9875 114.05729Q37.659374 114.05729 36.83125 113.08854Q36.003124 112.11979 36.003124 109.90104Q36.003124 107.40104 36.925 106.27604Q37.721874 105.291664 39.08125 105.291664Q40.096874 105.291664 40.7375 105.86979Q41.39375 106.43229 41.51875 107.43229ZM37.221874 111.135414Q37.221874 111.68229 37.440624 112.18229Q37.675 112.666664 38.08125 112.93229Q38.503124 113.197914 38.971874 113.197914Q39.628124 113.197914 40.1125 112.666664Q40.596874 112.11979 40.596874 111.197914Q40.596874 110.30729 40.1125 109.791664Q39.64375 109.27604 38.925 109.27604Q38.20625 109.27604 37.70625 109.791664Q37.221874 110.30729 37.221874 111.135414ZM43.253124 107.385414Q43.253124 106.46354 43.70625 105.822914Q44.175 105.18229 45.05 105.18229Q45.8625 105.18229 46.39375 105.760414Q46.925 106.33854 46.925 107.447914Q46.925 108.541664 46.378124 109.135414Q45.846874 109.71354 45.065624 109.71354Q44.284374 109.71354 43.76875 109.135414Q43.253124 108.55729 43.253124 107.385414ZM45.08125 105.90104Q44.690624 105.90104 44.425 106.24479Q44.175 106.58854 44.175 107.49479Q44.175 108.322914 44.425 108.666664Q44.690624 108.99479 45.08125 108.99479Q45.4875 108.99479 45.7375 108.65104Q46.003124 108.30729 46.003124 107.416664Q46.003124 106.572914 45.7375 106.24479Q45.471874 105.90104 45.08125 105.90104ZM45.08125 114.229164L49.784374 105.18229L50.64375 105.18229L45.95625 114.229164L45.08125 114.229164ZM48.8 111.90104Q48.8 110.979164 49.253124 110.33854Q49.721874 109.697914 50.6125 109.697914Q51.425 109.697914 51.95625 110.27604Q52.4875 110.83854 52.4875 111.96354Q52.4875 113.05729 51.940624 113.65104Q51.409374 114.229164 50.6125 114.229164Q49.846874 114.229164 49.315624 113.65104Q48.8 113.072914 48.8 111.90104ZM50.64375 110.416664Q50.2375 110.416664 49.971874 110.760414Q49.721874 111.104164 49.721874 112.010414Q49.721874 112.822914 49.9875 113.166664Q50.253124 113.510414 50.64375 113.510414Q51.034374 113.510414 51.3 113.166664Q51.565624 112.822914 51.565624 111.916664Q51.565624 111.08854 51.3 110.760414Q51.034374 110.416664 50.64375 110.416664Z" fill-rule="nonzero"/><path stroke="#757575" stroke-width="1.0" stroke-linecap="butt" d="M18.55 101.416664L145.23334 101.416664L219.66606 87.40713" fill-rule="nonzero"/><path fill="#9e9e9e" d="M221.66606 87.40713C221.66606 86.30256 220.77063 85.40713 219.66606 85.40713C218.5615 85.40713 217.66606 86.30256 217.66606 87.40713C217.66606 88.511696 218.5615 89.40713 219.66606 89.40713C220.77063 89.40713 221.66606 88.511696 221.66606 87.40713" fill-rule="nonzero"/><path fill="#1a1a1a" d="M19.096874 195.6833L20.159374 195.58955Q20.2375 196.2458 20.51875 196.65205Q20.8 197.0583 21.378124 197.32393Q21.971874 197.57393 22.70625 197.57393Q23.346874 197.57393 23.846874 197.38643Q24.346874 197.1833 24.58125 196.85518Q24.83125 196.51143 24.83125 196.1208Q24.83125 195.71455 24.596874 195.41768Q24.3625 195.10518 23.83125 194.90205Q23.471874 194.76143 22.284374 194.48018Q21.1125 194.19893 20.64375 193.94893Q20.01875 193.6208 19.721874 193.15205Q19.425 192.66768 19.425 192.07393Q19.425 191.4333 19.784374 190.8708Q20.159374 190.29268 20.8625 190.01143Q21.58125 189.71455 22.440624 189.71455Q23.39375 189.71455 24.128124 190.02705Q24.8625 190.32393 25.253124 190.9333Q25.64375 191.52705 25.675 192.27705L24.58125 192.35518Q24.4875 191.54268 23.971874 191.13643Q23.471874 190.71455 22.4875 190.71455Q21.45625 190.71455 20.9875 191.08955Q20.51875 191.46455 20.51875 191.9958Q20.51875 192.46455 20.846874 192.76143Q21.175 193.0583 22.55 193.3708Q23.940624 193.6833 24.45625 193.91768Q25.20625 194.27705 25.565624 194.8083Q25.925 195.32393 25.925 196.02705Q25.925 196.71455 25.534374 197.32393Q25.14375 197.91768 24.409374 198.26143Q23.675 198.58955 22.753124 198.58955Q21.58125 198.58955 20.784374 198.26143Q20.003124 197.91768 19.55 197.23018Q19.1125 196.54268 19.096874 195.6833ZM31.409374 197.6833Q30.815624 198.1833 30.26875 198.38643Q29.7375 198.58955 29.1125 198.58955Q28.08125 198.58955 27.534374 198.08955Q26.9875 197.58955 26.9875 196.8083Q26.9875 196.35518 27.190624 195.98018Q27.39375 195.58955 27.7375 195.3708Q28.08125 195.13643 28.503124 195.02705Q28.8 194.9333 29.440624 194.85518Q30.70625 194.71455 31.315624 194.4958Q31.315624 194.27705 31.315624 194.23018Q31.315624 193.57393 31.01875 193.3083Q30.6125 192.96455 29.815624 192.96455Q29.08125 192.96455 28.721874 193.23018Q28.3625 193.48018 28.190624 194.13643L27.159374 193.9958Q27.3 193.33955 27.628124 192.9333Q27.95625 192.52705 28.565624 192.3083Q29.175 192.08955 29.971874 192.08955Q30.76875 192.08955 31.26875 192.27705Q31.76875 192.46455 32.003124 192.7458Q32.2375 193.02705 32.33125 193.46455Q32.378124 193.73018 32.378124 194.4333L32.378124 195.83955Q32.378124 197.3083 32.440624 197.69893Q32.51875 198.08955 32.721874 198.44893L31.6125 198.44893Q31.45625 198.1208 31.409374 197.6833ZM31.315624 195.32393Q30.7375 195.5583 29.596874 195.73018Q28.940624 195.82393 28.675 195.94893Q28.409374 196.0583 28.253124 196.27705Q28.1125 196.4958 28.1125 196.77705Q28.1125 197.19893 28.425 197.48018Q28.753124 197.76143 29.3625 197.76143Q29.971874 197.76143 30.440624 197.4958Q30.925 197.23018 31.14375 196.76143Q31.315624 196.40205 31.315624 195.71455L31.315624 195.32393ZM34.596874 198.44893L34.596874 193.04268L33.659374 193.04268L33.659374 192.23018L34.596874 192.23018L34.596874 191.5583Q34.596874 190.9333 34.70625 190.63643Q34.8625 190.21455 35.2375 189.96455Q35.628124 189.71455 36.315624 189.71455Q36.76875 189.71455 37.3 189.82393L37.14375 190.73018Q36.815624 190.6833 36.51875 190.6833Q36.034374 190.6833 35.83125 190.88643Q35.64375 191.08955 35.64375 191.65205L35.64375 192.23018L36.8625 192.23018L36.8625 193.04268L35.64375 193.04268L35.64375 198.44893L34.596874 198.44893ZM41.409374 197.6833Q40.815624 198.1833 40.26875 198.38643Q39.7375 198.58955 39.1125 198.58955Q38.08125 198.58955 37.534374 198.08955Q36.9875 197.58955 36.9875 196.8083Q36.9875 196.35518 37.190624 195.98018Q37.39375 195.58955 37.7375 195.3708Q38.08125 195.13643 38.503124 195.02705Q38.8 194.9333 39.440624 194.85518Q40.70625 194.71455 41.315624 194.4958Q41.315624 194.27705 41.315624 194.23018Q41.315624 193.57393 41.01875 193.3083Q40.6125 192.96455 39.815624 192.96455Q39.08125 192.96455 38.721874 193.23018Q38.3625 193.48018 38.190624 194.13643L37.159374 193.9958Q37.3 193.33955 37.628124 192.9333Q37.95625 192.52705 38.565624 192.3083Q39.175 192.08955 39.971874 192.08955Q40.76875 192.08955 41.26875 192.27705Q41.76875 192.46455 42.003124 192.7458Q42.2375 193.02705 42.33125 193.46455Q42.378124 193.73018 42.378124 194.4333L42.378124 195.83955Q42.378124 197.3083 42.440624 197.69893Q42.51875 198.08955 42.721874 198.44893L41.6125 198.44893Q41.45625 198.1208 41.409374 197.6833ZM41.315624 195.32393Q40.7375 195.5583 39.596874 195.73018Q38.940624 195.82393 38.675 195.94893Q38.409374 196.0583 38.253124 196.27705Q38.1125 196.4958 38.1125 196.77705Q38.1125 197.19893 38.425 197.48018Q38.753124 197.76143 39.3625 197.76143Q39.971874 197.76143 40.440624 197.4958Q40.925 197.23018 41.14375 196.76143Q41.315624 196.40205 41.315624 195.71455L41.315624 195.32393ZM44.33125 198.44893L44.33125 192.23018L45.284374 192.23018L45.284374 193.16768Q45.64375 192.51143 45.940624 192.3083Q46.253124 192.08955 46.628124 192.08955Q47.159374 192.08955 47.70625 192.41768L47.346874 193.40205Q46.95625 193.16768 46.58125 193.16768Q46.221874 193.16768 45.940624 193.38643Q45.675 193.58955 45.565624 193.96455Q45.378124 194.52705 45.378124 195.1833L45.378124 198.44893L44.33125 198.44893ZM48.346874 191.07393L48.346874 189.85518L49.409374 189.85518L49.409374 191.07393L48.346874 191.07393ZM48.346874 198.44893L48.346874 192.23018L49.409374 192.23018L49.409374 198.44893L48.346874 198.44893Z" fill-rule="nonzero"/><path fill="#9e9e9e" d="M23.01875 215.44893L21.971874 215.44893L21.971874 208.73018Q21.58125 209.08955 20.95625 209.46455Q20.346874 209.82393 19.8625 209.9958L19.8625 208.98018Q20.7375 208.5583 21.39375 207.98018Q22.065624 207.38643 22.346874 206.82393L23.01875 206.82393L23.01875 215.44893ZM27.675 210.79268Q27.01875 210.54268 26.690624 210.10518Q26.378124 209.65205 26.378124 209.04268Q26.378124 208.10518 27.05 207.46455Q27.7375 206.82393 28.846874 206.82393Q29.971874 206.82393 30.659374 207.48018Q31.346874 208.13643 31.346874 209.07393Q31.346874 209.66768 31.034374 210.10518Q30.721874 210.54268 30.08125 210.79268Q30.878124 211.04268 31.284374 211.6208Q31.690624 212.19893 31.690624 212.9958Q31.690624 214.08955 30.909374 214.83955Q30.14375 215.58955 28.8625 215.58955Q27.596874 215.58955 26.815624 214.83955Q26.034374 214.08955 26.034374 212.96455Q26.034374 212.1208 26.45625 211.5583Q26.89375 210.9958 27.675 210.79268ZM27.45625 208.9958Q27.45625 209.60518 27.846874 209.9958Q28.253124 210.38643 28.878124 210.38643Q29.4875 210.38643 29.878124 210.01143Q30.26875 209.6208 30.26875 209.0583Q30.26875 208.48018 29.8625 208.08955Q29.45625 207.6833 28.8625 207.6833Q28.253124 207.6833 27.846874 208.07393Q27.45625 208.46455 27.45625 208.9958ZM27.128124 212.96455Q27.128124 213.41768 27.33125 213.83955Q27.55 214.26143 27.971874 214.4958Q28.39375 214.73018 28.878124 214.73018Q29.628124 214.73018 30.1125 214.2458Q30.6125 213.76143 30.6125 213.01143Q30.6125 212.2458 30.1125 211.7458Q29.6125 211.2458 28.846874 211.2458Q28.096874 211.2458 27.6125 211.7458Q27.128124 212.23018 27.128124 212.96455ZM33.64375 215.44893L33.64375 214.2458L34.846874 214.2458L34.846874 215.44893L33.64375 215.44893ZM36.05 211.21455Q36.05 209.6833 36.3625 208.76143Q36.675 207.82393 37.284374 207.32393Q37.909374 206.82393 38.846874 206.82393Q39.534374 206.82393 40.05 207.10518Q40.58125 207.38643 40.925 207.91768Q41.26875 208.4333 41.45625 209.1833Q41.64375 209.9333 41.64375 211.21455Q41.64375 212.73018 41.33125 213.65205Q41.034374 214.57393 40.409374 215.08955Q39.8 215.58955 38.846874 215.58955Q37.6125 215.58955 36.89375 214.69893Q36.05 213.63643 36.05 211.21455ZM37.128124 211.21455Q37.128124 213.32393 37.628124 214.02705Q38.128124 214.73018 38.846874 214.73018Q39.58125 214.73018 40.065624 214.02705Q40.565624 213.32393 40.565624 211.21455Q40.565624 209.08955 40.065624 208.40205Q39.58125 207.69893 38.83125 207.69893Q38.1125 207.69893 37.675 208.3083Q37.128124 209.08955 37.128124 211.21455ZM43.253124 208.91768Q43.253124 207.9958 43.70625 207.35518Q44.175 206.71455 45.05 206.71455Q45.8625 206.71455 46.39375 207.29268Q46.925 207.8708 46.925 208.98018Q46.925 210.07393 46.378124 210.66768Q45.846874 211.2458 45.065624 211.2458Q44.284374 211.2458 43.76875 210.66768Q43.253124 210.08955 43.253124 208.91768ZM45.08125 207.4333Q44.690624 207.4333 44.425 207.77705Q44.175 208.1208 44.175 209.02705Q44.175 209.85518 44.425 210.19893Q44.690624 210.52705 45.08125 210.52705Q45.4875 210.52705 45.7375 210.1833Q46.003124 209.83955 46.003124 208.94893Q46.003124 208.10518 45.7375 207.77705Q45.471874 207.4333 45.08125 207.4333ZM45.08125 215.76143L49.784374 206.71455L50.64375 206.71455L45.95625 215.76143L45.08125 215.76143ZM48.8 213.4333Q48.8 212.51143 49.253124 211.8708Q49.721874 211.23018 50.6125 211.23018Q51.425 211.23018 51.95625 211.8083Q52.4875 212.3708 52.4875 213.4958Q52.4875 214.58955 51.940624 215.1833Q51.409374 215.76143 50.6125 215.76143Q49.846874 215.76143 49.315624 215.1833Q48.8 214.60518 48.8 213.4333ZM50.64375 211.94893Q50.2375 211.94893 49.971874 212.29268Q49.721874 212.63643 49.721874 213.54268Q49.721874 214.35518 49.9875 214.69893Q50.253124 215.04268 50.64375 215.04268Q51.034374 215.04268 51.3 214.69893Q51.565624 214.35518 51.565624 213.44893Q51.565624 212.6208 51.3 212.29268Q51.034374 211.94893 50.64375 211.94893Z" fill-rule="nonzero"/><path stroke="#757575" stroke-width="1.0" stroke-linecap="butt" d="M18.55 202.94893L145.23334 202.94893L158.67357 202.94893" fill-rule="nonzero"/><path fill="#9e9e9e" d="M160.67357 202.94893C160.67357 201.84435 159.77814 200.94893 158.67357 200.94893C157.569 200.94893 156.67357 201.84435 156.67357 202.94893C156.67357 204.0535 157.569 204.94893 158.67357 204.94893C159.77814 204.94893 160.67357 204.0535 160.67357 202.94893" fill-rule="nonzero"/><path fill="#1a1a1a" d="M544.5125 264.6276L545.6375 264.92447Q545.27814 266.3151 544.35626 267.04947Q543.4344 267.78384 542.09064 267.78384Q540.7 267.78384 539.825 267.22134Q538.95 266.65884 538.4969 265.59634Q538.04376 264.51822 538.04376 263.28384Q538.04376 261.9401 538.5594 260.9401Q539.075 259.9401 540.0125 259.42447Q540.96564 258.90884 542.10626 258.90884Q543.3875 258.90884 544.2625 259.5651Q545.15314 260.22134 545.4969 261.40884L544.3719 261.67447Q544.075 260.73697 543.4969 260.3151Q542.9344 259.8776 542.075 259.8776Q541.09064 259.8776 540.41876 260.36197Q539.7625 260.83072 539.48126 261.6276Q539.21564 262.42447 539.21564 263.28384Q539.21564 264.3776 539.52814 265.1901Q539.85626 266.0026 540.52814 266.40884Q541.2 266.8151 541.9969 266.8151Q542.95 266.8151 543.60626 266.26822Q544.27814 265.72134 544.5125 264.6276ZM547.2469 267.64322L547.2469 259.04947L548.29376 259.04947L548.29376 262.1276Q549.02814 261.28384 550.15314 261.28384Q550.85626 261.28384 551.35626 261.5651Q551.8719 261.83072 552.09064 262.3151Q552.3094 262.78384 552.3094 263.70572L552.3094 267.64322L551.2625 267.64322L551.2625 263.70572Q551.2625 262.90884 550.91876 262.54947Q550.575 262.1901 549.95 262.1901Q549.48126 262.1901 549.0594 262.4401Q548.65314 262.67447 548.46564 263.09634Q548.29376 263.5026 548.29376 264.23697L548.29376 267.64322L547.2469 267.64322ZM554.23126 267.64322L554.23126 261.42447L555.1844 261.42447L555.1844 262.36197Q555.54376 261.70572 555.84064 261.5026Q556.15314 261.28384 556.52814 261.28384Q557.0594 261.28384 557.60626 261.61197L557.2469 262.59634Q556.85626 262.36197 556.48126 262.36197Q556.1219 262.36197 555.84064 262.58072Q555.575 262.78384 555.46564 263.15884Q555.27814 263.72134 555.27814 264.3776L555.27814 267.64322L554.23126 267.64322ZM557.85626 264.53384Q557.85626 262.79947 558.8094 261.97134Q559.60626 261.28384 560.7625 261.28384Q562.04376 261.28384 562.85626 262.1276Q563.6844 262.95572 563.6844 264.4401Q563.6844 265.64322 563.325 266.33072Q562.96564 267.01822 562.2625 267.40884Q561.575 267.78384 560.7625 267.78384Q559.46564 267.78384 558.65314 266.95572Q557.85626 266.11197 557.85626 264.53384ZM558.9344 264.53384Q558.9344 265.72134 559.45 266.3151Q559.98126 266.90884 560.7625 266.90884Q561.5594 266.90884 562.075 266.3151Q562.59064 265.72134 562.59064 264.5026Q562.59064 263.34634 562.0594 262.7526Q561.54376 262.15884 560.7625 262.15884Q559.98126 262.15884 559.45 262.7526Q558.9344 263.33072 558.9344 264.53384ZM565.2469 267.64322L565.2469 261.42447L566.1844 261.42447L566.1844 262.29947Q566.48126 261.83072 566.96564 261.5651Q567.45 261.28384 568.075 261.28384Q568.7625 261.28384 569.2 261.5651Q569.65314 261.84634 569.825 262.36197Q570.575 261.28384 571.7469 261.28384Q572.6844 261.28384 573.16876 261.79947Q573.66876 262.29947 573.66876 263.3776L573.66876 267.64322L572.6219 267.64322L572.6219 263.72134Q572.6219 263.09634 572.5125 262.8151Q572.41876 262.53384 572.15314 262.36197Q571.8875 262.1901 571.5125 262.1901Q570.85626 262.1901 570.41876 262.6276Q569.9969 263.0651 569.9969 264.03384L569.9969 267.64322L568.9344 267.64322L568.9344 263.59634Q568.9344 262.89322 568.66876 262.54947Q568.41876 262.1901 567.84064 262.1901Q567.3875 262.1901 567.0125 262.42447Q566.6375 262.65884 566.46564 263.11197Q566.29376 263.5651 566.29376 264.40884L566.29376 267.64322L565.2469 267.64322ZM579.4969 265.64322L580.59064 265.76822Q580.34064 266.72134 579.6375 267.2526Q578.9344 267.78384 577.85626 267.78384Q576.4969 267.78384 575.6844 266.9401Q574.8875 266.09634 574.8875 264.58072Q574.8875 263.01822 575.7 262.15884Q576.5125 261.28384 577.79376 261.28384Q579.04376 261.28384 579.825 262.1276Q580.6219 262.97134 580.6219 264.51822Q580.6219 264.61197 580.6219 264.79947L575.98126 264.79947Q576.04376 265.83072 576.5594 266.3776Q577.075 266.90884 577.85626 266.90884Q578.4344 266.90884 578.84064 266.61197Q579.2625 266.29947 579.4969 265.64322ZM576.04376 263.9401L579.5125 263.9401Q579.45 263.14322 579.1219 262.7526Q578.60626 262.14322 577.8094 262.14322Q577.075 262.14322 576.575 262.6276Q576.09064 263.11197 576.04376 263.9401Z" fill-rule="nonzero"/><path fill="#9e9e9e" d="M552.41876 278.15884L551.3719 278.23697Q551.23126 277.61197 550.98126 277.33072Q550.54376 276.8776 549.91876 276.8776Q549.41876 276.8776 549.02814 277.15884Q548.54376 277.53384 548.2469 278.23697Q547.96564 278.92447 547.95 280.20572Q548.325 279.6276 548.8719 279.34634Q549.4344 279.0651 550.04376 279.0651Q551.09064 279.0651 551.825 279.84634Q552.575 280.6276 552.575 281.84634Q552.575 282.65884 552.21564 283.36197Q551.8719 284.04947 551.2625 284.42447Q550.65314 284.78384 549.8875 284.78384Q548.5594 284.78384 547.73126 283.8151Q546.90314 282.84634 546.90314 280.6276Q546.90314 278.1276 547.825 277.0026Q548.6219 276.01822 549.98126 276.01822Q550.9969 276.01822 551.6375 276.59634Q552.29376 277.15884 552.41876 278.15884ZM548.1219 281.86197Q548.1219 282.40884 548.34064 282.90884Q548.575 283.39322 548.98126 283.65884Q549.40314 283.92447 549.8719 283.92447Q550.52814 283.92447 551.0125 283.39322Q551.4969 282.84634 551.4969 281.92447Q551.4969 281.03384 551.0125 280.51822Q550.54376 280.0026 549.825 280.0026Q549.10626 280.0026 548.60626 280.51822Q548.1219 281.03384 548.1219 281.86197ZM559.41876 278.15884L558.3719 278.23697Q558.23126 277.61197 557.98126 277.33072Q557.54376 276.8776 556.91876 276.8776Q556.41876 276.8776 556.02814 277.15884Q555.54376 277.53384 555.2469 278.23697Q554.96564 278.92447 554.95 280.20572Q555.325 279.6276 555.8719 279.34634Q556.4344 279.0651 557.04376 279.0651Q558.09064 279.0651 558.825 279.84634Q559.575 280.6276 559.575 281.84634Q559.575 282.65884 559.21564 283.36197Q558.8719 284.04947 558.2625 284.42447Q557.65314 284.78384 556.8875 284.78384Q555.5594 284.78384 554.73126 283.8151Q553.90314 282.84634 553.90314 280.6276Q553.90314 278.1276 554.825 277.0026Q555.6219 276.01822 556.98126 276.01822Q557.9969 276.01822 558.6375 276.59634Q559.29376 277.15884 559.41876 278.15884ZM555.1219 281.86197Q555.1219 282.40884 555.34064 282.90884Q555.575 283.39322 555.98126 283.65884Q556.40314 283.92447 556.8719 283.92447Q557.52814 283.92447 558.0125 283.39322Q558.4969 282.84634 558.4969 281.92447Q558.4969 281.03384 558.0125 280.51822Q557.54376 280.0026 556.825 280.0026Q556.10626 280.0026 555.60626 280.51822Q555.1219 281.03384 555.1219 281.86197ZM561.54376 284.64322L561.54376 283.4401L562.7469 283.4401L562.7469 284.64322L561.54376 284.64322ZM567.91876 284.64322L566.8719 284.64322L566.8719 277.92447Q566.48126 278.28384 565.85626 278.65884Q565.2469 279.01822 564.7625 279.1901L564.7625 278.17447Q565.6375 277.7526 566.29376 277.17447Q566.96564 276.58072 567.2469 276.01822L567.91876 276.01822L567.91876 284.64322ZM571.15314 278.11197Q571.15314 277.1901 571.60626 276.54947Q572.075 275.90884 572.95 275.90884Q573.7625 275.90884 574.29376 276.48697Q574.825 277.0651 574.825 278.17447Q574.825 279.26822 574.27814 279.86197Q573.7469 280.4401 572.96564 280.4401Q572.1844 280.4401 571.66876 279.86197Q571.15314 279.28384 571.15314 278.11197ZM572.98126 276.6276Q572.59064 276.6276 572.325 276.97134Q572.075 277.3151 572.075 278.22134Q572.075 279.04947 572.325 279.39322Q572.59064 279.72134 572.98126 279.72134Q573.3875 279.72134 573.6375 279.3776Q573.90314 279.03384 573.90314 278.14322Q573.90314 277.29947 573.6375 276.97134Q573.3719 276.6276 572.98126 276.6276ZM572.98126 284.95572L577.6844 275.90884L578.54376 275.90884L573.85626 284.95572L572.98126 284.95572ZM576.7 282.6276Q576.7 281.70572 577.15314 281.0651Q577.6219 280.42447 578.5125 280.42447Q579.325 280.42447 579.85626 281.0026Q580.3875 281.5651 580.3875 282.6901Q580.3875 283.78384 579.84064 284.3776Q579.3094 284.95572 578.5125 284.95572Q577.7469 284.95572 577.21564 284.3776Q576.7 283.79947 576.7 282.6276ZM578.54376 281.14322Q578.1375 281.14322 577.8719 281.48697Q577.6219 281.83072 577.6219 282.73697Q577.6219 283.54947 577.8875 283.89322Q578.15314 284.23697 578.54376 284.23697Q578.9344 284.23697 579.2 283.89322Q579.46564 283.54947 579.46564 282.64322Q579.46564 281.8151 579.2 281.48697Q578.9344 281.14322 578.54376 281.14322Z" fill-rule="nonzero"/><path stroke="#757575" stroke-width="1.0" stroke-linecap="butt" d="M581.45 272.14322L454.76666 272.14322L423.64038 272.14322" fill-rule="nonzero"/><path fill="#9e9e9e" d="M425.64038 272.14322C425.64038 271.03864 424.74493 270.14322 423.64038 270.14322C422.5358 270.14322 421.64038 271.03864 421.64038 272.14322C421.64038 273.24777 422.5358 274.14322 423.64038 274.14322C424.74493 274.14322 425.64038 273.24777 425.64038 272.14322" fill-rule="nonzero"/><path fill="#757575" d="M20.01875 37.55L20.01875 23.2375L25.39375 23.2375Q27.034374 23.2375 28.01875 23.675Q29.003124 24.096874 29.565624 25.003124Q30.128124 25.909374 30.128124 26.89375Q30.128124 27.815624 29.628124 28.628124Q29.14375 29.440624 28.128124 29.925Q29.425 30.315624 30.128124 31.2375Q30.83125 32.14375 30.83125 33.39375Q30.83125 34.409374 30.39375 35.26875Q29.971874 36.128124 29.346874 36.596874Q28.721874 37.065624 27.784374 37.315624Q26.846874 37.55 25.471874 37.55L20.01875 37.55ZM21.909374 29.253124L25.003124 29.253124Q26.26875 29.253124 26.815624 29.08125Q27.534374 28.8625 27.89375 28.378124Q28.26875 27.878124 28.26875 27.1125Q28.26875 26.409374 27.925 25.8625Q27.58125 25.315624 26.940624 25.128124Q26.315624 24.925 24.76875 24.925L21.909374 24.925L21.909374 29.253124ZM21.909374 35.8625L25.471874 35.8625Q26.39375 35.8625 26.76875 35.784374Q27.425 35.675 27.8625 35.409374Q28.3 35.128124 28.58125 34.6125Q28.8625 34.08125 28.8625 33.39375Q28.8625 32.596874 28.45625 32.003124Q28.05 31.409374 27.315624 31.175Q26.58125 30.940624 25.221874 30.940624L21.909374 30.940624L21.909374 35.8625ZM32.846874 37.55L32.846874 27.175L34.425 27.175L34.425 28.753124Q35.034374 27.64375 35.55 27.3Q36.065624 26.940624 36.675 26.940624Q37.565624 26.940624 38.4875 27.503124L37.878124 29.14375Q37.2375 28.753124 36.596874 28.753124Q36.01875 28.753124 35.55 29.1125Q35.096874 29.45625 34.89375 30.065624Q34.6125 31.003124 34.6125 32.1125L34.6125 37.55L32.846874 37.55ZM39.221874 32.3625Q39.221874 29.4875 40.815624 28.096874Q42.159374 26.940624 44.08125 26.940624Q46.221874 26.940624 47.565624 28.346874Q48.925 29.753124 48.925 32.221874Q48.925 34.221874 48.33125 35.378124Q47.7375 36.51875 46.58125 37.159374Q45.440624 37.784374 44.08125 37.784374Q41.89375 37.784374 40.55 36.39375Q39.221874 34.9875 39.221874 32.3625ZM41.01875 32.3625Q41.01875 34.3625 41.878124 35.346874Q42.753124 36.33125 44.08125 36.33125Q45.39375 36.33125 46.253124 35.346874Q47.128124 34.346874 47.128124 32.3Q47.128124 30.378124 46.253124 29.39375Q45.378124 28.39375 44.08125 28.39375Q42.753124 28.39375 41.878124 29.39375Q41.01875 30.378124 41.01875 32.3625ZM52.784374 37.55L49.6125 27.175L51.425 27.175L53.08125 33.159374L53.690624 35.39375Q53.7375 35.221874 54.221874 33.253124L55.878124 27.175L57.690624 27.175L59.2375 33.190624L59.753124 35.175L60.346874 33.175L62.128124 27.175L63.83125 27.175L60.596874 37.55L58.76875 37.55L57.1125 31.33125L56.721874 29.565624L54.6125 37.55L52.784374 37.55ZM64.15938 34.45625L65.90938 34.175Q66.05 35.221874 66.72188 35.784374Q67.39375 36.33125 68.59688 36.33125Q69.8 36.33125 70.37813 35.846874Q70.97188 35.346874 70.97188 34.690624Q70.97188 34.096874 70.45625 33.753124Q70.09688 33.51875 68.65938 33.159374Q66.72188 32.659374 65.97188 32.315624Q65.2375 31.95625 64.84688 31.33125Q64.45625 30.690624 64.45625 29.925Q64.45625 29.2375 64.76875 28.64375Q65.09688 28.05 65.64375 27.659374Q66.05 27.3625 66.75313 27.159374Q67.47188 26.940624 68.28438 26.940624Q69.50313 26.940624 70.425 27.3Q71.34688 27.64375 71.78438 28.253124Q72.22188 28.846874 72.39375 29.846874L70.675 30.08125Q70.55 29.284374 69.9875 28.846874Q69.425 28.39375 68.40938 28.39375Q67.19063 28.39375 66.675 28.8Q66.15938 29.190624 66.15938 29.721874Q66.15938 30.065624 66.37813 30.346874Q66.58125 30.628124 67.05 30.815624Q67.31563 30.909374 68.59688 31.253124Q70.47188 31.753124 71.20625 32.08125Q71.94063 32.39375 72.3625 33.003124Q72.78438 33.596874 72.78438 34.503124Q72.78438 35.378124 72.26875 36.159374Q71.75313 36.940624 70.78438 37.3625Q69.81563 37.784374 68.59688 37.784374Q66.58125 37.784374 65.51875 36.940624Q64.45625 36.096874 64.15938 34.45625ZM81.97188 34.20625L83.78438 34.440624Q83.3625 36.01875 82.19063 36.909374Q81.03438 37.784374 79.22188 37.784374Q76.95625 37.784374 75.6125 36.39375Q74.28438 34.9875 74.28438 32.45625Q74.28438 29.83125 75.62813 28.39375Q76.97188 26.940624 79.12813 26.940624Q81.20625 26.940624 82.51875 28.3625Q83.84688 29.76875 83.84688 32.346874Q83.84688 32.503124 83.83125 32.815624L76.09688 32.815624Q76.19063 34.51875 77.06563 35.425Q77.94063 36.33125 79.2375 36.33125Q80.20625 36.33125 80.87813 35.83125Q81.56563 35.315624 81.97188 34.20625ZM76.19063 31.3625L81.9875 31.3625Q81.87813 30.065624 81.33125 29.409374Q80.4875 28.39375 79.14375 28.39375Q77.94063 28.39375 77.1125 29.20625Q76.28438 30.003124 76.19063 31.3625ZM85.84688 37.55L85.84688 27.175L87.425 27.175L87.425 28.753124Q88.03438 27.64375 88.55 27.3Q89.06563 26.940624 89.675 26.940624Q90.56563 26.940624 91.4875 27.503124L90.87813 29.14375Q90.2375 28.753124 89.59688 28.753124Q89.01875 28.753124 88.55 29.1125Q88.09688 29.45625 87.89375 30.065624Q87.6125 31.003124 87.6125 32.1125L87.6125 37.55L85.84688 37.55ZM98.8625 37.55L98.8625 27.175L100.44063 27.175L100.44063 28.628124Q100.925 27.878124 101.7375 27.409374Q102.55 26.940624 103.58125 26.940624Q104.7375 26.940624 105.47188 27.425Q106.20625 27.89375 106.51875 28.753124Q107.75313 26.940624 109.72188 26.940624Q111.26875 26.940624 112.09688 27.8Q112.925 28.659374 112.925 30.425L112.925 37.55L111.175 37.55L111.175 31.01875Q111.175 29.95625 111.00313 29.503124Q110.83125 29.034374 110.37813 28.753124Q109.94063 28.471874 109.33125 28.471874Q108.2375 28.471874 107.50313 29.20625Q106.78438 29.925 106.78438 31.51875L106.78438 37.55L105.03438 37.55L105.03438 30.815624Q105.03438 29.64375 104.59688 29.065624Q104.175 28.471874 103.19063 28.471874Q102.45625 28.471874 101.81563 28.8625Q101.19063 29.253124 100.90938 30.003124Q100.62813 30.753124 100.62813 32.175L100.62813 37.55L98.8625 37.55ZM122.64375 36.26875Q121.65938 37.096874 120.75313 37.440624Q119.84688 37.784374 118.81563 37.784374Q117.1125 37.784374 116.19063 36.95625Q115.26875 36.1125 115.26875 34.815624Q115.26875 34.05 115.6125 33.425Q115.97188 32.8 116.53438 32.425Q117.09688 32.034374 117.8 31.83125Q118.31563 31.70625 119.3625 31.565624Q121.4875 31.315624 122.4875 30.971874Q122.50313 30.6125 122.50313 30.503124Q122.50313 29.440624 122.00313 28.9875Q121.33125 28.39375 120.00313 28.39375Q118.75313 28.39375 118.15938 28.83125Q117.58125 29.26875 117.3 30.378124L115.58125 30.14375Q115.81563 29.034374 116.34688 28.3625Q116.87813 27.675 117.89375 27.315624Q118.90938 26.940624 120.25313 26.940624Q121.58125 26.940624 122.40938 27.253124Q123.2375 27.565624 123.62813 28.05Q124.01875 28.51875 124.175 29.2375Q124.26875 29.690624 124.26875 30.8625L124.26875 33.20625Q124.26875 35.659374 124.37813 36.315624Q124.4875 36.95625 124.83125 37.55L122.9875 37.55Q122.72188 37.003124 122.64375 36.26875ZM122.4875 32.346874Q121.53438 32.7375 119.6125 33.003124Q118.53438 33.159374 118.08125 33.3625Q117.64375 33.55 117.39375 33.925Q117.14375 34.3 117.14375 34.76875Q117.14375 35.471874 117.675 35.940624Q118.20625 36.409374 119.2375 36.409374Q120.25313 36.409374 121.03438 35.971874Q121.83125 35.51875 122.20625 34.753124Q122.4875 34.14375 122.4875 32.9875L122.4875 32.346874ZM126.84688 37.55L126.84688 27.175L128.425 27.175L128.425 28.753124Q129.03438 27.64375 129.55 27.3Q130.06563 26.940624 130.675 26.940624Q131.56563 26.940624 132.4875 27.503124L131.87813 29.14375Q131.2375 28.753124 130.59688 28.753124Q130.01875 28.753124 129.55 29.1125Q129.09688 29.45625 128.89375 30.065624Q128.6125 31.003124 128.6125 32.1125L128.6125 37.55L126.84688 37.55ZM133.87813 37.55L133.87813 23.2375L135.64375 23.2375L135.64375 31.39375L139.8 27.175L142.06563 27.175L138.1125 31.01875L142.47188 37.55L140.3 37.55L136.87813 32.253124L135.64375 33.440624L135.64375 37.55L133.87813 37.55ZM150.97188 34.20625L152.78438 34.440624Q152.3625 36.01875 151.19063 36.909374Q150.03438 37.784374 148.22188 37.784374Q145.95625 37.784374 144.6125 36.39375Q143.28438 34.9875 143.28438 32.45625Q143.28438 29.83125 144.62813 28.39375Q145.97188 26.940624 148.12813 26.940624Q150.20625 26.940624 151.51875 28.3625Q152.84688 29.76875 152.84688 32.346874Q152.84688 32.503124 152.83125 32.815624L145.09688 32.815624Q145.19063 34.51875 146.06563 35.425Q146.94063 36.33125 148.2375 36.33125Q149.20625 36.33125 149.87813 35.83125Q150.56563 35.315624 150.97188 34.20625ZM145.19063 31.3625L150.9875 31.3625Q150.87813 30.065624 150.33125 29.409374Q149.4875 28.39375 148.14375 28.39375Q146.94063 28.39375 146.1125 29.20625Q145.28438 30.003124 145.19063 31.3625ZM158.70625 35.971874L158.95625 37.534374Q158.22188 37.690624 157.62813 37.690624Q156.675 37.690624 156.14375 37.39375Q155.62813 37.08125 155.40938 36.596874Q155.19063 36.096874 155.19063 34.51875L155.19063 28.55L153.90938 28.55L153.90938 27.175L155.19063 27.175L155.19063 24.6125L156.94063 23.55L156.94063 27.175L158.70625 27.175L158.70625 28.55L156.94063 28.55L156.94063 34.6125Q156.94063 35.3625 157.03438 35.58125Q157.12813 35.784374 157.33125 35.925Q157.55 36.05 157.94063 36.05Q158.22188 36.05 158.70625 35.971874ZM160.15938 34.45625L161.90938 34.175Q162.05 35.221874 162.72188 35.784374Q163.39375 36.33125 164.59688 36.33125Q165.8 36.33125 166.37813 35.846874Q166.97188 35.346874 166.97188 34.690624Q166.97188 34.096874 166.45625 33.753124Q166.09688 33.51875 164.65938 33.159374Q162.72188 32.659374 161.97188 32.315624Q161.2375 31.95625 160.84688 31.33125Q160.45625 30.690624 160.45625 29.925Q160.45625 29.2375 160.76875 28.64375Q161.09688 28.05 161.64375 27.659374Q162.05 27.3625 162.75313 27.159374Q163.47188 26.940624 164.28438 26.940624Q165.50313 26.940624 166.425 27.3Q167.34688 27.64375 167.78438 28.253124Q168.22188 28.846874 168.39375 29.846874L166.675 30.08125Q166.55 29.284374 165.9875 28.846874Q165.425 28.39375 164.40938 28.39375Q163.19063 28.39375 162.675 28.8Q162.15938 29.190624 162.15938 29.721874Q162.15938 30.065624 162.37813 30.346874Q162.58125 30.628124 163.05 30.815624Q163.31563 30.909374 164.59688 31.253124Q166.47188 31.753124 167.20625 32.08125Q167.94063 32.39375 168.3625 33.003124Q168.78438 33.596874 168.78438 34.503124Q168.78438 35.378124 168.26875 36.159374Q167.75313 36.940624 166.78438 37.3625Q165.81563 37.784374 164.59688 37.784374Q162.58125 37.784374 161.51875 36.940624Q160.45625 36.096874 160.15938 34.45625ZM170.8625 37.55L170.8625 23.2375L172.62813 23.2375L172.62813 28.3625Q173.8625 26.940624 175.7375 26.940624Q176.87813 26.940624 177.72188 27.39375Q178.58125 27.846874 178.94063 28.659374Q179.31563 29.45625 179.31563 30.971874L179.31563 37.55L177.56563 37.55L177.56563 30.971874Q177.56563 29.659374 176.9875 29.065624Q176.40938 28.45625 175.37813 28.45625Q174.59688 28.45625 173.89375 28.8625Q173.20625 29.26875 172.90938 29.971874Q172.62813 30.659374 172.62813 31.878124L172.62813 37.55L170.8625 37.55ZM188.64375 36.26875Q187.65938 37.096874 186.75313 37.440624Q185.84688 37.784374 184.81563 37.784374Q183.1125 37.784374 182.19063 36.95625Q181.26875 36.1125 181.26875 34.815624Q181.26875 34.05 181.6125 33.425Q181.97188 32.8 182.53438 32.425Q183.09688 32.034374 183.8 31.83125Q184.31563 31.70625 185.3625 31.565624Q187.4875 31.315624 188.4875 30.971874Q188.50313 30.6125 188.50313 30.503124Q188.50313 29.440624 188.00313 28.9875Q187.33125 28.39375 186.00313 28.39375Q184.75313 28.39375 184.15938 28.83125Q183.58125 29.26875 183.3 30.378124L181.58125 30.14375Q181.81563 29.034374 182.34688 28.3625Q182.87813 27.675 183.89375 27.315624Q184.90938 26.940624 186.25313 26.940624Q187.58125 26.940624 188.40938 27.253124Q189.2375 27.565624 189.62813 28.05Q190.01875 28.51875 190.175 29.2375Q190.26875 29.690624 190.26875 30.8625L190.26875 33.20625Q190.26875 35.659374 190.37813 36.315624Q190.4875 36.95625 190.83125 37.55L188.9875 37.55Q188.72188 37.003124 188.64375 36.26875ZM188.4875 32.346874Q187.53438 32.7375 185.6125 33.003124Q184.53438 33.159374 184.08125 33.3625Q183.64375 33.55 183.39375 33.925Q183.14375 34.3 183.14375 34.76875Q183.14375 35.471874 183.675 35.940624Q184.20625 36.409374 185.2375 36.409374Q186.25313 36.409374 187.03438 35.971874Q187.83125 35.51875 188.20625 34.753124Q188.4875 34.14375 188.4875 32.9875L188.4875 32.346874ZM192.84688 37.55L192.84688 27.175L194.425 27.175L194.425 28.753124Q195.03438 27.64375 195.55 27.3Q196.06563 26.940624 196.675 26.940624Q197.56563 26.940624 198.4875 27.503124L197.87813 29.14375Q197.2375 28.753124 196.59688 28.753124Q196.01875 28.753124 195.55 29.1125Q195.09688 29.45625 194.89375 30.065624Q194.6125 31.003124 194.6125 32.1125L194.6125 37.55L192.84688 37.55ZM206.97188 34.20625L208.78438 34.440624Q208.3625 36.01875 207.19063 36.909374Q206.03438 37.784374 204.22188 37.784374Q201.95625 37.784374 200.6125 36.39375Q199.28438 34.9875 199.28438 32.45625Q199.28438 29.83125 200.62813 28.39375Q201.97188 26.940624 204.12813 26.940624Q206.20625 26.940624 207.51875 28.3625Q208.84688 29.76875 208.84688 32.346874Q208.84688 32.503124 208.83125 32.815624L201.09688 32.815624Q201.19063 34.51875 202.06563 35.425Q202.94063 36.33125 204.2375 36.33125Q205.20625 36.33125 205.87813 35.83125Q206.56563 35.315624 206.97188 34.20625ZM201.19063 31.3625L206.9875 31.3625Q206.87813 30.065624 206.33125 29.409374Q205.4875 28.39375 204.14375 28.39375Q202.94063 28.39375 202.1125 29.20625Q201.28438 30.003124 201.19063 31.3625ZM216.22188 32.3625Q216.22188 29.4875 217.81563 28.096874Q219.15938 26.940624 221.08125 26.940624Q223.22188 26.940624 224.56563 28.346874Q225.925 29.753124 225.925 32.221874Q225.925 34.221874 225.33125 35.378124Q224.7375 36.51875 223.58125 37.159374Q222.44063 37.784374 221.08125 37.784374Q218.89375 37.784374 217.55 36.39375Q216.22188 34.9875 216.22188 32.3625ZM218.01875 32.3625Q218.01875 34.3625 218.87813 35.346874Q219.75313 36.33125 221.08125 36.33125Q222.39375 36.33125 223.25313 35.346874Q224.12813 34.346874 224.12813 32.3Q224.12813 30.378124 223.25313 29.39375Q222.37813 28.39375 221.08125 28.39375Q219.75313 28.39375 218.87813 29.39375Q218.01875 30.378124 218.01875 32.3625ZM227.8625 37.55L227.8625 27.175L229.45625 27.175L229.45625 28.659374Q230.59688 26.940624 232.75313 26.940624Q233.69063 26.940624 234.47188 27.284374Q235.26875 27.6125 235.65938 28.159374Q236.05 28.70625 236.20625 29.45625Q236.3 29.95625 236.3 31.175L236.3 37.55L234.53438 37.55L234.53438 31.2375Q234.53438 30.159374 234.33125 29.628124Q234.12813 29.096874 233.59688 28.784374Q233.08125 28.471874 232.37813 28.471874Q231.25313 28.471874 230.44063 29.190624Q229.62813 29.89375 229.62813 31.878124L229.62813 37.55L227.8625 37.55ZM244.45625 32.95625L246.2375 32.8Q246.3625 33.8625 246.81563 34.55Q247.28438 35.2375 248.25313 35.675Q249.2375 36.096874 250.47188 36.096874Q251.55 36.096874 252.37813 35.784374Q253.20625 35.45625 253.6125 34.89375Q254.01875 34.33125 254.01875 33.659374Q254.01875 32.9875 253.62813 32.4875Q253.2375 31.9875 252.34688 31.64375Q251.76875 31.409374 249.78438 30.940624Q247.81563 30.471874 247.03438 30.05Q246.00313 29.51875 245.50313 28.721874Q245.00313 27.925 245.00313 26.940624Q245.00313 25.846874 245.6125 24.909374Q246.22188 23.971874 247.40938 23.4875Q248.59688 22.9875 250.03438 22.9875Q251.62813 22.9875 252.84688 23.503124Q254.06563 24.01875 254.70625 25.01875Q255.3625 26.003124 255.40938 27.26875L253.59688 27.409374Q253.45625 26.05 252.6125 25.3625Q251.76875 24.659374 250.1125 24.659374Q248.39375 24.659374 247.59688 25.3Q246.81563 25.925 246.81563 26.8Q246.81563 27.58125 247.37813 28.08125Q247.925 28.58125 250.2375 29.096874Q252.55 29.6125 253.40938 30.003124Q254.65938 30.58125 255.25313 31.471874Q255.84688 32.346874 255.84688 33.503124Q255.84688 34.64375 255.19063 35.659374Q254.53438 36.675 253.3 37.2375Q252.08125 37.8 250.55 37.8Q248.6125 37.8 247.3 37.2375Q245.9875 36.659374 245.2375 35.51875Q244.4875 34.378124 244.45625 32.95625ZM264.64374 36.26875Q263.65936 37.096874 262.7531 37.440624Q261.84686 37.784374 260.8156 37.784374Q259.1125 37.784374 258.1906 36.95625Q257.26874 36.1125 257.26874 34.815624Q257.26874 34.05 257.6125 33.425Q257.97186 32.8 258.53436 32.425Q259.09686 32.034374 259.8 31.83125Q260.3156 31.70625 261.3625 31.565624Q263.4875 31.315624 264.4875 30.971874Q264.5031 30.6125 264.5031 30.503124Q264.5031 29.440624 264.0031 28.9875Q263.33124 28.39375 262.0031 28.39375Q260.7531 28.39375 260.15936 28.83125Q259.58124 29.26875 259.3 30.378124L257.58124 30.14375Q257.8156 29.034374 258.34686 28.3625Q258.8781 27.675 259.89374 27.315624Q260.90936 26.940624 262.2531 26.940624Q263.58124 26.940624 264.40936 27.253124Q265.2375 27.565624 265.6281 28.05Q266.01874 28.51875 266.175 29.2375Q266.26874 29.690624 266.26874 30.8625L266.26874 33.20625Q266.26874 35.659374 266.3781 36.315624Q266.4875 36.95625 266.83124 37.55L264.9875 37.55Q264.72186 37.003124 264.64374 36.26875ZM264.4875 32.346874Q263.53436 32.7375 261.6125 33.003124Q260.53436 33.159374 260.08124 33.3625Q259.64374 33.55 259.39374 33.925Q259.14374 34.3 259.14374 34.76875Q259.14374 35.471874 259.675 35.940624Q260.20624 36.409374 261.2375 36.409374Q262.2531 36.409374 263.03436 35.971874Q263.83124 35.51875 264.20624 34.753124Q264.4875 34.14375 264.4875 32.9875L264.4875 32.346874ZM271.7531 37.55L267.8 27.175L269.65936 27.175L271.89374 33.39375Q272.2531 34.39375 272.55 35.471874Q272.78436 34.659374 273.20624 33.503124L275.5031 27.175L277.3156 27.175L273.39374 37.55L271.7531 37.55ZM278.8625 25.26875L278.8625 23.2375L280.6125 23.2375L280.6125 25.26875L278.8625 25.26875ZM276.6281 41.58125L276.95624 40.08125Q277.4875 40.221874 277.8 40.221874Q278.33124 40.221874 278.59686 39.8625Q278.8625 39.503124 278.8625 38.08125L278.8625 27.175L280.6125 27.175L280.6125 38.1125Q280.6125 40.034374 280.1125 40.784374Q279.4875 41.753124 278.0031 41.753124Q277.3 41.753124 276.6281 41.58125ZM289.97186 34.20625L291.78436 34.440624Q291.3625 36.01875 290.1906 36.909374Q289.03436 37.784374 287.22186 37.784374Q284.95624 37.784374 283.6125 36.39375Q282.28436 34.9875 282.28436 32.45625Q282.28436 29.83125 283.6281 28.39375Q284.97186 26.940624 287.1281 26.940624Q289.20624 26.940624 290.51874 28.3625Q291.84686 29.76875 291.84686 32.346874Q291.84686 32.503124 291.83124 32.815624L284.09686 32.815624Q284.1906 34.51875 285.0656 35.425Q285.9406 36.33125 287.2375 36.33125Q288.20624 36.33125 288.8781 35.83125Q289.5656 35.315624 289.97186 34.20625ZM284.1906 31.3625L289.9875 31.3625Q289.8781 30.065624 289.33124 29.409374Q288.4875 28.39375 287.14374 28.39375Q285.9406 28.39375 285.1125 29.20625Q284.28436 30.003124 284.1906 31.3625ZM300.97186 34.20625L302.78436 34.440624Q302.3625 36.01875 301.1906 36.909374Q300.03436 37.784374 298.22186 37.784374Q295.95624 37.784374 294.6125 36.39375Q293.28436 34.9875 293.28436 32.45625Q293.28436 29.83125 294.6281 28.39375Q295.97186 26.940624 298.1281 26.940624Q300.20624 26.940624 301.51874 28.3625Q302.84686 29.76875 302.84686 32.346874Q302.84686 32.503124 302.83124 32.815624L295.09686 32.815624Q295.1906 34.51875 296.0656 35.425Q296.9406 36.33125 298.2375 36.33125Q299.20624 36.33125 299.8781 35.83125Q300.5656 35.315624 300.97186 34.20625ZM295.1906 31.3625L300.9875 31.3625Q300.8781 30.065624 300.33124 29.409374Q299.4875 28.39375 298.14374 28.39375Q296.9406 28.39375 296.1125 29.20625Q295.28436 30.003124 295.1906 31.3625ZM305.3625 37.55L305.3625 35.55L307.3625 35.55L307.3625 37.55L305.3625 37.55ZM312.4875 37.55L310.8625 37.55L310.8625 23.2375L312.6125 23.2375L312.6125 28.346874Q313.7375 26.940624 315.45624 26.940624Q316.40936 26.940624 317.26874 27.33125Q318.1281 27.721874 318.675 28.425Q319.22186 29.1125 319.53436 30.096874Q319.84686 31.08125 319.84686 32.20625Q319.84686 34.878124 318.53436 36.33125Q317.22186 37.784374 315.3781 37.784374Q313.53436 37.784374 312.4875 36.253124L312.4875 37.55ZM312.47186 32.284374Q312.47186 34.14375 312.97186 34.9875Q313.8156 36.33125 315.22186 36.33125Q316.3781 36.33125 317.20624 35.33125Q318.05 34.33125 318.05 32.346874Q318.05 30.315624 317.2375 29.3625Q316.4406 28.39375 315.3 28.39375Q314.14374 28.39375 313.3 29.39375Q312.47186 30.39375 312.47186 32.284374ZM328.97186 34.20625L330.78436 34.440624Q330.3625 36.01875 329.1906 36.909374Q328.03436 37.784374 326.22186 37.784374Q323.95624 37.784374 322.6125 36.39375Q321.28436 34.9875 321.28436 32.45625Q321.28436 29.83125 322.6281 28.39375Q323.97186 26.940624 326.1281 26.940624Q328.20624 26.940624 329.51874 28.3625Q330.84686 29.76875 330.84686 32.346874Q330.84686 32.503124 330.83124 32.815624L323.09686 32.815624Q323.1906 34.51875 324.0656 35.425Q324.9406 36.33125 326.2375 36.33125Q327.20624 36.33125 327.8781 35.83125Q328.5656 35.315624 328.97186 34.20625ZM323.1906 31.3625L328.9875 31.3625Q328.8781 30.065624 328.33124 29.409374Q327.4875 28.39375 326.14374 28.39375Q324.9406 28.39375 324.1125 29.20625Q323.28436 30.003124 323.1906 31.3625ZM342.22186 41.753124Q340.76874 39.925 339.76874 37.471874Q338.76874 35.003124 338.76874 32.3625Q338.76874 30.034374 339.51874 27.909374Q340.39374 25.440624 342.22186 22.9875L343.4875 22.9875Q342.3 25.01875 341.925 25.89375Q341.33124 27.2375 340.9875 28.70625Q340.5656 30.534374 340.5656 32.378124Q340.5656 37.065624 343.4875 41.753124L342.22186 41.753124ZM346.09686 37.55L346.09686 23.2375L351.4875 23.2375Q352.925 23.2375 353.675 23.3625Q354.72186 23.55 355.4406 24.05Q356.15936 24.534374 356.58124 25.425Q357.01874 26.315624 357.01874 27.378124Q357.01874 29.20625 355.84686 30.471874Q354.6906 31.721874 351.65936 31.721874L347.9875 31.721874L347.9875 37.55L346.09686 37.55ZM347.9875 30.034374L351.6906 30.034374Q353.51874 30.034374 354.28436 29.3625Q355.0656 28.675 355.0656 27.425Q355.0656 26.534374 354.6125 25.89375Q354.15936 25.253124 353.425 25.05Q352.9406 24.925 351.64374 24.925L347.9875 24.925L347.9875 30.034374ZM358.83124 37.55L358.83124 23.2375L360.58124 23.2375L360.58124 37.55L358.83124 37.55ZM369.64374 36.26875Q368.65936 37.096874 367.7531 37.440624Q366.84686 37.784374 365.8156 37.784374Q364.1125 37.784374 363.1906 36.95625Q362.26874 36.1125 362.26874 34.815624Q362.26874 34.05 362.6125 33.425Q362.97186 32.8 363.53436 32.425Q364.09686 32.034374 364.8 31.83125Q365.3156 31.70625 366.3625 31.565624Q368.4875 31.315624 369.4875 30.971874Q369.5031 30.6125 369.5031 30.503124Q369.5031 29.440624 369.0031 28.9875Q368.33124 28.39375 367.0031 28.39375Q365.7531 28.39375 365.15936 28.83125Q364.58124 29.26875 364.3 30.378124L362.58124 30.14375Q362.8156 29.034374 363.34686 28.3625Q363.8781 27.675 364.89374 27.315624Q365.90936 26.940624 367.2531 26.940624Q368.58124 26.940624 369.40936 27.253124Q370.2375 27.565624 370.6281 28.05Q371.01874 28.51875 371.175 29.2375Q371.26874 29.690624 371.26874 30.8625L371.26874 33.20625Q371.26874 35.659374 371.3781 36.315624Q371.4875 36.95625 371.83124 37.55L369.9875 37.55Q369.72186 37.003124 369.64374 36.26875ZM369.4875 32.346874Q368.53436 32.7375 366.6125 33.003124Q365.53436 33.159374 365.08124 33.3625Q364.64374 33.55 364.39374 33.925Q364.14374 34.3 364.14374 34.76875Q364.14374 35.471874 364.675 35.940624Q365.20624 36.409374 366.2375 36.409374Q367.2531 36.409374 368.03436 35.971874Q368.83124 35.51875 369.20624 34.753124Q369.4875 34.14375 369.4875 32.9875L369.4875 32.346874ZM380.65936 37.55L380.65936 36.01875Q379.45624 37.784374 377.3781 37.784374Q376.45624 37.784374 375.65936 37.440624Q374.8625 37.08125 374.47186 36.55Q374.09686 36.01875 373.9406 35.2375Q373.83124 34.721874 373.83124 33.596874L373.83124 27.175L375.58124 27.175L375.58124 32.925Q375.58124 34.3 375.6906 34.784374Q375.8625 35.471874 376.39374 35.878124Q376.9406 36.26875 377.72186 36.26875Q378.51874 36.26875 379.20624 35.8625Q379.90936 35.45625 380.1906 34.76875Q380.4875 34.065624 380.4875 32.7375L380.4875 27.175L382.2375 27.175L382.2375 37.55L380.65936 37.55ZM384.15936 34.45625L385.90936 34.175Q386.05 35.221874 386.72186 35.784374Q387.39374 36.33125 388.59686 36.33125Q389.8 36.33125 390.3781 35.846874Q390.97186 35.346874 390.97186 34.690624Q390.97186 34.096874 390.45624 33.753124Q390.09686 33.51875 388.65936 33.159374Q386.72186 32.659374 385.97186 32.315624Q385.2375 31.95625 384.84686 31.33125Q384.45624 30.690624 384.45624 29.925Q384.45624 29.2375 384.76874 28.64375Q385.09686 28.05 385.64374 27.659374Q386.05 27.3625 386.7531 27.159374Q387.47186 26.940624 388.28436 26.940624Q389.5031 26.940624 390.425 27.3Q391.34686 27.64375 391.78436 28.253124Q392.22186 28.846874 392.39374 29.846874L390.675 30.08125Q390.55 29.284374 389.9875 28.846874Q389.425 28.39375 388.40936 28.39375Q387.1906 28.39375 386.675 28.8Q386.15936 29.190624 386.15936 29.721874Q386.15936 30.065624 386.3781 30.346874Q386.58124 30.628124 387.05 30.815624Q387.3156 30.909374 388.59686 31.253124Q390.47186 31.753124 391.20624 32.08125Q391.9406 32.39375 392.3625 33.003124Q392.78436 33.596874 392.78436 34.503124Q392.78436 35.378124 392.26874 36.159374Q391.7531 36.940624 390.78436 37.3625Q389.8156 37.784374 388.59686 37.784374Q386.58124 37.784374 385.51874 36.940624Q384.45624 36.096874 384.15936 34.45625ZM394.8781 25.253124L394.8781 23.2375L396.64374 23.2375L396.64374 25.253124L394.8781 25.253124ZM394.8781 37.55L394.8781 27.175L396.64374 27.175L396.64374 37.55L394.8781 37.55ZM400.4875 37.55L398.8625 37.55L398.8625 23.2375L400.6125 23.2375L400.6125 28.346874Q401.7375 26.940624 403.45624 26.940624Q404.40936 26.940624 405.26874 27.33125Q406.1281 27.721874 406.675 28.425Q407.22186 29.1125 407.53436 30.096874Q407.84686 31.08125 407.84686 32.20625Q407.84686 34.878124 406.53436 36.33125Q405.22186 37.784374 403.3781 37.784374Q401.53436 37.784374 400.4875 36.253124L400.4875 37.55ZM400.47186 32.284374Q400.47186 34.14375 400.97186 34.9875Q401.8156 36.33125 403.22186 36.33125Q404.3781 36.33125 405.20624 35.33125Q406.05 34.33125 406.05 32.346874Q406.05 30.315624 405.2375 29.3625Q404.4406 28.39375 403.3 28.39375Q402.14374 28.39375 401.3 29.39375Q400.47186 30.39375 400.47186 32.284374ZM409.83124 37.55L409.83124 23.2375L411.58124 23.2375L411.58124 37.55L409.83124 37.55ZM420.97186 34.20625L422.78436 34.440624Q422.3625 36.01875 421.1906 36.909374Q420.03436 37.784374 418.22186 37.784374Q415.95624 37.784374 414.6125 36.39375Q413.28436 34.9875 413.28436 32.45625Q413.28436 29.83125 414.6281 28.39375Q415.97186 26.940624 418.1281 26.940624Q420.20624 26.940624 421.51874 28.3625Q422.84686 29.76875 422.84686 32.346874Q422.84686 32.503124 422.83124 32.815624L415.09686 32.815624Q415.1906 34.51875 416.0656 35.425Q416.9406 36.33125 418.2375 36.33125Q419.20624 36.33125 419.8781 35.83125Q420.5656 35.315624 420.97186 34.20625ZM415.1906 31.3625L420.9875 31.3625Q420.8781 30.065624 420.33124 29.409374Q419.4875 28.39375 418.14374 28.39375Q416.9406 28.39375 416.1125 29.20625Q415.28436 30.003124 415.1906 31.3625ZM429.51874 37.55L435.01874 23.2375L437.0656 23.2375L442.925 37.55L440.76874 37.55L439.09686 33.20625L433.1125 33.20625L431.53436 37.55L429.51874 37.55ZM433.65936 31.675L438.5031 31.675L437.01874 27.70625Q436.33124 25.89375 436.0031 24.7375Q435.72186 26.1125 435.22186 27.471874L433.65936 31.675ZM443.8625 37.55L443.8625 27.175L445.45624 27.175L445.45624 28.659374Q446.59686 26.940624 448.7531 26.940624Q449.6906 26.940624 450.47186 27.284374Q451.26874 27.6125 451.65936 28.159374Q452.05 28.70625 452.20624 29.45625Q452.3 29.95625 452.3 31.175L452.3 37.55L450.53436 37.55L450.53436 31.2375Q450.53436 30.159374 450.33124 29.628124Q450.1281 29.096874 449.59686 28.784374Q449.08124 28.471874 448.3781 28.471874Q447.2531 28.471874 446.4406 29.190624Q445.6281 29.89375 445.6281 31.878124L445.6281 37.55L443.8625 37.55ZM461.64374 36.26875Q460.65936 37.096874 459.7531 37.440624Q458.84686 37.784374 457.8156 37.784374Q456.1125 37.784374 455.1906 36.95625Q454.26874 36.1125 454.26874 34.815624Q454.26874 34.05 454.6125 33.425Q454.97186 32.8 455.53436 32.425Q456.09686 32.034374 456.8 31.83125Q457.3156 31.70625 458.3625 31.565624Q460.4875 31.315624 461.4875 30.971874Q461.5031 30.6125 461.5031 30.503124Q461.5031 29.440624 461.0031 28.9875Q460.33124 28.39375 459.0031 28.39375Q457.7531 28.39375 457.15936 28.83125Q456.58124 29.26875 456.3 30.378124L454.58124 30.14375Q454.8156 29.034374 455.34686 28.3625Q455.8781 27.675 456.89374 27.315624Q457.90936 26.940624 459.2531 26.940624Q460.58124 26.940624 461.40936 27.253124Q462.2375 27.565624 462.6281 28.05Q463.01874 28.51875 463.175 29.2375Q463.26874 29.690624 463.26874 30.8625L463.26874 33.20625Q463.26874 35.659374 463.3781 36.315624Q463.4875 36.95625 463.83124 37.55L461.9875 37.55Q461.72186 37.003124 461.64374 36.26875ZM461.4875 32.346874Q460.53436 32.7375 458.6125 33.003124Q457.53436 33.159374 457.08124 33.3625Q456.64374 33.55 456.39374 33.925Q456.14374 34.3 456.14374 34.76875Q456.14374 35.471874 456.675 35.940624Q457.20624 36.409374 458.2375 36.409374Q459.2531 36.409374 460.03436 35.971874Q460.83124 35.51875 461.20624 34.753124Q461.4875 34.14375 461.4875 32.9875L461.4875 32.346874ZM465.83124 37.55L465.83124 23.2375L467.58124 23.2375L467.58124 37.55L465.83124 37.55ZM469.78436 41.55L469.59686 39.89375Q470.175 40.05 470.59686 40.05Q471.1906 40.05 471.53436 39.846874Q471.89374 39.659374 472.1125 39.315624Q472.28436 39.05 472.65936 38.003124Q472.70624 37.846874 472.8156 37.565624L468.8781 27.175L470.76874 27.175L472.925 33.190624Q473.34686 34.33125 473.675 35.58125Q473.9875 34.378124 474.39374 33.221874L476.6125 27.175L478.3781 27.175L474.425 37.721874Q473.8 39.440624 473.4406 40.08125Q472.97186 40.95625 472.3625 41.346874Q471.76874 41.753124 470.925 41.753124Q470.40936 41.753124 469.78436 41.55ZM483.70624 35.971874L483.95624 37.534374Q483.22186 37.690624 482.6281 37.690624Q481.675 37.690624 481.14374 37.39375Q480.6281 37.08125 480.40936 36.596874Q480.1906 36.096874 480.1906 34.51875L480.1906 28.55L478.90936 28.55L478.90936 27.175L480.1906 27.175L480.1906 24.6125L481.9406 23.55L481.9406 27.175L483.70624 27.175L483.70624 28.55L481.9406 28.55L481.9406 34.6125Q481.9406 35.3625 482.03436 35.58125Q482.1281 35.784374 482.33124 35.925Q482.55 36.05 482.9406 36.05Q483.22186 36.05 483.70624 35.971874ZM485.8781 25.253124L485.8781 23.2375L487.64374 23.2375L487.64374 25.253124L485.8781 25.253124ZM485.8781 37.55L485.8781 27.175L487.64374 27.175L487.64374 37.55L485.8781 37.55ZM496.64374 33.753124L498.3625 33.971874Q498.08124 35.76875 496.90936 36.784374Q495.7531 37.784374 494.05 37.784374Q491.925 37.784374 490.6281 36.39375Q489.33124 35.003124 489.33124 32.409374Q489.33124 30.721874 489.8781 29.471874Q490.4406 28.20625 491.58124 27.58125Q492.72186 26.940624 494.0656 26.940624Q495.7531 26.940624 496.8156 27.8Q497.89374 28.659374 498.20624 30.221874L496.4875 30.4875Q496.2531 29.440624 495.6281 28.925Q495.0031 28.39375 494.1281 28.39375Q492.8 28.39375 491.97186 29.346874Q491.14374 30.3 491.14374 32.346874Q491.14374 34.440624 491.9406 35.39375Q492.7375 36.33125 494.03436 36.33125Q495.0656 36.33125 495.7531 35.70625Q496.45624 35.065624 496.64374 33.753124ZM499.15936 34.45625L500.90936 34.175Q501.05 35.221874 501.72186 35.784374Q502.39374 36.33125 503.59686 36.33125Q504.8 36.33125 505.3781 35.846874Q505.97186 35.346874 505.97186 34.690624Q505.97186 34.096874 505.45624 33.753124Q505.09686 33.51875 503.65936 33.159374Q501.72186 32.659374 500.97186 32.315624Q500.2375 31.95625 499.84686 31.33125Q499.45624 30.690624 499.45624 29.925Q499.45624 29.2375 499.76874 28.64375Q500.09686 28.05 500.64374 27.659374Q501.05 27.3625 501.7531 27.159374Q502.47186 26.940624 503.28436 26.940624Q504.5031 26.940624 505.425 27.3Q506.34686 27.64375 506.78436 28.253124Q507.22186 28.846874 507.39374 29.846874L505.675 30.08125Q505.55 29.284374 504.9875 28.846874Q504.425 28.39375 503.40936 28.39375Q502.1906 28.39375 501.675 28.8Q501.15936 29.190624 501.15936 29.721874Q501.15936 30.065624 501.3781 30.346874Q501.58124 30.628124 502.05 30.815624Q502.3156 30.909374 503.59686 31.253124Q505.47186 31.753124 506.20624 32.08125Q506.9406 32.39375 507.3625 33.003124Q507.78436 33.596874 507.78436 34.503124Q507.78436 35.378124 507.26874 36.159374Q506.7531 36.940624 505.78436 37.3625Q504.8156 37.784374 503.59686 37.784374Q501.58124 37.784374 500.51874 36.940624Q499.45624 36.096874 499.15936 34.45625ZM511.01874 41.753124L509.76874 41.753124Q512.675 37.065624 512.675 32.378124Q512.675 30.534374 512.26874 28.7375Q511.925 27.26875 511.33124 25.925Q510.95624 25.034374 509.76874 22.9875L511.01874 22.9875Q512.8625 25.440624 513.7375 27.909374Q514.4875 30.034374 514.4875 32.3625Q514.4875 35.003124 513.47186 37.471874Q512.47186 39.925 511.01874 41.753124Z" fill-rule="nonzero"/></svg>