<svg height="421" viewBox="0 0 720 421" width="720" xmlns="http://www.w3.org/2000/svg"><g fill="none" fill-rule="evenodd"><path d="m0 0h720v421h-720z" fill="#fff"/><path d="m20.5 88.5h323v57h-323z" fill="#d8d8d8" stroke="#979797"/><path d="m20.5 328.5h323v57h-323z" fill="#d8d8d8" stroke="#979797"/><path d="m377.5 88.5h323v57h-323z" fill="#d8d8d8" stroke="#979797"/><path d="m377.5 328.5h323v57h-323z" fill="#d8d8d8" stroke="#979797"/><path d="m173.071777 129v-3.061523h-5.815429v-21.225586h-4.423828v24.287109zm12.583008 0v-3.061523h-5.81543v-8.012696h4.541016v-3.120117h-4.541016v-6.972656h5.742188v-3.120117h-10.166016v24.287109zm8.378906 0c1.40625 0 2.592774-.158691 3.559571-.476074s1.740722-.812988 2.321777-1.486817c.581055-.673828.998535-1.49414 1.252441-2.460937.253907-.966797.38086-2.143555.38086-3.530274v-8.759765c0-1.347656-.124512-2.48291-.373535-3.405762-.249024-.922851-.671387-1.70166-1.26709-2.336426-.595703-.634765-1.386719-1.098633-2.373047-1.391601-.986328-.292969-2.211914-.439453-3.676758-.439453h-5.654297v24.287109zm-.146484-3.105469h-1.259766v-18.017578h1.215821c.498047 0 .922851.031738 1.274414.095215.351562.063477.644531.175781.878906.336914s.422363.339356.563965.534668c.141601.195312.249023.471191.322265.827637.073243.356445.119629.710449.139161 1.062011.019531.351563.029297.81543.029297 1.391602v8.876953c0 .576172-.004883 1.010742-.014649 1.303711s-.03418.646973-.073242 1.062012c-.039063.415039-.097656.725097-.175781.930176-.078125.205078-.192871.429687-.344239.673828-.151367.24414-.339355.419922-.563964.527343-.22461.107422-.50293.200196-.834961.278321-.332032.078125-.717774.117187-1.157227.117187z" fill="#2e6fb2" fill-rule="nonzero"/><path d="m107.732422 57v-3.0615234h-5.81543v-21.225586h-4.4238279v24.2871094zm7.30957.2783203c1.875 0 3.273926-.5249023 4.196778-1.574707.922851-1.0498047 1.384277-2.5512695 1.384277-4.5043945v-5.7275391c0-1.953125-.461426-3.4545899-1.384277-4.5043945-.922852-1.0498047-2.321778-1.5747071-4.196778-1.5747071-1.865234 0-3.254394.5249024-4.16748 1.5747071-.913086 1.0498046-1.369629 2.5512695-1.369629 4.5043945v5.7275391c0 1.953125.456543 3.4545898 1.369629 4.5043945s2.302246 1.574707 4.16748 1.574707zm.014649-2.8857422c-.273438 0-.50293-.0561523-.688477-.168457s-.332031-.2490234-.439453-.4101563c-.107422-.1611328-.187988-.3808593-.241699-.6591796-.053711-.2783204-.087891-.5371094-.102539-.7763672-.014649-.2392578-.021973-.5395508-.021973-.9008789v-6.2841797c0-.4589844.014648-.8325196.043945-1.1206055s.090332-.5859375.183106-.8935547c.092773-.3076172.24414-.5371094.454101-.6884765.209961-.1513672.480957-.2270508.812989-.2270508.273437 0 .502929.0561523.688476.168457s.332031.2490234.439453.4101563c.107422.1611328.187989.3833007.2417.6665039.05371.2832031.08789.5444336.102539.7836914.014648.2392578.021972.5395507.021972.9008789v6.2841797c0 .4589843-.014648.8325195-.043945 1.1206054-.029297.288086-.090332.5859375-.183106.8935547-.092773.3076172-.24414.534668-.454101.6811524-.209961.1464843-.480957.2197265-.812988.2197265zm13.769531 2.6074219 1.992187-10.8544922 1.904297 10.8544922h3.47168l2.753906-17.34375h-3.251953l-1.611328 11.3085938-1.743164-11.3085938h-3.00293l-1.845703 11.2353516-1.494141-11.2353516h-3.383789l2.666016 17.34375zm26.52832.2929688c1.00586 0 1.889649-.119629 2.651367-.3588868.761719-.2392578 1.386719-.5688476 1.875-.9887695.488282-.4199219.886231-.9472656 1.193848-1.5820313.307617-.6347656.524902-1.3134765.651855-2.0361328.126954-.7226562.19043-1.5380859.19043-2.446289v-1.9921875h-4.262695l-.000293 2.3923828c-.000781.2859375-.003125.51875-.007031.6984375-.004883.2246094-.021973.4980469-.05127.8203125s-.073242.5737305-.131836.7543945c-.058594.1806641-.144043.3759766-.256347.5859375-.112305.209961-.249024.3710938-.410157.4833985-.161133.1123046-.361328.2050781-.600586.2783203-.239257.0732422-.515136.1098633-.827636.1098633-.917969 0-1.555176-.3027344-1.911621-.9082032-.356446-.6054687-.534668-1.6210937-.534668-3.046875v-10.2832031c0-.4492187.007324-.8203125.021972-1.1132813.014649-.2929687.048828-.6127929.102539-.9594726s.134278-.6274414.241699-.8422852c.107422-.2148437.249024-.4174804.424805-.6079101s.402832-.3295899.681153-.4174805c.27832-.0878906.603027-.1318359.974121-.1318359h.234375c.986328.0585937 1.606445.4980469 1.860351 1.3183593.126953.4199219.19043 1.2353516.19043 2.4462891v2.0654297h4.262695v-2.0800781c0-1.1132813-.112304-2.0874024-.336914-2.9223633-.224609-.8349609-.585937-1.5649414-1.083984-2.1899414s-1.176758-1.0986328-2.036133-1.4208984c-.859375-.3222657-1.894531-.4833985-3.105469-.4833985-1.054687 0-1.97998.1269531-2.775879.3808594-.795898.2539062-1.455078.6054687-1.977539 1.0546875-.522461.4492187-.944824 1.0229492-1.26709 1.7211914-.322265.6982422-.551757 1.4550781-.688476 2.2705078s-.205078 1.7504883-.205078 2.8051758v8.4667969c0 .9960937.065918 1.8920898.197754 2.6879882.131836.7958985.361328 1.5405274.688476 2.2338868.327149.6933593.751953 1.274414 1.274414 1.743164s1.184082.834961 1.984864 1.0986328c.800781.2636719 1.723632.3955079 2.768554.3955079zm16.230469 0c1.269531 0 2.358398-.1806641 3.266601-.5419922.908204-.3613282 1.633301-.8959961 2.175293-1.6040039.541993-.7080079.9375-1.5429688 1.186524-2.5048829.249023-.961914.373535-2.0776367.373535-3.3471679v-8.9648438c0-2.5878906-.544434-4.5507812-1.633301-5.8886719-1.088867-1.3378906-2.878418-2.0068359-5.368652-2.0068359-1.279297 0-2.373047.1733399-3.28125.5200195-.908203.3466797-1.633301.8666993-2.175293 1.5600586-.541992.6933594-.935059 1.5136719-1.179199 2.4609375-.244141.9472657-.366211 2.0654297-.366211 3.3544922v8.9648438c0 2.6171875.541992 4.6044922 1.625976 5.961914 1.083985 1.3574219 2.875977 2.0361329 5.375977 2.0361329zm0-3.28125c-.429688 0-.800781-.0634766-1.113281-.1904297-.302735-.1269532-.541992-.2929688-.717774-.4980469-.175781-.2050781-.314941-.4736328-.41748-.8056641-.102539-.3320312-.170899-.6640625-.205078-.9960937-.03418-.3320313-.05127-.7275391-.05127-1.1865235v-11.0302734c0-.5859375.029297-1.0742187.087891-1.4648437.058593-.390625.170898-.7592774.336914-1.1059571.166015-.3466797.422363-.6054687.769043-.7763672.346679-.1708984.783691-.2563476 1.311035-.2563476s.961914.0854492 1.303711.2563476c.341797.1708985.598144.4296875.769043.7763672.170898.3466797.285644.7153321.344238 1.1059571s.087891.8789062.087891 1.4648437v11.0302734c0 .4589844-.01709.8544922-.05127 1.1865235-.034179.3320312-.102539.6640625-.205078.9960937-.102539.3320313-.244141.600586-.424805.8056641s-.422363.3710937-.725097.4980469c-.302735.1269531-.668946.1904297-1.098633.1904297zm21.855469 2.9882812v-3.3544922h-7.280274l4.995117-7.602539c.029297-.0488282.063477-.1000977.102539-.1538086.039063-.053711.070801-.1000977.095215-.1391602s.061035-.0927734.109864-.1611328c.429687-.6347656.766601-1.1523438 1.010742-1.5527344.24414-.4003906.507812-.8935547.791015-1.4794922.283204-.5859375.488282-1.1865234.615235-1.8017578s.190429-1.2695312.190429-1.9628906c0-2.03125-.524902-3.6010742-1.574707-4.7094727-1.049804-1.1083984-2.600097-1.6625976-4.650878-1.6625976-1.113282 0-2.08252.1757812-2.907715.5273437-.825196.3515625-1.481934.859375-1.970215 1.5234375s-.849609 1.4331055-1.083985 2.3071289c-.234374.8740235-.351562 1.8676758-.351562 2.9809571v1.040039h4.101562v-1.0107422c0-2.5292968.742188-3.828125 2.226563-3.8964843.703125-.0390625 1.223145.1904296 1.560059.6884765s.505371 1.225586.505371 2.1826172c0 .46875-.041504.9106445-.124512 1.3256836s-.239258.859375-.46875 1.3330078-.407715.8251953-.534668 1.0546875-.385742.6347656-.776367 1.2158203-.629883.9448243-.717774 1.0913086l-5.932617 9.2871094v2.9296875zm14.838867 0v-24.2871094h-4.101563v24.2871094zm8.481445.2783203c1.767578 0 3.098145-.4760742 3.991699-1.4282226.893555-.9521485 1.340332-2.3266602 1.340332-4.1235352v-.6884766h-3.881835v.9960938c0 .7324219-.107422 1.2915039-.322266 1.6772461s-.595703.5786133-1.142578.5786133c-.234375 0-.439453-.0341797-.615235-.1025391-.175781-.0683594-.317382-.1831055-.424804-.3442383s-.192871-.3198242-.256348-.4760742-.109863-.3759766-.13916-.6591797-.046387-.5249023-.05127-.7250976c-.004882-.2001954-.007324-.4809571-.007324-.8422852v-2.6074219h6.855469v-2.2705078c0-1.1328125-.083008-2.1020508-.249024-2.9077148-.166015-.8056641-.446777-1.5161133-.842285-2.1313477s-.947265-1.0742187-1.655273-1.3769531-1.57959-.4541016-2.614746-.4541016c-1.953125 0-3.369141.546875-4.248047 1.640625s-1.318359 2.709961-1.318359 4.8486328v4.9072266c0 2.1386719.43457 3.7548828 1.30371 4.8486328.869141 1.09375 2.294922 1.640625 4.277344 1.640625zm1.450196-10.7958984h-2.958985v-1.1279297c0-1.1328125.102539-1.9140625.307617-2.34375s.590821-.6445313 1.157227-.6445313c.556641 0 .944824.1904297 1.164551.5712891.219726.3808594.32959 1.0107422.32959 1.8896484zm13.535156 10.5175781 3.354492-17.34375h-3.955078l-1.699219 12.5830078-1.713867-12.5830078h-4.013672l3.383789 17.34375zm10.517578.2783203c1.767578 0 3.098144-.4760742 3.991699-1.4282226.893555-.9521485 1.340332-2.3266602 1.340332-4.1235352v-.6884766h-3.881836v.9960938c0 .7324219-.107422 1.2915039-.322265 1.6772461-.214844.3857422-.595704.5786133-1.142579.5786133-.234375 0-.439453-.0341797-.615234-.1025391s-.317383-.1831055-.424805-.3442383-.192871-.3198242-.256347-.4760742c-.063477-.15625-.109864-.3759766-.13916-.6591797-.029297-.2832031-.046387-.5249023-.05127-.7250976-.004883-.2001954-.007324-.4809571-.007324-.8422852v-2.6074219h6.855469v-2.2705078c0-1.1328125-.083008-2.1020508-.249024-2.9077148-.166016-.8056641-.446777-1.5161133-.842285-2.1313477s-.947266-1.0742187-1.655273-1.3769531c-.708008-.3027344-1.57959-.4541016-2.614747-.4541016-1.953125 0-3.36914.546875-4.248046 1.640625-.878907 1.09375-1.31836 2.709961-1.31836 4.8486328v4.9072266c0 2.1386719.434571 3.7548828 1.303711 4.8486328.869141 1.09375 2.294922 1.640625 4.277344 1.640625zm1.450195-10.7958984h-2.958984v-1.1279297c0-1.1328125.102539-1.9140625.307617-2.34375s.59082-.6445313 1.157227-.6445313c.55664 0 .944824.1904297 1.16455.5712891.219727.3808594.32959 1.0107422.32959 1.8896484zm11.059571 10.5175781v-24.2871094h-4.101563v24.2871094zm7.719726.2783203c1.513672 0 2.756348-.402832 3.728027-1.2084961.97168-.805664 1.45752-1.940918 1.45752-3.4057617 0-.5273437-.070801-1.0205078-.212402-1.4794922-.141602-.4589844-.356446-.8886719-.644532-1.2890625s-.563965-.7397461-.827636-1.0180664c-.263672-.2783203-.595703-.5932617-.996094-.9448242l-2.373047-2.1533203c-.976562-.8496094-1.459961-1.538086-1.450195-2.0654297 0-.3808594.129394-.7080078.388183-.9814453s.603028-.4052735 1.032715-.3955078c1.015625.0097656 1.708985.9130859 2.080078 2.7099609l2.695313-1.1279297c-.253906-1.3769531-.805664-2.4755859-1.655274-3.2958984-.849609-.8203125-1.953125-1.2304688-3.310547-1.2304688-1.416015 0-2.580566.4125977-3.493652 1.237793s-1.384277 1.9311523-1.413574 3.3178711c-.039063 1.5722656.78125 3.0810547 2.460937 4.5263672l2.329102 1.9921875c1.103516.9472656 1.674805 1.7333984 1.713867 2.3583984.019531.4296875-.109863.793457-.388183 1.0913086-.278321.2978516-.632325.4516602-1.062012.4614258-.585938.0195312-1.074219-.2172852-1.464844-.7104492-.390625-.4931641-.693359-1.2182617-.908203-2.175293l-3.105469 1.1279297c.341797 1.5039062.97168 2.65625 1.889649 3.4570312.917968.8007813 2.094726 1.2011719 3.530273 1.2011719z" fill="#000" fill-rule="nonzero"/><path d="m454.354004 57v-10.9863281h4.936523v10.9863281h4.423828v-24.2871094h-4.423828v10.1513672h-4.936523v-10.1513672h-4.423828v24.2871094zm17.036133-20.0830078v-3.4570313h-4.116211v3.4570313zm-.014649 20.0830078v-17.34375h-4.101562v17.34375zm9.213867 5.2587891c2.001954 0 3.432618-.3637696 4.291993-1.0913086.859375-.7275391 1.289062-1.8579102 1.289062-3.3911133 0-1.2792969-.336914-2.2631836-1.010742-2.9516602-.673828-.6884765-1.738281-1.1108398-3.193359-1.2670898-.15625-.0195313-.69336-.0756836-1.611329-.168457-.917968-.0927735-1.435546-.1489258-1.552734-.1684571-.986328-.0976562-1.494141-.3417969-1.523437-.7324219-.019532-.2636718.136718-.6445312.46875-1.1425781.146484.0585938.466308.1293946.959472.2124024s.881348.1245117 1.164551.1245117c3.466797 0 5.200195-1.9824219 5.200195-5.9472656 0-.625-.068359-1.2475586-.205078-1.8676758s-.297851-1.1010742-.483398-1.4428711c.234375-.1464844.698242-.3515625 1.391601-.6152344.69336-.2636719 1.210938-.4394531 1.552735-.5273437l-.966797-2.2851563-.571289.2636719c-.478516.234375-.935059.5322266-1.369629.8935547s-.759277.6738281-.974121.9375c-.683594-1.1328125-1.923828-1.6992188-3.720703-1.6992188-1.748047 0-3.083496.5175781-4.006348 1.5527344s-1.384277 2.6171875-1.384277 4.7460937c0 1.2304688.161132 2.2119141.483398 2.944336s.805664 1.3427734 1.450195 1.8310547c-.751953.6152343-1.284179 1.1499023-1.596679 1.6040039-.3125.4541015-.444336.9936523-.395508 1.6186523.068359.8984375.688476 1.5478516 1.860351 1.9482422-1.630859.9960938-2.446289 2.2216797-2.446289 3.6767578 0 .3808594.078125.7250977.234375 1.0327149s.354004.5615234.593262.7617187.551758.3735352.9375.5200195c.385742.1464844.761719.2612305 1.12793.3442383s.803222.1464844 1.311035.1904297c.507812.0439453.95459.0708008 1.340332.0805664s.837402.0146485 1.35498.0146485zm-.820312-13.2275391c-.283203 0-.522461-.0537109-.717773-.1611328-.195313-.1074219-.351563-.2514649-.46875-.4321289-.117188-.1806641-.209961-.4223633-.278321-.7250977-.068359-.3027344-.112304-.6176758-.131836-.9448242-.019531-.3271484-.029297-.7250976-.029297-1.1938476 0-1.3183594.102539-2.2387696.307618-2.7612305.205078-.522461.654296-.7836914 1.347656-.7836914.683594 0 1.123047.258789 1.318359.7763672.195313.5175781.292969 1.4404297.292969 2.7685547 0 1.2890624-.102539 2.1875-.307617 2.6953124-.205078.5078126-.649414.7617188-1.333008.7617188zm.791016 10.3417969c-.888672 0-1.569825-.0512696-2.043457-.1538086-.473633-.1025391-.786133-.2416992-.9375-.4174805-.151368-.1757812-.227051-.4199219-.227051-.7324219 0-.5859375.297851-1.2255859.893554-1.9189453l2.753907.2636719c.771484.0683594 1.303711.222168 1.596679.4614258.292969.2392578.424805.6176758.395508 1.1352539-.009765.4785156-.207519.8251953-.593261 1.040039-.385743.2148438-.998536.3222657-1.838379.3222657zm12.114257-2.3730469v-13.6962891c.732422-.5566406 1.367188-.8398437 1.904297-.8496093.449219-.0097657.754395.1171875.915528.3808593.161132.2636719.241699.6689453.241699 1.2158203v12.9492188h4.086914v-13.8574219c0-.390625-.029297-.7592773-.087891-1.105957-.058593-.3466797-.158691-.6835938-.300293-1.0107422-.141601-.3271484-.317382-.6103516-.527343-.8496094s-.478516-.4296875-.805665-.571289c-.327148-.1416016-.6958-.2124024-1.105957-.2124024-1.513671 0-2.954101.6494141-4.321289 1.9482422v-8.6279297h-4.086914v24.2871094zm24.28711.2929688c1.005859 0 1.889648-.119629 2.651367-.3588868s1.386719-.5688476 1.875-.9887695.88623-.9472656 1.193848-1.5820313c.307617-.6347656.524902-1.3134765.651855-2.0361328.126953-.7226562.19043-1.5380859.19043-2.446289v-1.9921875h-4.262696v2.1679687c0 .390625-.002441.6982422-.007324.9228516s-.021972.4980469-.051269.8203125-.073242.5737305-.131836.7543945c-.058594.1806641-.144043.3759766-.256348.5859375-.112305.209961-.249023.3710938-.410156.4833985-.161133.1123046-.361328.2050781-.600586.2783203s-.515137.1098633-.827637.1098633c-.917969 0-1.555176-.3027344-1.911621-.9082032-.356445-.6054687-.534668-1.6210937-.534668-3.046875v-10.2832031c0-.4492187.007324-.8203125.021973-1.1132813.014648-.2929687.048828-.6127929.102539-.9594726s.134277-.6274414.241699-.8422852c.107422-.2148437.249024-.4174804.424805-.6079101s.402832-.3295899.681152-.4174805.603027-.1318359.974121-.1318359h.234375c.986328.0585937 1.606446.4980469 1.860352 1.3183593.126953.4199219.190429 1.2353516.190429 2.4462891v2.0654297h4.262696v-2.0800781c0-1.1132813-.112305-2.0874024-.336914-2.9223633-.22461-.8349609-.585938-1.5649414-1.083985-2.1899414s-1.176757-1.0986328-2.036132-1.4208984c-.859375-.3222657-1.894532-.4833985-3.105469-.4833985-1.054688 0-1.979981.1269531-2.775879.3808594-.795899.2539062-1.455078.6054687-1.977539 1.0546875-.522461.4492187-.944824 1.0229492-1.26709 1.7211914s-.551758 1.4550781-.688477 2.2705078c-.136718.8154297-.205078 1.7504883-.205078 2.8051758v8.4667969c0 .9960937.065918 1.8920898.197754 2.6879882.131836.7958985.361328 1.5405274.688477 2.2338868.327148.6933593.751953 1.274414 1.274414 1.743164s1.184082.834961 1.984863 1.0986328c.800781.2636719 1.723633.3955079 2.768555.3955079zm16.230469 0c1.269531 0 2.358398-.1806641 3.266601-.5419922.908203-.3613282 1.633301-.8959961 2.175293-1.6040039.541992-.7080079.9375-1.5429688 1.186523-2.5048829.249024-.961914.373536-2.0776367.373536-3.3471679v-8.9648438c0-2.5878906-.544434-4.5507812-1.633301-5.8886719-1.088867-1.3378906-2.878418-2.0068359-5.368652-2.0068359-1.279297 0-2.373047.1733399-3.28125.5200195-.908204.3466797-1.633301.8666993-2.175293 1.5600586-.541993.6933594-.935059 1.5136719-1.1792 2.4609375-.24414.9472657-.366211 2.0654297-.366211 3.3544922v8.9648438c0 2.6171875.541993 4.6044922 1.625977 5.961914 1.083984 1.3574219 2.875977 2.0361329 5.375977 2.0361329zm0-3.28125c-.429688 0-.800782-.0634766-1.113282-.1904297-.302734-.1269532-.541992-.2929688-.717773-.4980469s-.314942-.4736328-.417481-.8056641c-.102539-.3320312-.170898-.6640625-.205078-.9960937-.034179-.3320313-.051269-.7275391-.051269-1.1865235v-11.0302734c0-.5859375.029297-1.0742187.08789-1.4648437.058594-.390625.170899-.7592774.336914-1.1059571.166016-.3466797.422364-.6054687.769043-.7763672.34668-.1708984.783692-.2563476 1.311036-.2563476.527343 0 .961914.0854492 1.30371.2563476.341797.1708985.598145.4296875.769043.7763672.170899.3466797.285645.7153321.344239 1.1059571.058593.390625.08789.8789062.08789 1.4648437v11.0302734c0 .4589844-.017089.8544922-.051269 1.1865235-.03418.3320312-.102539.6640625-.205078.9960937-.102539.3320313-.244141.600586-.424805.8056641s-.422363.3710937-.725098.4980469c-.302734.1269531-.668945.1904297-1.098632.1904297zm21.855468 2.9882812v-3.3544922h-7.280273l4.995117-7.602539c.029297-.0488282.063477-.1000977.102539-.1538086.039063-.053711.070801-.1000977.095215-.1391602s.061035-.0927734.109863-.1611328c.429688-.6347656.766602-1.1523438 1.010742-1.5527344.244141-.4003906.507813-.8935547.791016-1.4794922s.488281-1.1865234.615234-1.8017578c.126954-.6152344.19043-1.2695312.19043-1.9628906 0-2.03125-.524902-3.6010742-1.574707-4.7094727-1.049805-1.1083984-2.600098-1.6625976-4.650879-1.6625976-1.113281 0-2.082519.1757812-2.907715.5273437-.825195.3515625-1.481933.859375-1.970215 1.5234375-.488281.6640625-.849609 1.4331055-1.083984 2.3071289-.234375.8740235-.351562 1.8676758-.351562 2.9809571v1.040039h4.101562v-1.0107422c0-2.5292968.742188-3.828125 2.226563-3.8964843.703125-.0390625 1.223144.1904296 1.560058.6884765s.505371 1.225586.505371 2.1826172c0 .46875-.041504.9106445-.124511 1.3256836-.083008.4150391-.239258.859375-.46875 1.3330078-.229493.4736328-.407715.8251953-.534668 1.0546875-.126954.2294922-.385743.6347656-.776368 1.2158203s-.629882.9448243-.717773 1.0913086l-5.932617 9.2871094v2.9296875zm14.838867 0v-24.2871094h-4.101562v24.2871094zm8.481446.2783203c1.767578 0 3.098144-.4760742 3.991699-1.4282226.893555-.9521485 1.340332-2.3266602 1.340332-4.1235352v-.6884766h-3.881836v.9960938c0 .7324219-.107422 1.2915039-.322266 1.6772461-.214843.3857422-.595703.5786133-1.142578.5786133-.234375 0-.439453-.0341797-.615234-.1025391s-.317383-.1831055-.424805-.3442383-.192871-.3198242-.256347-.4760742c-.063477-.15625-.109864-.3759766-.139161-.6591797-.029296-.2832031-.046386-.5249023-.051269-.7250976-.004883-.2001954-.007324-.4809571-.007324-.8422852v-2.6074219h6.855468v-2.2705078c0-1.1328125-.083007-2.1020508-.249023-2.9077148-.166016-.8056641-.446777-1.5161133-.842285-2.1313477s-.947266-1.0742187-1.655274-1.3769531c-.708007-.3027344-1.579589-.4541016-2.614746-.4541016-1.953125 0-3.36914.546875-4.248047 1.640625-.878906 1.09375-1.318359 2.709961-1.318359 4.8486328v4.9072266c0 2.1386719.43457 3.7548828 1.303711 4.8486328s2.294922 1.640625 4.277344 1.640625zm1.450195-10.7958984h-2.958984v-1.1279297c0-1.1328125.102539-1.9140625.307617-2.34375s.59082-.6445313 1.157226-.6445313c.556641 0 .944825.1904297 1.164551.5712891.219727.3808594.32959 1.0107422.32959 1.8896484zm13.535156 10.5175781 3.354493-17.34375h-3.955079l-1.699218 12.5830078-1.713868-12.5830078h-4.013671l3.383789 17.34375zm10.517578.2783203c1.767579 0 3.098145-.4760742 3.9917-1.4282226.893554-.9521485 1.340332-2.3266602 1.340332-4.1235352v-.6884766h-3.881836v.9960938c0 .7324219-.107422 1.2915039-.322266 1.6772461s-.595703.5786133-1.142578.5786133c-.234375 0-.439453-.0341797-.615234-.1025391-.175782-.0683594-.317383-.1831055-.424805-.3442383s-.192871-.3198242-.256348-.4760742c-.063476-.15625-.109863-.3759766-.13916-.6591797s-.046387-.5249023-.051269-.7250976c-.004883-.2001954-.007325-.4809571-.007325-.8422852v-2.6074219h6.855469v-2.2705078c0-1.1328125-.083008-2.1020508-.249023-2.9077148-.166016-.8056641-.446778-1.5161133-.842285-2.1313477-.395508-.6152344-.947266-1.0742187-1.655274-1.3769531s-1.57959-.4541016-2.614746-.4541016c-1.953125 0-3.369141.546875-4.248047 1.640625s-1.318359 2.709961-1.318359 4.8486328v4.9072266c0 2.1386719.43457 3.7548828 1.303711 4.8486328.86914 1.09375 2.294922 1.640625 4.277343 1.640625zm1.450196-10.7958984h-2.958985v-1.1279297c0-1.1328125.102539-1.9140625.307618-2.34375.205078-.4296875.59082-.6445313 1.157226-.6445313.556641 0 .944824.1904297 1.164551.5712891s.32959 1.0107422.32959 1.8896484zm11.05957 10.5175781v-24.2871094h-4.101562v24.2871094zm7.719727.2783203c1.513672 0 2.756347-.402832 3.728027-1.2084961.97168-.805664 1.45752-1.940918 1.45752-3.4057617 0-.5273437-.070801-1.0205078-.212403-1.4794922-.141601-.4589844-.356445-.8886719-.644531-1.2890625s-.563965-.7397461-.827637-1.0180664-.595703-.5932617-.996094-.9448242l-2.373046-2.1533203c-.976563-.8496094-1.459961-1.538086-1.450196-2.0654297 0-.3808594.129395-.7080078.388184-.9814453s.603027-.4052735 1.032715-.3955078c1.015625.0097656 1.708984.9130859 2.080078 2.7099609l2.695312-1.1279297c-.253906-1.3769531-.805664-2.4755859-1.655273-3.2958984s-1.953125-1.2304688-3.310547-1.2304688c-1.416016 0-2.580566.4125977-3.493652 1.237793s-1.384278 1.9311523-1.413575 3.3178711c-.039062 1.5722656.78125 3.0810547 2.460938 4.5263672l2.329102 1.9921875c1.103515.9472656 1.674804 1.7333984 1.713867 2.3583984.019531.4296875-.109864.793457-.388184 1.0913086s-.632324.4516602-1.062012.4614258c-.585937.0195312-1.074218-.2172852-1.464843-.7104492-.390625-.4931641-.69336-1.2182617-.908203-2.175293l-3.105469 1.1279297c.341797 1.5039062.971679 2.65625 1.889648 3.4570312.917969.8007813 2.094727 1.2011719 3.530274 1.2011719z" fill="#000" fill-rule="nonzero"/><path d="m139.39502 369c1.40625 0 2.592773-.158691 3.55957-.476074s1.740722-.812988 2.321777-1.486817c.581055-.673828.998535-1.49414 1.252442-2.460937.253906-.966797.380859-2.143555.380859-3.530274v-8.759765c0-1.347656-.124512-2.48291-.373535-3.405762-.249024-.922851-.671387-1.70166-1.26709-2.336426-.595703-.634765-1.386719-1.098633-2.373047-1.391601-.986328-.292969-2.211914-.439453-3.676758-.439453h-5.654297v24.287109zm-.146485-3.105469h-1.259765v-18.017578h1.21582c.498047 0 .922851.031738 1.274414.095215.351562.063477.644531.175781.878906.336914s.422363.339356.563965.534668.249023.471191.322266.827637c.073242.356445.119629.710449.13916 1.062011.019531.351563.029297.81543.029297 1.391602l-.000299 9.115214c-.001196.459184-.005979.814334-.01435 1.06545-.009765.292969-.034179.646973-.073242 1.062012-.039062.415039-.097656.725097-.175781.930176-.078125.205078-.192871.429687-.344238.673828-.151368.24414-.339356.419922-.563965.527343-.22461.107422-.50293.200196-.834961.278321-.332032.078125-.717774.117187-1.157227.117187zm15.922852 3.383789c1.767578 0 3.098144-.476074 3.991699-1.428222.893555-.952149 1.340332-2.32666 1.340332-4.123536v-.688476h-3.881836v.996094c0 .732422-.107422 1.291504-.322266 1.677246-.214843.385742-.595703.578613-1.142578.578613-.234375 0-.439453-.03418-.615234-.102539s-.317383-.183105-.424805-.344238-.192871-.319824-.256347-.476074c-.063477-.15625-.109864-.375977-.139161-.65918-.029296-.283203-.046386-.524903-.051269-.725098s-.007324-.480957-.007324-.842285v-2.607422h6.855468v-2.270508c0-1.132812-.083007-2.10205-.249023-2.907715-.166016-.805664-.446777-1.516113-.842285-2.131347-.395508-.615235-.947266-1.074219-1.655274-1.376953-.708007-.302735-1.579589-.454102-2.614746-.454102-1.953125 0-3.36914.546875-4.248047 1.640625-.878906 1.09375-1.318359 2.709961-1.318359 4.848633v4.907226c0 2.138672.43457 3.754883 1.303711 4.848633s2.294922 1.640625 4.277344 1.640625zm1.450195-10.795898h-2.958984v-1.12793c0-1.132812.102539-1.914062.307617-2.34375.205078-.429687.59082-.644531 1.157226-.644531.556641 0 .944825.19043 1.164551.571289.219727.380859.32959 1.010742.32959 1.889648zm11.52832 10.751953c.703125.019531 1.635743-.048828 2.797852-.205078v-3.134766c-.449219.06836-.864258.097657-1.245117.087891-.546875-.009766-.944825-.13916-1.193848-.388184-.249023-.249023-.373535-.656738-.373535-1.223144v-10.004883h2.636719v-2.709961h-2.636719v-5.097656h-4.116211v5.097656h-1.713867v2.709961h1.713867v9.741211c0 .78125.065918 1.464844.197754 2.050781.131836.585938.34668 1.115723.644531 1.589356.297852.473632.722656.837402 1.274414 1.091308s1.223145.385742 2.01416.395508zm10.385743.043945c1.767578 0 3.098144-.476074 3.991699-1.428222.893554-.952149 1.340332-2.32666 1.340332-4.123536v-.688476h-3.881836v.996094c0 .732422-.107422 1.291504-.322266 1.677246s-.595703.578613-1.142578.578613c-.234375 0-.439453-.03418-.615234-.102539-.175782-.068359-.317383-.183105-.424805-.344238s-.192871-.319824-.256348-.476074c-.063476-.15625-.109863-.375977-.13916-.65918s-.046387-.524903-.051269-.725098c-.004883-.200195-.007325-.480957-.007325-.842285v-2.607422h6.855469v-2.270508c0-1.132812-.083008-2.10205-.249023-2.907715-.166016-.805664-.446778-1.516113-.842285-2.131347-.395508-.615235-.947266-1.074219-1.655274-1.376953-.708008-.302735-1.57959-.454102-2.614746-.454102-1.953125 0-3.369141.546875-4.248047 1.640625s-1.318359 2.709961-1.318359 4.848633v4.907226c0 2.138672.43457 3.754883 1.303711 4.848633.86914 1.09375 2.294922 1.640625 4.277344 1.640625zm1.450195-10.795898h-2.958985v-1.12793c0-1.132812.10254-1.914062.307618-2.34375.205078-.429687.59082-.644531 1.157226-.644531.556641 0 .944824.19043 1.164551.571289s.32959 1.010742.32959 1.889648zm11.894531 10.795898c1.806641 0 3.137207-.454101 3.991699-1.362304.854492-.908204 1.281739-2.260743 1.281739-4.057618v-1.640625h-3.823243v1.860352c0 .761719-.097656 1.330566-.292968 1.706543-.195313.375977-.566407.563965-1.113282.563965-.537109 0-.915527-.192871-1.135254-.578613-.219726-.385743-.329589-1.130372-.329589-2.233887v-6.328125c0-1.113281.100097-1.875.300293-2.285156.200195-.410157.588379-.615235 1.16455-.615235.517579 0 .881348.17334 1.091309.52002.209961.346679.314941.959472.314941 1.838379v1.479492h3.823243v-1.40625c0-1.826172-.417481-3.173828-1.252442-4.042969s-2.175293-1.303711-4.020996-1.303711c-1.962891 0-3.374023.546875-4.233398 1.640625s-1.289063 2.685547-1.289063 4.775391v5.024414c0 2.089844.429688 3.686523 1.289063 4.790039.859375 1.103515 2.270507 1.655273 4.233398 1.655273zm12.802734-.043945c.703125.019531 1.635743-.048828 2.797852-.205078v-3.134766c-.449219.06836-.864258.097657-1.245117.087891-.546875-.009766-.944824-.13916-1.193848-.388184-.249023-.249023-.373535-.656738-.373535-1.223144v-10.004883h2.636719v-2.709961h-2.636719v-5.097656h-4.116211v5.097656h-1.713867v2.709961h1.713867v9.741211c0 .78125.065918 1.464844.197754 2.050781.131836.585938.34668 1.115723.644531 1.589356.297852.473632.722657.837402 1.274414 1.091308.551758.253906 1.223145.385742 2.01416.395508zm10.341797.043945c1.875 0 3.273926-.524902 4.196778-1.574707.922851-1.049804 1.384277-2.551269 1.384277-4.504394v-5.727539c0-1.953125-.461426-3.45459-1.384277-4.504395-.922852-1.049805-2.321778-1.574707-4.196778-1.574707-1.865234 0-3.254394.524902-4.16748 1.574707s-1.369629 2.55127-1.369629 4.504395v5.727539c0 1.953125.456543 3.45459 1.369629 4.504394.913086 1.049805 2.302246 1.574707 4.16748 1.574707zm.014649-2.885742c-.273438 0-.50293-.056152-.688477-.168457s-.332031-.249023-.439453-.410156-.187988-.38086-.241699-.65918-.087891-.537109-.102539-.776367c-.014649-.239258-.021973-.539551-.021973-.900879v-6.28418c0-.458984.014649-.832519.043945-1.120605.029297-.288086.090333-.585938.183106-.893555s.244141-.537109.454101-.688476c.209961-.151368.480958-.227051.812989-.227051.273437 0 .502929.056152.688476.168457s.332032.249023.439453.410156c.107422.161133.187989.383301.2417.666504s.08789.544434.102539.783691c.014648.239258.021972.539551.021972.900879v6.28418c0 .458984-.014648.83252-.043945 1.120606-.029297.288085-.090332.585937-.183105.893554-.092774.307617-.244141.534668-.454102.681153-.209961.146484-.480957.219726-.812988.219726zm12.539062 2.607422v-11.894531c.419922-.634766.852051-1.088867 1.296387-1.362305.444336-.273437.959473-.419922 1.54541-.439453.488281 0 .961914.087891 1.420899.263672v-4.057617c-.205079-.048828-.410157-.073243-.615235-.073243-.673828 0-1.306152.22461-1.896972.673829-.590821.449218-1.174317 1.186523-1.750489 2.211914v-2.666016h-4.101562v17.34375z" fill="#2e6fb2" fill-rule="nonzero"/><path d="m530.071777 129v-3.061523h-5.815429v-21.225586h-4.423828v24.287109zm12.583008 0v-3.061523h-5.81543v-8.012696h4.541016v-3.120117h-4.541016v-6.972656h5.742188v-3.120117h-10.166016v24.287109zm8.378906 0c1.40625 0 2.592774-.158691 3.559571-.476074s1.740722-.812988 2.321777-1.486817c.581055-.673828.998535-1.49414 1.252441-2.460937.253907-.966797.38086-2.143555.38086-3.530274v-8.759765c0-1.347656-.124512-2.48291-.373535-3.405762-.249024-.922851-.671387-1.70166-1.26709-2.336426-.595703-.634765-1.386719-1.098633-2.373047-1.391601-.986328-.292969-2.211914-.439453-3.676758-.439453h-5.654297v24.287109zm-.146484-3.105469h-1.259766v-18.017578h1.215821c.498047 0 .922851.031738 1.274414.095215.351562.063477.644531.175781.878906.336914s.422363.339356.563965.534668c.141601.195312.249023.471191.322265.827637.073243.356445.119629.710449.139161 1.062011.019531.351563.029297.81543.029297 1.391602v8.876953c0 .576172-.004883 1.010742-.014649 1.303711s-.03418.646973-.073242 1.062012c-.039063.415039-.097656.725097-.175781.930176-.078125.205078-.192871.429687-.344239.673828-.151367.24414-.339355.419922-.563964.527343-.22461.107422-.50293.200196-.834961.278321-.332032.078125-.717774.117187-1.157227.117187z" fill="#2e6fb2" fill-rule="nonzero"/><path d="m496.39502 369c1.40625 0 2.592773-.158691 3.55957-.476074s1.740722-.812988 2.321777-1.486817c.581055-.673828.998535-1.49414 1.252442-2.460937.253906-.966797.380859-2.143555.380859-3.530274v-8.759765c0-1.347656-.124512-2.48291-.373535-3.405762-.249024-.922851-.671387-1.70166-1.26709-2.336426-.595703-.634765-1.386719-1.098633-2.373047-1.391601-.986328-.292969-2.211914-.439453-3.676758-.439453h-5.654297v24.287109zm-.146485-3.105469h-1.259765v-18.017578h1.21582c.498047 0 .922851.031738 1.274414.095215.351562.063477.644531.175781.878906.336914s.422363.339356.563965.534668.249023.471191.322266.827637c.073242.356445.119629.710449.13916 1.062011.019531.351563.029297.81543.029297 1.391602l-.000299 9.115214c-.001196.459184-.005979.814334-.01435 1.06545-.009765.292969-.034179.646973-.073242 1.062012-.039062.415039-.097656.725097-.175781.930176-.078125.205078-.192871.429687-.344238.673828-.151368.24414-.339356.419922-.563965.527343-.22461.107422-.50293.200196-.834961.278321-.332032.078125-.717774.117187-1.157227.117187zm15.922852 3.383789c1.767578 0 3.098144-.476074 3.991699-1.428222.893555-.952149 1.340332-2.32666 1.340332-4.123536v-.688476h-3.881836v.996094c0 .732422-.107422 1.291504-.322266 1.677246-.214843.385742-.595703.578613-1.142578.578613-.234375 0-.439453-.03418-.615234-.102539s-.317383-.183105-.424805-.344238-.192871-.319824-.256347-.476074c-.063477-.15625-.109864-.375977-.139161-.65918-.029296-.283203-.046386-.524903-.051269-.725098s-.007324-.480957-.007324-.842285v-2.607422h6.855468v-2.270508c0-1.132812-.083007-2.10205-.249023-2.907715-.166016-.805664-.446777-1.516113-.842285-2.131347-.395508-.615235-.947266-1.074219-1.655274-1.376953-.708007-.302735-1.579589-.454102-2.614746-.454102-1.953125 0-3.36914.546875-4.248047 1.640625-.878906 1.09375-1.318359 2.709961-1.318359 4.848633v4.907226c0 2.138672.43457 3.754883 1.303711 4.848633s2.294922 1.640625 4.277344 1.640625zm1.450195-10.795898h-2.958984v-1.12793c0-1.132812.102539-1.914062.307617-2.34375.205078-.429687.59082-.644531 1.157226-.644531.556641 0 .944825.19043 1.164551.571289.219727.380859.32959 1.010742.32959 1.889648zm11.52832 10.751953c.703125.019531 1.635743-.048828 2.797852-.205078v-3.134766c-.449219.06836-.864258.097657-1.245117.087891-.546875-.009766-.944825-.13916-1.193848-.388184-.249023-.249023-.373535-.656738-.373535-1.223144v-10.004883h2.636719v-2.709961h-2.636719v-5.097656h-4.116211v5.097656h-1.713867v2.709961h1.713867v9.741211c0 .78125.065918 1.464844.197754 2.050781.131836.585938.34668 1.115723.644531 1.589356.297852.473632.722656.837402 1.274414 1.091308s1.223145.385742 2.01416.395508zm10.385743.043945c1.767578 0 3.098144-.476074 3.991699-1.428222.893554-.952149 1.340332-2.32666 1.340332-4.123536v-.688476h-3.881836v.996094c0 .732422-.107422 1.291504-.322266 1.677246s-.595703.578613-1.142578.578613c-.234375 0-.439453-.03418-.615234-.102539-.175782-.068359-.317383-.183105-.424805-.344238s-.192871-.319824-.256348-.476074c-.063476-.15625-.109863-.375977-.13916-.65918s-.046387-.524903-.051269-.725098c-.004883-.200195-.007325-.480957-.007325-.842285v-2.607422h6.855469v-2.270508c0-1.132812-.083008-2.10205-.249023-2.907715-.166016-.805664-.446778-1.516113-.842285-2.131347-.395508-.615235-.947266-1.074219-1.655274-1.376953-.708008-.302735-1.57959-.454102-2.614746-.454102-1.953125 0-3.369141.546875-4.248047 1.640625s-1.318359 2.709961-1.318359 4.848633v4.907226c0 2.138672.43457 3.754883 1.303711 4.848633.86914 1.09375 2.294922 1.640625 4.277344 1.640625zm1.450195-10.795898h-2.958985v-1.12793c0-1.132812.10254-1.914062.307618-2.34375.205078-.429687.59082-.644531 1.157226-.644531.556641 0 .944824.19043 1.164551.571289s.32959 1.010742.32959 1.889648zm11.894531 10.795898c1.806641 0 3.137207-.454101 3.991699-1.362304.854492-.908204 1.281739-2.260743 1.281739-4.057618v-1.640625h-3.823243v1.860352c0 .761719-.097656 1.330566-.292968 1.706543-.195313.375977-.566407.563965-1.113282.563965-.537109 0-.915527-.192871-1.135254-.578613-.219726-.385743-.329589-1.130372-.329589-2.233887v-6.328125c0-1.113281.100097-1.875.300293-2.285156.200195-.410157.588379-.615235 1.16455-.615235.517579 0 .881348.17334 1.091309.52002.209961.346679.314941.959472.314941 1.838379v1.479492h3.823243v-1.40625c0-1.826172-.417481-3.173828-1.252442-4.042969s-2.175293-1.303711-4.020996-1.303711c-1.962891 0-3.374023.546875-4.233398 1.640625s-1.289063 2.685547-1.289063 4.775391v5.024414c0 2.089844.429688 3.686523 1.289063 4.790039.859375 1.103515 2.270507 1.655273 4.233398 1.655273zm12.802734-.043945c.703125.019531 1.635743-.048828 2.797852-.205078v-3.134766c-.449219.06836-.864258.097657-1.245117.087891-.546875-.009766-.944824-.13916-1.193848-.388184-.249023-.249023-.373535-.656738-.373535-1.223144v-10.004883h2.636719v-2.709961h-2.636719v-5.097656h-4.116211v5.097656h-1.713867v2.709961h1.713867v9.741211c0 .78125.065918 1.464844.197754 2.050781.131836.585938.34668 1.115723.644531 1.589356.297852.473632.722657.837402 1.274414 1.091308.551758.253906 1.223145.385742 2.01416.395508zm10.341797.043945c1.875 0 3.273926-.524902 4.196778-1.574707.922851-1.049804 1.384277-2.551269 1.384277-4.504394v-5.727539c0-1.953125-.461426-3.45459-1.384277-4.504395-.922852-1.049805-2.321778-1.574707-4.196778-1.574707-1.865234 0-3.254394.524902-4.16748 1.574707s-1.369629 2.55127-1.369629 4.504395v5.727539c0 1.953125.456543 3.45459 1.369629 4.504394.913086 1.049805 2.302246 1.574707 4.16748 1.574707zm.014649-2.885742c-.273438 0-.50293-.056152-.688477-.168457s-.332031-.249023-.439453-.410156-.187988-.38086-.241699-.65918-.087891-.537109-.102539-.776367c-.014649-.239258-.021973-.539551-.021973-.900879v-6.28418c0-.458984.014649-.832519.043945-1.120605.029297-.288086.090333-.585938.183106-.893555s.244141-.537109.454101-.688476c.209961-.151368.480958-.227051.812989-.227051.273437 0 .502929.056152.688476.168457s.332032.249023.439453.410156c.107422.161133.187989.383301.2417.666504s.08789.544434.102539.783691c.014648.239258.021972.539551.021972.900879v6.28418c0 .458984-.014648.83252-.043945 1.120606-.029297.288085-.090332.585937-.183105.893554-.092774.307617-.244141.534668-.454102.681153-.209961.146484-.480957.219726-.812988.219726zm12.539062 2.607422v-11.894531c.419922-.634766.852051-1.088867 1.296387-1.362305.444336-.273437.959473-.419922 1.54541-.439453.488281 0 .961914.087891 1.420899.263672v-4.057617c-.205079-.048828-.410157-.073243-.615235-.073243-.673828 0-1.306152.22461-1.896972.673829-.590821.449218-1.174317 1.186523-1.750489 2.211914v-2.666016h-4.101562v17.34375z" fill="#2e6fb2" fill-rule="nonzero"/><circle cx="70" cy="211" fill="#ec6363" r="6"/><circle cx="424" cy="213" fill="#ec6363" r="6"/><circle cx="399" cy="233" fill="#ec6363" r="6"/><circle cx="468" cy="271" fill="#ec6363" r="6"/><circle cx="139" cy="205" fill="#ec6363" r="6"/><circle cx="493" cy="207" fill="#ec6363" r="6"/><circle cx="181" cy="237" fill="#ec6363" r="6"/><circle cx="535" cy="239" fill="#ec6363" r="6"/><circle cx="229" cy="263" fill="#ec6363" r="6"/><circle cx="583" cy="265" fill="#ec6363" r="6"/><circle cx="556" cy="292" fill="#ec6363" r="6"/><circle cx="279" cy="215" fill="#ec6363" r="6"/><circle cx="633" cy="217" fill="#ec6363" r="6"/><circle cx="609" cy="200" fill="#ec6363" r="6"/><circle cx="679" cy="249" fill="#ec6363" r="6"/><g fill-rule="nonzero"><path d="m91.9984963 151.998501.0015014.499998.4730023 157.999501 4.0014543-.011475-4.4729528 9.013473-4.5270066-8.986446 3.9985051-.012552-.4729977-157.999499-.0015015-.499997z" fill="#72ac34"/><path d="m445.998496 152.998501.001502.499998.473002 157.999501 4.001454-.011475-4.472953 9.013473-4.527006-8.986446 3.998505-.012552-.472998-157.999499-.001501-.499997z" fill="#72ac34"/><path d="m113.998496 151.998501.001502.499998.473002 157.999501 4.001454-.011475-4.472953 9.013473-4.527006-8.986446 3.998505-.012552-.472998-157.999499-.001501-.499997z" fill="#72ac34"/><path d="m468 153v96.749l4 .001-4.5 9-4.5-9 4-.001v-96.749z" fill="#ec6363"/><path d="m44.9984963 151.998501.0015014.499998.4730023 157.999501 4.0014543-.011475-4.4729528 9.013473-4.5270066-8.986446 3.9985051-.012552-.4729977-157.999499-.0015015-.499997z" fill="#72ac34"/><path d="m399 153v60.75h4l-4.5 9-4.5-9h4v-60.75z" fill="#ec6363"/><path d="m139.003115 151.996904.999981.006211-.003106.499991-.19799 31.749894 4.000707.025114-4.555813 8.971876-4.444013-9.027776 3.999119.024786.19801-31.750106z" fill="#ec6363"/><path d="m493.003115 152.996904.999981.006211-.003106.499991-.19799 31.749894 4.000707.025114-4.555813 8.971876-4.444013-9.027776 3.999119.024786.19801-31.750106z" fill="#ec6363"/><path d="m181.000415 151.999585 1 .00083-.000415.5-.056 66.811585 4.000552.004237-4.507467 8.996263-4.49253-9.003732 3.999445.003232.056-66.812415z" fill="#ec6363"/><path d="m535.000415 152.999585 1 .00083-.000415.5-.056 66.811585 4.000552.004237-4.507467 8.996263-4.49253-9.003732 3.999445.003232.056-66.812415z" fill="#ec6363"/><path d="m160.000094 151.999906 1 .000188-.000094.5-.03 157.842906 4.000347.001596-4.501691 8.999154-4.498309-9.000845 3.999653.000095.03-157.843094z" fill="#72ac34"/><path d="m514.000094 152.999906 1 .000188-.000094.5-.03 157.842906 4.000347.001596-4.501691 8.999154-4.498309-9.000845 3.999653.000095.03-157.843094z" fill="#72ac34"/><path d="m202.000094 151.999906 1 .000188-.000094.5-.03 157.842906 4.000347.001596-4.501691 8.999154-4.498309-9.000845 3.999653.000095.03-157.843094z" fill="#72ac34"/><path d="m556.999082 152.999084.000917.499999.218001 119.327917 4.000783-.007112-4.483491 9.008236-4.516494-8.991734 3.999202-.00839-.217999-119.327083-.000917-.499999z" fill="#ec6363"/><path d="m254.000094 151.999906 1 .000188-.000094.5-.03 157.842906 4.000347.001596-4.501691 8.999154-4.498309-9.000845 3.999653.000095.03-157.843094z" fill="#72ac34"/><path d="m608.000422 153.327703 1 .000844-.000422.5-.025 28.514453 4.000924.004552-4.507596 8.996198-4.4924-9.003796 3.999072.003046.025-28.515297z" fill="#ec6363"/><path d="m229.000079 151.999921 1 .000158-.000079.5-.015 89.827921 4.000726.00084-4.50143 8.999285-4.49857-9.000715 3.999274-.00041.015-89.827079z" fill="#ec6363"/><path d="m583.000079 152.999921 1 .000158-.000079.5-.015 89.827921 4.000726.00084-4.50143 8.999285-4.49857-9.000715 3.999274-.00041.015-89.827079z" fill="#ec6363"/><path d="m304.000094 153.999906 1 .000188-.000094.5-.03 157.842906 4.000347.001596-4.501691 8.999154-4.498309-9.000845 3.999653.000095.03-157.843094z" fill="#72ac34"/><path d="m658.000093 152.999907 1 .000186-.000093.5-.03 159.842907 4.000328.001585-4.501671 8.999165-4.498329-9.000835 3.999672.000085.03-159.843093z" fill="#72ac34"/><path d="m325.000094 153.999906 1 .000188-.000094.5-.03 157.842906 4.000347.001596-4.501691 8.999154-4.498309-9.000845 3.999653.000095.03-157.843094z" fill="#72ac34"/><path d="m679.998633 152.998636.001365.499999.211002 77.327365 4.000147-.010132-4.475407 9.012255-4.524559-8.987678 3.999819-.011445-.210998-77.327635-.001366-.499998z" fill="#ec6363"/><path d="m278.000152 151.999848 1 .000304-.000152.5-.014 42.827848 4.000962.001495-4.502739 8.99863-4.49726-9.001369 3.999037.000244.014-42.827152z" fill="#ec6363"/><path d="m633.009989 152.990206.999805.019783-.009892.499903-.847902 42.829108 3.99965.079812-4.677167 8.909215-4.321072-9.087262 3.998589.078235.848098-42.828892z" fill="#ec6363"/><path d="m71 152v39h4l-4.5 9-4.5-9h4v-39z" fill="#ec6363"/><path d="m424 153v39h4l-4.5 9-4.5-9h4v-39z" fill="#ec6363"/></g></g></svg>