<?xml version="1.0" encoding="UTF-8"?>
<svg aria-roledescription="xychart" role="graphics-document document" viewBox="0 0 700 500" style="max-width: 100%;" xmlns="http://www.w3.org/2000/svg" width="100%" id="graph-div" height="100%" xmlns:xlink="http://www.w3.org/1999/xlink"><style>#graph-div{font-family:"trebuchet ms",verdana,arial,sans-serif;font-size:16px;fill:#000000;}#graph-div .error-icon{fill:#552222;}#graph-div .error-text{fill:#552222;stroke:#552222;}#graph-div .edge-thickness-normal{stroke-width:2px;}#graph-div .edge-thickness-thick{stroke-width:3.5px;}#graph-div .edge-pattern-solid{stroke-dasharray:0;}#graph-div .edge-pattern-dashed{stroke-dasharray:3;}#graph-div .edge-pattern-dotted{stroke-dasharray:2;}#graph-div .marker{fill:#000000;stroke:#000000;}#graph-div .marker.cross{stroke:#000000;}#graph-div svg{font-family:"trebuchet ms",verdana,arial,sans-serif;font-size:16px;}#graph-div :root{--mermaid-font-family:"trebuchet ms",verdana,arial,sans-serif;}</style><g></g><g class="main"><rect fill="white" class="background" height="500" width="700"></rect><g class="chart-title"><text transform="translate(350, 21.75) rotate(0)" text-anchor="middle" dominant-baseline="middle" font-size="20" fill="#321b67" y="0" x="0">CO2 emissions per 100 kWh</text></g><g class="plot"><g class="bar-plot-0"><rect stroke-width="0" stroke="#CDE498" fill="#CDE498" height="415.5" width="119.69999999999999" y="51.5" x="70.68125"></rect><rect stroke-width="0" stroke="#CDE498" fill="#CDE498" height="191.3606550819252" width="119.69999999999999" y="275.6393449180748" x="323.915625"></rect><rect stroke-width="0" stroke="#CDE498" fill="#CDE498" height="8" width="119.69999999999999" y="459" x="577.15"></rect></g></g><g class="bottom-axis"><g class="axis-line"><path stroke-width="2" stroke="#321b67" fill="none" d="M 67.53125,468 L 700,468"></path></g><g class="label"><text transform="translate(130.53125, 479) rotate(0)" text-anchor="middle" dominant-baseline="text-before-edge" font-size="14" fill="#321b67" y="0" x="0">Hamsters</text><text transform="translate(383.765625, 479) rotate(0)" text-anchor="middle" dominant-baseline="text-before-edge" font-size="14" fill="#321b67" y="0" x="0">Natural gas</text><text transform="translate(637, 479) rotate(0)" text-anchor="middle" dominant-baseline="text-before-edge" font-size="14" fill="#321b67" y="0" x="0">Nuclear power</text></g><g class="ticks"><path stroke-width="2" stroke="#321b67" fill="none" d="M 130.53125,469 L 130.53125,474"></path><path stroke-width="2" stroke="#321b67" fill="none" d="M 383.765625,469 L 383.765625,474"></path><path stroke-width="2" stroke="#321b67" fill="none" d="M 637,469 L 637,474"></path></g></g><g class="left-axis"><g class="axisl-line"><path stroke-width="2" stroke="#321b67" fill="none" d="M 66.53125,43.5 L 66.53125,467"></path></g><g class="label"><text transform="translate(55.53125, 51.5) rotate(0)" text-anchor="end" dominant-baseline="middle" font-size="14" fill="#321b67" y="0" x="0">100</text><text transform="translate(55.53125, 92.25260816692266) rotate(0)" text-anchor="end" dominant-baseline="middle" font-size="14" fill="#321b67" y="0" x="0">90</text><text transform="translate(55.53125, 133.00521633384537) rotate(0)" text-anchor="end" dominant-baseline="middle" font-size="14" fill="#321b67" y="0" x="0">80</text><text transform="translate(55.53125, 173.75782450076804) rotate(0)" text-anchor="end" dominant-baseline="middle" font-size="14" fill="#321b67" y="0" x="0">70</text><text transform="translate(55.53125, 214.51043266769074) rotate(0)" text-anchor="end" dominant-baseline="middle" font-size="14" fill="#321b67" y="0" x="0">60</text><text transform="translate(55.53125, 255.2630408346134) rotate(0)" text-anchor="end" dominant-baseline="middle" font-size="14" fill="#321b67" y="0" x="0">50</text><text transform="translate(55.53125, 296.0156490015361) rotate(0)" text-anchor="end" dominant-baseline="middle" font-size="14" fill="#321b67" y="0" x="0">40</text><text transform="translate(55.53125, 336.76825716845883) rotate(0)" text-anchor="end" dominant-baseline="middle" font-size="14" fill="#321b67" y="0" x="0">30</text><text transform="translate(55.53125, 377.5208653353815) rotate(0)" text-anchor="end" dominant-baseline="middle" font-size="14" fill="#321b67" y="0" x="0">20</text><text transform="translate(55.53125, 418.2734735023041) rotate(0)" text-anchor="end" dominant-baseline="middle" font-size="14" fill="#321b67" y="0" x="0">10</text></g><g class="ticks"><path stroke-width="2" stroke="#321b67" fill="none" d="M 65.53125,51.5 L 60.53125,51.5"></path><path stroke-width="2" stroke="#321b67" fill="none" d="M 65.53125,92.25260816692266 L 60.53125,92.25260816692266"></path><path stroke-width="2" stroke="#321b67" fill="none" d="M 65.53125,133.00521633384537 L 60.53125,133.00521633384537"></path><path stroke-width="2" stroke="#321b67" fill="none" d="M 65.53125,173.75782450076804 L 60.53125,173.75782450076804"></path><path stroke-width="2" stroke="#321b67" fill="none" d="M 65.53125,214.51043266769074 L 60.53125,214.51043266769074"></path><path stroke-width="2" stroke="#321b67" fill="none" d="M 65.53125,255.2630408346134 L 60.53125,255.2630408346134"></path><path stroke-width="2" stroke="#321b67" fill="none" d="M 65.53125,296.0156490015361 L 60.53125,296.0156490015361"></path><path stroke-width="2" stroke="#321b67" fill="none" d="M 65.53125,336.76825716845883 L 60.53125,336.76825716845883"></path><path stroke-width="2" stroke="#321b67" fill="none" d="M 65.53125,377.5208653353815 L 60.53125,377.5208653353815"></path><path stroke-width="2" stroke="#321b67" fill="none" d="M 65.53125,418.2734735023041 L 60.53125,418.2734735023041"></path></g><g class="title"><text transform="translate(5, 255.25) rotate(270)" text-anchor="middle" dominant-baseline="text-before-edge" font-size="16" fill="#321b67" y="0" x="0">kg</text></g></g></g><g class="mermaid-tmp-group"></g></svg>