<svg version="1.1" viewBox="0.0 0.0 600.0 371.0" fill="none" stroke="none" stroke-linecap="square" stroke-miterlimit="10" width="600" height="371" xmlns:xlink="http://www.w3.org/1999/xlink" xmlns="http://www.w3.org/2000/svg"><path fill="#ffffff" d="M0 0L600.0 0L600.0 371.0L0 371.0L0 0Z" fill-rule="nonzero"/><path stroke="#333333" stroke-width="1.0" stroke-linecap="butt" d="M62.5 332.5L581.5 332.5" fill-rule="nonzero"/><path stroke="#cccccc" stroke-width="1.0" stroke-linecap="butt" d="M62.5 271.5L581.5 271.5" fill-rule="nonzero"/><path stroke="#cccccc" stroke-width="1.0" stroke-linecap="butt" d="M62.5 210.5L581.5 210.5" fill-rule="nonzero"/><path stroke="#cccccc" stroke-width="1.0" stroke-linecap="butt" d="M62.5 149.5L581.5 149.5" fill-rule="nonzero"/><path stroke="#cccccc" stroke-width="1.0" stroke-linecap="butt" d="M62.5 88.5L581.5 88.5" fill-rule="nonzero"/><clipPath id="id_0"><path d="M62.55 88.28333L581.45 88.28333L581.45 332.45L62.55 332.45L62.55 88.28333Z" clip-rule="nonzero"/></clipPath><path stroke="#000000" stroke-width="2.0" stroke-linecap="butt" stroke-opacity="0.0" clip-path="url(#id_0)" d="M211.0 332.0L141.0 332.0L141.0 121.0C141.0 119.89543 141.89543 119.0 143.0 119.0L209.0 119.0C210.10457 119.0 211.0 119.89543 211.0 121.0Z" fill-rule="nonzero"/><path fill="#4285f4" clip-path="url(#id_0)" d="M211.0 332.0L141.0 332.0L141.0 121.0C141.0 119.89543 141.89543 119.0 143.0 119.0L209.0 119.0C210.10457 119.0 211.0 119.89543 211.0 121.0Z" fill-rule="nonzero"/><path stroke="#000000" stroke-width="2.0" stroke-linecap="butt" stroke-opacity="0.0" clip-path="url(#id_0)" d="M431.0 332.0L361.0 332.0L361.0 257.0C361.0 255.89543 361.89542 255.0 363.0 255.0L429.0 255.0C430.10458 255.0 431.0 255.89543 431.0 257.0Z" fill-rule="nonzero"/><path fill="#4285f4" clip-path="url(#id_0)" d="M431.0 332.0L361.0 332.0L361.0 257.0C361.0 255.89543 361.89542 255.0 363.0 255.0L429.0 255.0C430.10458 255.0 431.0 255.89543 431.0 257.0Z" fill-rule="nonzero"/><path stroke="#000000" stroke-width="2.0" stroke-linecap="butt" stroke-opacity="0.0" clip-path="url(#id_0)" d="M283.0 332.0L213.0 332.0L213.0 274.0C213.0 272.89542 213.89543 272.0 215.0 272.0L281.0 272.0C282.10458 272.0 283.0 272.89542 283.0 274.0Z" fill-rule="nonzero"/><path fill="#ea4335" clip-path="url(#id_0)" d="M283.0 332.0L213.0 332.0L213.0 274.0C213.0 272.89542 213.89543 272.0 215.0 272.0L281.0 272.0C282.10458 272.0 283.0 272.89542 283.0 274.0Z" fill-rule="nonzero"/><path stroke="#000000" stroke-width="2.0" stroke-linecap="butt" stroke-opacity="0.0" clip-path="url(#id_0)" d="M503.0 332.0L433.0 332.0L433.0 292.0C433.0 290.89542 433.89542 290.0 435.0 290.0L501.0 290.0C502.10458 290.0 503.0 290.89542 503.0 292.0Z" fill-rule="nonzero"/><path fill="#ea4335" clip-path="url(#id_0)" d="M503.0 332.0L433.0 332.0L433.0 292.0C433.0 290.89542 433.89542 290.0 435.0 290.0L501.0 290.0C502.10458 290.0 503.0 290.89542 503.0 292.0Z" fill-rule="nonzero"/><path stroke="#4285f4" stroke-width="3.0" stroke-linejoin="round" stroke-linecap="round" d="M161.26562 136.1168L160.1875 136.1168L160.1875 128.89806L158.0 129.69493L158.0 128.71056L161.10938 127.53869L161.26562 127.53869L161.26562 136.1168ZM170.21875 128.19493L166.6875 136.1168L165.54688 136.1168L169.0625 128.47618L164.45312 128.47618L164.45312 127.58556L170.21875 127.58556L170.21875 128.19493ZM176.28125 133.25743L177.46875 133.25743L177.46875 134.13243L176.28125 134.13243L176.28125 136.1168L175.20312 136.1168L175.20312 134.13243L171.3125 134.13243L171.3125 133.4918L175.125 127.58556L176.28125 127.58556L176.28125 133.25743ZM172.54688 133.25743L175.20312 133.25743L175.20312 129.06993L175.0625 129.3043L172.54688 133.25743ZM178.84375 135.5543Q178.84375 135.27306 179.0 135.08556Q179.17188 134.89806 179.5 134.89806Q179.84375 134.89806 180.01562 135.08556Q180.1875 135.27306 180.1875 135.5543Q180.1875 135.81993 180.01562 136.00743Q179.84375 136.1793 179.5 136.1793Q179.17188 136.1793 179.0 136.00743Q178.84375 135.81993 178.84375 135.5543ZM182.20312 131.83556L182.64062 127.58556L187.01562 127.58556L187.01562 128.58556L183.5625 128.58556L183.29688 130.91368Q183.9375 130.53868 184.73438 130.53868Q185.89062 130.53868 186.57812 131.31993Q187.26562 132.08556 187.26562 133.39806Q187.26562 134.71056 186.54688 135.47618Q185.84375 136.2418 184.5625 136.2418Q183.4375 136.2418 182.71875 135.6168Q182.0 134.97618 181.90625 133.8668L182.92188 133.8668Q183.03125 134.60118 183.45312 134.97618Q183.875 135.35118 184.5625 135.35118Q185.3125 135.35118 185.75 134.83556Q186.1875 134.31993 186.1875 133.41368Q186.1875 132.5543 185.71875 132.03868Q185.25 131.52306 184.46875 131.52306Q183.76562 131.52306 183.35938 131.81993L183.07812 132.0543L182.20312 131.83556ZM193.89062 129.8043Q193.89062 130.44493 193.54688 130.94493Q193.20312 131.44493 192.64062 131.72618Q193.29688 132.00743 193.6875 132.56993Q194.07812 133.1168 194.07812 133.81993Q194.07812 134.91368 193.32812 135.58556Q192.59375 136.2418 191.375 136.2418Q190.14062 136.2418 189.39062 135.58556Q188.65625 134.91368 188.65625 133.81993Q188.65625 133.1168 189.03125 132.56993Q189.40625 132.00743 190.07812 131.72618Q189.51562 131.44493 189.1875 130.94493Q188.85938 130.44493 188.85938 129.8043Q188.85938 128.72618 189.54688 128.10118Q190.23438 127.46056 191.375 127.46056Q192.5 127.46056 193.1875 128.10118Q193.89062 128.72618 193.89062 129.8043ZM193.0 133.78868Q193.0 133.06993 192.54688 132.63243Q192.09375 132.1793 191.35938 132.1793Q190.625 132.1793 190.17188 132.63243Q189.73438 133.06993 189.73438 133.8043Q189.73438 134.52306 190.17188 134.94493Q190.60938 135.35118 191.375 135.35118Q192.125 135.35118 192.5625 134.9293Q193.0 134.50743 193.0 133.78868ZM191.375 128.35118Q190.73438 128.35118 190.32812 128.75743Q189.9375 129.14806 189.9375 129.83556Q189.9375 130.47618 190.32812 130.88243Q190.71875 131.28868 191.35938 131.28868Q192.01562 131.28868 192.40625 130.88243Q192.79688 130.47618 192.79688 129.83556Q192.79688 129.1793 192.39062 128.77306Q191.98438 128.35118 191.375 128.35118Z" fill-rule="nonzero"/><path fill="#ffffff" d="M161.26562 136.1168L160.1875 136.1168L160.1875 128.89806L158.0 129.69493L158.0 128.71056L161.10938 127.53868L161.26562 127.53868L161.26562 136.1168ZM170.21875 128.19493L166.6875 136.1168L165.54688 136.1168L169.0625 128.47618L164.45312 128.47618L164.45312 127.585556L170.21875 127.585556L170.21875 128.19493ZM176.28125 133.25743L177.46875 133.25743L177.46875 134.13243L176.28125 134.13243L176.28125 136.1168L175.20312 136.1168L175.20312 134.13243L171.3125 134.13243L171.3125 133.4918L175.125 127.585556L176.28125 127.585556L176.28125 133.25743ZM172.54688 133.25743L175.20312 133.25743L175.20312 129.06993L175.0625 129.3043L172.54688 133.25743ZM178.84375 135.5543Q178.84375 135.27306 179.0 135.08556Q179.17188 134.89806 179.5 134.89806Q179.84375 134.89806 180.01562 135.08556Q180.1875 135.27306 180.1875 135.5543Q180.1875 135.81993 180.01562 136.00743Q179.84375 136.1793 179.5 136.1793Q179.17188 136.1793 179.0 136.00743Q178.84375 135.81993 178.84375 135.5543ZM182.20312 131.83556L182.64062 127.585556L187.01562 127.585556L187.01562 128.58556L183.5625 128.58556L183.29688 130.91368Q183.9375 130.53868 184.73438 130.53868Q185.89062 130.53868 186.57812 131.31993Q187.26562 132.08556 187.26562 133.39806Q187.26562 134.71056 186.54688 135.47618Q185.84375 136.2418 184.5625 136.2418Q183.4375 136.2418 182.71875 135.6168Q182.0 134.97618 181.90625 133.8668L182.92188 133.8668Q183.03125 134.60118 183.45312 134.97618Q183.875 135.35118 184.5625 135.35118Q185.3125 135.35118 185.75 134.83556Q186.1875 134.31993 186.1875 133.41368Q186.1875 132.5543 185.71875 132.03868Q185.25 131.52306 184.46875 131.52306Q183.76562 131.52306 183.35938 131.81993L183.07812 132.0543L182.20312 131.83556ZM193.89062 129.8043Q193.89062 130.44493 193.54688 130.94493Q193.20312 131.44493 192.64062 131.72618Q193.29688 132.00743 193.6875 132.56993Q194.07812 133.1168 194.07812 133.81993Q194.07812 134.91368 193.32812 135.58556Q192.59375 136.2418 191.375 136.2418Q190.14062 136.2418 189.39062 135.58556Q188.65625 134.91368 188.65625 133.81993Q188.65625 133.1168 189.03125 132.56993Q189.40625 132.00743 190.07812 131.72618Q189.51562 131.44493 189.1875 130.94493Q188.85938 130.44493 188.85938 129.8043Q188.85938 128.72618 189.54688 128.10118Q190.23438 127.460556 191.375 127.460556Q192.5 127.460556 193.1875 128.10118Q193.89062 128.72618 193.89062 129.8043ZM193.0 133.78868Q193.0 133.06993 192.54688 132.63243Q192.09375 132.1793 191.35938 132.1793Q190.625 132.1793 190.17188 132.63243Q189.73438 133.06993 189.73438 133.8043Q189.73438 134.52306 190.17188 134.94493Q190.60938 135.35118 191.375 135.35118Q192.125 135.35118 192.5625 134.9293Q193.0 134.50743 193.0 133.78868ZM191.375 128.35118Q190.73438 128.35118 190.32812 128.75743Q189.9375 129.14806 189.9375 129.83556Q189.9375 130.47618 190.32812 130.88243Q190.71875 131.28868 191.35938 131.28868Q192.01562 131.28868 192.40625 130.88243Q192.79688 130.47618 192.79688 129.83556Q192.79688 129.1793 192.39062 128.77306Q191.98438 128.35118 191.375 128.35118Z" fill-rule="nonzero"/><path stroke="#4285f4" stroke-width="3.0" stroke-linejoin="round" stroke-linecap="round" d="M385.46875 263.02164L385.46875 263.9279L385.26562 263.9279Q384.0 263.95914 383.25 264.6935Q382.5 265.41226 382.375 266.72476Q383.0625 265.95914 384.21875 265.95914Q385.32812 265.95914 386.0 266.7404Q386.67188 267.52164 386.67188 268.77164Q386.67188 270.08414 385.95312 270.881Q385.23438 271.6779 384.01562 271.6779Q382.79688 271.6779 382.03125 270.7404Q381.28125 269.78726 381.28125 268.3029L381.28125 267.89664Q381.28125 265.53726 382.28125 264.28726Q383.28125 263.03726 385.26562 263.02164L385.46875 263.02164ZM384.04688 266.8654Q383.48438 266.8654 383.01562 267.1935Q382.54688 267.52164 382.35938 268.03726L382.35938 268.4279Q382.35938 269.4904 382.82812 270.131Q383.3125 270.77164 384.01562 270.77164Q384.75 270.77164 385.17188 270.2404Q385.59375 269.6935 385.59375 268.8185Q385.59375 267.9435 385.17188 267.41226Q384.75 266.8654 384.04688 266.8654ZM389.78125 266.756L390.59375 266.756Q391.375 266.7404 391.8125 266.34976Q392.25 265.95914 392.25 265.28726Q392.25 263.78726 390.75 263.78726Q390.04688 263.78726 389.625 264.1935Q389.21875 264.59976 389.21875 265.256L388.125 265.256Q388.125 264.2404 388.85938 263.5685Q389.60938 262.89664 390.75 262.89664Q391.95312 262.89664 392.64062 263.53726Q393.32812 264.1779 393.32812 265.3185Q393.32812 265.881 392.96875 266.39664Q392.60938 266.91226 391.98438 267.1779Q392.6875 267.39664 393.0625 267.91226Q393.45312 268.4279 393.45312 269.1779Q393.45312 270.3185 392.70312 271.006Q391.95312 271.6779 390.75 271.6779Q389.5625 271.6779 388.79688 271.02164Q388.04688 270.3654 388.04688 269.3029L389.14062 269.3029Q389.14062 269.97476 389.57812 270.381Q390.01562 270.78726 390.76562 270.78726Q391.54688 270.78726 391.95312 270.381Q392.375 269.95914 392.375 269.1935Q392.375 268.45914 391.92188 268.0685Q391.46875 267.66226 390.59375 267.64664L389.78125 267.64664L389.78125 266.756ZM395.34375 270.9904Q395.34375 270.70914 395.5 270.52164Q395.67188 270.33414 396.0 270.33414Q396.34375 270.33414 396.51562 270.52164Q396.6875 270.70914 396.6875 270.9904Q396.6875 271.256 396.51562 271.4435Q396.34375 271.6154 396.0 271.6154Q395.67188 271.6154 395.5 271.4435Q395.34375 271.256 395.34375 270.9904ZM402.46875 263.02164L402.46875 263.9279L402.26562 263.9279Q401.0 263.95914 400.25 264.6935Q399.5 265.41226 399.375 266.72476Q400.0625 265.95914 401.21875 265.95914Q402.32812 265.95914 403.0 266.7404Q403.67188 267.52164 403.67188 268.77164Q403.67188 270.08414 402.95312 270.881Q402.23438 271.6779 401.01562 271.6779Q399.79688 271.6779 399.03125 270.7404Q398.28125 269.78726 398.28125 268.3029L398.28125 267.89664Q398.28125 265.53726 399.28125 264.28726Q400.28125 263.03726 402.26562 263.02164L402.46875 263.02164ZM401.04688 266.8654Q400.48438 266.8654 400.01562 267.1935Q399.54688 267.52164 399.35938 268.03726L399.35938 268.4279Q399.35938 269.4904 399.82812 270.131Q400.3125 270.77164 401.01562 270.77164Q401.75 270.77164 402.17188 270.2404Q402.59375 269.6935 402.59375 268.8185Q402.59375 267.9435 402.17188 267.41226Q401.75 266.8654 401.04688 266.8654ZM409.78125 268.6935L410.96875 268.6935L410.96875 269.5685L409.78125 269.5685L409.78125 271.5529L408.70312 271.5529L408.70312 269.5685L404.8125 269.5685L404.8125 268.9279L408.625 263.02164L409.78125 263.02164L409.78125 268.6935ZM406.04688 268.6935L408.70312 268.6935L408.70312 264.506L408.5625 264.7404L406.04688 268.6935Z" fill-rule="nonzero"/><path fill="#ffffff" d="M385.46875 263.02164L385.46875 263.9279L385.26562 263.9279Q384.0 263.95914 383.25 264.6935Q382.5 265.41226 382.375 266.72476Q383.0625 265.95914 384.21875 265.95914Q385.32812 265.95914 386.0 266.7404Q386.67188 267.52164 386.67188 268.77164Q386.67188 270.08414 385.95312 270.881Q385.23438 271.6779 384.01562 271.6779Q382.79688 271.6779 382.03125 270.7404Q381.28125 269.78726 381.28125 268.3029L381.28125 267.89664Q381.28125 265.53726 382.28125 264.28726Q383.28125 263.03726 385.26562 263.02164L385.46875 263.02164ZM384.04688 266.8654Q383.48438 266.8654 383.01562 267.1935Q382.54688 267.52164 382.35938 268.03726L382.35938 268.4279Q382.35938 269.4904 382.82812 270.131Q383.3125 270.77164 384.01562 270.77164Q384.75 270.77164 385.17188 270.2404Q385.59375 269.6935 385.59375 268.8185Q385.59375 267.9435 385.17188 267.41226Q384.75 266.8654 384.04688 266.8654ZM389.78125 266.756L390.59375 266.756Q391.375 266.7404 391.8125 266.34976Q392.25 265.95914 392.25 265.28726Q392.25 263.78726 390.75 263.78726Q390.04688 263.78726 389.625 264.1935Q389.21875 264.59976 389.21875 265.256L388.125 265.256Q388.125 264.2404 388.85938 263.5685Q389.60938 262.89664 390.75 262.89664Q391.95312 262.89664 392.64062 263.53726Q393.32812 264.1779 393.32812 265.3185Q393.32812 265.881 392.96875 266.39664Q392.60938 266.91226 391.98438 267.1779Q392.6875 267.39664 393.0625 267.91226Q393.45312 268.4279 393.45312 269.1779Q393.45312 270.3185 392.70312 271.006Q391.95312 271.6779 390.75 271.6779Q389.5625 271.6779 388.79688 271.02164Q388.04688 270.3654 388.04688 269.3029L389.14062 269.3029Q389.14062 269.97476 389.57812 270.381Q390.01562 270.78726 390.76562 270.78726Q391.54688 270.78726 391.95312 270.381Q392.375 269.95914 392.375 269.1935Q392.375 268.45914 391.92188 268.0685Q391.46875 267.66226 390.59375 267.64664L389.78125 267.64664L389.78125 266.756ZM395.34375 270.9904Q395.34375 270.70914 395.5 270.52164Q395.67188 270.33414 396.0 270.33414Q396.34375 270.33414 396.51562 270.52164Q396.6875 270.70914 396.6875 270.9904Q396.6875 271.256 396.51562 271.4435Q396.34375 271.6154 396.0 271.6154Q395.67188 271.6154 395.5 271.4435Q395.34375 271.256 395.34375 270.9904ZM402.46875 263.02164L402.46875 263.9279L402.26562 263.9279Q401.0 263.95914 400.25 264.6935Q399.5 265.41226 399.375 266.72476Q400.0625 265.95914 401.21875 265.95914Q402.32812 265.95914 403.0 266.7404Q403.67188 267.52164 403.67188 268.77164Q403.67188 270.08414 402.95312 270.881Q402.23438 271.6779 401.01562 271.6779Q399.79688 271.6779 399.03125 270.7404Q398.28125 269.78726 398.28125 268.3029L398.28125 267.89664Q398.28125 265.53726 399.28125 264.28726Q400.28125 263.03726 402.26562 263.02164L402.46875 263.02164ZM401.04688 266.8654Q400.48438 266.8654 400.01562 267.1935Q399.54688 267.52164 399.35938 268.03726L399.35938 268.4279Q399.35938 269.4904 399.82812 270.131Q400.3125 270.77164 401.01562 270.77164Q401.75 270.77164 402.17188 270.2404Q402.59375 269.6935 402.59375 268.8185Q402.59375 267.9435 402.17188 267.41226Q401.75 266.8654 401.04688 266.8654ZM409.78125 268.6935L410.96875 268.6935L410.96875 269.5685L409.78125 269.5685L409.78125 271.5529L408.70312 271.5529L408.70312 269.5685L404.8125 269.5685L404.8125 268.9279L408.625 263.02164L409.78125 263.02164L409.78125 268.6935ZM406.04688 268.6935L408.70312 268.6935L408.70312 264.506L408.5625 264.7404L406.04688 268.6935Z" fill-rule="nonzero"/><path stroke="#ea4335" stroke-width="3.0" stroke-linejoin="round" stroke-linecap="round" d="M237.78125 286.39603L238.96875 286.39603L238.96875 287.27103L237.78125 287.27103L237.78125 289.2554L236.70312 289.2554L236.70312 287.27103L232.8125 287.27103L232.8125 286.6304L236.625 280.72415L237.78125 280.72415L237.78125 286.39603ZM234.04688 286.39603L236.70312 286.39603L236.70312 282.20853L236.5625 282.4429L234.04688 286.39603ZM244.35938 285.5054Q244.03125 285.91165 243.54688 286.16165Q243.07812 286.39603 242.51562 286.39603Q241.78125 286.39603 241.23438 286.03665Q240.6875 285.67728 240.39062 285.02103Q240.09375 284.34915 240.09375 283.55228Q240.09375 282.70853 240.40625 282.02103Q240.73438 281.33353 241.32812 280.97415Q241.9375 280.59915 242.73438 280.59915Q244.0 280.59915 244.71875 281.55228Q245.45312 282.5054 245.45312 284.1304L245.45312 284.4429Q245.45312 286.9429 244.46875 288.08353Q243.48438 289.22415 241.5 289.2554L241.28125 289.2554L241.28125 288.34915L241.51562 288.34915Q242.85938 288.3179 243.57812 287.64603Q244.29688 286.97415 244.35938 285.5054ZM242.6875 285.5054Q243.23438 285.5054 243.6875 285.17728Q244.15625 284.83353 244.375 284.34915L244.375 283.91165Q244.375 282.84915 243.90625 282.17728Q243.4375 281.5054 242.73438 281.5054Q242.01562 281.5054 241.57812 282.05228Q241.15625 282.59915 241.15625 283.5054Q241.15625 284.3804 241.5625 284.9429Q241.98438 285.5054 242.6875 285.5054ZM247.34375 288.6929Q247.34375 288.41165 247.5 288.22415Q247.67188 288.03665 248.0 288.03665Q248.34375 288.03665 248.51562 288.22415Q248.6875 288.41165 248.6875 288.6929Q248.6875 288.95853 248.51562 289.14603Q248.34375 289.3179 248.0 289.3179Q247.67188 289.3179 247.5 289.14603Q247.34375 288.95853 247.34375 288.6929ZM253.76562 289.2554L252.6875 289.2554L252.6875 282.03665L250.5 282.83353L250.5 281.84915L253.60938 280.67728L253.76562 280.67728L253.76562 289.2554ZM261.78125 286.39603L262.96875 286.39603L262.96875 287.27103L261.78125 287.27103L261.78125 289.2554L260.70312 289.2554L260.70312 287.27103L256.8125 287.27103L256.8125 286.6304L260.625 280.72415L261.78125 280.72415L261.78125 286.39603ZM258.04688 286.39603L260.70312 286.39603L260.70312 282.20853L260.5625 282.4429L258.04688 286.39603Z" fill-rule="nonzero"/><path fill="#ffffff" d="M237.78125 286.39603L238.96875 286.39603L238.96875 287.27103L237.78125 287.27103L237.78125 289.2554L236.70312 289.2554L236.70312 287.27103L232.8125 287.27103L232.8125 286.6304L236.625 280.72415L237.78125 280.72415L237.78125 286.39603ZM234.04688 286.39603L236.70312 286.39603L236.70312 282.20853L236.5625 282.4429L234.04688 286.39603ZM244.35938 285.5054Q244.03125 285.91165 243.54688 286.16165Q243.07812 286.39603 242.51562 286.39603Q241.78125 286.39603 241.23438 286.03665Q240.6875 285.67728 240.39062 285.02103Q240.09375 284.34915 240.09375 283.55228Q240.09375 282.70853 240.40625 282.02103Q240.73438 281.33353 241.32812 280.97415Q241.9375 280.59915 242.73438 280.59915Q244.0 280.59915 244.71875 281.55228Q245.45312 282.5054 245.45312 284.1304L245.45312 284.4429Q245.45312 286.9429 244.46875 288.08353Q243.48438 289.22415 241.5 289.2554L241.28125 289.2554L241.28125 288.34915L241.51562 288.34915Q242.85938 288.3179 243.57812 287.64603Q244.29688 286.97415 244.35938 285.5054ZM242.6875 285.5054Q243.23438 285.5054 243.6875 285.17728Q244.15625 284.83353 244.375 284.34915L244.375 283.91165Q244.375 282.84915 243.90625 282.17728Q243.4375 281.5054 242.73438 281.5054Q242.01562 281.5054 241.57812 282.05228Q241.15625 282.59915 241.15625 283.5054Q241.15625 284.3804 241.5625 284.9429Q241.98438 285.5054 242.6875 285.5054ZM247.34375 288.6929Q247.34375 288.41165 247.5 288.22415Q247.67188 288.03665 248.0 288.03665Q248.34375 288.03665 248.51562 288.22415Q248.6875 288.41165 248.6875 288.6929Q248.6875 288.95853 248.51562 289.14603Q248.34375 289.3179 248.0 289.3179Q247.67188 289.3179 247.5 289.14603Q247.34375 288.95853 247.34375 288.6929ZM253.76562 289.2554L252.6875 289.2554L252.6875 282.03665L250.5 282.83353L250.5 281.84915L253.60938 280.67728L253.76562 280.67728L253.76562 289.2554ZM261.78125 286.39603L262.96875 286.39603L262.96875 287.27103L261.78125 287.27103L261.78125 289.2554L260.70312 289.2554L260.70312 287.27103L256.8125 287.27103L256.8125 286.6304L260.625 280.72415L261.78125 280.72415L261.78125 286.39603ZM258.04688 286.39603L260.70312 286.39603L260.70312 282.20853L260.5625 282.4429L258.04688 286.39603Z" fill-rule="nonzero"/><path stroke="#ea4335" stroke-width="3.0" stroke-linejoin="round" stroke-linecap="round" d="M454.78125 302.0919L455.59375 302.0919Q456.375 302.07626 456.8125 301.68564Q457.25 301.295 457.25 300.62314Q457.25 299.12314 455.75 299.12314Q455.04688 299.12314 454.625 299.5294Q454.21875 299.93564 454.21875 300.5919L453.125 300.5919Q453.125 299.57626 453.85938 298.9044Q454.60938 298.2325 455.75 298.2325Q456.95312 298.2325 457.64062 298.87314Q458.32812 299.51376 458.32812 300.6544Q458.32812 301.2169 457.96875 301.7325Q457.60938 302.24814 456.98438 302.51376Q457.6875 302.7325 458.0625 303.24814Q458.45312 303.76376 458.45312 304.51376Q458.45312 305.6544 457.70312 306.3419Q456.95312 307.01376 455.75 307.01376Q454.5625 307.01376 453.79688 306.3575Q453.04688 305.70126 453.04688 304.63876L454.14062 304.63876Q454.14062 305.31064 454.57812 305.7169Q455.01562 306.12314 455.76562 306.12314Q456.54688 306.12314 456.95312 305.7169Q457.375 305.295 457.375 304.5294Q457.375 303.795 456.92188 303.4044Q456.46875 302.99814 455.59375 302.9825L454.78125 302.9825L454.78125 302.0919ZM464.78125 304.0294L465.96875 304.0294L465.96875 304.9044L464.78125 304.9044L464.78125 306.88876L463.70312 306.88876L463.70312 304.9044L459.8125 304.9044L459.8125 304.26376L463.625 298.3575L464.78125 298.3575L464.78125 304.0294ZM461.04688 304.0294L463.70312 304.0294L463.70312 299.8419L463.5625 300.07626L461.04688 304.0294ZM467.34375 306.32626Q467.34375 306.045 467.5 305.8575Q467.67188 305.67 468.0 305.67Q468.34375 305.67 468.51562 305.8575Q468.6875 306.045 468.6875 306.32626Q468.6875 306.5919 468.51562 306.7794Q468.34375 306.95126 468.0 306.95126Q467.67188 306.95126 467.5 306.7794Q467.34375 306.5919 467.34375 306.32626ZM475.71875 298.9669L472.1875 306.88876L471.04688 306.88876L474.5625 299.24814L469.95312 299.24814L469.95312 298.3575L475.71875 298.3575L475.71875 298.9669ZM482.5625 303.24814Q482.5625 305.1544 481.90625 306.0919Q481.26562 307.01376 479.875 307.01376Q478.51562 307.01376 477.85938 306.1075Q477.20312 305.20126 477.17188 303.38876L477.17188 301.95126Q477.17188 300.06064 477.8125 299.1544Q478.46875 298.2325 479.85938 298.2325Q481.23438 298.2325 481.89062 299.12314Q482.54688 299.99814 482.5625 301.8419L482.5625 303.24814ZM481.46875 301.76376Q481.46875 300.38876 481.07812 299.76376Q480.70312 299.12314 479.85938 299.12314Q479.03125 299.12314 478.64062 299.76376Q478.26562 300.38876 478.26562 301.68564L478.26562 303.42Q478.26562 304.795 478.65625 305.4669Q479.0625 306.12314 479.875 306.12314Q480.67188 306.12314 481.0625 305.49814Q481.45312 304.87314 481.46875 303.545L481.46875 301.76376Z" fill-rule="nonzero"/><path fill="#ffffff" d="M454.78125 302.0919L455.59375 302.0919Q456.375 302.07626 456.8125 301.68564Q457.25 301.295 457.25 300.62314Q457.25 299.12314 455.75 299.12314Q455.04688 299.12314 454.625 299.5294Q454.21875 299.93564 454.21875 300.5919L453.125 300.5919Q453.125 299.57626 453.85938 298.9044Q454.60938 298.2325 455.75 298.2325Q456.95312 298.2325 457.64062 298.87314Q458.32812 299.51376 458.32812 300.6544Q458.32812 301.2169 457.96875 301.7325Q457.60938 302.24814 456.98438 302.51376Q457.6875 302.7325 458.0625 303.24814Q458.45312 303.76376 458.45312 304.51376Q458.45312 305.6544 457.70312 306.3419Q456.95312 307.01376 455.75 307.01376Q454.5625 307.01376 453.79688 306.3575Q453.04688 305.70126 453.04688 304.63876L454.14062 304.63876Q454.14062 305.31064 454.57812 305.7169Q455.01562 306.12314 455.76562 306.12314Q456.54688 306.12314 456.95312 305.7169Q457.375 305.295 457.375 304.5294Q457.375 303.795 456.92188 303.4044Q456.46875 302.99814 455.59375 302.9825L454.78125 302.9825L454.78125 302.0919ZM464.78125 304.0294L465.96875 304.0294L465.96875 304.9044L464.78125 304.9044L464.78125 306.88876L463.70312 306.88876L463.70312 304.9044L459.8125 304.9044L459.8125 304.26376L463.625 298.3575L464.78125 298.3575L464.78125 304.0294ZM461.04688 304.0294L463.70312 304.0294L463.70312 299.8419L463.5625 300.07626L461.04688 304.0294ZM467.34375 306.32626Q467.34375 306.045 467.5 305.8575Q467.67188 305.67 468.0 305.67Q468.34375 305.67 468.51562 305.8575Q468.6875 306.045 468.6875 306.32626Q468.6875 306.5919 468.51562 306.7794Q468.34375 306.95126 468.0 306.95126Q467.67188 306.95126 467.5 306.7794Q467.34375 306.5919 467.34375 306.32626ZM475.71875 298.9669L472.1875 306.88876L471.04688 306.88876L474.5625 299.24814L469.95312 299.24814L469.95312 298.3575L475.71875 298.3575L475.71875 298.9669ZM482.5625 303.24814Q482.5625 305.1544 481.90625 306.0919Q481.26562 307.01376 479.875 307.01376Q478.51562 307.01376 477.85938 306.1075Q477.20312 305.20126 477.17188 303.38876L477.17188 301.95126Q477.17188 300.06064 477.8125 299.1544Q478.46875 298.2325 479.85938 298.2325Q481.23438 298.2325 481.89062 299.12314Q482.54688 299.99814 482.5625 301.8419L482.5625 303.24814ZM481.46875 301.76376Q481.46875 300.38876 481.07812 299.76376Q480.70312 299.12314 479.85938 299.12314Q479.03125 299.12314 478.64062 299.76376Q478.26562 300.38876 478.26562 301.68564L478.26562 303.42Q478.26562 304.795 478.65625 305.4669Q479.0625 306.12314 479.875 306.12314Q480.67188 306.12314 481.0625 305.49814Q481.45312 304.87314 481.46875 303.545L481.46875 301.76376Z" fill-rule="nonzero"/><path fill="#000000" d="M33.05 332.21564Q33.05 330.6844 33.3625 329.7625Q33.675 328.825 34.284374 328.325Q34.909374 327.825 35.846874 327.825Q36.534374 327.825 37.05 328.10626Q37.58125 328.3875 37.925 328.91876Q38.26875 329.4344 38.45625 330.1844Q38.64375 330.9344 38.64375 332.21564Q38.64375 333.73126 38.33125 334.65314Q38.034374 335.575 37.409374 336.09064Q36.8 336.59064 35.846874 336.59064Q34.6125 336.59064 33.89375 335.7Q33.05 334.6375 33.05 332.21564ZM34.128124 332.21564Q34.128124 334.325 34.628124 335.02814Q35.128124 335.73126 35.846874 335.73126Q36.58125 335.73126 37.065624 335.02814Q37.565624 334.325 37.565624 332.21564Q37.565624 330.09064 37.065624 329.40314Q36.58125 328.7 35.83125 328.7Q35.1125 328.7 34.675 329.3094Q34.128124 330.09064 34.128124 332.21564ZM40.64375 336.45L40.64375 335.2469L41.846874 335.2469L41.846874 336.45L40.64375 336.45ZM43.05 332.21564Q43.05 330.6844 43.3625 329.7625Q43.675 328.825 44.284374 328.325Q44.909374 327.825 45.846874 327.825Q46.534374 327.825 47.05 328.10626Q47.58125 328.3875 47.925 328.91876Q48.26875 329.4344 48.45625 330.1844Q48.64375 330.9344 48.64375 332.21564Q48.64375 333.73126 48.33125 334.65314Q48.034374 335.575 47.409374 336.09064Q46.8 336.59064 45.846874 336.59064Q44.6125 336.59064 43.89375 335.7Q43.05 334.6375 43.05 332.21564ZM44.128124 332.21564Q44.128124 334.325 44.628124 335.02814Q45.128124 335.73126 45.846874 335.73126Q46.58125 335.73126 47.065624 335.02814Q47.565624 334.325 47.565624 332.21564Q47.565624 330.09064 47.065624 329.40314Q46.58125 328.7 45.83125 328.7Q45.1125 328.7 44.675 329.3094Q44.128124 330.09064 44.128124 332.21564ZM50.05 332.21564Q50.05 330.6844 50.3625 329.7625Q50.675 328.825 51.284374 328.325Q51.909374 327.825 52.846874 327.825Q53.534374 327.825 54.05 328.10626Q54.58125 328.3875 54.925 328.91876Q55.26875 329.4344 55.45625 330.1844Q55.64375 330.9344 55.64375 332.21564Q55.64375 333.73126 55.33125 334.65314Q55.034374 335.575 54.409374 336.09064Q53.8 336.59064 52.846874 336.59064Q51.6125 336.59064 50.89375 335.7Q50.05 334.6375 50.05 332.21564ZM51.128124 332.21564Q51.128124 334.325 51.628124 335.02814Q52.128124 335.73126 52.846874 335.73126Q53.58125 335.73126 54.065624 335.02814Q54.565624 334.325 54.565624 332.21564Q54.565624 330.09064 54.065624 329.40314Q53.58125 328.7 52.83125 328.7Q52.1125 328.7 51.675 329.3094Q51.128124 330.09064 51.128124 332.21564Z" fill-rule="nonzero"/><path fill="#000000" d="M26.05 273.15833L27.159374 273.06458Q27.284374 273.87708 27.721874 274.28333Q28.175 274.68958 28.815624 274.68958Q29.565624 274.68958 30.096874 274.11145Q30.628124 273.53333 30.628124 272.59583Q30.628124 271.68958 30.1125 271.17395Q29.6125 270.6427 28.784374 270.6427Q28.284374 270.6427 27.8625 270.87708Q27.45625 271.11145 27.221874 271.47083L26.2375 271.34583L27.065624 266.93958L31.346874 266.93958L31.346874 267.93958L27.909374 267.93958L27.45625 270.25208Q28.221874 269.7052 29.065624 269.7052Q30.190624 269.7052 30.95625 270.48645Q31.7375 271.2677 31.7375 272.50208Q31.7375 273.65833 31.065624 274.5177Q30.2375 275.54895 28.815624 275.54895Q27.64375 275.54895 26.89375 274.8927Q26.159374 274.23645 26.05 273.15833ZM33.05 271.17395Q33.05 269.6427 33.3625 268.72083Q33.675 267.78333 34.284374 267.28333Q34.909374 266.78333 35.846874 266.78333Q36.534374 266.78333 37.05 267.06458Q37.58125 267.34583 37.925 267.87708Q38.26875 268.3927 38.45625 269.1427Q38.64375 269.8927 38.64375 271.17395Q38.64375 272.68958 38.33125 273.61145Q38.034374 274.53333 37.409374 275.04895Q36.8 275.54895 35.846874 275.54895Q34.6125 275.54895 33.89375 274.65833Q33.05 273.59583 33.05 271.17395ZM34.128124 271.17395Q34.128124 273.28333 34.628124 273.98645Q35.128124 274.68958 35.846874 274.68958Q36.58125 274.68958 37.065624 273.98645Q37.565624 273.28333 37.565624 271.17395Q37.565624 269.04895 37.065624 268.36145Q36.58125 267.65833 35.83125 267.65833Q35.1125 267.65833 34.675 268.2677Q34.128124 269.04895 34.128124 271.17395ZM40.64375 275.40833L40.64375 274.2052L41.846874 274.2052L41.846874 275.40833L40.64375 275.40833ZM43.05 271.17395Q43.05 269.6427 43.3625 268.72083Q43.675 267.78333 44.284374 267.28333Q44.909374 266.78333 45.846874 266.78333Q46.534374 266.78333 47.05 267.06458Q47.58125 267.34583 47.925 267.87708Q48.26875 268.3927 48.45625 269.1427Q48.64375 269.8927 48.64375 271.17395Q48.64375 272.68958 48.33125 273.61145Q48.034374 274.53333 47.409374 275.04895Q46.8 275.54895 45.846874 275.54895Q44.6125 275.54895 43.89375 274.65833Q43.05 273.59583 43.05 271.17395ZM44.128124 271.17395Q44.128124 273.28333 44.628124 273.98645Q45.128124 274.68958 45.846874 274.68958Q46.58125 274.68958 47.065624 273.98645Q47.565624 273.28333 47.565624 271.17395Q47.565624 269.04895 47.065624 268.36145Q46.58125 267.65833 45.83125 267.65833Q45.1125 267.65833 44.675 268.2677Q44.128124 269.04895 44.128124 271.17395ZM50.05 271.17395Q50.05 269.6427 50.3625 268.72083Q50.675 267.78333 51.284374 267.28333Q51.909374 266.78333 52.846874 266.78333Q53.534374 266.78333 54.05 267.06458Q54.58125 267.34583 54.925 267.87708Q55.26875 268.3927 55.45625 269.1427Q55.64375 269.8927 55.64375 271.17395Q55.64375 272.68958 55.33125 273.61145Q55.034374 274.53333 54.409374 275.04895Q53.8 275.54895 52.846874 275.54895Q51.6125 275.54895 50.89375 274.65833Q50.05 273.59583 50.05 271.17395ZM51.128124 271.17395Q51.128124 273.28333 51.628124 273.98645Q52.128124 274.68958 52.846874 274.68958Q53.58125 274.68958 54.065624 273.98645Q54.565624 273.28333 54.565624 271.17395Q54.565624 269.04895 54.065624 268.36145Q53.58125 267.65833 52.83125 267.65833Q52.1125 267.65833 51.675 268.2677Q51.128124 269.04895 51.128124 271.17395Z" fill-rule="nonzero"/><path fill="#000000" d="M23.01875 214.36667L21.971874 214.36667L21.971874 207.64792Q21.58125 208.0073 20.95625 208.3823Q20.346874 208.74167 19.8625 208.91354L19.8625 207.89792Q20.7375 207.47604 21.39375 206.89792Q22.065624 206.30417 22.346874 205.74167L23.01875 205.74167L23.01875 214.36667ZM26.05 210.1323Q26.05 208.60104 26.3625 207.67917Q26.675 206.74167 27.284374 206.24167Q27.909374 205.74167 28.846874 205.74167Q29.534374 205.74167 30.05 206.02292Q30.58125 206.30417 30.925 206.83542Q31.26875 207.35104 31.45625 208.10104Q31.64375 208.85104 31.64375 210.1323Q31.64375 211.64792 31.33125 212.5698Q31.034374 213.49167 30.409374 214.0073Q29.8 214.5073 28.846874 214.5073Q27.6125 214.5073 26.89375 213.61667Q26.05 212.55417 26.05 210.1323ZM27.128124 210.1323Q27.128124 212.24167 27.628124 212.9448Q28.128124 213.64792 28.846874 213.64792Q29.58125 213.64792 30.065624 212.9448Q30.565624 212.24167 30.565624 210.1323Q30.565624 208.0073 30.065624 207.3198Q29.58125 206.61667 28.83125 206.61667Q28.1125 206.61667 27.675 207.22604Q27.128124 208.0073 27.128124 210.1323ZM33.05 210.1323Q33.05 208.60104 33.3625 207.67917Q33.675 206.74167 34.284374 206.24167Q34.909374 205.74167 35.846874 205.74167Q36.534374 205.74167 37.05 206.02292Q37.58125 206.30417 37.925 206.83542Q38.26875 207.35104 38.45625 208.10104Q38.64375 208.85104 38.64375 210.1323Q38.64375 211.64792 38.33125 212.5698Q38.034374 213.49167 37.409374 214.0073Q36.8 214.5073 35.846874 214.5073Q34.6125 214.5073 33.89375 213.61667Q33.05 212.55417 33.05 210.1323ZM34.128124 210.1323Q34.128124 212.24167 34.628124 212.9448Q35.128124 213.64792 35.846874 213.64792Q36.58125 213.64792 37.065624 212.9448Q37.565624 212.24167 37.565624 210.1323Q37.565624 208.0073 37.065624 207.3198Q36.58125 206.61667 35.83125 206.61667Q35.1125 206.61667 34.675 207.22604Q34.128124 208.0073 34.128124 210.1323ZM40.64375 214.36667L40.64375 213.16354L41.846874 213.16354L41.846874 214.36667L40.64375 214.36667ZM43.05 210.1323Q43.05 208.60104 43.3625 207.67917Q43.675 206.74167 44.284374 206.24167Q44.909374 205.74167 45.846874 205.74167Q46.534374 205.74167 47.05 206.02292Q47.58125 206.30417 47.925 206.83542Q48.26875 207.35104 48.45625 208.10104Q48.64375 208.85104 48.64375 210.1323Q48.64375 211.64792 48.33125 212.5698Q48.034374 213.49167 47.409374 214.0073Q46.8 214.5073 45.846874 214.5073Q44.6125 214.5073 43.89375 213.61667Q43.05 212.55417 43.05 210.1323ZM44.128124 210.1323Q44.128124 212.24167 44.628124 212.9448Q45.128124 213.64792 45.846874 213.64792Q46.58125 213.64792 47.065624 212.9448Q47.565624 212.24167 47.565624 210.1323Q47.565624 208.0073 47.065624 207.3198Q46.58125 206.61667 45.83125 206.61667Q45.1125 206.61667 44.675 207.22604Q44.128124 208.0073 44.128124 210.1323ZM50.05 210.1323Q50.05 208.60104 50.3625 207.67917Q50.675 206.74167 51.284374 206.24167Q51.909374 205.74167 52.846874 205.74167Q53.534374 205.74167 54.05 206.02292Q54.58125 206.30417 54.925 206.83542Q55.26875 207.35104 55.45625 208.10104Q55.64375 208.85104 55.64375 210.1323Q55.64375 211.64792 55.33125 212.5698Q55.034374 213.49167 54.409374 214.0073Q53.8 214.5073 52.846874 214.5073Q51.6125 214.5073 50.89375 213.61667Q50.05 212.55417 50.05 210.1323ZM51.128124 210.1323Q51.128124 212.24167 51.628124 212.9448Q52.128124 213.64792 52.846874 213.64792Q53.58125 213.64792 54.065624 212.9448Q54.565624 212.24167 54.565624 210.1323Q54.565624 208.0073 54.065624 207.3198Q53.58125 206.61667 52.83125 206.61667Q52.1125 206.61667 51.675 207.22604Q51.128124 208.0073 51.128124 210.1323Z" fill-rule="nonzero"/><path fill="#000000" d="M23.01875 153.325L21.971874 153.325L21.971874 146.60625Q21.58125 146.96562 20.95625 147.34062Q20.346874 147.7 19.8625 147.87187L19.8625 146.85625Q20.7375 146.43437 21.39375 145.85625Q22.065624 145.2625 22.346874 144.7L23.01875 144.7L23.01875 153.325ZM26.05 151.075L27.159374 150.98125Q27.284374 151.79375 27.721874 152.2Q28.175 152.60625 28.815624 152.60625Q29.565624 152.60625 30.096874 152.02812Q30.628124 151.45 30.628124 150.5125Q30.628124 149.60625 30.1125 149.09062Q29.6125 148.55937 28.784374 148.55937Q28.284374 148.55937 27.8625 148.79375Q27.45625 149.02812 27.221874 149.3875L26.2375 149.2625L27.065624 144.85625L31.346874 144.85625L31.346874 145.85625L27.909374 145.85625L27.45625 148.16875Q28.221874 147.62187 29.065624 147.62187Q30.190624 147.62187 30.95625 148.40312Q31.7375 149.18437 31.7375 150.41875Q31.7375 151.575 31.065624 152.43437Q30.2375 153.46562 28.815624 153.46562Q27.64375 153.46562 26.89375 152.80937Q26.159374 152.15312 26.05 151.075ZM33.05 149.09062Q33.05 147.55937 33.3625 146.6375Q33.675 145.7 34.284374 145.2Q34.909374 144.7 35.846874 144.7Q36.534374 144.7 37.05 144.98125Q37.58125 145.2625 37.925 145.79375Q38.26875 146.30937 38.45625 147.05937Q38.64375 147.80937 38.64375 149.09062Q38.64375 150.60625 38.33125 151.52812Q38.034374 152.45 37.409374 152.96562Q36.8 153.46562 35.846874 153.46562Q34.6125 153.46562 33.89375 152.575Q33.05 151.5125 33.05 149.09062ZM34.128124 149.09062Q34.128124 151.2 34.628124 151.90312Q35.128124 152.60625 35.846874 152.60625Q36.58125 152.60625 37.065624 151.90312Q37.565624 151.2 37.565624 149.09062Q37.565624 146.96562 37.065624 146.27812Q36.58125 145.575 35.83125 145.575Q35.1125 145.575 34.675 146.18437Q34.128124 146.96562 34.128124 149.09062ZM40.64375 153.325L40.64375 152.12187L41.846874 152.12187L41.846874 153.325L40.64375 153.325ZM43.05 149.09062Q43.05 147.55937 43.3625 146.6375Q43.675 145.7 44.284374 145.2Q44.909374 144.7 45.846874 144.7Q46.534374 144.7 47.05 144.98125Q47.58125 145.2625 47.925 145.79375Q48.26875 146.30937 48.45625 147.05937Q48.64375 147.80937 48.64375 149.09062Q48.64375 150.60625 48.33125 151.52812Q48.034374 152.45 47.409374 152.96562Q46.8 153.46562 45.846874 153.46562Q44.6125 153.46562 43.89375 152.575Q43.05 151.5125 43.05 149.09062ZM44.128124 149.09062Q44.128124 151.2 44.628124 151.90312Q45.128124 152.60625 45.846874 152.60625Q46.58125 152.60625 47.065624 151.90312Q47.565624 151.2 47.565624 149.09062Q47.565624 146.96562 47.065624 146.27812Q46.58125 145.575 45.83125 145.575Q45.1125 145.575 44.675 146.18437Q44.128124 146.96562 44.128124 149.09062ZM50.05 149.09062Q50.05 147.55937 50.3625 146.6375Q50.675 145.7 51.284374 145.2Q51.909374 144.7 52.846874 144.7Q53.534374 144.7 54.05 144.98125Q54.58125 145.2625 54.925 145.79375Q55.26875 146.30937 55.45625 147.05937Q55.64375 147.80937 55.64375 149.09062Q55.64375 150.60625 55.33125 151.52812Q55.034374 152.45 54.409374 152.96562Q53.8 153.46562 52.846874 153.46562Q51.6125 153.46562 50.89375 152.575Q50.05 151.5125 50.05 149.09062ZM51.128124 149.09062Q51.128124 151.2 51.628124 151.90312Q52.128124 152.60625 52.846874 152.60625Q53.58125 152.60625 54.065624 151.90312Q54.565624 151.2 54.565624 149.09062Q54.565624 146.96562 54.065624 146.27812Q53.58125 145.575 52.83125 145.575Q52.1125 145.575 51.675 146.18437Q51.128124 146.96562 51.128124 149.09062Z" fill-rule="nonzero"/><path fill="#000000" d="M24.596874 91.26771L24.596874 92.28333L18.909374 92.28333Q18.909374 91.90833 19.034374 91.54896Q19.253124 90.97083 19.721874 90.40833Q20.20625 89.84583 21.1125 89.11146Q22.51875 87.95521 23.003124 87.28333Q23.503124 86.61146 23.503124 86.01771Q23.503124 85.39271 23.05 84.97083Q22.596874 84.53333 21.878124 84.53333Q21.1125 84.53333 20.659374 84.98646Q20.20625 85.43958 20.190624 86.25208L19.1125 86.14271Q19.221874 84.92396 19.940624 84.29896Q20.675 83.65833 21.909374 83.65833Q23.14375 83.65833 23.8625 84.34583Q24.58125 85.03333 24.58125 86.04896Q24.58125 86.56458 24.3625 87.06458Q24.159374 87.54896 23.659374 88.11146Q23.175 88.65833 22.05 89.61146Q21.096874 90.40833 20.815624 90.70521Q20.55 90.98646 20.378124 91.26771L24.596874 91.26771ZM26.05 88.04896Q26.05 86.51771 26.3625 85.59583Q26.675 84.65833 27.284374 84.15833Q27.909374 83.65833 28.846874 83.65833Q29.534374 83.65833 30.05 83.93958Q30.58125 84.22083 30.925 84.75208Q31.26875 85.26771 31.45625 86.01771Q31.64375 86.76771 31.64375 88.04896Q31.64375 89.56458 31.33125 90.48646Q31.034374 91.40833 30.409374 91.92396Q29.8 92.42396 28.846874 92.42396Q27.6125 92.42396 26.89375 91.53333Q26.05 90.47083 26.05 88.04896ZM27.128124 88.04896Q27.128124 90.15833 27.628124 90.86146Q28.128124 91.56458 28.846874 91.56458Q29.58125 91.56458 30.065624 90.86146Q30.565624 90.15833 30.565624 88.04896Q30.565624 85.92396 30.065624 85.23646Q29.58125 84.53333 28.83125 84.53333Q28.1125 84.53333 27.675 85.14271Q27.128124 85.92396 27.128124 88.04896ZM33.05 88.04896Q33.05 86.51771 33.3625 85.59583Q33.675 84.65833 34.284374 84.15833Q34.909374 83.65833 35.846874 83.65833Q36.534374 83.65833 37.05 83.93958Q37.58125 84.22083 37.925 84.75208Q38.26875 85.26771 38.45625 86.01771Q38.64375 86.76771 38.64375 88.04896Q38.64375 89.56458 38.33125 90.48646Q38.034374 91.40833 37.409374 91.92396Q36.8 92.42396 35.846874 92.42396Q34.6125 92.42396 33.89375 91.53333Q33.05 90.47083 33.05 88.04896ZM34.128124 88.04896Q34.128124 90.15833 34.628124 90.86146Q35.128124 91.56458 35.846874 91.56458Q36.58125 91.56458 37.065624 90.86146Q37.565624 90.15833 37.565624 88.04896Q37.565624 85.92396 37.065624 85.23646Q36.58125 84.53333 35.83125 84.53333Q35.1125 84.53333 34.675 85.14271Q34.128124 85.92396 34.128124 88.04896ZM40.64375 92.28333L40.64375 91.08021L41.846874 91.08021L41.846874 92.28333L40.64375 92.28333ZM43.05 88.04896Q43.05 86.51771 43.3625 85.59583Q43.675 84.65833 44.284374 84.15833Q44.909374 83.65833 45.846874 83.65833Q46.534374 83.65833 47.05 83.93958Q47.58125 84.22083 47.925 84.75208Q48.26875 85.26771 48.45625 86.01771Q48.64375 86.76771 48.64375 88.04896Q48.64375 89.56458 48.33125 90.48646Q48.034374 91.40833 47.409374 91.92396Q46.8 92.42396 45.846874 92.42396Q44.6125 92.42396 43.89375 91.53333Q43.05 90.47083 43.05 88.04896ZM44.128124 88.04896Q44.128124 90.15833 44.628124 90.86146Q45.128124 91.56458 45.846874 91.56458Q46.58125 91.56458 47.065624 90.86146Q47.565624 90.15833 47.565624 88.04896Q47.565624 85.92396 47.065624 85.23646Q46.58125 84.53333 45.83125 84.53333Q45.1125 84.53333 44.675 85.14271Q44.128124 85.92396 44.128124 88.04896ZM50.05 88.04896Q50.05 86.51771 50.3625 85.59583Q50.675 84.65833 51.284374 84.15833Q51.909374 83.65833 52.846874 83.65833Q53.534374 83.65833 54.05 83.93958Q54.58125 84.22083 54.925 84.75208Q55.26875 85.26771 55.45625 86.01771Q55.64375 86.76771 55.64375 88.04896Q55.64375 89.56458 55.33125 90.48646Q55.034374 91.40833 54.409374 91.92396Q53.8 92.42396 52.846874 92.42396Q51.6125 92.42396 50.89375 91.53333Q50.05 90.47083 50.05 88.04896ZM51.128124 88.04896Q51.128124 90.15833 51.628124 90.86146Q52.128124 91.56458 52.846874 91.56458Q53.58125 91.56458 54.065624 90.86146Q54.565624 90.15833 54.565624 88.04896Q54.565624 85.92396 54.065624 85.23646Q53.58125 84.53333 52.83125 84.53333Q52.1125 84.53333 51.675 85.14271Q51.128124 85.92396 51.128124 88.04896Z" fill-rule="nonzero"/><path fill="#000000" d="M200.4395 347.0125L201.47075 346.8719Q201.502 347.85626 201.83012 348.21564Q202.15825 348.575 202.752 348.575Q203.17387 348.575 203.48637 348.3875Q203.79887 348.1844 203.90825 347.85626Q204.03325 347.5125 204.03325 346.77814L204.03325 340.85626L205.15825 340.85626L205.15825 346.71564Q205.15825 347.79376 204.89262 348.3875Q204.64262 348.98126 204.08012 349.29376Q203.51762 349.59064 202.752 349.59064Q201.627 349.59064 201.01762 348.95Q200.42387 348.29376 200.4395 347.0125ZM207.01762 349.45L207.01762 340.85626L210.26762 340.85626Q211.11137 340.85626 211.5645 340.9344Q212.20512 341.04376 212.627 341.34064Q213.0645 341.6375 213.3145 342.16876Q213.58012 342.7 213.58012 343.34064Q213.58012 344.4344 212.877 345.2Q212.1895 345.95 210.36137 345.95L208.15825 345.95L208.15825 349.45L207.01762 349.45ZM208.15825 344.95L210.377 344.95Q211.48637 344.95 211.9395 344.54376Q212.40825 344.1219 212.40825 343.3719Q212.40825 342.84064 212.127 342.46564Q211.86137 342.075 211.42387 341.95Q211.127 341.8719 210.36137 341.8719L208.15825 341.8719L208.15825 344.95ZM219.04887 346.075L219.04887 345.075L222.67387 345.0594L222.67387 348.2469Q221.84575 348.91876 220.95512 349.2625Q220.0645 349.59064 219.127 349.59064Q217.86137 349.59064 216.8145 349.0594Q215.78325 348.5125 215.252 347.4969Q214.73637 346.46564 214.73637 345.2Q214.73637 343.9344 215.252 342.85626Q215.78325 341.7625 216.76762 341.2469Q217.752 340.71564 219.03325 340.71564Q219.97075 340.71564 220.72075 341.0125Q221.47075 341.3094 221.89262 341.85626Q222.33012 342.3875 222.54887 343.2625L221.53325 343.54376Q221.33012 342.8875 221.03325 342.5125Q220.752 342.1375 220.22075 341.91876Q219.6895 341.6844 219.04887 341.6844Q218.26762 341.6844 217.6895 341.91876Q217.127 342.15314 216.76762 342.54376Q216.42387 342.9344 216.23637 343.40314Q215.90825 344.2 215.90825 345.1219Q215.90825 346.27814 216.29887 347.0594Q216.70512 347.825 217.45512 348.2Q218.20512 348.575 219.0645 348.575Q219.79887 348.575 220.502 348.29376Q221.20512 347.9969 221.5645 347.6844L221.5645 346.075L219.04887 346.075Z" fill-rule="nonzero"/><path fill="#000000" d="M420.32614 349.45L420.32614 340.85626L423.57614 340.85626Q424.4199 340.85626 424.87302 340.9344Q425.51364 341.04376 425.93552 341.34064Q426.37302 341.6375 426.62302 342.16876Q426.88864 342.7 426.88864 343.34064Q426.88864 344.4344 426.18552 345.2Q425.49802 345.95 423.6699 345.95L421.46677 345.95L421.46677 349.45L420.32614 349.45ZM421.46677 344.95L423.68552 344.95Q424.7949 344.95 425.24802 344.54376Q425.71677 344.1219 425.71677 343.3719Q425.71677 342.84064 425.43552 342.46564Q425.1699 342.075 424.7324 341.95Q424.43552 341.8719 423.6699 341.8719L421.46677 341.8719L421.46677 344.95ZM428.32614 349.45L428.32614 340.85626L429.4824 340.85626L433.99802 347.60626L433.99802 340.85626L435.09177 340.85626L435.09177 349.45L433.9199 349.45L429.40427 342.7L429.40427 349.45L428.32614 349.45ZM441.3574 346.075L441.3574 345.075L444.9824 345.0594L444.9824 348.2469Q444.15427 348.91876 443.26364 349.2625Q442.37302 349.59064 441.43552 349.59064Q440.1699 349.59064 439.12302 349.0594Q438.09177 348.5125 437.56052 347.4969Q437.0449 346.46564 437.0449 345.2Q437.0449 343.9344 437.56052 342.85626Q438.09177 341.7625 439.07614 341.2469Q440.06052 340.71564 441.34177 340.71564Q442.27927 340.71564 443.02927 341.0125Q443.77927 341.3094 444.20114 341.85626Q444.63864 342.3875 444.8574 343.2625L443.84177 343.54376Q443.63864 342.8875 443.34177 342.5125Q443.06052 342.1375 442.52927 341.91876Q441.99802 341.6844 441.3574 341.6844Q440.57614 341.6844 439.99802 341.91876Q439.43552 342.15314 439.07614 342.54376Q438.7324 342.9344 438.5449 343.40314Q438.21677 344.2 438.21677 345.1219Q438.21677 346.27814 438.6074 347.0594Q439.01364 347.825 439.76364 348.2Q440.51364 348.575 441.37302 348.575Q442.1074 348.575 442.81052 348.29376Q443.51364 347.9969 443.87302 347.6844L443.87302 346.075L441.3574 346.075Z" fill-rule="nonzero"/><path fill="#4285f4" d="M209.0 56.916668C209.0 56.364384 209.44771 55.916668 210.0 55.916668L220.0 55.916668C220.55229 55.916668 221.0 56.364384 221.0 56.916668L221.0 66.916664C221.0 67.46895 220.55229 67.916664 220.0 67.916664L210.0 67.916664C209.44771 67.916664 209.0 67.46895 209.0 66.916664Z" fill-rule="nonzero"/><path fill="#1a1a1a" d="M229.57812 61.729164Q229.57812 59.58854 230.71875 58.385414Q231.875 57.166664 233.6875 57.166664Q234.89062 57.166664 235.84375 57.74479Q236.79688 58.30729 237.29688 59.322914Q237.79688 60.33854 237.79688 61.635414Q237.79688 62.93229 237.26562 63.96354Q236.73438 64.99479 235.76562 65.52604Q234.8125 66.05729 233.6875 66.05729Q232.46875 66.05729 231.51562 65.479164Q230.5625 64.885414 230.0625 63.885414Q229.57812 62.86979 229.57812 61.729164ZM230.75 61.74479Q230.75 63.30729 231.57812 64.197914Q232.42188 65.08854 233.6875 65.08854Q234.96875 65.08854 235.79688 64.197914Q236.625 63.291664 236.625 61.61979Q236.625 60.572914 236.26562 59.791664Q235.92188 59.010414 235.23438 58.58854Q234.54688 58.15104 233.70312 58.15104Q232.5 58.15104 231.625 58.979164Q230.75 59.80729 230.75 61.74479ZM238.78125 65.916664L238.78125 59.697914L239.73438 59.697914L239.73438 60.635414Q240.09375 59.979164 240.39062 59.77604Q240.70312 59.55729 241.07812 59.55729Q241.60938 59.55729 242.15625 59.885414L241.79688 60.86979Q241.40625 60.635414 241.03125 60.635414Q240.67188 60.635414 240.39062 60.854164Q240.125 61.05729 240.01562 61.43229Q239.82812 61.99479 239.82812 62.65104L239.82812 65.916664L238.78125 65.916664ZM242.79688 58.541664L242.79688 57.322914L243.85938 57.322914L243.85938 58.541664L242.79688 58.541664ZM242.79688 65.916664L242.79688 59.697914L243.85938 59.697914L243.85938 65.916664L242.79688 65.916664ZM245.59375 66.43229L246.625 66.58854Q246.6875 67.05729 246.98438 67.27604Q247.375 67.572914 248.04688 67.572914Q248.78125 67.572914 249.17188 67.27604Q249.57812 66.979164 249.71875 66.46354Q249.8125 66.135414 249.79688 65.104164Q249.10938 65.916664 248.07812 65.916664Q246.79688 65.916664 246.09375 64.99479Q245.39062 64.05729 245.39062 62.77604Q245.39062 61.885414 245.70312 61.135414Q246.03125 60.36979 246.64062 59.96354Q247.25 59.55729 248.07812 59.55729Q249.1875 59.55729 249.90625 60.447914L249.90625 59.697914L250.875 59.697914L250.875 65.072914Q250.875 66.52604 250.57812 67.135414Q250.28125 67.74479 249.64062 68.08854Q249.0 68.447914 248.0625 68.447914Q246.95312 68.447914 246.26562 67.947914Q245.57812 67.447914 245.59375 66.43229ZM246.46875 62.697914Q246.46875 63.916664 246.95312 64.479164Q247.4375 65.041664 248.17188 65.041664Q248.90625 65.041664 249.39062 64.479164Q249.89062 63.916664 249.89062 62.729164Q249.89062 61.58854 249.375 61.010414Q248.875 60.43229 248.15625 60.43229Q247.45312 60.43229 246.95312 61.010414Q246.46875 61.572914 246.46875 62.697914ZM252.79688 58.541664L252.79688 57.322914L253.85938 57.322914L253.85938 58.541664L252.79688 58.541664ZM252.79688 65.916664L252.79688 59.697914L253.85938 59.697914L253.85938 65.916664L252.79688 65.916664ZM255.79688 65.916664L255.79688 59.697914L256.73438 59.697914L256.73438 60.572914Q257.42188 59.55729 258.71875 59.55729Q259.28125 59.55729 259.75 59.760414Q260.23438 59.96354 260.46875 60.291664Q260.70312 60.61979 260.79688 61.05729Q260.84375 61.354164 260.84375 62.08854L260.84375 65.916664L259.79688 65.916664L259.79688 62.135414Q259.79688 61.479164 259.67188 61.166664Q259.54688 60.854164 259.23438 60.666664Q258.92188 60.46354 258.5 60.46354Q257.82812 60.46354 257.32812 60.90104Q256.84375 61.322914 256.84375 62.510414L256.84375 65.916664L255.79688 65.916664ZM266.85938 65.15104Q266.26562 65.65104 265.71875 65.854164Q265.1875 66.05729 264.5625 66.05729Q263.53125 66.05729 262.98438 65.55729Q262.4375 65.05729 262.4375 64.27604Q262.4375 63.822914 262.64062 63.447914Q262.84375 63.05729 263.1875 62.83854Q263.53125 62.604164 263.95312 62.49479Q264.25 62.40104 264.89062 62.322914Q266.15625 62.18229 266.76562 61.96354Q266.76562 61.74479 266.76562 61.697914Q266.76562 61.041664 266.46875 60.77604Q266.0625 60.43229 265.26562 60.43229Q264.53125 60.43229 264.17188 60.697914Q263.8125 60.947914 263.64062 61.604164L262.60938 61.46354Q262.75 60.80729 263.07812 60.40104Q263.40625 59.99479 264.01562 59.77604Q264.625 59.55729 265.42188 59.55729Q266.21875 59.55729 266.71875 59.74479Q267.21875 59.93229 267.45312 60.21354Q267.6875 60.49479 267.78125 60.93229Q267.82812 61.197914 267.82812 61.90104L267.82812 63.30729Q267.82812 64.77604 267.89062 65.166664Q267.96875 65.55729 268.17188 65.916664L267.0625 65.916664Q266.90625 65.58854 266.85938 65.15104ZM266.76562 62.791664Q266.1875 63.02604 265.04688 63.197914Q264.39062 63.291664 264.125 63.416664Q263.85938 63.52604 263.70312 63.74479Q263.5625 63.96354 263.5625 64.24479Q263.5625 64.666664 263.875 64.947914Q264.20312 65.229164 264.8125 65.229164Q265.42188 65.229164 265.89062 64.96354Q266.375 64.697914 266.59375 64.229164Q266.76562 63.86979 266.76562 63.18229L266.76562 62.791664ZM269.76562 65.916664L269.76562 57.322914L270.82812 57.322914L270.82812 65.916664L269.76562 65.916664ZM275.375 64.05729L276.40625 63.90104Q276.5 64.52604 276.89062 64.854164Q277.29688 65.18229 278.03125 65.18229Q278.75 65.18229 279.09375 64.90104Q279.45312 64.604164 279.45312 64.197914Q279.45312 63.83854 279.14062 63.635414Q278.92188 63.49479 278.0625 63.27604Q276.90625 62.979164 276.45312 62.77604Q276.01562 62.55729 275.78125 62.18229Q275.54688 61.80729 275.54688 61.33854Q275.54688 60.93229 275.73438 60.572914Q275.92188 60.21354 276.25 59.979164Q276.5 59.80729 276.92188 59.68229Q277.34375 59.55729 277.84375 59.55729Q278.5625 59.55729 279.10938 59.77604Q279.67188 59.979164 279.9375 60.33854Q280.20312 60.697914 280.29688 61.291664L279.26562 61.43229Q279.20312 60.96354 278.85938 60.697914Q278.53125 60.416664 277.90625 60.416664Q277.1875 60.416664 276.875 60.666664Q276.5625 60.90104 276.5625 61.229164Q276.5625 61.43229 276.6875 61.58854Q276.82812 61.760414 277.09375 61.86979Q277.25 61.93229 278.03125 62.135414Q279.15625 62.447914 279.59375 62.635414Q280.03125 62.822914 280.28125 63.18229Q280.53125 63.541664 280.53125 64.08854Q280.53125 64.61979 280.21875 65.08854Q279.92188 65.541664 279.34375 65.80729Q278.76562 66.05729 278.03125 66.05729Q276.8125 66.05729 276.17188 65.55729Q275.54688 65.041664 275.375 64.05729ZM282.79688 58.541664L282.79688 57.322914L283.85938 57.322914L283.85938 58.541664L282.79688 58.541664ZM282.79688 65.916664L282.79688 59.697914L283.85938 59.697914L283.85938 65.916664L282.79688 65.916664ZM285.23438 65.916664L285.23438 65.05729L289.20312 60.510414Q288.51562 60.541664 288.0 60.541664L285.46875 60.541664L285.46875 59.697914L290.5625 59.697914L290.5625 60.385414L287.1875 64.33854L286.53125 65.05729Q287.25 65.010414 287.85938 65.010414L290.75 65.010414L290.75 65.916664L285.23438 65.916664ZM295.04688 63.916664L296.14062 64.041664Q295.89062 64.99479 295.1875 65.52604Q294.48438 66.05729 293.40625 66.05729Q292.04688 66.05729 291.23438 65.21354Q290.4375 64.36979 290.4375 62.854164Q290.4375 61.291664 291.25 60.43229Q292.0625 59.55729 293.34375 59.55729Q294.59375 59.55729 295.375 60.40104Q296.17188 61.24479 296.17188 62.791664Q296.17188 62.885414 296.17188 63.072914L291.53125 63.072914Q291.59375 64.104164 292.10938 64.65104Q292.625 65.18229 293.40625 65.18229Q293.98438 65.18229 294.39062 64.885414Q294.8125 64.572914 295.04688 63.916664ZM291.59375 62.21354L295.0625 62.21354Q295.0 61.416664 294.67188 61.02604Q294.15625 60.416664 293.35938 60.416664Q292.625 60.416664 292.125 60.90104Q291.64062 61.385414 291.59375 62.21354Z" fill-rule="nonzero"/><path fill="#ea4335" d="M313.0 56.916668C313.0 56.364384 313.44772 55.916668 314.0 55.916668L324.0 55.916668C324.55228 55.916668 325.0 56.364384 325.0 56.916668L325.0 66.916664C325.0 67.46895 324.55228 67.916664 324.0 67.916664L314.0 67.916664C313.44772 67.916664 313.0 67.46895 313.0 66.916664Z" fill-rule="nonzero"/><path fill="#1a1a1a" d="M335.42188 65.916664L333.14062 57.322914L334.3125 57.322914L335.625 62.96354Q335.82812 63.83854 335.98438 64.71354Q336.3125 63.33854 336.375 63.11979L338.0 57.322914L339.375 57.322914L340.60938 61.666664Q341.0625 63.291664 341.28125 64.71354Q341.4375 63.90104 341.70312 62.83854L343.04688 57.322914L344.1875 57.322914L341.84375 65.916664L340.73438 65.916664L338.9375 59.36979Q338.70312 58.55729 338.65625 58.36979Q338.53125 58.947914 338.40625 59.36979L336.59375 65.916664L335.42188 65.916664ZM349.04688 63.916664L350.14062 64.041664Q349.89062 64.99479 349.1875 65.52604Q348.48438 66.05729 347.40625 66.05729Q346.04688 66.05729 345.23438 65.21354Q344.4375 64.36979 344.4375 62.854164Q344.4375 61.291664 345.25 60.43229Q346.0625 59.55729 347.34375 59.55729Q348.59375 59.55729 349.375 60.40104Q350.17188 61.24479 350.17188 62.791664Q350.17188 62.885414 350.17188 63.072914L345.53125 63.072914Q345.59375 64.104164 346.10938 64.65104Q346.625 65.18229 347.40625 65.18229Q347.98438 65.18229 348.39062 64.885414Q348.8125 64.572914 349.04688 63.916664ZM345.59375 62.21354L349.0625 62.21354Q349.0 61.416664 348.67188 61.02604Q348.15625 60.416664 347.35938 60.416664Q346.625 60.416664 346.125 60.90104Q345.64062 61.385414 345.59375 62.21354ZM352.76562 65.916664L351.78125 65.916664L351.78125 57.322914L352.84375 57.322914L352.84375 60.385414Q353.51562 59.55729 354.54688 59.55729Q355.125 59.55729 355.625 59.791664Q356.14062 60.010414 356.46875 60.43229Q356.8125 60.854164 357.0 61.447914Q357.1875 62.041664 357.1875 62.71354Q357.1875 64.30729 356.39062 65.18229Q355.59375 66.05729 354.5 66.05729Q353.39062 66.05729 352.76562 65.135414L352.76562 65.916664ZM352.75 62.760414Q352.75 63.86979 353.0625 64.36979Q353.5625 65.18229 354.40625 65.18229Q355.09375 65.18229 355.59375 64.58854Q356.10938 63.99479 356.10938 62.791664Q356.10938 61.572914 355.625 60.99479Q355.14062 60.416664 354.45312 60.416664Q353.76562 60.416664 353.25 61.02604Q352.75 61.61979 352.75 62.760414ZM358.92188 65.916664L358.92188 57.322914L362.17188 57.322914Q363.01562 57.322914 363.46875 57.40104Q364.10938 57.510414 364.53125 57.80729Q364.96875 58.104164 365.21875 58.635414Q365.48438 59.166664 365.48438 59.80729Q365.48438 60.90104 364.78125 61.666664Q364.09375 62.416664 362.26562 62.416664L360.0625 62.416664L360.0625 65.916664L358.92188 65.916664ZM360.0625 61.416664L362.28125 61.416664Q363.39062 61.416664 363.84375 61.010414Q364.3125 60.58854 364.3125 59.83854Q364.3125 59.30729 364.03125 58.93229Q363.76562 58.541664 363.32812 58.416664Q363.03125 58.33854 362.26562 58.33854L360.0625 58.33854L360.0625 61.416664ZM369.375 64.05729L370.40625 63.90104Q370.5 64.52604 370.89062 64.854164Q371.29688 65.18229 372.03125 65.18229Q372.75 65.18229 373.09375 64.90104Q373.45312 64.604164 373.45312 64.197914Q373.45312 63.83854 373.14062 63.635414Q372.92188 63.49479 372.0625 63.27604Q370.90625 62.979164 370.45312 62.77604Q370.01562 62.55729 369.78125 62.18229Q369.54688 61.80729 369.54688 61.33854Q369.54688 60.93229 369.73438 60.572914Q369.92188 60.21354 370.25 59.979164Q370.5 59.80729 370.92188 59.68229Q371.34375 59.55729 371.84375 59.55729Q372.5625 59.55729 373.10938 59.77604Q373.67188 59.979164 373.9375 60.33854Q374.20312 60.697914 374.29688 61.291664L373.26562 61.43229Q373.20312 60.96354 372.85938 60.697914Q372.53125 60.416664 371.90625 60.416664Q371.1875 60.416664 370.875 60.666664Q370.5625 60.90104 370.5625 61.229164Q370.5625 61.43229 370.6875 61.58854Q370.82812 61.760414 371.09375 61.86979Q371.25 61.93229 372.03125 62.135414Q373.15625 62.447914 373.59375 62.635414Q374.03125 62.822914 374.28125 63.18229Q374.53125 63.541664 374.53125 64.08854Q374.53125 64.61979 374.21875 65.08854Q373.92188 65.541664 373.34375 65.80729Q372.76562 66.05729 372.03125 66.05729Q370.8125 66.05729 370.17188 65.55729Q369.54688 65.041664 369.375 64.05729ZM376.79688 58.541664L376.79688 57.322914L377.85938 57.322914L377.85938 58.541664L376.79688 58.541664ZM376.79688 65.916664L376.79688 59.697914L377.85938 59.697914L377.85938 65.916664L376.79688 65.916664ZM379.23438 65.916664L379.23438 65.05729L383.20312 60.510414Q382.51562 60.541664 382.0 60.541664L379.46875 60.541664L379.46875 59.697914L384.5625 59.697914L384.5625 60.385414L381.1875 64.33854L380.53125 65.05729Q381.25 65.010414 381.85938 65.010414L384.75 65.010414L384.75 65.916664L379.23438 65.916664ZM389.04688 63.916664L390.14062 64.041664Q389.89062 64.99479 389.1875 65.52604Q388.48438 66.05729 387.40625 66.05729Q386.04688 66.05729 385.23438 65.21354Q384.4375 64.36979 384.4375 62.854164Q384.4375 61.291664 385.25 60.43229Q386.0625 59.55729 387.34375 59.55729Q388.59375 59.55729 389.375 60.40104Q390.17188 61.24479 390.17188 62.791664Q390.17188 62.885414 390.17188 63.072914L385.53125 63.072914Q385.59375 64.104164 386.10938 64.65104Q386.625 65.18229 387.40625 65.18229Q387.98438 65.18229 388.39062 64.885414Q388.8125 64.572914 389.04688 63.916664ZM385.59375 62.21354L389.0625 62.21354Q389.0 61.416664 388.67188 61.02604Q388.15625 60.416664 387.35938 60.416664Q386.625 60.416664 386.125 60.90104Q385.64062 61.385414 385.59375 62.21354Z" fill-rule="nonzero"/><path fill="#757575" d="M19.51875 30.58125Q19.51875 27.01875 21.425 25.003124Q23.346874 22.971874 26.378124 22.971874Q28.3625 22.971874 29.940624 23.925Q31.534374 24.878124 32.3625 26.58125Q33.20625 28.26875 33.20625 30.409374Q33.20625 32.58125 32.33125 34.3Q31.45625 36.01875 29.83125 36.909374Q28.221874 37.8 26.3625 37.8Q24.346874 37.8 22.753124 36.83125Q21.159374 35.846874 20.33125 34.159374Q19.51875 32.45625 19.51875 30.58125ZM21.471874 30.6125Q21.471874 33.190624 22.8625 34.690624Q24.253124 36.175 26.346874 36.175Q28.4875 36.175 29.8625 34.675Q31.253124 33.159374 31.253124 30.39375Q31.253124 28.659374 30.659374 27.3625Q30.08125 26.05 28.940624 25.33125Q27.8 24.6125 26.378124 24.6125Q24.378124 24.6125 22.925 26.003124Q21.471874 27.378124 21.471874 30.6125ZM35.846874 37.55L35.846874 27.175L37.425 27.175L37.425 28.753124Q38.034374 27.64375 38.55 27.3Q39.065624 26.940624 39.675 26.940624Q40.565624 26.940624 41.4875 27.503124L40.878124 29.14375Q40.2375 28.753124 39.596874 28.753124Q39.01875 28.753124 38.55 29.1125Q38.096874 29.45625 37.89375 30.065624Q37.6125 31.003124 37.6125 32.1125L37.6125 37.55L35.846874 37.55ZM42.878124 25.253124L42.878124 23.2375L44.64375 23.2375L44.64375 25.253124L42.878124 25.253124ZM42.878124 37.55L42.878124 27.175L44.64375 27.175L44.64375 37.55L42.878124 37.55ZM46.55 38.409374L48.253124 38.659374Q48.3625 39.45625 48.846874 39.815624Q49.503124 40.3 50.64375 40.3Q51.8625 40.3 52.51875 39.815624Q53.190624 39.33125 53.425 38.45625Q53.565624 37.909374 53.55 36.190624Q52.39375 37.55 50.675 37.55Q48.534374 37.55 47.3625 36.003124Q46.190624 34.45625 46.190624 32.3Q46.190624 30.815624 46.721874 29.565624Q47.26875 28.315624 48.284374 27.628124Q49.315624 26.940624 50.690624 26.940624Q52.51875 26.940624 53.721874 28.425L53.721874 27.175L55.33125 27.175L55.33125 36.14375Q55.33125 38.565624 54.83125 39.565624Q54.346874 40.58125 53.26875 41.159374Q52.20625 41.753124 50.64375 41.753124Q48.8 41.753124 47.64375 40.925Q46.503124 40.096874 46.55 38.409374ZM48.003124 32.175Q48.003124 34.221874 48.815624 35.159374Q49.628124 36.096874 50.846874 36.096874Q52.05 36.096874 52.8625 35.159374Q53.690624 34.221874 53.690624 32.2375Q53.690624 30.33125 52.846874 29.3625Q52.003124 28.39375 50.815624 28.39375Q49.64375 28.39375 48.815624 29.346874Q48.003124 30.3 48.003124 32.175ZM57.878124 25.253124L57.878124 23.2375L59.64375 23.2375L59.64375 25.253124L57.878124 25.253124ZM57.878124 37.55L57.878124 27.175L59.64375 27.175L59.64375 37.55L57.878124 37.55ZM61.8625 37.55L61.8625 27.175L63.45625 27.175L63.45625 28.659374Q64.59688 26.940624 66.75313 26.940624Q67.69063 26.940624 68.47188 27.284374Q69.26875 27.6125 69.65938 28.159374Q70.05 28.70625 70.20625 29.45625Q70.3 29.95625 70.3 31.175L70.3 37.55L68.53438 37.55L68.53438 31.2375Q68.53438 30.159374 68.33125 29.628124Q68.12813 29.096874 67.59688 28.784374Q67.08125 28.471874 66.37813 28.471874Q65.25313 28.471874 64.44063 29.190624Q63.628124 29.89375 63.628124 31.878124L63.628124 37.55L61.8625 37.55ZM78.64375 36.26875Q77.65938 37.096874 76.75313 37.440624Q75.84688 37.784374 74.81563 37.784374Q73.1125 37.784374 72.19063 36.95625Q71.26875 36.1125 71.26875 34.815624Q71.26875 34.05 71.6125 33.425Q71.97188 32.8 72.53438 32.425Q73.09688 32.034374 73.8 31.83125Q74.31563 31.70625 75.3625 31.565624Q77.4875 31.315624 78.4875 30.971874Q78.50313 30.6125 78.50313 30.503124Q78.50313 29.440624 78.00313 28.9875Q77.33125 28.39375 76.00313 28.39375Q74.75313 28.39375 74.15938 28.83125Q73.58125 29.26875 73.3 30.378124L71.58125 30.14375Q71.81563 29.034374 72.34688 28.3625Q72.87813 27.675 73.89375 27.315624Q74.90938 26.940624 76.25313 26.940624Q77.58125 26.940624 78.40938 27.253124Q79.2375 27.565624 79.62813 28.05Q80.01875 28.51875 80.175 29.2375Q80.26875 29.690624 80.26875 30.8625L80.26875 33.20625Q80.26875 35.659374 80.37813 36.315624Q80.4875 36.95625 80.83125 37.55L78.9875 37.55Q78.72188 37.003124 78.64375 36.26875ZM78.4875 32.346874Q77.53438 32.7375 75.6125 33.003124Q74.53438 33.159374 74.08125 33.3625Q73.64375 33.55 73.39375 33.925Q73.14375 34.3 73.14375 34.76875Q73.14375 35.471874 73.675 35.940624Q74.20625 36.409374 75.2375 36.409374Q76.25313 36.409374 77.03438 35.971874Q77.83125 35.51875 78.20625 34.753124Q78.4875 34.14375 78.4875 32.9875L78.4875 32.346874ZM82.83125 37.55L82.83125 23.2375L84.58125 23.2375L84.58125 37.55L82.83125 37.55ZM92.15938 34.45625L93.90938 34.175Q94.05 35.221874 94.72188 35.784374Q95.39375 36.33125 96.59688 36.33125Q97.8 36.33125 98.37813 35.846874Q98.97188 35.346874 98.97188 34.690624Q98.97188 34.096874 98.45625 33.753124Q98.09688 33.51875 96.65938 33.159374Q94.72188 32.659374 93.97188 32.315624Q93.2375 31.95625 92.84688 31.33125Q92.45625 30.690624 92.45625 29.925Q92.45625 29.2375 92.76875 28.64375Q93.09688 28.05 93.64375 27.659374Q94.05 27.3625 94.75313 27.159374Q95.47188 26.940624 96.28438 26.940624Q97.50313 26.940624 98.425 27.3Q99.34688 27.64375 99.78438 28.253124Q100.22188 28.846874 100.39375 29.846874L98.675 30.08125Q98.55 29.284374 97.9875 28.846874Q97.425 28.39375 96.40938 28.39375Q95.19063 28.39375 94.675 28.8Q94.15938 29.190624 94.15938 29.721874Q94.15938 30.065624 94.37813 30.346874Q94.58125 30.628124 95.05 30.815624Q95.31563 30.909374 96.59688 31.253124Q98.47188 31.753124 99.20625 32.08125Q99.94063 32.39375 100.3625 33.003124Q100.78438 33.596874 100.78438 34.503124Q100.78438 35.378124 100.26875 36.159374Q99.75313 36.940624 98.78438 37.3625Q97.81563 37.784374 96.59688 37.784374Q94.58125 37.784374 93.51875 36.940624Q92.45625 36.096874 92.15938 34.45625ZM102.87813 25.253124L102.87813 23.2375L104.64375 23.2375L104.64375 25.253124L102.87813 25.253124ZM102.87813 37.55L102.87813 27.175L104.64375 27.175L104.64375 37.55L102.87813 37.55ZM105.94063 37.55L105.94063 36.128124L112.55 28.55Q111.425 28.596874 110.56563 28.596874L106.33125 28.596874L106.33125 27.175L114.81563 27.175L114.81563 28.346874L109.19063 34.925L108.1125 36.128124Q109.28438 36.034374 110.33125 36.034374L115.12813 36.034374L115.12813 37.55L105.94063 37.55ZM122.97188 34.20625L124.78438 34.440624Q124.3625 36.01875 123.19063 36.909374Q122.03438 37.784374 120.22188 37.784374Q117.95625 37.784374 116.6125 36.39375Q115.28438 34.9875 115.28438 32.45625Q115.28438 29.83125 116.62813 28.39375Q117.97188 26.940624 120.12813 26.940624Q122.20625 26.940624 123.51875 28.3625Q124.84688 29.76875 124.84688 32.346874Q124.84688 32.503124 124.83125 32.815624L117.09688 32.815624Q117.19063 34.51875 118.06563 35.425Q118.94063 36.33125 120.2375 36.33125Q121.20625 36.33125 121.87813 35.83125Q122.56563 35.315624 122.97188 34.20625ZM117.19063 31.3625L122.9875 31.3625Q122.87813 30.065624 122.33125 29.409374Q121.4875 28.39375 120.14375 28.39375Q118.94063 28.39375 118.1125 29.20625Q117.28438 30.003124 117.19063 31.3625ZM135.75313 37.55L131.8 27.175L133.65938 27.175L135.89375 33.39375Q136.25313 34.39375 136.55 35.471874Q136.78438 34.659374 137.20625 33.503124L139.50313 27.175L141.31563 27.175L137.39375 37.55L135.75313 37.55ZM141.15938 34.45625L142.90938 34.175Q143.05 35.221874 143.72188 35.784374Q144.39375 36.33125 145.59688 36.33125Q146.8 36.33125 147.37813 35.846874Q147.97188 35.346874 147.97188 34.690624Q147.97188 34.096874 147.45625 33.753124Q147.09688 33.51875 145.65938 33.159374Q143.72188 32.659374 142.97188 32.315624Q142.2375 31.95625 141.84688 31.33125Q141.45625 30.690624 141.45625 29.925Q141.45625 29.2375 141.76875 28.64375Q142.09688 28.05 142.64375 27.659374Q143.05 27.3625 143.75313 27.159374Q144.47188 26.940624 145.28438 26.940624Q146.50313 26.940624 147.425 27.3Q148.34688 27.64375 148.78438 28.253124Q149.22188 28.846874 149.39375 29.846874L147.675 30.08125Q147.55 29.284374 146.9875 28.846874Q146.425 28.39375 145.40938 28.39375Q144.19063 28.39375 143.675 28.8Q143.15938 29.190624 143.15938 29.721874Q143.15938 30.065624 143.37813 30.346874Q143.58125 30.628124 144.05 30.815624Q144.31563 30.909374 145.59688 31.253124Q147.47188 31.753124 148.20625 32.08125Q148.94063 32.39375 149.3625 33.003124Q149.78438 33.596874 149.78438 34.503124Q149.78438 35.378124 149.26875 36.159374Q148.75313 36.940624 147.78438 37.3625Q146.81563 37.784374 145.59688 37.784374Q143.58125 37.784374 142.51875 36.940624Q141.45625 36.096874 141.15938 34.45625ZM160.59688 37.55L156.8 23.2375L158.7375 23.2375L160.90938 32.6125Q161.26875 34.096874 161.51875 35.55Q162.06563 33.253124 162.15938 32.89375L164.89375 23.2375L167.175 23.2375L169.22188 30.471874Q170.00313 33.175 170.34688 35.55Q170.6125 34.190624 171.05 32.425L173.3 23.2375L175.20625 23.2375L171.28438 37.55L169.45625 37.55L166.44063 26.64375Q166.05 25.26875 165.9875 24.95625Q165.75313 25.940624 165.56563 26.64375L162.53438 37.55L160.59688 37.55ZM183.97188 34.20625L185.78438 34.440624Q185.3625 36.01875 184.19063 36.909374Q183.03438 37.784374 181.22188 37.784374Q178.95625 37.784374 177.6125 36.39375Q176.28438 34.9875 176.28438 32.45625Q176.28438 29.83125 177.62813 28.39375Q178.97188 26.940624 181.12813 26.940624Q183.20625 26.940624 184.51875 28.3625Q185.84688 29.76875 185.84688 32.346874Q185.84688 32.503124 185.83125 32.815624L178.09688 32.815624Q178.19063 34.51875 179.06563 35.425Q179.94063 36.33125 181.2375 36.33125Q182.20625 36.33125 182.87813 35.83125Q183.56563 35.315624 183.97188 34.20625ZM178.19063 31.3625L183.9875 31.3625Q183.87813 30.065624 183.33125 29.409374Q182.4875 28.39375 181.14375 28.39375Q179.94063 28.39375 179.1125 29.20625Q178.28438 30.003124 178.19063 31.3625ZM189.4875 37.55L187.8625 37.55L187.8625 23.2375L189.6125 23.2375L189.6125 28.346874Q190.7375 26.940624 192.45625 26.940624Q193.40938 26.940624 194.26875 27.33125Q195.12813 27.721874 195.675 28.425Q196.22188 29.1125 196.53438 30.096874Q196.84688 31.08125 196.84688 32.20625Q196.84688 34.878124 195.53438 36.33125Q194.22188 37.784374 192.37813 37.784374Q190.53438 37.784374 189.4875 36.253124L189.4875 37.55ZM189.47188 32.284374Q189.47188 34.14375 189.97188 34.9875Q190.81563 36.33125 192.22188 36.33125Q193.37813 36.33125 194.20625 35.33125Q195.05 34.33125 195.05 32.346874Q195.05 30.315624 194.2375 29.3625Q193.44063 28.39375 192.3 28.39375Q191.14375 28.39375 190.3 29.39375Q189.47188 30.39375 189.47188 32.284374ZM199.09688 37.55L199.09688 23.2375L204.4875 23.2375Q205.925 23.2375 206.675 23.3625Q207.72188 23.55 208.44063 24.05Q209.15938 24.534374 209.58125 25.425Q210.01875 26.315624 210.01875 27.378124Q210.01875 29.20625 208.84688 30.471874Q207.69063 31.721874 204.65938 31.721874L200.9875 31.721874L200.9875 37.55L199.09688 37.55ZM200.9875 30.034374L204.69063 30.034374Q206.51875 30.034374 207.28438 29.3625Q208.06563 28.675 208.06563 27.425Q208.06563 26.534374 207.6125 25.89375Q207.15938 25.253124 206.425 25.05Q205.94063 24.925 204.64375 24.925L200.9875 24.925L200.9875 30.034374ZM217.15938 34.45625L218.90938 34.175Q219.05 35.221874 219.72188 35.784374Q220.39375 36.33125 221.59688 36.33125Q222.8 36.33125 223.37813 35.846874Q223.97188 35.346874 223.97188 34.690624Q223.97188 34.096874 223.45625 33.753124Q223.09688 33.51875 221.65938 33.159374Q219.72188 32.659374 218.97188 32.315624Q218.2375 31.95625 217.84688 31.33125Q217.45625 30.690624 217.45625 29.925Q217.45625 29.2375 217.76875 28.64375Q218.09688 28.05 218.64375 27.659374Q219.05 27.3625 219.75313 27.159374Q220.47188 26.940624 221.28438 26.940624Q222.50313 26.940624 223.425 27.3Q224.34688 27.64375 224.78438 28.253124Q225.22188 28.846874 225.39375 29.846874L223.675 30.08125Q223.55 29.284374 222.9875 28.846874Q222.425 28.39375 221.40938 28.39375Q220.19063 28.39375 219.675 28.8Q219.15938 29.190624 219.15938 29.721874Q219.15938 30.065624 219.37813 30.346874Q219.58125 30.628124 220.05 30.815624Q220.31563 30.909374 221.59688 31.253124Q223.47188 31.753124 224.20625 32.08125Q224.94063 32.39375 225.3625 33.003124Q225.78438 33.596874 225.78438 34.503124Q225.78438 35.378124 225.26875 36.159374Q224.75313 36.940624 223.78438 37.3625Q222.81563 37.784374 221.59688 37.784374Q219.58125 37.784374 218.51875 36.940624Q217.45625 36.096874 217.15938 34.45625ZM227.87813 25.253124L227.87813 23.2375L229.64375 23.2375L229.64375 25.253124L227.87813 25.253124ZM227.87813 37.55L227.87813 27.175L229.64375 27.175L229.64375 37.55L227.87813 37.55ZM230.94063 37.55L230.94063 36.128124L237.55 28.55Q236.425 28.596874 235.56563 28.596874L231.33125 28.596874L231.33125 27.175L239.81563 27.175L239.81563 28.346874L234.19063 34.925L233.1125 36.128124Q234.28438 36.034374 235.33125 36.034374L240.12813 36.034374L240.12813 37.55L230.94063 37.55ZM247.97188 34.20625L249.78438 34.440624Q249.3625 36.01875 248.19063 36.909374Q247.03438 37.784374 245.22188 37.784374Q242.95625 37.784374 241.6125 36.39375Q240.28438 34.9875 240.28438 32.45625Q240.28438 29.83125 241.62813 28.39375Q242.97188 26.940624 245.12813 26.940624Q247.20625 26.940624 248.51875 28.3625Q249.84688 29.76875 249.84688 32.346874Q249.84688 32.503124 249.83125 32.815624L242.09688 32.815624Q242.19063 34.51875 243.06563 35.425Q243.94063 36.33125 245.2375 36.33125Q246.20625 36.33125 246.87813 35.83125Q247.56563 35.315624 247.97188 34.20625ZM242.19063 31.3625L247.9875 31.3625Q247.87813 30.065624 247.33125 29.409374Q246.4875 28.39375 245.14375 28.39375Q243.94063 28.39375 243.1125 29.20625Q242.28438 30.003124 242.19063 31.3625ZM261.22186 41.753124Q259.76874 39.925 258.76874 37.471874Q257.76874 35.003124 257.76874 32.3625Q257.76874 30.034374 258.51874 27.909374Q259.39374 25.440624 261.22186 22.9875L262.4875 22.9875Q261.3 25.01875 260.925 25.89375Q260.33124 27.2375 259.9875 28.70625Q259.5656 30.534374 259.5656 32.378124Q259.5656 37.065624 262.4875 41.753124L261.22186 41.753124ZM265.01874 37.55L265.01874 23.2375L266.90936 23.2375L266.90936 30.33125L274.01874 23.2375L276.58124 23.2375L270.58124 29.034374L276.84686 37.55L274.34686 37.55L269.2531 30.3L266.90936 32.58125L266.90936 37.55L265.01874 37.55ZM278.01874 37.55L278.01874 23.2375L283.39374 23.2375Q285.03436 23.2375 286.01874 23.675Q287.0031 24.096874 287.5656 25.003124Q288.1281 25.909374 288.1281 26.89375Q288.1281 27.815624 287.6281 28.628124Q287.14374 29.440624 286.1281 29.925Q287.425 30.315624 288.1281 31.2375Q288.83124 32.14375 288.83124 33.39375Q288.83124 34.409374 288.39374 35.26875Q287.97186 36.128124 287.34686 36.596874Q286.72186 37.065624 285.78436 37.315624Q284.84686 37.55 283.47186 37.55L278.01874 37.55ZM279.90936 29.253124L283.0031 29.253124Q284.26874 29.253124 284.8156 29.08125Q285.53436 28.8625 285.89374 28.378124Q286.26874 27.878124 286.26874 27.1125Q286.26874 26.409374 285.925 25.8625Q285.58124 25.315624 284.9406 25.128124Q284.3156 24.925 282.76874 24.925L279.90936 24.925L279.90936 29.253124ZM279.90936 35.8625L283.47186 35.8625Q284.39374 35.8625 284.76874 35.784374Q285.425 35.675 285.8625 35.409374Q286.3 35.128124 286.58124 34.6125Q286.8625 34.08125 286.8625 33.39375Q286.8625 32.596874 286.45624 32.003124Q286.05 31.409374 285.3156 31.175Q284.58124 30.940624 283.22186 30.940624L279.90936 30.940624L279.90936 35.8625ZM292.01874 41.753124L290.76874 41.753124Q293.675 37.065624 293.675 32.378124Q293.675 30.534374 293.26874 28.7375Q292.925 27.26875 292.33124 25.925Q291.95624 25.034374 290.76874 22.9875L292.01874 22.9875Q293.8625 25.440624 294.7375 27.909374Q295.4875 30.034374 295.4875 32.3625Q295.4875 35.003124 294.47186 37.471874Q293.47186 39.925 292.01874 41.753124Z" fill-rule="nonzero"/></svg>